<?xml version="1.0" encoding="UTF-8"?>
<!DOCTYPE xmeml>
<xmeml version="5">
<sequence id="Master - Establishing Readjust">
	<uuid>6245F032-58DE-4786-8507-30F064795ED0</uuid>
	<updatebehavior>add</updatebehavior>
	<name>Master - Establishing Readjust</name>
	<duration>137151</duration>
	<rate>
		<ntsc>FALSE</ntsc>
		<timebase>25</timebase>
	</rate>
	<timecode>
		<rate>
			<ntsc>FALSE</ntsc>
			<timebase>25</timebase>
		</rate>
		<string>01:00:00:00</string>
		<frame>90000</frame>
		<source>source</source>
		<displayformat>NDF</displayformat>
	</timecode>
	<in>-1</in>
	<out>-1</out>
	<media>
		<video>
			<format>
				<samplecharacteristics>
					<width>1280</width>
					<height>720</height>
					<anamorphic>FALSE</anamorphic>
					<pixelaspectratio>Square</pixelaspectratio>
					<fielddominance>none</fielddominance>
					<rate>
						<ntsc>FALSE</ntsc>
						<timebase>25</timebase>
					</rate>
					<colordepth>24</colordepth>
					<codec>
						<name>Apple ProRes 422</name>
						<appspecificdata>
							<appname>Final Cut Pro</appname>
							<appmanufacturer>Apple Inc.</appmanufacturer>
							<appversion>7.0</appversion>
							<data>
								<qtcodec>
									<codecname>Apple ProRes 422</codecname>
									<codectypename>Apple ProRes 422 (HQ)</codectypename>
									<codectypecode>apch</codectypecode>
									<codecvendorcode>appl</codecvendorcode>
									<spatialquality>1024</spatialquality>
									<temporalquality>0</temporalquality>
									<keyframerate>0</keyframerate>
									<datarate>0</datarate>
								</qtcodec>
							</data>
						</appspecificdata>
					</codec>
				</samplecharacteristics>
				<appspecificdata>
					<appname>Final Cut Pro</appname>
					<appmanufacturer>Apple Inc.</appmanufacturer>
					<appversion>7.0</appversion>
					<data>
						<fcpimageprocessing>
							<useyuv>TRUE</useyuv>
							<usesuperwhite>FALSE</usesuperwhite>
							<rendermode>Float10BPP</rendermode>
						</fcpimageprocessing>
					</data>
				</appspecificdata>
			</format>
			<track>
				<clipitem id="JulieHill005 ">
					<name>JulieHill005</name>
					<duration>552</duration>
					<rate>
						<ntsc>FALSE</ntsc>
						<timebase>25</timebase>
					</rate>
					<in>0</in>
					<out>551</out>
					<start>15316</start>
					<end>15867</end>
					<pixelaspectratio>Square</pixelaspectratio>
					<enabled>TRUE</enabled>
					<anamorphic>FALSE</anamorphic>
					<alphatype>none</alphatype>
					<logginginfo>
						<scene/>
						<shottake/>
						<lognote/>
						<good>FALSE</good>
					</logginginfo>
					<labels>
						<label2/>
					</labels>
					<comments>
						<mastercomment1/>
						<mastercomment2/>
						<mastercomment3/>
						<mastercomment4/>
					</comments>
					<file id="JulieHill005 1">
						<name>JulieHill005</name>
						<pathurl>file://localhost/Volumes/Michael's%20Passport/woodbdrigenov2011media/JulieHill005</pathurl>
						<rate>
							<timebase>25</timebase>
						</rate>
						<duration>552</duration>
						<metadata>
							<storage>QuickTime</storage>
							<key>com.apple.finalcutstudio.media.uuid</key>
							<size>36</size>
							<type>UTF8</type>
							<value>7FABD6D6-034F-47F8-812B-7E378D860F19</value>
						</metadata>
						<metadata>
							<storage>QuickTime</storage>
							<key>com.apple.finalcutstudio.media.history.uuid</key>
							<size>36</size>
							<type>UTF8</type>
							<value>DDC72879-2B60-48B9-9068-BF427BF04CDE</value>
						</metadata>
						<timecode>
							<rate>
								<timebase>25</timebase>
							</rate>
							<string>00:00:00:00</string>
							<frame>0</frame>
							<displayformat>NDF</displayformat>
							<source>source</source>
							<reel>
								<name>JulieHill</name>
							</reel>
						</timecode>
						<media>
							<video>
								<duration>552</duration>
								<samplecharacteristics>
									<width>1280</width>
									<height>720</height>
								</samplecharacteristics>
							</video>
							<audio>
								<samplecharacteristics>
									<samplerate>48000</samplerate>
									<depth>16</depth>
								</samplecharacteristics>
								<channelcount>2</channelcount>
								<layout>stereo</layout>
								<audiochannel>
									<sourcechannel>1</sourcechannel>
									<channellabel>left</channellabel>
								</audiochannel>
								<audiochannel>
									<sourcechannel>2</sourcechannel>
									<channellabel>right</channellabel>
								</audiochannel>
							</audio>
						</media>
					</file>
					<sourcetrack>
						<mediatype>video</mediatype>
					</sourcetrack>
					<fielddominance>none</fielddominance>
					<itemhistory>
						<uuid>CA73EA5E-00E6-4055-AFA8-FCFEB3945768</uuid>
						<uuid>2406898C-C4BA-470D-9849-BF35093310FD</uuid>
					</itemhistory>
				</clipitem>
				<clipitem id="JulieHill006Subclipa">
					<name>JulieHill006Subclipa</name>
					<duration>324</duration>
					<rate>
						<ntsc>FALSE</ntsc>
						<timebase>25</timebase>
					</rate>
					<in>0</in>
					<out>323</out>
					<start>16923</start>
					<end>17246</end>
					<pixelaspectratio>Square</pixelaspectratio>
					<enabled>TRUE</enabled>
					<anamorphic>FALSE</anamorphic>
					<alphatype>none</alphatype>
					<logginginfo>
						<scene/>
						<shottake/>
						<lognote/>
						<good>FALSE</good>
					</logginginfo>
					<labels>
						<label2/>
					</labels>
					<comments>
						<mastercomment1/>
						<mastercomment2/>
						<mastercomment3/>
						<mastercomment4/>
					</comments>
					<file id="JulieHill006Subclipa1">
						<name>JulieHill006Subclipa</name>
						<pathurl>file://localhost/Volumes/Michael's%20Passport/woodbdrigenov2011media/JulieHill006Subclipa</pathurl>
						<rate>
							<timebase>25</timebase>
						</rate>
						<duration>324</duration>
						<metadata>
							<storage>QuickTime</storage>
							<key>com.apple.finalcutstudio.media.uuid</key>
							<size>36</size>
							<type>UTF8</type>
							<value>2F97E6A4-DD0C-4056-A713-3A660EF8A6D1</value>
						</metadata>
						<metadata>
							<storage>QuickTime</storage>
							<key>com.apple.finalcutstudio.media.history.uuid</key>
							<size>36</size>
							<type>UTF8</type>
							<value>EAB3C331-F5E9-4735-BA37-827F776D04C7</value>
						</metadata>
						<timecode>
							<rate>
								<timebase>25</timebase>
							</rate>
							<string>00:00:14:22</string>
							<frame>372</frame>
							<displayformat>NDF</displayformat>
							<source>source</source>
							<reel>
								<name>JulieHill</name>
							</reel>
						</timecode>
						<media>
							<video>
								<duration>324</duration>
								<samplecharacteristics>
									<width>1280</width>
									<height>720</height>
								</samplecharacteristics>
							</video>
							<audio>
								<samplecharacteristics>
									<samplerate>48000</samplerate>
									<depth>16</depth>
								</samplecharacteristics>
								<channelcount>2</channelcount>
								<layout>stereo</layout>
								<audiochannel>
									<sourcechannel>1</sourcechannel>
									<channellabel>left</channellabel>
								</audiochannel>
								<audiochannel>
									<sourcechannel>2</sourcechannel>
									<channellabel>right</channellabel>
								</audiochannel>
							</audio>
						</media>
					</file>
					<sourcetrack>
						<mediatype>video</mediatype>
					</sourcetrack>
					<fielddominance>none</fielddominance>
					<itemhistory>
						<uuid>2C165FD4-E162-457A-AFE2-ECDC1FD8BC1D</uuid>
						<uuid>A5612357-21B4-4E39-87D7-6AA32897F349</uuid>
					</itemhistory>
				</clipitem>
				<clipitem id="JulieHill007Subclipa">
					<name>JulieHill007Subclipa</name>
					<duration>338</duration>
					<rate>
						<ntsc>FALSE</ntsc>
						<timebase>25</timebase>
					</rate>
					<in>0</in>
					<out>338</out>
					<start>19081</start>
					<end>19419</end>
					<pixelaspectratio>Square</pixelaspectratio>
					<anamorphic>FALSE</anamorphic>
					<alphatype>none</alphatype>
					<logginginfo>
						<scene/>
						<shottake/>
						<lognote/>
						<good>FALSE</good>
					</logginginfo>
					<labels>
						<label2/>
					</labels>
					<comments>
						<mastercomment1/>
						<mastercomment2/>
						<mastercomment3/>
						<mastercomment4/>
					</comments>
					<file id="JulieHill007Subclipa1">
						<name>JulieHill007Subclipa</name>
						<pathurl>file://localhost/Volumes/Michael's%20Passport/woodbdrigenov2011media/JulieHill007Subclipa</pathurl>
						<rate>
							<timebase>25</timebase>
						</rate>
						<duration>338</duration>
						<metadata>
							<storage>QuickTime</storage>
							<key>com.apple.finalcutstudio.media.uuid</key>
							<size>36</size>
							<type>UTF8</type>
							<value>52DF40A0-BD8E-49E8-8BFF-B621F21D5DF1</value>
						</metadata>
						<metadata>
							<storage>QuickTime</storage>
							<key>com.apple.finalcutstudio.media.history.uuid</key>
							<size>36</size>
							<type>UTF8</type>
							<value>763EBCC8-D063-44AD-98AD-2B53F3BFB291</value>
						</metadata>
						<timecode>
							<rate>
								<timebase>25</timebase>
							</rate>
							<string>00:00:04:17</string>
							<frame>117</frame>
							<displayformat>NDF</displayformat>
							<source>source</source>
							<reel>
								<name>JulieHill</name>
							</reel>
						</timecode>
						<media>
							<video>
								<duration>338</duration>
								<samplecharacteristics>
									<width>1280</width>
									<height>720</height>
								</samplecharacteristics>
							</video>
							<audio>
								<samplecharacteristics>
									<samplerate>48000</samplerate>
									<depth>16</depth>
								</samplecharacteristics>
								<channelcount>2</channelcount>
								<layout>stereo</layout>
								<audiochannel>
									<sourcechannel>1</sourcechannel>
									<channellabel>left</channellabel>
								</audiochannel>
								<audiochannel>
									<sourcechannel>2</sourcechannel>
									<channellabel>right</channellabel>
								</audiochannel>
							</audio>
						</media>
					</file>
					<sourcetrack>
						<mediatype>video</mediatype>
					</sourcetrack>
					<fielddominance>none</fielddominance>
					<itemhistory>
						<uuid>D184A4B3-EFC2-4BEE-BE32-715DD8A93D25</uuid>
						<uuid>0BF86960-EE66-413A-9EBF-EC218577B18D</uuid>
					</itemhistory>
				</clipitem>
				<clipitem id="JulieHill008Subclipa">
					<name>JulieHill008Subclipa</name>
					<duration>642</duration>
					<rate>
						<ntsc>FALSE</ntsc>
						<timebase>25</timebase>
					</rate>
					<in>0</in>
					<out>641</out>
					<start>24582</start>
					<end>25223</end>
					<pixelaspectratio>Square</pixelaspectratio>
					<anamorphic>FALSE</anamorphic>
					<alphatype>none</alphatype>
					<logginginfo>
						<scene/>
						<shottake/>
						<lognote/>
						<good>FALSE</good>
					</logginginfo>
					<labels>
						<label2/>
					</labels>
					<comments>
						<mastercomment1/>
						<mastercomment2/>
						<mastercomment3/>
						<mastercomment4/>
					</comments>
					<file id="JulieHill008Subclipa1">
						<name>JulieHill008Subclipa</name>
						<pathurl>file://localhost/Volumes/Michael's%20Passport/woodbdrigenov2011media/JulieHill008Subclipa</pathurl>
						<rate>
							<timebase>25</timebase>
						</rate>
						<duration>642</duration>
						<metadata>
							<storage>QuickTime</storage>
							<key>com.apple.finalcutstudio.media.uuid</key>
							<size>36</size>
							<type>UTF8</type>
							<value>5DF24D8A-6C18-404C-AFE2-B263115CB080</value>
						</metadata>
						<metadata>
							<storage>QuickTime</storage>
							<key>com.apple.finalcutstudio.media.history.uuid</key>
							<size>36</size>
							<type>UTF8</type>
							<value>66253A31-622C-4E5F-AE4E-41EB46E365F8</value>
						</metadata>
						<timecode>
							<rate>
								<timebase>25</timebase>
							</rate>
							<string>00:00:01:19</string>
							<frame>44</frame>
							<displayformat>NDF</displayformat>
							<source>source</source>
							<reel>
								<name>JulieHill</name>
							</reel>
						</timecode>
						<media>
							<video>
								<duration>642</duration>
								<samplecharacteristics>
									<width>1280</width>
									<height>720</height>
								</samplecharacteristics>
							</video>
							<audio>
								<samplecharacteristics>
									<samplerate>48000</samplerate>
									<depth>16</depth>
								</samplecharacteristics>
								<channelcount>2</channelcount>
								<layout>stereo</layout>
								<audiochannel>
									<sourcechannel>1</sourcechannel>
									<channellabel>left</channellabel>
								</audiochannel>
								<audiochannel>
									<sourcechannel>2</sourcechannel>
									<channellabel>right</channellabel>
								</audiochannel>
							</audio>
						</media>
					</file>
					<sourcetrack>
						<mediatype>video</mediatype>
					</sourcetrack>
					<fielddominance>none</fielddominance>
					<itemhistory>
						<uuid>207D7DE2-1F09-4523-A641-5BFB61D38F14</uuid>
						<uuid>001B5E12-3F8A-495B-9004-F104B339CEA0</uuid>
					</itemhistory>
				</clipitem>
				<clipitem id="JulieHill008Subclipb">
					<name>JulieHill008Subclipb</name>
					<duration>369</duration>
					<rate>
						<ntsc>FALSE</ntsc>
						<timebase>25</timebase>
					</rate>
					<in>0</in>
					<out>368</out>
					<start>25381</start>
					<end>25749</end>
					<pixelaspectratio>Square</pixelaspectratio>
					<anamorphic>FALSE</anamorphic>
					<alphatype>none</alphatype>
					<logginginfo>
						<scene/>
						<shottake/>
						<lognote/>
						<good>FALSE</good>
					</logginginfo>
					<labels>
						<label2/>
					</labels>
					<comments>
						<mastercomment1/>
						<mastercomment2/>
						<mastercomment3/>
						<mastercomment4/>
					</comments>
					<file id="JulieHill008Subclipb1">
						<name>JulieHill008Subclipb</name>
						<pathurl>file://localhost/Volumes/Michael's%20Passport/woodbdrigenov2011media/JulieHill008Subclipb</pathurl>
						<rate>
							<timebase>25</timebase>
						</rate>
						<duration>369</duration>
						<metadata>
							<storage>QuickTime</storage>
							<key>com.apple.finalcutstudio.media.uuid</key>
							<size>36</size>
							<type>UTF8</type>
							<value>F08CFB68-4024-4B77-BAFA-813F6A9A375D</value>
						</metadata>
						<metadata>
							<storage>QuickTime</storage>
							<key>com.apple.finalcutstudio.media.history.uuid</key>
							<size>36</size>
							<type>UTF8</type>
							<value>66253A31-622C-4E5F-AE4E-41EB46E365F8</value>
						</metadata>
						<timecode>
							<rate>
								<timebase>25</timebase>
							</rate>
							<string>00:00:33:18</string>
							<frame>843</frame>
							<displayformat>NDF</displayformat>
							<source>source</source>
							<reel>
								<name>JulieHill</name>
							</reel>
						</timecode>
						<media>
							<video>
								<duration>369</duration>
								<samplecharacteristics>
									<width>1280</width>
									<height>720</height>
								</samplecharacteristics>
							</video>
							<audio>
								<samplecharacteristics>
									<samplerate>48000</samplerate>
									<depth>16</depth>
								</samplecharacteristics>
								<channelcount>2</channelcount>
								<layout>stereo</layout>
								<audiochannel>
									<sourcechannel>1</sourcechannel>
									<channellabel>left</channellabel>
								</audiochannel>
								<audiochannel>
									<sourcechannel>2</sourcechannel>
									<channellabel>right</channellabel>
								</audiochannel>
							</audio>
						</media>
					</file>
					<sourcetrack>
						<mediatype>video</mediatype>
					</sourcetrack>
					<fielddominance>none</fielddominance>
					<itemhistory>
						<uuid>A74CE9DB-5BCB-4843-BBFC-F844B61E6D64</uuid>
						<uuid>A82B4762-65CE-432B-ACB1-B23F8DE354AF</uuid>
					</itemhistory>
				</clipitem>
				<clipitem id="JulieHill008Subclipc">
					<name>JulieHill008Subclipc</name>
					<duration>548</duration>
					<rate>
						<ntsc>FALSE</ntsc>
						<timebase>25</timebase>
					</rate>
					<in>0</in>
					<out>548</out>
					<start>25874</start>
					<end>26422</end>
					<pixelaspectratio>Square</pixelaspectratio>
					<anamorphic>FALSE</anamorphic>
					<alphatype>none</alphatype>
					<logginginfo>
						<scene/>
						<shottake/>
						<lognote/>
						<good>FALSE</good>
					</logginginfo>
					<labels>
						<label2/>
					</labels>
					<comments>
						<mastercomment1/>
						<mastercomment2/>
						<mastercomment3/>
						<mastercomment4/>
					</comments>
					<file id="JulieHill008Subclipc1">
						<name>JulieHill008Subclipc</name>
						<pathurl>file://localhost/Volumes/Michael's%20Passport/woodbdrigenov2011media/JulieHill008Subclipc</pathurl>
						<rate>
							<timebase>25</timebase>
						</rate>
						<duration>548</duration>
						<metadata>
							<storage>QuickTime</storage>
							<key>com.apple.finalcutstudio.media.uuid</key>
							<size>36</size>
							<type>UTF8</type>
							<value>54C262A0-37DC-43F7-84B4-D04DA02F7257</value>
						</metadata>
						<metadata>
							<storage>QuickTime</storage>
							<key>com.apple.finalcutstudio.media.history.uuid</key>
							<size>36</size>
							<type>UTF8</type>
							<value>66253A31-622C-4E5F-AE4E-41EB46E365F8</value>
						</metadata>
						<timecode>
							<rate>
								<timebase>25</timebase>
							</rate>
							<string>00:00:53:11</string>
							<frame>1336</frame>
							<displayformat>NDF</displayformat>
							<source>source</source>
							<reel>
								<name>JulieHill</name>
							</reel>
						</timecode>
						<media>
							<video>
								<duration>548</duration>
								<samplecharacteristics>
									<width>1280</width>
									<height>720</height>
								</samplecharacteristics>
							</video>
							<audio>
								<samplecharacteristics>
									<samplerate>48000</samplerate>
									<depth>16</depth>
								</samplecharacteristics>
								<channelcount>2</channelcount>
								<layout>stereo</layout>
								<audiochannel>
									<sourcechannel>1</sourcechannel>
									<channellabel>left</channellabel>
								</audiochannel>
								<audiochannel>
									<sourcechannel>2</sourcechannel>
									<channellabel>right</channellabel>
								</audiochannel>
							</audio>
						</media>
					</file>
					<sourcetrack>
						<mediatype>video</mediatype>
					</sourcetrack>
					<fielddominance>none</fielddominance>
					<itemhistory>
						<uuid>ADB26FEE-450F-4AB5-865E-4C61FC9E638D</uuid>
						<uuid>67CDAA65-D23F-476E-B660-AE7D91577DD6</uuid>
					</itemhistory>
				</clipitem>
				<clipitem id="JulieHill009Subclipa">
					<name>JulieHill009Subclipa</name>
					<duration>88</duration>
					<rate>
						<ntsc>FALSE</ntsc>
						<timebase>25</timebase>
					</rate>
					<in>0</in>
					<out>88</out>
					<start>29417</start>
					<end>29505</end>
					<pixelaspectratio>Square</pixelaspectratio>
					<anamorphic>FALSE</anamorphic>
					<alphatype>none</alphatype>
					<logginginfo>
						<scene/>
						<shottake/>
						<lognote/>
						<good>FALSE</good>
					</logginginfo>
					<labels>
						<label2/>
					</labels>
					<comments>
						<mastercomment1/>
						<mastercomment2/>
						<mastercomment3/>
						<mastercomment4/>
					</comments>
					<file id="JulieHill009Subclipa1">
						<name>JulieHill009Subclipa</name>
						<pathurl>file://localhost/Volumes/Michael's%20Passport/woodbdrigenov2011media/JulieHill009Subclipa</pathurl>
						<rate>
							<timebase>25</timebase>
						</rate>
						<duration>88</duration>
						<metadata>
							<storage>QuickTime</storage>
							<key>com.apple.finalcutstudio.media.uuid</key>
							<size>36</size>
							<type>UTF8</type>
							<value>F49972C9-EF1A-4616-914F-B6C93E34CE16</value>
						</metadata>
						<metadata>
							<storage>QuickTime</storage>
							<key>com.apple.finalcutstudio.media.history.uuid</key>
							<size>36</size>
							<type>UTF8</type>
							<value>F1258805-5F8C-4E29-A1F7-5AD148B20028</value>
						</metadata>
						<timecode>
							<rate>
								<timebase>25</timebase>
							</rate>
							<string>00:00:02:06</string>
							<frame>56</frame>
							<displayformat>NDF</displayformat>
							<source>source</source>
							<reel>
								<name>JulieHill</name>
							</reel>
						</timecode>
						<media>
							<video>
								<duration>88</duration>
								<samplecharacteristics>
									<width>1280</width>
									<height>720</height>
								</samplecharacteristics>
							</video>
							<audio>
								<samplecharacteristics>
									<samplerate>48000</samplerate>
									<depth>16</depth>
								</samplecharacteristics>
								<channelcount>2</channelcount>
								<layout>stereo</layout>
								<audiochannel>
									<sourcechannel>1</sourcechannel>
									<channellabel>left</channellabel>
								</audiochannel>
								<audiochannel>
									<sourcechannel>2</sourcechannel>
									<channellabel>right</channellabel>
								</audiochannel>
							</audio>
						</media>
					</file>
					<sourcetrack>
						<mediatype>video</mediatype>
					</sourcetrack>
					<fielddominance>none</fielddominance>
					<itemhistory>
						<uuid>F15DBA83-A192-4AA7-B044-A708093627A1</uuid>
						<uuid>5D03B064-10EE-4BCC-86B2-499FA8A940B7</uuid>
					</itemhistory>
				</clipitem>
				<clipitem id="JulieHill010Subclipa">
					<name>JulieHill010Subclipa</name>
					<duration>1691</duration>
					<rate>
						<ntsc>FALSE</ntsc>
						<timebase>25</timebase>
					</rate>
					<in>0</in>
					<out>1690</out>
					<start>29759</start>
					<end>31449</end>
					<pixelaspectratio>Square</pixelaspectratio>
					<anamorphic>FALSE</anamorphic>
					<alphatype>none</alphatype>
					<logginginfo>
						<scene/>
						<shottake/>
						<lognote/>
						<good>FALSE</good>
					</logginginfo>
					<labels>
						<label2/>
					</labels>
					<comments>
						<mastercomment1/>
						<mastercomment2/>
						<mastercomment3/>
						<mastercomment4/>
					</comments>
					<file id="JulieHill010Subclipa1">
						<name>JulieHill010Subclipa</name>
						<pathurl>file://localhost/Volumes/Michael's%20Passport/woodbdrigenov2011media/JulieHill010Subclipa</pathurl>
						<rate>
							<timebase>25</timebase>
						</rate>
						<duration>1691</duration>
						<metadata>
							<storage>QuickTime</storage>
							<key>com.apple.finalcutstudio.media.uuid</key>
							<size>36</size>
							<type>UTF8</type>
							<value>481709AD-C0C6-41A8-8FD6-2E35CE102316</value>
						</metadata>
						<metadata>
							<storage>QuickTime</storage>
							<key>com.apple.finalcutstudio.media.history.uuid</key>
							<size>36</size>
							<type>UTF8</type>
							<value>D8EAD373-C563-4BC9-80A7-293EA6EB2D3D</value>
						</metadata>
						<timecode>
							<rate>
								<timebase>25</timebase>
							</rate>
							<string>00:00:00:00</string>
							<frame>0</frame>
							<displayformat>NDF</displayformat>
							<source>source</source>
							<reel>
								<name>JulieHill</name>
							</reel>
						</timecode>
						<media>
							<video>
								<duration>1691</duration>
								<samplecharacteristics>
									<width>1280</width>
									<height>720</height>
								</samplecharacteristics>
							</video>
							<audio>
								<samplecharacteristics>
									<samplerate>48000</samplerate>
									<depth>16</depth>
								</samplecharacteristics>
								<channelcount>2</channelcount>
								<layout>stereo</layout>
								<audiochannel>
									<sourcechannel>1</sourcechannel>
									<channellabel>left</channellabel>
								</audiochannel>
								<audiochannel>
									<sourcechannel>2</sourcechannel>
									<channellabel>right</channellabel>
								</audiochannel>
							</audio>
						</media>
					</file>
					<sourcetrack>
						<mediatype>video</mediatype>
					</sourcetrack>
					<fielddominance>none</fielddominance>
					<itemhistory>
						<uuid>9D37131A-136D-4E0D-8344-68D70F68816E</uuid>
						<uuid>771ED839-2761-4A7C-A6BB-90A5A17F1CCB</uuid>
					</itemhistory>
				</clipitem>
				<clipitem id="JulieHill010Subclipb">
					<name>JulieHill010Subclipb</name>
					<duration>525</duration>
					<rate>
						<ntsc>FALSE</ntsc>
						<timebase>25</timebase>
					</rate>
					<in>0</in>
					<out>525</out>
					<start>31587</start>
					<end>32112</end>
					<pixelaspectratio>Square</pixelaspectratio>
					<anamorphic>FALSE</anamorphic>
					<alphatype>none</alphatype>
					<logginginfo>
						<scene/>
						<shottake/>
						<lognote/>
						<good>FALSE</good>
					</logginginfo>
					<labels>
						<label2/>
					</labels>
					<comments>
						<mastercomment1/>
						<mastercomment2/>
						<mastercomment3/>
						<mastercomment4/>
					</comments>
					<file id="JulieHill010Subclipb1">
						<name>JulieHill010Subclipb</name>
						<pathurl>file://localhost/Volumes/Michael's%20Passport/woodbdrigenov2011media/JulieHill010Subclipb</pathurl>
						<rate>
							<timebase>25</timebase>
						</rate>
						<duration>525</duration>
						<metadata>
							<storage>QuickTime</storage>
							<key>com.apple.finalcutstudio.media.uuid</key>
							<size>36</size>
							<type>UTF8</type>
							<value>A69478FF-5DC8-4438-B8F7-07755A2ACCFF</value>
						</metadata>
						<metadata>
							<storage>QuickTime</storage>
							<key>com.apple.finalcutstudio.media.history.uuid</key>
							<size>36</size>
							<type>UTF8</type>
							<value>D8EAD373-C563-4BC9-80A7-293EA6EB2D3D</value>
						</metadata>
						<timecode>
							<rate>
								<timebase>25</timebase>
							</rate>
							<string>00:01:13:02</string>
							<frame>1827</frame>
							<displayformat>NDF</displayformat>
							<source>source</source>
							<reel>
								<name>JulieHill</name>
							</reel>
						</timecode>
						<media>
							<video>
								<duration>525</duration>
								<samplecharacteristics>
									<width>1280</width>
									<height>720</height>
								</samplecharacteristics>
							</video>
							<audio>
								<samplecharacteristics>
									<samplerate>48000</samplerate>
									<depth>16</depth>
								</samplecharacteristics>
								<channelcount>2</channelcount>
								<layout>stereo</layout>
								<audiochannel>
									<sourcechannel>1</sourcechannel>
									<channellabel>left</channellabel>
								</audiochannel>
								<audiochannel>
									<sourcechannel>2</sourcechannel>
									<channellabel>right</channellabel>
								</audiochannel>
							</audio>
						</media>
					</file>
					<sourcetrack>
						<mediatype>video</mediatype>
					</sourcetrack>
					<fielddominance>none</fielddominance>
					<itemhistory>
						<uuid>8E74C494-2EE8-42C6-9780-9DCAB0A58F6E</uuid>
						<uuid>8E0533F2-7B1D-45F6-97AB-60D32D326833</uuid>
					</itemhistory>
				</clipitem>
				<clipitem id="JulieHill011Subclipa">
					<name>JulieHill011Subclipa</name>
					<duration>132</duration>
					<rate>
						<ntsc>FALSE</ntsc>
						<timebase>25</timebase>
					</rate>
					<in>0</in>
					<out>132</out>
					<start>32654</start>
					<end>32786</end>
					<pixelaspectratio>Square</pixelaspectratio>
					<anamorphic>FALSE</anamorphic>
					<alphatype>none</alphatype>
					<logginginfo>
						<scene/>
						<shottake/>
						<lognote/>
						<good>FALSE</good>
					</logginginfo>
					<labels>
						<label2/>
					</labels>
					<comments>
						<mastercomment1/>
						<mastercomment2/>
						<mastercomment3/>
						<mastercomment4/>
					</comments>
					<file id="JulieHill011Subclipa1">
						<name>JulieHill011Subclipa</name>
						<pathurl>file://localhost/Volumes/Michael's%20Passport/woodbdrigenov2011media/JulieHill011Subclipa</pathurl>
						<rate>
							<timebase>25</timebase>
						</rate>
						<duration>132</duration>
						<metadata>
							<storage>QuickTime</storage>
							<key>com.apple.finalcutstudio.media.uuid</key>
							<size>36</size>
							<type>UTF8</type>
							<value>BD08401A-EAAE-400C-A9EF-3E9566067E80</value>
						</metadata>
						<metadata>
							<storage>QuickTime</storage>
							<key>com.apple.finalcutstudio.media.history.uuid</key>
							<size>36</size>
							<type>UTF8</type>
							<value>BED641DD-3440-4DB7-8A82-C1FBC65424AD</value>
						</metadata>
						<timecode>
							<rate>
								<timebase>25</timebase>
							</rate>
							<string>00:00:03:01</string>
							<frame>76</frame>
							<displayformat>NDF</displayformat>
							<source>source</source>
							<reel>
								<name>JulieHill</name>
							</reel>
						</timecode>
						<media>
							<video>
								<duration>132</duration>
								<samplecharacteristics>
									<width>1280</width>
									<height>720</height>
								</samplecharacteristics>
							</video>
							<audio>
								<samplecharacteristics>
									<samplerate>48000</samplerate>
									<depth>16</depth>
								</samplecharacteristics>
								<channelcount>2</channelcount>
								<layout>stereo</layout>
								<audiochannel>
									<sourcechannel>1</sourcechannel>
									<channellabel>left</channellabel>
								</audiochannel>
								<audiochannel>
									<sourcechannel>2</sourcechannel>
									<channellabel>right</channellabel>
								</audiochannel>
							</audio>
						</media>
					</file>
					<sourcetrack>
						<mediatype>video</mediatype>
					</sourcetrack>
					<fielddominance>none</fielddominance>
					<itemhistory>
						<uuid>22AAC061-18B5-428A-9216-51B9695E21A7</uuid>
						<uuid>FC68C60B-6A9C-4081-9BF0-9AD9EEC1F027</uuid>
					</itemhistory>
				</clipitem>
				<clipitem id="JulieHill011Subclipb">
					<name>JulieHill011Subclipb</name>
					<duration>630</duration>
					<rate>
						<ntsc>FALSE</ntsc>
						<timebase>25</timebase>
					</rate>
					<in>0</in>
					<out>630</out>
					<start>32897</start>
					<end>33527</end>
					<pixelaspectratio>Square</pixelaspectratio>
					<anamorphic>FALSE</anamorphic>
					<alphatype>none</alphatype>
					<logginginfo>
						<scene/>
						<shottake/>
						<lognote/>
						<good>FALSE</good>
					</logginginfo>
					<labels>
						<label2/>
					</labels>
					<comments>
						<mastercomment1/>
						<mastercomment2/>
						<mastercomment3/>
						<mastercomment4/>
					</comments>
					<file id="JulieHill011Subclipb1">
						<name>JulieHill011Subclipb</name>
						<pathurl>file://localhost/Volumes/Michael's%20Passport/woodbdrigenov2011media/JulieHill011Subclipb</pathurl>
						<rate>
							<timebase>25</timebase>
						</rate>
						<duration>630</duration>
						<metadata>
							<storage>QuickTime</storage>
							<key>com.apple.finalcutstudio.media.uuid</key>
							<size>36</size>
							<type>UTF8</type>
							<value>255AA616-39E7-4C5F-9572-6694C817BF1F</value>
						</metadata>
						<metadata>
							<storage>QuickTime</storage>
							<key>com.apple.finalcutstudio.media.history.uuid</key>
							<size>36</size>
							<type>UTF8</type>
							<value>BED641DD-3440-4DB7-8A82-C1FBC65424AD</value>
						</metadata>
						<timecode>
							<rate>
								<timebase>25</timebase>
							</rate>
							<string>00:00:12:19</string>
							<frame>319</frame>
							<displayformat>NDF</displayformat>
							<source>source</source>
							<reel>
								<name>JulieHill</name>
							</reel>
						</timecode>
						<media>
							<video>
								<duration>630</duration>
								<samplecharacteristics>
									<width>1280</width>
									<height>720</height>
								</samplecharacteristics>
							</video>
							<audio>
								<samplecharacteristics>
									<samplerate>48000</samplerate>
									<depth>16</depth>
								</samplecharacteristics>
								<channelcount>2</channelcount>
								<layout>stereo</layout>
								<audiochannel>
									<sourcechannel>1</sourcechannel>
									<channellabel>left</channellabel>
								</audiochannel>
								<audiochannel>
									<sourcechannel>2</sourcechannel>
									<channellabel>right</channellabel>
								</audiochannel>
							</audio>
						</media>
					</file>
					<sourcetrack>
						<mediatype>video</mediatype>
					</sourcetrack>
					<fielddominance>none</fielddominance>
					<itemhistory>
						<uuid>A2CE323A-8752-46B5-8B4B-289C27A4C77B</uuid>
						<uuid>D1F15AC1-32E0-452F-81B4-50D4528E6644</uuid>
					</itemhistory>
				</clipitem>
				<clipitem id="JulieHill012Subclipa">
					<name>JulieHill012Subclipa</name>
					<duration>313</duration>
					<rate>
						<ntsc>FALSE</ntsc>
						<timebase>25</timebase>
					</rate>
					<in>0</in>
					<out>313</out>
					<start>36784</start>
					<end>37097</end>
					<pixelaspectratio>Square</pixelaspectratio>
					<anamorphic>FALSE</anamorphic>
					<alphatype>none</alphatype>
					<logginginfo>
						<scene/>
						<shottake/>
						<lognote/>
						<good>FALSE</good>
					</logginginfo>
					<labels>
						<label2/>
					</labels>
					<comments>
						<mastercomment1/>
						<mastercomment2/>
						<mastercomment3/>
						<mastercomment4/>
					</comments>
					<file id="JulieHill012Subclipa1">
						<name>JulieHill012Subclipa</name>
						<pathurl>file://localhost/Volumes/Michael's%20Passport/woodbdrigenov2011media/JulieHill012Subclipa</pathurl>
						<rate>
							<timebase>25</timebase>
						</rate>
						<duration>313</duration>
						<metadata>
							<storage>QuickTime</storage>
							<key>com.apple.finalcutstudio.media.uuid</key>
							<size>36</size>
							<type>UTF8</type>
							<value>E38FEC63-A68D-484F-94E4-58ED952901F2</value>
						</metadata>
						<metadata>
							<storage>QuickTime</storage>
							<key>com.apple.finalcutstudio.media.history.uuid</key>
							<size>36</size>
							<type>UTF8</type>
							<value>C0F336E4-EA68-4E1C-972C-474D6A962FCB</value>
						</metadata>
						<timecode>
							<rate>
								<timebase>25</timebase>
							</rate>
							<string>00:00:00:00</string>
							<frame>0</frame>
							<displayformat>NDF</displayformat>
							<source>source</source>
							<reel>
								<name>JulieHill</name>
							</reel>
						</timecode>
						<media>
							<video>
								<duration>313</duration>
								<samplecharacteristics>
									<width>1280</width>
									<height>720</height>
								</samplecharacteristics>
							</video>
							<audio>
								<samplecharacteristics>
									<samplerate>48000</samplerate>
									<depth>16</depth>
								</samplecharacteristics>
								<channelcount>2</channelcount>
								<layout>stereo</layout>
								<audiochannel>
									<sourcechannel>1</sourcechannel>
									<channellabel>left</channellabel>
								</audiochannel>
								<audiochannel>
									<sourcechannel>2</sourcechannel>
									<channellabel>right</channellabel>
								</audiochannel>
							</audio>
						</media>
					</file>
					<sourcetrack>
						<mediatype>video</mediatype>
					</sourcetrack>
					<fielddominance>none</fielddominance>
					<itemhistory>
						<uuid>4A952DAE-EFBA-4558-B08F-06D61073DDBF</uuid>
						<uuid>53D710B5-9CFF-4DB6-86FE-0699D8654C02</uuid>
					</itemhistory>
				</clipitem>
				<clipitem id="JulieHill012Subclipb">
					<name>JulieHill012Subclipb</name>
					<duration>1174</duration>
					<rate>
						<ntsc>FALSE</ntsc>
						<timebase>25</timebase>
					</rate>
					<in>0</in>
					<out>1174</out>
					<start>37182</start>
					<end>38356</end>
					<pixelaspectratio>Square</pixelaspectratio>
					<anamorphic>FALSE</anamorphic>
					<alphatype>none</alphatype>
					<logginginfo>
						<scene/>
						<shottake/>
						<lognote/>
						<good>FALSE</good>
					</logginginfo>
					<labels>
						<label2/>
					</labels>
					<comments>
						<mastercomment1/>
						<mastercomment2/>
						<mastercomment3/>
						<mastercomment4/>
					</comments>
					<file id="JulieHill012Subclipb1">
						<name>JulieHill012Subclipb</name>
						<pathurl>file://localhost/Volumes/Michael's%20Passport/woodbdrigenov2011media/JulieHill012Subclipb</pathurl>
						<rate>
							<timebase>25</timebase>
						</rate>
						<duration>1174</duration>
						<metadata>
							<storage>QuickTime</storage>
							<key>com.apple.finalcutstudio.media.uuid</key>
							<size>36</size>
							<type>UTF8</type>
							<value>BA91C4B4-5F88-4559-B2F1-F7DDF427BCAA</value>
						</metadata>
						<metadata>
							<storage>QuickTime</storage>
							<key>com.apple.finalcutstudio.media.history.uuid</key>
							<size>36</size>
							<type>UTF8</type>
							<value>C0F336E4-EA68-4E1C-972C-474D6A962FCB</value>
						</metadata>
						<timecode>
							<rate>
								<timebase>25</timebase>
							</rate>
							<string>00:00:15:23</string>
							<frame>398</frame>
							<displayformat>NDF</displayformat>
							<source>source</source>
							<reel>
								<name>JulieHill</name>
							</reel>
						</timecode>
						<media>
							<video>
								<duration>1174</duration>
								<samplecharacteristics>
									<width>1280</width>
									<height>720</height>
								</samplecharacteristics>
							</video>
							<audio>
								<samplecharacteristics>
									<samplerate>48000</samplerate>
									<depth>16</depth>
								</samplecharacteristics>
								<channelcount>2</channelcount>
								<layout>stereo</layout>
								<audiochannel>
									<sourcechannel>1</sourcechannel>
									<channellabel>left</channellabel>
								</audiochannel>
								<audiochannel>
									<sourcechannel>2</sourcechannel>
									<channellabel>right</channellabel>
								</audiochannel>
							</audio>
						</media>
					</file>
					<sourcetrack>
						<mediatype>video</mediatype>
					</sourcetrack>
					<fielddominance>none</fielddominance>
					<itemhistory>
						<uuid>AA2E22B8-C78E-4BB1-B194-C7866C1F079B</uuid>
						<uuid>250E7695-F31F-4B50-967A-8DA6E65D1F94</uuid>
					</itemhistory>
				</clipitem>
				<clipitem id="JulieHill013Subclipa">
					<name>JulieHill013Subclipa</name>
					<duration>881</duration>
					<rate>
						<ntsc>FALSE</ntsc>
						<timebase>25</timebase>
					</rate>
					<in>0</in>
					<out>880</out>
					<start>43768</start>
					<end>44648</end>
					<pixelaspectratio>Square</pixelaspectratio>
					<anamorphic>FALSE</anamorphic>
					<alphatype>none</alphatype>
					<logginginfo>
						<scene/>
						<shottake/>
						<lognote/>
						<good>FALSE</good>
					</logginginfo>
					<labels>
						<label2/>
					</labels>
					<comments>
						<mastercomment1/>
						<mastercomment2/>
						<mastercomment3/>
						<mastercomment4/>
					</comments>
					<file id="JulieHill013Subclipa1">
						<name>JulieHill013Subclipa</name>
						<pathurl>file://localhost/Volumes/Michael's%20Passport/woodbdrigenov2011media/JulieHill013Subclipa</pathurl>
						<rate>
							<timebase>25</timebase>
						</rate>
						<duration>881</duration>
						<metadata>
							<storage>QuickTime</storage>
							<key>com.apple.finalcutstudio.media.uuid</key>
							<size>36</size>
							<type>UTF8</type>
							<value>5845D62B-862D-4743-B70D-99A6FECB5DC0</value>
						</metadata>
						<metadata>
							<storage>QuickTime</storage>
							<key>com.apple.finalcutstudio.media.history.uuid</key>
							<size>36</size>
							<type>UTF8</type>
							<value>0B7C0E0B-CEF1-401E-9833-04E9678C4FFF</value>
						</metadata>
						<timecode>
							<rate>
								<timebase>25</timebase>
							</rate>
							<string>00:00:32:23</string>
							<frame>823</frame>
							<displayformat>NDF</displayformat>
							<source>source</source>
							<reel>
								<name>JulieHill</name>
							</reel>
						</timecode>
						<media>
							<video>
								<duration>881</duration>
								<samplecharacteristics>
									<width>1280</width>
									<height>720</height>
								</samplecharacteristics>
							</video>
							<audio>
								<samplecharacteristics>
									<samplerate>48000</samplerate>
									<depth>16</depth>
								</samplecharacteristics>
								<channelcount>2</channelcount>
								<layout>stereo</layout>
								<audiochannel>
									<sourcechannel>1</sourcechannel>
									<channellabel>left</channellabel>
								</audiochannel>
								<audiochannel>
									<sourcechannel>2</sourcechannel>
									<channellabel>right</channellabel>
								</audiochannel>
							</audio>
						</media>
					</file>
					<sourcetrack>
						<mediatype>video</mediatype>
					</sourcetrack>
					<fielddominance>none</fielddominance>
					<itemhistory>
						<uuid>9A972D3C-6C91-4515-885F-6A19D029EFB1</uuid>
						<uuid>DF35EF80-3382-45CF-AABA-42DAB6027337</uuid>
					</itemhistory>
				</clipitem>
				<clipitem id="JulieHill014Subclipa">
					<name>JulieHill014Subclipa</name>
					<duration>418</duration>
					<rate>
						<ntsc>FALSE</ntsc>
						<timebase>25</timebase>
					</rate>
					<in>0</in>
					<out>418</out>
					<start>44807</start>
					<end>45225</end>
					<pixelaspectratio>Square</pixelaspectratio>
					<anamorphic>FALSE</anamorphic>
					<alphatype>none</alphatype>
					<logginginfo>
						<scene/>
						<shottake/>
						<lognote/>
						<good>FALSE</good>
					</logginginfo>
					<labels>
						<label2/>
					</labels>
					<comments>
						<mastercomment1/>
						<mastercomment2/>
						<mastercomment3/>
						<mastercomment4/>
					</comments>
					<file id="JulieHill014Subclipa1">
						<name>JulieHill014Subclipa</name>
						<pathurl>file://localhost/Volumes/Michael's%20Passport/woodbdrigenov2011media/JulieHill014Subclipa</pathurl>
						<rate>
							<timebase>25</timebase>
						</rate>
						<duration>418</duration>
						<metadata>
							<storage>QuickTime</storage>
							<key>com.apple.finalcutstudio.media.uuid</key>
							<size>36</size>
							<type>UTF8</type>
							<value>4BA6D558-9A5D-4239-94F9-BCC8D19A66AB</value>
						</metadata>
						<metadata>
							<storage>QuickTime</storage>
							<key>com.apple.finalcutstudio.media.history.uuid</key>
							<size>36</size>
							<type>UTF8</type>
							<value>C65A59A1-6057-41AB-B11B-BCA37EEB7F92</value>
						</metadata>
						<timecode>
							<rate>
								<timebase>25</timebase>
							</rate>
							<string>00:00:00:10</string>
							<frame>10</frame>
							<displayformat>NDF</displayformat>
							<source>source</source>
							<reel>
								<name>JulieHill</name>
							</reel>
						</timecode>
						<media>
							<video>
								<duration>418</duration>
								<samplecharacteristics>
									<width>1280</width>
									<height>720</height>
								</samplecharacteristics>
							</video>
							<audio>
								<samplecharacteristics>
									<samplerate>48000</samplerate>
									<depth>16</depth>
								</samplecharacteristics>
								<channelcount>2</channelcount>
								<layout>stereo</layout>
								<audiochannel>
									<sourcechannel>1</sourcechannel>
									<channellabel>left</channellabel>
								</audiochannel>
								<audiochannel>
									<sourcechannel>2</sourcechannel>
									<channellabel>right</channellabel>
								</audiochannel>
							</audio>
						</media>
					</file>
					<sourcetrack>
						<mediatype>video</mediatype>
					</sourcetrack>
					<fielddominance>none</fielddominance>
					<itemhistory>
						<uuid>2E7AB48D-0B21-43C5-83A0-0B8D98AB2151</uuid>
						<uuid>E7B4C1D2-36AE-494D-87A0-E124E3147D62</uuid>
					</itemhistory>
				</clipitem>
				<clipitem id="JulieHill014Subclipb">
					<name>JulieHill014Subclipb</name>
					<duration>445</duration>
					<rate>
						<ntsc>FALSE</ntsc>
						<timebase>25</timebase>
					</rate>
					<in>0</in>
					<out>445</out>
					<start>45403</start>
					<end>45848</end>
					<pixelaspectratio>Square</pixelaspectratio>
					<anamorphic>FALSE</anamorphic>
					<alphatype>none</alphatype>
					<logginginfo>
						<scene/>
						<shottake/>
						<lognote/>
						<good>FALSE</good>
					</logginginfo>
					<labels>
						<label2/>
					</labels>
					<comments>
						<mastercomment1/>
						<mastercomment2/>
						<mastercomment3/>
						<mastercomment4/>
					</comments>
					<file id="JulieHill014Subclipb1">
						<name>JulieHill014Subclipb</name>
						<pathurl>file://localhost/Volumes/Michael's%20Passport/woodbdrigenov2011media/JulieHill014Subclipb</pathurl>
						<rate>
							<timebase>25</timebase>
						</rate>
						<duration>445</duration>
						<metadata>
							<storage>QuickTime</storage>
							<key>com.apple.finalcutstudio.media.uuid</key>
							<size>36</size>
							<type>UTF8</type>
							<value>5C50E9FB-D68A-4F20-A4E2-0F9ABB50A1F2</value>
						</metadata>
						<metadata>
							<storage>QuickTime</storage>
							<key>com.apple.finalcutstudio.media.history.uuid</key>
							<size>36</size>
							<type>UTF8</type>
							<value>C65A59A1-6057-41AB-B11B-BCA37EEB7F92</value>
						</metadata>
						<timecode>
							<rate>
								<timebase>25</timebase>
							</rate>
							<string>00:00:24:06</string>
							<frame>606</frame>
							<displayformat>NDF</displayformat>
							<source>source</source>
							<reel>
								<name>JulieHill</name>
							</reel>
						</timecode>
						<media>
							<video>
								<duration>445</duration>
								<samplecharacteristics>
									<width>1280</width>
									<height>720</height>
								</samplecharacteristics>
							</video>
							<audio>
								<samplecharacteristics>
									<samplerate>48000</samplerate>
									<depth>16</depth>
								</samplecharacteristics>
								<channelcount>2</channelcount>
								<layout>stereo</layout>
								<audiochannel>
									<sourcechannel>1</sourcechannel>
									<channellabel>left</channellabel>
								</audiochannel>
								<audiochannel>
									<sourcechannel>2</sourcechannel>
									<channellabel>right</channellabel>
								</audiochannel>
							</audio>
						</media>
					</file>
					<sourcetrack>
						<mediatype>video</mediatype>
					</sourcetrack>
					<fielddominance>none</fielddominance>
					<itemhistory>
						<uuid>E116B677-C793-42CB-802A-5A24490CA2A2</uuid>
						<uuid>78C9D901-0767-4F80-816F-B610D86BFEE9</uuid>
					</itemhistory>
				</clipitem>
				<clipitem id="JulieHill014Subclipc">
					<name>JulieHill014Subclipc</name>
					<duration>973</duration>
					<rate>
						<ntsc>FALSE</ntsc>
						<timebase>25</timebase>
					</rate>
					<in>0</in>
					<out>973</out>
					<start>45936</start>
					<end>46909</end>
					<pixelaspectratio>Square</pixelaspectratio>
					<anamorphic>FALSE</anamorphic>
					<alphatype>none</alphatype>
					<logginginfo>
						<scene/>
						<shottake/>
						<lognote/>
						<good>FALSE</good>
					</logginginfo>
					<labels>
						<label2/>
					</labels>
					<comments>
						<mastercomment1/>
						<mastercomment2/>
						<mastercomment3/>
						<mastercomment4/>
					</comments>
					<file id="JulieHill014Subclipc1">
						<name>JulieHill014Subclipc</name>
						<pathurl>file://localhost/Volumes/Michael's%20Passport/woodbdrigenov2011media/JulieHill014Subclipc</pathurl>
						<rate>
							<timebase>25</timebase>
						</rate>
						<duration>973</duration>
						<metadata>
							<storage>QuickTime</storage>
							<key>com.apple.finalcutstudio.media.uuid</key>
							<size>36</size>
							<type>UTF8</type>
							<value>4A7489CD-E7E5-411F-833B-C0AFD436640B</value>
						</metadata>
						<metadata>
							<storage>QuickTime</storage>
							<key>com.apple.finalcutstudio.media.history.uuid</key>
							<size>36</size>
							<type>UTF8</type>
							<value>C65A59A1-6057-41AB-B11B-BCA37EEB7F92</value>
						</metadata>
						<timecode>
							<rate>
								<timebase>25</timebase>
							</rate>
							<string>00:00:45:14</string>
							<frame>1139</frame>
							<displayformat>NDF</displayformat>
							<source>source</source>
							<reel>
								<name>JulieHill</name>
							</reel>
						</timecode>
						<media>
							<video>
								<duration>973</duration>
								<samplecharacteristics>
									<width>1280</width>
									<height>720</height>
								</samplecharacteristics>
							</video>
							<audio>
								<samplecharacteristics>
									<samplerate>48000</samplerate>
									<depth>16</depth>
								</samplecharacteristics>
								<channelcount>2</channelcount>
								<layout>stereo</layout>
								<audiochannel>
									<sourcechannel>1</sourcechannel>
									<channellabel>left</channellabel>
								</audiochannel>
								<audiochannel>
									<sourcechannel>2</sourcechannel>
									<channellabel>right</channellabel>
								</audiochannel>
							</audio>
						</media>
					</file>
					<sourcetrack>
						<mediatype>video</mediatype>
					</sourcetrack>
					<fielddominance>none</fielddominance>
					<itemhistory>
						<uuid>9B5AA9FF-0433-46F6-9D9B-C744B9C4EC34</uuid>
						<uuid>3E0088DD-A1D7-4574-BE8C-B809025BF462</uuid>
					</itemhistory>
				</clipitem>
				<clipitem id="JulieHill014Subclipd">
					<name>JulieHill014Subclipd</name>
					<duration>691</duration>
					<rate>
						<ntsc>FALSE</ntsc>
						<timebase>25</timebase>
					</rate>
					<in>0</in>
					<out>691</out>
					<start>47191</start>
					<end>47882</end>
					<pixelaspectratio>Square</pixelaspectratio>
					<anamorphic>FALSE</anamorphic>
					<alphatype>none</alphatype>
					<logginginfo>
						<scene/>
						<shottake/>
						<lognote/>
						<good>FALSE</good>
					</logginginfo>
					<labels>
						<label2/>
					</labels>
					<comments>
						<mastercomment1/>
						<mastercomment2/>
						<mastercomment3/>
						<mastercomment4/>
					</comments>
					<file id="JulieHill014Subclipd1">
						<name>JulieHill014Subclipd</name>
						<pathurl>file://localhost/Volumes/Michael's%20Passport/woodbdrigenov2011media/JulieHill014Subclipd</pathurl>
						<rate>
							<timebase>25</timebase>
						</rate>
						<duration>691</duration>
						<metadata>
							<storage>QuickTime</storage>
							<key>com.apple.finalcutstudio.media.uuid</key>
							<size>36</size>
							<type>UTF8</type>
							<value>3FEDDCC9-6294-4CED-85A3-9C3A1EDA55FC</value>
						</metadata>
						<metadata>
							<storage>QuickTime</storage>
							<key>com.apple.finalcutstudio.media.history.uuid</key>
							<size>36</size>
							<type>UTF8</type>
							<value>C65A59A1-6057-41AB-B11B-BCA37EEB7F92</value>
						</metadata>
						<timecode>
							<rate>
								<timebase>25</timebase>
							</rate>
							<string>00:01:35:18</string>
							<frame>2393</frame>
							<displayformat>NDF</displayformat>
							<source>source</source>
							<reel>
								<name>JulieHill</name>
							</reel>
						</timecode>
						<media>
							<video>
								<duration>691</duration>
								<samplecharacteristics>
									<width>1280</width>
									<height>720</height>
								</samplecharacteristics>
							</video>
							<audio>
								<samplecharacteristics>
									<samplerate>48000</samplerate>
									<depth>16</depth>
								</samplecharacteristics>
								<channelcount>2</channelcount>
								<layout>stereo</layout>
								<audiochannel>
									<sourcechannel>1</sourcechannel>
									<channellabel>left</channellabel>
								</audiochannel>
								<audiochannel>
									<sourcechannel>2</sourcechannel>
									<channellabel>right</channellabel>
								</audiochannel>
							</audio>
						</media>
					</file>
					<sourcetrack>
						<mediatype>video</mediatype>
					</sourcetrack>
					<fielddominance>none</fielddominance>
					<itemhistory>
						<uuid>DC9EB40D-4926-48B8-B169-E303EF564753</uuid>
						<uuid>48E3576C-64B0-4665-9469-FC661FB23716</uuid>
					</itemhistory>
				</clipitem>
				<clipitem id="JulieHill015Subclipa">
					<name>JulieHill015Subclipa</name>
					<duration>165</duration>
					<rate>
						<ntsc>FALSE</ntsc>
						<timebase>25</timebase>
					</rate>
					<in>0</in>
					<out>165</out>
					<start>48908</start>
					<end>49073</end>
					<pixelaspectratio>Square</pixelaspectratio>
					<anamorphic>FALSE</anamorphic>
					<alphatype>none</alphatype>
					<logginginfo>
						<scene/>
						<shottake/>
						<lognote/>
						<good>FALSE</good>
					</logginginfo>
					<labels>
						<label2/>
					</labels>
					<comments>
						<mastercomment1/>
						<mastercomment2/>
						<mastercomment3/>
						<mastercomment4/>
					</comments>
					<file id="JulieHill015Subclipa1">
						<name>JulieHill015Subclipa</name>
						<pathurl>file://localhost/Volumes/Michael's%20Passport/woodbdrigenov2011media/JulieHill015Subclipa</pathurl>
						<rate>
							<timebase>25</timebase>
						</rate>
						<duration>165</duration>
						<metadata>
							<storage>QuickTime</storage>
							<key>com.apple.finalcutstudio.media.uuid</key>
							<size>36</size>
							<type>UTF8</type>
							<value>50C51615-9990-428A-B1E3-6C64BEAFEAE1</value>
						</metadata>
						<metadata>
							<storage>QuickTime</storage>
							<key>com.apple.finalcutstudio.media.history.uuid</key>
							<size>36</size>
							<type>UTF8</type>
							<value>0CA04DE2-CBA6-415B-B8F2-4F8644E54392</value>
						</metadata>
						<timecode>
							<rate>
								<timebase>25</timebase>
							</rate>
							<string>00:00:00:00</string>
							<frame>0</frame>
							<displayformat>NDF</displayformat>
							<source>source</source>
							<reel>
								<name>JulieHill</name>
							</reel>
						</timecode>
						<media>
							<video>
								<duration>165</duration>
								<samplecharacteristics>
									<width>1280</width>
									<height>720</height>
								</samplecharacteristics>
							</video>
							<audio>
								<samplecharacteristics>
									<samplerate>48000</samplerate>
									<depth>16</depth>
								</samplecharacteristics>
								<channelcount>2</channelcount>
								<layout>stereo</layout>
								<audiochannel>
									<sourcechannel>1</sourcechannel>
									<channellabel>left</channellabel>
								</audiochannel>
								<audiochannel>
									<sourcechannel>2</sourcechannel>
									<channellabel>right</channellabel>
								</audiochannel>
							</audio>
						</media>
					</file>
					<sourcetrack>
						<mediatype>video</mediatype>
					</sourcetrack>
					<fielddominance>none</fielddominance>
					<itemhistory>
						<uuid>F3D73666-5159-4304-890B-E49707D4C1C6</uuid>
						<uuid>8667E323-7CB4-41B1-ACA5-23602F106835</uuid>
					</itemhistory>
				</clipitem>
				<clipitem id="JulieHill015Subclipb">
					<name>JulieHill015Subclipb</name>
					<duration>960</duration>
					<rate>
						<ntsc>FALSE</ntsc>
						<timebase>25</timebase>
					</rate>
					<in>0</in>
					<out>959</out>
					<start>49316</start>
					<end>50275</end>
					<pixelaspectratio>Square</pixelaspectratio>
					<anamorphic>FALSE</anamorphic>
					<alphatype>none</alphatype>
					<logginginfo>
						<scene/>
						<shottake/>
						<lognote/>
						<good>FALSE</good>
					</logginginfo>
					<labels>
						<label2/>
					</labels>
					<comments>
						<mastercomment1/>
						<mastercomment2/>
						<mastercomment3/>
						<mastercomment4/>
					</comments>
					<file id="JulieHill015Subclipb1">
						<name>JulieHill015Subclipb</name>
						<pathurl>file://localhost/Volumes/Michael's%20Passport/woodbdrigenov2011media/JulieHill015Subclipb</pathurl>
						<rate>
							<timebase>25</timebase>
						</rate>
						<duration>960</duration>
						<metadata>
							<storage>QuickTime</storage>
							<key>com.apple.finalcutstudio.media.uuid</key>
							<size>36</size>
							<type>UTF8</type>
							<value>AC2086D0-53BC-4C37-9970-1F2BFDD550FD</value>
						</metadata>
						<metadata>
							<storage>QuickTime</storage>
							<key>com.apple.finalcutstudio.media.history.uuid</key>
							<size>36</size>
							<type>UTF8</type>
							<value>0CA04DE2-CBA6-415B-B8F2-4F8644E54392</value>
						</metadata>
						<timecode>
							<rate>
								<timebase>25</timebase>
							</rate>
							<string>00:00:16:08</string>
							<frame>408</frame>
							<displayformat>NDF</displayformat>
							<source>source</source>
							<reel>
								<name>JulieHill</name>
							</reel>
						</timecode>
						<media>
							<video>
								<duration>960</duration>
								<samplecharacteristics>
									<width>1280</width>
									<height>720</height>
								</samplecharacteristics>
							</video>
							<audio>
								<samplecharacteristics>
									<samplerate>48000</samplerate>
									<depth>16</depth>
								</samplecharacteristics>
								<channelcount>2</channelcount>
								<layout>stereo</layout>
								<audiochannel>
									<sourcechannel>1</sourcechannel>
									<channellabel>left</channellabel>
								</audiochannel>
								<audiochannel>
									<sourcechannel>2</sourcechannel>
									<channellabel>right</channellabel>
								</audiochannel>
							</audio>
						</media>
					</file>
					<sourcetrack>
						<mediatype>video</mediatype>
					</sourcetrack>
					<fielddominance>none</fielddominance>
					<itemhistory>
						<uuid>DA4E014A-2E73-4F94-BADC-388218681EC8</uuid>
						<uuid>4FC9C9E3-7F0C-4600-888D-628E182EDCE0</uuid>
					</itemhistory>
				</clipitem>
				<clipitem id="JulieHill018Subclipa">
					<name>JulieHill018Subclipa</name>
					<duration>579</duration>
					<rate>
						<ntsc>FALSE</ntsc>
						<timebase>25</timebase>
					</rate>
					<in>0</in>
					<out>579</out>
					<start>53676</start>
					<end>54255</end>
					<pixelaspectratio>Square</pixelaspectratio>
					<anamorphic>FALSE</anamorphic>
					<alphatype>none</alphatype>
					<logginginfo>
						<scene/>
						<shottake/>
						<lognote/>
						<good>FALSE</good>
					</logginginfo>
					<labels>
						<label2/>
					</labels>
					<comments>
						<mastercomment1/>
						<mastercomment2/>
						<mastercomment3/>
						<mastercomment4/>
					</comments>
					<file id="JulieHill018Subclipa1">
						<name>JulieHill018Subclipa</name>
						<pathurl>file://localhost/Volumes/Michael's%20Passport/woodbdrigenov2011media/JulieHill018Subclipa</pathurl>
						<rate>
							<timebase>25</timebase>
						</rate>
						<duration>579</duration>
						<metadata>
							<storage>QuickTime</storage>
							<key>com.apple.finalcutstudio.media.uuid</key>
							<size>36</size>
							<type>UTF8</type>
							<value>D99B5B73-BB93-4479-954A-1B2CB5D28287</value>
						</metadata>
						<metadata>
							<storage>QuickTime</storage>
							<key>com.apple.finalcutstudio.media.history.uuid</key>
							<size>36</size>
							<type>UTF8</type>
							<value>B7F41B27-0B12-4E4B-9C15-53EAC9AD008D</value>
						</metadata>
						<timecode>
							<rate>
								<timebase>25</timebase>
							</rate>
							<string>00:00:13:20</string>
							<frame>345</frame>
							<displayformat>NDF</displayformat>
							<source>source</source>
							<reel>
								<name>JulieHill</name>
							</reel>
						</timecode>
						<media>
							<video>
								<duration>579</duration>
								<samplecharacteristics>
									<width>1280</width>
									<height>720</height>
								</samplecharacteristics>
							</video>
							<audio>
								<samplecharacteristics>
									<samplerate>48000</samplerate>
									<depth>16</depth>
								</samplecharacteristics>
								<channelcount>2</channelcount>
								<layout>stereo</layout>
								<audiochannel>
									<sourcechannel>1</sourcechannel>
									<channellabel>left</channellabel>
								</audiochannel>
								<audiochannel>
									<sourcechannel>2</sourcechannel>
									<channellabel>right</channellabel>
								</audiochannel>
							</audio>
						</media>
					</file>
					<sourcetrack>
						<mediatype>video</mediatype>
					</sourcetrack>
					<fielddominance>none</fielddominance>
					<itemhistory>
						<uuid>B5170021-00C1-4661-BB7A-9CD2F0609899</uuid>
						<uuid>946C97D2-F53A-4A99-AA47-671F1FF9111F</uuid>
					</itemhistory>
				</clipitem>
				<clipitem id="JulieHill019Subclipa">
					<name>JulieHill019Subclipa</name>
					<duration>437</duration>
					<rate>
						<ntsc>FALSE</ntsc>
						<timebase>25</timebase>
					</rate>
					<in>0</in>
					<out>436</out>
					<start>55091</start>
					<end>55527</end>
					<pixelaspectratio>Square</pixelaspectratio>
					<anamorphic>FALSE</anamorphic>
					<alphatype>none</alphatype>
					<logginginfo>
						<scene/>
						<shottake/>
						<lognote/>
						<good>FALSE</good>
					</logginginfo>
					<labels>
						<label2/>
					</labels>
					<comments>
						<mastercomment1/>
						<mastercomment2/>
						<mastercomment3/>
						<mastercomment4/>
					</comments>
					<file id="JulieHill019Subclipa1">
						<name>JulieHill019Subclipa</name>
						<pathurl>file://localhost/Volumes/Michael's%20Passport/woodbdrigenov2011media/JulieHill019Subclipa</pathurl>
						<rate>
							<timebase>25</timebase>
						</rate>
						<duration>437</duration>
						<metadata>
							<storage>QuickTime</storage>
							<key>com.apple.finalcutstudio.media.uuid</key>
							<size>36</size>
							<type>UTF8</type>
							<value>9D73AB2A-C628-44A2-B783-E632716EF9BF</value>
						</metadata>
						<metadata>
							<storage>QuickTime</storage>
							<key>com.apple.finalcutstudio.media.history.uuid</key>
							<size>36</size>
							<type>UTF8</type>
							<value>739694FC-064B-466A-A892-0DC61F030CBF</value>
						</metadata>
						<timecode>
							<rate>
								<timebase>25</timebase>
							</rate>
							<string>00:00:00:00</string>
							<frame>0</frame>
							<displayformat>NDF</displayformat>
							<source>source</source>
							<reel>
								<name>JulieHill</name>
							</reel>
						</timecode>
						<media>
							<video>
								<duration>437</duration>
								<samplecharacteristics>
									<width>1280</width>
									<height>720</height>
								</samplecharacteristics>
							</video>
							<audio>
								<samplecharacteristics>
									<samplerate>48000</samplerate>
									<depth>16</depth>
								</samplecharacteristics>
								<channelcount>2</channelcount>
								<layout>stereo</layout>
								<audiochannel>
									<sourcechannel>1</sourcechannel>
									<channellabel>left</channellabel>
								</audiochannel>
								<audiochannel>
									<sourcechannel>2</sourcechannel>
									<channellabel>right</channellabel>
								</audiochannel>
							</audio>
						</media>
					</file>
					<sourcetrack>
						<mediatype>video</mediatype>
					</sourcetrack>
					<fielddominance>none</fielddominance>
					<itemhistory>
						<uuid>42F3F002-E4C3-4B76-B8F7-522940A49394</uuid>
						<uuid>5D54A6CF-3F1A-4F88-8B31-F8D639E6EA65</uuid>
					</itemhistory>
				</clipitem>
				<clipitem id="JulieHill019Subclipb">
					<name>JulieHill019Subclipb</name>
					<duration>424</duration>
					<rate>
						<ntsc>FALSE</ntsc>
						<timebase>25</timebase>
					</rate>
					<in>0</in>
					<out>423</out>
					<start>55765</start>
					<end>56188</end>
					<pixelaspectratio>Square</pixelaspectratio>
					<anamorphic>FALSE</anamorphic>
					<alphatype>none</alphatype>
					<logginginfo>
						<scene/>
						<shottake/>
						<lognote/>
						<good>FALSE</good>
					</logginginfo>
					<labels>
						<label2/>
					</labels>
					<comments>
						<mastercomment1/>
						<mastercomment2/>
						<mastercomment3/>
						<mastercomment4/>
					</comments>
					<file id="JulieHill019Subclipb1">
						<name>JulieHill019Subclipb</name>
						<pathurl>file://localhost/Volumes/Michael's%20Passport/woodbdrigenov2011media/JulieHill019Subclipb</pathurl>
						<rate>
							<timebase>25</timebase>
						</rate>
						<duration>424</duration>
						<metadata>
							<storage>QuickTime</storage>
							<key>com.apple.finalcutstudio.media.uuid</key>
							<size>36</size>
							<type>UTF8</type>
							<value>EACC9798-8DA3-4D09-AD7E-9F88CBB9CA43</value>
						</metadata>
						<metadata>
							<storage>QuickTime</storage>
							<key>com.apple.finalcutstudio.media.history.uuid</key>
							<size>36</size>
							<type>UTF8</type>
							<value>739694FC-064B-466A-A892-0DC61F030CBF</value>
						</metadata>
						<timecode>
							<rate>
								<timebase>25</timebase>
							</rate>
							<string>00:00:26:24</string>
							<frame>674</frame>
							<displayformat>NDF</displayformat>
							<source>source</source>
							<reel>
								<name>JulieHill</name>
							</reel>
						</timecode>
						<media>
							<video>
								<duration>424</duration>
								<samplecharacteristics>
									<width>1280</width>
									<height>720</height>
								</samplecharacteristics>
							</video>
							<audio>
								<samplecharacteristics>
									<samplerate>48000</samplerate>
									<depth>16</depth>
								</samplecharacteristics>
								<channelcount>2</channelcount>
								<layout>stereo</layout>
								<audiochannel>
									<sourcechannel>1</sourcechannel>
									<channellabel>left</channellabel>
								</audiochannel>
								<audiochannel>
									<sourcechannel>2</sourcechannel>
									<channellabel>right</channellabel>
								</audiochannel>
							</audio>
						</media>
					</file>
					<sourcetrack>
						<mediatype>video</mediatype>
					</sourcetrack>
					<fielddominance>none</fielddominance>
					<itemhistory>
						<uuid>8FA20B03-43CD-4F17-87F5-93BFE5FBAC6A</uuid>
						<uuid>613BFD29-BE79-4538-B76B-3573EB23693A</uuid>
					</itemhistory>
				</clipitem>
				<clipitem id="JulieHill019Subclipc">
					<name>JulieHill019Subclipc</name>
					<duration>159</duration>
					<rate>
						<ntsc>FALSE</ntsc>
						<timebase>25</timebase>
					</rate>
					<in>0</in>
					<out>158</out>
					<start>56608</start>
					<end>56766</end>
					<pixelaspectratio>Square</pixelaspectratio>
					<anamorphic>FALSE</anamorphic>
					<alphatype>none</alphatype>
					<logginginfo>
						<scene/>
						<shottake/>
						<lognote/>
						<good>FALSE</good>
					</logginginfo>
					<labels>
						<label2/>
					</labels>
					<comments>
						<mastercomment1/>
						<mastercomment2/>
						<mastercomment3/>
						<mastercomment4/>
					</comments>
					<file id="JulieHill019Subclipc1">
						<name>JulieHill019Subclipc</name>
						<pathurl>file://localhost/Volumes/Michael's%20Passport/woodbdrigenov2011media/JulieHill019Subclipc</pathurl>
						<rate>
							<timebase>25</timebase>
						</rate>
						<duration>159</duration>
						<metadata>
							<storage>QuickTime</storage>
							<key>com.apple.finalcutstudio.media.uuid</key>
							<size>36</size>
							<type>UTF8</type>
							<value>3904D73B-11AB-40B6-B0E1-3A635342B8AD</value>
						</metadata>
						<metadata>
							<storage>QuickTime</storage>
							<key>com.apple.finalcutstudio.media.history.uuid</key>
							<size>36</size>
							<type>UTF8</type>
							<value>739694FC-064B-466A-A892-0DC61F030CBF</value>
						</metadata>
						<timecode>
							<rate>
								<timebase>25</timebase>
							</rate>
							<string>00:01:00:17</string>
							<frame>1517</frame>
							<displayformat>NDF</displayformat>
							<source>source</source>
							<reel>
								<name>JulieHill</name>
							</reel>
						</timecode>
						<media>
							<video>
								<duration>159</duration>
								<samplecharacteristics>
									<width>1280</width>
									<height>720</height>
								</samplecharacteristics>
							</video>
							<audio>
								<samplecharacteristics>
									<samplerate>48000</samplerate>
									<depth>16</depth>
								</samplecharacteristics>
								<channelcount>2</channelcount>
								<layout>stereo</layout>
								<audiochannel>
									<sourcechannel>1</sourcechannel>
									<channellabel>left</channellabel>
								</audiochannel>
								<audiochannel>
									<sourcechannel>2</sourcechannel>
									<channellabel>right</channellabel>
								</audiochannel>
							</audio>
						</media>
					</file>
					<sourcetrack>
						<mediatype>video</mediatype>
					</sourcetrack>
					<fielddominance>none</fielddominance>
					<itemhistory>
						<uuid>D68FEFC4-1922-4155-A8D8-038FD6993A09</uuid>
						<uuid>E198645E-5C68-4EFA-B5ED-868C5443FDF9</uuid>
					</itemhistory>
				</clipitem>
				<clipitem id="JulieHill019Subclipd">
					<name>JulieHill019Subclipd</name>
					<duration>612</duration>
					<rate>
						<ntsc>FALSE</ntsc>
						<timebase>25</timebase>
					</rate>
					<in>0</in>
					<out>611</out>
					<start>57287</start>
					<end>57898</end>
					<pixelaspectratio>Square</pixelaspectratio>
					<anamorphic>FALSE</anamorphic>
					<alphatype>none</alphatype>
					<logginginfo>
						<scene/>
						<shottake/>
						<lognote/>
						<good>FALSE</good>
					</logginginfo>
					<labels>
						<label2/>
					</labels>
					<comments>
						<mastercomment1/>
						<mastercomment2/>
						<mastercomment3/>
						<mastercomment4/>
					</comments>
					<file id="JulieHill019Subclipd1">
						<name>JulieHill019Subclipd</name>
						<pathurl>file://localhost/Volumes/Michael's%20Passport/woodbdrigenov2011media/JulieHill019Subclipd</pathurl>
						<rate>
							<timebase>25</timebase>
						</rate>
						<duration>612</duration>
						<metadata>
							<storage>QuickTime</storage>
							<key>com.apple.finalcutstudio.media.uuid</key>
							<size>36</size>
							<type>UTF8</type>
							<value>F6331F02-770E-47D9-BCCE-2BBF1BA67CAC</value>
						</metadata>
						<metadata>
							<storage>QuickTime</storage>
							<key>com.apple.finalcutstudio.media.history.uuid</key>
							<size>36</size>
							<type>UTF8</type>
							<value>739694FC-064B-466A-A892-0DC61F030CBF</value>
						</metadata>
						<timecode>
							<rate>
								<timebase>25</timebase>
							</rate>
							<string>00:01:27:20</string>
							<frame>2195</frame>
							<displayformat>NDF</displayformat>
							<source>source</source>
							<reel>
								<name>JulieHill</name>
							</reel>
						</timecode>
						<media>
							<video>
								<duration>612</duration>
								<samplecharacteristics>
									<width>1280</width>
									<height>720</height>
								</samplecharacteristics>
							</video>
							<audio>
								<samplecharacteristics>
									<samplerate>48000</samplerate>
									<depth>16</depth>
								</samplecharacteristics>
								<channelcount>2</channelcount>
								<layout>stereo</layout>
								<audiochannel>
									<sourcechannel>1</sourcechannel>
									<channellabel>left</channellabel>
								</audiochannel>
								<audiochannel>
									<sourcechannel>2</sourcechannel>
									<channellabel>right</channellabel>
								</audiochannel>
							</audio>
						</media>
					</file>
					<sourcetrack>
						<mediatype>video</mediatype>
					</sourcetrack>
					<fielddominance>none</fielddominance>
					<itemhistory>
						<uuid>C25B1156-36D0-402A-BFE3-74B985EC573C</uuid>
						<uuid>8779DB9D-E705-47F1-AA0A-241FC07BB646</uuid>
					</itemhistory>
				</clipitem>
				<clipitem id="JulieHill019Subclipe">
					<name>JulieHill019Subclipe</name>
					<duration>398</duration>
					<rate>
						<ntsc>FALSE</ntsc>
						<timebase>25</timebase>
					</rate>
					<in>0</in>
					<out>398</out>
					<start>57898</start>
					<end>58296</end>
					<pixelaspectratio>Square</pixelaspectratio>
					<anamorphic>FALSE</anamorphic>
					<alphatype>none</alphatype>
					<logginginfo>
						<scene/>
						<shottake/>
						<lognote/>
						<good>FALSE</good>
					</logginginfo>
					<labels>
						<label2/>
					</labels>
					<comments>
						<mastercomment1/>
						<mastercomment2/>
						<mastercomment3/>
						<mastercomment4/>
					</comments>
					<file id="JulieHill019Subclipe1">
						<name>JulieHill019Subclipe</name>
						<pathurl>file://localhost/Volumes/Michael's%20Passport/woodbdrigenov2011media/JulieHill019Subclipe</pathurl>
						<rate>
							<timebase>25</timebase>
						</rate>
						<duration>398</duration>
						<metadata>
							<storage>QuickTime</storage>
							<key>com.apple.finalcutstudio.media.uuid</key>
							<size>36</size>
							<type>UTF8</type>
							<value>914FD786-FA4B-46B9-AD6C-E243184BF3A0</value>
						</metadata>
						<metadata>
							<storage>QuickTime</storage>
							<key>com.apple.finalcutstudio.media.history.uuid</key>
							<size>36</size>
							<type>UTF8</type>
							<value>739694FC-064B-466A-A892-0DC61F030CBF</value>
						</metadata>
						<timecode>
							<rate>
								<timebase>25</timebase>
							</rate>
							<string>00:01:52:06</string>
							<frame>2806</frame>
							<displayformat>NDF</displayformat>
							<source>source</source>
							<reel>
								<name>JulieHill</name>
							</reel>
						</timecode>
						<media>
							<video>
								<duration>398</duration>
								<samplecharacteristics>
									<width>1280</width>
									<height>720</height>
								</samplecharacteristics>
							</video>
							<audio>
								<samplecharacteristics>
									<samplerate>48000</samplerate>
									<depth>16</depth>
								</samplecharacteristics>
								<channelcount>2</channelcount>
								<layout>stereo</layout>
								<audiochannel>
									<sourcechannel>1</sourcechannel>
									<channellabel>left</channellabel>
								</audiochannel>
								<audiochannel>
									<sourcechannel>2</sourcechannel>
									<channellabel>right</channellabel>
								</audiochannel>
							</audio>
						</media>
					</file>
					<sourcetrack>
						<mediatype>video</mediatype>
					</sourcetrack>
					<fielddominance>none</fielddominance>
					<itemhistory>
						<uuid>446B3E4A-4DFF-413E-A3BC-82F3157988A5</uuid>
						<uuid>2BC1CB12-735F-46EB-9224-D38F6E07183B</uuid>
					</itemhistory>
				</clipitem>
				<clipitem id="JulieHill020Subclipa">
					<name>JulieHill020Subclipa</name>
					<duration>847</duration>
					<rate>
						<ntsc>FALSE</ntsc>
						<timebase>25</timebase>
					</rate>
					<in>0</in>
					<out>846</out>
					<start>59181</start>
					<end>60027</end>
					<pixelaspectratio>Square</pixelaspectratio>
					<anamorphic>FALSE</anamorphic>
					<alphatype>none</alphatype>
					<logginginfo>
						<scene/>
						<shottake/>
						<lognote/>
						<good>FALSE</good>
					</logginginfo>
					<labels>
						<label2/>
					</labels>
					<comments>
						<mastercomment1/>
						<mastercomment2/>
						<mastercomment3/>
						<mastercomment4/>
					</comments>
					<file id="JulieHill020Subclipa1">
						<name>JulieHill020Subclipa</name>
						<pathurl>file://localhost/Volumes/Michael's%20Passport/woodbdrigenov2011media/JulieHill020Subclipa</pathurl>
						<rate>
							<timebase>25</timebase>
						</rate>
						<duration>847</duration>
						<metadata>
							<storage>QuickTime</storage>
							<key>com.apple.finalcutstudio.media.uuid</key>
							<size>36</size>
							<type>UTF8</type>
							<value>50FBFF20-5D92-46AC-95B1-2719F3F18FFB</value>
						</metadata>
						<metadata>
							<storage>QuickTime</storage>
							<key>com.apple.finalcutstudio.media.history.uuid</key>
							<size>36</size>
							<type>UTF8</type>
							<value>B804C976-2CD6-4AEC-B6F5-C8EC2988452D</value>
						</metadata>
						<timecode>
							<rate>
								<timebase>25</timebase>
							</rate>
							<string>00:00:05:11</string>
							<frame>136</frame>
							<displayformat>NDF</displayformat>
							<source>source</source>
							<reel>
								<name>JulieHill</name>
							</reel>
						</timecode>
						<media>
							<video>
								<duration>847</duration>
								<samplecharacteristics>
									<width>1280</width>
									<height>720</height>
								</samplecharacteristics>
							</video>
							<audio>
								<samplecharacteristics>
									<samplerate>48000</samplerate>
									<depth>16</depth>
								</samplecharacteristics>
								<channelcount>2</channelcount>
								<layout>stereo</layout>
								<audiochannel>
									<sourcechannel>1</sourcechannel>
									<channellabel>left</channellabel>
								</audiochannel>
								<audiochannel>
									<sourcechannel>2</sourcechannel>
									<channellabel>right</channellabel>
								</audiochannel>
							</audio>
						</media>
					</file>
					<sourcetrack>
						<mediatype>video</mediatype>
					</sourcetrack>
					<fielddominance>none</fielddominance>
					<itemhistory>
						<uuid>5B17DF23-435E-4C77-89FE-578821A0BD87</uuid>
						<uuid>393D765C-6176-477B-9984-B59BA59886E4</uuid>
					</itemhistory>
				</clipitem>
				<clipitem id="JulieHill020Subclipb">
					<name>JulieHill020Subclipb</name>
					<duration>662</duration>
					<rate>
						<ntsc>FALSE</ntsc>
						<timebase>25</timebase>
					</rate>
					<in>0</in>
					<out>662</out>
					<start>60027</start>
					<end>60689</end>
					<pixelaspectratio>Square</pixelaspectratio>
					<anamorphic>FALSE</anamorphic>
					<alphatype>none</alphatype>
					<logginginfo>
						<scene/>
						<shottake/>
						<lognote/>
						<good>FALSE</good>
					</logginginfo>
					<labels>
						<label2/>
					</labels>
					<comments>
						<mastercomment1/>
						<mastercomment2/>
						<mastercomment3/>
						<mastercomment4/>
					</comments>
					<file id="JulieHill020Subclipb1">
						<name>JulieHill020Subclipb</name>
						<pathurl>file://localhost/Volumes/Michael's%20Passport/woodbdrigenov2011media/JulieHill020Subclipb</pathurl>
						<rate>
							<timebase>25</timebase>
						</rate>
						<duration>662</duration>
						<metadata>
							<storage>QuickTime</storage>
							<key>com.apple.finalcutstudio.media.uuid</key>
							<size>36</size>
							<type>UTF8</type>
							<value>DB039457-4103-46E4-9E81-1CC6DA5E3B08</value>
						</metadata>
						<metadata>
							<storage>QuickTime</storage>
							<key>com.apple.finalcutstudio.media.history.uuid</key>
							<size>36</size>
							<type>UTF8</type>
							<value>B804C976-2CD6-4AEC-B6F5-C8EC2988452D</value>
						</metadata>
						<timecode>
							<rate>
								<timebase>25</timebase>
							</rate>
							<string>00:00:39:07</string>
							<frame>982</frame>
							<displayformat>NDF</displayformat>
							<source>source</source>
							<reel>
								<name>JulieHill</name>
							</reel>
						</timecode>
						<media>
							<video>
								<duration>662</duration>
								<samplecharacteristics>
									<width>1280</width>
									<height>720</height>
								</samplecharacteristics>
							</video>
							<audio>
								<samplecharacteristics>
									<samplerate>48000</samplerate>
									<depth>16</depth>
								</samplecharacteristics>
								<channelcount>2</channelcount>
								<layout>stereo</layout>
								<audiochannel>
									<sourcechannel>1</sourcechannel>
									<channellabel>left</channellabel>
								</audiochannel>
								<audiochannel>
									<sourcechannel>2</sourcechannel>
									<channellabel>right</channellabel>
								</audiochannel>
							</audio>
						</media>
					</file>
					<sourcetrack>
						<mediatype>video</mediatype>
					</sourcetrack>
					<fielddominance>none</fielddominance>
					<itemhistory>
						<uuid>639EF441-8B85-4023-A52F-49537AC3B2D0</uuid>
						<uuid>57113EA5-8F8A-44FC-A208-3EFC0E0DC869</uuid>
					</itemhistory>
				</clipitem>
				<clipitem id="JulieHill021Subclipa">
					<name>JulieHill021Subclipa</name>
					<duration>387</duration>
					<rate>
						<ntsc>FALSE</ntsc>
						<timebase>25</timebase>
					</rate>
					<in>0</in>
					<out>386</out>
					<start>62701</start>
					<end>63087</end>
					<pixelaspectratio>Square</pixelaspectratio>
					<anamorphic>FALSE</anamorphic>
					<alphatype>none</alphatype>
					<logginginfo>
						<scene/>
						<shottake/>
						<lognote/>
						<good>FALSE</good>
					</logginginfo>
					<labels>
						<label2/>
					</labels>
					<comments>
						<mastercomment1/>
						<mastercomment2/>
						<mastercomment3/>
						<mastercomment4/>
					</comments>
					<file id="JulieHill021Subclipa1">
						<name>JulieHill021Subclipa</name>
						<pathurl>file://localhost/Volumes/Michael's%20Passport/woodbdrigenov2011media/JulieHill021Subclipa</pathurl>
						<rate>
							<timebase>25</timebase>
						</rate>
						<duration>387</duration>
						<metadata>
							<storage>QuickTime</storage>
							<key>com.apple.finalcutstudio.media.uuid</key>
							<size>36</size>
							<type>UTF8</type>
							<value>96B26844-1DE6-44EB-B522-DCA32740F685</value>
						</metadata>
						<metadata>
							<storage>QuickTime</storage>
							<key>com.apple.finalcutstudio.media.history.uuid</key>
							<size>36</size>
							<type>UTF8</type>
							<value>C1336372-2341-41B4-A678-D1FD99350B0E</value>
						</metadata>
						<timecode>
							<rate>
								<timebase>25</timebase>
							</rate>
							<string>00:00:08:15</string>
							<frame>215</frame>
							<displayformat>NDF</displayformat>
							<source>source</source>
							<reel>
								<name>JulieHill</name>
							</reel>
						</timecode>
						<media>
							<video>
								<duration>387</duration>
								<samplecharacteristics>
									<width>1280</width>
									<height>720</height>
								</samplecharacteristics>
							</video>
							<audio>
								<samplecharacteristics>
									<samplerate>48000</samplerate>
									<depth>16</depth>
								</samplecharacteristics>
								<channelcount>2</channelcount>
								<layout>stereo</layout>
								<audiochannel>
									<sourcechannel>1</sourcechannel>
									<channellabel>left</channellabel>
								</audiochannel>
								<audiochannel>
									<sourcechannel>2</sourcechannel>
									<channellabel>right</channellabel>
								</audiochannel>
							</audio>
						</media>
					</file>
					<sourcetrack>
						<mediatype>video</mediatype>
					</sourcetrack>
					<fielddominance>none</fielddominance>
					<itemhistory>
						<uuid>87FA61E2-D355-4946-BD78-D6AFD5B94E54</uuid>
						<uuid>8FCB47B2-DAEC-4382-A68B-0B1D37B2CDEB</uuid>
					</itemhistory>
				</clipitem>
				<clipitem id="JulieHill021Subclipb">
					<name>JulieHill021Subclipb</name>
					<duration>565</duration>
					<rate>
						<ntsc>FALSE</ntsc>
						<timebase>25</timebase>
					</rate>
					<in>0</in>
					<out>564</out>
					<start>63170</start>
					<end>63734</end>
					<pixelaspectratio>Square</pixelaspectratio>
					<anamorphic>FALSE</anamorphic>
					<alphatype>none</alphatype>
					<logginginfo>
						<scene/>
						<shottake/>
						<lognote/>
						<good>FALSE</good>
					</logginginfo>
					<labels>
						<label2/>
					</labels>
					<comments>
						<mastercomment1/>
						<mastercomment2/>
						<mastercomment3/>
						<mastercomment4/>
					</comments>
					<file id="JulieHill021Subclipb1">
						<name>JulieHill021Subclipb</name>
						<pathurl>file://localhost/Volumes/Michael's%20Passport/woodbdrigenov2011media/JulieHill021Subclipb</pathurl>
						<rate>
							<timebase>25</timebase>
						</rate>
						<duration>565</duration>
						<metadata>
							<storage>QuickTime</storage>
							<key>com.apple.finalcutstudio.media.uuid</key>
							<size>36</size>
							<type>UTF8</type>
							<value>E7EB4DE3-016F-49BF-B55B-AB2058FA495E</value>
						</metadata>
						<metadata>
							<storage>QuickTime</storage>
							<key>com.apple.finalcutstudio.media.history.uuid</key>
							<size>36</size>
							<type>UTF8</type>
							<value>C1336372-2341-41B4-A678-D1FD99350B0E</value>
						</metadata>
						<timecode>
							<rate>
								<timebase>25</timebase>
							</rate>
							<string>00:00:27:09</string>
							<frame>684</frame>
							<displayformat>NDF</displayformat>
							<source>source</source>
							<reel>
								<name>JulieHill</name>
							</reel>
						</timecode>
						<media>
							<video>
								<duration>565</duration>
								<samplecharacteristics>
									<width>1280</width>
									<height>720</height>
								</samplecharacteristics>
							</video>
							<audio>
								<samplecharacteristics>
									<samplerate>48000</samplerate>
									<depth>16</depth>
								</samplecharacteristics>
								<channelcount>2</channelcount>
								<layout>stereo</layout>
								<audiochannel>
									<sourcechannel>1</sourcechannel>
									<channellabel>left</channellabel>
								</audiochannel>
								<audiochannel>
									<sourcechannel>2</sourcechannel>
									<channellabel>right</channellabel>
								</audiochannel>
							</audio>
						</media>
					</file>
					<sourcetrack>
						<mediatype>video</mediatype>
					</sourcetrack>
					<fielddominance>none</fielddominance>
					<itemhistory>
						<uuid>F0E7D3D1-1FE7-45E7-92CE-8555F771426C</uuid>
						<uuid>3E491BAC-A8E0-4E0D-BFAC-67DD1E7128B7</uuid>
					</itemhistory>
				</clipitem>
				<clipitem id="JulieHill021Subclipc">
					<name>JulieHill021Subclipc</name>
					<duration>720</duration>
					<rate>
						<ntsc>FALSE</ntsc>
						<timebase>25</timebase>
					</rate>
					<in>0</in>
					<out>720</out>
					<start>63734</start>
					<end>64454</end>
					<pixelaspectratio>Square</pixelaspectratio>
					<anamorphic>FALSE</anamorphic>
					<alphatype>none</alphatype>
					<logginginfo>
						<scene/>
						<shottake/>
						<lognote/>
						<good>FALSE</good>
					</logginginfo>
					<labels>
						<label2/>
					</labels>
					<comments>
						<mastercomment1/>
						<mastercomment2/>
						<mastercomment3/>
						<mastercomment4/>
					</comments>
					<file id="JulieHill021Subclipc1">
						<name>JulieHill021Subclipc</name>
						<pathurl>file://localhost/Volumes/Michael's%20Passport/woodbdrigenov2011media/JulieHill021Subclipc</pathurl>
						<rate>
							<timebase>25</timebase>
						</rate>
						<duration>720</duration>
						<metadata>
							<storage>QuickTime</storage>
							<key>com.apple.finalcutstudio.media.uuid</key>
							<size>36</size>
							<type>UTF8</type>
							<value>22464800-9F94-4F5E-8BDD-EA7B85D3953E</value>
						</metadata>
						<metadata>
							<storage>QuickTime</storage>
							<key>com.apple.finalcutstudio.media.history.uuid</key>
							<size>36</size>
							<type>UTF8</type>
							<value>C1336372-2341-41B4-A678-D1FD99350B0E</value>
						</metadata>
						<timecode>
							<rate>
								<timebase>25</timebase>
							</rate>
							<string>00:00:49:23</string>
							<frame>1248</frame>
							<displayformat>NDF</displayformat>
							<source>source</source>
							<reel>
								<name>JulieHill</name>
							</reel>
						</timecode>
						<media>
							<video>
								<duration>720</duration>
								<samplecharacteristics>
									<width>1280</width>
									<height>720</height>
								</samplecharacteristics>
							</video>
							<audio>
								<samplecharacteristics>
									<samplerate>48000</samplerate>
									<depth>16</depth>
								</samplecharacteristics>
								<channelcount>2</channelcount>
								<layout>stereo</layout>
								<audiochannel>
									<sourcechannel>1</sourcechannel>
									<channellabel>left</channellabel>
								</audiochannel>
								<audiochannel>
									<sourcechannel>2</sourcechannel>
									<channellabel>right</channellabel>
								</audiochannel>
							</audio>
						</media>
					</file>
					<sourcetrack>
						<mediatype>video</mediatype>
					</sourcetrack>
					<fielddominance>none</fielddominance>
					<itemhistory>
						<uuid>F080DC93-485C-45A0-8073-CDBAAA42EA1F</uuid>
						<uuid>18D84BD3-AB47-48BE-9034-152ADE4B9670</uuid>
					</itemhistory>
				</clipitem>
				<clipitem id="JulieHill022Subclipb">
					<name>JulieHill022Subclipb</name>
					<duration>135</duration>
					<rate>
						<ntsc>FALSE</ntsc>
						<timebase>25</timebase>
					</rate>
					<in>0</in>
					<out>135</out>
					<start>70946</start>
					<end>71081</end>
					<pixelaspectratio>Square</pixelaspectratio>
					<anamorphic>FALSE</anamorphic>
					<alphatype>none</alphatype>
					<logginginfo>
						<scene/>
						<shottake/>
						<lognote/>
						<good>FALSE</good>
					</logginginfo>
					<labels>
						<label2/>
					</labels>
					<comments>
						<mastercomment1/>
						<mastercomment2/>
						<mastercomment3/>
						<mastercomment4/>
					</comments>
					<file id="JulieHill022Subclipb1">
						<name>JulieHill022Subclipb</name>
						<pathurl>file://localhost/Volumes/Michael's%20Passport/woodbdrigenov2011media/JulieHill022Subclipb</pathurl>
						<rate>
							<timebase>25</timebase>
						</rate>
						<duration>135</duration>
						<metadata>
							<storage>QuickTime</storage>
							<key>com.apple.finalcutstudio.media.uuid</key>
							<size>36</size>
							<type>UTF8</type>
							<value>51137C64-BB58-4BBD-8D5D-0CBE50D748CE</value>
						</metadata>
						<metadata>
							<storage>QuickTime</storage>
							<key>com.apple.finalcutstudio.media.history.uuid</key>
							<size>36</size>
							<type>UTF8</type>
							<value>B5F956FC-E628-45EE-86C9-FE566BE6DE2C</value>
						</metadata>
						<timecode>
							<rate>
								<timebase>25</timebase>
							</rate>
							<string>00:00:55:14</string>
							<frame>1389</frame>
							<displayformat>NDF</displayformat>
							<source>source</source>
							<reel>
								<name>JulieHill</name>
							</reel>
						</timecode>
						<media>
							<video>
								<duration>135</duration>
								<samplecharacteristics>
									<width>1280</width>
									<height>720</height>
								</samplecharacteristics>
							</video>
							<audio>
								<samplecharacteristics>
									<samplerate>48000</samplerate>
									<depth>16</depth>
								</samplecharacteristics>
								<channelcount>2</channelcount>
								<layout>stereo</layout>
								<audiochannel>
									<sourcechannel>1</sourcechannel>
									<channellabel>left</channellabel>
								</audiochannel>
								<audiochannel>
									<sourcechannel>2</sourcechannel>
									<channellabel>right</channellabel>
								</audiochannel>
							</audio>
						</media>
					</file>
					<sourcetrack>
						<mediatype>video</mediatype>
					</sourcetrack>
					<fielddominance>none</fielddominance>
					<itemhistory>
						<uuid>E578B7A4-A08F-4F1B-B2EB-092FCE2C8572</uuid>
						<uuid>22D55285-3E6E-4CB4-9015-11CF9D8E60AC</uuid>
					</itemhistory>
				</clipitem>
				<clipitem id="JulieHill022Subclipc">
					<name>JulieHill022Subclipc</name>
					<duration>548</duration>
					<rate>
						<ntsc>FALSE</ntsc>
						<timebase>25</timebase>
					</rate>
					<in>0</in>
					<out>548</out>
					<start>71394</start>
					<end>71942</end>
					<pixelaspectratio>Square</pixelaspectratio>
					<anamorphic>FALSE</anamorphic>
					<alphatype>none</alphatype>
					<logginginfo>
						<scene/>
						<shottake/>
						<lognote/>
						<good>FALSE</good>
					</logginginfo>
					<labels>
						<label2/>
					</labels>
					<comments>
						<mastercomment1/>
						<mastercomment2/>
						<mastercomment3/>
						<mastercomment4/>
					</comments>
					<file id="JulieHill022Subclipc1">
						<name>JulieHill022Subclipc</name>
						<pathurl>file://localhost/Volumes/Michael's%20Passport/woodbdrigenov2011media/JulieHill022Subclipc</pathurl>
						<rate>
							<timebase>25</timebase>
						</rate>
						<duration>548</duration>
						<metadata>
							<storage>QuickTime</storage>
							<key>com.apple.finalcutstudio.media.uuid</key>
							<size>36</size>
							<type>UTF8</type>
							<value>D2E463E0-C331-45AE-90FE-4F9F0BB7C8E4</value>
						</metadata>
						<metadata>
							<storage>QuickTime</storage>
							<key>com.apple.finalcutstudio.media.history.uuid</key>
							<size>36</size>
							<type>UTF8</type>
							<value>B5F956FC-E628-45EE-86C9-FE566BE6DE2C</value>
						</metadata>
						<timecode>
							<rate>
								<timebase>25</timebase>
							</rate>
							<string>00:01:13:13</string>
							<frame>1838</frame>
							<displayformat>NDF</displayformat>
							<source>source</source>
							<reel>
								<name>JulieHill</name>
							</reel>
						</timecode>
						<media>
							<video>
								<duration>548</duration>
								<samplecharacteristics>
									<width>1280</width>
									<height>720</height>
								</samplecharacteristics>
							</video>
							<audio>
								<samplecharacteristics>
									<samplerate>48000</samplerate>
									<depth>16</depth>
								</samplecharacteristics>
								<channelcount>2</channelcount>
								<layout>stereo</layout>
								<audiochannel>
									<sourcechannel>1</sourcechannel>
									<channellabel>left</channellabel>
								</audiochannel>
								<audiochannel>
									<sourcechannel>2</sourcechannel>
									<channellabel>right</channellabel>
								</audiochannel>
							</audio>
						</media>
					</file>
					<sourcetrack>
						<mediatype>video</mediatype>
					</sourcetrack>
					<fielddominance>none</fielddominance>
					<itemhistory>
						<uuid>CA2D53B6-7E05-4563-AE8D-4A50902F4B3E</uuid>
						<uuid>31592270-C218-4BB3-80B4-D78A80B5740F</uuid>
					</itemhistory>
				</clipitem>
				<clipitem id="JulieHill022Subclipc2">
					<name>JulieHill022Subclipc</name>
					<duration>406</duration>
					<rate>
						<ntsc>FALSE</ntsc>
						<timebase>25</timebase>
					</rate>
					<in>0</in>
					<out>406</out>
					<start>72306</start>
					<end>72712</end>
					<pixelaspectratio>Square</pixelaspectratio>
					<anamorphic>FALSE</anamorphic>
					<alphatype>none</alphatype>
					<logginginfo>
						<scene/>
						<shottake/>
						<lognote/>
						<good>FALSE</good>
					</logginginfo>
					<labels>
						<label2/>
					</labels>
					<comments>
						<mastercomment1/>
						<mastercomment2/>
						<mastercomment3/>
						<mastercomment4/>
					</comments>
					<file id="JulieHill022Subclipa">
						<name>JulieHill022Subclipa</name>
						<pathurl>file://localhost/Volumes/Michael's%20Passport/woodbdrigenov2011media/JulieHill022Subclipa</pathurl>
						<rate>
							<timebase>25</timebase>
						</rate>
						<duration>406</duration>
						<metadata>
							<storage>QuickTime</storage>
							<key>com.apple.finalcutstudio.media.uuid</key>
							<size>36</size>
							<type>UTF8</type>
							<value>B4FA9440-9188-40C2-9540-3EA24EB548B6</value>
						</metadata>
						<metadata>
							<storage>QuickTime</storage>
							<key>com.apple.finalcutstudio.media.history.uuid</key>
							<size>36</size>
							<type>UTF8</type>
							<value>B5F956FC-E628-45EE-86C9-FE566BE6DE2C</value>
						</metadata>
						<timecode>
							<rate>
								<timebase>25</timebase>
							</rate>
							<string>00:01:50:00</string>
							<frame>2750</frame>
							<displayformat>NDF</displayformat>
							<source>source</source>
							<reel>
								<name>JulieHill</name>
							</reel>
						</timecode>
						<media>
							<video>
								<duration>406</duration>
								<samplecharacteristics>
									<width>1280</width>
									<height>720</height>
								</samplecharacteristics>
							</video>
							<audio>
								<samplecharacteristics>
									<samplerate>48000</samplerate>
									<depth>16</depth>
								</samplecharacteristics>
								<channelcount>2</channelcount>
								<layout>stereo</layout>
								<audiochannel>
									<sourcechannel>1</sourcechannel>
									<channellabel>left</channellabel>
								</audiochannel>
								<audiochannel>
									<sourcechannel>2</sourcechannel>
									<channellabel>right</channellabel>
								</audiochannel>
							</audio>
						</media>
					</file>
					<sourcetrack>
						<mediatype>video</mediatype>
					</sourcetrack>
					<fielddominance>none</fielddominance>
					<itemhistory>
						<uuid>04363834-EE77-4C9E-8FAD-503E60FE2151</uuid>
						<uuid>A9D7DBAE-0E3C-49BB-B03D-12FF9C074DF9</uuid>
					</itemhistory>
				</clipitem>
				<clipitem id="JulieHill024Subclipa">
					<name>JulieHill024Subclipa</name>
					<duration>250</duration>
					<rate>
						<ntsc>FALSE</ntsc>
						<timebase>25</timebase>
					</rate>
					<in>0</in>
					<out>249</out>
					<start>75462</start>
					<end>75711</end>
					<pixelaspectratio>Square</pixelaspectratio>
					<anamorphic>FALSE</anamorphic>
					<alphatype>none</alphatype>
					<logginginfo>
						<scene/>
						<shottake/>
						<lognote/>
						<good>FALSE</good>
					</logginginfo>
					<labels>
						<label2/>
					</labels>
					<comments>
						<mastercomment1/>
						<mastercomment2/>
						<mastercomment3/>
						<mastercomment4/>
					</comments>
					<file id="JulieHill024Subclipa1">
						<name>JulieHill024Subclipa</name>
						<pathurl>file://localhost/Volumes/Michael's%20Passport/woodbdrigenov2011media/JulieHill024Subclipa</pathurl>
						<rate>
							<timebase>25</timebase>
						</rate>
						<duration>250</duration>
						<metadata>
							<storage>QuickTime</storage>
							<key>com.apple.finalcutstudio.media.uuid</key>
							<size>36</size>
							<type>UTF8</type>
							<value>16915F38-7C5B-4DB5-90E9-6E39D5280B78</value>
						</metadata>
						<metadata>
							<storage>QuickTime</storage>
							<key>com.apple.finalcutstudio.media.history.uuid</key>
							<size>36</size>
							<type>UTF8</type>
							<value>E23BAD87-0D98-4801-9480-0025CD69D846</value>
						</metadata>
						<timecode>
							<rate>
								<timebase>25</timebase>
							</rate>
							<string>00:00:06:05</string>
							<frame>155</frame>
							<displayformat>NDF</displayformat>
							<source>source</source>
							<reel>
								<name>JulieHill</name>
							</reel>
						</timecode>
						<media>
							<video>
								<duration>250</duration>
								<samplecharacteristics>
									<width>1280</width>
									<height>720</height>
								</samplecharacteristics>
							</video>
							<audio>
								<samplecharacteristics>
									<samplerate>48000</samplerate>
									<depth>16</depth>
								</samplecharacteristics>
								<channelcount>2</channelcount>
								<layout>stereo</layout>
								<audiochannel>
									<sourcechannel>1</sourcechannel>
									<channellabel>left</channellabel>
								</audiochannel>
								<audiochannel>
									<sourcechannel>2</sourcechannel>
									<channellabel>right</channellabel>
								</audiochannel>
							</audio>
						</media>
					</file>
					<sourcetrack>
						<mediatype>video</mediatype>
					</sourcetrack>
					<fielddominance>none</fielddominance>
					<itemhistory>
						<uuid>01C077AE-C8D1-491C-84A1-92CC3F65D8DB</uuid>
						<uuid>F052F227-782B-41A8-BC74-82A57035212E</uuid>
					</itemhistory>
				</clipitem>
				<clipitem id="JulieHill024Subclipb">
					<name>JulieHill024Subclipb</name>
					<duration>413</duration>
					<rate>
						<ntsc>FALSE</ntsc>
						<timebase>25</timebase>
					</rate>
					<in>0</in>
					<out>412</out>
					<start>75782</start>
					<end>76194</end>
					<pixelaspectratio>Square</pixelaspectratio>
					<anamorphic>FALSE</anamorphic>
					<alphatype>none</alphatype>
					<logginginfo>
						<scene/>
						<shottake/>
						<lognote/>
						<good>FALSE</good>
					</logginginfo>
					<labels>
						<label2/>
					</labels>
					<comments>
						<mastercomment1/>
						<mastercomment2/>
						<mastercomment3/>
						<mastercomment4/>
					</comments>
					<file id="JulieHill024Subclipb1">
						<name>JulieHill024Subclipb</name>
						<pathurl>file://localhost/Volumes/Michael's%20Passport/woodbdrigenov2011media/JulieHill024Subclipb</pathurl>
						<rate>
							<timebase>25</timebase>
						</rate>
						<duration>413</duration>
						<metadata>
							<storage>QuickTime</storage>
							<key>com.apple.finalcutstudio.media.uuid</key>
							<size>36</size>
							<type>UTF8</type>
							<value>E4E7EA9B-4992-4ABF-9F0D-8EFB8F51BEFA</value>
						</metadata>
						<metadata>
							<storage>QuickTime</storage>
							<key>com.apple.finalcutstudio.media.history.uuid</key>
							<size>36</size>
							<type>UTF8</type>
							<value>E23BAD87-0D98-4801-9480-0025CD69D846</value>
						</metadata>
						<timecode>
							<rate>
								<timebase>25</timebase>
							</rate>
							<string>00:00:19:00</string>
							<frame>475</frame>
							<displayformat>NDF</displayformat>
							<source>source</source>
							<reel>
								<name>JulieHill</name>
							</reel>
						</timecode>
						<media>
							<video>
								<duration>413</duration>
								<samplecharacteristics>
									<width>1280</width>
									<height>720</height>
								</samplecharacteristics>
							</video>
							<audio>
								<samplecharacteristics>
									<samplerate>48000</samplerate>
									<depth>16</depth>
								</samplecharacteristics>
								<channelcount>2</channelcount>
								<layout>stereo</layout>
								<audiochannel>
									<sourcechannel>1</sourcechannel>
									<channellabel>left</channellabel>
								</audiochannel>
								<audiochannel>
									<sourcechannel>2</sourcechannel>
									<channellabel>right</channellabel>
								</audiochannel>
							</audio>
						</media>
					</file>
					<sourcetrack>
						<mediatype>video</mediatype>
					</sourcetrack>
					<fielddominance>none</fielddominance>
					<itemhistory>
						<uuid>FFB20EE4-B6DF-4058-8768-330F42B3CB68</uuid>
						<uuid>F271BD73-046C-4E65-B490-C400E7689FB6</uuid>
					</itemhistory>
				</clipitem>
				<clipitem id="JulieHill025Subclipa">
					<name>JulieHill025Subclipa</name>
					<duration>674</duration>
					<rate>
						<ntsc>FALSE</ntsc>
						<timebase>25</timebase>
					</rate>
					<in>0</in>
					<out>674</out>
					<start>76342</start>
					<end>77016</end>
					<pixelaspectratio>Square</pixelaspectratio>
					<anamorphic>FALSE</anamorphic>
					<alphatype>none</alphatype>
					<logginginfo>
						<scene/>
						<shottake/>
						<lognote/>
						<good>FALSE</good>
					</logginginfo>
					<labels>
						<label2/>
					</labels>
					<comments>
						<mastercomment1/>
						<mastercomment2/>
						<mastercomment3/>
						<mastercomment4/>
					</comments>
					<file id="JulieHill025Subclipa1">
						<name>JulieHill025Subclipa</name>
						<pathurl>file://localhost/Volumes/Michael's%20Passport/woodbdrigenov2011media/JulieHill025Subclipa</pathurl>
						<rate>
							<timebase>25</timebase>
						</rate>
						<duration>674</duration>
						<metadata>
							<storage>QuickTime</storage>
							<key>com.apple.finalcutstudio.media.uuid</key>
							<size>36</size>
							<type>UTF8</type>
							<value>660CBF20-8CE6-4A61-91DF-223F7A5AD0DC</value>
						</metadata>
						<metadata>
							<storage>QuickTime</storage>
							<key>com.apple.finalcutstudio.media.history.uuid</key>
							<size>36</size>
							<type>UTF8</type>
							<value>57DB72A6-206C-47CF-AACA-BC4DC9A3EE7A</value>
						</metadata>
						<timecode>
							<rate>
								<timebase>25</timebase>
							</rate>
							<string>00:00:00:00</string>
							<frame>0</frame>
							<displayformat>NDF</displayformat>
							<source>source</source>
							<reel>
								<name>JulieHill</name>
							</reel>
						</timecode>
						<media>
							<video>
								<duration>674</duration>
								<samplecharacteristics>
									<width>1280</width>
									<height>720</height>
								</samplecharacteristics>
							</video>
							<audio>
								<samplecharacteristics>
									<samplerate>48000</samplerate>
									<depth>16</depth>
								</samplecharacteristics>
								<channelcount>2</channelcount>
								<layout>stereo</layout>
								<audiochannel>
									<sourcechannel>1</sourcechannel>
									<channellabel>left</channellabel>
								</audiochannel>
								<audiochannel>
									<sourcechannel>2</sourcechannel>
									<channellabel>right</channellabel>
								</audiochannel>
							</audio>
						</media>
					</file>
					<sourcetrack>
						<mediatype>video</mediatype>
					</sourcetrack>
					<fielddominance>none</fielddominance>
					<itemhistory>
						<uuid>AA26DD3E-C695-4B90-BA9A-FCCC74CCB793</uuid>
						<uuid>D84ECAD4-21D8-4088-8156-5006AEFA8400</uuid>
					</itemhistory>
				</clipitem>
				<clipitem id="JulieHill025Subclipb">
					<name>JulieHill025Subclipb</name>
					<duration>248</duration>
					<rate>
						<ntsc>FALSE</ntsc>
						<timebase>25</timebase>
					</rate>
					<in>0</in>
					<out>248</out>
					<start>77130</start>
					<end>77378</end>
					<pixelaspectratio>Square</pixelaspectratio>
					<anamorphic>FALSE</anamorphic>
					<alphatype>none</alphatype>
					<logginginfo>
						<scene/>
						<shottake/>
						<lognote/>
						<good>FALSE</good>
					</logginginfo>
					<labels>
						<label2/>
					</labels>
					<comments>
						<mastercomment1/>
						<mastercomment2/>
						<mastercomment3/>
						<mastercomment4/>
					</comments>
					<file id="JulieHill025Subclipb1">
						<name>JulieHill025Subclipb</name>
						<pathurl>file://localhost/Volumes/Michael's%20Passport/woodbdrigenov2011media/JulieHill025Subclipb</pathurl>
						<rate>
							<timebase>25</timebase>
						</rate>
						<duration>248</duration>
						<metadata>
							<storage>QuickTime</storage>
							<key>com.apple.finalcutstudio.media.uuid</key>
							<size>36</size>
							<type>UTF8</type>
							<value>AF0C3505-E892-4476-819C-03251293D7E4</value>
						</metadata>
						<metadata>
							<storage>QuickTime</storage>
							<key>com.apple.finalcutstudio.media.history.uuid</key>
							<size>36</size>
							<type>UTF8</type>
							<value>57DB72A6-206C-47CF-AACA-BC4DC9A3EE7A</value>
						</metadata>
						<timecode>
							<rate>
								<timebase>25</timebase>
							</rate>
							<string>00:00:31:13</string>
							<frame>788</frame>
							<displayformat>NDF</displayformat>
							<source>source</source>
							<reel>
								<name>JulieHill</name>
							</reel>
						</timecode>
						<media>
							<video>
								<duration>248</duration>
								<samplecharacteristics>
									<width>1280</width>
									<height>720</height>
								</samplecharacteristics>
							</video>
							<audio>
								<samplecharacteristics>
									<samplerate>48000</samplerate>
									<depth>16</depth>
								</samplecharacteristics>
								<channelcount>2</channelcount>
								<layout>stereo</layout>
								<audiochannel>
									<sourcechannel>1</sourcechannel>
									<channellabel>left</channellabel>
								</audiochannel>
								<audiochannel>
									<sourcechannel>2</sourcechannel>
									<channellabel>right</channellabel>
								</audiochannel>
							</audio>
						</media>
					</file>
					<sourcetrack>
						<mediatype>video</mediatype>
					</sourcetrack>
					<fielddominance>none</fielddominance>
					<itemhistory>
						<uuid>C012C3AC-6215-4D61-AC98-9A201532EE0B</uuid>
						<uuid>15ED9C16-7212-4BEC-B90B-D0B5EBBA3EC5</uuid>
					</itemhistory>
				</clipitem>
				<clipitem id="JulieHill026Subclipa">
					<name>JulieHill026Subclipa</name>
					<duration>469</duration>
					<rate>
						<ntsc>FALSE</ntsc>
						<timebase>25</timebase>
					</rate>
					<in>0</in>
					<out>468</out>
					<start>81992</start>
					<end>82460</end>
					<pixelaspectratio>Square</pixelaspectratio>
					<anamorphic>FALSE</anamorphic>
					<alphatype>none</alphatype>
					<logginginfo>
						<scene/>
						<shottake/>
						<lognote/>
						<good>FALSE</good>
					</logginginfo>
					<labels>
						<label2/>
					</labels>
					<comments>
						<mastercomment1/>
						<mastercomment2/>
						<mastercomment3/>
						<mastercomment4/>
					</comments>
					<file id="JulieHill026Subclipa1">
						<name>JulieHill026Subclipa</name>
						<pathurl>file://localhost/Volumes/Michael's%20Passport/woodbdrigenov2011media/JulieHill026Subclipa</pathurl>
						<rate>
							<timebase>25</timebase>
						</rate>
						<duration>469</duration>
						<metadata>
							<storage>QuickTime</storage>
							<key>com.apple.finalcutstudio.media.uuid</key>
							<size>36</size>
							<type>UTF8</type>
							<value>2FEFF56A-C36A-45CF-8AAE-0183B9533CAE</value>
						</metadata>
						<metadata>
							<storage>QuickTime</storage>
							<key>com.apple.finalcutstudio.media.history.uuid</key>
							<size>36</size>
							<type>UTF8</type>
							<value>39992F7C-B699-45B0-98B9-C15C99052E30</value>
						</metadata>
						<timecode>
							<rate>
								<timebase>25</timebase>
							</rate>
							<string>00:00:00:00</string>
							<frame>0</frame>
							<displayformat>NDF</displayformat>
							<source>source</source>
							<reel>
								<name>JulieHill</name>
							</reel>
						</timecode>
						<media>
							<video>
								<duration>469</duration>
								<samplecharacteristics>
									<width>1280</width>
									<height>720</height>
								</samplecharacteristics>
							</video>
							<audio>
								<samplecharacteristics>
									<samplerate>48000</samplerate>
									<depth>16</depth>
								</samplecharacteristics>
								<channelcount>2</channelcount>
								<layout>stereo</layout>
								<audiochannel>
									<sourcechannel>1</sourcechannel>
									<channellabel>left</channellabel>
								</audiochannel>
								<audiochannel>
									<sourcechannel>2</sourcechannel>
									<channellabel>right</channellabel>
								</audiochannel>
							</audio>
						</media>
					</file>
					<sourcetrack>
						<mediatype>video</mediatype>
					</sourcetrack>
					<fielddominance>none</fielddominance>
					<itemhistory>
						<uuid>4F487A25-05C6-4AAE-95BD-25A6DC16DD25</uuid>
						<uuid>26F742F6-AA1D-4982-9A6B-DA95CD979593</uuid>
					</itemhistory>
				</clipitem>
				<clipitem id="JulieHill026Subclipb">
					<name>JulieHill026Subclipb</name>
					<duration>622</duration>
					<rate>
						<ntsc>FALSE</ntsc>
						<timebase>25</timebase>
					</rate>
					<in>0</in>
					<out>621</out>
					<start>82744</start>
					<end>83365</end>
					<pixelaspectratio>Square</pixelaspectratio>
					<anamorphic>FALSE</anamorphic>
					<alphatype>none</alphatype>
					<logginginfo>
						<scene/>
						<shottake/>
						<lognote/>
						<good>FALSE</good>
					</logginginfo>
					<labels>
						<label2/>
					</labels>
					<comments>
						<mastercomment1/>
						<mastercomment2/>
						<mastercomment3/>
						<mastercomment4/>
					</comments>
					<file id="JulieHill026Subclipb1">
						<name>JulieHill026Subclipb</name>
						<pathurl>file://localhost/Volumes/Michael's%20Passport/woodbdrigenov2011media/JulieHill026Subclipb</pathurl>
						<rate>
							<timebase>25</timebase>
						</rate>
						<duration>622</duration>
						<metadata>
							<storage>QuickTime</storage>
							<key>com.apple.finalcutstudio.media.uuid</key>
							<size>36</size>
							<type>UTF8</type>
							<value>12C3E110-B2C6-4D2C-ADB9-32823B049C4E</value>
						</metadata>
						<metadata>
							<storage>QuickTime</storage>
							<key>com.apple.finalcutstudio.media.history.uuid</key>
							<size>36</size>
							<type>UTF8</type>
							<value>39992F7C-B699-45B0-98B9-C15C99052E30</value>
						</metadata>
						<timecode>
							<rate>
								<timebase>25</timebase>
							</rate>
							<string>00:00:30:01</string>
							<frame>751</frame>
							<displayformat>NDF</displayformat>
							<source>source</source>
							<reel>
								<name>JulieHill</name>
							</reel>
						</timecode>
						<media>
							<video>
								<duration>622</duration>
								<samplecharacteristics>
									<width>1280</width>
									<height>720</height>
								</samplecharacteristics>
							</video>
							<audio>
								<samplecharacteristics>
									<samplerate>48000</samplerate>
									<depth>16</depth>
								</samplecharacteristics>
								<channelcount>2</channelcount>
								<layout>stereo</layout>
								<audiochannel>
									<sourcechannel>1</sourcechannel>
									<channellabel>left</channellabel>
								</audiochannel>
								<audiochannel>
									<sourcechannel>2</sourcechannel>
									<channellabel>right</channellabel>
								</audiochannel>
							</audio>
						</media>
					</file>
					<sourcetrack>
						<mediatype>video</mediatype>
					</sourcetrack>
					<fielddominance>none</fielddominance>
					<itemhistory>
						<uuid>827FAC3E-A44C-42EA-A3F9-4C125BB7331E</uuid>
						<uuid>02622F1A-26E3-4C66-AFE4-F404C7F0C49E</uuid>
					</itemhistory>
				</clipitem>
				<clipitem id="JulieHill026Subclipc">
					<name>JulieHill026Subclipc</name>
					<duration>1162</duration>
					<rate>
						<ntsc>FALSE</ntsc>
						<timebase>25</timebase>
					</rate>
					<in>0</in>
					<out>1161</out>
					<start>83530</start>
					<end>84691</end>
					<pixelaspectratio>Square</pixelaspectratio>
					<anamorphic>FALSE</anamorphic>
					<alphatype>none</alphatype>
					<logginginfo>
						<scene/>
						<shottake/>
						<lognote/>
						<good>FALSE</good>
					</logginginfo>
					<labels>
						<label2/>
					</labels>
					<comments>
						<mastercomment1/>
						<mastercomment2/>
						<mastercomment3/>
						<mastercomment4/>
					</comments>
					<file id="JulieHill026Subclipc1">
						<name>JulieHill026Subclipc</name>
						<pathurl>file://localhost/Volumes/Michael's%20Passport/woodbdrigenov2011media/JulieHill026Subclipc</pathurl>
						<rate>
							<timebase>25</timebase>
						</rate>
						<duration>1162</duration>
						<metadata>
							<storage>QuickTime</storage>
							<key>com.apple.finalcutstudio.media.uuid</key>
							<size>36</size>
							<type>UTF8</type>
							<value>F04EFDC8-0325-4288-BD50-B1ECD255B000</value>
						</metadata>
						<metadata>
							<storage>QuickTime</storage>
							<key>com.apple.finalcutstudio.media.history.uuid</key>
							<size>36</size>
							<type>UTF8</type>
							<value>39992F7C-B699-45B0-98B9-C15C99052E30</value>
						</metadata>
						<timecode>
							<rate>
								<timebase>25</timebase>
							</rate>
							<string>00:01:01:13</string>
							<frame>1538</frame>
							<displayformat>NDF</displayformat>
							<source>source</source>
							<reel>
								<name>JulieHill</name>
							</reel>
						</timecode>
						<media>
							<video>
								<duration>1162</duration>
								<samplecharacteristics>
									<width>1280</width>
									<height>720</height>
								</samplecharacteristics>
							</video>
							<audio>
								<samplecharacteristics>
									<samplerate>48000</samplerate>
									<depth>16</depth>
								</samplecharacteristics>
								<channelcount>2</channelcount>
								<layout>stereo</layout>
								<audiochannel>
									<sourcechannel>1</sourcechannel>
									<channellabel>left</channellabel>
								</audiochannel>
								<audiochannel>
									<sourcechannel>2</sourcechannel>
									<channellabel>right</channellabel>
								</audiochannel>
							</audio>
						</media>
					</file>
					<sourcetrack>
						<mediatype>video</mediatype>
					</sourcetrack>
					<fielddominance>none</fielddominance>
					<itemhistory>
						<uuid>CF1E8C2C-D7B7-4848-BECE-1A3DBC152791</uuid>
						<uuid>8DF0FC12-03A6-4E93-9818-17FC382F6172</uuid>
					</itemhistory>
				</clipitem>
				<clipitem id="JulieHill027Subclipa">
					<name>JulieHill027Subclipa</name>
					<duration>1056</duration>
					<rate>
						<ntsc>FALSE</ntsc>
						<timebase>25</timebase>
					</rate>
					<in>0</in>
					<out>1056</out>
					<start>85182</start>
					<end>86238</end>
					<pixelaspectratio>Square</pixelaspectratio>
					<anamorphic>FALSE</anamorphic>
					<alphatype>none</alphatype>
					<logginginfo>
						<scene/>
						<shottake/>
						<lognote/>
						<good>FALSE</good>
					</logginginfo>
					<labels>
						<label2/>
					</labels>
					<comments>
						<mastercomment1/>
						<mastercomment2/>
						<mastercomment3/>
						<mastercomment4/>
					</comments>
					<file id="JulieHill027Subclipa1">
						<name>JulieHill027Subclipa</name>
						<pathurl>file://localhost/Volumes/Michael's%20Passport/woodbdrigenov2011media/JulieHill027Subclipa</pathurl>
						<rate>
							<timebase>25</timebase>
						</rate>
						<duration>1056</duration>
						<metadata>
							<storage>QuickTime</storage>
							<key>com.apple.finalcutstudio.media.uuid</key>
							<size>36</size>
							<type>UTF8</type>
							<value>EFC13309-1385-44F5-8265-7C132FC41E38</value>
						</metadata>
						<metadata>
							<storage>QuickTime</storage>
							<key>com.apple.finalcutstudio.media.history.uuid</key>
							<size>36</size>
							<type>UTF8</type>
							<value>D0550700-B676-48FF-B3EE-A943D58028C3</value>
						</metadata>
						<timecode>
							<rate>
								<timebase>25</timebase>
							</rate>
							<string>00:00:04:01</string>
							<frame>101</frame>
							<displayformat>NDF</displayformat>
							<source>source</source>
							<reel>
								<name>JulieHill</name>
							</reel>
						</timecode>
						<media>
							<video>
								<duration>1056</duration>
								<samplecharacteristics>
									<width>1280</width>
									<height>720</height>
								</samplecharacteristics>
							</video>
							<audio>
								<samplecharacteristics>
									<samplerate>48000</samplerate>
									<depth>16</depth>
								</samplecharacteristics>
								<channelcount>2</channelcount>
								<layout>stereo</layout>
								<audiochannel>
									<sourcechannel>1</sourcechannel>
									<channellabel>left</channellabel>
								</audiochannel>
								<audiochannel>
									<sourcechannel>2</sourcechannel>
									<channellabel>right</channellabel>
								</audiochannel>
							</audio>
						</media>
					</file>
					<sourcetrack>
						<mediatype>video</mediatype>
					</sourcetrack>
					<fielddominance>none</fielddominance>
					<itemhistory>
						<uuid>EB0725B1-83D2-448F-9423-786C70662ABD</uuid>
						<uuid>56AEFD42-5391-474D-BEE9-162DE835A3F5</uuid>
					</itemhistory>
				</clipitem>
				<clipitem id="JulieHill028Subclipa">
					<name>JulieHill028Subclipa</name>
					<duration>434</duration>
					<rate>
						<ntsc>FALSE</ntsc>
						<timebase>25</timebase>
					</rate>
					<in>0</in>
					<out>434</out>
					<start>88237</start>
					<end>88671</end>
					<pixelaspectratio>Square</pixelaspectratio>
					<anamorphic>FALSE</anamorphic>
					<alphatype>none</alphatype>
					<logginginfo>
						<scene/>
						<shottake/>
						<lognote/>
						<good>FALSE</good>
					</logginginfo>
					<labels>
						<label2/>
					</labels>
					<comments>
						<mastercomment1/>
						<mastercomment2/>
						<mastercomment3/>
						<mastercomment4/>
					</comments>
					<file id="JulieHill028Subclipa1">
						<name>JulieHill028Subclipa</name>
						<pathurl>file://localhost/Volumes/Michael's%20Passport/woodbdrigenov2011media/JulieHill028Subclipa</pathurl>
						<rate>
							<timebase>25</timebase>
						</rate>
						<duration>434</duration>
						<metadata>
							<storage>QuickTime</storage>
							<key>com.apple.finalcutstudio.media.uuid</key>
							<size>36</size>
							<type>UTF8</type>
							<value>35D84A5B-2473-45DA-9CE9-1BE71C4D440A</value>
						</metadata>
						<metadata>
							<storage>QuickTime</storage>
							<key>com.apple.finalcutstudio.media.history.uuid</key>
							<size>36</size>
							<type>UTF8</type>
							<value>02FC72A1-F8F8-4FC3-BAB9-70B0D8749CE2</value>
						</metadata>
						<timecode>
							<rate>
								<timebase>25</timebase>
							</rate>
							<string>00:00:01:11</string>
							<frame>36</frame>
							<displayformat>NDF</displayformat>
							<source>source</source>
							<reel>
								<name>JulieHill</name>
							</reel>
						</timecode>
						<media>
							<video>
								<duration>434</duration>
								<samplecharacteristics>
									<width>1280</width>
									<height>720</height>
								</samplecharacteristics>
							</video>
							<audio>
								<samplecharacteristics>
									<samplerate>48000</samplerate>
									<depth>16</depth>
								</samplecharacteristics>
								<channelcount>2</channelcount>
								<layout>stereo</layout>
								<audiochannel>
									<sourcechannel>1</sourcechannel>
									<channellabel>left</channellabel>
								</audiochannel>
								<audiochannel>
									<sourcechannel>2</sourcechannel>
									<channellabel>right</channellabel>
								</audiochannel>
							</audio>
						</media>
					</file>
					<sourcetrack>
						<mediatype>video</mediatype>
					</sourcetrack>
					<fielddominance>none</fielddominance>
					<itemhistory>
						<uuid>68DA0EBE-13D0-47CC-AAAC-23BA2D587449</uuid>
						<uuid>FF747F62-DB20-4644-AAD9-A314E7C75D83</uuid>
					</itemhistory>
				</clipitem>
				<clipitem id="JulieHill028Subclipb">
					<name>JulieHill028Subclipb</name>
					<duration>511</duration>
					<rate>
						<ntsc>FALSE</ntsc>
						<timebase>25</timebase>
					</rate>
					<in>0</in>
					<out>511</out>
					<start>88844</start>
					<end>89355</end>
					<pixelaspectratio>Square</pixelaspectratio>
					<anamorphic>FALSE</anamorphic>
					<alphatype>none</alphatype>
					<logginginfo>
						<scene/>
						<shottake/>
						<lognote/>
						<good>FALSE</good>
					</logginginfo>
					<labels>
						<label2/>
					</labels>
					<comments>
						<mastercomment1/>
						<mastercomment2/>
						<mastercomment3/>
						<mastercomment4/>
					</comments>
					<file id="JulieHill028Subclipb1">
						<name>JulieHill028Subclipb</name>
						<pathurl>file://localhost/Volumes/Michael's%20Passport/woodbdrigenov2011media/JulieHill028Subclipb</pathurl>
						<rate>
							<timebase>25</timebase>
						</rate>
						<duration>511</duration>
						<metadata>
							<storage>QuickTime</storage>
							<key>com.apple.finalcutstudio.media.uuid</key>
							<size>36</size>
							<type>UTF8</type>
							<value>208508DD-17F0-4AE4-BDE2-FD83512B0471</value>
						</metadata>
						<metadata>
							<storage>QuickTime</storage>
							<key>com.apple.finalcutstudio.media.history.uuid</key>
							<size>36</size>
							<type>UTF8</type>
							<value>02FC72A1-F8F8-4FC3-BAB9-70B0D8749CE2</value>
						</metadata>
						<timecode>
							<rate>
								<timebase>25</timebase>
							</rate>
							<string>00:00:25:18</string>
							<frame>643</frame>
							<displayformat>NDF</displayformat>
							<source>source</source>
							<reel>
								<name>JulieHill</name>
							</reel>
						</timecode>
						<media>
							<video>
								<duration>511</duration>
								<samplecharacteristics>
									<width>1280</width>
									<height>720</height>
								</samplecharacteristics>
							</video>
							<audio>
								<samplecharacteristics>
									<samplerate>48000</samplerate>
									<depth>16</depth>
								</samplecharacteristics>
								<channelcount>2</channelcount>
								<layout>stereo</layout>
								<audiochannel>
									<sourcechannel>1</sourcechannel>
									<channellabel>left</channellabel>
								</audiochannel>
								<audiochannel>
									<sourcechannel>2</sourcechannel>
									<channellabel>right</channellabel>
								</audiochannel>
							</audio>
						</media>
					</file>
					<sourcetrack>
						<mediatype>video</mediatype>
					</sourcetrack>
					<fielddominance>none</fielddominance>
					<itemhistory>
						<uuid>CF0FF051-8A7E-4006-8B3A-E14AA87A5F5D</uuid>
						<uuid>FAA3F23A-FBDE-48DC-8DA9-BAD0C0E2503B</uuid>
					</itemhistory>
				</clipitem>
				<clipitem id="JulieHill028Subclipc">
					<name>JulieHill028Subclipc</name>
					<duration>647</duration>
					<rate>
						<ntsc>FALSE</ntsc>
						<timebase>25</timebase>
					</rate>
					<in>0</in>
					<out>646</out>
					<start>89411</start>
					<end>90057</end>
					<pixelaspectratio>Square</pixelaspectratio>
					<anamorphic>FALSE</anamorphic>
					<alphatype>none</alphatype>
					<logginginfo>
						<scene/>
						<shottake/>
						<lognote/>
						<good>FALSE</good>
					</logginginfo>
					<labels>
						<label2/>
					</labels>
					<comments>
						<mastercomment1/>
						<mastercomment2/>
						<mastercomment3/>
						<mastercomment4/>
					</comments>
					<file id="JulieHill028Subclipc1">
						<name>JulieHill028Subclipc</name>
						<pathurl>file://localhost/Volumes/Michael's%20Passport/woodbdrigenov2011media/JulieHill028Subclipc</pathurl>
						<rate>
							<timebase>25</timebase>
						</rate>
						<duration>647</duration>
						<metadata>
							<storage>QuickTime</storage>
							<key>com.apple.finalcutstudio.media.uuid</key>
							<size>36</size>
							<type>UTF8</type>
							<value>185D766C-143C-4875-A8C8-EB10E5EEBB56</value>
						</metadata>
						<metadata>
							<storage>QuickTime</storage>
							<key>com.apple.finalcutstudio.media.history.uuid</key>
							<size>36</size>
							<type>UTF8</type>
							<value>02FC72A1-F8F8-4FC3-BAB9-70B0D8749CE2</value>
						</metadata>
						<timecode>
							<rate>
								<timebase>25</timebase>
							</rate>
							<string>00:00:48:10</string>
							<frame>1210</frame>
							<displayformat>NDF</displayformat>
							<source>source</source>
							<reel>
								<name>JulieHill</name>
							</reel>
						</timecode>
						<media>
							<video>
								<duration>647</duration>
								<samplecharacteristics>
									<width>1280</width>
									<height>720</height>
								</samplecharacteristics>
							</video>
							<audio>
								<samplecharacteristics>
									<samplerate>48000</samplerate>
									<depth>16</depth>
								</samplecharacteristics>
								<channelcount>2</channelcount>
								<layout>stereo</layout>
								<audiochannel>
									<sourcechannel>1</sourcechannel>
									<channellabel>left</channellabel>
								</audiochannel>
								<audiochannel>
									<sourcechannel>2</sourcechannel>
									<channellabel>right</channellabel>
								</audiochannel>
							</audio>
						</media>
					</file>
					<sourcetrack>
						<mediatype>video</mediatype>
					</sourcetrack>
					<fielddominance>none</fielddominance>
					<itemhistory>
						<uuid>6544616C-CBF9-4857-847E-1112C0E7BDBC</uuid>
						<uuid>BEC1E62D-30A2-4CA0-8E13-D7116C41A858</uuid>
					</itemhistory>
				</clipitem>
				<clipitem id="JulieHill029Subclipa">
					<name>JulieHill029Subclipa</name>
					<duration>288</duration>
					<rate>
						<ntsc>FALSE</ntsc>
						<timebase>25</timebase>
					</rate>
					<in>0</in>
					<out>288</out>
					<start>91165</start>
					<end>91453</end>
					<pixelaspectratio>Square</pixelaspectratio>
					<anamorphic>FALSE</anamorphic>
					<alphatype>none</alphatype>
					<logginginfo>
						<scene/>
						<shottake/>
						<lognote/>
						<good>FALSE</good>
					</logginginfo>
					<labels>
						<label2/>
					</labels>
					<comments>
						<mastercomment1/>
						<mastercomment2/>
						<mastercomment3/>
						<mastercomment4/>
					</comments>
					<file id="JulieHill029Subclipa1">
						<name>JulieHill029Subclipa</name>
						<pathurl>file://localhost/Volumes/Michael's%20Passport/woodbdrigenov2011media/JulieHill029Subclipa</pathurl>
						<rate>
							<timebase>25</timebase>
						</rate>
						<duration>288</duration>
						<metadata>
							<storage>QuickTime</storage>
							<key>com.apple.finalcutstudio.media.uuid</key>
							<size>36</size>
							<type>UTF8</type>
							<value>887B309E-7B36-46CF-A706-EC387B2AE2DA</value>
						</metadata>
						<metadata>
							<storage>QuickTime</storage>
							<key>com.apple.finalcutstudio.media.history.uuid</key>
							<size>36</size>
							<type>UTF8</type>
							<value>A18B340A-B802-4E52-ABF6-77B170187A3A</value>
						</metadata>
						<timecode>
							<rate>
								<timebase>25</timebase>
							</rate>
							<string>00:00:05:21</string>
							<frame>146</frame>
							<displayformat>NDF</displayformat>
							<source>source</source>
							<reel>
								<name>JulieHill</name>
							</reel>
						</timecode>
						<media>
							<video>
								<duration>288</duration>
								<samplecharacteristics>
									<width>1280</width>
									<height>720</height>
								</samplecharacteristics>
							</video>
							<audio>
								<samplecharacteristics>
									<samplerate>48000</samplerate>
									<depth>16</depth>
								</samplecharacteristics>
								<channelcount>2</channelcount>
								<layout>stereo</layout>
								<audiochannel>
									<sourcechannel>1</sourcechannel>
									<channellabel>left</channellabel>
								</audiochannel>
								<audiochannel>
									<sourcechannel>2</sourcechannel>
									<channellabel>right</channellabel>
								</audiochannel>
							</audio>
						</media>
					</file>
					<sourcetrack>
						<mediatype>video</mediatype>
					</sourcetrack>
					<fielddominance>none</fielddominance>
					<itemhistory>
						<uuid>5F61C3E4-723E-4A76-93C7-901F730608EB</uuid>
						<uuid>3E4B4353-73C5-40E9-872D-4C16E99D9357</uuid>
					</itemhistory>
				</clipitem>
				<clipitem id="JulieHill030Subclipa">
					<name>JulieHill030Subclipa</name>
					<duration>358</duration>
					<rate>
						<ntsc>FALSE</ntsc>
						<timebase>25</timebase>
					</rate>
					<in>0</in>
					<out>357</out>
					<start>91795</start>
					<end>92152</end>
					<pixelaspectratio>Square</pixelaspectratio>
					<anamorphic>FALSE</anamorphic>
					<alphatype>none</alphatype>
					<logginginfo>
						<scene/>
						<shottake/>
						<lognote/>
						<good>FALSE</good>
					</logginginfo>
					<labels>
						<label2/>
					</labels>
					<comments>
						<mastercomment1/>
						<mastercomment2/>
						<mastercomment3/>
						<mastercomment4/>
					</comments>
					<file id="JulieHill030Subclipa1">
						<name>JulieHill030Subclipa</name>
						<pathurl>file://localhost/Volumes/Michael's%20Passport/woodbdrigenov2011media/JulieHill030Subclipa</pathurl>
						<rate>
							<timebase>25</timebase>
						</rate>
						<duration>358</duration>
						<metadata>
							<storage>QuickTime</storage>
							<key>com.apple.finalcutstudio.media.uuid</key>
							<size>36</size>
							<type>UTF8</type>
							<value>64D2E31B-9991-48FB-BECB-098F0E91F4E2</value>
						</metadata>
						<metadata>
							<storage>QuickTime</storage>
							<key>com.apple.finalcutstudio.media.history.uuid</key>
							<size>36</size>
							<type>UTF8</type>
							<value>A33B10BE-4B25-4ABC-920F-A1D34379ED4E</value>
						</metadata>
						<timecode>
							<rate>
								<timebase>25</timebase>
							</rate>
							<string>00:00:00:00</string>
							<frame>0</frame>
							<displayformat>NDF</displayformat>
							<source>source</source>
							<reel>
								<name>JulieHill</name>
							</reel>
						</timecode>
						<media>
							<video>
								<duration>358</duration>
								<samplecharacteristics>
									<width>1280</width>
									<height>720</height>
								</samplecharacteristics>
							</video>
							<audio>
								<samplecharacteristics>
									<samplerate>48000</samplerate>
									<depth>16</depth>
								</samplecharacteristics>
								<channelcount>2</channelcount>
								<layout>stereo</layout>
								<audiochannel>
									<sourcechannel>1</sourcechannel>
									<channellabel>left</channellabel>
								</audiochannel>
								<audiochannel>
									<sourcechannel>2</sourcechannel>
									<channellabel>right</channellabel>
								</audiochannel>
							</audio>
						</media>
					</file>
					<sourcetrack>
						<mediatype>video</mediatype>
					</sourcetrack>
					<fielddominance>none</fielddominance>
					<itemhistory>
						<uuid>C2C19341-3CB1-498F-B930-3D5E2A3D06A6</uuid>
						<uuid>8CB60642-DF3F-469C-9A56-9C0466FB5541</uuid>
					</itemhistory>
				</clipitem>
				<clipitem id="JulieHill030Subclipb">
					<name>JulieHill030Subclipb</name>
					<duration>491</duration>
					<rate>
						<ntsc>FALSE</ntsc>
						<timebase>25</timebase>
					</rate>
					<in>0</in>
					<out>490</out>
					<start>92317</start>
					<end>92807</end>
					<pixelaspectratio>Square</pixelaspectratio>
					<anamorphic>FALSE</anamorphic>
					<alphatype>none</alphatype>
					<logginginfo>
						<scene/>
						<shottake/>
						<lognote/>
						<good>FALSE</good>
					</logginginfo>
					<labels>
						<label2/>
					</labels>
					<comments>
						<mastercomment1/>
						<mastercomment2/>
						<mastercomment3/>
						<mastercomment4/>
					</comments>
					<file id="JulieHill030Subclipb1">
						<name>JulieHill030Subclipb</name>
						<pathurl>file://localhost/Volumes/Michael's%20Passport/woodbdrigenov2011media/JulieHill030Subclipb</pathurl>
						<rate>
							<timebase>25</timebase>
						</rate>
						<duration>491</duration>
						<metadata>
							<storage>QuickTime</storage>
							<key>com.apple.finalcutstudio.media.uuid</key>
							<size>36</size>
							<type>UTF8</type>
							<value>8F776308-4ACA-41AE-9F0D-C3DC7FEE72E3</value>
						</metadata>
						<metadata>
							<storage>QuickTime</storage>
							<key>com.apple.finalcutstudio.media.history.uuid</key>
							<size>36</size>
							<type>UTF8</type>
							<value>A33B10BE-4B25-4ABC-920F-A1D34379ED4E</value>
						</metadata>
						<timecode>
							<rate>
								<timebase>25</timebase>
							</rate>
							<string>00:00:20:22</string>
							<frame>522</frame>
							<displayformat>NDF</displayformat>
							<source>source</source>
							<reel>
								<name>JulieHill</name>
							</reel>
						</timecode>
						<media>
							<video>
								<duration>491</duration>
								<samplecharacteristics>
									<width>1280</width>
									<height>720</height>
								</samplecharacteristics>
							</video>
							<audio>
								<samplecharacteristics>
									<samplerate>48000</samplerate>
									<depth>16</depth>
								</samplecharacteristics>
								<channelcount>2</channelcount>
								<layout>stereo</layout>
								<audiochannel>
									<sourcechannel>1</sourcechannel>
									<channellabel>left</channellabel>
								</audiochannel>
								<audiochannel>
									<sourcechannel>2</sourcechannel>
									<channellabel>right</channellabel>
								</audiochannel>
							</audio>
						</media>
					</file>
					<sourcetrack>
						<mediatype>video</mediatype>
					</sourcetrack>
					<fielddominance>none</fielddominance>
					<itemhistory>
						<uuid>EA738FE4-5BC6-4C91-A161-5A628A10CBE0</uuid>
						<uuid>8651448F-5E81-49E9-9777-574094C78A71</uuid>
					</itemhistory>
				</clipitem>
				<clipitem id="JulieHill030Subclipc">
					<name>JulieHill030Subclipc</name>
					<duration>368</duration>
					<rate>
						<ntsc>FALSE</ntsc>
						<timebase>25</timebase>
					</rate>
					<in>0</in>
					<out>367</out>
					<start>92991</start>
					<end>93358</end>
					<pixelaspectratio>Square</pixelaspectratio>
					<anamorphic>FALSE</anamorphic>
					<alphatype>none</alphatype>
					<logginginfo>
						<scene/>
						<shottake/>
						<lognote/>
						<good>FALSE</good>
					</logginginfo>
					<labels>
						<label2/>
					</labels>
					<comments>
						<mastercomment1/>
						<mastercomment2/>
						<mastercomment3/>
						<mastercomment4/>
					</comments>
					<file id="JulieHill030Subclipc1">
						<name>JulieHill030Subclipc</name>
						<pathurl>file://localhost/Volumes/Michael's%20Passport/woodbdrigenov2011media/JulieHill030Subclipc</pathurl>
						<rate>
							<timebase>25</timebase>
						</rate>
						<duration>368</duration>
						<metadata>
							<storage>QuickTime</storage>
							<key>com.apple.finalcutstudio.media.uuid</key>
							<size>36</size>
							<type>UTF8</type>
							<value>6EB9F274-DB7D-4C40-A2CC-7EAA0DD6D175</value>
						</metadata>
						<metadata>
							<storage>QuickTime</storage>
							<key>com.apple.finalcutstudio.media.history.uuid</key>
							<size>36</size>
							<type>UTF8</type>
							<value>A33B10BE-4B25-4ABC-920F-A1D34379ED4E</value>
						</metadata>
						<timecode>
							<rate>
								<timebase>25</timebase>
							</rate>
							<string>00:00:47:21</string>
							<frame>1196</frame>
							<displayformat>NDF</displayformat>
							<source>source</source>
							<reel>
								<name>JulieHill</name>
							</reel>
						</timecode>
						<media>
							<video>
								<duration>368</duration>
								<samplecharacteristics>
									<width>1280</width>
									<height>720</height>
								</samplecharacteristics>
							</video>
							<audio>
								<samplecharacteristics>
									<samplerate>48000</samplerate>
									<depth>16</depth>
								</samplecharacteristics>
								<channelcount>2</channelcount>
								<layout>stereo</layout>
								<audiochannel>
									<sourcechannel>1</sourcechannel>
									<channellabel>left</channellabel>
								</audiochannel>
								<audiochannel>
									<sourcechannel>2</sourcechannel>
									<channellabel>right</channellabel>
								</audiochannel>
							</audio>
						</media>
					</file>
					<sourcetrack>
						<mediatype>video</mediatype>
					</sourcetrack>
					<fielddominance>none</fielddominance>
					<itemhistory>
						<uuid>D937BB0E-D807-4209-B058-D8A6D0AAEC75</uuid>
						<uuid>7DCA8F1F-2F11-45CF-A3D9-0C040F931CCE</uuid>
					</itemhistory>
				</clipitem>
				<clipitem id="JulieHill030Subclipd">
					<name>JulieHill030Subclipd</name>
					<duration>169</duration>
					<rate>
						<ntsc>FALSE</ntsc>
						<timebase>25</timebase>
					</rate>
					<in>0</in>
					<out>168</out>
					<start>93568</start>
					<end>93736</end>
					<pixelaspectratio>Square</pixelaspectratio>
					<anamorphic>FALSE</anamorphic>
					<alphatype>none</alphatype>
					<logginginfo>
						<scene/>
						<shottake/>
						<lognote/>
						<good>FALSE</good>
					</logginginfo>
					<labels>
						<label2/>
					</labels>
					<comments>
						<mastercomment1/>
						<mastercomment2/>
						<mastercomment3/>
						<mastercomment4/>
					</comments>
					<file id="JulieHill030Subclipd1">
						<name>JulieHill030Subclipd</name>
						<pathurl>file://localhost/Volumes/Michael's%20Passport/woodbdrigenov2011media/JulieHill030Subclipd</pathurl>
						<rate>
							<timebase>25</timebase>
						</rate>
						<duration>169</duration>
						<metadata>
							<storage>QuickTime</storage>
							<key>com.apple.finalcutstudio.media.uuid</key>
							<size>36</size>
							<type>UTF8</type>
							<value>DB903144-B358-4A6D-B64B-BEACA99EB047</value>
						</metadata>
						<metadata>
							<storage>QuickTime</storage>
							<key>com.apple.finalcutstudio.media.history.uuid</key>
							<size>36</size>
							<type>UTF8</type>
							<value>A33B10BE-4B25-4ABC-920F-A1D34379ED4E</value>
						</metadata>
						<timecode>
							<rate>
								<timebase>25</timebase>
							</rate>
							<string>00:01:10:23</string>
							<frame>1773</frame>
							<displayformat>NDF</displayformat>
							<source>source</source>
							<reel>
								<name>JulieHill</name>
							</reel>
						</timecode>
						<media>
							<video>
								<duration>169</duration>
								<samplecharacteristics>
									<width>1280</width>
									<height>720</height>
								</samplecharacteristics>
							</video>
							<audio>
								<samplecharacteristics>
									<samplerate>48000</samplerate>
									<depth>16</depth>
								</samplecharacteristics>
								<channelcount>2</channelcount>
								<layout>stereo</layout>
								<audiochannel>
									<sourcechannel>1</sourcechannel>
									<channellabel>left</channellabel>
								</audiochannel>
								<audiochannel>
									<sourcechannel>2</sourcechannel>
									<channellabel>right</channellabel>
								</audiochannel>
							</audio>
						</media>
					</file>
					<sourcetrack>
						<mediatype>video</mediatype>
					</sourcetrack>
					<fielddominance>none</fielddominance>
					<itemhistory>
						<uuid>19FD23A5-7440-4031-B1C9-7BC7FD3811EE</uuid>
						<uuid>749F02E6-4466-43A8-9553-022AEE2A5D1D</uuid>
					</itemhistory>
				</clipitem>
				<clipitem id="JulieHill030Subclipe">
					<name>JulieHill030Subclipe</name>
					<duration>327</duration>
					<rate>
						<ntsc>FALSE</ntsc>
						<timebase>25</timebase>
					</rate>
					<in>0</in>
					<out>327</out>
					<start>93736</start>
					<end>94063</end>
					<pixelaspectratio>Square</pixelaspectratio>
					<anamorphic>FALSE</anamorphic>
					<alphatype>none</alphatype>
					<logginginfo>
						<scene/>
						<shottake/>
						<lognote/>
						<good>FALSE</good>
					</logginginfo>
					<labels>
						<label2/>
					</labels>
					<comments>
						<mastercomment1/>
						<mastercomment2/>
						<mastercomment3/>
						<mastercomment4/>
					</comments>
					<file id="JulieHill030Subclipe1">
						<name>JulieHill030Subclipe</name>
						<pathurl>file://localhost/Volumes/Michael's%20Passport/woodbdrigenov2011media/JulieHill030Subclipe</pathurl>
						<rate>
							<timebase>25</timebase>
						</rate>
						<duration>327</duration>
						<metadata>
							<storage>QuickTime</storage>
							<key>com.apple.finalcutstudio.media.uuid</key>
							<size>36</size>
							<type>UTF8</type>
							<value>92FFB9FF-C95A-4EF8-B045-3C16D8B3D41E</value>
						</metadata>
						<metadata>
							<storage>QuickTime</storage>
							<key>com.apple.finalcutstudio.media.history.uuid</key>
							<size>36</size>
							<type>UTF8</type>
							<value>A33B10BE-4B25-4ABC-920F-A1D34379ED4E</value>
						</metadata>
						<timecode>
							<rate>
								<timebase>25</timebase>
							</rate>
							<string>00:01:17:16</string>
							<frame>1941</frame>
							<displayformat>NDF</displayformat>
							<source>source</source>
							<reel>
								<name>JulieHill</name>
							</reel>
						</timecode>
						<media>
							<video>
								<duration>327</duration>
								<samplecharacteristics>
									<width>1280</width>
									<height>720</height>
								</samplecharacteristics>
							</video>
							<audio>
								<samplecharacteristics>
									<samplerate>48000</samplerate>
									<depth>16</depth>
								</samplecharacteristics>
								<channelcount>2</channelcount>
								<layout>stereo</layout>
								<audiochannel>
									<sourcechannel>1</sourcechannel>
									<channellabel>left</channellabel>
								</audiochannel>
								<audiochannel>
									<sourcechannel>2</sourcechannel>
									<channellabel>right</channellabel>
								</audiochannel>
							</audio>
						</media>
					</file>
					<sourcetrack>
						<mediatype>video</mediatype>
					</sourcetrack>
					<fielddominance>none</fielddominance>
					<itemhistory>
						<uuid>D8AB2155-E240-41FB-BAE1-7EF4BC0AFB19</uuid>
						<uuid>7FE3EADA-1F71-46F9-87E4-A19FF7A9D545</uuid>
					</itemhistory>
				</clipitem>
				<clipitem id="JulieHill031Subclipa">
					<name>JulieHill031Subclipa</name>
					<duration>250</duration>
					<rate>
						<ntsc>FALSE</ntsc>
						<timebase>25</timebase>
					</rate>
					<in>0</in>
					<out>249</out>
					<start>94644</start>
					<end>94893</end>
					<pixelaspectratio>Square</pixelaspectratio>
					<anamorphic>FALSE</anamorphic>
					<alphatype>none</alphatype>
					<logginginfo>
						<scene/>
						<shottake/>
						<lognote/>
						<good>FALSE</good>
					</logginginfo>
					<labels>
						<label2/>
					</labels>
					<comments>
						<mastercomment1/>
						<mastercomment2/>
						<mastercomment3/>
						<mastercomment4/>
					</comments>
					<file id="JulieHill031Subclipa1">
						<name>JulieHill031Subclipa</name>
						<pathurl>file://localhost/Volumes/Michael's%20Passport/woodbdrigenov2011media/JulieHill031Subclipa</pathurl>
						<rate>
							<timebase>25</timebase>
						</rate>
						<duration>250</duration>
						<metadata>
							<storage>QuickTime</storage>
							<key>com.apple.finalcutstudio.media.uuid</key>
							<size>36</size>
							<type>UTF8</type>
							<value>863141D3-3256-4993-87AD-B0B5ABF9520C</value>
						</metadata>
						<metadata>
							<storage>QuickTime</storage>
							<key>com.apple.finalcutstudio.media.history.uuid</key>
							<size>36</size>
							<type>UTF8</type>
							<value>4C739277-8963-4EB9-B3F4-42B7A92CC228</value>
						</metadata>
						<timecode>
							<rate>
								<timebase>25</timebase>
							</rate>
							<string>00:00:00:00</string>
							<frame>0</frame>
							<displayformat>NDF</displayformat>
							<source>source</source>
							<reel>
								<name>JulieHill</name>
							</reel>
						</timecode>
						<media>
							<video>
								<duration>250</duration>
								<samplecharacteristics>
									<width>1280</width>
									<height>720</height>
								</samplecharacteristics>
							</video>
							<audio>
								<samplecharacteristics>
									<samplerate>48000</samplerate>
									<depth>16</depth>
								</samplecharacteristics>
								<channelcount>2</channelcount>
								<layout>stereo</layout>
								<audiochannel>
									<sourcechannel>1</sourcechannel>
									<channellabel>left</channellabel>
								</audiochannel>
								<audiochannel>
									<sourcechannel>2</sourcechannel>
									<channellabel>right</channellabel>
								</audiochannel>
							</audio>
						</media>
					</file>
					<sourcetrack>
						<mediatype>video</mediatype>
					</sourcetrack>
					<fielddominance>none</fielddominance>
					<itemhistory>
						<uuid>8CDB0176-809B-41B1-AB0F-659BD8D1FA47</uuid>
						<uuid>7F54FE93-14EB-4E04-8B65-6C11E826619A</uuid>
					</itemhistory>
				</clipitem>
				<clipitem id="JulieHill031Subclipb">
					<name>JulieHill031Subclipb</name>
					<duration>194</duration>
					<rate>
						<ntsc>FALSE</ntsc>
						<timebase>25</timebase>
					</rate>
					<in>0</in>
					<out>193</out>
					<start>95000</start>
					<end>95193</end>
					<pixelaspectratio>Square</pixelaspectratio>
					<anamorphic>FALSE</anamorphic>
					<alphatype>none</alphatype>
					<logginginfo>
						<scene/>
						<shottake/>
						<lognote/>
						<good>FALSE</good>
					</logginginfo>
					<labels>
						<label2/>
					</labels>
					<comments>
						<mastercomment1/>
						<mastercomment2/>
						<mastercomment3/>
						<mastercomment4/>
					</comments>
					<file id="JulieHill031Subclipb1">
						<name>JulieHill031Subclipb</name>
						<pathurl>file://localhost/Volumes/Michael's%20Passport/woodbdrigenov2011media/JulieHill031Subclipb</pathurl>
						<rate>
							<timebase>25</timebase>
						</rate>
						<duration>194</duration>
						<metadata>
							<storage>QuickTime</storage>
							<key>com.apple.finalcutstudio.media.uuid</key>
							<size>36</size>
							<type>UTF8</type>
							<value>7A92E370-2F77-4969-BBB1-3C8FCEA2B3E7</value>
						</metadata>
						<metadata>
							<storage>QuickTime</storage>
							<key>com.apple.finalcutstudio.media.history.uuid</key>
							<size>36</size>
							<type>UTF8</type>
							<value>4C739277-8963-4EB9-B3F4-42B7A92CC228</value>
						</metadata>
						<timecode>
							<rate>
								<timebase>25</timebase>
							</rate>
							<string>00:00:14:06</string>
							<frame>356</frame>
							<displayformat>NDF</displayformat>
							<source>source</source>
							<reel>
								<name>JulieHill</name>
							</reel>
						</timecode>
						<media>
							<video>
								<duration>194</duration>
								<samplecharacteristics>
									<width>1280</width>
									<height>720</height>
								</samplecharacteristics>
							</video>
							<audio>
								<samplecharacteristics>
									<samplerate>48000</samplerate>
									<depth>16</depth>
								</samplecharacteristics>
								<channelcount>2</channelcount>
								<layout>stereo</layout>
								<audiochannel>
									<sourcechannel>1</sourcechannel>
									<channellabel>left</channellabel>
								</audiochannel>
								<audiochannel>
									<sourcechannel>2</sourcechannel>
									<channellabel>right</channellabel>
								</audiochannel>
							</audio>
						</media>
					</file>
					<sourcetrack>
						<mediatype>video</mediatype>
					</sourcetrack>
					<fielddominance>none</fielddominance>
					<itemhistory>
						<uuid>A2CAF9BC-32B3-4904-9CC5-080FF8D7337B</uuid>
						<uuid>8171CE87-8639-42BC-A119-CDB7602E410A</uuid>
					</itemhistory>
				</clipitem>
				<clipitem id="JulieHill031Subclipc">
					<name>JulieHill031Subclipc</name>
					<duration>502</duration>
					<rate>
						<ntsc>FALSE</ntsc>
						<timebase>25</timebase>
					</rate>
					<in>0</in>
					<out>501</out>
					<start>95250</start>
					<end>95751</end>
					<pixelaspectratio>Square</pixelaspectratio>
					<anamorphic>FALSE</anamorphic>
					<alphatype>none</alphatype>
					<logginginfo>
						<scene/>
						<shottake/>
						<lognote/>
						<good>FALSE</good>
					</logginginfo>
					<labels>
						<label2/>
					</labels>
					<comments>
						<mastercomment1/>
						<mastercomment2/>
						<mastercomment3/>
						<mastercomment4/>
					</comments>
					<file id="JulieHill031Subclipc1">
						<name>JulieHill031Subclipc</name>
						<pathurl>file://localhost/Volumes/Michael's%20Passport/woodbdrigenov2011media/JulieHill031Subclipc</pathurl>
						<rate>
							<timebase>25</timebase>
						</rate>
						<duration>502</duration>
						<metadata>
							<storage>QuickTime</storage>
							<key>com.apple.finalcutstudio.media.uuid</key>
							<size>36</size>
							<type>UTF8</type>
							<value>1A45D5FD-DED6-481C-B62D-A2940160683D</value>
						</metadata>
						<metadata>
							<storage>QuickTime</storage>
							<key>com.apple.finalcutstudio.media.history.uuid</key>
							<size>36</size>
							<type>UTF8</type>
							<value>4C739277-8963-4EB9-B3F4-42B7A92CC228</value>
						</metadata>
						<timecode>
							<rate>
								<timebase>25</timebase>
							</rate>
							<string>00:00:24:06</string>
							<frame>606</frame>
							<displayformat>NDF</displayformat>
							<source>source</source>
							<reel>
								<name>JulieHill</name>
							</reel>
						</timecode>
						<media>
							<video>
								<duration>502</duration>
								<samplecharacteristics>
									<width>1280</width>
									<height>720</height>
								</samplecharacteristics>
							</video>
							<audio>
								<samplecharacteristics>
									<samplerate>48000</samplerate>
									<depth>16</depth>
								</samplecharacteristics>
								<channelcount>2</channelcount>
								<layout>stereo</layout>
								<audiochannel>
									<sourcechannel>1</sourcechannel>
									<channellabel>left</channellabel>
								</audiochannel>
								<audiochannel>
									<sourcechannel>2</sourcechannel>
									<channellabel>right</channellabel>
								</audiochannel>
							</audio>
						</media>
					</file>
					<sourcetrack>
						<mediatype>video</mediatype>
					</sourcetrack>
					<fielddominance>none</fielddominance>
					<itemhistory>
						<uuid>38CAB4EA-C2FF-4A94-97B6-C82AEE76F135</uuid>
						<uuid>BC65820E-3DCF-4F6D-AFA7-A4D2FF94A93B</uuid>
					</itemhistory>
				</clipitem>
				<clipitem id="JulieHill031Subclipd">
					<name>JulieHill031Subclipd</name>
					<duration>216</duration>
					<rate>
						<ntsc>FALSE</ntsc>
						<timebase>25</timebase>
					</rate>
					<in>0</in>
					<out>216</out>
					<start>95888</start>
					<end>96104</end>
					<pixelaspectratio>Square</pixelaspectratio>
					<anamorphic>FALSE</anamorphic>
					<alphatype>none</alphatype>
					<logginginfo>
						<scene/>
						<shottake/>
						<lognote/>
						<good>FALSE</good>
					</logginginfo>
					<labels>
						<label2/>
					</labels>
					<comments>
						<mastercomment1/>
						<mastercomment2/>
						<mastercomment3/>
						<mastercomment4/>
					</comments>
					<file id="JulieHill031Subclipd1">
						<name>JulieHill031Subclipd</name>
						<pathurl>file://localhost/Volumes/Michael's%20Passport/woodbdrigenov2011media/JulieHill031Subclipd</pathurl>
						<rate>
							<timebase>25</timebase>
						</rate>
						<duration>216</duration>
						<metadata>
							<storage>QuickTime</storage>
							<key>com.apple.finalcutstudio.media.uuid</key>
							<size>36</size>
							<type>UTF8</type>
							<value>8494AB10-86D8-4181-BF8D-2D20131B3E56</value>
						</metadata>
						<metadata>
							<storage>QuickTime</storage>
							<key>com.apple.finalcutstudio.media.history.uuid</key>
							<size>36</size>
							<type>UTF8</type>
							<value>4C739277-8963-4EB9-B3F4-42B7A92CC228</value>
						</metadata>
						<timecode>
							<rate>
								<timebase>25</timebase>
							</rate>
							<string>00:00:49:20</string>
							<frame>1245</frame>
							<displayformat>NDF</displayformat>
							<source>source</source>
							<reel>
								<name>JulieHill</name>
							</reel>
						</timecode>
						<media>
							<video>
								<duration>216</duration>
								<samplecharacteristics>
									<width>1280</width>
									<height>720</height>
								</samplecharacteristics>
							</video>
							<audio>
								<samplecharacteristics>
									<samplerate>48000</samplerate>
									<depth>16</depth>
								</samplecharacteristics>
								<channelcount>2</channelcount>
								<layout>stereo</layout>
								<audiochannel>
									<sourcechannel>1</sourcechannel>
									<channellabel>left</channellabel>
								</audiochannel>
								<audiochannel>
									<sourcechannel>2</sourcechannel>
									<channellabel>right</channellabel>
								</audiochannel>
							</audio>
						</media>
					</file>
					<sourcetrack>
						<mediatype>video</mediatype>
					</sourcetrack>
					<fielddominance>none</fielddominance>
					<itemhistory>
						<uuid>A1CD0FF0-B9AE-4402-BE87-E708D659D38C</uuid>
						<uuid>4E6FB3FB-D991-4F27-AA8B-D483518D346D</uuid>
					</itemhistory>
				</clipitem>
				<clipitem id="JulieHill031Subclipe">
					<name>JulieHill031Subclipe</name>
					<duration>180</duration>
					<rate>
						<ntsc>FALSE</ntsc>
						<timebase>25</timebase>
					</rate>
					<in>0</in>
					<out>180</out>
					<start>96897</start>
					<end>97077</end>
					<pixelaspectratio>Square</pixelaspectratio>
					<anamorphic>FALSE</anamorphic>
					<alphatype>none</alphatype>
					<logginginfo>
						<scene/>
						<shottake/>
						<lognote/>
						<good>FALSE</good>
					</logginginfo>
					<labels>
						<label2/>
					</labels>
					<comments>
						<mastercomment1/>
						<mastercomment2/>
						<mastercomment3/>
						<mastercomment4/>
					</comments>
					<file id="JulieHill031Subclipe1">
						<name>JulieHill031Subclipe</name>
						<pathurl>file://localhost/Volumes/Michael's%20Passport/woodbdrigenov2011media/JulieHill031Subclipe</pathurl>
						<rate>
							<timebase>25</timebase>
						</rate>
						<duration>180</duration>
						<metadata>
							<storage>QuickTime</storage>
							<key>com.apple.finalcutstudio.media.uuid</key>
							<size>36</size>
							<type>UTF8</type>
							<value>92ACCD3C-3857-4DA0-B42D-45DCC65910D1</value>
						</metadata>
						<metadata>
							<storage>QuickTime</storage>
							<key>com.apple.finalcutstudio.media.history.uuid</key>
							<size>36</size>
							<type>UTF8</type>
							<value>4C739277-8963-4EB9-B3F4-42B7A92CC228</value>
						</metadata>
						<timecode>
							<rate>
								<timebase>25</timebase>
							</rate>
							<string>00:01:30:03</string>
							<frame>2253</frame>
							<displayformat>NDF</displayformat>
							<source>source</source>
							<reel>
								<name>JulieHill</name>
							</reel>
						</timecode>
						<media>
							<video>
								<duration>180</duration>
								<samplecharacteristics>
									<width>1280</width>
									<height>720</height>
								</samplecharacteristics>
							</video>
							<audio>
								<samplecharacteristics>
									<samplerate>48000</samplerate>
									<depth>16</depth>
								</samplecharacteristics>
								<channelcount>2</channelcount>
								<layout>stereo</layout>
								<audiochannel>
									<sourcechannel>1</sourcechannel>
									<channellabel>left</channellabel>
								</audiochannel>
								<audiochannel>
									<sourcechannel>2</sourcechannel>
									<channellabel>right</channellabel>
								</audiochannel>
							</audio>
						</media>
					</file>
					<sourcetrack>
						<mediatype>video</mediatype>
					</sourcetrack>
					<fielddominance>none</fielddominance>
					<itemhistory>
						<uuid>3E4DC0D1-3036-40FA-B8D3-572945B751DB</uuid>
						<uuid>663227B1-5BCA-450D-BCAA-E187FE072C4B</uuid>
					</itemhistory>
				</clipitem>
				<clipitem id="JulieHill031Subclipf">
					<name>JulieHill031Subclipf</name>
					<duration>826</duration>
					<rate>
						<ntsc>FALSE</ntsc>
						<timebase>25</timebase>
					</rate>
					<in>0</in>
					<out>825</out>
					<start>97115</start>
					<end>97940</end>
					<pixelaspectratio>Square</pixelaspectratio>
					<anamorphic>FALSE</anamorphic>
					<alphatype>none</alphatype>
					<logginginfo>
						<scene/>
						<shottake/>
						<lognote/>
						<good>FALSE</good>
					</logginginfo>
					<labels>
						<label2/>
					</labels>
					<comments>
						<mastercomment1/>
						<mastercomment2/>
						<mastercomment3/>
						<mastercomment4/>
					</comments>
					<file id="JulieHill031Subclipf1">
						<name>JulieHill031Subclipf</name>
						<pathurl>file://localhost/Volumes/Michael's%20Passport/woodbdrigenov2011media/JulieHill031Subclipf</pathurl>
						<rate>
							<timebase>25</timebase>
						</rate>
						<duration>826</duration>
						<metadata>
							<storage>QuickTime</storage>
							<key>com.apple.finalcutstudio.media.uuid</key>
							<size>36</size>
							<type>UTF8</type>
							<value>523269A5-CEDD-4C49-924D-D4F85B06228A</value>
						</metadata>
						<metadata>
							<storage>QuickTime</storage>
							<key>com.apple.finalcutstudio.media.history.uuid</key>
							<size>36</size>
							<type>UTF8</type>
							<value>4C739277-8963-4EB9-B3F4-42B7A92CC228</value>
						</metadata>
						<timecode>
							<rate>
								<timebase>25</timebase>
							</rate>
							<string>00:01:38:21</string>
							<frame>2471</frame>
							<displayformat>NDF</displayformat>
							<source>source</source>
							<reel>
								<name>JulieHill</name>
							</reel>
						</timecode>
						<media>
							<video>
								<duration>826</duration>
								<samplecharacteristics>
									<width>1280</width>
									<height>720</height>
								</samplecharacteristics>
							</video>
							<audio>
								<samplecharacteristics>
									<samplerate>48000</samplerate>
									<depth>16</depth>
								</samplecharacteristics>
								<channelcount>2</channelcount>
								<layout>stereo</layout>
								<audiochannel>
									<sourcechannel>1</sourcechannel>
									<channellabel>left</channellabel>
								</audiochannel>
								<audiochannel>
									<sourcechannel>2</sourcechannel>
									<channellabel>right</channellabel>
								</audiochannel>
							</audio>
						</media>
					</file>
					<sourcetrack>
						<mediatype>video</mediatype>
					</sourcetrack>
					<fielddominance>none</fielddominance>
					<itemhistory>
						<uuid>4C1E5C45-3C56-475C-AFD6-D685D65439EA</uuid>
						<uuid>811F2852-E4FF-4767-9441-44F4B9BF15B6</uuid>
					</itemhistory>
				</clipitem>
				<clipitem id="JulieHill031Subclipg">
					<name>JulieHill031Subclipg</name>
					<duration>296</duration>
					<rate>
						<ntsc>FALSE</ntsc>
						<timebase>25</timebase>
					</rate>
					<in>0</in>
					<out>295</out>
					<start>98284</start>
					<end>98579</end>
					<pixelaspectratio>Square</pixelaspectratio>
					<anamorphic>FALSE</anamorphic>
					<alphatype>none</alphatype>
					<logginginfo>
						<scene/>
						<shottake/>
						<lognote/>
						<good>FALSE</good>
					</logginginfo>
					<labels>
						<label2/>
					</labels>
					<comments>
						<mastercomment1/>
						<mastercomment2/>
						<mastercomment3/>
						<mastercomment4/>
					</comments>
					<file id="JulieHill031Subclipg1">
						<name>JulieHill031Subclipg</name>
						<pathurl>file://localhost/Volumes/Michael's%20Passport/woodbdrigenov2011media/JulieHill031Subclipg</pathurl>
						<rate>
							<timebase>25</timebase>
						</rate>
						<duration>296</duration>
						<metadata>
							<storage>QuickTime</storage>
							<key>com.apple.finalcutstudio.media.uuid</key>
							<size>36</size>
							<type>UTF8</type>
							<value>996E7C6D-4BD6-45BB-9977-3BE715888C0D</value>
						</metadata>
						<metadata>
							<storage>QuickTime</storage>
							<key>com.apple.finalcutstudio.media.history.uuid</key>
							<size>36</size>
							<type>UTF8</type>
							<value>4C739277-8963-4EB9-B3F4-42B7A92CC228</value>
						</metadata>
						<timecode>
							<rate>
								<timebase>25</timebase>
							</rate>
							<string>00:02:25:16</string>
							<frame>3641</frame>
							<displayformat>NDF</displayformat>
							<source>source</source>
							<reel>
								<name>JulieHill</name>
							</reel>
						</timecode>
						<media>
							<video>
								<duration>296</duration>
								<samplecharacteristics>
									<width>1280</width>
									<height>720</height>
								</samplecharacteristics>
							</video>
							<audio>
								<samplecharacteristics>
									<samplerate>48000</samplerate>
									<depth>16</depth>
								</samplecharacteristics>
								<channelcount>2</channelcount>
								<layout>stereo</layout>
								<audiochannel>
									<sourcechannel>1</sourcechannel>
									<channellabel>left</channellabel>
								</audiochannel>
								<audiochannel>
									<sourcechannel>2</sourcechannel>
									<channellabel>right</channellabel>
								</audiochannel>
							</audio>
						</media>
					</file>
					<sourcetrack>
						<mediatype>video</mediatype>
					</sourcetrack>
					<fielddominance>none</fielddominance>
					<itemhistory>
						<uuid>1EA0BC44-69F9-4900-983C-B5DFC7F1A090</uuid>
						<uuid>AD89C4C7-8E7B-4FB3-BF20-845B65E67246</uuid>
					</itemhistory>
				</clipitem>
				<clipitem id="JulieHill032Subclipa">
					<name>JulieHill032Subclipa</name>
					<duration>574</duration>
					<rate>
						<ntsc>FALSE</ntsc>
						<timebase>25</timebase>
					</rate>
					<in>0</in>
					<out>573</out>
					<start>100715</start>
					<end>101288</end>
					<pixelaspectratio>Square</pixelaspectratio>
					<anamorphic>FALSE</anamorphic>
					<alphatype>none</alphatype>
					<logginginfo>
						<scene/>
						<shottake/>
						<lognote/>
						<good>FALSE</good>
					</logginginfo>
					<labels>
						<label2/>
					</labels>
					<comments>
						<mastercomment1/>
						<mastercomment2/>
						<mastercomment3/>
						<mastercomment4/>
					</comments>
					<file id="JulieHill032Subclipa1">
						<name>JulieHill032Subclipa</name>
						<pathurl>file://localhost/Volumes/Michael's%20Passport/woodbdrigenov2011media/JulieHill032Subclipa</pathurl>
						<rate>
							<timebase>25</timebase>
						</rate>
						<duration>574</duration>
						<metadata>
							<storage>QuickTime</storage>
							<key>com.apple.finalcutstudio.media.uuid</key>
							<size>36</size>
							<type>UTF8</type>
							<value>8A244F8D-D951-422B-A320-6FF2957D339A</value>
						</metadata>
						<metadata>
							<storage>QuickTime</storage>
							<key>com.apple.finalcutstudio.media.history.uuid</key>
							<size>36</size>
							<type>UTF8</type>
							<value>2EC42C2F-A6AF-49F7-BC44-B766259B7CEF</value>
						</metadata>
						<timecode>
							<rate>
								<timebase>25</timebase>
							</rate>
							<string>00:00:07:23</string>
							<frame>198</frame>
							<displayformat>NDF</displayformat>
							<source>source</source>
							<reel>
								<name>JulieHill</name>
							</reel>
						</timecode>
						<media>
							<video>
								<duration>574</duration>
								<samplecharacteristics>
									<width>1280</width>
									<height>720</height>
								</samplecharacteristics>
							</video>
							<audio>
								<samplecharacteristics>
									<samplerate>48000</samplerate>
									<depth>16</depth>
								</samplecharacteristics>
								<channelcount>2</channelcount>
								<layout>stereo</layout>
								<audiochannel>
									<sourcechannel>1</sourcechannel>
									<channellabel>left</channellabel>
								</audiochannel>
								<audiochannel>
									<sourcechannel>2</sourcechannel>
									<channellabel>right</channellabel>
								</audiochannel>
							</audio>
						</media>
					</file>
					<sourcetrack>
						<mediatype>video</mediatype>
					</sourcetrack>
					<fielddominance>none</fielddominance>
					<itemhistory>
						<uuid>E74E5438-BEF7-49B6-B032-CB8F09E15B35</uuid>
						<uuid>F6069978-0C04-49D2-BA3E-A1B87E4CF23C</uuid>
					</itemhistory>
				</clipitem>
				<clipitem id="JulieHill032Subclipb">
					<name>JulieHill032Subclipb</name>
					<duration>949</duration>
					<rate>
						<ntsc>FALSE</ntsc>
						<timebase>25</timebase>
					</rate>
					<in>0</in>
					<out>948</out>
					<start>101500</start>
					<end>102448</end>
					<pixelaspectratio>Square</pixelaspectratio>
					<anamorphic>FALSE</anamorphic>
					<alphatype>none</alphatype>
					<logginginfo>
						<scene/>
						<shottake/>
						<lognote/>
						<good>FALSE</good>
					</logginginfo>
					<labels>
						<label2/>
					</labels>
					<comments>
						<mastercomment1/>
						<mastercomment2/>
						<mastercomment3/>
						<mastercomment4/>
					</comments>
					<file id="JulieHill032Subclipb1">
						<name>JulieHill032Subclipb</name>
						<pathurl>file://localhost/Volumes/Michael's%20Passport/woodbdrigenov2011media/JulieHill032Subclipb</pathurl>
						<rate>
							<timebase>25</timebase>
						</rate>
						<duration>949</duration>
						<metadata>
							<storage>QuickTime</storage>
							<key>com.apple.finalcutstudio.media.uuid</key>
							<size>36</size>
							<type>UTF8</type>
							<value>E71860D3-9147-4DEE-BF76-DD1E8E5C359E</value>
						</metadata>
						<metadata>
							<storage>QuickTime</storage>
							<key>com.apple.finalcutstudio.media.history.uuid</key>
							<size>36</size>
							<type>UTF8</type>
							<value>2EC42C2F-A6AF-49F7-BC44-B766259B7CEF</value>
						</metadata>
						<timecode>
							<rate>
								<timebase>25</timebase>
							</rate>
							<string>00:00:39:08</string>
							<frame>983</frame>
							<displayformat>NDF</displayformat>
							<source>source</source>
							<reel>
								<name>JulieHill</name>
							</reel>
						</timecode>
						<media>
							<video>
								<duration>949</duration>
								<samplecharacteristics>
									<width>1280</width>
									<height>720</height>
								</samplecharacteristics>
							</video>
							<audio>
								<samplecharacteristics>
									<samplerate>48000</samplerate>
									<depth>16</depth>
								</samplecharacteristics>
								<channelcount>2</channelcount>
								<layout>stereo</layout>
								<audiochannel>
									<sourcechannel>1</sourcechannel>
									<channellabel>left</channellabel>
								</audiochannel>
								<audiochannel>
									<sourcechannel>2</sourcechannel>
									<channellabel>right</channellabel>
								</audiochannel>
							</audio>
						</media>
					</file>
					<sourcetrack>
						<mediatype>video</mediatype>
					</sourcetrack>
					<fielddominance>none</fielddominance>
					<itemhistory>
						<uuid>89CE3C2A-3CE3-46DB-8CED-23B42227E28E</uuid>
						<uuid>D59EA270-2AA6-430D-A40D-41A6BCD66692</uuid>
					</itemhistory>
				</clipitem>
				<clipitem id="JulieHill033Subclipa">
					<name>JulieHill033Subclipa</name>
					<duration>567</duration>
					<rate>
						<ntsc>FALSE</ntsc>
						<timebase>25</timebase>
					</rate>
					<in>0</in>
					<out>566</out>
					<start>107983</start>
					<end>108549</end>
					<pixelaspectratio>Square</pixelaspectratio>
					<anamorphic>FALSE</anamorphic>
					<alphatype>none</alphatype>
					<logginginfo>
						<scene/>
						<shottake/>
						<lognote/>
						<good>FALSE</good>
					</logginginfo>
					<labels>
						<label2/>
					</labels>
					<comments>
						<mastercomment1/>
						<mastercomment2/>
						<mastercomment3/>
						<mastercomment4/>
					</comments>
					<file id="JulieHill033Subclipa1">
						<name>JulieHill033Subclipa</name>
						<pathurl>file://localhost/Volumes/Michael's%20Passport/woodbdrigenov2011media/JulieHill033Subclipa</pathurl>
						<rate>
							<timebase>25</timebase>
						</rate>
						<duration>567</duration>
						<metadata>
							<storage>QuickTime</storage>
							<key>com.apple.finalcutstudio.media.uuid</key>
							<size>36</size>
							<type>UTF8</type>
							<value>5AE88710-2579-4AF6-81DC-0007DE66042A</value>
						</metadata>
						<metadata>
							<storage>QuickTime</storage>
							<key>com.apple.finalcutstudio.media.history.uuid</key>
							<size>36</size>
							<type>UTF8</type>
							<value>7CA5A360-FBC5-45D5-A6EF-C0778D4C5CCD</value>
						</metadata>
						<timecode>
							<rate>
								<timebase>25</timebase>
							</rate>
							<string>00:00:17:09</string>
							<frame>434</frame>
							<displayformat>NDF</displayformat>
							<source>source</source>
							<reel>
								<name>JulieHill</name>
							</reel>
						</timecode>
						<media>
							<video>
								<duration>567</duration>
								<samplecharacteristics>
									<width>1280</width>
									<height>720</height>
								</samplecharacteristics>
							</video>
							<audio>
								<samplecharacteristics>
									<samplerate>48000</samplerate>
									<depth>16</depth>
								</samplecharacteristics>
								<channelcount>2</channelcount>
								<layout>stereo</layout>
								<audiochannel>
									<sourcechannel>1</sourcechannel>
									<channellabel>left</channellabel>
								</audiochannel>
								<audiochannel>
									<sourcechannel>2</sourcechannel>
									<channellabel>right</channellabel>
								</audiochannel>
							</audio>
						</media>
					</file>
					<sourcetrack>
						<mediatype>video</mediatype>
					</sourcetrack>
					<fielddominance>none</fielddominance>
					<itemhistory>
						<uuid>FA3B4B90-E375-4226-8F2C-A67F7E2E7F9F</uuid>
						<uuid>3D8DC97B-3C46-4BE8-A089-BD24198A729A</uuid>
					</itemhistory>
				</clipitem>
				<clipitem id="JulieHill033Subclipb">
					<name>JulieHill033Subclipb</name>
					<duration>711</duration>
					<rate>
						<ntsc>FALSE</ntsc>
						<timebase>25</timebase>
					</rate>
					<in>0</in>
					<out>710</out>
					<start>109412</start>
					<end>110122</end>
					<pixelaspectratio>Square</pixelaspectratio>
					<anamorphic>FALSE</anamorphic>
					<alphatype>none</alphatype>
					<logginginfo>
						<scene/>
						<shottake/>
						<lognote/>
						<good>FALSE</good>
					</logginginfo>
					<labels>
						<label2/>
					</labels>
					<comments>
						<mastercomment1/>
						<mastercomment2/>
						<mastercomment3/>
						<mastercomment4/>
					</comments>
					<file id="JulieHill033Subclipb1">
						<name>JulieHill033Subclipb</name>
						<pathurl>file://localhost/Volumes/Michael's%20Passport/woodbdrigenov2011media/JulieHill033Subclipb</pathurl>
						<rate>
							<timebase>25</timebase>
						</rate>
						<duration>711</duration>
						<metadata>
							<storage>QuickTime</storage>
							<key>com.apple.finalcutstudio.media.uuid</key>
							<size>36</size>
							<type>UTF8</type>
							<value>8CDE2464-6344-41C9-AAD8-647447E410B8</value>
						</metadata>
						<metadata>
							<storage>QuickTime</storage>
							<key>com.apple.finalcutstudio.media.history.uuid</key>
							<size>36</size>
							<type>UTF8</type>
							<value>7CA5A360-FBC5-45D5-A6EF-C0778D4C5CCD</value>
						</metadata>
						<timecode>
							<rate>
								<timebase>25</timebase>
							</rate>
							<string>00:01:14:14</string>
							<frame>1864</frame>
							<displayformat>NDF</displayformat>
							<source>source</source>
							<reel>
								<name>JulieHill</name>
							</reel>
						</timecode>
						<media>
							<video>
								<duration>711</duration>
								<samplecharacteristics>
									<width>1280</width>
									<height>720</height>
								</samplecharacteristics>
							</video>
							<audio>
								<samplecharacteristics>
									<samplerate>48000</samplerate>
									<depth>16</depth>
								</samplecharacteristics>
								<channelcount>2</channelcount>
								<layout>stereo</layout>
								<audiochannel>
									<sourcechannel>1</sourcechannel>
									<channellabel>left</channellabel>
								</audiochannel>
								<audiochannel>
									<sourcechannel>2</sourcechannel>
									<channellabel>right</channellabel>
								</audiochannel>
							</audio>
						</media>
					</file>
					<sourcetrack>
						<mediatype>video</mediatype>
					</sourcetrack>
					<fielddominance>none</fielddominance>
					<itemhistory>
						<uuid>6DC74833-5787-44FA-92DA-EAD68D63F1B0</uuid>
						<uuid>EFD3F298-1285-4A62-B15F-C9BB38DBDEFC</uuid>
					</itemhistory>
				</clipitem>
				<clipitem id="JulieHill033Subclipc">
					<name>JulieHill033Subclipc</name>
					<duration>508</duration>
					<rate>
						<ntsc>FALSE</ntsc>
						<timebase>25</timebase>
					</rate>
					<in>0</in>
					<out>508</out>
					<start>110219</start>
					<end>110727</end>
					<pixelaspectratio>Square</pixelaspectratio>
					<anamorphic>FALSE</anamorphic>
					<alphatype>none</alphatype>
					<logginginfo>
						<scene/>
						<shottake/>
						<lognote/>
						<good>FALSE</good>
					</logginginfo>
					<labels>
						<label2/>
					</labels>
					<comments>
						<mastercomment1/>
						<mastercomment2/>
						<mastercomment3/>
						<mastercomment4/>
					</comments>
					<file id="JulieHill033Subclipc1">
						<name>JulieHill033Subclipc</name>
						<pathurl>file://localhost/Volumes/Michael's%20Passport/woodbdrigenov2011media/JulieHill033Subclipc</pathurl>
						<rate>
							<timebase>25</timebase>
						</rate>
						<duration>508</duration>
						<metadata>
							<storage>QuickTime</storage>
							<key>com.apple.finalcutstudio.media.uuid</key>
							<size>36</size>
							<type>UTF8</type>
							<value>ADA9EA09-A4DA-4EA4-8208-D778D1B25EFA</value>
						</metadata>
						<metadata>
							<storage>QuickTime</storage>
							<key>com.apple.finalcutstudio.media.history.uuid</key>
							<size>36</size>
							<type>UTF8</type>
							<value>7CA5A360-FBC5-45D5-A6EF-C0778D4C5CCD</value>
						</metadata>
						<timecode>
							<rate>
								<timebase>25</timebase>
							</rate>
							<string>00:01:46:22</string>
							<frame>2672</frame>
							<displayformat>NDF</displayformat>
							<source>source</source>
							<reel>
								<name>JulieHill</name>
							</reel>
						</timecode>
						<media>
							<video>
								<duration>508</duration>
								<samplecharacteristics>
									<width>1280</width>
									<height>720</height>
								</samplecharacteristics>
							</video>
							<audio>
								<samplecharacteristics>
									<samplerate>48000</samplerate>
									<depth>16</depth>
								</samplecharacteristics>
								<channelcount>2</channelcount>
								<layout>stereo</layout>
								<audiochannel>
									<sourcechannel>1</sourcechannel>
									<channellabel>left</channellabel>
								</audiochannel>
								<audiochannel>
									<sourcechannel>2</sourcechannel>
									<channellabel>right</channellabel>
								</audiochannel>
							</audio>
						</media>
					</file>
					<sourcetrack>
						<mediatype>video</mediatype>
					</sourcetrack>
					<fielddominance>none</fielddominance>
					<itemhistory>
						<uuid>A16C2FC8-8A69-4FD4-9EFA-059C3F18A3AF</uuid>
						<uuid>06EC5B1D-320F-40F4-BB8C-7EB4D744E113</uuid>
					</itemhistory>
				</clipitem>
				<clipitem id="JulieHill035Subclipa">
					<name>JulieHill035Subclipa</name>
					<duration>312</duration>
					<rate>
						<ntsc>FALSE</ntsc>
						<timebase>25</timebase>
					</rate>
					<in>0</in>
					<out>311</out>
					<start>112574</start>
					<end>112885</end>
					<pixelaspectratio>Square</pixelaspectratio>
					<anamorphic>FALSE</anamorphic>
					<alphatype>none</alphatype>
					<logginginfo>
						<scene/>
						<shottake/>
						<lognote/>
						<good>FALSE</good>
					</logginginfo>
					<labels>
						<label2/>
					</labels>
					<comments>
						<mastercomment1/>
						<mastercomment2/>
						<mastercomment3/>
						<mastercomment4/>
					</comments>
					<file id="JulieHill035Subclipa1">
						<name>JulieHill035Subclipa</name>
						<pathurl>file://localhost/Volumes/Michael's%20Passport/woodbdrigenov2011media/JulieHill035Subclipa</pathurl>
						<rate>
							<timebase>25</timebase>
						</rate>
						<duration>312</duration>
						<metadata>
							<storage>QuickTime</storage>
							<key>com.apple.finalcutstudio.media.uuid</key>
							<size>36</size>
							<type>UTF8</type>
							<value>C723819C-1F20-4E9D-B4D3-ADAB5C75AE09</value>
						</metadata>
						<metadata>
							<storage>QuickTime</storage>
							<key>com.apple.finalcutstudio.media.history.uuid</key>
							<size>36</size>
							<type>UTF8</type>
							<value>98536334-A3B6-4A17-8081-3DE799134CEF</value>
						</metadata>
						<timecode>
							<rate>
								<timebase>25</timebase>
							</rate>
							<string>00:00:10:22</string>
							<frame>272</frame>
							<displayformat>NDF</displayformat>
							<source>source</source>
							<reel>
								<name>JulieHill</name>
							</reel>
						</timecode>
						<media>
							<video>
								<duration>312</duration>
								<samplecharacteristics>
									<width>1280</width>
									<height>720</height>
								</samplecharacteristics>
							</video>
							<audio>
								<samplecharacteristics>
									<samplerate>48000</samplerate>
									<depth>16</depth>
								</samplecharacteristics>
								<channelcount>2</channelcount>
								<layout>stereo</layout>
								<audiochannel>
									<sourcechannel>1</sourcechannel>
									<channellabel>left</channellabel>
								</audiochannel>
								<audiochannel>
									<sourcechannel>2</sourcechannel>
									<channellabel>right</channellabel>
								</audiochannel>
							</audio>
						</media>
					</file>
					<sourcetrack>
						<mediatype>video</mediatype>
					</sourcetrack>
					<fielddominance>none</fielddominance>
					<itemhistory>
						<uuid>9AFA09F5-46CF-4E1B-8EA5-5C8B71CBF248</uuid>
						<uuid>5B6F009B-B4C9-473F-87B0-57ED22526E03</uuid>
					</itemhistory>
				</clipitem>
				<clipitem id="JulieHill035Subclipb">
					<name>JulieHill035Subclipb</name>
					<duration>161</duration>
					<rate>
						<ntsc>FALSE</ntsc>
						<timebase>25</timebase>
					</rate>
					<in>0</in>
					<out>160</out>
					<start>113065</start>
					<end>113225</end>
					<pixelaspectratio>Square</pixelaspectratio>
					<anamorphic>FALSE</anamorphic>
					<alphatype>none</alphatype>
					<logginginfo>
						<scene/>
						<shottake/>
						<lognote/>
						<good>FALSE</good>
					</logginginfo>
					<labels>
						<label2/>
					</labels>
					<comments>
						<mastercomment1/>
						<mastercomment2/>
						<mastercomment3/>
						<mastercomment4/>
					</comments>
					<file id="JulieHill035Subclipb1">
						<name>JulieHill035Subclipb</name>
						<pathurl>file://localhost/Volumes/Michael's%20Passport/woodbdrigenov2011media/JulieHill035Subclipb</pathurl>
						<rate>
							<timebase>25</timebase>
						</rate>
						<duration>161</duration>
						<metadata>
							<storage>QuickTime</storage>
							<key>com.apple.finalcutstudio.media.uuid</key>
							<size>36</size>
							<type>UTF8</type>
							<value>A12EF84B-64C9-4AEA-B516-51C7EC6816D1</value>
						</metadata>
						<metadata>
							<storage>QuickTime</storage>
							<key>com.apple.finalcutstudio.media.history.uuid</key>
							<size>36</size>
							<type>UTF8</type>
							<value>98536334-A3B6-4A17-8081-3DE799134CEF</value>
						</metadata>
						<timecode>
							<rate>
								<timebase>25</timebase>
							</rate>
							<string>00:00:30:12</string>
							<frame>762</frame>
							<displayformat>NDF</displayformat>
							<source>source</source>
							<reel>
								<name>JulieHill</name>
							</reel>
						</timecode>
						<media>
							<video>
								<duration>161</duration>
								<samplecharacteristics>
									<width>1280</width>
									<height>720</height>
								</samplecharacteristics>
							</video>
							<audio>
								<samplecharacteristics>
									<samplerate>48000</samplerate>
									<depth>16</depth>
								</samplecharacteristics>
								<channelcount>2</channelcount>
								<layout>stereo</layout>
								<audiochannel>
									<sourcechannel>1</sourcechannel>
									<channellabel>left</channellabel>
								</audiochannel>
								<audiochannel>
									<sourcechannel>2</sourcechannel>
									<channellabel>right</channellabel>
								</audiochannel>
							</audio>
						</media>
					</file>
					<sourcetrack>
						<mediatype>video</mediatype>
					</sourcetrack>
					<fielddominance>none</fielddominance>
					<itemhistory>
						<uuid>B70C053B-EAE6-40FB-B224-E640492A14E1</uuid>
						<uuid>EDBF68D7-C17D-4DDE-9AFC-70CDE10E3EC8</uuid>
					</itemhistory>
				</clipitem>
				<clipitem id="JulieHill035Subclipc">
					<name>JulieHill035Subclipc</name>
					<duration>365</duration>
					<rate>
						<ntsc>FALSE</ntsc>
						<timebase>25</timebase>
					</rate>
					<in>0</in>
					<out>364</out>
					<start>113377</start>
					<end>113741</end>
					<pixelaspectratio>Square</pixelaspectratio>
					<anamorphic>FALSE</anamorphic>
					<alphatype>none</alphatype>
					<logginginfo>
						<scene/>
						<shottake/>
						<lognote/>
						<good>FALSE</good>
					</logginginfo>
					<labels>
						<label2/>
					</labels>
					<comments>
						<mastercomment1/>
						<mastercomment2/>
						<mastercomment3/>
						<mastercomment4/>
					</comments>
					<file id="JulieHill035Subclipc1">
						<name>JulieHill035Subclipc</name>
						<pathurl>file://localhost/Volumes/Michael's%20Passport/woodbdrigenov2011media/JulieHill035Subclipc</pathurl>
						<rate>
							<timebase>25</timebase>
						</rate>
						<duration>365</duration>
						<metadata>
							<storage>QuickTime</storage>
							<key>com.apple.finalcutstudio.media.uuid</key>
							<size>36</size>
							<type>UTF8</type>
							<value>431CCA88-0B13-47D1-85C7-44087522D28A</value>
						</metadata>
						<metadata>
							<storage>QuickTime</storage>
							<key>com.apple.finalcutstudio.media.history.uuid</key>
							<size>36</size>
							<type>UTF8</type>
							<value>98536334-A3B6-4A17-8081-3DE799134CEF</value>
						</metadata>
						<timecode>
							<rate>
								<timebase>25</timebase>
							</rate>
							<string>00:00:43:00</string>
							<frame>1075</frame>
							<displayformat>NDF</displayformat>
							<source>source</source>
							<reel>
								<name>JulieHill</name>
							</reel>
						</timecode>
						<media>
							<video>
								<duration>365</duration>
								<samplecharacteristics>
									<width>1280</width>
									<height>720</height>
								</samplecharacteristics>
							</video>
							<audio>
								<samplecharacteristics>
									<samplerate>48000</samplerate>
									<depth>16</depth>
								</samplecharacteristics>
								<channelcount>2</channelcount>
								<layout>stereo</layout>
								<audiochannel>
									<sourcechannel>1</sourcechannel>
									<channellabel>left</channellabel>
								</audiochannel>
								<audiochannel>
									<sourcechannel>2</sourcechannel>
									<channellabel>right</channellabel>
								</audiochannel>
							</audio>
						</media>
					</file>
					<sourcetrack>
						<mediatype>video</mediatype>
					</sourcetrack>
					<fielddominance>none</fielddominance>
					<itemhistory>
						<uuid>E8559022-DBEA-48D5-BBD2-FA7011627B44</uuid>
						<uuid>0595EF9B-8061-44D2-BEED-6EE861CEDCE6</uuid>
					</itemhistory>
				</clipitem>
				<clipitem id="JulieHill036 ">
					<name>JulieHill036</name>
					<duration>1077</duration>
					<rate>
						<ntsc>FALSE</ntsc>
						<timebase>25</timebase>
					</rate>
					<in>0</in>
					<out>1077</out>
					<start>116727</start>
					<end>117804</end>
					<pixelaspectratio>Square</pixelaspectratio>
					<anamorphic>FALSE</anamorphic>
					<alphatype>none</alphatype>
					<logginginfo>
						<scene/>
						<shottake/>
						<lognote/>
						<good>FALSE</good>
					</logginginfo>
					<labels>
						<label2/>
					</labels>
					<comments>
						<mastercomment1/>
						<mastercomment2/>
						<mastercomment3/>
						<mastercomment4/>
					</comments>
					<file id="JulieHill036 1">
						<name>JulieHill036</name>
						<pathurl>file://localhost/Volumes/Michael's%20Passport/woodbdrigenov2011media/JulieHill036</pathurl>
						<rate>
							<timebase>25</timebase>
						</rate>
						<duration>1077</duration>
						<metadata>
							<storage>QuickTime</storage>
							<key>com.apple.finalcutstudio.media.uuid</key>
							<size>36</size>
							<type>UTF8</type>
							<value>CB9305FB-7186-49DD-9E22-F456DE8DB16A</value>
						</metadata>
						<metadata>
							<storage>QuickTime</storage>
							<key>com.apple.finalcutstudio.media.history.uuid</key>
							<size>36</size>
							<type>UTF8</type>
							<value>8A5E4DCB-3234-4467-BCB8-41D96F640968</value>
						</metadata>
						<timecode>
							<rate>
								<timebase>25</timebase>
							</rate>
							<string>00:00:16:10</string>
							<frame>410</frame>
							<displayformat>NDF</displayformat>
							<source>source</source>
							<reel>
								<name>JulieHill</name>
							</reel>
						</timecode>
						<media>
							<video>
								<duration>1077</duration>
								<samplecharacteristics>
									<width>1280</width>
									<height>720</height>
								</samplecharacteristics>
							</video>
							<audio>
								<samplecharacteristics>
									<samplerate>48000</samplerate>
									<depth>16</depth>
								</samplecharacteristics>
								<channelcount>2</channelcount>
								<layout>stereo</layout>
								<audiochannel>
									<sourcechannel>1</sourcechannel>
									<channellabel>left</channellabel>
								</audiochannel>
								<audiochannel>
									<sourcechannel>2</sourcechannel>
									<channellabel>right</channellabel>
								</audiochannel>
							</audio>
						</media>
					</file>
					<sourcetrack>
						<mediatype>video</mediatype>
					</sourcetrack>
					<fielddominance>none</fielddominance>
					<itemhistory>
						<uuid>D4AE4237-C06B-4ED4-8FAE-2A339F91A241</uuid>
						<uuid>AB9575A2-A791-49B3-818A-56AC3666350C</uuid>
					</itemhistory>
				</clipitem>
				<clipitem id="JulieHill037Subclipa">
					<name>JulieHill037Subclipa</name>
					<duration>350</duration>
					<rate>
						<ntsc>FALSE</ntsc>
						<timebase>25</timebase>
					</rate>
					<in>0</in>
					<out>349</out>
					<start>118844</start>
					<end>119193</end>
					<pixelaspectratio>Square</pixelaspectratio>
					<anamorphic>FALSE</anamorphic>
					<alphatype>none</alphatype>
					<logginginfo>
						<scene/>
						<shottake/>
						<lognote/>
						<good>FALSE</good>
					</logginginfo>
					<labels>
						<label2/>
					</labels>
					<comments>
						<mastercomment1/>
						<mastercomment2/>
						<mastercomment3/>
						<mastercomment4/>
					</comments>
					<file id="JulieHill037Subclipa1">
						<name>JulieHill037Subclipa</name>
						<pathurl>file://localhost/Volumes/Michael's%20Passport/woodbdrigenov2011media/JulieHill037Subclipa</pathurl>
						<rate>
							<timebase>25</timebase>
						</rate>
						<duration>350</duration>
						<metadata>
							<storage>QuickTime</storage>
							<key>com.apple.finalcutstudio.media.uuid</key>
							<size>36</size>
							<type>UTF8</type>
							<value>B7BB55D7-E840-4586-96EC-8C45BA7F41B1</value>
						</metadata>
						<metadata>
							<storage>QuickTime</storage>
							<key>com.apple.finalcutstudio.media.history.uuid</key>
							<size>36</size>
							<type>UTF8</type>
							<value>C187FD33-23D5-4532-AFFD-78558CF913BA</value>
						</metadata>
						<timecode>
							<rate>
								<timebase>25</timebase>
							</rate>
							<string>00:00:02:15</string>
							<frame>65</frame>
							<displayformat>NDF</displayformat>
							<source>source</source>
							<reel>
								<name>JulieHill</name>
							</reel>
						</timecode>
						<media>
							<video>
								<duration>350</duration>
								<samplecharacteristics>
									<width>1280</width>
									<height>720</height>
								</samplecharacteristics>
							</video>
							<audio>
								<samplecharacteristics>
									<samplerate>48000</samplerate>
									<depth>16</depth>
								</samplecharacteristics>
								<channelcount>2</channelcount>
								<layout>stereo</layout>
								<audiochannel>
									<sourcechannel>1</sourcechannel>
									<channellabel>left</channellabel>
								</audiochannel>
								<audiochannel>
									<sourcechannel>2</sourcechannel>
									<channellabel>right</channellabel>
								</audiochannel>
							</audio>
						</media>
					</file>
					<sourcetrack>
						<mediatype>video</mediatype>
					</sourcetrack>
					<fielddominance>none</fielddominance>
					<itemhistory>
						<uuid>ACE54B4A-78AC-4252-B5DE-47D8B5BBA328</uuid>
						<uuid>77A68D58-DD73-4D62-8763-C260C6D3C2C4</uuid>
					</itemhistory>
				</clipitem>
				<clipitem id="JulieHill037Subclipb">
					<name>JulieHill037Subclipb</name>
					<duration>598</duration>
					<rate>
						<ntsc>FALSE</ntsc>
						<timebase>25</timebase>
					</rate>
					<in>0</in>
					<out>597</out>
					<start>119193</start>
					<end>119790</end>
					<pixelaspectratio>Square</pixelaspectratio>
					<anamorphic>FALSE</anamorphic>
					<alphatype>none</alphatype>
					<logginginfo>
						<scene/>
						<shottake/>
						<lognote/>
						<good>FALSE</good>
					</logginginfo>
					<labels>
						<label2/>
					</labels>
					<comments>
						<mastercomment1/>
						<mastercomment2/>
						<mastercomment3/>
						<mastercomment4/>
					</comments>
					<file id="JulieHill037Subclipb1">
						<name>JulieHill037Subclipb</name>
						<pathurl>file://localhost/Volumes/Michael's%20Passport/woodbdrigenov2011media/JulieHill037Subclipb</pathurl>
						<rate>
							<timebase>25</timebase>
						</rate>
						<duration>598</duration>
						<metadata>
							<storage>QuickTime</storage>
							<key>com.apple.finalcutstudio.media.uuid</key>
							<size>36</size>
							<type>UTF8</type>
							<value>393C91B0-244E-4C13-8946-D135F316F745</value>
						</metadata>
						<metadata>
							<storage>QuickTime</storage>
							<key>com.apple.finalcutstudio.media.history.uuid</key>
							<size>36</size>
							<type>UTF8</type>
							<value>C187FD33-23D5-4532-AFFD-78558CF913BA</value>
						</metadata>
						<timecode>
							<rate>
								<timebase>25</timebase>
							</rate>
							<string>00:00:16:14</string>
							<frame>414</frame>
							<displayformat>NDF</displayformat>
							<source>source</source>
							<reel>
								<name>JulieHill</name>
							</reel>
						</timecode>
						<media>
							<video>
								<duration>598</duration>
								<samplecharacteristics>
									<width>1280</width>
									<height>720</height>
								</samplecharacteristics>
							</video>
							<audio>
								<samplecharacteristics>
									<samplerate>48000</samplerate>
									<depth>16</depth>
								</samplecharacteristics>
								<channelcount>2</channelcount>
								<layout>stereo</layout>
								<audiochannel>
									<sourcechannel>1</sourcechannel>
									<channellabel>left</channellabel>
								</audiochannel>
								<audiochannel>
									<sourcechannel>2</sourcechannel>
									<channellabel>right</channellabel>
								</audiochannel>
							</audio>
						</media>
					</file>
					<sourcetrack>
						<mediatype>video</mediatype>
					</sourcetrack>
					<fielddominance>none</fielddominance>
					<itemhistory>
						<uuid>2B07F947-1A44-444F-BA9B-D4D68CF4D97D</uuid>
						<uuid>FDF94E59-3E26-4FCB-A19C-7C9AC8AFB039</uuid>
					</itemhistory>
				</clipitem>
				<clipitem id="JulieHill037Subclipd">
					<name>JulieHill037Subclipd</name>
					<duration>643</duration>
					<rate>
						<ntsc>FALSE</ntsc>
						<timebase>25</timebase>
					</rate>
					<in>0</in>
					<out>642</out>
					<start>119790</start>
					<end>120432</end>
					<pixelaspectratio>Square</pixelaspectratio>
					<anamorphic>FALSE</anamorphic>
					<alphatype>none</alphatype>
					<logginginfo>
						<scene/>
						<shottake/>
						<lognote/>
						<good>FALSE</good>
					</logginginfo>
					<labels>
						<label2/>
					</labels>
					<comments>
						<mastercomment1/>
						<mastercomment2/>
						<mastercomment3/>
						<mastercomment4/>
					</comments>
					<file id="JulieHill037Subclipd1">
						<name>JulieHill037Subclipd</name>
						<pathurl>file://localhost/Volumes/Michael's%20Passport/woodbdrigenov2011media/JulieHill037Subclipd</pathurl>
						<rate>
							<timebase>25</timebase>
						</rate>
						<duration>643</duration>
						<metadata>
							<storage>QuickTime</storage>
							<key>com.apple.finalcutstudio.media.uuid</key>
							<size>36</size>
							<type>UTF8</type>
							<value>6ACEEF49-A37E-4343-BC6D-388B14F5086F</value>
						</metadata>
						<metadata>
							<storage>QuickTime</storage>
							<key>com.apple.finalcutstudio.media.history.uuid</key>
							<size>36</size>
							<type>UTF8</type>
							<value>C187FD33-23D5-4532-AFFD-78558CF913BA</value>
						</metadata>
						<timecode>
							<rate>
								<timebase>25</timebase>
							</rate>
							<string>00:00:40:11</string>
							<frame>1011</frame>
							<displayformat>NDF</displayformat>
							<source>source</source>
							<reel>
								<name>JulieHill</name>
							</reel>
						</timecode>
						<media>
							<video>
								<duration>643</duration>
								<samplecharacteristics>
									<width>1280</width>
									<height>720</height>
								</samplecharacteristics>
							</video>
							<audio>
								<samplecharacteristics>
									<samplerate>48000</samplerate>
									<depth>16</depth>
								</samplecharacteristics>
								<channelcount>2</channelcount>
								<layout>stereo</layout>
								<audiochannel>
									<sourcechannel>1</sourcechannel>
									<channellabel>left</channellabel>
								</audiochannel>
								<audiochannel>
									<sourcechannel>2</sourcechannel>
									<channellabel>right</channellabel>
								</audiochannel>
							</audio>
						</media>
					</file>
					<sourcetrack>
						<mediatype>video</mediatype>
					</sourcetrack>
					<fielddominance>none</fielddominance>
					<itemhistory>
						<uuid>7594D5CD-1D1F-4EDE-AF57-4043CA5A8DEB</uuid>
						<uuid>02C791A1-4D19-421B-9601-D28EB3AA422C</uuid>
					</itemhistory>
				</clipitem>
				<clipitem id="JulieHill037Subclipe">
					<name>JulieHill037Subclipe</name>
					<duration>339</duration>
					<rate>
						<ntsc>FALSE</ntsc>
						<timebase>25</timebase>
					</rate>
					<in>0</in>
					<out>338</out>
					<start>120432</start>
					<end>120770</end>
					<pixelaspectratio>Square</pixelaspectratio>
					<anamorphic>FALSE</anamorphic>
					<alphatype>none</alphatype>
					<logginginfo>
						<scene/>
						<shottake/>
						<lognote/>
						<good>FALSE</good>
					</logginginfo>
					<labels>
						<label2/>
					</labels>
					<comments>
						<mastercomment1/>
						<mastercomment2/>
						<mastercomment3/>
						<mastercomment4/>
					</comments>
					<file id="JulieHill037Subclipe1">
						<name>JulieHill037Subclipe</name>
						<pathurl>file://localhost/Volumes/Michael's%20Passport/woodbdrigenov2011media/JulieHill037Subclipe</pathurl>
						<rate>
							<timebase>25</timebase>
						</rate>
						<duration>339</duration>
						<metadata>
							<storage>QuickTime</storage>
							<key>com.apple.finalcutstudio.media.uuid</key>
							<size>36</size>
							<type>UTF8</type>
							<value>99C6DC53-3A0D-4250-B81F-09B368067514</value>
						</metadata>
						<metadata>
							<storage>QuickTime</storage>
							<key>com.apple.finalcutstudio.media.history.uuid</key>
							<size>36</size>
							<type>UTF8</type>
							<value>C187FD33-23D5-4532-AFFD-78558CF913BA</value>
						</metadata>
						<timecode>
							<rate>
								<timebase>25</timebase>
							</rate>
							<string>00:01:06:03</string>
							<frame>1653</frame>
							<displayformat>NDF</displayformat>
							<source>source</source>
							<reel>
								<name>JulieHill</name>
							</reel>
						</timecode>
						<media>
							<video>
								<duration>339</duration>
								<samplecharacteristics>
									<width>1280</width>
									<height>720</height>
								</samplecharacteristics>
							</video>
							<audio>
								<samplecharacteristics>
									<samplerate>48000</samplerate>
									<depth>16</depth>
								</samplecharacteristics>
								<channelcount>2</channelcount>
								<layout>stereo</layout>
								<audiochannel>
									<sourcechannel>1</sourcechannel>
									<channellabel>left</channellabel>
								</audiochannel>
								<audiochannel>
									<sourcechannel>2</sourcechannel>
									<channellabel>right</channellabel>
								</audiochannel>
							</audio>
						</media>
					</file>
					<sourcetrack>
						<mediatype>video</mediatype>
					</sourcetrack>
					<fielddominance>none</fielddominance>
					<itemhistory>
						<uuid>15C5C3A2-C126-4565-B074-52DE6DC56EE0</uuid>
						<uuid>473AE420-EBE9-4799-BEDB-E0428BD0B047</uuid>
					</itemhistory>
				</clipitem>
				<clipitem id="JulieHill038 ">
					<name>JulieHill038</name>
					<duration>887</duration>
					<rate>
						<ntsc>FALSE</ntsc>
						<timebase>25</timebase>
					</rate>
					<in>0</in>
					<out>886</out>
					<start>121733</start>
					<end>122619</end>
					<pixelaspectratio>Square</pixelaspectratio>
					<anamorphic>FALSE</anamorphic>
					<alphatype>none</alphatype>
					<logginginfo>
						<scene/>
						<shottake/>
						<lognote/>
						<good>FALSE</good>
					</logginginfo>
					<labels>
						<label2/>
					</labels>
					<comments>
						<mastercomment1/>
						<mastercomment2/>
						<mastercomment3/>
						<mastercomment4/>
					</comments>
					<file id="JulieHill038 1">
						<name>JulieHill038</name>
						<pathurl>file://localhost/Volumes/Michael's%20Passport/woodbdrigenov2011media/JulieHill038</pathurl>
						<rate>
							<timebase>25</timebase>
						</rate>
						<duration>887</duration>
						<metadata>
							<storage>QuickTime</storage>
							<key>com.apple.finalcutstudio.media.uuid</key>
							<size>36</size>
							<type>UTF8</type>
							<value>DE93E9DB-8313-4201-9501-E04C97D194DE</value>
						</metadata>
						<metadata>
							<storage>QuickTime</storage>
							<key>com.apple.finalcutstudio.media.history.uuid</key>
							<size>36</size>
							<type>UTF8</type>
							<value>E7D82AAB-58C2-4949-952C-D1987C5D22A4</value>
						</metadata>
						<timecode>
							<rate>
								<timebase>25</timebase>
							</rate>
							<string>00:00:15:12</string>
							<frame>387</frame>
							<displayformat>NDF</displayformat>
							<source>source</source>
							<reel>
								<name>JulieHill</name>
							</reel>
						</timecode>
						<media>
							<video>
								<duration>887</duration>
								<samplecharacteristics>
									<width>1280</width>
									<height>720</height>
								</samplecharacteristics>
							</video>
							<audio>
								<samplecharacteristics>
									<samplerate>48000</samplerate>
									<depth>16</depth>
								</samplecharacteristics>
								<channelcount>2</channelcount>
								<layout>stereo</layout>
								<audiochannel>
									<sourcechannel>1</sourcechannel>
									<channellabel>left</channellabel>
								</audiochannel>
								<audiochannel>
									<sourcechannel>2</sourcechannel>
									<channellabel>right</channellabel>
								</audiochannel>
							</audio>
						</media>
					</file>
					<sourcetrack>
						<mediatype>video</mediatype>
					</sourcetrack>
					<fielddominance>none</fielddominance>
					<itemhistory>
						<uuid>507C8F29-89BA-4700-8666-3EB1EB7873B9</uuid>
						<uuid>9883974D-149B-44B3-9B7C-6CF65838CF83</uuid>
					</itemhistory>
				</clipitem>
				<clipitem id="JulieHill039 ">
					<name>JulieHill039</name>
					<duration>1752</duration>
					<rate>
						<ntsc>FALSE</ntsc>
						<timebase>25</timebase>
					</rate>
					<in>0</in>
					<out>1752</out>
					<start>123382</start>
					<end>125134</end>
					<pixelaspectratio>Square</pixelaspectratio>
					<anamorphic>FALSE</anamorphic>
					<alphatype>none</alphatype>
					<logginginfo>
						<scene/>
						<shottake/>
						<lognote/>
						<good>FALSE</good>
					</logginginfo>
					<labels>
						<label2/>
					</labels>
					<comments>
						<mastercomment1/>
						<mastercomment2/>
						<mastercomment3/>
						<mastercomment4/>
					</comments>
					<file id="JulieHill039 1">
						<name>JulieHill039</name>
						<pathurl>file://localhost/Volumes/Michael's%20Passport/woodbdrigenov2011media/JulieHill039</pathurl>
						<rate>
							<timebase>25</timebase>
						</rate>
						<duration>1752</duration>
						<metadata>
							<storage>QuickTime</storage>
							<key>com.apple.finalcutstudio.media.uuid</key>
							<size>36</size>
							<type>UTF8</type>
							<value>776AC4E3-7C96-46FA-8B44-9248A973A13B</value>
						</metadata>
						<metadata>
							<storage>QuickTime</storage>
							<key>com.apple.finalcutstudio.media.history.uuid</key>
							<size>36</size>
							<type>UTF8</type>
							<value>3C878543-AF11-4B30-A5FC-0DAFFDBAEBD9</value>
						</metadata>
						<timecode>
							<rate>
								<timebase>25</timebase>
							</rate>
							<string>00:00:00:00</string>
							<frame>0</frame>
							<displayformat>NDF</displayformat>
							<source>source</source>
							<reel>
								<name>JulieHill</name>
							</reel>
						</timecode>
						<media>
							<video>
								<duration>1752</duration>
								<samplecharacteristics>
									<width>1280</width>
									<height>720</height>
								</samplecharacteristics>
							</video>
							<audio>
								<samplecharacteristics>
									<samplerate>48000</samplerate>
									<depth>16</depth>
								</samplecharacteristics>
								<channelcount>2</channelcount>
								<layout>stereo</layout>
								<audiochannel>
									<sourcechannel>1</sourcechannel>
									<channellabel>left</channellabel>
								</audiochannel>
								<audiochannel>
									<sourcechannel>2</sourcechannel>
									<channellabel>right</channellabel>
								</audiochannel>
							</audio>
						</media>
					</file>
					<sourcetrack>
						<mediatype>video</mediatype>
					</sourcetrack>
					<fielddominance>none</fielddominance>
					<itemhistory>
						<uuid>904D9ADD-E355-4534-8DFD-50A99E4C843E</uuid>
						<uuid>EFF805C0-6CF0-4749-B220-27D4D87AA95C</uuid>
					</itemhistory>
				</clipitem>
				<clipitem id="JulieHill040 ">
					<name>JulieHill040</name>
					<duration>3048</duration>
					<rate>
						<ntsc>FALSE</ntsc>
						<timebase>25</timebase>
					</rate>
					<in>0</in>
					<out>3047</out>
					<start>126790</start>
					<end>129837</end>
					<pixelaspectratio>Square</pixelaspectratio>
					<anamorphic>FALSE</anamorphic>
					<alphatype>none</alphatype>
					<logginginfo>
						<scene/>
						<shottake/>
						<lognote/>
						<good>FALSE</good>
					</logginginfo>
					<labels>
						<label2/>
					</labels>
					<comments>
						<mastercomment1/>
						<mastercomment2/>
						<mastercomment3/>
						<mastercomment4/>
					</comments>
					<file id="JulieHill040 1">
						<name>JulieHill040</name>
						<pathurl>file://localhost/Volumes/Michael's%20Passport/woodbdrigenov2011media/JulieHill040</pathurl>
						<rate>
							<timebase>25</timebase>
						</rate>
						<duration>3048</duration>
						<metadata>
							<storage>QuickTime</storage>
							<key>com.apple.finalcutstudio.media.uuid</key>
							<size>36</size>
							<type>UTF8</type>
							<value>6AB12EFF-3B05-478F-8D79-AFDEF672BC43</value>
						</metadata>
						<metadata>
							<storage>QuickTime</storage>
							<key>com.apple.finalcutstudio.media.history.uuid</key>
							<size>36</size>
							<type>UTF8</type>
							<value>6FB9AE17-C364-4CA2-9A21-EB652B71B7CA</value>
						</metadata>
						<timecode>
							<rate>
								<timebase>25</timebase>
							</rate>
							<string>00:00:00:00</string>
							<frame>0</frame>
							<displayformat>NDF</displayformat>
							<source>source</source>
							<reel>
								<name>JulieHill</name>
							</reel>
						</timecode>
						<media>
							<video>
								<duration>3048</duration>
								<samplecharacteristics>
									<width>1280</width>
									<height>720</height>
								</samplecharacteristics>
							</video>
							<audio>
								<samplecharacteristics>
									<samplerate>48000</samplerate>
									<depth>16</depth>
								</samplecharacteristics>
								<channelcount>2</channelcount>
								<layout>stereo</layout>
								<audiochannel>
									<sourcechannel>1</sourcechannel>
									<channellabel>left</channellabel>
								</audiochannel>
								<audiochannel>
									<sourcechannel>2</sourcechannel>
									<channellabel>right</channellabel>
								</audiochannel>
							</audio>
						</media>
					</file>
					<sourcetrack>
						<mediatype>video</mediatype>
					</sourcetrack>
					<fielddominance>none</fielddominance>
					<itemhistory>
						<uuid>D4AEA083-B0B8-4F8C-AEC2-4FDECCC2EBC6</uuid>
						<uuid>97439587-3307-4FC2-8DDA-BF9D6FCD6601</uuid>
					</itemhistory>
				</clipitem>
				<clipitem id="JulieHill041 ">
					<name>JulieHill041</name>
					<duration>660</duration>
					<rate>
						<ntsc>FALSE</ntsc>
						<timebase>25</timebase>
					</rate>
					<in>0</in>
					<out>659</out>
					<start>132338</start>
					<end>132997</end>
					<pixelaspectratio>Square</pixelaspectratio>
					<anamorphic>FALSE</anamorphic>
					<alphatype>none</alphatype>
					<logginginfo>
						<scene/>
						<shottake/>
						<lognote/>
						<good>FALSE</good>
					</logginginfo>
					<labels>
						<label2/>
					</labels>
					<comments>
						<mastercomment1/>
						<mastercomment2/>
						<mastercomment3/>
						<mastercomment4/>
					</comments>
					<file id="JulieHill041 1">
						<name>JulieHill041</name>
						<pathurl>file://localhost/Volumes/Michael's%20Passport/woodbdrigenov2011media/JulieHill041</pathurl>
						<rate>
							<timebase>25</timebase>
						</rate>
						<duration>660</duration>
						<metadata>
							<storage>QuickTime</storage>
							<key>com.apple.finalcutstudio.media.uuid</key>
							<size>36</size>
							<type>UTF8</type>
							<value>9984F6F6-1726-451A-A404-8A4FE4805134</value>
						</metadata>
						<metadata>
							<storage>QuickTime</storage>
							<key>com.apple.finalcutstudio.media.history.uuid</key>
							<size>36</size>
							<type>UTF8</type>
							<value>ED9B0183-2A0D-4BF0-939F-7345ECB3DA48</value>
						</metadata>
						<timecode>
							<rate>
								<timebase>25</timebase>
							</rate>
							<string>00:00:00:00</string>
							<frame>0</frame>
							<displayformat>NDF</displayformat>
							<source>source</source>
							<reel>
								<name>JulieHill</name>
							</reel>
						</timecode>
						<media>
							<video>
								<duration>660</duration>
								<samplecharacteristics>
									<width>1280</width>
									<height>720</height>
								</samplecharacteristics>
							</video>
							<audio>
								<samplecharacteristics>
									<samplerate>48000</samplerate>
									<depth>16</depth>
								</samplecharacteristics>
								<channelcount>2</channelcount>
								<layout>stereo</layout>
								<audiochannel>
									<sourcechannel>1</sourcechannel>
									<channellabel>left</channellabel>
								</audiochannel>
								<audiochannel>
									<sourcechannel>2</sourcechannel>
									<channellabel>right</channellabel>
								</audiochannel>
							</audio>
						</media>
					</file>
					<sourcetrack>
						<mediatype>video</mediatype>
					</sourcetrack>
					<fielddominance>none</fielddominance>
					<itemhistory>
						<uuid>B4F47728-749A-4B76-90B8-4A8D76BABAB9</uuid>
						<uuid>2E6CF31C-9CE0-4C9D-A6DC-32C196E51C19</uuid>
					</itemhistory>
				</clipitem>
				<enabled>TRUE</enabled>
				<locked>FALSE</locked>
			</track>
			<track>
				<clipitem id="MasterSequence">
					<name>MasterSequence</name>
					<duration>120696</duration>
					<rate>
						<ntsc>FALSE</ntsc>
						<timebase>25</timebase>
					</rate>
					<in>0</in>
					<out>120696</out>
					<start>15000</start>
					<end>135696</end>
					<pixelaspectratio>Square</pixelaspectratio>
					<anamorphic>FALSE</anamorphic>
					<alphatype>none</alphatype>
					<logginginfo>
						<scene/>
						<shottake/>
						<lognote/>
						<good>FALSE</good>
					</logginginfo>
					<labels>
						<label2/>
					</labels>
					<comments>
						<mastercomment1/>
						<mastercomment2/>
						<mastercomment3/>
						<mastercomment4/>
					</comments>
					<file id="MasterSequence1">
						<name>MasterSequence.mov</name>
						<pathurl>file://localhost/Volumes/Michael's%20Passport/woodbdrigenov2011media/MasterSequence.mov</pathurl>
						<rate>
							<timebase>25</timebase>
						</rate>
						<duration>120696</duration>
						<metadata>
							<storage>QuickTime</storage>
							<key>com.apple.finalcutstudio.media.uuid</key>
							<size>36</size>
							<type>UTF8</type>
							<value>46C4DB0A-2421-44F8-A476-3F107D23C93F</value>
						</metadata>
						<timecode>
							<rate>
								<timebase>25</timebase>
							</rate>
							<string>01:00:00:00</string>
							<frame>90000</frame>
							<displayformat>NDF</displayformat>
							<source>source</source>
						</timecode>
						<media>
							<video>
								<duration>120696</duration>
								<samplecharacteristics>
									<width>1280</width>
									<height>720</height>
								</samplecharacteristics>
							</video>
							<audio>
								<samplecharacteristics>
									<samplerate>48000</samplerate>
									<depth>16</depth>
								</samplecharacteristics>
								<channelcount>2</channelcount>
							</audio>
						</media>
					</file>
					<sourcetrack>
						<mediatype>video</mediatype>
					</sourcetrack>
					<fielddominance>none</fielddominance>
					<itemhistory>
						<uuid>CC930A92-8B5C-40D7-9AAE-314D387035E8</uuid>
						<uuid>DBC2A372-66EE-436C-926C-397E34C35E07</uuid>
					</itemhistory>
				</clipitem>
				<enabled>TRUE</enabled>
				<locked>FALSE</locked>
			</track>
			<track>
				<clipitem id="OllieNormanDad000 ">
					<name>OllieNormanDad000</name>
					<duration>1284</duration>
					<rate>
						<ntsc>FALSE</ntsc>
						<timebase>25</timebase>
					</rate>
					<in>0</in>
					<out>1284</out>
					<start>0</start>
					<end>1284</end>
					<pixelaspectratio>Square</pixelaspectratio>
					<enabled>TRUE</enabled>
					<anamorphic>FALSE</anamorphic>
					<alphatype>none</alphatype>
					<logginginfo>
						<scene/>
						<shottake/>
						<lognote/>
						<good>FALSE</good>
					</logginginfo>
					<labels>
						<label2/>
					</labels>
					<comments>
						<mastercomment1/>
						<mastercomment2/>
						<mastercomment3/>
						<mastercomment4/>
					</comments>
					<file id="OllieNormanDad000 1">
						<name>OllieNormanDad000</name>
						<pathurl>file://localhost/Volumes/Michael's%20Passport/woodbdrigenov2011media/OllieNormanDad000</pathurl>
						<rate>
							<timebase>25</timebase>
						</rate>
						<duration>1284</duration>
						<metadata>
							<storage>QuickTime</storage>
							<key>com.apple.finalcutstudio.media.uuid</key>
							<size>36</size>
							<type>UTF8</type>
							<value>05A068C6-8072-43BA-895E-6252BADDC4F4</value>
						</metadata>
						<metadata>
							<storage>QuickTime</storage>
							<key>com.apple.finalcutstudio.media.history.uuid</key>
							<size>36</size>
							<type>UTF8</type>
							<value>04528235-000E-4D1D-8F2C-F61D5174D3F9</value>
						</metadata>
						<timecode>
							<rate>
								<timebase>25</timebase>
							</rate>
							<string>00:00:00:00</string>
							<frame>0</frame>
							<displayformat>NDF</displayformat>
							<source>source</source>
							<reel>
								<name>Olliver Norman (dad)</name>
							</reel>
						</timecode>
						<media>
							<video>
								<duration>1284</duration>
								<samplecharacteristics>
									<width>1280</width>
									<height>720</height>
								</samplecharacteristics>
							</video>
							<audio>
								<samplecharacteristics>
									<samplerate>48000</samplerate>
									<depth>16</depth>
								</samplecharacteristics>
								<channelcount>2</channelcount>
								<layout>stereo</layout>
								<audiochannel>
									<sourcechannel>1</sourcechannel>
									<channellabel>left</channellabel>
								</audiochannel>
								<audiochannel>
									<sourcechannel>2</sourcechannel>
									<channellabel>right</channellabel>
								</audiochannel>
							</audio>
						</media>
					</file>
					<sourcetrack>
						<mediatype>video</mediatype>
					</sourcetrack>
					<link>
						<linkclipref>OllieNormanDad000 </linkclipref>
						<mediatype>video</mediatype>
						<trackindex>3</trackindex>
						<clipindex>1</clipindex>
					</link>
					<link>
						<linkclipref>OllieNormanDad000 2</linkclipref>
						<mediatype>audio</mediatype>
						<trackindex>3</trackindex>
						<clipindex>1</clipindex>
						<groupindex>1</groupindex>
					</link>
					<link>
						<linkclipref>OllieNormanDad000 3</linkclipref>
						<mediatype>audio</mediatype>
						<trackindex>4</trackindex>
						<clipindex>1</clipindex>
						<groupindex>1</groupindex>
					</link>
					<fielddominance>none</fielddominance>
					<itemhistory>
						<uuid>D32C7816-B602-47C6-B46F-F399DB7D1D82</uuid>
						<uuid>4CD4305D-C9CA-48D1-9125-D54D1529396E</uuid>
					</itemhistory>
				</clipitem>
				<clipitem id="OllieNormanDad003Subclipa">
					<name>OllieNormanDad003Subclipa</name>
					<duration>934</duration>
					<rate>
						<ntsc>FALSE</ntsc>
						<timebase>25</timebase>
					</rate>
					<in>0</in>
					<out>933</out>
					<start>18662</start>
					<end>19595</end>
					<pixelaspectratio>Square</pixelaspectratio>
					<enabled>TRUE</enabled>
					<anamorphic>FALSE</anamorphic>
					<alphatype>none</alphatype>
					<logginginfo>
						<scene/>
						<shottake/>
						<lognote/>
						<good>FALSE</good>
					</logginginfo>
					<labels>
						<label2/>
					</labels>
					<comments>
						<mastercomment1/>
						<mastercomment2/>
						<mastercomment3/>
						<mastercomment4/>
					</comments>
					<file id="OllieNormanDad003Subclipa1">
						<name>OllieNormanDad003Subclipa</name>
						<pathurl>file://localhost/Volumes/Michael's%20Passport/woodbdrigenov2011media/OllieNormanDad003Subclipa</pathurl>
						<rate>
							<timebase>25</timebase>
						</rate>
						<duration>934</duration>
						<metadata>
							<storage>QuickTime</storage>
							<key>com.apple.finalcutstudio.media.uuid</key>
							<size>36</size>
							<type>UTF8</type>
							<value>08526B43-62F3-4344-992B-8961FCC8A921</value>
						</metadata>
						<metadata>
							<storage>QuickTime</storage>
							<key>com.apple.finalcutstudio.media.history.uuid</key>
							<size>36</size>
							<type>UTF8</type>
							<value>E05DA8EF-76FB-4EA5-818E-93AED613B6D8</value>
						</metadata>
						<timecode>
							<rate>
								<timebase>25</timebase>
							</rate>
							<string>00:00:00:00</string>
							<frame>0</frame>
							<displayformat>NDF</displayformat>
							<source>source</source>
							<reel>
								<name>Olliver Norman (dad)</name>
							</reel>
						</timecode>
						<media>
							<video>
								<duration>934</duration>
								<samplecharacteristics>
									<width>1280</width>
									<height>720</height>
								</samplecharacteristics>
							</video>
							<audio>
								<samplecharacteristics>
									<samplerate>48000</samplerate>
									<depth>16</depth>
								</samplecharacteristics>
								<channelcount>2</channelcount>
								<layout>stereo</layout>
								<audiochannel>
									<sourcechannel>1</sourcechannel>
									<channellabel>left</channellabel>
								</audiochannel>
								<audiochannel>
									<sourcechannel>2</sourcechannel>
									<channellabel>right</channellabel>
								</audiochannel>
							</audio>
						</media>
					</file>
					<sourcetrack>
						<mediatype>video</mediatype>
					</sourcetrack>
					<fielddominance>none</fielddominance>
					<itemhistory>
						<uuid>C0A63E48-2771-417E-8513-CB7A52906E48</uuid>
						<uuid>799EFB92-58DE-4D58-94E0-A13A25DCF06F</uuid>
					</itemhistory>
				</clipitem>
				<clipitem id="OllieNormanDad003Subclipb">
					<name>OllieNormanDad003Subclipb</name>
					<duration>1011</duration>
					<rate>
						<ntsc>FALSE</ntsc>
						<timebase>25</timebase>
					</rate>
					<in>0</in>
					<out>1011</out>
					<start>19595</start>
					<end>20606</end>
					<pixelaspectratio>Square</pixelaspectratio>
					<enabled>TRUE</enabled>
					<anamorphic>FALSE</anamorphic>
					<alphatype>none</alphatype>
					<logginginfo>
						<scene/>
						<shottake/>
						<lognote/>
						<good>FALSE</good>
					</logginginfo>
					<labels>
						<label2/>
					</labels>
					<comments>
						<mastercomment1/>
						<mastercomment2/>
						<mastercomment3/>
						<mastercomment4/>
					</comments>
					<file id="OllieNormanDad003Subclipb1">
						<name>OllieNormanDad003Subclipb</name>
						<pathurl>file://localhost/Volumes/Michael's%20Passport/woodbdrigenov2011media/OllieNormanDad003Subclipb</pathurl>
						<rate>
							<timebase>25</timebase>
						</rate>
						<duration>1011</duration>
						<metadata>
							<storage>QuickTime</storage>
							<key>com.apple.finalcutstudio.media.uuid</key>
							<size>36</size>
							<type>UTF8</type>
							<value>B3F5B41B-69B6-4B03-BA2A-B5FEA0D3CE43</value>
						</metadata>
						<metadata>
							<storage>QuickTime</storage>
							<key>com.apple.finalcutstudio.media.history.uuid</key>
							<size>36</size>
							<type>UTF8</type>
							<value>E05DA8EF-76FB-4EA5-818E-93AED613B6D8</value>
						</metadata>
						<timecode>
							<rate>
								<timebase>25</timebase>
							</rate>
							<string>00:00:37:08</string>
							<frame>933</frame>
							<displayformat>NDF</displayformat>
							<source>source</source>
							<reel>
								<name>Olliver Norman (dad)</name>
							</reel>
						</timecode>
						<media>
							<video>
								<duration>1011</duration>
								<samplecharacteristics>
									<width>1280</width>
									<height>720</height>
								</samplecharacteristics>
							</video>
							<audio>
								<samplecharacteristics>
									<samplerate>48000</samplerate>
									<depth>16</depth>
								</samplecharacteristics>
								<channelcount>2</channelcount>
								<layout>stereo</layout>
								<audiochannel>
									<sourcechannel>1</sourcechannel>
									<channellabel>left</channellabel>
								</audiochannel>
								<audiochannel>
									<sourcechannel>2</sourcechannel>
									<channellabel>right</channellabel>
								</audiochannel>
							</audio>
						</media>
					</file>
					<sourcetrack>
						<mediatype>video</mediatype>
					</sourcetrack>
					<fielddominance>none</fielddominance>
					<itemhistory>
						<uuid>72BA4CC7-8980-4C66-9ADE-C0B8E350D5FA</uuid>
						<uuid>9D202D8E-01E6-4ED2-9A7A-333AACAB6D4F</uuid>
					</itemhistory>
				</clipitem>
				<clipitem id="OllieNormanDad004Subclipa">
					<name>OllieNormanDad004Subclipa</name>
					<duration>934</duration>
					<rate>
						<ntsc>FALSE</ntsc>
						<timebase>25</timebase>
					</rate>
					<in>0</in>
					<out>933</out>
					<start>23876</start>
					<end>24809</end>
					<pixelaspectratio>Square</pixelaspectratio>
					<anamorphic>FALSE</anamorphic>
					<alphatype>none</alphatype>
					<logginginfo>
						<scene/>
						<shottake/>
						<lognote/>
						<good>FALSE</good>
					</logginginfo>
					<labels>
						<label2/>
					</labels>
					<comments>
						<mastercomment1/>
						<mastercomment2/>
						<mastercomment3/>
						<mastercomment4/>
					</comments>
					<file id="OllieNormanDad004Subclipa1">
						<name>OllieNormanDad004Subclipa</name>
						<pathurl>file://localhost/Volumes/Michael's%20Passport/woodbdrigenov2011media/OllieNormanDad004Subclipa</pathurl>
						<rate>
							<timebase>25</timebase>
						</rate>
						<duration>934</duration>
						<metadata>
							<storage>QuickTime</storage>
							<key>com.apple.finalcutstudio.media.uuid</key>
							<size>36</size>
							<type>UTF8</type>
							<value>41EE1DB6-CB40-4BEB-BDE0-97916FEDA73C</value>
						</metadata>
						<metadata>
							<storage>QuickTime</storage>
							<key>com.apple.finalcutstudio.media.history.uuid</key>
							<size>36</size>
							<type>UTF8</type>
							<value>30E0C230-F187-4E68-AF0C-0E003355C42F</value>
						</metadata>
						<timecode>
							<rate>
								<timebase>25</timebase>
							</rate>
							<string>00:00:00:00</string>
							<frame>0</frame>
							<displayformat>NDF</displayformat>
							<source>source</source>
							<reel>
								<name>Olliver Norman (dad)</name>
							</reel>
						</timecode>
						<media>
							<video>
								<duration>934</duration>
								<samplecharacteristics>
									<width>1280</width>
									<height>720</height>
								</samplecharacteristics>
							</video>
							<audio>
								<samplecharacteristics>
									<samplerate>48000</samplerate>
									<depth>16</depth>
								</samplecharacteristics>
								<channelcount>2</channelcount>
								<layout>stereo</layout>
								<audiochannel>
									<sourcechannel>1</sourcechannel>
									<channellabel>left</channellabel>
								</audiochannel>
								<audiochannel>
									<sourcechannel>2</sourcechannel>
									<channellabel>right</channellabel>
								</audiochannel>
							</audio>
						</media>
					</file>
					<sourcetrack>
						<mediatype>video</mediatype>
					</sourcetrack>
					<fielddominance>none</fielddominance>
					<itemhistory>
						<uuid>5E85CA37-B953-4DEC-9AEB-EAC7344981A9</uuid>
						<uuid>FE6F3219-8C6B-4191-A6AD-3F447B57EB18</uuid>
					</itemhistory>
				</clipitem>
				<clipitem id="OllieNormanDad004Subclipb">
					<name>OllieNormanDad004Subclipb</name>
					<duration>3699</duration>
					<rate>
						<ntsc>FALSE</ntsc>
						<timebase>25</timebase>
					</rate>
					<in>0</in>
					<out>3699</out>
					<start>24809</start>
					<end>28508</end>
					<pixelaspectratio>Square</pixelaspectratio>
					<anamorphic>FALSE</anamorphic>
					<alphatype>none</alphatype>
					<logginginfo>
						<scene/>
						<shottake/>
						<lognote/>
						<good>FALSE</good>
					</logginginfo>
					<labels>
						<label2/>
					</labels>
					<comments>
						<mastercomment1/>
						<mastercomment2/>
						<mastercomment3/>
						<mastercomment4/>
					</comments>
					<file id="OllieNormanDad004Subclipb1">
						<name>OllieNormanDad004Subclipb</name>
						<pathurl>file://localhost/Volumes/Michael's%20Passport/woodbdrigenov2011media/OllieNormanDad004Subclipb</pathurl>
						<rate>
							<timebase>25</timebase>
						</rate>
						<duration>3699</duration>
						<metadata>
							<storage>QuickTime</storage>
							<key>com.apple.finalcutstudio.media.uuid</key>
							<size>36</size>
							<type>UTF8</type>
							<value>26A65566-EEF0-4354-8E99-62549628C979</value>
						</metadata>
						<metadata>
							<storage>QuickTime</storage>
							<key>com.apple.finalcutstudio.media.history.uuid</key>
							<size>36</size>
							<type>UTF8</type>
							<value>30E0C230-F187-4E68-AF0C-0E003355C42F</value>
						</metadata>
						<timecode>
							<rate>
								<timebase>25</timebase>
							</rate>
							<string>00:00:37:08</string>
							<frame>933</frame>
							<displayformat>NDF</displayformat>
							<source>source</source>
							<reel>
								<name>Olliver Norman (dad)</name>
							</reel>
						</timecode>
						<media>
							<video>
								<duration>3699</duration>
								<samplecharacteristics>
									<width>1280</width>
									<height>720</height>
								</samplecharacteristics>
							</video>
							<audio>
								<samplecharacteristics>
									<samplerate>48000</samplerate>
									<depth>16</depth>
								</samplecharacteristics>
								<channelcount>2</channelcount>
								<layout>stereo</layout>
								<audiochannel>
									<sourcechannel>1</sourcechannel>
									<channellabel>left</channellabel>
								</audiochannel>
								<audiochannel>
									<sourcechannel>2</sourcechannel>
									<channellabel>right</channellabel>
								</audiochannel>
							</audio>
						</media>
					</file>
					<sourcetrack>
						<mediatype>video</mediatype>
					</sourcetrack>
					<fielddominance>none</fielddominance>
					<itemhistory>
						<uuid>1FD9FABE-D82C-46E9-8091-838159DAB102</uuid>
						<uuid>485387BB-9396-4A03-B78C-489FDC28C8EA</uuid>
					</itemhistory>
				</clipitem>
				<clipitem id="OllieNormanDad005Subclipa">
					<name>OllieNormanDad005Subclipa</name>
					<duration>2229</duration>
					<rate>
						<ntsc>FALSE</ntsc>
						<timebase>25</timebase>
					</rate>
					<in>0</in>
					<out>2228</out>
					<start>29749</start>
					<end>31977</end>
					<pixelaspectratio>Square</pixelaspectratio>
					<anamorphic>FALSE</anamorphic>
					<alphatype>none</alphatype>
					<logginginfo>
						<scene/>
						<shottake/>
						<lognote/>
						<good>FALSE</good>
					</logginginfo>
					<labels>
						<label2/>
					</labels>
					<comments>
						<mastercomment1/>
						<mastercomment2/>
						<mastercomment3/>
						<mastercomment4/>
					</comments>
					<file id="OllieNormanDad005Subclipa1">
						<name>OllieNormanDad005Subclipa</name>
						<pathurl>file://localhost/Volumes/Michael's%20Passport/woodbdrigenov2011media/OllieNormanDad005Subclipa</pathurl>
						<rate>
							<timebase>25</timebase>
						</rate>
						<duration>2229</duration>
						<metadata>
							<storage>QuickTime</storage>
							<key>com.apple.finalcutstudio.media.uuid</key>
							<size>36</size>
							<type>UTF8</type>
							<value>D9D0B79B-7239-4C9A-A5D4-C3C89D56BF3A</value>
						</metadata>
						<metadata>
							<storage>QuickTime</storage>
							<key>com.apple.finalcutstudio.media.history.uuid</key>
							<size>36</size>
							<type>UTF8</type>
							<value>9B112B52-5219-42C9-85AB-DA3B376CAF1E</value>
						</metadata>
						<timecode>
							<rate>
								<timebase>25</timebase>
							</rate>
							<string>00:00:00:00</string>
							<frame>0</frame>
							<displayformat>NDF</displayformat>
							<source>source</source>
							<reel>
								<name>Olliver Norman (dad)</name>
							</reel>
						</timecode>
						<media>
							<video>
								<duration>2229</duration>
								<samplecharacteristics>
									<width>1280</width>
									<height>720</height>
								</samplecharacteristics>
							</video>
							<audio>
								<samplecharacteristics>
									<samplerate>48000</samplerate>
									<depth>16</depth>
								</samplecharacteristics>
								<channelcount>2</channelcount>
								<layout>stereo</layout>
								<audiochannel>
									<sourcechannel>1</sourcechannel>
									<channellabel>left</channellabel>
								</audiochannel>
								<audiochannel>
									<sourcechannel>2</sourcechannel>
									<channellabel>right</channellabel>
								</audiochannel>
							</audio>
						</media>
					</file>
					<sourcetrack>
						<mediatype>video</mediatype>
					</sourcetrack>
					<fielddominance>none</fielddominance>
					<itemhistory>
						<uuid>D939A4DD-95F2-4271-ACEA-0862506E7D43</uuid>
						<uuid>FD62C92A-C5A7-4F3C-BBE0-A822490C2EF5</uuid>
					</itemhistory>
				</clipitem>
				<clipitem id="OllieNormanDad005Subclipb">
					<name>OllieNormanDad005Subclipb</name>
					<duration>5163</duration>
					<rate>
						<ntsc>FALSE</ntsc>
						<timebase>25</timebase>
					</rate>
					<in>0</in>
					<out>5162</out>
					<start>31979</start>
					<end>37141</end>
					<pixelaspectratio>Square</pixelaspectratio>
					<anamorphic>FALSE</anamorphic>
					<alphatype>none</alphatype>
					<logginginfo>
						<scene/>
						<shottake/>
						<lognote/>
						<good>FALSE</good>
					</logginginfo>
					<labels>
						<label2/>
					</labels>
					<comments>
						<mastercomment1/>
						<mastercomment2/>
						<mastercomment3/>
						<mastercomment4/>
					</comments>
					<file id="OllieNormanDad005Subclipb1">
						<name>OllieNormanDad005Subclipb</name>
						<pathurl>file://localhost/Volumes/Michael's%20Passport/woodbdrigenov2011media/OllieNormanDad005Subclipb</pathurl>
						<rate>
							<timebase>25</timebase>
						</rate>
						<duration>5163</duration>
						<metadata>
							<storage>QuickTime</storage>
							<key>com.apple.finalcutstudio.media.uuid</key>
							<size>36</size>
							<type>UTF8</type>
							<value>AF89CBB1-603C-4FD6-B318-52CD7A8DD205</value>
						</metadata>
						<metadata>
							<storage>QuickTime</storage>
							<key>com.apple.finalcutstudio.media.history.uuid</key>
							<size>36</size>
							<type>UTF8</type>
							<value>9B112B52-5219-42C9-85AB-DA3B376CAF1E</value>
						</metadata>
						<timecode>
							<rate>
								<timebase>25</timebase>
							</rate>
							<string>00:01:29:03</string>
							<frame>2228</frame>
							<displayformat>NDF</displayformat>
							<source>source</source>
							<reel>
								<name>Olliver Norman (dad)</name>
							</reel>
						</timecode>
						<media>
							<video>
								<duration>5163</duration>
								<samplecharacteristics>
									<width>1280</width>
									<height>720</height>
								</samplecharacteristics>
							</video>
							<audio>
								<samplecharacteristics>
									<samplerate>48000</samplerate>
									<depth>16</depth>
								</samplecharacteristics>
								<channelcount>2</channelcount>
								<layout>stereo</layout>
								<audiochannel>
									<sourcechannel>1</sourcechannel>
									<channellabel>left</channellabel>
								</audiochannel>
								<audiochannel>
									<sourcechannel>2</sourcechannel>
									<channellabel>right</channellabel>
								</audiochannel>
							</audio>
						</media>
					</file>
					<sourcetrack>
						<mediatype>video</mediatype>
					</sourcetrack>
					<fielddominance>none</fielddominance>
					<itemhistory>
						<uuid>DA1F34D9-A894-4D9C-A4D4-6B5322058A5C</uuid>
						<uuid>082AF539-C6A1-46A0-BB6D-28A702CFA668</uuid>
					</itemhistory>
				</clipitem>
				<clipitem id="OllieNormanDad005Subclipc">
					<name>OllieNormanDad005Subclipc</name>
					<duration>7442</duration>
					<rate>
						<ntsc>FALSE</ntsc>
						<timebase>25</timebase>
					</rate>
					<in>0</in>
					<out>7442</out>
					<start>37141</start>
					<end>44583</end>
					<pixelaspectratio>Square</pixelaspectratio>
					<anamorphic>FALSE</anamorphic>
					<alphatype>none</alphatype>
					<logginginfo>
						<scene/>
						<shottake/>
						<lognote/>
						<good>FALSE</good>
					</logginginfo>
					<labels>
						<label2/>
					</labels>
					<comments>
						<mastercomment1/>
						<mastercomment2/>
						<mastercomment3/>
						<mastercomment4/>
					</comments>
					<file id="OllieNormanDad005Subclipc1">
						<name>OllieNormanDad005Subclipc</name>
						<pathurl>file://localhost/Volumes/Michael's%20Passport/woodbdrigenov2011media/OllieNormanDad005Subclipc</pathurl>
						<rate>
							<timebase>25</timebase>
						</rate>
						<duration>7442</duration>
						<metadata>
							<storage>QuickTime</storage>
							<key>com.apple.finalcutstudio.media.uuid</key>
							<size>36</size>
							<type>UTF8</type>
							<value>DEAB5413-D60B-4FA5-B402-98D2ACC70B92</value>
						</metadata>
						<metadata>
							<storage>QuickTime</storage>
							<key>com.apple.finalcutstudio.media.history.uuid</key>
							<size>36</size>
							<type>UTF8</type>
							<value>9B112B52-5219-42C9-85AB-DA3B376CAF1E</value>
						</metadata>
						<timecode>
							<rate>
								<timebase>25</timebase>
							</rate>
							<string>00:04:55:15</string>
							<frame>7390</frame>
							<displayformat>NDF</displayformat>
							<source>source</source>
							<reel>
								<name>Olliver Norman (dad)</name>
							</reel>
						</timecode>
						<media>
							<video>
								<duration>7442</duration>
								<samplecharacteristics>
									<width>1280</width>
									<height>720</height>
								</samplecharacteristics>
							</video>
							<audio>
								<samplecharacteristics>
									<samplerate>48000</samplerate>
									<depth>16</depth>
								</samplecharacteristics>
								<channelcount>2</channelcount>
								<layout>stereo</layout>
								<audiochannel>
									<sourcechannel>1</sourcechannel>
									<channellabel>left</channellabel>
								</audiochannel>
								<audiochannel>
									<sourcechannel>2</sourcechannel>
									<channellabel>right</channellabel>
								</audiochannel>
							</audio>
						</media>
					</file>
					<sourcetrack>
						<mediatype>video</mediatype>
					</sourcetrack>
					<fielddominance>none</fielddominance>
					<itemhistory>
						<uuid>2A5AC85C-1BBB-427F-B4B5-7EDC1083F255</uuid>
						<uuid>FCF1877B-31C2-440C-B4B3-BD77F0EC2024</uuid>
					</itemhistory>
				</clipitem>
				<clipitem id="OllieNormanDad006Subclipa">
					<name>OllieNormanDad006Subclipa</name>
					<duration>3248</duration>
					<rate>
						<ntsc>FALSE</ntsc>
						<timebase>25</timebase>
					</rate>
					<in>0</in>
					<out>3248</out>
					<start>45321</start>
					<end>48569</end>
					<pixelaspectratio>Square</pixelaspectratio>
					<anamorphic>FALSE</anamorphic>
					<alphatype>none</alphatype>
					<logginginfo>
						<scene/>
						<shottake/>
						<lognote/>
						<good>FALSE</good>
					</logginginfo>
					<labels>
						<label2/>
					</labels>
					<comments>
						<mastercomment1/>
						<mastercomment2/>
						<mastercomment3/>
						<mastercomment4/>
					</comments>
					<file id="OllieNormanDad006Subclipa1">
						<name>OllieNormanDad006Subclipa</name>
						<pathurl>file://localhost/Volumes/Michael's%20Passport/woodbdrigenov2011media/OllieNormanDad006Subclipa</pathurl>
						<rate>
							<timebase>25</timebase>
						</rate>
						<duration>3248</duration>
						<metadata>
							<storage>QuickTime</storage>
							<key>com.apple.finalcutstudio.media.uuid</key>
							<size>36</size>
							<type>UTF8</type>
							<value>931BAE98-EBF1-45BC-BAB8-572D81DFA0E0</value>
						</metadata>
						<metadata>
							<storage>QuickTime</storage>
							<key>com.apple.finalcutstudio.media.history.uuid</key>
							<size>36</size>
							<type>UTF8</type>
							<value>9742420E-C183-4EA0-BE03-427871B4608E</value>
						</metadata>
						<timecode>
							<rate>
								<timebase>25</timebase>
							</rate>
							<string>00:00:00:00</string>
							<frame>0</frame>
							<displayformat>NDF</displayformat>
							<source>source</source>
							<reel>
								<name>Olliver Norman (dad)</name>
							</reel>
						</timecode>
						<media>
							<video>
								<duration>3248</duration>
								<samplecharacteristics>
									<width>1280</width>
									<height>720</height>
								</samplecharacteristics>
							</video>
							<audio>
								<samplecharacteristics>
									<samplerate>48000</samplerate>
									<depth>16</depth>
								</samplecharacteristics>
								<channelcount>2</channelcount>
								<layout>stereo</layout>
								<audiochannel>
									<sourcechannel>1</sourcechannel>
									<channellabel>left</channellabel>
								</audiochannel>
								<audiochannel>
									<sourcechannel>2</sourcechannel>
									<channellabel>right</channellabel>
								</audiochannel>
							</audio>
						</media>
					</file>
					<sourcetrack>
						<mediatype>video</mediatype>
					</sourcetrack>
					<fielddominance>none</fielddominance>
					<itemhistory>
						<uuid>2D74CA71-E7F2-409E-BEDB-B819F6193E2E</uuid>
						<uuid>D1198E97-CB7A-4AF8-A123-E80ED1E67C56</uuid>
					</itemhistory>
				</clipitem>
				<clipitem id="OllieNormanDad006Subclipb">
					<name>OllieNormanDad006Subclipb</name>
					<duration>999</duration>
					<rate>
						<ntsc>FALSE</ntsc>
						<timebase>25</timebase>
					</rate>
					<in>0</in>
					<out>998</out>
					<start>48569</start>
					<end>49567</end>
					<pixelaspectratio>Square</pixelaspectratio>
					<anamorphic>FALSE</anamorphic>
					<alphatype>none</alphatype>
					<logginginfo>
						<scene/>
						<shottake/>
						<lognote/>
						<good>FALSE</good>
					</logginginfo>
					<labels>
						<label2/>
					</labels>
					<comments>
						<mastercomment1/>
						<mastercomment2/>
						<mastercomment3/>
						<mastercomment4/>
					</comments>
					<file id="OllieNormanDad006Subclipb1">
						<name>OllieNormanDad006Subclipb</name>
						<pathurl>file://localhost/Volumes/Michael's%20Passport/woodbdrigenov2011media/OllieNormanDad006Subclipb</pathurl>
						<rate>
							<timebase>25</timebase>
						</rate>
						<duration>999</duration>
						<metadata>
							<storage>QuickTime</storage>
							<key>com.apple.finalcutstudio.media.uuid</key>
							<size>36</size>
							<type>UTF8</type>
							<value>15590DFE-B424-44D4-AF26-33B612FD2EDB</value>
						</metadata>
						<metadata>
							<storage>QuickTime</storage>
							<key>com.apple.finalcutstudio.media.history.uuid</key>
							<size>36</size>
							<type>UTF8</type>
							<value>9742420E-C183-4EA0-BE03-427871B4608E</value>
						</metadata>
						<timecode>
							<rate>
								<timebase>25</timebase>
							</rate>
							<string>00:02:09:22</string>
							<frame>3247</frame>
							<displayformat>NDF</displayformat>
							<source>source</source>
							<reel>
								<name>Olliver Norman (dad)</name>
							</reel>
						</timecode>
						<media>
							<video>
								<duration>999</duration>
								<samplecharacteristics>
									<width>1280</width>
									<height>720</height>
								</samplecharacteristics>
							</video>
							<audio>
								<samplecharacteristics>
									<samplerate>48000</samplerate>
									<depth>16</depth>
								</samplecharacteristics>
								<channelcount>2</channelcount>
								<layout>stereo</layout>
								<audiochannel>
									<sourcechannel>1</sourcechannel>
									<channellabel>left</channellabel>
								</audiochannel>
								<audiochannel>
									<sourcechannel>2</sourcechannel>
									<channellabel>right</channellabel>
								</audiochannel>
							</audio>
						</media>
					</file>
					<sourcetrack>
						<mediatype>video</mediatype>
					</sourcetrack>
					<fielddominance>none</fielddominance>
					<itemhistory>
						<uuid>DB273E57-E89F-432C-B597-2274E8F538C1</uuid>
						<uuid>EC209C17-4B40-49A7-B592-4650811E698D</uuid>
					</itemhistory>
				</clipitem>
				<clipitem id="OllieNormanDad006Subclipc">
					<name>OllieNormanDad006Subclipc</name>
					<duration>946</duration>
					<rate>
						<ntsc>FALSE</ntsc>
						<timebase>25</timebase>
					</rate>
					<in>0</in>
					<out>945</out>
					<start>49567</start>
					<end>50512</end>
					<pixelaspectratio>Square</pixelaspectratio>
					<anamorphic>FALSE</anamorphic>
					<alphatype>none</alphatype>
					<logginginfo>
						<scene/>
						<shottake/>
						<lognote/>
						<good>FALSE</good>
					</logginginfo>
					<labels>
						<label2/>
					</labels>
					<comments>
						<mastercomment1/>
						<mastercomment2/>
						<mastercomment3/>
						<mastercomment4/>
					</comments>
					<file id="OllieNormanDad006Subclipc1">
						<name>OllieNormanDad006Subclipc</name>
						<pathurl>file://localhost/Volumes/Michael's%20Passport/woodbdrigenov2011media/OllieNormanDad006Subclipc</pathurl>
						<rate>
							<timebase>25</timebase>
						</rate>
						<duration>946</duration>
						<metadata>
							<storage>QuickTime</storage>
							<key>com.apple.finalcutstudio.media.uuid</key>
							<size>36</size>
							<type>UTF8</type>
							<value>9937E065-9E0C-46ED-AC9A-24B0A529AB06</value>
						</metadata>
						<metadata>
							<storage>QuickTime</storage>
							<key>com.apple.finalcutstudio.media.history.uuid</key>
							<size>36</size>
							<type>UTF8</type>
							<value>9742420E-C183-4EA0-BE03-427871B4608E</value>
						</metadata>
						<timecode>
							<rate>
								<timebase>25</timebase>
							</rate>
							<string>00:02:49:20</string>
							<frame>4245</frame>
							<displayformat>NDF</displayformat>
							<source>source</source>
							<reel>
								<name>Olliver Norman (dad)</name>
							</reel>
						</timecode>
						<media>
							<video>
								<duration>946</duration>
								<samplecharacteristics>
									<width>1280</width>
									<height>720</height>
								</samplecharacteristics>
							</video>
							<audio>
								<samplecharacteristics>
									<samplerate>48000</samplerate>
									<depth>16</depth>
								</samplecharacteristics>
								<channelcount>2</channelcount>
								<layout>stereo</layout>
								<audiochannel>
									<sourcechannel>1</sourcechannel>
									<channellabel>left</channellabel>
								</audiochannel>
								<audiochannel>
									<sourcechannel>2</sourcechannel>
									<channellabel>right</channellabel>
								</audiochannel>
							</audio>
						</media>
					</file>
					<sourcetrack>
						<mediatype>video</mediatype>
					</sourcetrack>
					<fielddominance>none</fielddominance>
					<itemhistory>
						<uuid>85264EA1-8763-491A-B835-AFF30167B28E</uuid>
						<uuid>1D2E48B4-5346-4DF6-8B8B-E454627E26C3</uuid>
					</itemhistory>
				</clipitem>
				<clipitem id="OllieNormanDad006Subclipd">
					<name>OllieNormanDad006Subclipd</name>
					<duration>1242</duration>
					<rate>
						<ntsc>FALSE</ntsc>
						<timebase>25</timebase>
					</rate>
					<in>0</in>
					<out>1242</out>
					<start>50512</start>
					<end>51754</end>
					<pixelaspectratio>Square</pixelaspectratio>
					<anamorphic>FALSE</anamorphic>
					<alphatype>none</alphatype>
					<logginginfo>
						<scene/>
						<shottake/>
						<lognote/>
						<good>FALSE</good>
					</logginginfo>
					<labels>
						<label2/>
					</labels>
					<comments>
						<mastercomment1/>
						<mastercomment2/>
						<mastercomment3/>
						<mastercomment4/>
					</comments>
					<file id="OllieNormanDad006Subclipd1">
						<name>OllieNormanDad006Subclipd</name>
						<pathurl>file://localhost/Volumes/Michael's%20Passport/woodbdrigenov2011media/OllieNormanDad006Subclipd</pathurl>
						<rate>
							<timebase>25</timebase>
						</rate>
						<duration>1242</duration>
						<metadata>
							<storage>QuickTime</storage>
							<key>com.apple.finalcutstudio.media.uuid</key>
							<size>36</size>
							<type>UTF8</type>
							<value>29887F64-1774-4212-8C1A-29FCC89E83BB</value>
						</metadata>
						<metadata>
							<storage>QuickTime</storage>
							<key>com.apple.finalcutstudio.media.history.uuid</key>
							<size>36</size>
							<type>UTF8</type>
							<value>9742420E-C183-4EA0-BE03-427871B4608E</value>
						</metadata>
						<timecode>
							<rate>
								<timebase>25</timebase>
							</rate>
							<string>00:03:27:15</string>
							<frame>5190</frame>
							<displayformat>NDF</displayformat>
							<source>source</source>
							<reel>
								<name>Olliver Norman (dad)</name>
							</reel>
						</timecode>
						<media>
							<video>
								<duration>1242</duration>
								<samplecharacteristics>
									<width>1280</width>
									<height>720</height>
								</samplecharacteristics>
							</video>
							<audio>
								<samplecharacteristics>
									<samplerate>48000</samplerate>
									<depth>16</depth>
								</samplecharacteristics>
								<channelcount>2</channelcount>
								<layout>stereo</layout>
								<audiochannel>
									<sourcechannel>1</sourcechannel>
									<channellabel>left</channellabel>
								</audiochannel>
								<audiochannel>
									<sourcechannel>2</sourcechannel>
									<channellabel>right</channellabel>
								</audiochannel>
							</audio>
						</media>
					</file>
					<sourcetrack>
						<mediatype>video</mediatype>
					</sourcetrack>
					<fielddominance>none</fielddominance>
					<itemhistory>
						<uuid>A0D68ABB-C31B-46B2-9C90-9A964AF8688F</uuid>
						<uuid>4959F8F4-23A6-4AF8-8384-1AC810A3401D</uuid>
					</itemhistory>
				</clipitem>
				<clipitem id="OllieNormanDad007Subclipa">
					<name>OllieNormanDad007Subclipa</name>
					<duration>2707</duration>
					<rate>
						<ntsc>FALSE</ntsc>
						<timebase>25</timebase>
					</rate>
					<in>0</in>
					<out>2706</out>
					<start>55014</start>
					<end>57720</end>
					<pixelaspectratio>Square</pixelaspectratio>
					<anamorphic>FALSE</anamorphic>
					<alphatype>none</alphatype>
					<logginginfo>
						<scene/>
						<shottake/>
						<lognote/>
						<good>FALSE</good>
					</logginginfo>
					<labels>
						<label2/>
					</labels>
					<comments>
						<mastercomment1/>
						<mastercomment2/>
						<mastercomment3/>
						<mastercomment4/>
					</comments>
					<file id="OllieNormanDad007Subclipa1">
						<name>OllieNormanDad007Subclipa</name>
						<pathurl>file://localhost/Volumes/Michael's%20Passport/woodbdrigenov2011media/OllieNormanDad007Subclipa</pathurl>
						<rate>
							<timebase>25</timebase>
						</rate>
						<duration>2707</duration>
						<metadata>
							<storage>QuickTime</storage>
							<key>com.apple.finalcutstudio.media.uuid</key>
							<size>36</size>
							<type>UTF8</type>
							<value>7BDB77C4-D8FB-40F3-9F13-5AEE2EF16291</value>
						</metadata>
						<metadata>
							<storage>QuickTime</storage>
							<key>com.apple.finalcutstudio.media.history.uuid</key>
							<size>36</size>
							<type>UTF8</type>
							<value>F5622F25-4010-407D-999C-86F5D6D5B2CD</value>
						</metadata>
						<timecode>
							<rate>
								<timebase>25</timebase>
							</rate>
							<string>00:00:00:00</string>
							<frame>0</frame>
							<displayformat>NDF</displayformat>
							<source>source</source>
							<reel>
								<name>Olliver Norman (dad)</name>
							</reel>
						</timecode>
						<media>
							<video>
								<duration>2707</duration>
								<samplecharacteristics>
									<width>1280</width>
									<height>720</height>
								</samplecharacteristics>
							</video>
							<audio>
								<samplecharacteristics>
									<samplerate>48000</samplerate>
									<depth>16</depth>
								</samplecharacteristics>
								<channelcount>2</channelcount>
								<layout>stereo</layout>
								<audiochannel>
									<sourcechannel>1</sourcechannel>
									<channellabel>left</channellabel>
								</audiochannel>
								<audiochannel>
									<sourcechannel>2</sourcechannel>
									<channellabel>right</channellabel>
								</audiochannel>
							</audio>
						</media>
					</file>
					<sourcetrack>
						<mediatype>video</mediatype>
					</sourcetrack>
					<fielddominance>none</fielddominance>
					<itemhistory>
						<uuid>09C2C15B-7AC4-46D0-B7AC-00FE6984FE0C</uuid>
						<uuid>7FDBEDA7-48F0-402F-A1A6-3666BA4DB496</uuid>
					</itemhistory>
				</clipitem>
				<clipitem id="OllieNormanDad007Subclipb">
					<name>OllieNormanDad007Subclipb</name>
					<duration>1982</duration>
					<rate>
						<ntsc>FALSE</ntsc>
						<timebase>25</timebase>
					</rate>
					<in>0</in>
					<out>1981</out>
					<start>57720</start>
					<end>59701</end>
					<pixelaspectratio>Square</pixelaspectratio>
					<anamorphic>FALSE</anamorphic>
					<alphatype>none</alphatype>
					<logginginfo>
						<scene/>
						<shottake/>
						<lognote/>
						<good>FALSE</good>
					</logginginfo>
					<labels>
						<label2/>
					</labels>
					<comments>
						<mastercomment1/>
						<mastercomment2/>
						<mastercomment3/>
						<mastercomment4/>
					</comments>
					<file id="OllieNormanDad007Subclipb1">
						<name>OllieNormanDad007Subclipb</name>
						<pathurl>file://localhost/Volumes/Michael's%20Passport/woodbdrigenov2011media/OllieNormanDad007Subclipb</pathurl>
						<rate>
							<timebase>25</timebase>
						</rate>
						<duration>1982</duration>
						<metadata>
							<storage>QuickTime</storage>
							<key>com.apple.finalcutstudio.media.uuid</key>
							<size>36</size>
							<type>UTF8</type>
							<value>D652A66B-E755-44A7-A203-3CE721FA1754</value>
						</metadata>
						<metadata>
							<storage>QuickTime</storage>
							<key>com.apple.finalcutstudio.media.history.uuid</key>
							<size>36</size>
							<type>UTF8</type>
							<value>F5622F25-4010-407D-999C-86F5D6D5B2CD</value>
						</metadata>
						<timecode>
							<rate>
								<timebase>25</timebase>
							</rate>
							<string>00:01:48:06</string>
							<frame>2706</frame>
							<displayformat>NDF</displayformat>
							<source>source</source>
							<reel>
								<name>Olliver Norman (dad)</name>
							</reel>
						</timecode>
						<media>
							<video>
								<duration>1982</duration>
								<samplecharacteristics>
									<width>1280</width>
									<height>720</height>
								</samplecharacteristics>
							</video>
							<audio>
								<samplecharacteristics>
									<samplerate>48000</samplerate>
									<depth>16</depth>
								</samplecharacteristics>
								<channelcount>2</channelcount>
								<layout>stereo</layout>
								<audiochannel>
									<sourcechannel>1</sourcechannel>
									<channellabel>left</channellabel>
								</audiochannel>
								<audiochannel>
									<sourcechannel>2</sourcechannel>
									<channellabel>right</channellabel>
								</audiochannel>
							</audio>
						</media>
					</file>
					<sourcetrack>
						<mediatype>video</mediatype>
					</sourcetrack>
					<fielddominance>none</fielddominance>
					<itemhistory>
						<uuid>15BB0052-7C33-4D02-A85A-B011347C55FD</uuid>
						<uuid>99B6A1A6-32CB-44B7-AE9C-9CB13B9FB0D3</uuid>
					</itemhistory>
				</clipitem>
				<clipitem id="OllieNormanDad007Subclipc">
					<name>OllieNormanDad007Subclipc</name>
					<duration>2159</duration>
					<rate>
						<ntsc>FALSE</ntsc>
						<timebase>25</timebase>
					</rate>
					<in>0</in>
					<out>2158</out>
					<start>59701</start>
					<end>61859</end>
					<pixelaspectratio>Square</pixelaspectratio>
					<anamorphic>FALSE</anamorphic>
					<alphatype>none</alphatype>
					<logginginfo>
						<scene/>
						<shottake/>
						<lognote/>
						<good>FALSE</good>
					</logginginfo>
					<labels>
						<label2/>
					</labels>
					<comments>
						<mastercomment1/>
						<mastercomment2/>
						<mastercomment3/>
						<mastercomment4/>
					</comments>
					<file id="OllieNormanDad007Subclipc1">
						<name>OllieNormanDad007Subclipc</name>
						<pathurl>file://localhost/Volumes/Michael's%20Passport/woodbdrigenov2011media/OllieNormanDad007Subclipc</pathurl>
						<rate>
							<timebase>25</timebase>
						</rate>
						<duration>2159</duration>
						<metadata>
							<storage>QuickTime</storage>
							<key>com.apple.finalcutstudio.media.uuid</key>
							<size>36</size>
							<type>UTF8</type>
							<value>13B74A7C-A775-4A99-A370-D410BCAE6CCA</value>
						</metadata>
						<metadata>
							<storage>QuickTime</storage>
							<key>com.apple.finalcutstudio.media.history.uuid</key>
							<size>36</size>
							<type>UTF8</type>
							<value>F5622F25-4010-407D-999C-86F5D6D5B2CD</value>
						</metadata>
						<timecode>
							<rate>
								<timebase>25</timebase>
							</rate>
							<string>00:03:07:12</string>
							<frame>4687</frame>
							<displayformat>NDF</displayformat>
							<source>source</source>
							<reel>
								<name>Olliver Norman (dad)</name>
							</reel>
						</timecode>
						<media>
							<video>
								<duration>2159</duration>
								<samplecharacteristics>
									<width>1280</width>
									<height>720</height>
								</samplecharacteristics>
							</video>
							<audio>
								<samplecharacteristics>
									<samplerate>48000</samplerate>
									<depth>16</depth>
								</samplecharacteristics>
								<channelcount>2</channelcount>
								<layout>stereo</layout>
								<audiochannel>
									<sourcechannel>1</sourcechannel>
									<channellabel>left</channellabel>
								</audiochannel>
								<audiochannel>
									<sourcechannel>2</sourcechannel>
									<channellabel>right</channellabel>
								</audiochannel>
							</audio>
						</media>
					</file>
					<sourcetrack>
						<mediatype>video</mediatype>
					</sourcetrack>
					<fielddominance>none</fielddominance>
					<itemhistory>
						<uuid>C10C5051-F222-42C4-95B8-1EBDB2CB9C1E</uuid>
						<uuid>3D449665-A7CD-4940-8511-F81E21C66650</uuid>
					</itemhistory>
				</clipitem>
				<clipitem id="OllieNormanDad007Subclipd">
					<name>OllieNormanDad007Subclipd</name>
					<duration>2078</duration>
					<rate>
						<ntsc>FALSE</ntsc>
						<timebase>25</timebase>
					</rate>
					<in>0</in>
					<out>2077</out>
					<start>61859</start>
					<end>63936</end>
					<pixelaspectratio>Square</pixelaspectratio>
					<anamorphic>FALSE</anamorphic>
					<alphatype>none</alphatype>
					<logginginfo>
						<scene/>
						<shottake/>
						<lognote/>
						<good>FALSE</good>
					</logginginfo>
					<labels>
						<label2/>
					</labels>
					<comments>
						<mastercomment1/>
						<mastercomment2/>
						<mastercomment3/>
						<mastercomment4/>
					</comments>
					<file id="OllieNormanDad007Subclipd1">
						<name>OllieNormanDad007Subclipd</name>
						<pathurl>file://localhost/Volumes/Michael's%20Passport/woodbdrigenov2011media/OllieNormanDad007Subclipd</pathurl>
						<rate>
							<timebase>25</timebase>
						</rate>
						<duration>2078</duration>
						<metadata>
							<storage>QuickTime</storage>
							<key>com.apple.finalcutstudio.media.uuid</key>
							<size>36</size>
							<type>UTF8</type>
							<value>6BB649F1-DAE2-48DB-96C4-127DCE8CFC44</value>
						</metadata>
						<metadata>
							<storage>QuickTime</storage>
							<key>com.apple.finalcutstudio.media.history.uuid</key>
							<size>36</size>
							<type>UTF8</type>
							<value>F5622F25-4010-407D-999C-86F5D6D5B2CD</value>
						</metadata>
						<timecode>
							<rate>
								<timebase>25</timebase>
							</rate>
							<string>00:04:33:20</string>
							<frame>6845</frame>
							<displayformat>NDF</displayformat>
							<source>source</source>
							<reel>
								<name>Olliver Norman (dad)</name>
							</reel>
						</timecode>
						<media>
							<video>
								<duration>2078</duration>
								<samplecharacteristics>
									<width>1280</width>
									<height>720</height>
								</samplecharacteristics>
							</video>
							<audio>
								<samplecharacteristics>
									<samplerate>48000</samplerate>
									<depth>16</depth>
								</samplecharacteristics>
								<channelcount>2</channelcount>
								<layout>stereo</layout>
								<audiochannel>
									<sourcechannel>1</sourcechannel>
									<channellabel>left</channellabel>
								</audiochannel>
								<audiochannel>
									<sourcechannel>2</sourcechannel>
									<channellabel>right</channellabel>
								</audiochannel>
							</audio>
						</media>
					</file>
					<sourcetrack>
						<mediatype>video</mediatype>
					</sourcetrack>
					<fielddominance>none</fielddominance>
					<itemhistory>
						<uuid>4D9D97B0-0B74-4B2F-B814-43A934980B7A</uuid>
						<uuid>90EF082C-D76A-4BAB-9BE8-572C2BB7271D</uuid>
					</itemhistory>
				</clipitem>
				<clipitem id="OllieNormanDad007Subclipe">
					<name>OllieNormanDad007Subclipe</name>
					<duration>968</duration>
					<rate>
						<ntsc>FALSE</ntsc>
						<timebase>25</timebase>
					</rate>
					<in>0</in>
					<out>967</out>
					<start>63936</start>
					<end>64903</end>
					<pixelaspectratio>Square</pixelaspectratio>
					<anamorphic>FALSE</anamorphic>
					<alphatype>none</alphatype>
					<logginginfo>
						<scene/>
						<shottake/>
						<lognote/>
						<good>FALSE</good>
					</logginginfo>
					<labels>
						<label2/>
					</labels>
					<comments>
						<mastercomment1/>
						<mastercomment2/>
						<mastercomment3/>
						<mastercomment4/>
					</comments>
					<file id="OllieNormanDad007Subclipe1">
						<name>OllieNormanDad007Subclipe</name>
						<pathurl>file://localhost/Volumes/Michael's%20Passport/woodbdrigenov2011media/OllieNormanDad007Subclipe</pathurl>
						<rate>
							<timebase>25</timebase>
						</rate>
						<duration>968</duration>
						<metadata>
							<storage>QuickTime</storage>
							<key>com.apple.finalcutstudio.media.uuid</key>
							<size>36</size>
							<type>UTF8</type>
							<value>D9B3A1E7-6584-4EC8-BA23-EFC932EC54F4</value>
						</metadata>
						<metadata>
							<storage>QuickTime</storage>
							<key>com.apple.finalcutstudio.media.history.uuid</key>
							<size>36</size>
							<type>UTF8</type>
							<value>F5622F25-4010-407D-999C-86F5D6D5B2CD</value>
						</metadata>
						<timecode>
							<rate>
								<timebase>25</timebase>
							</rate>
							<string>00:05:56:22</string>
							<frame>8922</frame>
							<displayformat>NDF</displayformat>
							<source>source</source>
							<reel>
								<name>Olliver Norman (dad)</name>
							</reel>
						</timecode>
						<media>
							<video>
								<duration>968</duration>
								<samplecharacteristics>
									<width>1280</width>
									<height>720</height>
								</samplecharacteristics>
							</video>
							<audio>
								<samplecharacteristics>
									<samplerate>48000</samplerate>
									<depth>16</depth>
								</samplecharacteristics>
								<channelcount>2</channelcount>
								<layout>stereo</layout>
								<audiochannel>
									<sourcechannel>1</sourcechannel>
									<channellabel>left</channellabel>
								</audiochannel>
								<audiochannel>
									<sourcechannel>2</sourcechannel>
									<channellabel>right</channellabel>
								</audiochannel>
							</audio>
						</media>
					</file>
					<sourcetrack>
						<mediatype>video</mediatype>
					</sourcetrack>
					<fielddominance>none</fielddominance>
					<itemhistory>
						<uuid>D96A6706-71CC-415B-BE72-C1C52CAB07C1</uuid>
						<uuid>D9C2BC6F-A393-4F98-8C56-50224BFC1F2B</uuid>
					</itemhistory>
				</clipitem>
				<clipitem id="OllieNormanDad007Subclipf">
					<name>OllieNormanDad007Subclipf</name>
					<duration>3383</duration>
					<rate>
						<ntsc>FALSE</ntsc>
						<timebase>25</timebase>
					</rate>
					<in>0</in>
					<out>3382</out>
					<start>64903</start>
					<end>68285</end>
					<pixelaspectratio>Square</pixelaspectratio>
					<anamorphic>FALSE</anamorphic>
					<alphatype>none</alphatype>
					<logginginfo>
						<scene/>
						<shottake/>
						<lognote/>
						<good>FALSE</good>
					</logginginfo>
					<labels>
						<label2/>
					</labels>
					<comments>
						<mastercomment1/>
						<mastercomment2/>
						<mastercomment3/>
						<mastercomment4/>
					</comments>
					<file id="OllieNormanDad007Subclipf1">
						<name>OllieNormanDad007Subclipf</name>
						<pathurl>file://localhost/Volumes/Michael's%20Passport/woodbdrigenov2011media/OllieNormanDad007Subclipf</pathurl>
						<rate>
							<timebase>25</timebase>
						</rate>
						<duration>3383</duration>
						<metadata>
							<storage>QuickTime</storage>
							<key>com.apple.finalcutstudio.media.uuid</key>
							<size>36</size>
							<type>UTF8</type>
							<value>AD9B8202-C0C5-46A1-BF8C-BF2B90FA56DF</value>
						</metadata>
						<metadata>
							<storage>QuickTime</storage>
							<key>com.apple.finalcutstudio.media.history.uuid</key>
							<size>36</size>
							<type>UTF8</type>
							<value>F5622F25-4010-407D-999C-86F5D6D5B2CD</value>
						</metadata>
						<timecode>
							<rate>
								<timebase>25</timebase>
							</rate>
							<string>00:06:35:14</string>
							<frame>9889</frame>
							<displayformat>NDF</displayformat>
							<source>source</source>
							<reel>
								<name>Olliver Norman (dad)</name>
							</reel>
						</timecode>
						<media>
							<video>
								<duration>3383</duration>
								<samplecharacteristics>
									<width>1280</width>
									<height>720</height>
								</samplecharacteristics>
							</video>
							<audio>
								<samplecharacteristics>
									<samplerate>48000</samplerate>
									<depth>16</depth>
								</samplecharacteristics>
								<channelcount>2</channelcount>
								<layout>stereo</layout>
								<audiochannel>
									<sourcechannel>1</sourcechannel>
									<channellabel>left</channellabel>
								</audiochannel>
								<audiochannel>
									<sourcechannel>2</sourcechannel>
									<channellabel>right</channellabel>
								</audiochannel>
							</audio>
						</media>
					</file>
					<sourcetrack>
						<mediatype>video</mediatype>
					</sourcetrack>
					<fielddominance>none</fielddominance>
					<itemhistory>
						<uuid>CAF2EC5D-79E6-4FBF-B638-E5C4F677E425</uuid>
						<uuid>736B4E5C-0487-4940-A333-7340E49ED3AF</uuid>
					</itemhistory>
				</clipitem>
				<clipitem id="OllieNormanDad008Subclipa">
					<name>OllieNormanDad008Subclipa</name>
					<duration>1700</duration>
					<rate>
						<ntsc>FALSE</ntsc>
						<timebase>25</timebase>
					</rate>
					<in>0</in>
					<out>1699</out>
					<start>69325</start>
					<end>71024</end>
					<pixelaspectratio>Square</pixelaspectratio>
					<anamorphic>FALSE</anamorphic>
					<alphatype>none</alphatype>
					<logginginfo>
						<scene/>
						<shottake/>
						<lognote/>
						<good>FALSE</good>
					</logginginfo>
					<labels>
						<label2/>
					</labels>
					<comments>
						<mastercomment1/>
						<mastercomment2/>
						<mastercomment3/>
						<mastercomment4/>
					</comments>
					<file id="OllieNormanDad008Subclipa1">
						<name>OllieNormanDad008Subclipa</name>
						<pathurl>file://localhost/Volumes/Michael's%20Passport/woodbdrigenov2011media/OllieNormanDad008Subclipa</pathurl>
						<rate>
							<timebase>25</timebase>
						</rate>
						<duration>1700</duration>
						<metadata>
							<storage>QuickTime</storage>
							<key>com.apple.finalcutstudio.media.uuid</key>
							<size>36</size>
							<type>UTF8</type>
							<value>3D4AE903-88EE-4CE6-80D9-A23F238A03BD</value>
						</metadata>
						<metadata>
							<storage>QuickTime</storage>
							<key>com.apple.finalcutstudio.media.history.uuid</key>
							<size>36</size>
							<type>UTF8</type>
							<value>B799AFD7-E58E-48C1-979C-1AC075C5EF63</value>
						</metadata>
						<timecode>
							<rate>
								<timebase>25</timebase>
							</rate>
							<string>00:00:00:00</string>
							<frame>0</frame>
							<displayformat>NDF</displayformat>
							<source>source</source>
							<reel>
								<name>Olliver Norman (dad)</name>
							</reel>
						</timecode>
						<media>
							<video>
								<duration>1700</duration>
								<samplecharacteristics>
									<width>1280</width>
									<height>720</height>
								</samplecharacteristics>
							</video>
							<audio>
								<samplecharacteristics>
									<samplerate>48000</samplerate>
									<depth>16</depth>
								</samplecharacteristics>
								<channelcount>2</channelcount>
								<layout>stereo</layout>
								<audiochannel>
									<sourcechannel>1</sourcechannel>
									<channellabel>left</channellabel>
								</audiochannel>
								<audiochannel>
									<sourcechannel>2</sourcechannel>
									<channellabel>right</channellabel>
								</audiochannel>
							</audio>
						</media>
					</file>
					<sourcetrack>
						<mediatype>video</mediatype>
					</sourcetrack>
					<fielddominance>none</fielddominance>
					<itemhistory>
						<uuid>CAFB8BA3-10DB-4D0A-B866-4D9B75F113BA</uuid>
						<uuid>04D19171-650B-4473-97BA-76638C713E90</uuid>
					</itemhistory>
				</clipitem>
				<clipitem id="OllieNormanDad008Subclipb">
					<name>OllieNormanDad008Subclipb</name>
					<duration>709</duration>
					<rate>
						<ntsc>FALSE</ntsc>
						<timebase>25</timebase>
					</rate>
					<in>0</in>
					<out>708</out>
					<start>71024</start>
					<end>71732</end>
					<pixelaspectratio>Square</pixelaspectratio>
					<anamorphic>FALSE</anamorphic>
					<alphatype>none</alphatype>
					<logginginfo>
						<scene/>
						<shottake/>
						<lognote/>
						<good>FALSE</good>
					</logginginfo>
					<labels>
						<label2/>
					</labels>
					<comments>
						<mastercomment1/>
						<mastercomment2/>
						<mastercomment3/>
						<mastercomment4/>
					</comments>
					<file id="OllieNormanDad008Subclipb1">
						<name>OllieNormanDad008Subclipb</name>
						<pathurl>file://localhost/Volumes/Michael's%20Passport/woodbdrigenov2011media/OllieNormanDad008Subclipb</pathurl>
						<rate>
							<timebase>25</timebase>
						</rate>
						<duration>709</duration>
						<metadata>
							<storage>QuickTime</storage>
							<key>com.apple.finalcutstudio.media.uuid</key>
							<size>36</size>
							<type>UTF8</type>
							<value>918B2BBC-08BD-4903-9882-2901ECC1B82B</value>
						</metadata>
						<metadata>
							<storage>QuickTime</storage>
							<key>com.apple.finalcutstudio.media.history.uuid</key>
							<size>36</size>
							<type>UTF8</type>
							<value>B799AFD7-E58E-48C1-979C-1AC075C5EF63</value>
						</metadata>
						<timecode>
							<rate>
								<timebase>25</timebase>
							</rate>
							<string>00:01:07:24</string>
							<frame>1699</frame>
							<displayformat>NDF</displayformat>
							<source>source</source>
							<reel>
								<name>Olliver Norman (dad)</name>
							</reel>
						</timecode>
						<media>
							<video>
								<duration>709</duration>
								<samplecharacteristics>
									<width>1280</width>
									<height>720</height>
								</samplecharacteristics>
							</video>
							<audio>
								<samplecharacteristics>
									<samplerate>48000</samplerate>
									<depth>16</depth>
								</samplecharacteristics>
								<channelcount>2</channelcount>
								<layout>stereo</layout>
								<audiochannel>
									<sourcechannel>1</sourcechannel>
									<channellabel>left</channellabel>
								</audiochannel>
								<audiochannel>
									<sourcechannel>2</sourcechannel>
									<channellabel>right</channellabel>
								</audiochannel>
							</audio>
						</media>
					</file>
					<sourcetrack>
						<mediatype>video</mediatype>
					</sourcetrack>
					<fielddominance>none</fielddominance>
					<itemhistory>
						<uuid>D37E228B-826E-4D68-B3B1-69D8E201B380</uuid>
						<uuid>C51D8B32-3F82-4284-A6CF-41226680D876</uuid>
					</itemhistory>
				</clipitem>
				<clipitem id="OllieNormanDad008Subclipc">
					<name>OllieNormanDad008Subclipc</name>
					<duration>2897</duration>
					<rate>
						<ntsc>FALSE</ntsc>
						<timebase>25</timebase>
					</rate>
					<in>0</in>
					<out>2897</out>
					<start>71732</start>
					<end>74629</end>
					<pixelaspectratio>Square</pixelaspectratio>
					<anamorphic>FALSE</anamorphic>
					<alphatype>none</alphatype>
					<logginginfo>
						<scene/>
						<shottake/>
						<lognote/>
						<good>FALSE</good>
					</logginginfo>
					<labels>
						<label2/>
					</labels>
					<comments>
						<mastercomment1/>
						<mastercomment2/>
						<mastercomment3/>
						<mastercomment4/>
					</comments>
					<file id="OllieNormanDad008Subclipc1">
						<name>OllieNormanDad008Subclipc</name>
						<pathurl>file://localhost/Volumes/Michael's%20Passport/woodbdrigenov2011media/OllieNormanDad008Subclipc</pathurl>
						<rate>
							<timebase>25</timebase>
						</rate>
						<duration>2897</duration>
						<metadata>
							<storage>QuickTime</storage>
							<key>com.apple.finalcutstudio.media.uuid</key>
							<size>36</size>
							<type>UTF8</type>
							<value>701129A4-A72E-46E7-A108-013074FEFB27</value>
						</metadata>
						<metadata>
							<storage>QuickTime</storage>
							<key>com.apple.finalcutstudio.media.history.uuid</key>
							<size>36</size>
							<type>UTF8</type>
							<value>B799AFD7-E58E-48C1-979C-1AC075C5EF63</value>
						</metadata>
						<timecode>
							<rate>
								<timebase>25</timebase>
							</rate>
							<string>00:01:36:07</string>
							<frame>2407</frame>
							<displayformat>NDF</displayformat>
							<source>source</source>
							<reel>
								<name>Olliver Norman (dad)</name>
							</reel>
						</timecode>
						<media>
							<video>
								<duration>2897</duration>
								<samplecharacteristics>
									<width>1280</width>
									<height>720</height>
								</samplecharacteristics>
							</video>
							<audio>
								<samplecharacteristics>
									<samplerate>48000</samplerate>
									<depth>16</depth>
								</samplecharacteristics>
								<channelcount>2</channelcount>
								<layout>stereo</layout>
								<audiochannel>
									<sourcechannel>1</sourcechannel>
									<channellabel>left</channellabel>
								</audiochannel>
								<audiochannel>
									<sourcechannel>2</sourcechannel>
									<channellabel>right</channellabel>
								</audiochannel>
							</audio>
						</media>
					</file>
					<sourcetrack>
						<mediatype>video</mediatype>
					</sourcetrack>
					<fielddominance>none</fielddominance>
					<itemhistory>
						<uuid>B18196AD-7DF9-484D-9C48-C26F8690B247</uuid>
						<uuid>484DB562-00C2-4A26-9A4C-AF9FD74AAB18</uuid>
					</itemhistory>
				</clipitem>
				<clipitem id="OllieNormanDad009Subclipa">
					<name>OllieNormanDad009Subclipa</name>
					<duration>1332</duration>
					<rate>
						<ntsc>FALSE</ntsc>
						<timebase>25</timebase>
					</rate>
					<in>0</in>
					<out>1331</out>
					<start>76329</start>
					<end>77660</end>
					<pixelaspectratio>Square</pixelaspectratio>
					<anamorphic>FALSE</anamorphic>
					<alphatype>none</alphatype>
					<logginginfo>
						<scene/>
						<shottake/>
						<lognote/>
						<good>FALSE</good>
					</logginginfo>
					<labels>
						<label2/>
					</labels>
					<comments>
						<mastercomment1/>
						<mastercomment2/>
						<mastercomment3/>
						<mastercomment4/>
					</comments>
					<file id="OllieNormanDad009Subclipa1">
						<name>OllieNormanDad009Subclipa</name>
						<pathurl>file://localhost/Volumes/Michael's%20Passport/woodbdrigenov2011media/OllieNormanDad009Subclipa</pathurl>
						<rate>
							<timebase>25</timebase>
						</rate>
						<duration>1332</duration>
						<metadata>
							<storage>QuickTime</storage>
							<key>com.apple.finalcutstudio.media.uuid</key>
							<size>36</size>
							<type>UTF8</type>
							<value>4E1CBEA9-3384-4DA7-9C01-81C571CBB9B7</value>
						</metadata>
						<metadata>
							<storage>QuickTime</storage>
							<key>com.apple.finalcutstudio.media.history.uuid</key>
							<size>36</size>
							<type>UTF8</type>
							<value>9EC8E18D-B454-4501-ACDB-F18FADCF2D62</value>
						</metadata>
						<timecode>
							<rate>
								<timebase>25</timebase>
							</rate>
							<string>00:00:00:00</string>
							<frame>0</frame>
							<displayformat>NDF</displayformat>
							<source>source</source>
							<reel>
								<name>Olliver Norman (dad)</name>
							</reel>
						</timecode>
						<media>
							<video>
								<duration>1332</duration>
								<samplecharacteristics>
									<width>1280</width>
									<height>720</height>
								</samplecharacteristics>
							</video>
							<audio>
								<samplecharacteristics>
									<samplerate>48000</samplerate>
									<depth>16</depth>
								</samplecharacteristics>
								<channelcount>2</channelcount>
								<layout>stereo</layout>
								<audiochannel>
									<sourcechannel>1</sourcechannel>
									<channellabel>left</channellabel>
								</audiochannel>
								<audiochannel>
									<sourcechannel>2</sourcechannel>
									<channellabel>right</channellabel>
								</audiochannel>
							</audio>
						</media>
					</file>
					<sourcetrack>
						<mediatype>video</mediatype>
					</sourcetrack>
					<fielddominance>none</fielddominance>
					<itemhistory>
						<uuid>C66EE933-C039-4C3C-B274-B62D102F51C2</uuid>
						<uuid>42942EA3-016D-491F-8A6B-9A40B1BABC39</uuid>
					</itemhistory>
				</clipitem>
				<clipitem id="OllieNormanDad009Subclipb">
					<name>OllieNormanDad009Subclipb</name>
					<duration>1076</duration>
					<rate>
						<ntsc>FALSE</ntsc>
						<timebase>25</timebase>
					</rate>
					<in>0</in>
					<out>1075</out>
					<start>77660</start>
					<end>78735</end>
					<pixelaspectratio>Square</pixelaspectratio>
					<anamorphic>FALSE</anamorphic>
					<alphatype>none</alphatype>
					<logginginfo>
						<scene/>
						<shottake/>
						<lognote/>
						<good>FALSE</good>
					</logginginfo>
					<labels>
						<label2/>
					</labels>
					<comments>
						<mastercomment1/>
						<mastercomment2/>
						<mastercomment3/>
						<mastercomment4/>
					</comments>
					<file id="OllieNormanDad009Subclipb1">
						<name>OllieNormanDad009Subclipb</name>
						<pathurl>file://localhost/Volumes/Michael's%20Passport/woodbdrigenov2011media/OllieNormanDad009Subclipb</pathurl>
						<rate>
							<timebase>25</timebase>
						</rate>
						<duration>1076</duration>
						<metadata>
							<storage>QuickTime</storage>
							<key>com.apple.finalcutstudio.media.uuid</key>
							<size>36</size>
							<type>UTF8</type>
							<value>D892A058-BF9D-4FE8-AEA7-1C7DA0347E3B</value>
						</metadata>
						<metadata>
							<storage>QuickTime</storage>
							<key>com.apple.finalcutstudio.media.history.uuid</key>
							<size>36</size>
							<type>UTF8</type>
							<value>9EC8E18D-B454-4501-ACDB-F18FADCF2D62</value>
						</metadata>
						<timecode>
							<rate>
								<timebase>25</timebase>
							</rate>
							<string>00:00:53:06</string>
							<frame>1331</frame>
							<displayformat>NDF</displayformat>
							<source>source</source>
							<reel>
								<name>Olliver Norman (dad)</name>
							</reel>
						</timecode>
						<media>
							<video>
								<duration>1076</duration>
								<samplecharacteristics>
									<width>1280</width>
									<height>720</height>
								</samplecharacteristics>
							</video>
							<audio>
								<samplecharacteristics>
									<samplerate>48000</samplerate>
									<depth>16</depth>
								</samplecharacteristics>
								<channelcount>2</channelcount>
								<layout>stereo</layout>
								<audiochannel>
									<sourcechannel>1</sourcechannel>
									<channellabel>left</channellabel>
								</audiochannel>
								<audiochannel>
									<sourcechannel>2</sourcechannel>
									<channellabel>right</channellabel>
								</audiochannel>
							</audio>
						</media>
					</file>
					<sourcetrack>
						<mediatype>video</mediatype>
					</sourcetrack>
					<fielddominance>none</fielddominance>
					<itemhistory>
						<uuid>E70F2334-317C-45D1-BE45-3D4DEB55EFCF</uuid>
						<uuid>2B23A9EA-6B9F-4622-A3FB-A7D595E2688B</uuid>
					</itemhistory>
				</clipitem>
				<clipitem id="OllieNormanDad009Subclipc">
					<name>OllieNormanDad009Subclipc</name>
					<duration>2994</duration>
					<rate>
						<ntsc>FALSE</ntsc>
						<timebase>25</timebase>
					</rate>
					<in>0</in>
					<out>2994</out>
					<start>78735</start>
					<end>81729</end>
					<pixelaspectratio>Square</pixelaspectratio>
					<anamorphic>FALSE</anamorphic>
					<alphatype>none</alphatype>
					<logginginfo>
						<scene/>
						<shottake/>
						<lognote/>
						<good>FALSE</good>
					</logginginfo>
					<labels>
						<label2/>
					</labels>
					<comments>
						<mastercomment1/>
						<mastercomment2/>
						<mastercomment3/>
						<mastercomment4/>
					</comments>
					<file id="OllieNormanDad009Subclipc1">
						<name>OllieNormanDad009Subclipc</name>
						<pathurl>file://localhost/Volumes/Michael's%20Passport/woodbdrigenov2011media/OllieNormanDad009Subclipc</pathurl>
						<rate>
							<timebase>25</timebase>
						</rate>
						<duration>2994</duration>
						<metadata>
							<storage>QuickTime</storage>
							<key>com.apple.finalcutstudio.media.uuid</key>
							<size>36</size>
							<type>UTF8</type>
							<value>011D33CB-4724-4913-B682-1C135AE4FB4B</value>
						</metadata>
						<metadata>
							<storage>QuickTime</storage>
							<key>com.apple.finalcutstudio.media.history.uuid</key>
							<size>36</size>
							<type>UTF8</type>
							<value>9EC8E18D-B454-4501-ACDB-F18FADCF2D62</value>
						</metadata>
						<timecode>
							<rate>
								<timebase>25</timebase>
							</rate>
							<string>00:01:36:06</string>
							<frame>2406</frame>
							<displayformat>NDF</displayformat>
							<source>source</source>
							<reel>
								<name>Olliver Norman (dad)</name>
							</reel>
						</timecode>
						<media>
							<video>
								<duration>2994</duration>
								<samplecharacteristics>
									<width>1280</width>
									<height>720</height>
								</samplecharacteristics>
							</video>
							<audio>
								<samplecharacteristics>
									<samplerate>48000</samplerate>
									<depth>16</depth>
								</samplecharacteristics>
								<channelcount>2</channelcount>
								<layout>stereo</layout>
								<audiochannel>
									<sourcechannel>1</sourcechannel>
									<channellabel>left</channellabel>
								</audiochannel>
								<audiochannel>
									<sourcechannel>2</sourcechannel>
									<channellabel>right</channellabel>
								</audiochannel>
							</audio>
						</media>
					</file>
					<sourcetrack>
						<mediatype>video</mediatype>
					</sourcetrack>
					<fielddominance>none</fielddominance>
					<itemhistory>
						<uuid>E0D3D9BE-C584-489F-97BA-4EB9F4A4DC72</uuid>
						<uuid>84B380FC-06EB-4B8A-BE8D-FDB169C8BB70</uuid>
					</itemhistory>
				</clipitem>
				<clipitem id="OllieNormanDad010Subclipa">
					<name>OllieNormanDad010Subclipa</name>
					<duration>1333</duration>
					<rate>
						<ntsc>FALSE</ntsc>
						<timebase>25</timebase>
					</rate>
					<in>0</in>
					<out>1332</out>
					<start>82357</start>
					<end>83689</end>
					<pixelaspectratio>Square</pixelaspectratio>
					<anamorphic>FALSE</anamorphic>
					<alphatype>none</alphatype>
					<logginginfo>
						<scene/>
						<shottake/>
						<lognote/>
						<good>FALSE</good>
					</logginginfo>
					<labels>
						<label2/>
					</labels>
					<comments>
						<mastercomment1/>
						<mastercomment2/>
						<mastercomment3/>
						<mastercomment4/>
					</comments>
					<file id="OllieNormanDad010Subclipa1">
						<name>OllieNormanDad010Subclipa</name>
						<pathurl>file://localhost/Volumes/Michael's%20Passport/woodbdrigenov2011media/OllieNormanDad010Subclipa</pathurl>
						<rate>
							<timebase>25</timebase>
						</rate>
						<duration>1333</duration>
						<metadata>
							<storage>QuickTime</storage>
							<key>com.apple.finalcutstudio.media.uuid</key>
							<size>36</size>
							<type>UTF8</type>
							<value>50DCEBFC-A8E1-4E1F-B1D3-55F3F7424D64</value>
						</metadata>
						<metadata>
							<storage>QuickTime</storage>
							<key>com.apple.finalcutstudio.media.history.uuid</key>
							<size>36</size>
							<type>UTF8</type>
							<value>6B7F2100-D540-4878-BA12-482B188F6835</value>
						</metadata>
						<timecode>
							<rate>
								<timebase>25</timebase>
							</rate>
							<string>00:00:00:00</string>
							<frame>0</frame>
							<displayformat>NDF</displayformat>
							<source>source</source>
							<reel>
								<name>Olliver Norman (dad)</name>
							</reel>
						</timecode>
						<media>
							<video>
								<duration>1333</duration>
								<samplecharacteristics>
									<width>1280</width>
									<height>720</height>
								</samplecharacteristics>
							</video>
							<audio>
								<samplecharacteristics>
									<samplerate>48000</samplerate>
									<depth>16</depth>
								</samplecharacteristics>
								<channelcount>2</channelcount>
								<layout>stereo</layout>
								<audiochannel>
									<sourcechannel>1</sourcechannel>
									<channellabel>left</channellabel>
								</audiochannel>
								<audiochannel>
									<sourcechannel>2</sourcechannel>
									<channellabel>right</channellabel>
								</audiochannel>
							</audio>
						</media>
					</file>
					<sourcetrack>
						<mediatype>video</mediatype>
					</sourcetrack>
					<fielddominance>none</fielddominance>
					<itemhistory>
						<uuid>7C5ECBB4-B1AA-44CA-9FAE-A0640808F3A0</uuid>
						<uuid>96EDF848-1078-490B-AA23-F2996EEAFE10</uuid>
					</itemhistory>
				</clipitem>
				<clipitem id="OllieNormanDad010Subclipb">
					<name>OllieNormanDad010Subclipb</name>
					<duration>1572</duration>
					<rate>
						<ntsc>FALSE</ntsc>
						<timebase>25</timebase>
					</rate>
					<in>0</in>
					<out>1572</out>
					<start>83689</start>
					<end>85261</end>
					<pixelaspectratio>Square</pixelaspectratio>
					<anamorphic>FALSE</anamorphic>
					<alphatype>none</alphatype>
					<logginginfo>
						<scene/>
						<shottake/>
						<lognote/>
						<good>FALSE</good>
					</logginginfo>
					<labels>
						<label2/>
					</labels>
					<comments>
						<mastercomment1/>
						<mastercomment2/>
						<mastercomment3/>
						<mastercomment4/>
					</comments>
					<file id="OllieNormanDad010Subclipb1">
						<name>OllieNormanDad010Subclipb</name>
						<pathurl>file://localhost/Volumes/Michael's%20Passport/woodbdrigenov2011media/OllieNormanDad010Subclipb</pathurl>
						<rate>
							<timebase>25</timebase>
						</rate>
						<duration>1572</duration>
						<metadata>
							<storage>QuickTime</storage>
							<key>com.apple.finalcutstudio.media.uuid</key>
							<size>36</size>
							<type>UTF8</type>
							<value>0D7D2F02-C5A2-4D42-8BD8-3A1088B86FE4</value>
						</metadata>
						<metadata>
							<storage>QuickTime</storage>
							<key>com.apple.finalcutstudio.media.history.uuid</key>
							<size>36</size>
							<type>UTF8</type>
							<value>6B7F2100-D540-4878-BA12-482B188F6835</value>
						</metadata>
						<timecode>
							<rate>
								<timebase>25</timebase>
							</rate>
							<string>00:00:53:07</string>
							<frame>1332</frame>
							<displayformat>NDF</displayformat>
							<source>source</source>
							<reel>
								<name>Olliver Norman (dad)</name>
							</reel>
						</timecode>
						<media>
							<video>
								<duration>1572</duration>
								<samplecharacteristics>
									<width>1280</width>
									<height>720</height>
								</samplecharacteristics>
							</video>
							<audio>
								<samplecharacteristics>
									<samplerate>48000</samplerate>
									<depth>16</depth>
								</samplecharacteristics>
								<channelcount>2</channelcount>
								<layout>stereo</layout>
								<audiochannel>
									<sourcechannel>1</sourcechannel>
									<channellabel>left</channellabel>
								</audiochannel>
								<audiochannel>
									<sourcechannel>2</sourcechannel>
									<channellabel>right</channellabel>
								</audiochannel>
							</audio>
						</media>
					</file>
					<sourcetrack>
						<mediatype>video</mediatype>
					</sourcetrack>
					<fielddominance>none</fielddominance>
					<itemhistory>
						<uuid>9BE8DD9F-F4B1-4AFF-A80E-E11D99F8989A</uuid>
						<uuid>F4DDD746-7835-4F5A-99BC-4A66DA0CDEC8</uuid>
					</itemhistory>
				</clipitem>
				<clipitem id="OllieNormanDad010Subclipc">
					<name>OllieNormanDad010Subclipc</name>
					<duration>777</duration>
					<rate>
						<ntsc>FALSE</ntsc>
						<timebase>25</timebase>
					</rate>
					<in>0</in>
					<out>774</out>
					<start>85261</start>
					<end>86035</end>
					<pixelaspectratio>Square</pixelaspectratio>
					<anamorphic>FALSE</anamorphic>
					<alphatype>none</alphatype>
					<logginginfo>
						<scene/>
						<shottake/>
						<lognote/>
						<good>FALSE</good>
					</logginginfo>
					<labels>
						<label2/>
					</labels>
					<comments>
						<mastercomment1/>
						<mastercomment2/>
						<mastercomment3/>
						<mastercomment4/>
					</comments>
					<file id="OllieNormanDad010Subclipc1">
						<name>OllieNormanDad010Subclipc</name>
						<pathurl>file://localhost/Volumes/Michael's%20Passport/woodbdrigenov2011media/OllieNormanDad010Subclipc</pathurl>
						<rate>
							<timebase>25</timebase>
						</rate>
						<duration>777</duration>
						<metadata>
							<storage>QuickTime</storage>
							<key>com.apple.finalcutstudio.media.uuid</key>
							<size>36</size>
							<type>UTF8</type>
							<value>EBF48948-ECC3-4D63-9C90-C9BAE8D7C900</value>
						</metadata>
						<metadata>
							<storage>QuickTime</storage>
							<key>com.apple.finalcutstudio.media.history.uuid</key>
							<size>36</size>
							<type>UTF8</type>
							<value>6B7F2100-D540-4878-BA12-482B188F6835</value>
						</metadata>
						<timecode>
							<rate>
								<timebase>25</timebase>
							</rate>
							<string>00:01:56:03</string>
							<frame>2903</frame>
							<displayformat>NDF</displayformat>
							<source>source</source>
							<reel>
								<name>Olliver Norman (dad)</name>
							</reel>
						</timecode>
						<media>
							<video>
								<duration>777</duration>
								<samplecharacteristics>
									<width>1280</width>
									<height>720</height>
								</samplecharacteristics>
							</video>
							<audio>
								<samplecharacteristics>
									<samplerate>48000</samplerate>
									<depth>16</depth>
								</samplecharacteristics>
								<channelcount>2</channelcount>
								<layout>stereo</layout>
								<audiochannel>
									<sourcechannel>1</sourcechannel>
									<channellabel>left</channellabel>
								</audiochannel>
								<audiochannel>
									<sourcechannel>2</sourcechannel>
									<channellabel>right</channellabel>
								</audiochannel>
							</audio>
						</media>
					</file>
					<sourcetrack>
						<mediatype>video</mediatype>
					</sourcetrack>
					<fielddominance>none</fielddominance>
					<itemhistory>
						<uuid>23935B68-F076-4A6B-8BE0-4EB14067F711</uuid>
						<uuid>21347BF3-8928-4801-A80A-08416768427C</uuid>
					</itemhistory>
				</clipitem>
				<clipitem id="OllieNormanDad010Subclipd">
					<name>OllieNormanDad010Subclipd</name>
					<duration>1745</duration>
					<rate>
						<ntsc>FALSE</ntsc>
						<timebase>25</timebase>
					</rate>
					<in>0</in>
					<out>1744</out>
					<start>86036</start>
					<end>87780</end>
					<pixelaspectratio>Square</pixelaspectratio>
					<anamorphic>FALSE</anamorphic>
					<alphatype>none</alphatype>
					<logginginfo>
						<scene/>
						<shottake/>
						<lognote/>
						<good>FALSE</good>
					</logginginfo>
					<labels>
						<label2/>
					</labels>
					<comments>
						<mastercomment1/>
						<mastercomment2/>
						<mastercomment3/>
						<mastercomment4/>
					</comments>
					<file id="OllieNormanDad010Subclipd1">
						<name>OllieNormanDad010Subclipd</name>
						<pathurl>file://localhost/Volumes/Michael's%20Passport/woodbdrigenov2011media/OllieNormanDad010Subclipd</pathurl>
						<rate>
							<timebase>25</timebase>
						</rate>
						<duration>1745</duration>
						<metadata>
							<storage>QuickTime</storage>
							<key>com.apple.finalcutstudio.media.uuid</key>
							<size>36</size>
							<type>UTF8</type>
							<value>0AA6A657-4AF7-4FB1-B15D-3D309A00EF40</value>
						</metadata>
						<metadata>
							<storage>QuickTime</storage>
							<key>com.apple.finalcutstudio.media.history.uuid</key>
							<size>36</size>
							<type>UTF8</type>
							<value>6B7F2100-D540-4878-BA12-482B188F6835</value>
						</metadata>
						<timecode>
							<rate>
								<timebase>25</timebase>
							</rate>
							<string>00:02:27:04</string>
							<frame>3679</frame>
							<displayformat>NDF</displayformat>
							<source>source</source>
							<reel>
								<name>Olliver Norman (dad)</name>
							</reel>
						</timecode>
						<media>
							<video>
								<duration>1745</duration>
								<samplecharacteristics>
									<width>1280</width>
									<height>720</height>
								</samplecharacteristics>
							</video>
							<audio>
								<samplecharacteristics>
									<samplerate>48000</samplerate>
									<depth>16</depth>
								</samplecharacteristics>
								<channelcount>2</channelcount>
								<layout>stereo</layout>
								<audiochannel>
									<sourcechannel>1</sourcechannel>
									<channellabel>left</channellabel>
								</audiochannel>
								<audiochannel>
									<sourcechannel>2</sourcechannel>
									<channellabel>right</channellabel>
								</audiochannel>
							</audio>
						</media>
					</file>
					<sourcetrack>
						<mediatype>video</mediatype>
					</sourcetrack>
					<fielddominance>none</fielddominance>
					<itemhistory>
						<uuid>952AFF90-7ED8-4043-9C7D-E6B7F6C4B84C</uuid>
						<uuid>CE37ED1D-BAF9-4057-AFD2-8ABC96E5FF98</uuid>
					</itemhistory>
				</clipitem>
				<clipitem id="OllieNormanDad010Subclipe">
					<name>OllieNormanDad010Subclipe</name>
					<duration>700</duration>
					<rate>
						<ntsc>FALSE</ntsc>
						<timebase>25</timebase>
					</rate>
					<in>0</in>
					<out>699</out>
					<start>87780</start>
					<end>88479</end>
					<pixelaspectratio>Square</pixelaspectratio>
					<anamorphic>FALSE</anamorphic>
					<alphatype>none</alphatype>
					<logginginfo>
						<scene/>
						<shottake/>
						<lognote/>
						<good>FALSE</good>
					</logginginfo>
					<labels>
						<label2/>
					</labels>
					<comments>
						<mastercomment1/>
						<mastercomment2/>
						<mastercomment3/>
						<mastercomment4/>
					</comments>
					<file id="OllieNormanDad010Subclipe1">
						<name>OllieNormanDad010Subclipe</name>
						<pathurl>file://localhost/Volumes/Michael's%20Passport/woodbdrigenov2011media/OllieNormanDad010Subclipe</pathurl>
						<rate>
							<timebase>25</timebase>
						</rate>
						<duration>700</duration>
						<metadata>
							<storage>QuickTime</storage>
							<key>com.apple.finalcutstudio.media.uuid</key>
							<size>36</size>
							<type>UTF8</type>
							<value>61487630-7DE6-435C-840A-3A6E62A09B87</value>
						</metadata>
						<metadata>
							<storage>QuickTime</storage>
							<key>com.apple.finalcutstudio.media.history.uuid</key>
							<size>36</size>
							<type>UTF8</type>
							<value>6B7F2100-D540-4878-BA12-482B188F6835</value>
						</metadata>
						<timecode>
							<rate>
								<timebase>25</timebase>
							</rate>
							<string>00:03:36:23</string>
							<frame>5423</frame>
							<displayformat>NDF</displayformat>
							<source>source</source>
							<reel>
								<name>Olliver Norman (dad)</name>
							</reel>
						</timecode>
						<media>
							<video>
								<duration>700</duration>
								<samplecharacteristics>
									<width>1280</width>
									<height>720</height>
								</samplecharacteristics>
							</video>
							<audio>
								<samplecharacteristics>
									<samplerate>48000</samplerate>
									<depth>16</depth>
								</samplecharacteristics>
								<channelcount>2</channelcount>
								<layout>stereo</layout>
								<audiochannel>
									<sourcechannel>1</sourcechannel>
									<channellabel>left</channellabel>
								</audiochannel>
								<audiochannel>
									<sourcechannel>2</sourcechannel>
									<channellabel>right</channellabel>
								</audiochannel>
							</audio>
						</media>
					</file>
					<sourcetrack>
						<mediatype>video</mediatype>
					</sourcetrack>
					<fielddominance>none</fielddominance>
					<itemhistory>
						<uuid>A659CAC3-32C9-46C9-AA5A-EC8D0BDF9E6A</uuid>
						<uuid>BEFEA207-E00F-4F47-8D4B-B61CD17B2DC8</uuid>
					</itemhistory>
				</clipitem>
				<clipitem id="OllieNormanDad010Subclipf">
					<name>OllieNormanDad010Subclipf</name>
					<duration>1774</duration>
					<rate>
						<ntsc>FALSE</ntsc>
						<timebase>25</timebase>
					</rate>
					<in>0</in>
					<out>1773</out>
					<start>88479</start>
					<end>90252</end>
					<pixelaspectratio>Square</pixelaspectratio>
					<anamorphic>FALSE</anamorphic>
					<alphatype>none</alphatype>
					<logginginfo>
						<scene/>
						<shottake/>
						<lognote/>
						<good>FALSE</good>
					</logginginfo>
					<labels>
						<label2/>
					</labels>
					<comments>
						<mastercomment1/>
						<mastercomment2/>
						<mastercomment3/>
						<mastercomment4/>
					</comments>
					<file id="OllieNormanDad010Subclipf1">
						<name>OllieNormanDad010Subclipf</name>
						<pathurl>file://localhost/Volumes/Michael's%20Passport/woodbdrigenov2011media/OllieNormanDad010Subclipf</pathurl>
						<rate>
							<timebase>25</timebase>
						</rate>
						<duration>1774</duration>
						<metadata>
							<storage>QuickTime</storage>
							<key>com.apple.finalcutstudio.media.uuid</key>
							<size>36</size>
							<type>UTF8</type>
							<value>23C8F881-4B53-40A8-AD29-DA37AB3DC4E9</value>
						</metadata>
						<metadata>
							<storage>QuickTime</storage>
							<key>com.apple.finalcutstudio.media.history.uuid</key>
							<size>36</size>
							<type>UTF8</type>
							<value>6B7F2100-D540-4878-BA12-482B188F6835</value>
						</metadata>
						<timecode>
							<rate>
								<timebase>25</timebase>
							</rate>
							<string>00:04:04:22</string>
							<frame>6122</frame>
							<displayformat>NDF</displayformat>
							<source>source</source>
							<reel>
								<name>Olliver Norman (dad)</name>
							</reel>
						</timecode>
						<media>
							<video>
								<duration>1774</duration>
								<samplecharacteristics>
									<width>1280</width>
									<height>720</height>
								</samplecharacteristics>
							</video>
							<audio>
								<samplecharacteristics>
									<samplerate>48000</samplerate>
									<depth>16</depth>
								</samplecharacteristics>
								<channelcount>2</channelcount>
								<layout>stereo</layout>
								<audiochannel>
									<sourcechannel>1</sourcechannel>
									<channellabel>left</channellabel>
								</audiochannel>
								<audiochannel>
									<sourcechannel>2</sourcechannel>
									<channellabel>right</channellabel>
								</audiochannel>
							</audio>
						</media>
					</file>
					<sourcetrack>
						<mediatype>video</mediatype>
					</sourcetrack>
					<fielddominance>none</fielddominance>
					<itemhistory>
						<uuid>805DFBA9-B041-4FC2-8906-5B5AD43EFEB2</uuid>
						<uuid>16778CC1-A2EE-478E-AEA7-F963A380E465</uuid>
					</itemhistory>
				</clipitem>
				<clipitem id="OllieNormanDad011 ">
					<name>OllieNormanDad011</name>
					<duration>3024</duration>
					<rate>
						<ntsc>FALSE</ntsc>
						<timebase>25</timebase>
					</rate>
					<in>0</in>
					<out>3023</out>
					<start>91049</start>
					<end>94072</end>
					<pixelaspectratio>Square</pixelaspectratio>
					<anamorphic>FALSE</anamorphic>
					<alphatype>none</alphatype>
					<logginginfo>
						<scene/>
						<shottake/>
						<lognote/>
						<good>FALSE</good>
					</logginginfo>
					<labels>
						<label2/>
					</labels>
					<comments>
						<mastercomment1/>
						<mastercomment2/>
						<mastercomment3/>
						<mastercomment4/>
					</comments>
					<file id="OllieNormanDad011 1">
						<name>OllieNormanDad011</name>
						<pathurl>file://localhost/Volumes/Michael's%20Passport/woodbdrigenov2011media/OllieNormanDad011</pathurl>
						<rate>
							<timebase>25</timebase>
						</rate>
						<duration>3024</duration>
						<metadata>
							<storage>QuickTime</storage>
							<key>com.apple.finalcutstudio.media.uuid</key>
							<size>36</size>
							<type>UTF8</type>
							<value>16CC2EBC-885A-4D70-AC45-1D8BFC404A34</value>
						</metadata>
						<metadata>
							<storage>QuickTime</storage>
							<key>com.apple.finalcutstudio.media.history.uuid</key>
							<size>36</size>
							<type>UTF8</type>
							<value>1055C11F-B7C5-4733-ADD4-CCD75A045CBE</value>
						</metadata>
						<timecode>
							<rate>
								<timebase>25</timebase>
							</rate>
							<string>00:00:00:00</string>
							<frame>0</frame>
							<displayformat>NDF</displayformat>
							<source>source</source>
							<reel>
								<name>Olliver Norman (dad)</name>
							</reel>
						</timecode>
						<media>
							<video>
								<duration>3024</duration>
								<samplecharacteristics>
									<width>1280</width>
									<height>720</height>
								</samplecharacteristics>
							</video>
							<audio>
								<samplecharacteristics>
									<samplerate>48000</samplerate>
									<depth>16</depth>
								</samplecharacteristics>
								<channelcount>2</channelcount>
								<layout>stereo</layout>
								<audiochannel>
									<sourcechannel>1</sourcechannel>
									<channellabel>left</channellabel>
								</audiochannel>
								<audiochannel>
									<sourcechannel>2</sourcechannel>
									<channellabel>right</channellabel>
								</audiochannel>
							</audio>
						</media>
					</file>
					<sourcetrack>
						<mediatype>video</mediatype>
					</sourcetrack>
					<fielddominance>none</fielddominance>
					<itemhistory>
						<uuid>F4F90172-B294-4213-8E93-9B2FA46F836E</uuid>
						<uuid>214A73D5-490E-4F3D-8FB7-3A8278BF8C31</uuid>
					</itemhistory>
				</clipitem>
				<clipitem id="OllieNormanDad012 ">
					<name>OllieNormanDad012</name>
					<duration>4140</duration>
					<rate>
						<ntsc>FALSE</ntsc>
						<timebase>25</timebase>
					</rate>
					<in>0</in>
					<out>4139</out>
					<start>95147</start>
					<end>99286</end>
					<pixelaspectratio>Square</pixelaspectratio>
					<anamorphic>FALSE</anamorphic>
					<alphatype>none</alphatype>
					<logginginfo>
						<scene/>
						<shottake/>
						<lognote/>
						<good>FALSE</good>
					</logginginfo>
					<labels>
						<label2/>
					</labels>
					<comments>
						<mastercomment1/>
						<mastercomment2/>
						<mastercomment3/>
						<mastercomment4/>
					</comments>
					<file id="OllieNormanDad012 1">
						<name>OllieNormanDad012</name>
						<pathurl>file://localhost/Volumes/Michael's%20Passport/woodbdrigenov2011media/OllieNormanDad012</pathurl>
						<rate>
							<timebase>25</timebase>
						</rate>
						<duration>4140</duration>
						<metadata>
							<storage>QuickTime</storage>
							<key>com.apple.finalcutstudio.media.uuid</key>
							<size>36</size>
							<type>UTF8</type>
							<value>D0DE530C-2639-4A89-A752-F2B70E78650D</value>
						</metadata>
						<metadata>
							<storage>QuickTime</storage>
							<key>com.apple.finalcutstudio.media.history.uuid</key>
							<size>36</size>
							<type>UTF8</type>
							<value>872FAAA9-D0BA-455E-BF02-5DF0D06689B6</value>
						</metadata>
						<timecode>
							<rate>
								<timebase>25</timebase>
							</rate>
							<string>00:00:00:00</string>
							<frame>0</frame>
							<displayformat>NDF</displayformat>
							<source>source</source>
							<reel>
								<name>Olliver Norman (dad)</name>
							</reel>
						</timecode>
						<media>
							<video>
								<duration>4140</duration>
								<samplecharacteristics>
									<width>1280</width>
									<height>720</height>
								</samplecharacteristics>
							</video>
							<audio>
								<samplecharacteristics>
									<samplerate>48000</samplerate>
									<depth>16</depth>
								</samplecharacteristics>
								<channelcount>2</channelcount>
								<layout>stereo</layout>
								<audiochannel>
									<sourcechannel>1</sourcechannel>
									<channellabel>left</channellabel>
								</audiochannel>
								<audiochannel>
									<sourcechannel>2</sourcechannel>
									<channellabel>right</channellabel>
								</audiochannel>
							</audio>
						</media>
					</file>
					<sourcetrack>
						<mediatype>video</mediatype>
					</sourcetrack>
					<fielddominance>none</fielddominance>
					<itemhistory>
						<uuid>EC50A1A5-DB3E-49AE-9EB5-8EC6B98057B7</uuid>
						<uuid>FDF6F6A4-0202-4DBA-93A3-E061C3C6313C</uuid>
					</itemhistory>
				</clipitem>
				<clipitem id="OllieNormanDad013 ">
					<name>OllieNormanDad013</name>
					<duration>6432</duration>
					<rate>
						<ntsc>FALSE</ntsc>
						<timebase>25</timebase>
					</rate>
					<in>0</in>
					<out>6432</out>
					<start>100450</start>
					<end>106882</end>
					<pixelaspectratio>Square</pixelaspectratio>
					<anamorphic>FALSE</anamorphic>
					<alphatype>none</alphatype>
					<logginginfo>
						<scene/>
						<shottake/>
						<lognote/>
						<good>FALSE</good>
					</logginginfo>
					<labels>
						<label2/>
					</labels>
					<comments>
						<mastercomment1/>
						<mastercomment2/>
						<mastercomment3/>
						<mastercomment4/>
					</comments>
					<file id="OllieNormanDad013 1">
						<name>OllieNormanDad013</name>
						<pathurl>file://localhost/Volumes/Michael's%20Passport/woodbdrigenov2011media/OllieNormanDad013</pathurl>
						<rate>
							<timebase>25</timebase>
						</rate>
						<duration>6432</duration>
						<metadata>
							<storage>QuickTime</storage>
							<key>com.apple.finalcutstudio.media.uuid</key>
							<size>36</size>
							<type>UTF8</type>
							<value>8A3B8C1B-B18C-49BC-A85F-656631D61995</value>
						</metadata>
						<metadata>
							<storage>QuickTime</storage>
							<key>com.apple.finalcutstudio.media.history.uuid</key>
							<size>36</size>
							<type>UTF8</type>
							<value>1C02F69F-7BF5-4A92-9B89-A2CED2F184E4</value>
						</metadata>
						<timecode>
							<rate>
								<timebase>25</timebase>
							</rate>
							<string>00:00:00:00</string>
							<frame>0</frame>
							<displayformat>NDF</displayformat>
							<source>source</source>
							<reel>
								<name>Olliver Norman (dad)</name>
							</reel>
						</timecode>
						<media>
							<video>
								<duration>6432</duration>
								<samplecharacteristics>
									<width>1280</width>
									<height>720</height>
								</samplecharacteristics>
							</video>
							<audio>
								<samplecharacteristics>
									<samplerate>48000</samplerate>
									<depth>16</depth>
								</samplecharacteristics>
								<channelcount>2</channelcount>
								<layout>stereo</layout>
								<audiochannel>
									<sourcechannel>1</sourcechannel>
									<channellabel>left</channellabel>
								</audiochannel>
								<audiochannel>
									<sourcechannel>2</sourcechannel>
									<channellabel>right</channellabel>
								</audiochannel>
							</audio>
						</media>
					</file>
					<sourcetrack>
						<mediatype>video</mediatype>
					</sourcetrack>
					<fielddominance>none</fielddominance>
					<itemhistory>
						<uuid>F881D6EC-BA72-4CA4-9C77-DB9C41688B41</uuid>
						<uuid>AFC2137A-6AF8-4952-BB38-FC1D36B698F2</uuid>
					</itemhistory>
				</clipitem>
				<clipitem id="OllieNormanDad014 ">
					<name>OllieNormanDad014</name>
					<duration>3264</duration>
					<rate>
						<ntsc>FALSE</ntsc>
						<timebase>25</timebase>
					</rate>
					<in>0</in>
					<out>3263</out>
					<start>108721</start>
					<end>111984</end>
					<pixelaspectratio>Square</pixelaspectratio>
					<anamorphic>FALSE</anamorphic>
					<alphatype>none</alphatype>
					<logginginfo>
						<scene/>
						<shottake/>
						<lognote/>
						<good>FALSE</good>
					</logginginfo>
					<labels>
						<label2/>
					</labels>
					<comments>
						<mastercomment1/>
						<mastercomment2/>
						<mastercomment3/>
						<mastercomment4/>
					</comments>
					<file id="OllieNormanDad014 1">
						<name>OllieNormanDad014</name>
						<pathurl>file://localhost/Volumes/Michael's%20Passport/woodbdrigenov2011media/OllieNormanDad014</pathurl>
						<rate>
							<timebase>25</timebase>
						</rate>
						<duration>3264</duration>
						<metadata>
							<storage>QuickTime</storage>
							<key>com.apple.finalcutstudio.media.uuid</key>
							<size>36</size>
							<type>UTF8</type>
							<value>FA269E9D-9E1D-471B-A36E-B5583568387F</value>
						</metadata>
						<metadata>
							<storage>QuickTime</storage>
							<key>com.apple.finalcutstudio.media.history.uuid</key>
							<size>36</size>
							<type>UTF8</type>
							<value>B4F717D8-BFF4-4E4B-AE23-A4F005EA1C21</value>
						</metadata>
						<timecode>
							<rate>
								<timebase>25</timebase>
							</rate>
							<string>00:00:00:00</string>
							<frame>0</frame>
							<displayformat>NDF</displayformat>
							<source>source</source>
							<reel>
								<name>Olliver Norman (dad)</name>
							</reel>
						</timecode>
						<media>
							<video>
								<duration>3264</duration>
								<samplecharacteristics>
									<width>1280</width>
									<height>720</height>
								</samplecharacteristics>
							</video>
							<audio>
								<samplecharacteristics>
									<samplerate>48000</samplerate>
									<depth>16</depth>
								</samplecharacteristics>
								<channelcount>2</channelcount>
								<layout>stereo</layout>
								<audiochannel>
									<sourcechannel>1</sourcechannel>
									<channellabel>left</channellabel>
								</audiochannel>
								<audiochannel>
									<sourcechannel>2</sourcechannel>
									<channellabel>right</channellabel>
								</audiochannel>
							</audio>
						</media>
					</file>
					<sourcetrack>
						<mediatype>video</mediatype>
					</sourcetrack>
					<fielddominance>none</fielddominance>
					<itemhistory>
						<uuid>95A3676F-D277-4013-8D1B-D0092E33676F</uuid>
						<uuid>767A6ECF-820C-432D-94BA-53BACEBDF5A3</uuid>
					</itemhistory>
				</clipitem>
				<clipitem id="OllieNormanDad015Subclipa">
					<name>OllieNormanDad015Subclipa</name>
					<duration>2312</duration>
					<rate>
						<ntsc>FALSE</ntsc>
						<timebase>25</timebase>
					</rate>
					<in>0</in>
					<out>2310</out>
					<start>112751</start>
					<end>115061</end>
					<pixelaspectratio>Square</pixelaspectratio>
					<anamorphic>FALSE</anamorphic>
					<alphatype>none</alphatype>
					<logginginfo>
						<scene/>
						<shottake/>
						<lognote/>
						<good>FALSE</good>
					</logginginfo>
					<labels>
						<label2/>
					</labels>
					<comments>
						<mastercomment1/>
						<mastercomment2/>
						<mastercomment3/>
						<mastercomment4/>
					</comments>
					<file id="OllieNormanDad015Subclipa1">
						<name>OllieNormanDad015Subclipa</name>
						<pathurl>file://localhost/Volumes/Michael's%20Passport/woodbdrigenov2011media/OllieNormanDad015Subclipa</pathurl>
						<rate>
							<timebase>25</timebase>
						</rate>
						<duration>2312</duration>
						<metadata>
							<storage>QuickTime</storage>
							<key>com.apple.finalcutstudio.media.uuid</key>
							<size>36</size>
							<type>UTF8</type>
							<value>EB5918B4-F8ED-424C-9325-F8F81C857E55</value>
						</metadata>
						<metadata>
							<storage>QuickTime</storage>
							<key>com.apple.finalcutstudio.media.history.uuid</key>
							<size>36</size>
							<type>UTF8</type>
							<value>10E33019-6B28-402E-9124-2626DB388D28</value>
						</metadata>
						<timecode>
							<rate>
								<timebase>25</timebase>
							</rate>
							<string>00:00:00:00</string>
							<frame>0</frame>
							<displayformat>NDF</displayformat>
							<source>source</source>
							<reel>
								<name>Olliver Norman (dad)</name>
							</reel>
						</timecode>
						<media>
							<video>
								<duration>2312</duration>
								<samplecharacteristics>
									<width>1280</width>
									<height>720</height>
								</samplecharacteristics>
							</video>
							<audio>
								<samplecharacteristics>
									<samplerate>48000</samplerate>
									<depth>16</depth>
								</samplecharacteristics>
								<channelcount>2</channelcount>
								<layout>stereo</layout>
								<audiochannel>
									<sourcechannel>1</sourcechannel>
									<channellabel>left</channellabel>
								</audiochannel>
								<audiochannel>
									<sourcechannel>2</sourcechannel>
									<channellabel>right</channellabel>
								</audiochannel>
							</audio>
						</media>
					</file>
					<sourcetrack>
						<mediatype>video</mediatype>
					</sourcetrack>
					<fielddominance>none</fielddominance>
					<itemhistory>
						<uuid>0BED1BAD-64D4-459A-8824-10C17C38DAAA</uuid>
						<uuid>F97FFE97-D407-4319-8889-10B0D352D095</uuid>
					</itemhistory>
				</clipitem>
				<clipitem id="OllieNormanDad015Subclipb">
					<name>OllieNormanDad015Subclipb</name>
					<duration>1043</duration>
					<rate>
						<ntsc>FALSE</ntsc>
						<timebase>25</timebase>
					</rate>
					<in>0</in>
					<out>1042</out>
					<start>115061</start>
					<end>116103</end>
					<pixelaspectratio>Square</pixelaspectratio>
					<anamorphic>FALSE</anamorphic>
					<alphatype>none</alphatype>
					<logginginfo>
						<scene/>
						<shottake/>
						<lognote/>
						<good>FALSE</good>
					</logginginfo>
					<labels>
						<label2/>
					</labels>
					<comments>
						<mastercomment1/>
						<mastercomment2/>
						<mastercomment3/>
						<mastercomment4/>
					</comments>
					<file id="OllieNormanDad015Subclipb1">
						<name>OllieNormanDad015Subclipb</name>
						<pathurl>file://localhost/Volumes/Michael's%20Passport/woodbdrigenov2011media/OllieNormanDad015Subclipb</pathurl>
						<rate>
							<timebase>25</timebase>
						</rate>
						<duration>1043</duration>
						<metadata>
							<storage>QuickTime</storage>
							<key>com.apple.finalcutstudio.media.uuid</key>
							<size>36</size>
							<type>UTF8</type>
							<value>708E7771-44DD-4E55-8FE4-7E428922D036</value>
						</metadata>
						<metadata>
							<storage>QuickTime</storage>
							<key>com.apple.finalcutstudio.media.history.uuid</key>
							<size>36</size>
							<type>UTF8</type>
							<value>10E33019-6B28-402E-9124-2626DB388D28</value>
						</metadata>
						<timecode>
							<rate>
								<timebase>25</timebase>
							</rate>
							<string>00:01:32:11</string>
							<frame>2311</frame>
							<displayformat>NDF</displayformat>
							<source>source</source>
							<reel>
								<name>Olliver Norman (dad)</name>
							</reel>
						</timecode>
						<media>
							<video>
								<duration>1043</duration>
								<samplecharacteristics>
									<width>1280</width>
									<height>720</height>
								</samplecharacteristics>
							</video>
							<audio>
								<samplecharacteristics>
									<samplerate>48000</samplerate>
									<depth>16</depth>
								</samplecharacteristics>
								<channelcount>2</channelcount>
								<layout>stereo</layout>
								<audiochannel>
									<sourcechannel>1</sourcechannel>
									<channellabel>left</channellabel>
								</audiochannel>
								<audiochannel>
									<sourcechannel>2</sourcechannel>
									<channellabel>right</channellabel>
								</audiochannel>
							</audio>
						</media>
					</file>
					<sourcetrack>
						<mediatype>video</mediatype>
					</sourcetrack>
					<fielddominance>none</fielddominance>
					<itemhistory>
						<uuid>D39D56FA-E139-4F71-8B7E-17FE4C58D466</uuid>
						<uuid>1F3791C0-9279-4578-A128-501B3A0524F0</uuid>
					</itemhistory>
				</clipitem>
				<clipitem id="OllieNormanDad015Subclipc">
					<name>OllieNormanDad015Subclipc</name>
					<duration>1699</duration>
					<rate>
						<ntsc>FALSE</ntsc>
						<timebase>25</timebase>
					</rate>
					<in>0</in>
					<out>1698</out>
					<start>116103</start>
					<end>117801</end>
					<pixelaspectratio>Square</pixelaspectratio>
					<anamorphic>FALSE</anamorphic>
					<alphatype>none</alphatype>
					<logginginfo>
						<scene/>
						<shottake/>
						<lognote/>
						<good>FALSE</good>
					</logginginfo>
					<labels>
						<label2/>
					</labels>
					<comments>
						<mastercomment1/>
						<mastercomment2/>
						<mastercomment3/>
						<mastercomment4/>
					</comments>
					<file id="OllieNormanDad015Subclipc1">
						<name>OllieNormanDad015Subclipc</name>
						<pathurl>file://localhost/Volumes/Michael's%20Passport/woodbdrigenov2011media/OllieNormanDad015Subclipc</pathurl>
						<rate>
							<timebase>25</timebase>
						</rate>
						<duration>1699</duration>
						<metadata>
							<storage>QuickTime</storage>
							<key>com.apple.finalcutstudio.media.uuid</key>
							<size>36</size>
							<type>UTF8</type>
							<value>38FAA0DB-A05F-4DF9-92E2-8B7FBA8BD071</value>
						</metadata>
						<metadata>
							<storage>QuickTime</storage>
							<key>com.apple.finalcutstudio.media.history.uuid</key>
							<size>36</size>
							<type>UTF8</type>
							<value>10E33019-6B28-402E-9124-2626DB388D28</value>
						</metadata>
						<timecode>
							<rate>
								<timebase>25</timebase>
							</rate>
							<string>00:02:14:03</string>
							<frame>3353</frame>
							<displayformat>NDF</displayformat>
							<source>source</source>
							<reel>
								<name>Olliver Norman (dad)</name>
							</reel>
						</timecode>
						<media>
							<video>
								<duration>1699</duration>
								<samplecharacteristics>
									<width>1280</width>
									<height>720</height>
								</samplecharacteristics>
							</video>
							<audio>
								<samplecharacteristics>
									<samplerate>48000</samplerate>
									<depth>16</depth>
								</samplecharacteristics>
								<channelcount>2</channelcount>
								<layout>stereo</layout>
								<audiochannel>
									<sourcechannel>1</sourcechannel>
									<channellabel>left</channellabel>
								</audiochannel>
								<audiochannel>
									<sourcechannel>2</sourcechannel>
									<channellabel>right</channellabel>
								</audiochannel>
							</audio>
						</media>
					</file>
					<sourcetrack>
						<mediatype>video</mediatype>
					</sourcetrack>
					<fielddominance>none</fielddominance>
					<itemhistory>
						<uuid>4F8FC798-8774-4086-A727-6E9ED1907E40</uuid>
						<uuid>73F148DF-5406-40E6-A2E8-9A5196AEAE01</uuid>
					</itemhistory>
				</clipitem>
				<clipitem id="OllieNormanDad016Subclipa">
					<name>OllieNormanDad016Subclipa</name>
					<duration>2425</duration>
					<rate>
						<ntsc>FALSE</ntsc>
						<timebase>25</timebase>
					</rate>
					<in>0</in>
					<out>2424</out>
					<start>119337</start>
					<end>121761</end>
					<pixelaspectratio>Square</pixelaspectratio>
					<anamorphic>FALSE</anamorphic>
					<alphatype>none</alphatype>
					<logginginfo>
						<scene/>
						<shottake/>
						<lognote/>
						<good>FALSE</good>
					</logginginfo>
					<labels>
						<label2/>
					</labels>
					<comments>
						<mastercomment1/>
						<mastercomment2/>
						<mastercomment3/>
						<mastercomment4/>
					</comments>
					<file id="OllieNormanDad016Subclipa1">
						<name>OllieNormanDad016Subclipa</name>
						<pathurl>file://localhost/Volumes/Michael's%20Passport/woodbdrigenov2011media/OllieNormanDad016Subclipa</pathurl>
						<rate>
							<timebase>25</timebase>
						</rate>
						<duration>2425</duration>
						<metadata>
							<storage>QuickTime</storage>
							<key>com.apple.finalcutstudio.media.uuid</key>
							<size>36</size>
							<type>UTF8</type>
							<value>91D5FE9F-31A5-43D3-8F77-63C1506716A7</value>
						</metadata>
						<metadata>
							<storage>QuickTime</storage>
							<key>com.apple.finalcutstudio.media.history.uuid</key>
							<size>36</size>
							<type>UTF8</type>
							<value>6754A43F-0A4C-4574-8755-733A773A4918</value>
						</metadata>
						<timecode>
							<rate>
								<timebase>25</timebase>
							</rate>
							<string>00:00:00:00</string>
							<frame>0</frame>
							<displayformat>NDF</displayformat>
							<source>source</source>
							<reel>
								<name>Olliver Norman (dad)</name>
							</reel>
						</timecode>
						<media>
							<video>
								<duration>2425</duration>
								<samplecharacteristics>
									<width>1280</width>
									<height>720</height>
								</samplecharacteristics>
							</video>
							<audio>
								<samplecharacteristics>
									<samplerate>48000</samplerate>
									<depth>16</depth>
								</samplecharacteristics>
								<channelcount>2</channelcount>
								<layout>stereo</layout>
								<audiochannel>
									<sourcechannel>1</sourcechannel>
									<channellabel>left</channellabel>
								</audiochannel>
								<audiochannel>
									<sourcechannel>2</sourcechannel>
									<channellabel>right</channellabel>
								</audiochannel>
							</audio>
						</media>
					</file>
					<sourcetrack>
						<mediatype>video</mediatype>
					</sourcetrack>
					<fielddominance>none</fielddominance>
					<itemhistory>
						<uuid>CFA0CEFC-C341-499A-836E-75C7AC261718</uuid>
						<uuid>E6EA7902-3E3A-4C1A-ADC7-80FA5CA6D5BB</uuid>
					</itemhistory>
				</clipitem>
				<clipitem id="OllieNormanDad016Subclipb">
					<name>OllieNormanDad016Subclipb</name>
					<duration>1712</duration>
					<rate>
						<ntsc>FALSE</ntsc>
						<timebase>25</timebase>
					</rate>
					<in>0</in>
					<out>1711</out>
					<start>121761</start>
					<end>123472</end>
					<pixelaspectratio>Square</pixelaspectratio>
					<anamorphic>FALSE</anamorphic>
					<alphatype>none</alphatype>
					<logginginfo>
						<scene/>
						<shottake/>
						<lognote/>
						<good>FALSE</good>
					</logginginfo>
					<labels>
						<label2/>
					</labels>
					<comments>
						<mastercomment1/>
						<mastercomment2/>
						<mastercomment3/>
						<mastercomment4/>
					</comments>
					<file id="OllieNormanDad016Subclipb1">
						<name>OllieNormanDad016Subclipb</name>
						<pathurl>file://localhost/Volumes/Michael's%20Passport/woodbdrigenov2011media/OllieNormanDad016Subclipb</pathurl>
						<rate>
							<timebase>25</timebase>
						</rate>
						<duration>1712</duration>
						<metadata>
							<storage>QuickTime</storage>
							<key>com.apple.finalcutstudio.media.uuid</key>
							<size>36</size>
							<type>UTF8</type>
							<value>B316CB12-1D08-4BA6-8331-08E9ACEBDA18</value>
						</metadata>
						<metadata>
							<storage>QuickTime</storage>
							<key>com.apple.finalcutstudio.media.history.uuid</key>
							<size>36</size>
							<type>UTF8</type>
							<value>6754A43F-0A4C-4574-8755-733A773A4918</value>
						</metadata>
						<timecode>
							<rate>
								<timebase>25</timebase>
							</rate>
							<string>00:01:36:24</string>
							<frame>2424</frame>
							<displayformat>NDF</displayformat>
							<source>source</source>
							<reel>
								<name>Olliver Norman (dad)</name>
							</reel>
						</timecode>
						<media>
							<video>
								<duration>1712</duration>
								<samplecharacteristics>
									<width>1280</width>
									<height>720</height>
								</samplecharacteristics>
							</video>
							<audio>
								<samplecharacteristics>
									<samplerate>48000</samplerate>
									<depth>16</depth>
								</samplecharacteristics>
								<channelcount>2</channelcount>
								<layout>stereo</layout>
								<audiochannel>
									<sourcechannel>1</sourcechannel>
									<channellabel>left</channellabel>
								</audiochannel>
								<audiochannel>
									<sourcechannel>2</sourcechannel>
									<channellabel>right</channellabel>
								</audiochannel>
							</audio>
						</media>
					</file>
					<sourcetrack>
						<mediatype>video</mediatype>
					</sourcetrack>
					<fielddominance>none</fielddominance>
					<itemhistory>
						<uuid>8CD6A48C-95BE-440D-B3FD-637EE0CCD844</uuid>
						<uuid>EB028C7D-9D9D-4386-91AC-B49DF0C79C68</uuid>
					</itemhistory>
				</clipitem>
				<clipitem id="OllieNormanDad016Subclipc">
					<name>OllieNormanDad016Subclipc</name>
					<duration>1865</duration>
					<rate>
						<ntsc>FALSE</ntsc>
						<timebase>25</timebase>
					</rate>
					<in>0</in>
					<out>1864</out>
					<start>123472</start>
					<end>125336</end>
					<pixelaspectratio>Square</pixelaspectratio>
					<anamorphic>FALSE</anamorphic>
					<alphatype>none</alphatype>
					<logginginfo>
						<scene/>
						<shottake/>
						<lognote/>
						<good>FALSE</good>
					</logginginfo>
					<labels>
						<label2/>
					</labels>
					<comments>
						<mastercomment1/>
						<mastercomment2/>
						<mastercomment3/>
						<mastercomment4/>
					</comments>
					<file id="OllieNormanDad016Subclipc1">
						<name>OllieNormanDad016Subclipc</name>
						<pathurl>file://localhost/Volumes/Michael's%20Passport/woodbdrigenov2011media/OllieNormanDad016Subclipc</pathurl>
						<rate>
							<timebase>25</timebase>
						</rate>
						<duration>1865</duration>
						<metadata>
							<storage>QuickTime</storage>
							<key>com.apple.finalcutstudio.media.uuid</key>
							<size>36</size>
							<type>UTF8</type>
							<value>F178571C-4792-4CAB-B44D-C4FB62185C70</value>
						</metadata>
						<metadata>
							<storage>QuickTime</storage>
							<key>com.apple.finalcutstudio.media.history.uuid</key>
							<size>36</size>
							<type>UTF8</type>
							<value>6754A43F-0A4C-4574-8755-733A773A4918</value>
						</metadata>
						<timecode>
							<rate>
								<timebase>25</timebase>
							</rate>
							<string>00:02:45:10</string>
							<frame>4135</frame>
							<displayformat>NDF</displayformat>
							<source>source</source>
							<reel>
								<name>Olliver Norman (dad)</name>
							</reel>
						</timecode>
						<media>
							<video>
								<duration>1865</duration>
								<samplecharacteristics>
									<width>1280</width>
									<height>720</height>
								</samplecharacteristics>
							</video>
							<audio>
								<samplecharacteristics>
									<samplerate>48000</samplerate>
									<depth>16</depth>
								</samplecharacteristics>
								<channelcount>2</channelcount>
								<layout>stereo</layout>
								<audiochannel>
									<sourcechannel>1</sourcechannel>
									<channellabel>left</channellabel>
								</audiochannel>
								<audiochannel>
									<sourcechannel>2</sourcechannel>
									<channellabel>right</channellabel>
								</audiochannel>
							</audio>
						</media>
					</file>
					<sourcetrack>
						<mediatype>video</mediatype>
					</sourcetrack>
					<fielddominance>none</fielddominance>
					<itemhistory>
						<uuid>5AFD8B8D-72B2-4CEA-93A9-05A52F3433C8</uuid>
						<uuid>812D6A53-EA1A-4D4B-A68D-C3F76F615700</uuid>
					</itemhistory>
				</clipitem>
				<clipitem id="OllieNormanDad017 ">
					<name>OllieNormanDad017</name>
					<duration>888</duration>
					<rate>
						<ntsc>FALSE</ntsc>
						<timebase>25</timebase>
					</rate>
					<in>0</in>
					<out>887</out>
					<start>127130</start>
					<end>128017</end>
					<pixelaspectratio>Square</pixelaspectratio>
					<anamorphic>FALSE</anamorphic>
					<alphatype>none</alphatype>
					<logginginfo>
						<scene/>
						<shottake/>
						<lognote/>
						<good>FALSE</good>
					</logginginfo>
					<labels>
						<label2/>
					</labels>
					<comments>
						<mastercomment1/>
						<mastercomment2/>
						<mastercomment3/>
						<mastercomment4/>
					</comments>
					<file id="OllieNormanDad017 1">
						<name>OllieNormanDad017</name>
						<pathurl>file://localhost/Volumes/Michael's%20Passport/woodbdrigenov2011media/OllieNormanDad017</pathurl>
						<rate>
							<timebase>25</timebase>
						</rate>
						<duration>888</duration>
						<metadata>
							<storage>QuickTime</storage>
							<key>com.apple.finalcutstudio.media.uuid</key>
							<size>36</size>
							<type>UTF8</type>
							<value>559DD3BE-FCAE-4E0D-AAC3-FCF8071A5496</value>
						</metadata>
						<metadata>
							<storage>QuickTime</storage>
							<key>com.apple.finalcutstudio.media.history.uuid</key>
							<size>36</size>
							<type>UTF8</type>
							<value>831F02A0-36CE-4698-BF51-8BA643F570F9</value>
						</metadata>
						<timecode>
							<rate>
								<timebase>25</timebase>
							</rate>
							<string>00:00:00:00</string>
							<frame>0</frame>
							<displayformat>NDF</displayformat>
							<source>source</source>
							<reel>
								<name>Olliver Norman (dad)</name>
							</reel>
						</timecode>
						<media>
							<video>
								<duration>888</duration>
								<samplecharacteristics>
									<width>1280</width>
									<height>720</height>
								</samplecharacteristics>
							</video>
							<audio>
								<samplecharacteristics>
									<samplerate>48000</samplerate>
									<depth>16</depth>
								</samplecharacteristics>
								<channelcount>2</channelcount>
								<layout>stereo</layout>
								<audiochannel>
									<sourcechannel>1</sourcechannel>
									<channellabel>left</channellabel>
								</audiochannel>
								<audiochannel>
									<sourcechannel>2</sourcechannel>
									<channellabel>right</channellabel>
								</audiochannel>
							</audio>
						</media>
					</file>
					<sourcetrack>
						<mediatype>video</mediatype>
					</sourcetrack>
					<fielddominance>none</fielddominance>
					<itemhistory>
						<uuid>53746B74-2048-46EF-A631-E1B1F0805E40</uuid>
						<uuid>1751DD9D-4FFB-4FF8-843F-6AE243AFBF2C</uuid>
					</itemhistory>
				</clipitem>
				<clipitem id="OllieNormanDad018Subclipa">
					<name>OllieNormanDad018Subclipa</name>
					<duration>560</duration>
					<rate>
						<ntsc>FALSE</ntsc>
						<timebase>25</timebase>
					</rate>
					<in>0</in>
					<out>559</out>
					<start>128561</start>
					<end>129120</end>
					<pixelaspectratio>Square</pixelaspectratio>
					<anamorphic>FALSE</anamorphic>
					<alphatype>none</alphatype>
					<logginginfo>
						<scene/>
						<shottake/>
						<lognote/>
						<good>FALSE</good>
					</logginginfo>
					<labels>
						<label2/>
					</labels>
					<comments>
						<mastercomment1/>
						<mastercomment2/>
						<mastercomment3/>
						<mastercomment4/>
					</comments>
					<file id="OllieNormanDad018Subclipa1">
						<name>OllieNormanDad018Subclipa</name>
						<pathurl>file://localhost/Volumes/Michael's%20Passport/woodbdrigenov2011media/OllieNormanDad018Subclipa</pathurl>
						<rate>
							<timebase>25</timebase>
						</rate>
						<duration>560</duration>
						<metadata>
							<storage>QuickTime</storage>
							<key>com.apple.finalcutstudio.media.uuid</key>
							<size>36</size>
							<type>UTF8</type>
							<value>75FBBC77-496C-4E2D-8454-F2393FA87400</value>
						</metadata>
						<metadata>
							<storage>QuickTime</storage>
							<key>com.apple.finalcutstudio.media.history.uuid</key>
							<size>36</size>
							<type>UTF8</type>
							<value>707FE4DD-D072-4923-87A3-143223679075</value>
						</metadata>
						<timecode>
							<rate>
								<timebase>25</timebase>
							</rate>
							<string>00:00:00:00</string>
							<frame>0</frame>
							<displayformat>NDF</displayformat>
							<source>source</source>
							<reel>
								<name>Olliver Norman (dad)</name>
							</reel>
						</timecode>
						<media>
							<video>
								<duration>560</duration>
								<samplecharacteristics>
									<width>1280</width>
									<height>720</height>
								</samplecharacteristics>
							</video>
							<audio>
								<samplecharacteristics>
									<samplerate>48000</samplerate>
									<depth>16</depth>
								</samplecharacteristics>
								<channelcount>2</channelcount>
								<layout>stereo</layout>
								<audiochannel>
									<sourcechannel>1</sourcechannel>
									<channellabel>left</channellabel>
								</audiochannel>
								<audiochannel>
									<sourcechannel>2</sourcechannel>
									<channellabel>right</channellabel>
								</audiochannel>
							</audio>
						</media>
					</file>
					<sourcetrack>
						<mediatype>video</mediatype>
					</sourcetrack>
					<fielddominance>none</fielddominance>
					<itemhistory>
						<uuid>A7D5A65C-6563-42C7-866F-66C8F2DE5A92</uuid>
						<uuid>C2383314-E7AB-4199-AAC3-496168D3001D</uuid>
					</itemhistory>
				</clipitem>
				<clipitem id="OllieNormanDad018Subclipb">
					<name>OllieNormanDad018Subclipb</name>
					<duration>569</duration>
					<rate>
						<ntsc>FALSE</ntsc>
						<timebase>25</timebase>
					</rate>
					<in>0</in>
					<out>568</out>
					<start>129120</start>
					<end>129688</end>
					<pixelaspectratio>Square</pixelaspectratio>
					<anamorphic>FALSE</anamorphic>
					<alphatype>none</alphatype>
					<logginginfo>
						<scene/>
						<shottake/>
						<lognote/>
						<good>FALSE</good>
					</logginginfo>
					<labels>
						<label2/>
					</labels>
					<comments>
						<mastercomment1/>
						<mastercomment2/>
						<mastercomment3/>
						<mastercomment4/>
					</comments>
					<file id="OllieNormanDad018Subclipb1">
						<name>OllieNormanDad018Subclipb</name>
						<pathurl>file://localhost/Volumes/Michael's%20Passport/woodbdrigenov2011media/OllieNormanDad018Subclipb</pathurl>
						<rate>
							<timebase>25</timebase>
						</rate>
						<duration>569</duration>
						<metadata>
							<storage>QuickTime</storage>
							<key>com.apple.finalcutstudio.media.uuid</key>
							<size>36</size>
							<type>UTF8</type>
							<value>CC9BB015-1FFD-4B73-B0C2-8267176822F4</value>
						</metadata>
						<metadata>
							<storage>QuickTime</storage>
							<key>com.apple.finalcutstudio.media.history.uuid</key>
							<size>36</size>
							<type>UTF8</type>
							<value>707FE4DD-D072-4923-87A3-143223679075</value>
						</metadata>
						<timecode>
							<rate>
								<timebase>25</timebase>
							</rate>
							<string>00:00:22:09</string>
							<frame>559</frame>
							<displayformat>NDF</displayformat>
							<source>source</source>
							<reel>
								<name>Olliver Norman (dad)</name>
							</reel>
						</timecode>
						<media>
							<video>
								<duration>569</duration>
								<samplecharacteristics>
									<width>1280</width>
									<height>720</height>
								</samplecharacteristics>
							</video>
							<audio>
								<samplecharacteristics>
									<samplerate>48000</samplerate>
									<depth>16</depth>
								</samplecharacteristics>
								<channelcount>2</channelcount>
								<layout>stereo</layout>
								<audiochannel>
									<sourcechannel>1</sourcechannel>
									<channellabel>left</channellabel>
								</audiochannel>
								<audiochannel>
									<sourcechannel>2</sourcechannel>
									<channellabel>right</channellabel>
								</audiochannel>
							</audio>
						</media>
					</file>
					<sourcetrack>
						<mediatype>video</mediatype>
					</sourcetrack>
					<fielddominance>none</fielddominance>
					<itemhistory>
						<uuid>F07BB30C-EF9B-47BB-BAA0-556CBA456E1E</uuid>
						<uuid>1D1ECFB5-09B2-49DA-9526-C1F868F43167</uuid>
					</itemhistory>
				</clipitem>
				<enabled>TRUE</enabled>
				<locked>FALSE</locked>
			</track>
			<track>
				<clipitem id="Michael002 ">
					<name>Michael002</name>
					<duration>540</duration>
					<rate>
						<ntsc>FALSE</ntsc>
						<timebase>25</timebase>
					</rate>
					<in>0</in>
					<out>540</out>
					<start>622</start>
					<end>1162</end>
					<pixelaspectratio>Square</pixelaspectratio>
					<enabled>TRUE</enabled>
					<anamorphic>FALSE</anamorphic>
					<alphatype>none</alphatype>
					<logginginfo>
						<scene/>
						<shottake/>
						<lognote/>
						<good>FALSE</good>
					</logginginfo>
					<labels>
						<label2/>
					</labels>
					<comments>
						<mastercomment1/>
						<mastercomment2/>
						<mastercomment3/>
						<mastercomment4/>
					</comments>
					<file id="Michael002 1">
						<name>Michael002</name>
						<pathurl>file://localhost/Volumes/Michael's%20Passport/woodbdrigenov2011media/Michael002</pathurl>
						<rate>
							<timebase>25</timebase>
						</rate>
						<duration>540</duration>
						<metadata>
							<storage>QuickTime</storage>
							<key>com.apple.finalcutstudio.media.uuid</key>
							<size>36</size>
							<type>UTF8</type>
							<value>BC2E2017-D48C-49DA-B9CD-0890B9D74F4B</value>
						</metadata>
						<metadata>
							<storage>QuickTime</storage>
							<key>com.apple.finalcutstudio.media.history.uuid</key>
							<size>36</size>
							<type>UTF8</type>
							<value>DCA0E6C0-78D6-4F95-A5A0-461A80444263</value>
						</metadata>
						<timecode>
							<rate>
								<timebase>25</timebase>
							</rate>
							<string>00:00:00:00</string>
							<frame>0</frame>
							<displayformat>NDF</displayformat>
							<source>source</source>
							<reel>
								<name>Michael</name>
							</reel>
						</timecode>
						<media>
							<video>
								<duration>540</duration>
								<samplecharacteristics>
									<width>1280</width>
									<height>720</height>
								</samplecharacteristics>
							</video>
							<audio>
								<samplecharacteristics>
									<samplerate>48000</samplerate>
									<depth>16</depth>
								</samplecharacteristics>
								<channelcount>2</channelcount>
								<layout>stereo</layout>
								<audiochannel>
									<sourcechannel>1</sourcechannel>
									<channellabel>left</channellabel>
								</audiochannel>
								<audiochannel>
									<sourcechannel>2</sourcechannel>
									<channellabel>right</channellabel>
								</audiochannel>
							</audio>
						</media>
					</file>
					<sourcetrack>
						<mediatype>video</mediatype>
					</sourcetrack>
					<link>
						<linkclipref>Michael002 </linkclipref>
						<mediatype>video</mediatype>
						<trackindex>4</trackindex>
						<clipindex>1</clipindex>
					</link>
					<link>
						<linkclipref>Michael002 2</linkclipref>
						<mediatype>audio</mediatype>
						<trackindex>5</trackindex>
						<clipindex>1</clipindex>
						<groupindex>1</groupindex>
					</link>
					<link>
						<linkclipref>Michael002 3</linkclipref>
						<mediatype>audio</mediatype>
						<trackindex>6</trackindex>
						<clipindex>1</clipindex>
						<groupindex>1</groupindex>
					</link>
					<fielddominance>none</fielddominance>
					<itemhistory>
						<uuid>3F1C56A5-C2F2-473C-8D7C-C8D6415FB116</uuid>
						<uuid>9FE96208-3B87-4E24-9649-6118F27C5C34</uuid>
					</itemhistory>
				</clipitem>
				<clipitem id="Michael003 ">
					<name>Michael003</name>
					<duration>228</duration>
					<rate>
						<ntsc>FALSE</ntsc>
						<timebase>25</timebase>
					</rate>
					<in>0</in>
					<out>228</out>
					<start>1162</start>
					<end>1390</end>
					<pixelaspectratio>Square</pixelaspectratio>
					<enabled>TRUE</enabled>
					<anamorphic>FALSE</anamorphic>
					<alphatype>none</alphatype>
					<logginginfo>
						<scene/>
						<shottake/>
						<lognote/>
						<good>FALSE</good>
					</logginginfo>
					<labels>
						<label2/>
					</labels>
					<comments>
						<mastercomment1/>
						<mastercomment2/>
						<mastercomment3/>
						<mastercomment4/>
					</comments>
					<file id="Michael003 1">
						<name>Michael003</name>
						<pathurl>file://localhost/Volumes/Michael's%20Passport/woodbdrigenov2011media/Michael003</pathurl>
						<rate>
							<timebase>25</timebase>
						</rate>
						<duration>228</duration>
						<metadata>
							<storage>QuickTime</storage>
							<key>com.apple.finalcutstudio.media.uuid</key>
							<size>36</size>
							<type>UTF8</type>
							<value>067CA6A3-F7DF-4F42-80CC-99D4FFB2E557</value>
						</metadata>
						<metadata>
							<storage>QuickTime</storage>
							<key>com.apple.finalcutstudio.media.history.uuid</key>
							<size>36</size>
							<type>UTF8</type>
							<value>819327FA-3FC3-4AB7-AFBC-D2A6D1431293</value>
						</metadata>
						<timecode>
							<rate>
								<timebase>25</timebase>
							</rate>
							<string>00:00:00:00</string>
							<frame>0</frame>
							<displayformat>NDF</displayformat>
							<source>source</source>
							<reel>
								<name>Michael</name>
							</reel>
						</timecode>
						<media>
							<video>
								<duration>228</duration>
								<samplecharacteristics>
									<width>1280</width>
									<height>720</height>
								</samplecharacteristics>
							</video>
							<audio>
								<samplecharacteristics>
									<samplerate>48000</samplerate>
									<depth>16</depth>
								</samplecharacteristics>
								<channelcount>2</channelcount>
								<layout>stereo</layout>
								<audiochannel>
									<sourcechannel>1</sourcechannel>
									<channellabel>left</channellabel>
								</audiochannel>
								<audiochannel>
									<sourcechannel>2</sourcechannel>
									<channellabel>right</channellabel>
								</audiochannel>
							</audio>
						</media>
					</file>
					<sourcetrack>
						<mediatype>video</mediatype>
					</sourcetrack>
					<link>
						<linkclipref>Michael003 </linkclipref>
						<mediatype>video</mediatype>
						<trackindex>4</trackindex>
						<clipindex>2</clipindex>
					</link>
					<link>
						<linkclipref>Michael003 2</linkclipref>
						<mediatype>audio</mediatype>
						<trackindex>5</trackindex>
						<clipindex>2</clipindex>
						<groupindex>1</groupindex>
					</link>
					<link>
						<linkclipref>Michael003 3</linkclipref>
						<mediatype>audio</mediatype>
						<trackindex>6</trackindex>
						<clipindex>2</clipindex>
						<groupindex>1</groupindex>
					</link>
					<fielddominance>none</fielddominance>
					<itemhistory>
						<uuid>7415C19C-BA85-40B6-8D80-956263805BE2</uuid>
						<uuid>400BF3E5-41B4-4CD0-90E4-68BEB63D7FA4</uuid>
					</itemhistory>
				</clipitem>
				<clipitem id="Michael004 ">
					<name>Michael004</name>
					<duration>192</duration>
					<rate>
						<ntsc>FALSE</ntsc>
						<timebase>25</timebase>
					</rate>
					<in>0</in>
					<out>192</out>
					<start>1390</start>
					<end>1582</end>
					<pixelaspectratio>Square</pixelaspectratio>
					<enabled>TRUE</enabled>
					<anamorphic>FALSE</anamorphic>
					<alphatype>none</alphatype>
					<logginginfo>
						<scene/>
						<shottake/>
						<lognote/>
						<good>FALSE</good>
					</logginginfo>
					<labels>
						<label2/>
					</labels>
					<comments>
						<mastercomment1/>
						<mastercomment2/>
						<mastercomment3/>
						<mastercomment4/>
					</comments>
					<file id="Michael004 1">
						<name>Michael004</name>
						<pathurl>file://localhost/Volumes/Michael's%20Passport/woodbdrigenov2011media/Michael004</pathurl>
						<rate>
							<timebase>25</timebase>
						</rate>
						<duration>192</duration>
						<metadata>
							<storage>QuickTime</storage>
							<key>com.apple.finalcutstudio.media.uuid</key>
							<size>36</size>
							<type>UTF8</type>
							<value>858D9265-4EF6-4778-827D-D08A846605BE</value>
						</metadata>
						<metadata>
							<storage>QuickTime</storage>
							<key>com.apple.finalcutstudio.media.history.uuid</key>
							<size>36</size>
							<type>UTF8</type>
							<value>4DE8FA5A-882B-496E-9BB8-6C4AF9D73D9D</value>
						</metadata>
						<timecode>
							<rate>
								<timebase>25</timebase>
							</rate>
							<string>00:00:00:00</string>
							<frame>0</frame>
							<displayformat>NDF</displayformat>
							<source>source</source>
							<reel>
								<name>Michael</name>
							</reel>
						</timecode>
						<media>
							<video>
								<duration>192</duration>
								<samplecharacteristics>
									<width>1280</width>
									<height>720</height>
								</samplecharacteristics>
							</video>
							<audio>
								<samplecharacteristics>
									<samplerate>48000</samplerate>
									<depth>16</depth>
								</samplecharacteristics>
								<channelcount>2</channelcount>
								<layout>stereo</layout>
								<audiochannel>
									<sourcechannel>1</sourcechannel>
									<channellabel>left</channellabel>
								</audiochannel>
								<audiochannel>
									<sourcechannel>2</sourcechannel>
									<channellabel>right</channellabel>
								</audiochannel>
							</audio>
						</media>
					</file>
					<sourcetrack>
						<mediatype>video</mediatype>
					</sourcetrack>
					<link>
						<linkclipref>Michael004 </linkclipref>
						<mediatype>video</mediatype>
						<trackindex>4</trackindex>
						<clipindex>3</clipindex>
					</link>
					<link>
						<linkclipref>Michael004 2</linkclipref>
						<mediatype>audio</mediatype>
						<trackindex>5</trackindex>
						<clipindex>3</clipindex>
						<groupindex>1</groupindex>
					</link>
					<link>
						<linkclipref>Michael004 3</linkclipref>
						<mediatype>audio</mediatype>
						<trackindex>6</trackindex>
						<clipindex>3</clipindex>
						<groupindex>1</groupindex>
					</link>
					<fielddominance>none</fielddominance>
					<itemhistory>
						<uuid>63697479-2E6E-418D-8E5D-9970CFF2899C</uuid>
						<uuid>FD49F984-1FF8-4646-8725-E1E0423539CF</uuid>
					</itemhistory>
				</clipitem>
				<clipitem id="Michael005Subclipa">
					<name>Michael005Subclipa</name>
					<duration>285</duration>
					<rate>
						<ntsc>FALSE</ntsc>
						<timebase>25</timebase>
					</rate>
					<in>0</in>
					<out>285</out>
					<start>1582</start>
					<end>1867</end>
					<pixelaspectratio>Square</pixelaspectratio>
					<enabled>TRUE</enabled>
					<anamorphic>FALSE</anamorphic>
					<alphatype>none</alphatype>
					<logginginfo>
						<scene/>
						<shottake/>
						<lognote/>
						<good>FALSE</good>
					</logginginfo>
					<labels>
						<label2/>
					</labels>
					<comments>
						<mastercomment1/>
						<mastercomment2/>
						<mastercomment3/>
						<mastercomment4/>
					</comments>
					<file id="Michael005Subclipa1">
						<name>Michael005Subclipa</name>
						<pathurl>file://localhost/Volumes/Michael's%20Passport/woodbdrigenov2011media/Michael005Subclipa</pathurl>
						<rate>
							<timebase>25</timebase>
						</rate>
						<duration>285</duration>
						<metadata>
							<storage>QuickTime</storage>
							<key>com.apple.finalcutstudio.media.uuid</key>
							<size>36</size>
							<type>UTF8</type>
							<value>7FE4FA56-C608-405A-8CCC-863500EFEB3B</value>
						</metadata>
						<metadata>
							<storage>QuickTime</storage>
							<key>com.apple.finalcutstudio.media.history.uuid</key>
							<size>36</size>
							<type>UTF8</type>
							<value>3E7B0624-CC1C-46E1-9666-1EA44D46C95D</value>
						</metadata>
						<timecode>
							<rate>
								<timebase>25</timebase>
							</rate>
							<string>00:00:00:00</string>
							<frame>0</frame>
							<displayformat>NDF</displayformat>
							<source>source</source>
							<reel>
								<name>Michael</name>
							</reel>
						</timecode>
						<media>
							<video>
								<duration>285</duration>
								<samplecharacteristics>
									<width>1280</width>
									<height>720</height>
								</samplecharacteristics>
							</video>
							<audio>
								<samplecharacteristics>
									<samplerate>48000</samplerate>
									<depth>16</depth>
								</samplecharacteristics>
								<channelcount>2</channelcount>
								<layout>stereo</layout>
								<audiochannel>
									<sourcechannel>1</sourcechannel>
									<channellabel>left</channellabel>
								</audiochannel>
								<audiochannel>
									<sourcechannel>2</sourcechannel>
									<channellabel>right</channellabel>
								</audiochannel>
							</audio>
						</media>
					</file>
					<sourcetrack>
						<mediatype>video</mediatype>
					</sourcetrack>
					<link>
						<linkclipref>Michael005Subclipa</linkclipref>
						<mediatype>video</mediatype>
						<trackindex>4</trackindex>
						<clipindex>4</clipindex>
					</link>
					<link>
						<linkclipref>Michael005Subclipa2</linkclipref>
						<mediatype>audio</mediatype>
						<trackindex>5</trackindex>
						<clipindex>4</clipindex>
						<groupindex>1</groupindex>
					</link>
					<link>
						<linkclipref>Michael005Subclipa3</linkclipref>
						<mediatype>audio</mediatype>
						<trackindex>6</trackindex>
						<clipindex>4</clipindex>
						<groupindex>1</groupindex>
					</link>
					<fielddominance>none</fielddominance>
					<itemhistory>
						<uuid>6D8977D7-81B2-47A3-8BE6-6BF1B9767B1F</uuid>
						<uuid>3F1471DB-8CB0-48B3-90C6-5FE0E0867DB7</uuid>
					</itemhistory>
				</clipitem>
				<clipitem id="Michael005Subclipb">
					<name>Michael005Subclipb</name>
					<duration>196</duration>
					<rate>
						<ntsc>FALSE</ntsc>
						<timebase>25</timebase>
					</rate>
					<in>0</in>
					<out>196</out>
					<start>1867</start>
					<end>2063</end>
					<pixelaspectratio>Square</pixelaspectratio>
					<enabled>TRUE</enabled>
					<anamorphic>FALSE</anamorphic>
					<alphatype>none</alphatype>
					<logginginfo>
						<scene/>
						<shottake/>
						<lognote/>
						<good>FALSE</good>
					</logginginfo>
					<labels>
						<label2/>
					</labels>
					<comments>
						<mastercomment1/>
						<mastercomment2/>
						<mastercomment3/>
						<mastercomment4/>
					</comments>
					<file id="Michael005Subclipb1">
						<name>Michael005Subclipb</name>
						<pathurl>file://localhost/Volumes/Michael's%20Passport/woodbdrigenov2011media/Michael005Subclipb</pathurl>
						<rate>
							<timebase>25</timebase>
						</rate>
						<duration>196</duration>
						<metadata>
							<storage>QuickTime</storage>
							<key>com.apple.finalcutstudio.media.uuid</key>
							<size>36</size>
							<type>UTF8</type>
							<value>071186DB-32A4-4271-A582-547BB2AB8817</value>
						</metadata>
						<metadata>
							<storage>QuickTime</storage>
							<key>com.apple.finalcutstudio.media.history.uuid</key>
							<size>36</size>
							<type>UTF8</type>
							<value>3E7B0624-CC1C-46E1-9666-1EA44D46C95D</value>
						</metadata>
						<timecode>
							<rate>
								<timebase>25</timebase>
							</rate>
							<string>00:00:11:09</string>
							<frame>284</frame>
							<displayformat>NDF</displayformat>
							<source>source</source>
							<reel>
								<name>Michael</name>
							</reel>
						</timecode>
						<media>
							<video>
								<duration>196</duration>
								<samplecharacteristics>
									<width>1280</width>
									<height>720</height>
								</samplecharacteristics>
							</video>
							<audio>
								<samplecharacteristics>
									<samplerate>48000</samplerate>
									<depth>16</depth>
								</samplecharacteristics>
								<channelcount>2</channelcount>
								<layout>stereo</layout>
								<audiochannel>
									<sourcechannel>1</sourcechannel>
									<channellabel>left</channellabel>
								</audiochannel>
								<audiochannel>
									<sourcechannel>2</sourcechannel>
									<channellabel>right</channellabel>
								</audiochannel>
							</audio>
						</media>
					</file>
					<sourcetrack>
						<mediatype>video</mediatype>
					</sourcetrack>
					<link>
						<linkclipref>Michael005Subclipb</linkclipref>
						<mediatype>video</mediatype>
						<trackindex>4</trackindex>
						<clipindex>5</clipindex>
					</link>
					<link>
						<linkclipref>Michael005Subclipb2</linkclipref>
						<mediatype>audio</mediatype>
						<trackindex>5</trackindex>
						<clipindex>5</clipindex>
						<groupindex>1</groupindex>
					</link>
					<link>
						<linkclipref>Michael005Subclipb3</linkclipref>
						<mediatype>audio</mediatype>
						<trackindex>6</trackindex>
						<clipindex>5</clipindex>
						<groupindex>1</groupindex>
					</link>
					<fielddominance>none</fielddominance>
					<itemhistory>
						<uuid>70C7645E-E1B1-4499-B3C0-8403907600EE</uuid>
						<uuid>86161AAE-4787-484D-9449-690C68AF68F1</uuid>
					</itemhistory>
				</clipitem>
				<clipitem id="Michael006Subclipa">
					<name>Michael006Subclipa</name>
					<duration>370</duration>
					<rate>
						<ntsc>FALSE</ntsc>
						<timebase>25</timebase>
					</rate>
					<in>0</in>
					<out>370</out>
					<start>3590</start>
					<end>3960</end>
					<pixelaspectratio>Square</pixelaspectratio>
					<enabled>TRUE</enabled>
					<anamorphic>FALSE</anamorphic>
					<alphatype>none</alphatype>
					<logginginfo>
						<scene/>
						<shottake/>
						<lognote/>
						<good>FALSE</good>
					</logginginfo>
					<labels>
						<label2/>
					</labels>
					<comments>
						<mastercomment1/>
						<mastercomment2/>
						<mastercomment3/>
						<mastercomment4/>
					</comments>
					<file id="Michael006Subclipa1">
						<name>Michael006Subclipa</name>
						<pathurl>file://localhost/Volumes/Michael's%20Passport/woodbdrigenov2011media/Michael006Subclipa</pathurl>
						<rate>
							<timebase>25</timebase>
						</rate>
						<duration>370</duration>
						<metadata>
							<storage>QuickTime</storage>
							<key>com.apple.finalcutstudio.media.uuid</key>
							<size>36</size>
							<type>UTF8</type>
							<value>BCECC97F-6262-4383-BE8A-674F6C40C142</value>
						</metadata>
						<metadata>
							<storage>QuickTime</storage>
							<key>com.apple.finalcutstudio.media.history.uuid</key>
							<size>36</size>
							<type>UTF8</type>
							<value>34B5A8D6-CCB3-4BEB-A150-42F8D36F347F</value>
						</metadata>
						<timecode>
							<rate>
								<timebase>25</timebase>
							</rate>
							<string>00:00:00:00</string>
							<frame>0</frame>
							<displayformat>NDF</displayformat>
							<source>source</source>
							<reel>
								<name>Michael</name>
							</reel>
						</timecode>
						<media>
							<video>
								<duration>370</duration>
								<samplecharacteristics>
									<width>1280</width>
									<height>720</height>
								</samplecharacteristics>
							</video>
							<audio>
								<samplecharacteristics>
									<samplerate>48000</samplerate>
									<depth>16</depth>
								</samplecharacteristics>
								<channelcount>2</channelcount>
								<layout>stereo</layout>
								<audiochannel>
									<sourcechannel>1</sourcechannel>
									<channellabel>left</channellabel>
								</audiochannel>
								<audiochannel>
									<sourcechannel>2</sourcechannel>
									<channellabel>right</channellabel>
								</audiochannel>
							</audio>
						</media>
					</file>
					<sourcetrack>
						<mediatype>video</mediatype>
					</sourcetrack>
					<link>
						<linkclipref>Michael006Subclipa</linkclipref>
						<mediatype>video</mediatype>
						<trackindex>4</trackindex>
						<clipindex>6</clipindex>
					</link>
					<link>
						<linkclipref>Michael006Subclipa2</linkclipref>
						<mediatype>audio</mediatype>
						<trackindex>5</trackindex>
						<clipindex>6</clipindex>
						<groupindex>1</groupindex>
					</link>
					<link>
						<linkclipref>Michael006Subclipa3</linkclipref>
						<mediatype>audio</mediatype>
						<trackindex>6</trackindex>
						<clipindex>6</clipindex>
						<groupindex>1</groupindex>
					</link>
					<fielddominance>none</fielddominance>
					<itemhistory>
						<uuid>924D1EEB-6841-42DC-900B-F1D5DA4FE6E2</uuid>
						<uuid>E20C7DC6-D181-40FC-818E-30CE65C7C600</uuid>
					</itemhistory>
				</clipitem>
				<clipitem id="Michael006Subclipb">
					<name>Michael006Subclipb</name>
					<duration>231</duration>
					<rate>
						<ntsc>FALSE</ntsc>
						<timebase>25</timebase>
					</rate>
					<in>0</in>
					<out>231</out>
					<start>3960</start>
					<end>4191</end>
					<pixelaspectratio>Square</pixelaspectratio>
					<enabled>TRUE</enabled>
					<anamorphic>FALSE</anamorphic>
					<alphatype>none</alphatype>
					<logginginfo>
						<scene/>
						<shottake/>
						<lognote/>
						<good>FALSE</good>
					</logginginfo>
					<labels>
						<label2/>
					</labels>
					<comments>
						<mastercomment1/>
						<mastercomment2/>
						<mastercomment3/>
						<mastercomment4/>
					</comments>
					<file id="Michael006Subclipb1">
						<name>Michael006Subclipb</name>
						<pathurl>file://localhost/Volumes/Michael's%20Passport/woodbdrigenov2011media/Michael006Subclipb</pathurl>
						<rate>
							<timebase>25</timebase>
						</rate>
						<duration>231</duration>
						<metadata>
							<storage>QuickTime</storage>
							<key>com.apple.finalcutstudio.media.uuid</key>
							<size>36</size>
							<type>UTF8</type>
							<value>7A37582E-37C7-4D90-83CE-05062591422C</value>
						</metadata>
						<metadata>
							<storage>QuickTime</storage>
							<key>com.apple.finalcutstudio.media.history.uuid</key>
							<size>36</size>
							<type>UTF8</type>
							<value>34B5A8D6-CCB3-4BEB-A150-42F8D36F347F</value>
						</metadata>
						<timecode>
							<rate>
								<timebase>25</timebase>
							</rate>
							<string>00:00:14:19</string>
							<frame>369</frame>
							<displayformat>NDF</displayformat>
							<source>source</source>
							<reel>
								<name>Michael</name>
							</reel>
						</timecode>
						<media>
							<video>
								<duration>231</duration>
								<samplecharacteristics>
									<width>1280</width>
									<height>720</height>
								</samplecharacteristics>
							</video>
							<audio>
								<samplecharacteristics>
									<samplerate>48000</samplerate>
									<depth>16</depth>
								</samplecharacteristics>
								<channelcount>2</channelcount>
								<layout>stereo</layout>
								<audiochannel>
									<sourcechannel>1</sourcechannel>
									<channellabel>left</channellabel>
								</audiochannel>
								<audiochannel>
									<sourcechannel>2</sourcechannel>
									<channellabel>right</channellabel>
								</audiochannel>
							</audio>
						</media>
					</file>
					<sourcetrack>
						<mediatype>video</mediatype>
					</sourcetrack>
					<link>
						<linkclipref>Michael006Subclipb</linkclipref>
						<mediatype>video</mediatype>
						<trackindex>4</trackindex>
						<clipindex>7</clipindex>
					</link>
					<link>
						<linkclipref>Michael006Subclipb2</linkclipref>
						<mediatype>audio</mediatype>
						<trackindex>5</trackindex>
						<clipindex>7</clipindex>
						<groupindex>1</groupindex>
					</link>
					<link>
						<linkclipref>Michael006Subclipb3</linkclipref>
						<mediatype>audio</mediatype>
						<trackindex>6</trackindex>
						<clipindex>7</clipindex>
						<groupindex>1</groupindex>
					</link>
					<fielddominance>none</fielddominance>
					<itemhistory>
						<uuid>68F86857-D40E-4E53-9119-AC75BF315C60</uuid>
						<uuid>E320DFBE-E109-4E07-BFAC-E83B07154A2A</uuid>
					</itemhistory>
				</clipitem>
				<clipitem id="Michael007 ">
					<name>Michael007</name>
					<duration>132</duration>
					<rate>
						<ntsc>FALSE</ntsc>
						<timebase>25</timebase>
					</rate>
					<in>0</in>
					<out>132</out>
					<start>4191</start>
					<end>4323</end>
					<pixelaspectratio>Square</pixelaspectratio>
					<anamorphic>FALSE</anamorphic>
					<alphatype>none</alphatype>
					<logginginfo>
						<scene/>
						<shottake/>
						<lognote/>
						<good>FALSE</good>
					</logginginfo>
					<labels>
						<label2/>
					</labels>
					<comments>
						<mastercomment1/>
						<mastercomment2/>
						<mastercomment3/>
						<mastercomment4/>
					</comments>
					<file id="Michael007 1">
						<name>Michael007</name>
						<pathurl>file://localhost/Volumes/Michael's%20Passport/woodbdrigenov2011media/Michael007</pathurl>
						<rate>
							<timebase>25</timebase>
						</rate>
						<duration>132</duration>
						<metadata>
							<storage>QuickTime</storage>
							<key>com.apple.finalcutstudio.media.uuid</key>
							<size>36</size>
							<type>UTF8</type>
							<value>A9EA8C4E-FEC0-4DE4-B6E0-EAFC11224F2C</value>
						</metadata>
						<metadata>
							<storage>QuickTime</storage>
							<key>com.apple.finalcutstudio.media.history.uuid</key>
							<size>36</size>
							<type>UTF8</type>
							<value>16CC8D2F-37F8-4D77-9596-2D5C3025D984</value>
						</metadata>
						<timecode>
							<rate>
								<timebase>25</timebase>
							</rate>
							<string>00:00:00:00</string>
							<frame>0</frame>
							<displayformat>NDF</displayformat>
							<source>source</source>
							<reel>
								<name>Michael</name>
							</reel>
						</timecode>
						<media>
							<video>
								<duration>132</duration>
								<samplecharacteristics>
									<width>1280</width>
									<height>720</height>
								</samplecharacteristics>
							</video>
							<audio>
								<samplecharacteristics>
									<samplerate>48000</samplerate>
									<depth>16</depth>
								</samplecharacteristics>
								<channelcount>2</channelcount>
								<layout>stereo</layout>
								<audiochannel>
									<sourcechannel>1</sourcechannel>
									<channellabel>left</channellabel>
								</audiochannel>
								<audiochannel>
									<sourcechannel>2</sourcechannel>
									<channellabel>right</channellabel>
								</audiochannel>
							</audio>
						</media>
					</file>
					<sourcetrack>
						<mediatype>video</mediatype>
					</sourcetrack>
					<link>
						<linkclipref>Michael007 </linkclipref>
						<mediatype>video</mediatype>
						<trackindex>4</trackindex>
						<clipindex>8</clipindex>
					</link>
					<link>
						<linkclipref>Michael007 2</linkclipref>
						<mediatype>audio</mediatype>
						<trackindex>5</trackindex>
						<clipindex>8</clipindex>
						<groupindex>1</groupindex>
					</link>
					<link>
						<linkclipref>Michael007 3</linkclipref>
						<mediatype>audio</mediatype>
						<trackindex>6</trackindex>
						<clipindex>8</clipindex>
						<groupindex>1</groupindex>
					</link>
					<fielddominance>none</fielddominance>
					<itemhistory>
						<uuid>F431CA4E-FC6A-4EEB-812C-0FAD1AA98972</uuid>
						<uuid>19497279-772A-497B-B552-CD48E265C685</uuid>
					</itemhistory>
				</clipitem>
				<clipitem id="Michael008 ">
					<name>Michael008</name>
					<duration>168</duration>
					<rate>
						<ntsc>FALSE</ntsc>
						<timebase>25</timebase>
					</rate>
					<in>0</in>
					<out>168</out>
					<start>4323</start>
					<end>4491</end>
					<pixelaspectratio>Square</pixelaspectratio>
					<enabled>TRUE</enabled>
					<anamorphic>FALSE</anamorphic>
					<alphatype>none</alphatype>
					<logginginfo>
						<scene/>
						<shottake/>
						<lognote/>
						<good>FALSE</good>
					</logginginfo>
					<labels>
						<label2/>
					</labels>
					<comments>
						<mastercomment1/>
						<mastercomment2/>
						<mastercomment3/>
						<mastercomment4/>
					</comments>
					<file id="Michael008 1">
						<name>Michael008</name>
						<pathurl>file://localhost/Volumes/Michael's%20Passport/woodbdrigenov2011media/Michael008</pathurl>
						<rate>
							<timebase>25</timebase>
						</rate>
						<duration>168</duration>
						<metadata>
							<storage>QuickTime</storage>
							<key>com.apple.finalcutstudio.media.uuid</key>
							<size>36</size>
							<type>UTF8</type>
							<value>96E506B6-A6FB-4C0E-BA22-7A47E541E72B</value>
						</metadata>
						<metadata>
							<storage>QuickTime</storage>
							<key>com.apple.finalcutstudio.media.history.uuid</key>
							<size>36</size>
							<type>UTF8</type>
							<value>05BE2E2B-28B4-4EF6-A17B-F4CAAE5404AC</value>
						</metadata>
						<timecode>
							<rate>
								<timebase>25</timebase>
							</rate>
							<string>00:00:00:00</string>
							<frame>0</frame>
							<displayformat>NDF</displayformat>
							<source>source</source>
							<reel>
								<name>Michael</name>
							</reel>
						</timecode>
						<media>
							<video>
								<duration>168</duration>
								<samplecharacteristics>
									<width>1280</width>
									<height>720</height>
								</samplecharacteristics>
							</video>
							<audio>
								<samplecharacteristics>
									<samplerate>48000</samplerate>
									<depth>16</depth>
								</samplecharacteristics>
								<channelcount>2</channelcount>
								<layout>stereo</layout>
								<audiochannel>
									<sourcechannel>1</sourcechannel>
									<channellabel>left</channellabel>
								</audiochannel>
								<audiochannel>
									<sourcechannel>2</sourcechannel>
									<channellabel>right</channellabel>
								</audiochannel>
							</audio>
						</media>
					</file>
					<sourcetrack>
						<mediatype>video</mediatype>
					</sourcetrack>
					<link>
						<linkclipref>Michael008 </linkclipref>
						<mediatype>video</mediatype>
						<trackindex>4</trackindex>
						<clipindex>9</clipindex>
					</link>
					<link>
						<linkclipref>Michael008 2</linkclipref>
						<mediatype>audio</mediatype>
						<trackindex>5</trackindex>
						<clipindex>9</clipindex>
						<groupindex>1</groupindex>
					</link>
					<link>
						<linkclipref>Michael008 3</linkclipref>
						<mediatype>audio</mediatype>
						<trackindex>6</trackindex>
						<clipindex>9</clipindex>
						<groupindex>1</groupindex>
					</link>
					<fielddominance>none</fielddominance>
					<itemhistory>
						<uuid>C8728641-11EB-4FCC-AB55-1123917AD9D5</uuid>
						<uuid>AE8AD7B2-5E58-478A-99F6-773E06868522</uuid>
					</itemhistory>
				</clipitem>
				<clipitem id="Michael009 ">
					<name>Michael009</name>
					<duration>180</duration>
					<rate>
						<ntsc>FALSE</ntsc>
						<timebase>25</timebase>
					</rate>
					<in>0</in>
					<out>180</out>
					<start>4491</start>
					<end>4671</end>
					<pixelaspectratio>Square</pixelaspectratio>
					<enabled>TRUE</enabled>
					<anamorphic>FALSE</anamorphic>
					<alphatype>none</alphatype>
					<logginginfo>
						<scene/>
						<shottake/>
						<lognote/>
						<good>FALSE</good>
					</logginginfo>
					<labels>
						<label2/>
					</labels>
					<comments>
						<mastercomment1/>
						<mastercomment2/>
						<mastercomment3/>
						<mastercomment4/>
					</comments>
					<file id="Michael009 1">
						<name>Michael009</name>
						<pathurl>file://localhost/Volumes/Michael's%20Passport/woodbdrigenov2011media/Michael009</pathurl>
						<rate>
							<timebase>25</timebase>
						</rate>
						<duration>180</duration>
						<metadata>
							<storage>QuickTime</storage>
							<key>com.apple.finalcutstudio.media.uuid</key>
							<size>36</size>
							<type>UTF8</type>
							<value>D0608B6B-AB9C-4C01-B747-57144BD6338D</value>
						</metadata>
						<metadata>
							<storage>QuickTime</storage>
							<key>com.apple.finalcutstudio.media.history.uuid</key>
							<size>36</size>
							<type>UTF8</type>
							<value>A1319572-7DA9-46CA-BC30-F3C1E584814B</value>
						</metadata>
						<timecode>
							<rate>
								<timebase>25</timebase>
							</rate>
							<string>00:00:00:00</string>
							<frame>0</frame>
							<displayformat>NDF</displayformat>
							<source>source</source>
							<reel>
								<name>Michael</name>
							</reel>
						</timecode>
						<media>
							<video>
								<duration>180</duration>
								<samplecharacteristics>
									<width>1280</width>
									<height>720</height>
								</samplecharacteristics>
							</video>
							<audio>
								<samplecharacteristics>
									<samplerate>48000</samplerate>
									<depth>16</depth>
								</samplecharacteristics>
								<channelcount>2</channelcount>
								<layout>stereo</layout>
								<audiochannel>
									<sourcechannel>1</sourcechannel>
									<channellabel>left</channellabel>
								</audiochannel>
								<audiochannel>
									<sourcechannel>2</sourcechannel>
									<channellabel>right</channellabel>
								</audiochannel>
							</audio>
						</media>
					</file>
					<sourcetrack>
						<mediatype>video</mediatype>
					</sourcetrack>
					<link>
						<linkclipref>Michael009 </linkclipref>
						<mediatype>video</mediatype>
						<trackindex>4</trackindex>
						<clipindex>10</clipindex>
					</link>
					<link>
						<linkclipref>Michael009 2</linkclipref>
						<mediatype>audio</mediatype>
						<trackindex>5</trackindex>
						<clipindex>10</clipindex>
						<groupindex>1</groupindex>
					</link>
					<link>
						<linkclipref>Michael009 3</linkclipref>
						<mediatype>audio</mediatype>
						<trackindex>6</trackindex>
						<clipindex>10</clipindex>
						<groupindex>1</groupindex>
					</link>
					<fielddominance>none</fielddominance>
					<itemhistory>
						<uuid>10749183-26F3-493F-948E-E0DA78640F43</uuid>
						<uuid>CBBD0278-6919-48B5-A3D4-6E814F930B96</uuid>
					</itemhistory>
				</clipitem>
				<clipitem id="Michael010 ">
					<name>Michael010</name>
					<duration>168</duration>
					<rate>
						<ntsc>FALSE</ntsc>
						<timebase>25</timebase>
					</rate>
					<in>0</in>
					<out>168</out>
					<start>4671</start>
					<end>4839</end>
					<pixelaspectratio>Square</pixelaspectratio>
					<enabled>TRUE</enabled>
					<anamorphic>FALSE</anamorphic>
					<alphatype>none</alphatype>
					<logginginfo>
						<scene/>
						<shottake/>
						<lognote/>
						<good>FALSE</good>
					</logginginfo>
					<labels>
						<label2/>
					</labels>
					<comments>
						<mastercomment1/>
						<mastercomment2/>
						<mastercomment3/>
						<mastercomment4/>
					</comments>
					<file id="Michael010 1">
						<name>Michael010</name>
						<pathurl>file://localhost/Volumes/Michael's%20Passport/woodbdrigenov2011media/Michael010</pathurl>
						<rate>
							<timebase>25</timebase>
						</rate>
						<duration>168</duration>
						<metadata>
							<storage>QuickTime</storage>
							<key>com.apple.finalcutstudio.media.uuid</key>
							<size>36</size>
							<type>UTF8</type>
							<value>B58C41A5-0D7B-4E71-8DF5-5BA8B2A1FD03</value>
						</metadata>
						<metadata>
							<storage>QuickTime</storage>
							<key>com.apple.finalcutstudio.media.history.uuid</key>
							<size>36</size>
							<type>UTF8</type>
							<value>9EC5D1D3-764F-4EC8-98BD-6D7AE92FA9E0</value>
						</metadata>
						<timecode>
							<rate>
								<timebase>25</timebase>
							</rate>
							<string>00:00:00:00</string>
							<frame>0</frame>
							<displayformat>NDF</displayformat>
							<source>source</source>
							<reel>
								<name>Michael</name>
							</reel>
						</timecode>
						<media>
							<video>
								<duration>168</duration>
								<samplecharacteristics>
									<width>1280</width>
									<height>720</height>
								</samplecharacteristics>
							</video>
							<audio>
								<samplecharacteristics>
									<samplerate>48000</samplerate>
									<depth>16</depth>
								</samplecharacteristics>
								<channelcount>2</channelcount>
								<layout>stereo</layout>
								<audiochannel>
									<sourcechannel>1</sourcechannel>
									<channellabel>left</channellabel>
								</audiochannel>
								<audiochannel>
									<sourcechannel>2</sourcechannel>
									<channellabel>right</channellabel>
								</audiochannel>
							</audio>
						</media>
					</file>
					<sourcetrack>
						<mediatype>video</mediatype>
					</sourcetrack>
					<link>
						<linkclipref>Michael010 </linkclipref>
						<mediatype>video</mediatype>
						<trackindex>4</trackindex>
						<clipindex>11</clipindex>
					</link>
					<link>
						<linkclipref>Michael010 2</linkclipref>
						<mediatype>audio</mediatype>
						<trackindex>5</trackindex>
						<clipindex>11</clipindex>
						<groupindex>1</groupindex>
					</link>
					<link>
						<linkclipref>Michael010 3</linkclipref>
						<mediatype>audio</mediatype>
						<trackindex>6</trackindex>
						<clipindex>11</clipindex>
						<groupindex>1</groupindex>
					</link>
					<fielddominance>none</fielddominance>
					<itemhistory>
						<uuid>05E2CDA9-6F27-4EFC-8C5C-1905A837BE7C</uuid>
						<uuid>5B820F8B-D2C6-4B09-9A19-86D21C293F05</uuid>
					</itemhistory>
				</clipitem>
				<clipitem id="Michael011 ">
					<name>Michael011</name>
					<duration>228</duration>
					<rate>
						<ntsc>FALSE</ntsc>
						<timebase>25</timebase>
					</rate>
					<in>0</in>
					<out>228</out>
					<start>5810</start>
					<end>6038</end>
					<pixelaspectratio>Square</pixelaspectratio>
					<enabled>TRUE</enabled>
					<anamorphic>FALSE</anamorphic>
					<alphatype>none</alphatype>
					<logginginfo>
						<scene/>
						<shottake/>
						<lognote/>
						<good>FALSE</good>
					</logginginfo>
					<labels>
						<label2/>
					</labels>
					<comments>
						<mastercomment1/>
						<mastercomment2/>
						<mastercomment3/>
						<mastercomment4/>
					</comments>
					<file id="Michael011 1">
						<name>Michael011</name>
						<pathurl>file://localhost/Volumes/Michael's%20Passport/woodbdrigenov2011media/Michael011</pathurl>
						<rate>
							<timebase>25</timebase>
						</rate>
						<duration>228</duration>
						<metadata>
							<storage>QuickTime</storage>
							<key>com.apple.finalcutstudio.media.uuid</key>
							<size>36</size>
							<type>UTF8</type>
							<value>EEA6B49F-1DCF-4830-88C0-11A944AC8C86</value>
						</metadata>
						<metadata>
							<storage>QuickTime</storage>
							<key>com.apple.finalcutstudio.media.history.uuid</key>
							<size>36</size>
							<type>UTF8</type>
							<value>97B063DF-78E0-473F-AA4E-25D60BE21CE9</value>
						</metadata>
						<timecode>
							<rate>
								<timebase>25</timebase>
							</rate>
							<string>00:00:00:00</string>
							<frame>0</frame>
							<displayformat>NDF</displayformat>
							<source>source</source>
							<reel>
								<name>Michael</name>
							</reel>
						</timecode>
						<media>
							<video>
								<duration>228</duration>
								<samplecharacteristics>
									<width>1280</width>
									<height>720</height>
								</samplecharacteristics>
							</video>
							<audio>
								<samplecharacteristics>
									<samplerate>48000</samplerate>
									<depth>16</depth>
								</samplecharacteristics>
								<channelcount>2</channelcount>
								<layout>stereo</layout>
								<audiochannel>
									<sourcechannel>1</sourcechannel>
									<channellabel>left</channellabel>
								</audiochannel>
								<audiochannel>
									<sourcechannel>2</sourcechannel>
									<channellabel>right</channellabel>
								</audiochannel>
							</audio>
						</media>
					</file>
					<sourcetrack>
						<mediatype>video</mediatype>
					</sourcetrack>
					<link>
						<linkclipref>Michael011 </linkclipref>
						<mediatype>video</mediatype>
						<trackindex>4</trackindex>
						<clipindex>12</clipindex>
					</link>
					<link>
						<linkclipref>Michael011 2</linkclipref>
						<mediatype>audio</mediatype>
						<trackindex>5</trackindex>
						<clipindex>12</clipindex>
						<groupindex>1</groupindex>
					</link>
					<link>
						<linkclipref>Michael011 3</linkclipref>
						<mediatype>audio</mediatype>
						<trackindex>6</trackindex>
						<clipindex>12</clipindex>
						<groupindex>1</groupindex>
					</link>
					<fielddominance>none</fielddominance>
					<itemhistory>
						<uuid>80FB61CA-EF94-495D-913A-77BE8028490F</uuid>
						<uuid>3C07DAED-5969-4ABC-8AFD-5E2722F4F378</uuid>
					</itemhistory>
				</clipitem>
				<clipitem id="Michael012 ">
					<name>Michael012</name>
					<duration>180</duration>
					<rate>
						<ntsc>FALSE</ntsc>
						<timebase>25</timebase>
					</rate>
					<in>0</in>
					<out>180</out>
					<start>6038</start>
					<end>6218</end>
					<pixelaspectratio>Square</pixelaspectratio>
					<enabled>TRUE</enabled>
					<anamorphic>FALSE</anamorphic>
					<alphatype>none</alphatype>
					<logginginfo>
						<scene/>
						<shottake/>
						<lognote/>
						<good>FALSE</good>
					</logginginfo>
					<labels>
						<label2/>
					</labels>
					<comments>
						<mastercomment1/>
						<mastercomment2/>
						<mastercomment3/>
						<mastercomment4/>
					</comments>
					<file id="Michael012 1">
						<name>Michael012</name>
						<pathurl>file://localhost/Volumes/Michael's%20Passport/woodbdrigenov2011media/Michael012</pathurl>
						<rate>
							<timebase>25</timebase>
						</rate>
						<duration>180</duration>
						<metadata>
							<storage>QuickTime</storage>
							<key>com.apple.finalcutstudio.media.uuid</key>
							<size>36</size>
							<type>UTF8</type>
							<value>1C50CBE5-3A7C-4991-8851-B602F170423A</value>
						</metadata>
						<metadata>
							<storage>QuickTime</storage>
							<key>com.apple.finalcutstudio.media.history.uuid</key>
							<size>36</size>
							<type>UTF8</type>
							<value>447B76D4-C34F-4AEE-B82A-5701EFAF590C</value>
						</metadata>
						<timecode>
							<rate>
								<timebase>25</timebase>
							</rate>
							<string>00:00:00:00</string>
							<frame>0</frame>
							<displayformat>NDF</displayformat>
							<source>source</source>
							<reel>
								<name>Michael</name>
							</reel>
						</timecode>
						<media>
							<video>
								<duration>180</duration>
								<samplecharacteristics>
									<width>1280</width>
									<height>720</height>
								</samplecharacteristics>
							</video>
							<audio>
								<samplecharacteristics>
									<samplerate>48000</samplerate>
									<depth>16</depth>
								</samplecharacteristics>
								<channelcount>2</channelcount>
								<layout>stereo</layout>
								<audiochannel>
									<sourcechannel>1</sourcechannel>
									<channellabel>left</channellabel>
								</audiochannel>
								<audiochannel>
									<sourcechannel>2</sourcechannel>
									<channellabel>right</channellabel>
								</audiochannel>
							</audio>
						</media>
					</file>
					<sourcetrack>
						<mediatype>video</mediatype>
					</sourcetrack>
					<link>
						<linkclipref>Michael012 </linkclipref>
						<mediatype>video</mediatype>
						<trackindex>4</trackindex>
						<clipindex>13</clipindex>
					</link>
					<link>
						<linkclipref>Michael012 2</linkclipref>
						<mediatype>audio</mediatype>
						<trackindex>5</trackindex>
						<clipindex>13</clipindex>
						<groupindex>1</groupindex>
					</link>
					<link>
						<linkclipref>Michael012 3</linkclipref>
						<mediatype>audio</mediatype>
						<trackindex>6</trackindex>
						<clipindex>13</clipindex>
						<groupindex>1</groupindex>
					</link>
					<fielddominance>none</fielddominance>
					<itemhistory>
						<uuid>C19FFF65-92DF-4A2D-B378-771A43AF6BB6</uuid>
						<uuid>F249F003-1DF1-4817-B005-B72A7543EF39</uuid>
					</itemhistory>
				</clipitem>
				<clipitem id="Michael013 ">
					<name>Michael013</name>
					<duration>324</duration>
					<rate>
						<ntsc>FALSE</ntsc>
						<timebase>25</timebase>
					</rate>
					<in>0</in>
					<out>324</out>
					<start>6218</start>
					<end>6542</end>
					<pixelaspectratio>Square</pixelaspectratio>
					<enabled>TRUE</enabled>
					<anamorphic>FALSE</anamorphic>
					<alphatype>none</alphatype>
					<logginginfo>
						<scene/>
						<shottake/>
						<lognote/>
						<good>FALSE</good>
					</logginginfo>
					<labels>
						<label2/>
					</labels>
					<comments>
						<mastercomment1/>
						<mastercomment2/>
						<mastercomment3/>
						<mastercomment4/>
					</comments>
					<file id="Michael013 1">
						<name>Michael013</name>
						<pathurl>file://localhost/Volumes/Michael's%20Passport/woodbdrigenov2011media/Michael013</pathurl>
						<rate>
							<timebase>25</timebase>
						</rate>
						<duration>324</duration>
						<metadata>
							<storage>QuickTime</storage>
							<key>com.apple.finalcutstudio.media.uuid</key>
							<size>36</size>
							<type>UTF8</type>
							<value>C3A24AE6-55D4-42BC-914D-13D3CF1AB065</value>
						</metadata>
						<metadata>
							<storage>QuickTime</storage>
							<key>com.apple.finalcutstudio.media.history.uuid</key>
							<size>36</size>
							<type>UTF8</type>
							<value>8D5D257E-855E-40FB-A623-22765FE44077</value>
						</metadata>
						<timecode>
							<rate>
								<timebase>25</timebase>
							</rate>
							<string>00:00:00:00</string>
							<frame>0</frame>
							<displayformat>NDF</displayformat>
							<source>source</source>
							<reel>
								<name>Michael</name>
							</reel>
						</timecode>
						<media>
							<video>
								<duration>324</duration>
								<samplecharacteristics>
									<width>1280</width>
									<height>720</height>
								</samplecharacteristics>
							</video>
							<audio>
								<samplecharacteristics>
									<samplerate>48000</samplerate>
									<depth>16</depth>
								</samplecharacteristics>
								<channelcount>2</channelcount>
								<layout>stereo</layout>
								<audiochannel>
									<sourcechannel>1</sourcechannel>
									<channellabel>left</channellabel>
								</audiochannel>
								<audiochannel>
									<sourcechannel>2</sourcechannel>
									<channellabel>right</channellabel>
								</audiochannel>
							</audio>
						</media>
					</file>
					<sourcetrack>
						<mediatype>video</mediatype>
					</sourcetrack>
					<link>
						<linkclipref>Michael013 </linkclipref>
						<mediatype>video</mediatype>
						<trackindex>4</trackindex>
						<clipindex>14</clipindex>
					</link>
					<link>
						<linkclipref>Michael013 2</linkclipref>
						<mediatype>audio</mediatype>
						<trackindex>5</trackindex>
						<clipindex>14</clipindex>
						<groupindex>1</groupindex>
					</link>
					<link>
						<linkclipref>Michael013 3</linkclipref>
						<mediatype>audio</mediatype>
						<trackindex>6</trackindex>
						<clipindex>14</clipindex>
						<groupindex>1</groupindex>
					</link>
					<fielddominance>none</fielddominance>
					<itemhistory>
						<uuid>543865E8-61C9-4007-8237-55D273558314</uuid>
						<uuid>FCBC18D6-F310-41C3-BEE3-CE5EE614259A</uuid>
					</itemhistory>
				</clipitem>
				<clipitem id="Michael014 ">
					<name>Michael014</name>
					<duration>228</duration>
					<rate>
						<ntsc>FALSE</ntsc>
						<timebase>25</timebase>
					</rate>
					<in>0</in>
					<out>228</out>
					<start>6542</start>
					<end>6770</end>
					<pixelaspectratio>Square</pixelaspectratio>
					<enabled>TRUE</enabled>
					<anamorphic>FALSE</anamorphic>
					<alphatype>none</alphatype>
					<logginginfo>
						<scene/>
						<shottake/>
						<lognote/>
						<good>FALSE</good>
					</logginginfo>
					<labels>
						<label2/>
					</labels>
					<comments>
						<mastercomment1/>
						<mastercomment2/>
						<mastercomment3/>
						<mastercomment4/>
					</comments>
					<file id="Michael014 1">
						<name>Michael014</name>
						<pathurl>file://localhost/Volumes/Michael's%20Passport/woodbdrigenov2011media/Michael014</pathurl>
						<rate>
							<timebase>25</timebase>
						</rate>
						<duration>228</duration>
						<metadata>
							<storage>QuickTime</storage>
							<key>com.apple.finalcutstudio.media.uuid</key>
							<size>36</size>
							<type>UTF8</type>
							<value>356399C7-2C3A-438F-983D-1C7427D06968</value>
						</metadata>
						<metadata>
							<storage>QuickTime</storage>
							<key>com.apple.finalcutstudio.media.history.uuid</key>
							<size>36</size>
							<type>UTF8</type>
							<value>801C1369-B5DB-4C2F-B622-5D3C451D1E36</value>
						</metadata>
						<timecode>
							<rate>
								<timebase>25</timebase>
							</rate>
							<string>00:00:00:00</string>
							<frame>0</frame>
							<displayformat>NDF</displayformat>
							<source>source</source>
							<reel>
								<name>Michael</name>
							</reel>
						</timecode>
						<media>
							<video>
								<duration>228</duration>
								<samplecharacteristics>
									<width>1280</width>
									<height>720</height>
								</samplecharacteristics>
							</video>
							<audio>
								<samplecharacteristics>
									<samplerate>48000</samplerate>
									<depth>16</depth>
								</samplecharacteristics>
								<channelcount>2</channelcount>
								<layout>stereo</layout>
								<audiochannel>
									<sourcechannel>1</sourcechannel>
									<channellabel>left</channellabel>
								</audiochannel>
								<audiochannel>
									<sourcechannel>2</sourcechannel>
									<channellabel>right</channellabel>
								</audiochannel>
							</audio>
						</media>
					</file>
					<sourcetrack>
						<mediatype>video</mediatype>
					</sourcetrack>
					<link>
						<linkclipref>Michael014 </linkclipref>
						<mediatype>video</mediatype>
						<trackindex>4</trackindex>
						<clipindex>15</clipindex>
					</link>
					<link>
						<linkclipref>Michael014 2</linkclipref>
						<mediatype>audio</mediatype>
						<trackindex>5</trackindex>
						<clipindex>15</clipindex>
						<groupindex>1</groupindex>
					</link>
					<link>
						<linkclipref>Michael014 3</linkclipref>
						<mediatype>audio</mediatype>
						<trackindex>6</trackindex>
						<clipindex>15</clipindex>
						<groupindex>1</groupindex>
					</link>
					<fielddominance>none</fielddominance>
					<itemhistory>
						<uuid>260521F6-CC88-48ED-8ABA-B73B1ADD758F</uuid>
						<uuid>94ADAE0B-0270-4E07-97A2-B122694B786B</uuid>
					</itemhistory>
				</clipitem>
				<clipitem id="Michael015 ">
					<name>Michael015</name>
					<duration>216</duration>
					<rate>
						<ntsc>FALSE</ntsc>
						<timebase>25</timebase>
					</rate>
					<in>0</in>
					<out>216</out>
					<start>7786</start>
					<end>8002</end>
					<pixelaspectratio>Square</pixelaspectratio>
					<enabled>TRUE</enabled>
					<anamorphic>FALSE</anamorphic>
					<alphatype>none</alphatype>
					<logginginfo>
						<scene/>
						<shottake/>
						<lognote/>
						<good>FALSE</good>
					</logginginfo>
					<labels>
						<label2/>
					</labels>
					<comments>
						<mastercomment1/>
						<mastercomment2/>
						<mastercomment3/>
						<mastercomment4/>
					</comments>
					<file id="Michael015 1">
						<name>Michael015</name>
						<pathurl>file://localhost/Volumes/Michael's%20Passport/woodbdrigenov2011media/Michael015</pathurl>
						<rate>
							<timebase>25</timebase>
						</rate>
						<duration>216</duration>
						<metadata>
							<storage>QuickTime</storage>
							<key>com.apple.finalcutstudio.media.uuid</key>
							<size>36</size>
							<type>UTF8</type>
							<value>BA2FC712-75CA-49BB-BE13-27CC187405C1</value>
						</metadata>
						<metadata>
							<storage>QuickTime</storage>
							<key>com.apple.finalcutstudio.media.history.uuid</key>
							<size>36</size>
							<type>UTF8</type>
							<value>22CBF369-2A4D-4810-97AE-275CB36AFD2B</value>
						</metadata>
						<timecode>
							<rate>
								<timebase>25</timebase>
							</rate>
							<string>00:00:00:00</string>
							<frame>0</frame>
							<displayformat>NDF</displayformat>
							<source>source</source>
							<reel>
								<name>Michael</name>
							</reel>
						</timecode>
						<media>
							<video>
								<duration>216</duration>
								<samplecharacteristics>
									<width>1280</width>
									<height>720</height>
								</samplecharacteristics>
							</video>
							<audio>
								<samplecharacteristics>
									<samplerate>48000</samplerate>
									<depth>16</depth>
								</samplecharacteristics>
								<channelcount>2</channelcount>
								<layout>stereo</layout>
								<audiochannel>
									<sourcechannel>1</sourcechannel>
									<channellabel>left</channellabel>
								</audiochannel>
								<audiochannel>
									<sourcechannel>2</sourcechannel>
									<channellabel>right</channellabel>
								</audiochannel>
							</audio>
						</media>
					</file>
					<sourcetrack>
						<mediatype>video</mediatype>
					</sourcetrack>
					<link>
						<linkclipref>Michael015 </linkclipref>
						<mediatype>video</mediatype>
						<trackindex>4</trackindex>
						<clipindex>16</clipindex>
					</link>
					<link>
						<linkclipref>Michael015 2</linkclipref>
						<mediatype>audio</mediatype>
						<trackindex>5</trackindex>
						<clipindex>16</clipindex>
						<groupindex>1</groupindex>
					</link>
					<link>
						<linkclipref>Michael015 3</linkclipref>
						<mediatype>audio</mediatype>
						<trackindex>6</trackindex>
						<clipindex>16</clipindex>
						<groupindex>1</groupindex>
					</link>
					<fielddominance>none</fielddominance>
					<itemhistory>
						<uuid>CC3B9F92-1160-4942-934B-85ADDCF8FEE0</uuid>
						<uuid>B9A627EF-46A5-41F7-B17D-D971885F49DE</uuid>
					</itemhistory>
				</clipitem>
				<clipitem id="Michael016 ">
					<name>Michael016</name>
					<duration>276</duration>
					<rate>
						<ntsc>FALSE</ntsc>
						<timebase>25</timebase>
					</rate>
					<in>0</in>
					<out>276</out>
					<start>8002</start>
					<end>8278</end>
					<pixelaspectratio>Square</pixelaspectratio>
					<enabled>TRUE</enabled>
					<anamorphic>FALSE</anamorphic>
					<alphatype>none</alphatype>
					<logginginfo>
						<scene/>
						<shottake/>
						<lognote/>
						<good>FALSE</good>
					</logginginfo>
					<labels>
						<label2/>
					</labels>
					<comments>
						<mastercomment1/>
						<mastercomment2/>
						<mastercomment3/>
						<mastercomment4/>
					</comments>
					<file id="Michael016 1">
						<name>Michael016</name>
						<pathurl>file://localhost/Volumes/Michael's%20Passport/woodbdrigenov2011media/Michael016</pathurl>
						<rate>
							<timebase>25</timebase>
						</rate>
						<duration>276</duration>
						<metadata>
							<storage>QuickTime</storage>
							<key>com.apple.finalcutstudio.media.uuid</key>
							<size>36</size>
							<type>UTF8</type>
							<value>2738E0D7-E9B3-45A5-98DA-35D6F080F6F2</value>
						</metadata>
						<metadata>
							<storage>QuickTime</storage>
							<key>com.apple.finalcutstudio.media.history.uuid</key>
							<size>36</size>
							<type>UTF8</type>
							<value>2315FC1D-C040-43AA-ABE5-592E1F617951</value>
						</metadata>
						<timecode>
							<rate>
								<timebase>25</timebase>
							</rate>
							<string>00:00:00:00</string>
							<frame>0</frame>
							<displayformat>NDF</displayformat>
							<source>source</source>
							<reel>
								<name>Michael</name>
							</reel>
						</timecode>
						<media>
							<video>
								<duration>276</duration>
								<samplecharacteristics>
									<width>1280</width>
									<height>720</height>
								</samplecharacteristics>
							</video>
							<audio>
								<samplecharacteristics>
									<samplerate>48000</samplerate>
									<depth>16</depth>
								</samplecharacteristics>
								<channelcount>2</channelcount>
								<layout>stereo</layout>
								<audiochannel>
									<sourcechannel>1</sourcechannel>
									<channellabel>left</channellabel>
								</audiochannel>
								<audiochannel>
									<sourcechannel>2</sourcechannel>
									<channellabel>right</channellabel>
								</audiochannel>
							</audio>
						</media>
					</file>
					<sourcetrack>
						<mediatype>video</mediatype>
					</sourcetrack>
					<link>
						<linkclipref>Michael016 </linkclipref>
						<mediatype>video</mediatype>
						<trackindex>4</trackindex>
						<clipindex>17</clipindex>
					</link>
					<link>
						<linkclipref>Michael016 2</linkclipref>
						<mediatype>audio</mediatype>
						<trackindex>5</trackindex>
						<clipindex>17</clipindex>
						<groupindex>1</groupindex>
					</link>
					<link>
						<linkclipref>Michael016 3</linkclipref>
						<mediatype>audio</mediatype>
						<trackindex>6</trackindex>
						<clipindex>17</clipindex>
						<groupindex>1</groupindex>
					</link>
					<fielddominance>none</fielddominance>
					<itemhistory>
						<uuid>E2D3BEF5-AB05-42FF-9174-C3E6E6753470</uuid>
						<uuid>04AB80DB-8DD9-4612-BC06-A64C8CD38B75</uuid>
					</itemhistory>
				</clipitem>
				<clipitem id="Michael017 ">
					<name>Michael017</name>
					<duration>204</duration>
					<rate>
						<ntsc>FALSE</ntsc>
						<timebase>25</timebase>
					</rate>
					<in>0</in>
					<out>204</out>
					<start>8278</start>
					<end>8482</end>
					<pixelaspectratio>Square</pixelaspectratio>
					<enabled>TRUE</enabled>
					<anamorphic>FALSE</anamorphic>
					<alphatype>none</alphatype>
					<logginginfo>
						<scene/>
						<shottake/>
						<lognote/>
						<good>FALSE</good>
					</logginginfo>
					<labels>
						<label2/>
					</labels>
					<comments>
						<mastercomment1/>
						<mastercomment2/>
						<mastercomment3/>
						<mastercomment4/>
					</comments>
					<file id="Michael017 1">
						<name>Michael017</name>
						<pathurl>file://localhost/Volumes/Michael's%20Passport/woodbdrigenov2011media/Michael017</pathurl>
						<rate>
							<timebase>25</timebase>
						</rate>
						<duration>204</duration>
						<metadata>
							<storage>QuickTime</storage>
							<key>com.apple.finalcutstudio.media.uuid</key>
							<size>36</size>
							<type>UTF8</type>
							<value>BAE7DC1F-45CD-47A0-AA6B-DA51447A9C65</value>
						</metadata>
						<metadata>
							<storage>QuickTime</storage>
							<key>com.apple.finalcutstudio.media.history.uuid</key>
							<size>36</size>
							<type>UTF8</type>
							<value>152F8B43-F795-4C95-8180-62EA1FDCE529</value>
						</metadata>
						<timecode>
							<rate>
								<timebase>25</timebase>
							</rate>
							<string>00:00:00:00</string>
							<frame>0</frame>
							<displayformat>NDF</displayformat>
							<source>source</source>
							<reel>
								<name>Michael</name>
							</reel>
						</timecode>
						<media>
							<video>
								<duration>204</duration>
								<samplecharacteristics>
									<width>1280</width>
									<height>720</height>
								</samplecharacteristics>
							</video>
							<audio>
								<samplecharacteristics>
									<samplerate>48000</samplerate>
									<depth>16</depth>
								</samplecharacteristics>
								<channelcount>2</channelcount>
								<layout>stereo</layout>
								<audiochannel>
									<sourcechannel>1</sourcechannel>
									<channellabel>left</channellabel>
								</audiochannel>
								<audiochannel>
									<sourcechannel>2</sourcechannel>
									<channellabel>right</channellabel>
								</audiochannel>
							</audio>
						</media>
					</file>
					<sourcetrack>
						<mediatype>video</mediatype>
					</sourcetrack>
					<link>
						<linkclipref>Michael017 </linkclipref>
						<mediatype>video</mediatype>
						<trackindex>4</trackindex>
						<clipindex>18</clipindex>
					</link>
					<link>
						<linkclipref>Michael017 2</linkclipref>
						<mediatype>audio</mediatype>
						<trackindex>5</trackindex>
						<clipindex>18</clipindex>
						<groupindex>1</groupindex>
					</link>
					<link>
						<linkclipref>Michael017 3</linkclipref>
						<mediatype>audio</mediatype>
						<trackindex>6</trackindex>
						<clipindex>18</clipindex>
						<groupindex>1</groupindex>
					</link>
					<fielddominance>none</fielddominance>
					<itemhistory>
						<uuid>ADC790A2-CB74-4A9E-A1C8-9865526FA0B8</uuid>
						<uuid>E41F5478-CBC1-4C9B-B6BF-CEABC63382B1</uuid>
					</itemhistory>
				</clipitem>
				<clipitem id="Michael018 ">
					<name>Michael018</name>
					<duration>240</duration>
					<rate>
						<ntsc>FALSE</ntsc>
						<timebase>25</timebase>
					</rate>
					<in>0</in>
					<out>240</out>
					<start>8482</start>
					<end>8722</end>
					<pixelaspectratio>Square</pixelaspectratio>
					<enabled>TRUE</enabled>
					<anamorphic>FALSE</anamorphic>
					<alphatype>none</alphatype>
					<logginginfo>
						<scene/>
						<shottake/>
						<lognote/>
						<good>FALSE</good>
					</logginginfo>
					<labels>
						<label2/>
					</labels>
					<comments>
						<mastercomment1/>
						<mastercomment2/>
						<mastercomment3/>
						<mastercomment4/>
					</comments>
					<file id="Michael018 1">
						<name>Michael018</name>
						<pathurl>file://localhost/Volumes/Michael's%20Passport/woodbdrigenov2011media/Michael018</pathurl>
						<rate>
							<timebase>25</timebase>
						</rate>
						<duration>240</duration>
						<metadata>
							<storage>QuickTime</storage>
							<key>com.apple.finalcutstudio.media.uuid</key>
							<size>36</size>
							<type>UTF8</type>
							<value>405B0D87-4590-40DE-B790-E1C05A7E542C</value>
						</metadata>
						<metadata>
							<storage>QuickTime</storage>
							<key>com.apple.finalcutstudio.media.history.uuid</key>
							<size>36</size>
							<type>UTF8</type>
							<value>20B86571-BF94-48AD-B258-4786D922CFC0</value>
						</metadata>
						<timecode>
							<rate>
								<timebase>25</timebase>
							</rate>
							<string>00:00:00:00</string>
							<frame>0</frame>
							<displayformat>NDF</displayformat>
							<source>source</source>
							<reel>
								<name>Michael</name>
							</reel>
						</timecode>
						<media>
							<video>
								<duration>240</duration>
								<samplecharacteristics>
									<width>1280</width>
									<height>720</height>
								</samplecharacteristics>
							</video>
							<audio>
								<samplecharacteristics>
									<samplerate>48000</samplerate>
									<depth>16</depth>
								</samplecharacteristics>
								<channelcount>2</channelcount>
								<layout>stereo</layout>
								<audiochannel>
									<sourcechannel>1</sourcechannel>
									<channellabel>left</channellabel>
								</audiochannel>
								<audiochannel>
									<sourcechannel>2</sourcechannel>
									<channellabel>right</channellabel>
								</audiochannel>
							</audio>
						</media>
					</file>
					<sourcetrack>
						<mediatype>video</mediatype>
					</sourcetrack>
					<link>
						<linkclipref>Michael018 </linkclipref>
						<mediatype>video</mediatype>
						<trackindex>4</trackindex>
						<clipindex>19</clipindex>
					</link>
					<link>
						<linkclipref>Michael018 2</linkclipref>
						<mediatype>audio</mediatype>
						<trackindex>5</trackindex>
						<clipindex>19</clipindex>
						<groupindex>1</groupindex>
					</link>
					<link>
						<linkclipref>Michael018 3</linkclipref>
						<mediatype>audio</mediatype>
						<trackindex>6</trackindex>
						<clipindex>19</clipindex>
						<groupindex>1</groupindex>
					</link>
					<fielddominance>none</fielddominance>
					<itemhistory>
						<uuid>C13D2908-699C-44EA-9F6A-63D2FCDC7FF8</uuid>
						<uuid>2312882B-6446-48BC-918D-787A4FD2A28D</uuid>
					</itemhistory>
				</clipitem>
				<clipitem id="Michael019 ">
					<name>Michael019</name>
					<duration>312</duration>
					<rate>
						<ntsc>FALSE</ntsc>
						<timebase>25</timebase>
					</rate>
					<in>0</in>
					<out>312</out>
					<start>8722</start>
					<end>9034</end>
					<pixelaspectratio>Square</pixelaspectratio>
					<enabled>TRUE</enabled>
					<anamorphic>FALSE</anamorphic>
					<alphatype>none</alphatype>
					<logginginfo>
						<scene/>
						<shottake/>
						<lognote/>
						<good>FALSE</good>
					</logginginfo>
					<labels>
						<label2/>
					</labels>
					<comments>
						<mastercomment1/>
						<mastercomment2/>
						<mastercomment3/>
						<mastercomment4/>
					</comments>
					<file id="Michael019 1">
						<name>Michael019</name>
						<pathurl>file://localhost/Volumes/Michael's%20Passport/woodbdrigenov2011media/Michael019</pathurl>
						<rate>
							<timebase>25</timebase>
						</rate>
						<duration>312</duration>
						<metadata>
							<storage>QuickTime</storage>
							<key>com.apple.finalcutstudio.media.uuid</key>
							<size>36</size>
							<type>UTF8</type>
							<value>C39C14AF-FB1B-482D-819D-83892CC948AD</value>
						</metadata>
						<metadata>
							<storage>QuickTime</storage>
							<key>com.apple.finalcutstudio.media.history.uuid</key>
							<size>36</size>
							<type>UTF8</type>
							<value>A6C86935-7EA6-4C66-A7C4-EE1E8072700E</value>
						</metadata>
						<timecode>
							<rate>
								<timebase>25</timebase>
							</rate>
							<string>00:00:00:00</string>
							<frame>0</frame>
							<displayformat>NDF</displayformat>
							<source>source</source>
							<reel>
								<name>Michael</name>
							</reel>
						</timecode>
						<media>
							<video>
								<duration>312</duration>
								<samplecharacteristics>
									<width>1280</width>
									<height>720</height>
								</samplecharacteristics>
							</video>
							<audio>
								<samplecharacteristics>
									<samplerate>48000</samplerate>
									<depth>16</depth>
								</samplecharacteristics>
								<channelcount>2</channelcount>
								<layout>stereo</layout>
								<audiochannel>
									<sourcechannel>1</sourcechannel>
									<channellabel>left</channellabel>
								</audiochannel>
								<audiochannel>
									<sourcechannel>2</sourcechannel>
									<channellabel>right</channellabel>
								</audiochannel>
							</audio>
						</media>
					</file>
					<sourcetrack>
						<mediatype>video</mediatype>
					</sourcetrack>
					<link>
						<linkclipref>Michael019 </linkclipref>
						<mediatype>video</mediatype>
						<trackindex>4</trackindex>
						<clipindex>20</clipindex>
					</link>
					<link>
						<linkclipref>Michael019 2</linkclipref>
						<mediatype>audio</mediatype>
						<trackindex>5</trackindex>
						<clipindex>20</clipindex>
						<groupindex>1</groupindex>
					</link>
					<link>
						<linkclipref>Michael019 3</linkclipref>
						<mediatype>audio</mediatype>
						<trackindex>6</trackindex>
						<clipindex>20</clipindex>
						<groupindex>1</groupindex>
					</link>
					<fielddominance>none</fielddominance>
					<itemhistory>
						<uuid>FB12051A-1933-4E87-A30D-0D38AE7351C5</uuid>
						<uuid>F985380C-033B-4585-B397-98A7879F4B55</uuid>
					</itemhistory>
				</clipitem>
				<clipitem id="Michael020 ">
					<name>Michael020</name>
					<duration>300</duration>
					<rate>
						<ntsc>FALSE</ntsc>
						<timebase>25</timebase>
					</rate>
					<in>0</in>
					<out>300</out>
					<start>9034</start>
					<end>9334</end>
					<pixelaspectratio>Square</pixelaspectratio>
					<enabled>TRUE</enabled>
					<anamorphic>FALSE</anamorphic>
					<alphatype>none</alphatype>
					<logginginfo>
						<scene/>
						<shottake/>
						<lognote/>
						<good>FALSE</good>
					</logginginfo>
					<labels>
						<label2/>
					</labels>
					<comments>
						<mastercomment1/>
						<mastercomment2/>
						<mastercomment3/>
						<mastercomment4/>
					</comments>
					<file id="Michael020 1">
						<name>Michael020</name>
						<pathurl>file://localhost/Volumes/Michael's%20Passport/woodbdrigenov2011media/Michael020</pathurl>
						<rate>
							<timebase>25</timebase>
						</rate>
						<duration>300</duration>
						<metadata>
							<storage>QuickTime</storage>
							<key>com.apple.finalcutstudio.media.uuid</key>
							<size>36</size>
							<type>UTF8</type>
							<value>9313F238-41A5-4E97-9C18-F357ED3AE754</value>
						</metadata>
						<metadata>
							<storage>QuickTime</storage>
							<key>com.apple.finalcutstudio.media.history.uuid</key>
							<size>36</size>
							<type>UTF8</type>
							<value>D2BDA291-53CA-42DE-94AF-A94B2C49AA4D</value>
						</metadata>
						<timecode>
							<rate>
								<timebase>25</timebase>
							</rate>
							<string>00:00:00:00</string>
							<frame>0</frame>
							<displayformat>NDF</displayformat>
							<source>source</source>
							<reel>
								<name>Michael</name>
							</reel>
						</timecode>
						<media>
							<video>
								<duration>300</duration>
								<samplecharacteristics>
									<width>1280</width>
									<height>720</height>
								</samplecharacteristics>
							</video>
							<audio>
								<samplecharacteristics>
									<samplerate>48000</samplerate>
									<depth>16</depth>
								</samplecharacteristics>
								<channelcount>2</channelcount>
								<layout>stereo</layout>
								<audiochannel>
									<sourcechannel>1</sourcechannel>
									<channellabel>left</channellabel>
								</audiochannel>
								<audiochannel>
									<sourcechannel>2</sourcechannel>
									<channellabel>right</channellabel>
								</audiochannel>
							</audio>
						</media>
					</file>
					<sourcetrack>
						<mediatype>video</mediatype>
					</sourcetrack>
					<link>
						<linkclipref>Michael020 </linkclipref>
						<mediatype>video</mediatype>
						<trackindex>4</trackindex>
						<clipindex>21</clipindex>
					</link>
					<link>
						<linkclipref>Michael020 2</linkclipref>
						<mediatype>audio</mediatype>
						<trackindex>5</trackindex>
						<clipindex>21</clipindex>
						<groupindex>1</groupindex>
					</link>
					<link>
						<linkclipref>Michael020 3</linkclipref>
						<mediatype>audio</mediatype>
						<trackindex>6</trackindex>
						<clipindex>21</clipindex>
						<groupindex>1</groupindex>
					</link>
					<fielddominance>none</fielddominance>
					<itemhistory>
						<uuid>DE05317A-149F-4FFE-B691-3B4C72F5DFC4</uuid>
						<uuid>97239031-62A5-4086-AAEB-6C0F37F1A18B</uuid>
					</itemhistory>
				</clipitem>
				<clipitem id="Michael021 ">
					<name>Michael021</name>
					<duration>192</duration>
					<rate>
						<ntsc>FALSE</ntsc>
						<timebase>25</timebase>
					</rate>
					<in>0</in>
					<out>192</out>
					<start>9334</start>
					<end>9526</end>
					<pixelaspectratio>Square</pixelaspectratio>
					<anamorphic>FALSE</anamorphic>
					<alphatype>none</alphatype>
					<logginginfo>
						<scene/>
						<shottake/>
						<lognote/>
						<good>FALSE</good>
					</logginginfo>
					<labels>
						<label2/>
					</labels>
					<comments>
						<mastercomment1/>
						<mastercomment2/>
						<mastercomment3/>
						<mastercomment4/>
					</comments>
					<file id="Michael021 1">
						<name>Michael021</name>
						<pathurl>file://localhost/Volumes/Michael's%20Passport/woodbdrigenov2011media/Michael021</pathurl>
						<rate>
							<timebase>25</timebase>
						</rate>
						<duration>192</duration>
						<metadata>
							<storage>QuickTime</storage>
							<key>com.apple.finalcutstudio.media.uuid</key>
							<size>36</size>
							<type>UTF8</type>
							<value>E7AE3D81-D6D7-4575-A384-F136E15D50B3</value>
						</metadata>
						<metadata>
							<storage>QuickTime</storage>
							<key>com.apple.finalcutstudio.media.history.uuid</key>
							<size>36</size>
							<type>UTF8</type>
							<value>034A2468-6BA1-4B77-80CE-98C02DFBDDC9</value>
						</metadata>
						<timecode>
							<rate>
								<timebase>25</timebase>
							</rate>
							<string>00:00:00:00</string>
							<frame>0</frame>
							<displayformat>NDF</displayformat>
							<source>source</source>
							<reel>
								<name>Michael</name>
							</reel>
						</timecode>
						<media>
							<video>
								<duration>192</duration>
								<samplecharacteristics>
									<width>1280</width>
									<height>720</height>
								</samplecharacteristics>
							</video>
							<audio>
								<samplecharacteristics>
									<samplerate>48000</samplerate>
									<depth>16</depth>
								</samplecharacteristics>
								<channelcount>2</channelcount>
								<layout>stereo</layout>
								<audiochannel>
									<sourcechannel>1</sourcechannel>
									<channellabel>left</channellabel>
								</audiochannel>
								<audiochannel>
									<sourcechannel>2</sourcechannel>
									<channellabel>right</channellabel>
								</audiochannel>
							</audio>
						</media>
					</file>
					<sourcetrack>
						<mediatype>video</mediatype>
					</sourcetrack>
					<link>
						<linkclipref>Michael021 </linkclipref>
						<mediatype>video</mediatype>
						<trackindex>4</trackindex>
						<clipindex>22</clipindex>
					</link>
					<link>
						<linkclipref>Michael021 2</linkclipref>
						<mediatype>audio</mediatype>
						<trackindex>5</trackindex>
						<clipindex>22</clipindex>
						<groupindex>1</groupindex>
					</link>
					<link>
						<linkclipref>Michael021 3</linkclipref>
						<mediatype>audio</mediatype>
						<trackindex>6</trackindex>
						<clipindex>22</clipindex>
						<groupindex>1</groupindex>
					</link>
					<fielddominance>none</fielddominance>
					<itemhistory>
						<uuid>74B77ACF-4F7D-4705-BFB8-CC892DE0A9DB</uuid>
						<uuid>4CC77133-0A24-4AE0-BA0B-741AEFF56F4F</uuid>
					</itemhistory>
				</clipitem>
				<clipitem id="Michael022 ">
					<name>Michael022</name>
					<duration>828</duration>
					<rate>
						<ntsc>FALSE</ntsc>
						<timebase>25</timebase>
					</rate>
					<in>0</in>
					<out>828</out>
					<start>9526</start>
					<end>10354</end>
					<pixelaspectratio>Square</pixelaspectratio>
					<enabled>TRUE</enabled>
					<anamorphic>FALSE</anamorphic>
					<alphatype>none</alphatype>
					<logginginfo>
						<scene/>
						<shottake/>
						<lognote/>
						<good>FALSE</good>
					</logginginfo>
					<labels>
						<label2/>
					</labels>
					<comments>
						<mastercomment1/>
						<mastercomment2/>
						<mastercomment3/>
						<mastercomment4/>
					</comments>
					<file id="Michael022 1">
						<name>Michael022</name>
						<pathurl>file://localhost/Volumes/Michael's%20Passport/woodbdrigenov2011media/Michael022</pathurl>
						<rate>
							<timebase>25</timebase>
						</rate>
						<duration>828</duration>
						<metadata>
							<storage>QuickTime</storage>
							<key>com.apple.finalcutstudio.media.uuid</key>
							<size>36</size>
							<type>UTF8</type>
							<value>4B60083C-ADE2-4B50-8829-45E5ACA32F27</value>
						</metadata>
						<metadata>
							<storage>QuickTime</storage>
							<key>com.apple.finalcutstudio.media.history.uuid</key>
							<size>36</size>
							<type>UTF8</type>
							<value>D96CE698-8798-4BEF-9E15-EEE8D0F59DAA</value>
						</metadata>
						<timecode>
							<rate>
								<timebase>25</timebase>
							</rate>
							<string>00:00:00:00</string>
							<frame>0</frame>
							<displayformat>NDF</displayformat>
							<source>source</source>
							<reel>
								<name>Michael</name>
							</reel>
						</timecode>
						<media>
							<video>
								<duration>828</duration>
								<samplecharacteristics>
									<width>1280</width>
									<height>720</height>
								</samplecharacteristics>
							</video>
							<audio>
								<samplecharacteristics>
									<samplerate>48000</samplerate>
									<depth>16</depth>
								</samplecharacteristics>
								<channelcount>2</channelcount>
								<layout>stereo</layout>
								<audiochannel>
									<sourcechannel>1</sourcechannel>
									<channellabel>left</channellabel>
								</audiochannel>
								<audiochannel>
									<sourcechannel>2</sourcechannel>
									<channellabel>right</channellabel>
								</audiochannel>
							</audio>
						</media>
					</file>
					<sourcetrack>
						<mediatype>video</mediatype>
					</sourcetrack>
					<link>
						<linkclipref>Michael022 </linkclipref>
						<mediatype>video</mediatype>
						<trackindex>4</trackindex>
						<clipindex>23</clipindex>
					</link>
					<link>
						<linkclipref>Michael022 2</linkclipref>
						<mediatype>audio</mediatype>
						<trackindex>5</trackindex>
						<clipindex>23</clipindex>
						<groupindex>1</groupindex>
					</link>
					<link>
						<linkclipref>Michael022 3</linkclipref>
						<mediatype>audio</mediatype>
						<trackindex>6</trackindex>
						<clipindex>23</clipindex>
						<groupindex>1</groupindex>
					</link>
					<fielddominance>none</fielddominance>
					<itemhistory>
						<uuid>CF31585C-4FAB-4083-9D44-7882DD451DF5</uuid>
						<uuid>68A717BA-E341-4D58-9F04-1A40973480E5</uuid>
					</itemhistory>
				</clipitem>
				<clipitem id="Michael023 ">
					<name>Michael023</name>
					<duration>324</duration>
					<rate>
						<ntsc>FALSE</ntsc>
						<timebase>25</timebase>
					</rate>
					<in>0</in>
					<out>324</out>
					<start>10354</start>
					<end>10678</end>
					<pixelaspectratio>Square</pixelaspectratio>
					<enabled>TRUE</enabled>
					<anamorphic>FALSE</anamorphic>
					<alphatype>none</alphatype>
					<logginginfo>
						<scene/>
						<shottake/>
						<lognote/>
						<good>FALSE</good>
					</logginginfo>
					<labels>
						<label2/>
					</labels>
					<comments>
						<mastercomment1/>
						<mastercomment2/>
						<mastercomment3/>
						<mastercomment4/>
					</comments>
					<file id="Michael023 1">
						<name>Michael023</name>
						<pathurl>file://localhost/Volumes/Michael's%20Passport/woodbdrigenov2011media/Michael023</pathurl>
						<rate>
							<timebase>25</timebase>
						</rate>
						<duration>324</duration>
						<metadata>
							<storage>QuickTime</storage>
							<key>com.apple.finalcutstudio.media.uuid</key>
							<size>36</size>
							<type>UTF8</type>
							<value>67308E2F-825B-4301-9BB6-130E8C5273EC</value>
						</metadata>
						<metadata>
							<storage>QuickTime</storage>
							<key>com.apple.finalcutstudio.media.history.uuid</key>
							<size>36</size>
							<type>UTF8</type>
							<value>4E87BE4A-8893-401B-93E6-5B5C3ECFBF9C</value>
						</metadata>
						<timecode>
							<rate>
								<timebase>25</timebase>
							</rate>
							<string>00:00:00:00</string>
							<frame>0</frame>
							<displayformat>NDF</displayformat>
							<source>source</source>
							<reel>
								<name>Michael</name>
							</reel>
						</timecode>
						<media>
							<video>
								<duration>324</duration>
								<samplecharacteristics>
									<width>1280</width>
									<height>720</height>
								</samplecharacteristics>
							</video>
							<audio>
								<samplecharacteristics>
									<samplerate>48000</samplerate>
									<depth>16</depth>
								</samplecharacteristics>
								<channelcount>2</channelcount>
								<layout>stereo</layout>
								<audiochannel>
									<sourcechannel>1</sourcechannel>
									<channellabel>left</channellabel>
								</audiochannel>
								<audiochannel>
									<sourcechannel>2</sourcechannel>
									<channellabel>right</channellabel>
								</audiochannel>
							</audio>
						</media>
					</file>
					<sourcetrack>
						<mediatype>video</mediatype>
					</sourcetrack>
					<link>
						<linkclipref>Michael023 </linkclipref>
						<mediatype>video</mediatype>
						<trackindex>4</trackindex>
						<clipindex>24</clipindex>
					</link>
					<link>
						<linkclipref>Michael023 2</linkclipref>
						<mediatype>audio</mediatype>
						<trackindex>5</trackindex>
						<clipindex>24</clipindex>
						<groupindex>1</groupindex>
					</link>
					<link>
						<linkclipref>Michael023 3</linkclipref>
						<mediatype>audio</mediatype>
						<trackindex>6</trackindex>
						<clipindex>24</clipindex>
						<groupindex>1</groupindex>
					</link>
					<fielddominance>none</fielddominance>
					<itemhistory>
						<uuid>CCE02936-48DA-4CFB-AF03-5D21E10C37D9</uuid>
						<uuid>BF241D71-FC5C-4667-9D8F-25E0903A0DAA</uuid>
					</itemhistory>
				</clipitem>
				<clipitem id="Michael023 4">
					<name>Michael023</name>
					<duration>324</duration>
					<rate>
						<ntsc>FALSE</ntsc>
						<timebase>25</timebase>
					</rate>
					<in>0</in>
					<out>324</out>
					<start>15653</start>
					<end>15977</end>
					<pixelaspectratio>Square</pixelaspectratio>
					<enabled>TRUE</enabled>
					<anamorphic>FALSE</anamorphic>
					<alphatype>none</alphatype>
					<logginginfo>
						<scene/>
						<shottake/>
						<lognote/>
						<good>FALSE</good>
					</logginginfo>
					<labels>
						<label2/>
					</labels>
					<comments>
						<mastercomment1/>
						<mastercomment2/>
						<mastercomment3/>
						<mastercomment4/>
					</comments>
					<file id="Michael023 1"/>
					<sourcetrack>
						<mediatype>video</mediatype>
					</sourcetrack>
					<fielddominance>none</fielddominance>
					<itemhistory>
						<uuid>1F90B258-351B-4326-A624-0BD20E2A76AE</uuid>
						<uuid>C4E620D0-5AA2-4924-8809-532BD3C2922B</uuid>
					</itemhistory>
				</clipitem>
				<clipitem id="Michael024 ">
					<name>Michael024</name>
					<duration>288</duration>
					<rate>
						<ntsc>FALSE</ntsc>
						<timebase>25</timebase>
					</rate>
					<in>0</in>
					<out>287</out>
					<start>16070</start>
					<end>16357</end>
					<pixelaspectratio>Square</pixelaspectratio>
					<enabled>TRUE</enabled>
					<anamorphic>FALSE</anamorphic>
					<alphatype>none</alphatype>
					<logginginfo>
						<scene/>
						<shottake/>
						<lognote/>
						<good>FALSE</good>
					</logginginfo>
					<labels>
						<label2/>
					</labels>
					<comments>
						<mastercomment1/>
						<mastercomment2/>
						<mastercomment3/>
						<mastercomment4/>
					</comments>
					<file id="Michael024 1">
						<name>Michael024</name>
						<pathurl>file://localhost/Volumes/Michael's%20Passport/woodbdrigenov2011media/Michael024</pathurl>
						<rate>
							<timebase>25</timebase>
						</rate>
						<duration>288</duration>
						<metadata>
							<storage>QuickTime</storage>
							<key>com.apple.finalcutstudio.media.uuid</key>
							<size>36</size>
							<type>UTF8</type>
							<value>C1751A54-5B87-45FB-90A3-F31BFF9D97DD</value>
						</metadata>
						<metadata>
							<storage>QuickTime</storage>
							<key>com.apple.finalcutstudio.media.history.uuid</key>
							<size>36</size>
							<type>UTF8</type>
							<value>45623449-6D17-42A5-9E8F-16D903EBA783</value>
						</metadata>
						<timecode>
							<rate>
								<timebase>25</timebase>
							</rate>
							<string>00:00:00:00</string>
							<frame>0</frame>
							<displayformat>NDF</displayformat>
							<source>source</source>
							<reel>
								<name>Michael</name>
							</reel>
						</timecode>
						<media>
							<video>
								<duration>288</duration>
								<samplecharacteristics>
									<width>1280</width>
									<height>720</height>
								</samplecharacteristics>
							</video>
							<audio>
								<samplecharacteristics>
									<samplerate>48000</samplerate>
									<depth>16</depth>
								</samplecharacteristics>
								<channelcount>2</channelcount>
								<layout>stereo</layout>
								<audiochannel>
									<sourcechannel>1</sourcechannel>
									<channellabel>left</channellabel>
								</audiochannel>
								<audiochannel>
									<sourcechannel>2</sourcechannel>
									<channellabel>right</channellabel>
								</audiochannel>
							</audio>
						</media>
					</file>
					<sourcetrack>
						<mediatype>video</mediatype>
					</sourcetrack>
					<fielddominance>none</fielddominance>
					<itemhistory>
						<uuid>56780789-EE3E-4377-AE11-EF6CA4968122</uuid>
						<uuid>DB567331-9AAC-4495-95EF-7400052372D1</uuid>
					</itemhistory>
				</clipitem>
				<clipitem id="Michael025 ">
					<name>Michael025</name>
					<duration>348</duration>
					<rate>
						<ntsc>FALSE</ntsc>
						<timebase>25</timebase>
					</rate>
					<in>0</in>
					<out>347</out>
					<start>16431</start>
					<end>16778</end>
					<pixelaspectratio>Square</pixelaspectratio>
					<enabled>TRUE</enabled>
					<anamorphic>FALSE</anamorphic>
					<alphatype>none</alphatype>
					<logginginfo>
						<scene/>
						<shottake/>
						<lognote/>
						<good>FALSE</good>
					</logginginfo>
					<labels>
						<label2/>
					</labels>
					<comments>
						<mastercomment1/>
						<mastercomment2/>
						<mastercomment3/>
						<mastercomment4/>
					</comments>
					<file id="Michael025 1">
						<name>Michael025</name>
						<pathurl>file://localhost/Volumes/Michael's%20Passport/woodbdrigenov2011media/Michael025</pathurl>
						<rate>
							<timebase>25</timebase>
						</rate>
						<duration>348</duration>
						<metadata>
							<storage>QuickTime</storage>
							<key>com.apple.finalcutstudio.media.uuid</key>
							<size>36</size>
							<type>UTF8</type>
							<value>DEF35129-FC17-4D4E-8F68-2F556DF6057D</value>
						</metadata>
						<metadata>
							<storage>QuickTime</storage>
							<key>com.apple.finalcutstudio.media.history.uuid</key>
							<size>36</size>
							<type>UTF8</type>
							<value>779FE69E-7002-4695-B143-86F1A0F51C9D</value>
						</metadata>
						<timecode>
							<rate>
								<timebase>25</timebase>
							</rate>
							<string>00:00:00:00</string>
							<frame>0</frame>
							<displayformat>NDF</displayformat>
							<source>source</source>
							<reel>
								<name>Michael</name>
							</reel>
						</timecode>
						<media>
							<video>
								<duration>348</duration>
								<samplecharacteristics>
									<width>1280</width>
									<height>720</height>
								</samplecharacteristics>
							</video>
							<audio>
								<samplecharacteristics>
									<samplerate>48000</samplerate>
									<depth>16</depth>
								</samplecharacteristics>
								<channelcount>2</channelcount>
								<layout>stereo</layout>
								<audiochannel>
									<sourcechannel>1</sourcechannel>
									<channellabel>left</channellabel>
								</audiochannel>
								<audiochannel>
									<sourcechannel>2</sourcechannel>
									<channellabel>right</channellabel>
								</audiochannel>
							</audio>
						</media>
					</file>
					<sourcetrack>
						<mediatype>video</mediatype>
					</sourcetrack>
					<fielddominance>none</fielddominance>
					<itemhistory>
						<uuid>F7DFB840-33B1-4DCD-93DD-88544499765D</uuid>
						<uuid>46107D3E-110D-44CC-A478-6E90A282575D</uuid>
					</itemhistory>
				</clipitem>
				<clipitem id="Michael026 ">
					<name>Michael026</name>
					<duration>2100</duration>
					<rate>
						<ntsc>FALSE</ntsc>
						<timebase>25</timebase>
					</rate>
					<in>0</in>
					<out>2099</out>
					<start>18494</start>
					<end>20593</end>
					<pixelaspectratio>Square</pixelaspectratio>
					<enabled>TRUE</enabled>
					<anamorphic>FALSE</anamorphic>
					<alphatype>none</alphatype>
					<logginginfo>
						<scene/>
						<shottake/>
						<lognote/>
						<good>FALSE</good>
					</logginginfo>
					<labels>
						<label2/>
					</labels>
					<comments>
						<mastercomment1/>
						<mastercomment2/>
						<mastercomment3/>
						<mastercomment4/>
					</comments>
					<file id="Michael026 1">
						<name>Michael026</name>
						<pathurl>file://localhost/Volumes/Michael's%20Passport/woodbdrigenov2011media/Michael026</pathurl>
						<rate>
							<timebase>25</timebase>
						</rate>
						<duration>2100</duration>
						<metadata>
							<storage>QuickTime</storage>
							<key>com.apple.finalcutstudio.media.uuid</key>
							<size>36</size>
							<type>UTF8</type>
							<value>D4DDAC79-616C-4D99-85DB-38F11B63295F</value>
						</metadata>
						<metadata>
							<storage>QuickTime</storage>
							<key>com.apple.finalcutstudio.media.history.uuid</key>
							<size>36</size>
							<type>UTF8</type>
							<value>DF8DC136-9558-47E0-A919-A4C68C2286B2</value>
						</metadata>
						<timecode>
							<rate>
								<timebase>25</timebase>
							</rate>
							<string>00:00:00:00</string>
							<frame>0</frame>
							<displayformat>NDF</displayformat>
							<source>source</source>
							<reel>
								<name>Michael</name>
							</reel>
						</timecode>
						<media>
							<video>
								<duration>2100</duration>
								<samplecharacteristics>
									<width>1280</width>
									<height>720</height>
								</samplecharacteristics>
							</video>
							<audio>
								<samplecharacteristics>
									<samplerate>48000</samplerate>
									<depth>16</depth>
								</samplecharacteristics>
								<channelcount>2</channelcount>
								<layout>stereo</layout>
								<audiochannel>
									<sourcechannel>1</sourcechannel>
									<channellabel>left</channellabel>
								</audiochannel>
								<audiochannel>
									<sourcechannel>2</sourcechannel>
									<channellabel>right</channellabel>
								</audiochannel>
							</audio>
						</media>
					</file>
					<sourcetrack>
						<mediatype>video</mediatype>
					</sourcetrack>
					<fielddominance>none</fielddominance>
					<itemhistory>
						<uuid>36511E91-4924-41AA-A62E-ABD6B2EE0D24</uuid>
						<uuid>0DCD2BD9-505B-4230-8C1A-13F7D0D67FA4</uuid>
					</itemhistory>
				</clipitem>
				<clipitem id="Michael027 ">
					<name>Michael027</name>
					<duration>2688</duration>
					<rate>
						<ntsc>FALSE</ntsc>
						<timebase>25</timebase>
					</rate>
					<in>0</in>
					<out>2688</out>
					<start>20783</start>
					<end>23471</end>
					<pixelaspectratio>Square</pixelaspectratio>
					<enabled>TRUE</enabled>
					<anamorphic>FALSE</anamorphic>
					<alphatype>none</alphatype>
					<logginginfo>
						<scene/>
						<shottake/>
						<lognote/>
						<good>FALSE</good>
					</logginginfo>
					<labels>
						<label2/>
					</labels>
					<comments>
						<mastercomment1/>
						<mastercomment2/>
						<mastercomment3/>
						<mastercomment4/>
					</comments>
					<file id="Michael027 1">
						<name>Michael027</name>
						<pathurl>file://localhost/Volumes/Michael's%20Passport/woodbdrigenov2011media/Michael027</pathurl>
						<rate>
							<timebase>25</timebase>
						</rate>
						<duration>2688</duration>
						<metadata>
							<storage>QuickTime</storage>
							<key>com.apple.finalcutstudio.media.uuid</key>
							<size>36</size>
							<type>UTF8</type>
							<value>64FB9ECC-B5AD-4ABB-B7C9-3A3ED6A15B1D</value>
						</metadata>
						<metadata>
							<storage>QuickTime</storage>
							<key>com.apple.finalcutstudio.media.history.uuid</key>
							<size>36</size>
							<type>UTF8</type>
							<value>2931BB3A-CA11-4992-99EF-9D35940A0ACA</value>
						</metadata>
						<timecode>
							<rate>
								<timebase>25</timebase>
							</rate>
							<string>00:00:00:00</string>
							<frame>0</frame>
							<displayformat>NDF</displayformat>
							<source>source</source>
							<reel>
								<name>Michael</name>
							</reel>
						</timecode>
						<media>
							<video>
								<duration>2688</duration>
								<samplecharacteristics>
									<width>1280</width>
									<height>720</height>
								</samplecharacteristics>
							</video>
							<audio>
								<samplecharacteristics>
									<samplerate>48000</samplerate>
									<depth>16</depth>
								</samplecharacteristics>
								<channelcount>2</channelcount>
								<layout>stereo</layout>
								<audiochannel>
									<sourcechannel>1</sourcechannel>
									<channellabel>left</channellabel>
								</audiochannel>
								<audiochannel>
									<sourcechannel>2</sourcechannel>
									<channellabel>right</channellabel>
								</audiochannel>
							</audio>
						</media>
					</file>
					<sourcetrack>
						<mediatype>video</mediatype>
					</sourcetrack>
					<fielddominance>none</fielddominance>
					<itemhistory>
						<uuid>2C2C39D6-5DB7-4420-95EC-843513655943</uuid>
						<uuid>A98B4081-E8F0-4B27-BD45-FA3D7597C599</uuid>
					</itemhistory>
				</clipitem>
				<clipitem id="Michael028 ">
					<name>Michael028</name>
					<duration>324</duration>
					<rate>
						<ntsc>FALSE</ntsc>
						<timebase>25</timebase>
					</rate>
					<in>0</in>
					<out>324</out>
					<start>23592</start>
					<end>23916</end>
					<pixelaspectratio>Square</pixelaspectratio>
					<anamorphic>FALSE</anamorphic>
					<alphatype>none</alphatype>
					<logginginfo>
						<scene/>
						<shottake/>
						<lognote/>
						<good>FALSE</good>
					</logginginfo>
					<labels>
						<label2/>
					</labels>
					<comments>
						<mastercomment1/>
						<mastercomment2/>
						<mastercomment3/>
						<mastercomment4/>
					</comments>
					<file id="Michael028 1">
						<name>Michael028</name>
						<pathurl>file://localhost/Volumes/Michael's%20Passport/woodbdrigenov2011media/Michael028</pathurl>
						<rate>
							<timebase>25</timebase>
						</rate>
						<duration>324</duration>
						<metadata>
							<storage>QuickTime</storage>
							<key>com.apple.finalcutstudio.media.uuid</key>
							<size>36</size>
							<type>UTF8</type>
							<value>8395B769-007C-4EBF-81AF-D4C5A894F1C9</value>
						</metadata>
						<metadata>
							<storage>QuickTime</storage>
							<key>com.apple.finalcutstudio.media.history.uuid</key>
							<size>36</size>
							<type>UTF8</type>
							<value>2D4F6D8A-BDC9-4542-BA56-610E2D684971</value>
						</metadata>
						<timecode>
							<rate>
								<timebase>25</timebase>
							</rate>
							<string>00:00:00:00</string>
							<frame>0</frame>
							<displayformat>NDF</displayformat>
							<source>source</source>
							<reel>
								<name>Michael</name>
							</reel>
						</timecode>
						<media>
							<video>
								<duration>324</duration>
								<samplecharacteristics>
									<width>1280</width>
									<height>720</height>
								</samplecharacteristics>
							</video>
							<audio>
								<samplecharacteristics>
									<samplerate>48000</samplerate>
									<depth>16</depth>
								</samplecharacteristics>
								<channelcount>2</channelcount>
								<layout>stereo</layout>
								<audiochannel>
									<sourcechannel>1</sourcechannel>
									<channellabel>left</channellabel>
								</audiochannel>
								<audiochannel>
									<sourcechannel>2</sourcechannel>
									<channellabel>right</channellabel>
								</audiochannel>
							</audio>
						</media>
					</file>
					<sourcetrack>
						<mediatype>video</mediatype>
					</sourcetrack>
					<fielddominance>none</fielddominance>
					<itemhistory>
						<uuid>E3C5EDCE-E89D-44D0-A38B-2F1F8244C7C7</uuid>
						<uuid>789DACB3-E8F4-4CA0-BFA1-EC91D791EFC2</uuid>
					</itemhistory>
				</clipitem>
				<clipitem id="Michael029 ">
					<name>Michael029</name>
					<duration>180</duration>
					<rate>
						<ntsc>FALSE</ntsc>
						<timebase>25</timebase>
					</rate>
					<in>0</in>
					<out>180</out>
					<start>24029</start>
					<end>24209</end>
					<pixelaspectratio>Square</pixelaspectratio>
					<anamorphic>FALSE</anamorphic>
					<alphatype>none</alphatype>
					<logginginfo>
						<scene/>
						<shottake/>
						<lognote/>
						<good>FALSE</good>
					</logginginfo>
					<labels>
						<label2/>
					</labels>
					<comments>
						<mastercomment1/>
						<mastercomment2/>
						<mastercomment3/>
						<mastercomment4/>
					</comments>
					<file id="Michael029 1">
						<name>Michael029</name>
						<pathurl>file://localhost/Volumes/Michael's%20Passport/woodbdrigenov2011media/Michael029</pathurl>
						<rate>
							<timebase>25</timebase>
						</rate>
						<duration>180</duration>
						<metadata>
							<storage>QuickTime</storage>
							<key>com.apple.finalcutstudio.media.uuid</key>
							<size>36</size>
							<type>UTF8</type>
							<value>ABE5B159-DD83-4374-A0CF-D1E896DEC82E</value>
						</metadata>
						<metadata>
							<storage>QuickTime</storage>
							<key>com.apple.finalcutstudio.media.history.uuid</key>
							<size>36</size>
							<type>UTF8</type>
							<value>3FE49926-AD5A-4657-B961-952A6ED59060</value>
						</metadata>
						<timecode>
							<rate>
								<timebase>25</timebase>
							</rate>
							<string>00:00:00:00</string>
							<frame>0</frame>
							<displayformat>NDF</displayformat>
							<source>source</source>
							<reel>
								<name>Michael</name>
							</reel>
						</timecode>
						<media>
							<video>
								<duration>180</duration>
								<samplecharacteristics>
									<width>1280</width>
									<height>720</height>
								</samplecharacteristics>
							</video>
							<audio>
								<samplecharacteristics>
									<samplerate>48000</samplerate>
									<depth>16</depth>
								</samplecharacteristics>
								<channelcount>2</channelcount>
								<layout>stereo</layout>
								<audiochannel>
									<sourcechannel>1</sourcechannel>
									<channellabel>left</channellabel>
								</audiochannel>
								<audiochannel>
									<sourcechannel>2</sourcechannel>
									<channellabel>right</channellabel>
								</audiochannel>
							</audio>
						</media>
					</file>
					<sourcetrack>
						<mediatype>video</mediatype>
					</sourcetrack>
					<fielddominance>none</fielddominance>
					<itemhistory>
						<uuid>5ED0D01B-1019-4448-928D-A0202CBFBB31</uuid>
						<uuid>FD1CE372-4D72-4D22-9C2B-169D4C052F4E</uuid>
					</itemhistory>
				</clipitem>
				<clipitem id="Michael030 ">
					<name>Michael030</name>
					<duration>540</duration>
					<rate>
						<ntsc>FALSE</ntsc>
						<timebase>25</timebase>
					</rate>
					<in>0</in>
					<out>540</out>
					<start>24582</start>
					<end>25122</end>
					<pixelaspectratio>Square</pixelaspectratio>
					<anamorphic>FALSE</anamorphic>
					<alphatype>none</alphatype>
					<logginginfo>
						<scene/>
						<shottake/>
						<lognote/>
						<good>FALSE</good>
					</logginginfo>
					<labels>
						<label2/>
					</labels>
					<comments>
						<mastercomment1/>
						<mastercomment2/>
						<mastercomment3/>
						<mastercomment4/>
					</comments>
					<file id="Michael030 1">
						<name>Michael030</name>
						<pathurl>file://localhost/Volumes/Michael's%20Passport/woodbdrigenov2011media/Michael030</pathurl>
						<rate>
							<timebase>25</timebase>
						</rate>
						<duration>540</duration>
						<metadata>
							<storage>QuickTime</storage>
							<key>com.apple.finalcutstudio.media.uuid</key>
							<size>36</size>
							<type>UTF8</type>
							<value>C4BB6C76-1739-4A7B-9585-C69E042EC9CA</value>
						</metadata>
						<metadata>
							<storage>QuickTime</storage>
							<key>com.apple.finalcutstudio.media.history.uuid</key>
							<size>36</size>
							<type>UTF8</type>
							<value>64A962DD-9626-4409-B567-55EA06F8E4DB</value>
						</metadata>
						<timecode>
							<rate>
								<timebase>25</timebase>
							</rate>
							<string>00:00:00:00</string>
							<frame>0</frame>
							<displayformat>NDF</displayformat>
							<source>source</source>
							<reel>
								<name>Michael</name>
							</reel>
						</timecode>
						<media>
							<video>
								<duration>540</duration>
								<samplecharacteristics>
									<width>1280</width>
									<height>720</height>
								</samplecharacteristics>
							</video>
							<audio>
								<samplecharacteristics>
									<samplerate>48000</samplerate>
									<depth>16</depth>
								</samplecharacteristics>
								<channelcount>2</channelcount>
								<layout>stereo</layout>
								<audiochannel>
									<sourcechannel>1</sourcechannel>
									<channellabel>left</channellabel>
								</audiochannel>
								<audiochannel>
									<sourcechannel>2</sourcechannel>
									<channellabel>right</channellabel>
								</audiochannel>
							</audio>
						</media>
					</file>
					<sourcetrack>
						<mediatype>video</mediatype>
					</sourcetrack>
					<fielddominance>none</fielddominance>
					<itemhistory>
						<uuid>841C2BD2-F76E-4C0B-81D6-DB8DA07F7141</uuid>
						<uuid>5510E11D-AAEB-4036-9EFC-DCF4CCDE3D2A</uuid>
					</itemhistory>
				</clipitem>
				<clipitem id="Michael031 ">
					<name>Michael031</name>
					<duration>396</duration>
					<rate>
						<ntsc>FALSE</ntsc>
						<timebase>25</timebase>
					</rate>
					<in>0</in>
					<out>396</out>
					<start>25215</start>
					<end>25611</end>
					<pixelaspectratio>Square</pixelaspectratio>
					<anamorphic>FALSE</anamorphic>
					<alphatype>none</alphatype>
					<logginginfo>
						<scene/>
						<shottake/>
						<lognote/>
						<good>FALSE</good>
					</logginginfo>
					<labels>
						<label2/>
					</labels>
					<comments>
						<mastercomment1/>
						<mastercomment2/>
						<mastercomment3/>
						<mastercomment4/>
					</comments>
					<file id="Michael031 1">
						<name>Michael031</name>
						<pathurl>file://localhost/Volumes/Michael's%20Passport/woodbdrigenov2011media/Michael031</pathurl>
						<rate>
							<timebase>25</timebase>
						</rate>
						<duration>396</duration>
						<metadata>
							<storage>QuickTime</storage>
							<key>com.apple.finalcutstudio.media.uuid</key>
							<size>36</size>
							<type>UTF8</type>
							<value>899717A0-038C-45CF-8169-86FD259E031C</value>
						</metadata>
						<metadata>
							<storage>QuickTime</storage>
							<key>com.apple.finalcutstudio.media.history.uuid</key>
							<size>36</size>
							<type>UTF8</type>
							<value>87E2F486-21BE-4A70-A067-15FB8A20E024</value>
						</metadata>
						<timecode>
							<rate>
								<timebase>25</timebase>
							</rate>
							<string>00:00:00:00</string>
							<frame>0</frame>
							<displayformat>NDF</displayformat>
							<source>source</source>
							<reel>
								<name>Michael</name>
							</reel>
						</timecode>
						<media>
							<video>
								<duration>396</duration>
								<samplecharacteristics>
									<width>1280</width>
									<height>720</height>
								</samplecharacteristics>
							</video>
							<audio>
								<samplecharacteristics>
									<samplerate>48000</samplerate>
									<depth>16</depth>
								</samplecharacteristics>
								<channelcount>2</channelcount>
								<layout>stereo</layout>
								<audiochannel>
									<sourcechannel>1</sourcechannel>
									<channellabel>left</channellabel>
								</audiochannel>
								<audiochannel>
									<sourcechannel>2</sourcechannel>
									<channellabel>right</channellabel>
								</audiochannel>
							</audio>
						</media>
					</file>
					<sourcetrack>
						<mediatype>video</mediatype>
					</sourcetrack>
					<fielddominance>none</fielddominance>
					<itemhistory>
						<uuid>DE02AE51-0793-44E7-86F4-B377EBBE60F2</uuid>
						<uuid>A33319BB-5825-405D-8C1A-AD301469C5A0</uuid>
					</itemhistory>
				</clipitem>
				<clipitem id="Michael032 ">
					<name>Michael032</name>
					<duration>456</duration>
					<rate>
						<ntsc>FALSE</ntsc>
						<timebase>25</timebase>
					</rate>
					<in>0</in>
					<out>456</out>
					<start>25699</start>
					<end>26155</end>
					<pixelaspectratio>Square</pixelaspectratio>
					<anamorphic>FALSE</anamorphic>
					<alphatype>none</alphatype>
					<logginginfo>
						<scene/>
						<shottake/>
						<lognote/>
						<good>FALSE</good>
					</logginginfo>
					<labels>
						<label2/>
					</labels>
					<comments>
						<mastercomment1/>
						<mastercomment2/>
						<mastercomment3/>
						<mastercomment4/>
					</comments>
					<file id="Michael032 1">
						<name>Michael032</name>
						<pathurl>file://localhost/Volumes/Michael's%20Passport/woodbdrigenov2011media/Michael032</pathurl>
						<rate>
							<timebase>25</timebase>
						</rate>
						<duration>456</duration>
						<metadata>
							<storage>QuickTime</storage>
							<key>com.apple.finalcutstudio.media.uuid</key>
							<size>36</size>
							<type>UTF8</type>
							<value>840A261D-3186-4ABE-9C39-BCC70F86747B</value>
						</metadata>
						<metadata>
							<storage>QuickTime</storage>
							<key>com.apple.finalcutstudio.media.history.uuid</key>
							<size>36</size>
							<type>UTF8</type>
							<value>23C5CA04-BE51-455F-BFF3-26E93518E828</value>
						</metadata>
						<timecode>
							<rate>
								<timebase>25</timebase>
							</rate>
							<string>00:00:00:00</string>
							<frame>0</frame>
							<displayformat>NDF</displayformat>
							<source>source</source>
							<reel>
								<name>Michael</name>
							</reel>
						</timecode>
						<media>
							<video>
								<duration>456</duration>
								<samplecharacteristics>
									<width>1280</width>
									<height>720</height>
								</samplecharacteristics>
							</video>
							<audio>
								<samplecharacteristics>
									<samplerate>48000</samplerate>
									<depth>16</depth>
								</samplecharacteristics>
								<channelcount>2</channelcount>
								<layout>stereo</layout>
								<audiochannel>
									<sourcechannel>1</sourcechannel>
									<channellabel>left</channellabel>
								</audiochannel>
								<audiochannel>
									<sourcechannel>2</sourcechannel>
									<channellabel>right</channellabel>
								</audiochannel>
							</audio>
						</media>
					</file>
					<sourcetrack>
						<mediatype>video</mediatype>
					</sourcetrack>
					<fielddominance>none</fielddominance>
					<itemhistory>
						<uuid>C004F0A4-3093-4EFB-8026-1EE59C7BAD87</uuid>
						<uuid>5ED32591-8B95-4D7E-8308-AAE05FA292EB</uuid>
					</itemhistory>
				</clipitem>
				<clipitem id="Michael033 ">
					<name>Michael033</name>
					<duration>792</duration>
					<rate>
						<ntsc>FALSE</ntsc>
						<timebase>25</timebase>
					</rate>
					<in>0</in>
					<out>792</out>
					<start>26494</start>
					<end>27286</end>
					<pixelaspectratio>Square</pixelaspectratio>
					<anamorphic>FALSE</anamorphic>
					<alphatype>none</alphatype>
					<logginginfo>
						<scene/>
						<shottake/>
						<lognote/>
						<good>FALSE</good>
					</logginginfo>
					<labels>
						<label2/>
					</labels>
					<comments>
						<mastercomment1/>
						<mastercomment2/>
						<mastercomment3/>
						<mastercomment4/>
					</comments>
					<file id="Michael033 1">
						<name>Michael033</name>
						<pathurl>file://localhost/Volumes/Michael's%20Passport/woodbdrigenov2011media/Michael033</pathurl>
						<rate>
							<timebase>25</timebase>
						</rate>
						<duration>792</duration>
						<metadata>
							<storage>QuickTime</storage>
							<key>com.apple.finalcutstudio.media.uuid</key>
							<size>36</size>
							<type>UTF8</type>
							<value>615DF0F5-1144-4E03-8782-1654AF8A2C3D</value>
						</metadata>
						<metadata>
							<storage>QuickTime</storage>
							<key>com.apple.finalcutstudio.media.history.uuid</key>
							<size>36</size>
							<type>UTF8</type>
							<value>CF203CB4-F9FD-47FF-8600-6FEB94256300</value>
						</metadata>
						<timecode>
							<rate>
								<timebase>25</timebase>
							</rate>
							<string>00:00:00:00</string>
							<frame>0</frame>
							<displayformat>NDF</displayformat>
							<source>source</source>
							<reel>
								<name>Michael</name>
							</reel>
						</timecode>
						<media>
							<video>
								<duration>792</duration>
								<samplecharacteristics>
									<width>1280</width>
									<height>720</height>
								</samplecharacteristics>
							</video>
							<audio>
								<samplecharacteristics>
									<samplerate>48000</samplerate>
									<depth>16</depth>
								</samplecharacteristics>
								<channelcount>2</channelcount>
								<layout>stereo</layout>
								<audiochannel>
									<sourcechannel>1</sourcechannel>
									<channellabel>left</channellabel>
								</audiochannel>
								<audiochannel>
									<sourcechannel>2</sourcechannel>
									<channellabel>right</channellabel>
								</audiochannel>
							</audio>
						</media>
					</file>
					<sourcetrack>
						<mediatype>video</mediatype>
					</sourcetrack>
					<fielddominance>none</fielddominance>
					<itemhistory>
						<uuid>2CEDB893-C630-490A-9AF6-F8CC8D283764</uuid>
						<uuid>AF24AB40-1633-4253-80B3-997FEE9A6AB6</uuid>
					</itemhistory>
				</clipitem>
				<clipitem id="Michael034 ">
					<name>Michael034</name>
					<duration>564</duration>
					<rate>
						<ntsc>FALSE</ntsc>
						<timebase>25</timebase>
					</rate>
					<in>0</in>
					<out>564</out>
					<start>27402</start>
					<end>27966</end>
					<pixelaspectratio>Square</pixelaspectratio>
					<anamorphic>FALSE</anamorphic>
					<alphatype>none</alphatype>
					<logginginfo>
						<scene/>
						<shottake/>
						<lognote/>
						<good>FALSE</good>
					</logginginfo>
					<labels>
						<label2/>
					</labels>
					<comments>
						<mastercomment1/>
						<mastercomment2/>
						<mastercomment3/>
						<mastercomment4/>
					</comments>
					<file id="Michael034 1">
						<name>Michael034</name>
						<pathurl>file://localhost/Volumes/Michael's%20Passport/woodbdrigenov2011media/Michael034</pathurl>
						<rate>
							<timebase>25</timebase>
						</rate>
						<duration>564</duration>
						<metadata>
							<storage>QuickTime</storage>
							<key>com.apple.finalcutstudio.media.uuid</key>
							<size>36</size>
							<type>UTF8</type>
							<value>14FF93D9-658C-403E-963C-7E672D80E021</value>
						</metadata>
						<metadata>
							<storage>QuickTime</storage>
							<key>com.apple.finalcutstudio.media.history.uuid</key>
							<size>36</size>
							<type>UTF8</type>
							<value>2DFF29A1-9D7D-4388-BC49-81DA64607F39</value>
						</metadata>
						<timecode>
							<rate>
								<timebase>25</timebase>
							</rate>
							<string>00:00:00:00</string>
							<frame>0</frame>
							<displayformat>NDF</displayformat>
							<source>source</source>
							<reel>
								<name>Michael</name>
							</reel>
						</timecode>
						<media>
							<video>
								<duration>564</duration>
								<samplecharacteristics>
									<width>1280</width>
									<height>720</height>
								</samplecharacteristics>
							</video>
							<audio>
								<samplecharacteristics>
									<samplerate>48000</samplerate>
									<depth>16</depth>
								</samplecharacteristics>
								<channelcount>2</channelcount>
								<layout>stereo</layout>
								<audiochannel>
									<sourcechannel>1</sourcechannel>
									<channellabel>left</channellabel>
								</audiochannel>
								<audiochannel>
									<sourcechannel>2</sourcechannel>
									<channellabel>right</channellabel>
								</audiochannel>
							</audio>
						</media>
					</file>
					<sourcetrack>
						<mediatype>video</mediatype>
					</sourcetrack>
					<fielddominance>none</fielddominance>
					<itemhistory>
						<uuid>D80B0977-FB3A-4303-BC4E-F8CB6499E23B</uuid>
						<uuid>031A8C64-E0F4-480B-BC6B-67CD735AC3FE</uuid>
					</itemhistory>
				</clipitem>
				<clipitem id="Michael035Subclipa">
					<name>Michael035Subclipa</name>
					<duration>303</duration>
					<rate>
						<ntsc>FALSE</ntsc>
						<timebase>25</timebase>
					</rate>
					<in>0</in>
					<out>302</out>
					<start>28051</start>
					<end>28353</end>
					<pixelaspectratio>Square</pixelaspectratio>
					<anamorphic>FALSE</anamorphic>
					<alphatype>none</alphatype>
					<logginginfo>
						<scene/>
						<shottake/>
						<lognote/>
						<good>FALSE</good>
					</logginginfo>
					<labels>
						<label2/>
					</labels>
					<comments>
						<mastercomment1/>
						<mastercomment2/>
						<mastercomment3/>
						<mastercomment4/>
					</comments>
					<file id="Michael035Subclipa1">
						<name>Michael035Subclipa</name>
						<pathurl>file://localhost/Volumes/Michael's%20Passport/woodbdrigenov2011media/Michael035Subclipa</pathurl>
						<rate>
							<timebase>25</timebase>
						</rate>
						<duration>303</duration>
						<metadata>
							<storage>QuickTime</storage>
							<key>com.apple.finalcutstudio.media.uuid</key>
							<size>36</size>
							<type>UTF8</type>
							<value>17F588B1-BEFB-421C-A2AE-EDA600E7AB0D</value>
						</metadata>
						<metadata>
							<storage>QuickTime</storage>
							<key>com.apple.finalcutstudio.media.history.uuid</key>
							<size>36</size>
							<type>UTF8</type>
							<value>94087250-AD12-4DAA-8BF2-4273356166CC</value>
						</metadata>
						<timecode>
							<rate>
								<timebase>25</timebase>
							</rate>
							<string>00:00:00:00</string>
							<frame>0</frame>
							<displayformat>NDF</displayformat>
							<source>source</source>
							<reel>
								<name>Michael</name>
							</reel>
						</timecode>
						<media>
							<video>
								<duration>303</duration>
								<samplecharacteristics>
									<width>1280</width>
									<height>720</height>
								</samplecharacteristics>
							</video>
							<audio>
								<samplecharacteristics>
									<samplerate>48000</samplerate>
									<depth>16</depth>
								</samplecharacteristics>
								<channelcount>2</channelcount>
								<layout>stereo</layout>
								<audiochannel>
									<sourcechannel>1</sourcechannel>
									<channellabel>left</channellabel>
								</audiochannel>
								<audiochannel>
									<sourcechannel>2</sourcechannel>
									<channellabel>right</channellabel>
								</audiochannel>
							</audio>
						</media>
					</file>
					<sourcetrack>
						<mediatype>video</mediatype>
					</sourcetrack>
					<fielddominance>none</fielddominance>
					<itemhistory>
						<uuid>F25353AF-5B5B-426B-915C-712E06AEBB9A</uuid>
						<uuid>BBA008DE-6FF3-4A6A-8921-B1BF9355D5CD</uuid>
					</itemhistory>
				</clipitem>
				<clipitem id="Michael035Subclipb">
					<name>Michael035Subclipb</name>
					<duration>418</duration>
					<rate>
						<ntsc>FALSE</ntsc>
						<timebase>25</timebase>
					</rate>
					<in>0</in>
					<out>418</out>
					<start>28353</start>
					<end>28771</end>
					<pixelaspectratio>Square</pixelaspectratio>
					<anamorphic>FALSE</anamorphic>
					<alphatype>none</alphatype>
					<logginginfo>
						<scene/>
						<shottake/>
						<lognote/>
						<good>FALSE</good>
					</logginginfo>
					<labels>
						<label2/>
					</labels>
					<comments>
						<mastercomment1/>
						<mastercomment2/>
						<mastercomment3/>
						<mastercomment4/>
					</comments>
					<file id="Michael035Subclipb1">
						<name>Michael035Subclipb</name>
						<pathurl>file://localhost/Volumes/Michael's%20Passport/woodbdrigenov2011media/Michael035Subclipb</pathurl>
						<rate>
							<timebase>25</timebase>
						</rate>
						<duration>418</duration>
						<metadata>
							<storage>QuickTime</storage>
							<key>com.apple.finalcutstudio.media.uuid</key>
							<size>36</size>
							<type>UTF8</type>
							<value>DFC3904E-155F-4B40-9D81-B2FFA53196F3</value>
						</metadata>
						<metadata>
							<storage>QuickTime</storage>
							<key>com.apple.finalcutstudio.media.history.uuid</key>
							<size>36</size>
							<type>UTF8</type>
							<value>94087250-AD12-4DAA-8BF2-4273356166CC</value>
						</metadata>
						<timecode>
							<rate>
								<timebase>25</timebase>
							</rate>
							<string>00:00:12:02</string>
							<frame>302</frame>
							<displayformat>NDF</displayformat>
							<source>source</source>
							<reel>
								<name>Michael</name>
							</reel>
						</timecode>
						<media>
							<video>
								<duration>418</duration>
								<samplecharacteristics>
									<width>1280</width>
									<height>720</height>
								</samplecharacteristics>
							</video>
							<audio>
								<samplecharacteristics>
									<samplerate>48000</samplerate>
									<depth>16</depth>
								</samplecharacteristics>
								<channelcount>2</channelcount>
								<layout>stereo</layout>
								<audiochannel>
									<sourcechannel>1</sourcechannel>
									<channellabel>left</channellabel>
								</audiochannel>
								<audiochannel>
									<sourcechannel>2</sourcechannel>
									<channellabel>right</channellabel>
								</audiochannel>
							</audio>
						</media>
					</file>
					<sourcetrack>
						<mediatype>video</mediatype>
					</sourcetrack>
					<fielddominance>none</fielddominance>
					<itemhistory>
						<uuid>91BC5FD6-9320-42A4-A186-C503554ACAC4</uuid>
						<uuid>11AF86DA-7A4A-4F89-A1B4-A60407E04170</uuid>
					</itemhistory>
				</clipitem>
				<clipitem id="Michael036 ">
					<name>Michael036</name>
					<duration>240</duration>
					<rate>
						<ntsc>FALSE</ntsc>
						<timebase>25</timebase>
					</rate>
					<in>0</in>
					<out>240</out>
					<start>29052</start>
					<end>29292</end>
					<pixelaspectratio>Square</pixelaspectratio>
					<anamorphic>FALSE</anamorphic>
					<alphatype>none</alphatype>
					<logginginfo>
						<scene/>
						<shottake/>
						<lognote/>
						<good>FALSE</good>
					</logginginfo>
					<labels>
						<label2/>
					</labels>
					<comments>
						<mastercomment1/>
						<mastercomment2/>
						<mastercomment3/>
						<mastercomment4/>
					</comments>
					<file id="Michael036 1">
						<name>Michael036</name>
						<pathurl>file://localhost/Volumes/Michael's%20Passport/woodbdrigenov2011media/Michael036</pathurl>
						<rate>
							<timebase>25</timebase>
						</rate>
						<duration>240</duration>
						<metadata>
							<storage>QuickTime</storage>
							<key>com.apple.finalcutstudio.media.uuid</key>
							<size>36</size>
							<type>UTF8</type>
							<value>49495014-7BCB-4266-9120-81C1D81C1607</value>
						</metadata>
						<metadata>
							<storage>QuickTime</storage>
							<key>com.apple.finalcutstudio.media.history.uuid</key>
							<size>36</size>
							<type>UTF8</type>
							<value>C3D2DD31-7E35-4763-B0FD-D8A67E228C81</value>
						</metadata>
						<timecode>
							<rate>
								<timebase>25</timebase>
							</rate>
							<string>00:00:00:00</string>
							<frame>0</frame>
							<displayformat>NDF</displayformat>
							<source>source</source>
							<reel>
								<name>Michael</name>
							</reel>
						</timecode>
						<media>
							<video>
								<duration>240</duration>
								<samplecharacteristics>
									<width>1280</width>
									<height>720</height>
								</samplecharacteristics>
							</video>
							<audio>
								<samplecharacteristics>
									<samplerate>48000</samplerate>
									<depth>16</depth>
								</samplecharacteristics>
								<channelcount>2</channelcount>
								<layout>stereo</layout>
								<audiochannel>
									<sourcechannel>1</sourcechannel>
									<channellabel>left</channellabel>
								</audiochannel>
								<audiochannel>
									<sourcechannel>2</sourcechannel>
									<channellabel>right</channellabel>
								</audiochannel>
							</audio>
						</media>
					</file>
					<sourcetrack>
						<mediatype>video</mediatype>
					</sourcetrack>
					<fielddominance>none</fielddominance>
					<itemhistory>
						<uuid>0735B5A6-9270-4E06-8FFA-590CB6D4BF3E</uuid>
						<uuid>3BEEE9C4-4E34-414C-AF0D-CA31C9D50702</uuid>
					</itemhistory>
				</clipitem>
				<clipitem id="Michael037 ">
					<name>Michael037</name>
					<duration>612</duration>
					<rate>
						<ntsc>FALSE</ntsc>
						<timebase>25</timebase>
					</rate>
					<in>0</in>
					<out>612</out>
					<start>29384</start>
					<end>29996</end>
					<pixelaspectratio>Square</pixelaspectratio>
					<anamorphic>FALSE</anamorphic>
					<alphatype>none</alphatype>
					<logginginfo>
						<scene/>
						<shottake/>
						<lognote/>
						<good>FALSE</good>
					</logginginfo>
					<labels>
						<label2/>
					</labels>
					<comments>
						<mastercomment1/>
						<mastercomment2/>
						<mastercomment3/>
						<mastercomment4/>
					</comments>
					<file id="Michael037 1">
						<name>Michael037</name>
						<pathurl>file://localhost/Volumes/Michael's%20Passport/woodbdrigenov2011media/Michael037</pathurl>
						<rate>
							<timebase>25</timebase>
						</rate>
						<duration>612</duration>
						<metadata>
							<storage>QuickTime</storage>
							<key>com.apple.finalcutstudio.media.uuid</key>
							<size>36</size>
							<type>UTF8</type>
							<value>9D54005F-DDD9-408D-B96D-8D183F267FF0</value>
						</metadata>
						<metadata>
							<storage>QuickTime</storage>
							<key>com.apple.finalcutstudio.media.history.uuid</key>
							<size>36</size>
							<type>UTF8</type>
							<value>23F7CF89-B75F-4B8E-99BD-06EE72E1D566</value>
						</metadata>
						<timecode>
							<rate>
								<timebase>25</timebase>
							</rate>
							<string>00:00:00:00</string>
							<frame>0</frame>
							<displayformat>NDF</displayformat>
							<source>source</source>
							<reel>
								<name>Michael</name>
							</reel>
						</timecode>
						<media>
							<video>
								<duration>612</duration>
								<samplecharacteristics>
									<width>1280</width>
									<height>720</height>
								</samplecharacteristics>
							</video>
							<audio>
								<samplecharacteristics>
									<samplerate>48000</samplerate>
									<depth>16</depth>
								</samplecharacteristics>
								<channelcount>2</channelcount>
								<layout>stereo</layout>
								<audiochannel>
									<sourcechannel>1</sourcechannel>
									<channellabel>left</channellabel>
								</audiochannel>
								<audiochannel>
									<sourcechannel>2</sourcechannel>
									<channellabel>right</channellabel>
								</audiochannel>
							</audio>
						</media>
					</file>
					<sourcetrack>
						<mediatype>video</mediatype>
					</sourcetrack>
					<fielddominance>none</fielddominance>
					<itemhistory>
						<uuid>22BCB1ED-178B-4486-BA69-13D0125FAC9E</uuid>
						<uuid>2B57E12B-CAB1-4726-966F-6FBF1E14FA54</uuid>
					</itemhistory>
				</clipitem>
				<clipitem id="Michael038Subclipa">
					<name>Michael038Subclipa</name>
					<duration>583</duration>
					<rate>
						<ntsc>FALSE</ntsc>
						<timebase>25</timebase>
					</rate>
					<in>0</in>
					<out>582</out>
					<start>30062</start>
					<end>30644</end>
					<pixelaspectratio>Square</pixelaspectratio>
					<anamorphic>FALSE</anamorphic>
					<alphatype>none</alphatype>
					<logginginfo>
						<scene/>
						<shottake/>
						<lognote/>
						<good>FALSE</good>
					</logginginfo>
					<labels>
						<label2/>
					</labels>
					<comments>
						<mastercomment1/>
						<mastercomment2/>
						<mastercomment3/>
						<mastercomment4/>
					</comments>
					<file id="Michael038Subclipa1">
						<name>Michael038Subclipa</name>
						<pathurl>file://localhost/Volumes/Michael's%20Passport/woodbdrigenov2011media/Michael038Subclipa</pathurl>
						<rate>
							<timebase>25</timebase>
						</rate>
						<duration>583</duration>
						<metadata>
							<storage>QuickTime</storage>
							<key>com.apple.finalcutstudio.media.uuid</key>
							<size>36</size>
							<type>UTF8</type>
							<value>E7CB17DB-4DD4-41B8-B14D-EF24AE443975</value>
						</metadata>
						<metadata>
							<storage>QuickTime</storage>
							<key>com.apple.finalcutstudio.media.history.uuid</key>
							<size>36</size>
							<type>UTF8</type>
							<value>85FBA6C2-DE60-417D-BAE2-06B02A8218B2</value>
						</metadata>
						<timecode>
							<rate>
								<timebase>25</timebase>
							</rate>
							<string>00:00:00:00</string>
							<frame>0</frame>
							<displayformat>NDF</displayformat>
							<source>source</source>
							<reel>
								<name>Michael</name>
							</reel>
						</timecode>
						<media>
							<video>
								<duration>583</duration>
								<samplecharacteristics>
									<width>1280</width>
									<height>720</height>
								</samplecharacteristics>
							</video>
							<audio>
								<samplecharacteristics>
									<samplerate>48000</samplerate>
									<depth>16</depth>
								</samplecharacteristics>
								<channelcount>2</channelcount>
								<layout>stereo</layout>
								<audiochannel>
									<sourcechannel>1</sourcechannel>
									<channellabel>left</channellabel>
								</audiochannel>
								<audiochannel>
									<sourcechannel>2</sourcechannel>
									<channellabel>right</channellabel>
								</audiochannel>
							</audio>
						</media>
					</file>
					<sourcetrack>
						<mediatype>video</mediatype>
					</sourcetrack>
					<fielddominance>none</fielddominance>
					<itemhistory>
						<uuid>590EDD6E-181D-42A1-9282-6768BEBFF6F4</uuid>
						<uuid>C4AB9F58-DB4E-408E-88C3-5A8161D8F40F</uuid>
					</itemhistory>
				</clipitem>
				<clipitem id="Michael038Subclipb">
					<name>Michael038Subclipb</name>
					<duration>726</duration>
					<rate>
						<ntsc>FALSE</ntsc>
						<timebase>25</timebase>
					</rate>
					<in>0</in>
					<out>725</out>
					<start>30645</start>
					<end>31370</end>
					<pixelaspectratio>Square</pixelaspectratio>
					<anamorphic>FALSE</anamorphic>
					<alphatype>none</alphatype>
					<logginginfo>
						<scene/>
						<shottake/>
						<lognote/>
						<good>FALSE</good>
					</logginginfo>
					<labels>
						<label2/>
					</labels>
					<comments>
						<mastercomment1/>
						<mastercomment2/>
						<mastercomment3/>
						<mastercomment4/>
					</comments>
					<file id="Michael038Subclipb1">
						<name>Michael038Subclipb</name>
						<pathurl>file://localhost/Volumes/Michael's%20Passport/woodbdrigenov2011media/Michael038Subclipb</pathurl>
						<rate>
							<timebase>25</timebase>
						</rate>
						<duration>726</duration>
						<metadata>
							<storage>QuickTime</storage>
							<key>com.apple.finalcutstudio.media.uuid</key>
							<size>36</size>
							<type>UTF8</type>
							<value>7D5BA77E-FA22-417F-B5B6-DAC96B0EB264</value>
						</metadata>
						<metadata>
							<storage>QuickTime</storage>
							<key>com.apple.finalcutstudio.media.history.uuid</key>
							<size>36</size>
							<type>UTF8</type>
							<value>85FBA6C2-DE60-417D-BAE2-06B02A8218B2</value>
						</metadata>
						<timecode>
							<rate>
								<timebase>25</timebase>
							</rate>
							<string>00:00:23:07</string>
							<frame>582</frame>
							<displayformat>NDF</displayformat>
							<source>source</source>
							<reel>
								<name>Michael</name>
							</reel>
						</timecode>
						<media>
							<video>
								<duration>726</duration>
								<samplecharacteristics>
									<width>1280</width>
									<height>720</height>
								</samplecharacteristics>
							</video>
							<audio>
								<samplecharacteristics>
									<samplerate>48000</samplerate>
									<depth>16</depth>
								</samplecharacteristics>
								<channelcount>2</channelcount>
								<layout>stereo</layout>
								<audiochannel>
									<sourcechannel>1</sourcechannel>
									<channellabel>left</channellabel>
								</audiochannel>
								<audiochannel>
									<sourcechannel>2</sourcechannel>
									<channellabel>right</channellabel>
								</audiochannel>
							</audio>
						</media>
					</file>
					<sourcetrack>
						<mediatype>video</mediatype>
					</sourcetrack>
					<fielddominance>none</fielddominance>
					<itemhistory>
						<uuid>92727819-73E5-4984-BCB5-C87E8BFF6DDE</uuid>
						<uuid>D3D71BE4-4BC6-4849-BA64-E9FA1997BAC4</uuid>
					</itemhistory>
				</clipitem>
				<clipitem id="Michael039Subclipa">
					<name>Michael039Subclipa</name>
					<duration>321</duration>
					<rate>
						<ntsc>FALSE</ntsc>
						<timebase>25</timebase>
					</rate>
					<in>0</in>
					<out>320</out>
					<start>32099</start>
					<end>32419</end>
					<pixelaspectratio>Square</pixelaspectratio>
					<anamorphic>FALSE</anamorphic>
					<alphatype>none</alphatype>
					<logginginfo>
						<scene/>
						<shottake/>
						<lognote/>
						<good>FALSE</good>
					</logginginfo>
					<labels>
						<label2/>
					</labels>
					<comments>
						<mastercomment1/>
						<mastercomment2/>
						<mastercomment3/>
						<mastercomment4/>
					</comments>
					<file id="Michael039Subclipa1">
						<name>Michael039Subclipa</name>
						<pathurl>file://localhost/Volumes/Michael's%20Passport/woodbdrigenov2011media/Michael039Subclipa</pathurl>
						<rate>
							<timebase>25</timebase>
						</rate>
						<duration>321</duration>
						<metadata>
							<storage>QuickTime</storage>
							<key>com.apple.finalcutstudio.media.uuid</key>
							<size>36</size>
							<type>UTF8</type>
							<value>48EB1A8D-FAD7-498A-A189-9687BE6780BA</value>
						</metadata>
						<metadata>
							<storage>QuickTime</storage>
							<key>com.apple.finalcutstudio.media.history.uuid</key>
							<size>36</size>
							<type>UTF8</type>
							<value>5279BBC1-97DD-4B60-B68D-DB33F2C470EB</value>
						</metadata>
						<timecode>
							<rate>
								<timebase>25</timebase>
							</rate>
							<string>00:00:00:00</string>
							<frame>0</frame>
							<displayformat>NDF</displayformat>
							<source>source</source>
							<reel>
								<name>Michael</name>
							</reel>
						</timecode>
						<media>
							<video>
								<duration>321</duration>
								<samplecharacteristics>
									<width>1280</width>
									<height>720</height>
								</samplecharacteristics>
							</video>
							<audio>
								<samplecharacteristics>
									<samplerate>48000</samplerate>
									<depth>16</depth>
								</samplecharacteristics>
								<channelcount>2</channelcount>
								<layout>stereo</layout>
								<audiochannel>
									<sourcechannel>1</sourcechannel>
									<channellabel>left</channellabel>
								</audiochannel>
								<audiochannel>
									<sourcechannel>2</sourcechannel>
									<channellabel>right</channellabel>
								</audiochannel>
							</audio>
						</media>
					</file>
					<sourcetrack>
						<mediatype>video</mediatype>
					</sourcetrack>
					<fielddominance>none</fielddominance>
					<itemhistory>
						<uuid>883AF732-C513-42BF-99A0-C56136761874</uuid>
						<uuid>C29E4F0D-3D8F-4AE3-882A-B2E7E02FDD92</uuid>
					</itemhistory>
				</clipitem>
				<clipitem id="Michael039Subclipb">
					<name>Michael039Subclipb</name>
					<duration>2152</duration>
					<rate>
						<ntsc>FALSE</ntsc>
						<timebase>25</timebase>
					</rate>
					<in>0</in>
					<out>2152</out>
					<start>32419</start>
					<end>34571</end>
					<pixelaspectratio>Square</pixelaspectratio>
					<anamorphic>FALSE</anamorphic>
					<alphatype>none</alphatype>
					<logginginfo>
						<scene/>
						<shottake/>
						<lognote/>
						<good>FALSE</good>
					</logginginfo>
					<labels>
						<label2/>
					</labels>
					<comments>
						<mastercomment1/>
						<mastercomment2/>
						<mastercomment3/>
						<mastercomment4/>
					</comments>
					<file id="Michael039Subclipb1">
						<name>Michael039Subclipb</name>
						<pathurl>file://localhost/Volumes/Michael's%20Passport/woodbdrigenov2011media/Michael039Subclipb</pathurl>
						<rate>
							<timebase>25</timebase>
						</rate>
						<duration>2152</duration>
						<metadata>
							<storage>QuickTime</storage>
							<key>com.apple.finalcutstudio.media.uuid</key>
							<size>36</size>
							<type>UTF8</type>
							<value>3E3922CB-0EA2-4B1A-8250-276E84A8F1D1</value>
						</metadata>
						<metadata>
							<storage>QuickTime</storage>
							<key>com.apple.finalcutstudio.media.history.uuid</key>
							<size>36</size>
							<type>UTF8</type>
							<value>5279BBC1-97DD-4B60-B68D-DB33F2C470EB</value>
						</metadata>
						<timecode>
							<rate>
								<timebase>25</timebase>
							</rate>
							<string>00:00:12:20</string>
							<frame>320</frame>
							<displayformat>NDF</displayformat>
							<source>source</source>
							<reel>
								<name>Michael</name>
							</reel>
						</timecode>
						<media>
							<video>
								<duration>2152</duration>
								<samplecharacteristics>
									<width>1280</width>
									<height>720</height>
								</samplecharacteristics>
							</video>
							<audio>
								<samplecharacteristics>
									<samplerate>48000</samplerate>
									<depth>16</depth>
								</samplecharacteristics>
								<channelcount>2</channelcount>
								<layout>stereo</layout>
								<audiochannel>
									<sourcechannel>1</sourcechannel>
									<channellabel>left</channellabel>
								</audiochannel>
								<audiochannel>
									<sourcechannel>2</sourcechannel>
									<channellabel>right</channellabel>
								</audiochannel>
							</audio>
						</media>
					</file>
					<sourcetrack>
						<mediatype>video</mediatype>
					</sourcetrack>
					<fielddominance>none</fielddominance>
					<itemhistory>
						<uuid>68B65507-1DC9-44D6-ACF3-4C7FA37333CF</uuid>
						<uuid>7F99FD7B-B71E-4234-ACCC-853499545002</uuid>
					</itemhistory>
				</clipitem>
				<clipitem id="Michael040Subclipa">
					<name>Michael040Subclipa</name>
					<duration>843</duration>
					<rate>
						<ntsc>FALSE</ntsc>
						<timebase>25</timebase>
					</rate>
					<in>0</in>
					<out>842</out>
					<start>34790</start>
					<end>35632</end>
					<pixelaspectratio>Square</pixelaspectratio>
					<anamorphic>FALSE</anamorphic>
					<alphatype>none</alphatype>
					<logginginfo>
						<scene/>
						<shottake/>
						<lognote/>
						<good>FALSE</good>
					</logginginfo>
					<labels>
						<label2/>
					</labels>
					<comments>
						<mastercomment1/>
						<mastercomment2/>
						<mastercomment3/>
						<mastercomment4/>
					</comments>
					<file id="Michael040Subclipa1">
						<name>Michael040Subclipa</name>
						<pathurl>file://localhost/Volumes/Michael's%20Passport/woodbdrigenov2011media/Michael040Subclipa</pathurl>
						<rate>
							<timebase>25</timebase>
						</rate>
						<duration>843</duration>
						<metadata>
							<storage>QuickTime</storage>
							<key>com.apple.finalcutstudio.media.uuid</key>
							<size>36</size>
							<type>UTF8</type>
							<value>399046B3-29EE-4B11-92D6-7244D8ED047D</value>
						</metadata>
						<metadata>
							<storage>QuickTime</storage>
							<key>com.apple.finalcutstudio.media.history.uuid</key>
							<size>36</size>
							<type>UTF8</type>
							<value>7038C234-64F3-41B3-BD94-2507D9D1D994</value>
						</metadata>
						<timecode>
							<rate>
								<timebase>25</timebase>
							</rate>
							<string>00:00:00:00</string>
							<frame>0</frame>
							<displayformat>NDF</displayformat>
							<source>source</source>
							<reel>
								<name>Michael</name>
							</reel>
						</timecode>
						<media>
							<video>
								<duration>843</duration>
								<samplecharacteristics>
									<width>1280</width>
									<height>720</height>
								</samplecharacteristics>
							</video>
							<audio>
								<samplecharacteristics>
									<samplerate>48000</samplerate>
									<depth>16</depth>
								</samplecharacteristics>
								<channelcount>2</channelcount>
								<layout>stereo</layout>
								<audiochannel>
									<sourcechannel>1</sourcechannel>
									<channellabel>left</channellabel>
								</audiochannel>
								<audiochannel>
									<sourcechannel>2</sourcechannel>
									<channellabel>right</channellabel>
								</audiochannel>
							</audio>
						</media>
					</file>
					<sourcetrack>
						<mediatype>video</mediatype>
					</sourcetrack>
					<fielddominance>none</fielddominance>
					<itemhistory>
						<uuid>CDCF7B8C-04EA-40E6-8265-E32C34D3CC11</uuid>
						<uuid>55AA9DE5-700B-4ECB-8CA8-3BE1324153E3</uuid>
					</itemhistory>
				</clipitem>
				<clipitem id="Michael040Subclipb">
					<name>Michael040Subclipb</name>
					<duration>994</duration>
					<rate>
						<ntsc>FALSE</ntsc>
						<timebase>25</timebase>
					</rate>
					<in>0</in>
					<out>994</out>
					<start>35632</start>
					<end>36626</end>
					<pixelaspectratio>Square</pixelaspectratio>
					<anamorphic>FALSE</anamorphic>
					<alphatype>none</alphatype>
					<logginginfo>
						<scene/>
						<shottake/>
						<lognote/>
						<good>FALSE</good>
					</logginginfo>
					<labels>
						<label2/>
					</labels>
					<comments>
						<mastercomment1/>
						<mastercomment2/>
						<mastercomment3/>
						<mastercomment4/>
					</comments>
					<file id="Michael040Subclipb1">
						<name>Michael040Subclipb</name>
						<pathurl>file://localhost/Volumes/Michael's%20Passport/woodbdrigenov2011media/Michael040Subclipb</pathurl>
						<rate>
							<timebase>25</timebase>
						</rate>
						<duration>994</duration>
						<metadata>
							<storage>QuickTime</storage>
							<key>com.apple.finalcutstudio.media.uuid</key>
							<size>36</size>
							<type>UTF8</type>
							<value>2A639E39-8A01-4C15-863A-C94D0FEE5A19</value>
						</metadata>
						<metadata>
							<storage>QuickTime</storage>
							<key>com.apple.finalcutstudio.media.history.uuid</key>
							<size>36</size>
							<type>UTF8</type>
							<value>7038C234-64F3-41B3-BD94-2507D9D1D994</value>
						</metadata>
						<timecode>
							<rate>
								<timebase>25</timebase>
							</rate>
							<string>00:00:33:17</string>
							<frame>842</frame>
							<displayformat>NDF</displayformat>
							<source>source</source>
							<reel>
								<name>Michael</name>
							</reel>
						</timecode>
						<media>
							<video>
								<duration>994</duration>
								<samplecharacteristics>
									<width>1280</width>
									<height>720</height>
								</samplecharacteristics>
							</video>
							<audio>
								<samplecharacteristics>
									<samplerate>48000</samplerate>
									<depth>16</depth>
								</samplecharacteristics>
								<channelcount>2</channelcount>
								<layout>stereo</layout>
								<audiochannel>
									<sourcechannel>1</sourcechannel>
									<channellabel>left</channellabel>
								</audiochannel>
								<audiochannel>
									<sourcechannel>2</sourcechannel>
									<channellabel>right</channellabel>
								</audiochannel>
							</audio>
						</media>
					</file>
					<sourcetrack>
						<mediatype>video</mediatype>
					</sourcetrack>
					<fielddominance>none</fielddominance>
					<itemhistory>
						<uuid>74CCC27D-4A1B-44B2-AB20-B4CFBD7CE450</uuid>
						<uuid>300D9732-CC85-4B2F-8615-3B2328C00EB0</uuid>
					</itemhistory>
				</clipitem>
				<clipitem id="Michael041Subclipa">
					<name>Michael041Subclipa</name>
					<duration>292</duration>
					<rate>
						<ntsc>FALSE</ntsc>
						<timebase>25</timebase>
					</rate>
					<in>0</in>
					<out>291</out>
					<start>36785</start>
					<end>37076</end>
					<pixelaspectratio>Square</pixelaspectratio>
					<anamorphic>FALSE</anamorphic>
					<alphatype>none</alphatype>
					<logginginfo>
						<scene/>
						<shottake/>
						<lognote/>
						<good>FALSE</good>
					</logginginfo>
					<labels>
						<label2/>
					</labels>
					<comments>
						<mastercomment1/>
						<mastercomment2/>
						<mastercomment3/>
						<mastercomment4/>
					</comments>
					<file id="Michael041Subclipa1">
						<name>Michael041Subclipa</name>
						<pathurl>file://localhost/Volumes/Michael's%20Passport/woodbdrigenov2011media/Michael041Subclipa</pathurl>
						<rate>
							<timebase>25</timebase>
						</rate>
						<duration>292</duration>
						<metadata>
							<storage>QuickTime</storage>
							<key>com.apple.finalcutstudio.media.uuid</key>
							<size>36</size>
							<type>UTF8</type>
							<value>97B5208F-6B96-4006-9725-86D233C02C20</value>
						</metadata>
						<metadata>
							<storage>QuickTime</storage>
							<key>com.apple.finalcutstudio.media.history.uuid</key>
							<size>36</size>
							<type>UTF8</type>
							<value>B37FFFC9-E446-4340-AAF9-88068E5DCFAF</value>
						</metadata>
						<timecode>
							<rate>
								<timebase>25</timebase>
							</rate>
							<string>00:00:00:00</string>
							<frame>0</frame>
							<displayformat>NDF</displayformat>
							<source>source</source>
							<reel>
								<name>Michael</name>
							</reel>
						</timecode>
						<media>
							<video>
								<duration>292</duration>
								<samplecharacteristics>
									<width>1280</width>
									<height>720</height>
								</samplecharacteristics>
							</video>
							<audio>
								<samplecharacteristics>
									<samplerate>48000</samplerate>
									<depth>16</depth>
								</samplecharacteristics>
								<channelcount>2</channelcount>
								<layout>stereo</layout>
								<audiochannel>
									<sourcechannel>1</sourcechannel>
									<channellabel>left</channellabel>
								</audiochannel>
								<audiochannel>
									<sourcechannel>2</sourcechannel>
									<channellabel>right</channellabel>
								</audiochannel>
							</audio>
						</media>
					</file>
					<sourcetrack>
						<mediatype>video</mediatype>
					</sourcetrack>
					<fielddominance>none</fielddominance>
					<itemhistory>
						<uuid>33FE93D5-9060-4AE7-91C0-EFEE89D8ADA0</uuid>
						<uuid>C8299B2E-FFC3-4B94-BE06-9504CDAB2AB7</uuid>
					</itemhistory>
				</clipitem>
				<clipitem id="Michael041Subclipb">
					<name>Michael041Subclipb</name>
					<duration>321</duration>
					<rate>
						<ntsc>FALSE</ntsc>
						<timebase>25</timebase>
					</rate>
					<in>0</in>
					<out>320</out>
					<start>37076</start>
					<end>37396</end>
					<pixelaspectratio>Square</pixelaspectratio>
					<anamorphic>FALSE</anamorphic>
					<alphatype>none</alphatype>
					<logginginfo>
						<scene/>
						<shottake/>
						<lognote/>
						<good>FALSE</good>
					</logginginfo>
					<labels>
						<label2/>
					</labels>
					<comments>
						<mastercomment1/>
						<mastercomment2/>
						<mastercomment3/>
						<mastercomment4/>
					</comments>
					<file id="Michael041Subclipb1">
						<name>Michael041Subclipb</name>
						<pathurl>file://localhost/Volumes/Michael's%20Passport/woodbdrigenov2011media/Michael041Subclipb</pathurl>
						<rate>
							<timebase>25</timebase>
						</rate>
						<duration>321</duration>
						<metadata>
							<storage>QuickTime</storage>
							<key>com.apple.finalcutstudio.media.uuid</key>
							<size>36</size>
							<type>UTF8</type>
							<value>368125A1-62A4-4F67-973D-7D9250CE3051</value>
						</metadata>
						<metadata>
							<storage>QuickTime</storage>
							<key>com.apple.finalcutstudio.media.history.uuid</key>
							<size>36</size>
							<type>UTF8</type>
							<value>B37FFFC9-E446-4340-AAF9-88068E5DCFAF</value>
						</metadata>
						<timecode>
							<rate>
								<timebase>25</timebase>
							</rate>
							<string>00:00:11:16</string>
							<frame>291</frame>
							<displayformat>NDF</displayformat>
							<source>source</source>
							<reel>
								<name>Michael</name>
							</reel>
						</timecode>
						<media>
							<video>
								<duration>321</duration>
								<samplecharacteristics>
									<width>1280</width>
									<height>720</height>
								</samplecharacteristics>
							</video>
							<audio>
								<samplecharacteristics>
									<samplerate>48000</samplerate>
									<depth>16</depth>
								</samplecharacteristics>
								<channelcount>2</channelcount>
								<layout>stereo</layout>
								<audiochannel>
									<sourcechannel>1</sourcechannel>
									<channellabel>left</channellabel>
								</audiochannel>
								<audiochannel>
									<sourcechannel>2</sourcechannel>
									<channellabel>right</channellabel>
								</audiochannel>
							</audio>
						</media>
					</file>
					<sourcetrack>
						<mediatype>video</mediatype>
					</sourcetrack>
					<fielddominance>none</fielddominance>
					<itemhistory>
						<uuid>5F407360-5DB3-48FF-9113-0B1D67888FA2</uuid>
						<uuid>BE1E6080-E406-48CD-AF8B-FF9755AF0B4F</uuid>
					</itemhistory>
				</clipitem>
				<clipitem id="Michael042 ">
					<name>Michael042</name>
					<duration>372</duration>
					<rate>
						<ntsc>FALSE</ntsc>
						<timebase>25</timebase>
					</rate>
					<in>0</in>
					<out>371</out>
					<start>37821</start>
					<end>38192</end>
					<pixelaspectratio>Square</pixelaspectratio>
					<anamorphic>FALSE</anamorphic>
					<alphatype>none</alphatype>
					<logginginfo>
						<scene/>
						<shottake/>
						<lognote/>
						<good>FALSE</good>
					</logginginfo>
					<labels>
						<label2/>
					</labels>
					<comments>
						<mastercomment1/>
						<mastercomment2/>
						<mastercomment3/>
						<mastercomment4/>
					</comments>
					<file id="Michael042 1">
						<name>Michael042</name>
						<pathurl>file://localhost/Volumes/Michael's%20Passport/woodbdrigenov2011media/Michael042</pathurl>
						<rate>
							<timebase>25</timebase>
						</rate>
						<duration>372</duration>
						<metadata>
							<storage>QuickTime</storage>
							<key>com.apple.finalcutstudio.media.uuid</key>
							<size>36</size>
							<type>UTF8</type>
							<value>1E04C8E2-CADE-4BF6-A2C7-BFD4DDDF9DED</value>
						</metadata>
						<metadata>
							<storage>QuickTime</storage>
							<key>com.apple.finalcutstudio.media.history.uuid</key>
							<size>36</size>
							<type>UTF8</type>
							<value>004E4555-426F-47F0-836D-3316B501197B</value>
						</metadata>
						<timecode>
							<rate>
								<timebase>25</timebase>
							</rate>
							<string>00:00:00:00</string>
							<frame>0</frame>
							<displayformat>NDF</displayformat>
							<source>source</source>
							<reel>
								<name>Michael</name>
							</reel>
						</timecode>
						<media>
							<video>
								<duration>372</duration>
								<samplecharacteristics>
									<width>1280</width>
									<height>720</height>
								</samplecharacteristics>
							</video>
							<audio>
								<samplecharacteristics>
									<samplerate>48000</samplerate>
									<depth>16</depth>
								</samplecharacteristics>
								<channelcount>2</channelcount>
								<layout>stereo</layout>
								<audiochannel>
									<sourcechannel>1</sourcechannel>
									<channellabel>left</channellabel>
								</audiochannel>
								<audiochannel>
									<sourcechannel>2</sourcechannel>
									<channellabel>right</channellabel>
								</audiochannel>
							</audio>
						</media>
					</file>
					<sourcetrack>
						<mediatype>video</mediatype>
					</sourcetrack>
					<fielddominance>none</fielddominance>
					<itemhistory>
						<uuid>971C8590-CC68-4B68-87EF-869E38E0E08D</uuid>
						<uuid>C5C4D4C9-DA9B-4001-A571-DE07C8A96B07</uuid>
					</itemhistory>
				</clipitem>
				<clipitem id="Michael043 ">
					<name>Michael043</name>
					<duration>540</duration>
					<rate>
						<ntsc>FALSE</ntsc>
						<timebase>25</timebase>
					</rate>
					<in>0</in>
					<out>540</out>
					<start>39250</start>
					<end>39790</end>
					<pixelaspectratio>Square</pixelaspectratio>
					<anamorphic>FALSE</anamorphic>
					<alphatype>none</alphatype>
					<logginginfo>
						<scene/>
						<shottake/>
						<lognote/>
						<good>FALSE</good>
					</logginginfo>
					<labels>
						<label2/>
					</labels>
					<comments>
						<mastercomment1/>
						<mastercomment2/>
						<mastercomment3/>
						<mastercomment4/>
					</comments>
					<file id="Michael043 1">
						<name>Michael043</name>
						<pathurl>file://localhost/Volumes/Michael's%20Passport/woodbdrigenov2011media/Michael043</pathurl>
						<rate>
							<timebase>25</timebase>
						</rate>
						<duration>540</duration>
						<metadata>
							<storage>QuickTime</storage>
							<key>com.apple.finalcutstudio.media.uuid</key>
							<size>36</size>
							<type>UTF8</type>
							<value>6379C354-A32A-4BD5-9207-5FD6B440D99D</value>
						</metadata>
						<metadata>
							<storage>QuickTime</storage>
							<key>com.apple.finalcutstudio.media.history.uuid</key>
							<size>36</size>
							<type>UTF8</type>
							<value>1DF4EE90-2EB2-4FBB-9A08-6B42DBA9FFBC</value>
						</metadata>
						<timecode>
							<rate>
								<timebase>25</timebase>
							</rate>
							<string>00:00:00:00</string>
							<frame>0</frame>
							<displayformat>NDF</displayformat>
							<source>source</source>
							<reel>
								<name>Michael</name>
							</reel>
						</timecode>
						<media>
							<video>
								<duration>540</duration>
								<samplecharacteristics>
									<width>1280</width>
									<height>720</height>
								</samplecharacteristics>
							</video>
							<audio>
								<samplecharacteristics>
									<samplerate>48000</samplerate>
									<depth>16</depth>
								</samplecharacteristics>
								<channelcount>2</channelcount>
								<layout>stereo</layout>
								<audiochannel>
									<sourcechannel>1</sourcechannel>
									<channellabel>left</channellabel>
								</audiochannel>
								<audiochannel>
									<sourcechannel>2</sourcechannel>
									<channellabel>right</channellabel>
								</audiochannel>
							</audio>
						</media>
					</file>
					<sourcetrack>
						<mediatype>video</mediatype>
					</sourcetrack>
					<fielddominance>none</fielddominance>
					<itemhistory>
						<uuid>8BFDD531-207A-4C1D-8BE0-F16F8DBC1D73</uuid>
						<uuid>48C9A1FA-FD00-402E-B5C7-0DF94C5C1F28</uuid>
					</itemhistory>
				</clipitem>
				<clipitem id="Michael044 ">
					<name>Michael044</name>
					<duration>408</duration>
					<rate>
						<ntsc>FALSE</ntsc>
						<timebase>25</timebase>
					</rate>
					<in>0</in>
					<out>407</out>
					<start>40380</start>
					<end>40787</end>
					<pixelaspectratio>Square</pixelaspectratio>
					<anamorphic>FALSE</anamorphic>
					<alphatype>none</alphatype>
					<logginginfo>
						<scene/>
						<shottake/>
						<lognote/>
						<good>FALSE</good>
					</logginginfo>
					<labels>
						<label2/>
					</labels>
					<comments>
						<mastercomment1/>
						<mastercomment2/>
						<mastercomment3/>
						<mastercomment4/>
					</comments>
					<file id="Michael044 1">
						<name>Michael044</name>
						<pathurl>file://localhost/Volumes/Michael's%20Passport/woodbdrigenov2011media/Michael044</pathurl>
						<rate>
							<timebase>25</timebase>
						</rate>
						<duration>408</duration>
						<metadata>
							<storage>QuickTime</storage>
							<key>com.apple.finalcutstudio.media.uuid</key>
							<size>36</size>
							<type>UTF8</type>
							<value>B27558E4-7082-4675-85AB-9E676772C795</value>
						</metadata>
						<metadata>
							<storage>QuickTime</storage>
							<key>com.apple.finalcutstudio.media.history.uuid</key>
							<size>36</size>
							<type>UTF8</type>
							<value>D49213A0-2AF5-4708-8210-DC13F55D79B6</value>
						</metadata>
						<timecode>
							<rate>
								<timebase>25</timebase>
							</rate>
							<string>00:00:00:00</string>
							<frame>0</frame>
							<displayformat>NDF</displayformat>
							<source>source</source>
							<reel>
								<name>Michael</name>
							</reel>
						</timecode>
						<media>
							<video>
								<duration>408</duration>
								<samplecharacteristics>
									<width>1280</width>
									<height>720</height>
								</samplecharacteristics>
							</video>
							<audio>
								<samplecharacteristics>
									<samplerate>48000</samplerate>
									<depth>16</depth>
								</samplecharacteristics>
								<channelcount>2</channelcount>
								<layout>stereo</layout>
								<audiochannel>
									<sourcechannel>1</sourcechannel>
									<channellabel>left</channellabel>
								</audiochannel>
								<audiochannel>
									<sourcechannel>2</sourcechannel>
									<channellabel>right</channellabel>
								</audiochannel>
							</audio>
						</media>
					</file>
					<sourcetrack>
						<mediatype>video</mediatype>
					</sourcetrack>
					<fielddominance>none</fielddominance>
					<itemhistory>
						<uuid>5BE47136-3EC8-47E3-9760-BF6543E85159</uuid>
						<uuid>F041A4BB-8631-438D-9F9A-A8246761C9F3</uuid>
					</itemhistory>
				</clipitem>
				<clipitem id="Michael045 ">
					<name>Michael045</name>
					<duration>456</duration>
					<rate>
						<ntsc>FALSE</ntsc>
						<timebase>25</timebase>
					</rate>
					<in>0</in>
					<out>456</out>
					<start>41256</start>
					<end>41712</end>
					<pixelaspectratio>Square</pixelaspectratio>
					<anamorphic>FALSE</anamorphic>
					<alphatype>none</alphatype>
					<logginginfo>
						<scene/>
						<shottake/>
						<lognote/>
						<good>FALSE</good>
					</logginginfo>
					<labels>
						<label2/>
					</labels>
					<comments>
						<mastercomment1/>
						<mastercomment2/>
						<mastercomment3/>
						<mastercomment4/>
					</comments>
					<file id="Michael045 1">
						<name>Michael045</name>
						<pathurl>file://localhost/Volumes/Michael's%20Passport/woodbdrigenov2011media/Michael045</pathurl>
						<rate>
							<timebase>25</timebase>
						</rate>
						<duration>456</duration>
						<metadata>
							<storage>QuickTime</storage>
							<key>com.apple.finalcutstudio.media.uuid</key>
							<size>36</size>
							<type>UTF8</type>
							<value>B0A6BB56-AE1F-43DF-94C3-8270474C48EA</value>
						</metadata>
						<metadata>
							<storage>QuickTime</storage>
							<key>com.apple.finalcutstudio.media.history.uuid</key>
							<size>36</size>
							<type>UTF8</type>
							<value>6F8869F6-73A7-4545-97EB-9073926784FB</value>
						</metadata>
						<timecode>
							<rate>
								<timebase>25</timebase>
							</rate>
							<string>00:00:00:00</string>
							<frame>0</frame>
							<displayformat>NDF</displayformat>
							<source>source</source>
							<reel>
								<name>Michael</name>
							</reel>
						</timecode>
						<media>
							<video>
								<duration>456</duration>
								<samplecharacteristics>
									<width>1280</width>
									<height>720</height>
								</samplecharacteristics>
							</video>
							<audio>
								<samplecharacteristics>
									<samplerate>48000</samplerate>
									<depth>16</depth>
								</samplecharacteristics>
								<channelcount>2</channelcount>
								<layout>stereo</layout>
								<audiochannel>
									<sourcechannel>1</sourcechannel>
									<channellabel>left</channellabel>
								</audiochannel>
								<audiochannel>
									<sourcechannel>2</sourcechannel>
									<channellabel>right</channellabel>
								</audiochannel>
							</audio>
						</media>
					</file>
					<sourcetrack>
						<mediatype>video</mediatype>
					</sourcetrack>
					<fielddominance>none</fielddominance>
					<itemhistory>
						<uuid>E1B7368B-88CD-412A-894B-35286EE5E1A0</uuid>
						<uuid>BD8B08F6-12E5-4DB2-9F75-B3BD47CAB12C</uuid>
					</itemhistory>
				</clipitem>
				<clipitem id="Michael046 ">
					<name>Michael046</name>
					<duration>972</duration>
					<rate>
						<ntsc>FALSE</ntsc>
						<timebase>25</timebase>
					</rate>
					<in>0</in>
					<out>971</out>
					<start>42757</start>
					<end>43728</end>
					<pixelaspectratio>Square</pixelaspectratio>
					<enabled>TRUE</enabled>
					<anamorphic>FALSE</anamorphic>
					<alphatype>none</alphatype>
					<logginginfo>
						<scene/>
						<shottake/>
						<lognote/>
						<good>FALSE</good>
					</logginginfo>
					<labels>
						<label2/>
					</labels>
					<comments>
						<mastercomment1/>
						<mastercomment2/>
						<mastercomment3/>
						<mastercomment4/>
					</comments>
					<file id="Michael046 1">
						<name>Michael046</name>
						<pathurl>file://localhost/Volumes/Michael's%20Passport/woodbdrigenov2011media/Michael046</pathurl>
						<rate>
							<timebase>25</timebase>
						</rate>
						<duration>972</duration>
						<metadata>
							<storage>QuickTime</storage>
							<key>com.apple.finalcutstudio.media.uuid</key>
							<size>36</size>
							<type>UTF8</type>
							<value>784AFA66-E1F0-4CBC-9016-12B155CB6EBE</value>
						</metadata>
						<metadata>
							<storage>QuickTime</storage>
							<key>com.apple.finalcutstudio.media.history.uuid</key>
							<size>36</size>
							<type>UTF8</type>
							<value>CD46D777-A417-438D-81AD-18A6DDC213C7</value>
						</metadata>
						<timecode>
							<rate>
								<timebase>25</timebase>
							</rate>
							<string>00:00:00:00</string>
							<frame>0</frame>
							<displayformat>NDF</displayformat>
							<source>source</source>
							<reel>
								<name>Michael</name>
							</reel>
						</timecode>
						<media>
							<video>
								<duration>972</duration>
								<samplecharacteristics>
									<width>1280</width>
									<height>720</height>
								</samplecharacteristics>
							</video>
							<audio>
								<samplecharacteristics>
									<samplerate>48000</samplerate>
									<depth>16</depth>
								</samplecharacteristics>
								<channelcount>2</channelcount>
								<layout>stereo</layout>
								<audiochannel>
									<sourcechannel>1</sourcechannel>
									<channellabel>left</channellabel>
								</audiochannel>
								<audiochannel>
									<sourcechannel>2</sourcechannel>
									<channellabel>right</channellabel>
								</audiochannel>
							</audio>
						</media>
					</file>
					<sourcetrack>
						<mediatype>video</mediatype>
					</sourcetrack>
					<fielddominance>none</fielddominance>
					<itemhistory>
						<uuid>2DA6A68A-202B-49C2-8E90-9FD048974B6A</uuid>
						<uuid>DE0A15A8-ACF3-4529-BEC0-A0E6D4B74B3E</uuid>
					</itemhistory>
				</clipitem>
				<clipitem id="Michael047Subclipb">
					<name>Michael047Subclipb</name>
					<duration>176</duration>
					<rate>
						<ntsc>FALSE</ntsc>
						<timebase>25</timebase>
					</rate>
					<in>0</in>
					<out>176</out>
					<start>44531</start>
					<end>44707</end>
					<pixelaspectratio>Square</pixelaspectratio>
					<anamorphic>FALSE</anamorphic>
					<alphatype>none</alphatype>
					<logginginfo>
						<scene/>
						<shottake/>
						<lognote/>
						<good>FALSE</good>
					</logginginfo>
					<labels>
						<label>Good Take</label>
						<label2/>
					</labels>
					<comments>
						<mastercomment1/>
						<mastercomment2/>
						<mastercomment3/>
						<mastercomment4/>
					</comments>
					<file id="Michael047Subclipb1">
						<name>Michael047Subclipb</name>
						<pathurl>file://localhost/Volumes/Michael's%20Passport/woodbdrigenov2011media/Michael047Subclipb</pathurl>
						<rate>
							<timebase>25</timebase>
						</rate>
						<duration>176</duration>
						<metadata>
							<storage>QuickTime</storage>
							<key>com.apple.finalcutstudio.media.uuid</key>
							<size>36</size>
							<type>UTF8</type>
							<value>3FFD1B62-D91C-421E-9A9A-6A5FD9B146CD</value>
						</metadata>
						<metadata>
							<storage>QuickTime</storage>
							<key>com.apple.finalcutstudio.media.history.uuid</key>
							<size>36</size>
							<type>UTF8</type>
							<value>9AA7610A-CE2D-4D05-8BBA-9F18F63A0EAD</value>
						</metadata>
						<timecode>
							<rate>
								<timebase>25</timebase>
							</rate>
							<string>00:00:03:13</string>
							<frame>88</frame>
							<displayformat>NDF</displayformat>
							<source>source</source>
							<reel>
								<name>Michael</name>
							</reel>
						</timecode>
						<media>
							<video>
								<duration>176</duration>
								<samplecharacteristics>
									<width>1280</width>
									<height>720</height>
								</samplecharacteristics>
							</video>
							<audio>
								<samplecharacteristics>
									<samplerate>48000</samplerate>
									<depth>16</depth>
								</samplecharacteristics>
								<channelcount>2</channelcount>
								<layout>stereo</layout>
								<audiochannel>
									<sourcechannel>1</sourcechannel>
									<channellabel>left</channellabel>
								</audiochannel>
								<audiochannel>
									<sourcechannel>2</sourcechannel>
									<channellabel>right</channellabel>
								</audiochannel>
							</audio>
						</media>
					</file>
					<sourcetrack>
						<mediatype>video</mediatype>
					</sourcetrack>
					<fielddominance>none</fielddominance>
					<itemhistory>
						<uuid>579C117E-D83F-4A72-A065-4CF57A872895</uuid>
						<uuid>9D10AB9A-F776-47EF-9015-DF40F51D11F6</uuid>
					</itemhistory>
				</clipitem>
				<clipitem id="Michael048 ">
					<name>Michael048</name>
					<duration>612</duration>
					<rate>
						<ntsc>FALSE</ntsc>
						<timebase>25</timebase>
					</rate>
					<in>0</in>
					<out>612</out>
					<start>46884</start>
					<end>47496</end>
					<pixelaspectratio>Square</pixelaspectratio>
					<anamorphic>FALSE</anamorphic>
					<alphatype>none</alphatype>
					<logginginfo>
						<scene/>
						<shottake/>
						<lognote/>
						<good>FALSE</good>
					</logginginfo>
					<labels>
						<label>Good Take</label>
						<label2/>
					</labels>
					<comments>
						<mastercomment1/>
						<mastercomment2/>
						<mastercomment3/>
						<mastercomment4/>
					</comments>
					<file id="Michael048 1">
						<name>Michael048</name>
						<pathurl>file://localhost/Volumes/Michael's%20Passport/woodbdrigenov2011media/Michael048</pathurl>
						<rate>
							<timebase>25</timebase>
						</rate>
						<duration>612</duration>
						<metadata>
							<storage>QuickTime</storage>
							<key>com.apple.finalcutstudio.media.uuid</key>
							<size>36</size>
							<type>UTF8</type>
							<value>0FAF8CD6-8301-421C-AAAD-91FC530C9279</value>
						</metadata>
						<metadata>
							<storage>QuickTime</storage>
							<key>com.apple.finalcutstudio.media.history.uuid</key>
							<size>36</size>
							<type>UTF8</type>
							<value>04B4DE42-6C81-489C-9936-1C0045D4F723</value>
						</metadata>
						<timecode>
							<rate>
								<timebase>25</timebase>
							</rate>
							<string>00:00:00:00</string>
							<frame>0</frame>
							<displayformat>NDF</displayformat>
							<source>source</source>
							<reel>
								<name>Michael</name>
							</reel>
						</timecode>
						<media>
							<video>
								<duration>612</duration>
								<samplecharacteristics>
									<width>1280</width>
									<height>720</height>
								</samplecharacteristics>
							</video>
							<audio>
								<samplecharacteristics>
									<samplerate>48000</samplerate>
									<depth>16</depth>
								</samplecharacteristics>
								<channelcount>2</channelcount>
								<layout>stereo</layout>
								<audiochannel>
									<sourcechannel>1</sourcechannel>
									<channellabel>left</channellabel>
								</audiochannel>
								<audiochannel>
									<sourcechannel>2</sourcechannel>
									<channellabel>right</channellabel>
								</audiochannel>
							</audio>
						</media>
					</file>
					<sourcetrack>
						<mediatype>video</mediatype>
					</sourcetrack>
					<fielddominance>none</fielddominance>
					<itemhistory>
						<uuid>8F179184-92B3-4A9B-BA01-DA1700AE43A6</uuid>
						<uuid>ECDF8652-DAE9-415B-877E-1ABB2BDD8E10</uuid>
					</itemhistory>
				</clipitem>
				<clipitem id="Michael049 ">
					<name>Michael049</name>
					<duration>336</duration>
					<rate>
						<ntsc>FALSE</ntsc>
						<timebase>25</timebase>
					</rate>
					<in>0</in>
					<out>335</out>
					<start>47612</start>
					<end>47947</end>
					<pixelaspectratio>Square</pixelaspectratio>
					<anamorphic>FALSE</anamorphic>
					<alphatype>none</alphatype>
					<logginginfo>
						<scene/>
						<shottake/>
						<lognote/>
						<good>FALSE</good>
					</logginginfo>
					<labels>
						<label>Good Take</label>
						<label2/>
					</labels>
					<comments>
						<mastercomment1/>
						<mastercomment2/>
						<mastercomment3/>
						<mastercomment4/>
					</comments>
					<file id="Michael049 1">
						<name>Michael049</name>
						<pathurl>file://localhost/Volumes/Michael's%20Passport/woodbdrigenov2011media/Michael049</pathurl>
						<rate>
							<timebase>25</timebase>
						</rate>
						<duration>336</duration>
						<metadata>
							<storage>QuickTime</storage>
							<key>com.apple.finalcutstudio.media.uuid</key>
							<size>36</size>
							<type>UTF8</type>
							<value>9084462F-99AE-4441-9AA2-3342D3564E6A</value>
						</metadata>
						<metadata>
							<storage>QuickTime</storage>
							<key>com.apple.finalcutstudio.media.history.uuid</key>
							<size>36</size>
							<type>UTF8</type>
							<value>5EF879D5-079D-4B43-8E26-6D288F274C3B</value>
						</metadata>
						<timecode>
							<rate>
								<timebase>25</timebase>
							</rate>
							<string>00:00:00:00</string>
							<frame>0</frame>
							<displayformat>NDF</displayformat>
							<source>source</source>
							<reel>
								<name>Michael</name>
							</reel>
						</timecode>
						<media>
							<video>
								<duration>336</duration>
								<samplecharacteristics>
									<width>1280</width>
									<height>720</height>
								</samplecharacteristics>
							</video>
							<audio>
								<samplecharacteristics>
									<samplerate>48000</samplerate>
									<depth>16</depth>
								</samplecharacteristics>
								<channelcount>2</channelcount>
								<layout>stereo</layout>
								<audiochannel>
									<sourcechannel>1</sourcechannel>
									<channellabel>left</channellabel>
								</audiochannel>
								<audiochannel>
									<sourcechannel>2</sourcechannel>
									<channellabel>right</channellabel>
								</audiochannel>
							</audio>
						</media>
					</file>
					<sourcetrack>
						<mediatype>video</mediatype>
					</sourcetrack>
					<fielddominance>none</fielddominance>
					<itemhistory>
						<uuid>88EA8E38-20A5-4D8C-A6A2-EE92C45E883D</uuid>
						<uuid>F0C41B87-6F6F-4FFE-9D67-4C7448E04E93</uuid>
					</itemhistory>
				</clipitem>
				<clipitem id="Michael050 ">
					<name>Michael050</name>
					<duration>300</duration>
					<rate>
						<ntsc>FALSE</ntsc>
						<timebase>25</timebase>
					</rate>
					<in>0</in>
					<out>299</out>
					<start>48367</start>
					<end>48666</end>
					<pixelaspectratio>Square</pixelaspectratio>
					<anamorphic>FALSE</anamorphic>
					<alphatype>none</alphatype>
					<logginginfo>
						<scene/>
						<shottake/>
						<lognote/>
						<good>FALSE</good>
					</logginginfo>
					<labels>
						<label2/>
					</labels>
					<comments>
						<mastercomment1/>
						<mastercomment2/>
						<mastercomment3/>
						<mastercomment4/>
					</comments>
					<file id="Michael050 1">
						<name>Michael050</name>
						<pathurl>file://localhost/Volumes/Michael's%20Passport/woodbdrigenov2011media/Michael050</pathurl>
						<rate>
							<timebase>25</timebase>
						</rate>
						<duration>300</duration>
						<metadata>
							<storage>QuickTime</storage>
							<key>com.apple.finalcutstudio.media.uuid</key>
							<size>36</size>
							<type>UTF8</type>
							<value>A8D5C544-B504-4882-A53F-2F4E52216340</value>
						</metadata>
						<metadata>
							<storage>QuickTime</storage>
							<key>com.apple.finalcutstudio.media.history.uuid</key>
							<size>36</size>
							<type>UTF8</type>
							<value>55B9B062-E461-4573-B31E-5D57499D442D</value>
						</metadata>
						<timecode>
							<rate>
								<timebase>25</timebase>
							</rate>
							<string>00:00:00:00</string>
							<frame>0</frame>
							<displayformat>NDF</displayformat>
							<source>source</source>
							<reel>
								<name>Michael</name>
							</reel>
						</timecode>
						<media>
							<video>
								<duration>300</duration>
								<samplecharacteristics>
									<width>1280</width>
									<height>720</height>
								</samplecharacteristics>
							</video>
							<audio>
								<samplecharacteristics>
									<samplerate>48000</samplerate>
									<depth>16</depth>
								</samplecharacteristics>
								<channelcount>2</channelcount>
								<layout>stereo</layout>
								<audiochannel>
									<sourcechannel>1</sourcechannel>
									<channellabel>left</channellabel>
								</audiochannel>
								<audiochannel>
									<sourcechannel>2</sourcechannel>
									<channellabel>right</channellabel>
								</audiochannel>
							</audio>
						</media>
					</file>
					<sourcetrack>
						<mediatype>video</mediatype>
					</sourcetrack>
					<fielddominance>none</fielddominance>
					<itemhistory>
						<uuid>9D445344-6246-4B1C-89BA-957BC5596464</uuid>
						<uuid>3DE096EE-1691-436D-AC21-4C78B7F3E7B4</uuid>
					</itemhistory>
				</clipitem>
				<clipitem id="Michael051 ">
					<name>Michael051</name>
					<duration>552</duration>
					<rate>
						<ntsc>FALSE</ntsc>
						<timebase>25</timebase>
					</rate>
					<in>0</in>
					<out>551</out>
					<start>48941</start>
					<end>49492</end>
					<pixelaspectratio>Square</pixelaspectratio>
					<anamorphic>FALSE</anamorphic>
					<alphatype>none</alphatype>
					<logginginfo>
						<scene/>
						<shottake/>
						<lognote/>
						<good>FALSE</good>
					</logginginfo>
					<labels>
						<label>Good Take</label>
						<label2/>
					</labels>
					<comments>
						<mastercomment1/>
						<mastercomment2/>
						<mastercomment3/>
						<mastercomment4/>
					</comments>
					<file id="Michael051 1">
						<name>Michael051</name>
						<pathurl>file://localhost/Volumes/Michael's%20Passport/woodbdrigenov2011media/Michael051</pathurl>
						<rate>
							<timebase>25</timebase>
						</rate>
						<duration>552</duration>
						<metadata>
							<storage>QuickTime</storage>
							<key>com.apple.finalcutstudio.media.uuid</key>
							<size>36</size>
							<type>UTF8</type>
							<value>BD120C69-D424-4AE1-85F1-1F7105508B9D</value>
						</metadata>
						<metadata>
							<storage>QuickTime</storage>
							<key>com.apple.finalcutstudio.media.history.uuid</key>
							<size>36</size>
							<type>UTF8</type>
							<value>8FE943F7-5CC5-4D06-8E7B-E884AEEB636E</value>
						</metadata>
						<timecode>
							<rate>
								<timebase>25</timebase>
							</rate>
							<string>00:00:00:00</string>
							<frame>0</frame>
							<displayformat>NDF</displayformat>
							<source>source</source>
							<reel>
								<name>Michael</name>
							</reel>
						</timecode>
						<media>
							<video>
								<duration>552</duration>
								<samplecharacteristics>
									<width>1280</width>
									<height>720</height>
								</samplecharacteristics>
							</video>
							<audio>
								<samplecharacteristics>
									<samplerate>48000</samplerate>
									<depth>16</depth>
								</samplecharacteristics>
								<channelcount>2</channelcount>
								<layout>stereo</layout>
								<audiochannel>
									<sourcechannel>1</sourcechannel>
									<channellabel>left</channellabel>
								</audiochannel>
								<audiochannel>
									<sourcechannel>2</sourcechannel>
									<channellabel>right</channellabel>
								</audiochannel>
							</audio>
						</media>
					</file>
					<sourcetrack>
						<mediatype>video</mediatype>
					</sourcetrack>
					<fielddominance>none</fielddominance>
					<itemhistory>
						<uuid>FB682B7B-92D8-4C6E-BDEB-14FE4916691A</uuid>
						<uuid>60F32695-6C61-43F0-9407-9558FB0DBE27</uuid>
					</itemhistory>
				</clipitem>
				<clipitem id="Michael052 ">
					<name>Michael052</name>
					<duration>372</duration>
					<rate>
						<ntsc>FALSE</ntsc>
						<timebase>25</timebase>
					</rate>
					<in>0</in>
					<out>371</out>
					<start>49724</start>
					<end>50095</end>
					<pixelaspectratio>Square</pixelaspectratio>
					<anamorphic>FALSE</anamorphic>
					<alphatype>none</alphatype>
					<logginginfo>
						<scene/>
						<shottake/>
						<lognote/>
						<good>FALSE</good>
					</logginginfo>
					<labels>
						<label>Good Take</label>
						<label2/>
					</labels>
					<comments>
						<mastercomment1/>
						<mastercomment2/>
						<mastercomment3/>
						<mastercomment4/>
					</comments>
					<file id="Michael052 1">
						<name>Michael052</name>
						<pathurl>file://localhost/Volumes/Michael's%20Passport/woodbdrigenov2011media/Michael052</pathurl>
						<rate>
							<timebase>25</timebase>
						</rate>
						<duration>372</duration>
						<metadata>
							<storage>QuickTime</storage>
							<key>com.apple.finalcutstudio.media.uuid</key>
							<size>36</size>
							<type>UTF8</type>
							<value>5A8315BB-21B9-4453-BC14-AED49CBE9624</value>
						</metadata>
						<metadata>
							<storage>QuickTime</storage>
							<key>com.apple.finalcutstudio.media.history.uuid</key>
							<size>36</size>
							<type>UTF8</type>
							<value>E91E15EC-D501-42AA-9307-4AC66B5252DD</value>
						</metadata>
						<timecode>
							<rate>
								<timebase>25</timebase>
							</rate>
							<string>00:00:00:00</string>
							<frame>0</frame>
							<displayformat>NDF</displayformat>
							<source>source</source>
							<reel>
								<name>Michael</name>
							</reel>
						</timecode>
						<media>
							<video>
								<duration>372</duration>
								<samplecharacteristics>
									<width>1280</width>
									<height>720</height>
								</samplecharacteristics>
							</video>
							<audio>
								<samplecharacteristics>
									<samplerate>48000</samplerate>
									<depth>16</depth>
								</samplecharacteristics>
								<channelcount>2</channelcount>
								<layout>stereo</layout>
								<audiochannel>
									<sourcechannel>1</sourcechannel>
									<channellabel>left</channellabel>
								</audiochannel>
								<audiochannel>
									<sourcechannel>2</sourcechannel>
									<channellabel>right</channellabel>
								</audiochannel>
							</audio>
						</media>
					</file>
					<sourcetrack>
						<mediatype>video</mediatype>
					</sourcetrack>
					<fielddominance>none</fielddominance>
					<itemhistory>
						<uuid>01FCC93D-313A-4252-B341-A434FBC71AF5</uuid>
						<uuid>18133272-1259-472F-9563-4AA91E13B10F</uuid>
					</itemhistory>
				</clipitem>
				<clipitem id="Michael053 ">
					<name>Michael053</name>
					<duration>516</duration>
					<rate>
						<ntsc>FALSE</ntsc>
						<timebase>25</timebase>
					</rate>
					<in>0</in>
					<out>515</out>
					<start>50469</start>
					<end>50984</end>
					<pixelaspectratio>Square</pixelaspectratio>
					<anamorphic>FALSE</anamorphic>
					<alphatype>none</alphatype>
					<logginginfo>
						<scene/>
						<shottake/>
						<lognote/>
						<good>FALSE</good>
					</logginginfo>
					<labels>
						<label>Good Take</label>
						<label2/>
					</labels>
					<comments>
						<mastercomment1/>
						<mastercomment2/>
						<mastercomment3/>
						<mastercomment4/>
					</comments>
					<file id="Michael053 1">
						<name>Michael053</name>
						<pathurl>file://localhost/Volumes/Michael's%20Passport/woodbdrigenov2011media/Michael053</pathurl>
						<rate>
							<timebase>25</timebase>
						</rate>
						<duration>516</duration>
						<metadata>
							<storage>QuickTime</storage>
							<key>com.apple.finalcutstudio.media.uuid</key>
							<size>36</size>
							<type>UTF8</type>
							<value>A1898FEC-A812-4016-9EF8-19E3AB394C8F</value>
						</metadata>
						<metadata>
							<storage>QuickTime</storage>
							<key>com.apple.finalcutstudio.media.history.uuid</key>
							<size>36</size>
							<type>UTF8</type>
							<value>9BF99A4F-D448-46D5-9693-FE448442AEFE</value>
						</metadata>
						<timecode>
							<rate>
								<timebase>25</timebase>
							</rate>
							<string>00:00:00:00</string>
							<frame>0</frame>
							<displayformat>NDF</displayformat>
							<source>source</source>
							<reel>
								<name>Michael</name>
							</reel>
						</timecode>
						<media>
							<video>
								<duration>516</duration>
								<samplecharacteristics>
									<width>1280</width>
									<height>720</height>
								</samplecharacteristics>
							</video>
							<audio>
								<samplecharacteristics>
									<samplerate>48000</samplerate>
									<depth>16</depth>
								</samplecharacteristics>
								<channelcount>2</channelcount>
								<layout>stereo</layout>
								<audiochannel>
									<sourcechannel>1</sourcechannel>
									<channellabel>left</channellabel>
								</audiochannel>
								<audiochannel>
									<sourcechannel>2</sourcechannel>
									<channellabel>right</channellabel>
								</audiochannel>
							</audio>
						</media>
					</file>
					<sourcetrack>
						<mediatype>video</mediatype>
					</sourcetrack>
					<fielddominance>none</fielddominance>
					<itemhistory>
						<uuid>B211E11D-3B12-402B-BE4A-06CEECADD043</uuid>
						<uuid>D7469DE0-B781-4A90-9AAB-0AEF19D86C54</uuid>
					</itemhistory>
				</clipitem>
				<clipitem id="Michael054Subclipa">
					<name>Michael054Subclipa</name>
					<duration>118</duration>
					<rate>
						<ntsc>FALSE</ntsc>
						<timebase>25</timebase>
					</rate>
					<in>0</in>
					<out>117</out>
					<start>51658</start>
					<end>51775</end>
					<pixelaspectratio>Square</pixelaspectratio>
					<anamorphic>FALSE</anamorphic>
					<alphatype>none</alphatype>
					<logginginfo>
						<scene/>
						<shottake/>
						<lognote/>
						<good>FALSE</good>
					</logginginfo>
					<labels>
						<label>Good Take</label>
						<label2/>
					</labels>
					<comments>
						<mastercomment1/>
						<mastercomment2/>
						<mastercomment3/>
						<mastercomment4/>
					</comments>
					<file id="Michael054Subclipa1">
						<name>Michael054Subclipa</name>
						<pathurl>file://localhost/Volumes/Michael's%20Passport/woodbdrigenov2011media/Michael054Subclipa</pathurl>
						<rate>
							<timebase>25</timebase>
						</rate>
						<duration>118</duration>
						<metadata>
							<storage>QuickTime</storage>
							<key>com.apple.finalcutstudio.media.uuid</key>
							<size>36</size>
							<type>UTF8</type>
							<value>7635AC3A-2076-4366-BF7F-D14EDBB52685</value>
						</metadata>
						<metadata>
							<storage>QuickTime</storage>
							<key>com.apple.finalcutstudio.media.history.uuid</key>
							<size>36</size>
							<type>UTF8</type>
							<value>DD776F05-9768-49E0-ABC9-A98865E1F8E6</value>
						</metadata>
						<timecode>
							<rate>
								<timebase>25</timebase>
							</rate>
							<string>00:00:00:00</string>
							<frame>0</frame>
							<displayformat>NDF</displayformat>
							<source>source</source>
							<reel>
								<name>Michael</name>
							</reel>
						</timecode>
						<media>
							<video>
								<duration>118</duration>
								<samplecharacteristics>
									<width>1280</width>
									<height>720</height>
								</samplecharacteristics>
							</video>
							<audio>
								<samplecharacteristics>
									<samplerate>48000</samplerate>
									<depth>16</depth>
								</samplecharacteristics>
								<channelcount>2</channelcount>
								<layout>stereo</layout>
								<audiochannel>
									<sourcechannel>1</sourcechannel>
									<channellabel>left</channellabel>
								</audiochannel>
								<audiochannel>
									<sourcechannel>2</sourcechannel>
									<channellabel>right</channellabel>
								</audiochannel>
							</audio>
						</media>
					</file>
					<sourcetrack>
						<mediatype>video</mediatype>
					</sourcetrack>
					<fielddominance>none</fielddominance>
					<itemhistory>
						<uuid>C63F5DA7-9C30-40B1-B4FF-B1601BCF3EF8</uuid>
						<uuid>21EA9535-D270-4D68-B333-AE19D1500C7A</uuid>
					</itemhistory>
				</clipitem>
				<clipitem id="Michael054Subclipb">
					<name>Michael054Subclipb</name>
					<duration>279</duration>
					<rate>
						<ntsc>FALSE</ntsc>
						<timebase>25</timebase>
					</rate>
					<in>0</in>
					<out>279</out>
					<start>51775</start>
					<end>52054</end>
					<pixelaspectratio>Square</pixelaspectratio>
					<anamorphic>FALSE</anamorphic>
					<alphatype>none</alphatype>
					<logginginfo>
						<scene/>
						<shottake/>
						<lognote/>
						<good>FALSE</good>
					</logginginfo>
					<labels>
						<label>Good Take</label>
						<label2/>
					</labels>
					<comments>
						<mastercomment1/>
						<mastercomment2/>
						<mastercomment3/>
						<mastercomment4/>
					</comments>
					<file id="Michael054Subclipb1">
						<name>Michael054Subclipb</name>
						<pathurl>file://localhost/Volumes/Michael's%20Passport/woodbdrigenov2011media/Michael054Subclipb</pathurl>
						<rate>
							<timebase>25</timebase>
						</rate>
						<duration>279</duration>
						<metadata>
							<storage>QuickTime</storage>
							<key>com.apple.finalcutstudio.media.uuid</key>
							<size>36</size>
							<type>UTF8</type>
							<value>11F2F2A7-9764-4AB9-AA41-F299B0BB3A51</value>
						</metadata>
						<metadata>
							<storage>QuickTime</storage>
							<key>com.apple.finalcutstudio.media.history.uuid</key>
							<size>36</size>
							<type>UTF8</type>
							<value>DD776F05-9768-49E0-ABC9-A98865E1F8E6</value>
						</metadata>
						<timecode>
							<rate>
								<timebase>25</timebase>
							</rate>
							<string>00:00:04:17</string>
							<frame>117</frame>
							<displayformat>NDF</displayformat>
							<source>source</source>
							<reel>
								<name>Michael</name>
							</reel>
						</timecode>
						<media>
							<video>
								<duration>279</duration>
								<samplecharacteristics>
									<width>1280</width>
									<height>720</height>
								</samplecharacteristics>
							</video>
							<audio>
								<samplecharacteristics>
									<samplerate>48000</samplerate>
									<depth>16</depth>
								</samplecharacteristics>
								<channelcount>2</channelcount>
								<layout>stereo</layout>
								<audiochannel>
									<sourcechannel>1</sourcechannel>
									<channellabel>left</channellabel>
								</audiochannel>
								<audiochannel>
									<sourcechannel>2</sourcechannel>
									<channellabel>right</channellabel>
								</audiochannel>
							</audio>
						</media>
					</file>
					<sourcetrack>
						<mediatype>video</mediatype>
					</sourcetrack>
					<fielddominance>none</fielddominance>
					<itemhistory>
						<uuid>EA7F93FF-7A5F-4285-AC10-130030A50BDE</uuid>
						<uuid>0D2FDDD2-4020-4FFD-99EA-10B6A6E5C8D8</uuid>
					</itemhistory>
				</clipitem>
				<clipitem id="Michael055 ">
					<name>Michael055</name>
					<duration>888</duration>
					<rate>
						<ntsc>FALSE</ntsc>
						<timebase>25</timebase>
					</rate>
					<in>0</in>
					<out>887</out>
					<start>54403</start>
					<end>55290</end>
					<pixelaspectratio>Square</pixelaspectratio>
					<anamorphic>FALSE</anamorphic>
					<alphatype>none</alphatype>
					<logginginfo>
						<scene/>
						<shottake/>
						<lognote/>
						<good>FALSE</good>
					</logginginfo>
					<labels>
						<label2/>
					</labels>
					<comments>
						<mastercomment1/>
						<mastercomment2/>
						<mastercomment3/>
						<mastercomment4/>
					</comments>
					<file id="Michael055 1">
						<name>Michael055</name>
						<pathurl>file://localhost/Volumes/Michael's%20Passport/woodbdrigenov2011media/Michael055</pathurl>
						<rate>
							<timebase>25</timebase>
						</rate>
						<duration>888</duration>
						<metadata>
							<storage>QuickTime</storage>
							<key>com.apple.finalcutstudio.media.uuid</key>
							<size>36</size>
							<type>UTF8</type>
							<value>E50BDF41-B69A-49A4-9A23-6D84581A82E9</value>
						</metadata>
						<metadata>
							<storage>QuickTime</storage>
							<key>com.apple.finalcutstudio.media.history.uuid</key>
							<size>36</size>
							<type>UTF8</type>
							<value>D1394C48-1BDF-4E92-8193-A5956C9DFD59</value>
						</metadata>
						<timecode>
							<rate>
								<timebase>25</timebase>
							</rate>
							<string>00:00:00:00</string>
							<frame>0</frame>
							<displayformat>NDF</displayformat>
							<source>source</source>
							<reel>
								<name>Michael</name>
							</reel>
						</timecode>
						<media>
							<video>
								<duration>888</duration>
								<samplecharacteristics>
									<width>1280</width>
									<height>720</height>
								</samplecharacteristics>
							</video>
							<audio>
								<samplecharacteristics>
									<samplerate>48000</samplerate>
									<depth>16</depth>
								</samplecharacteristics>
								<channelcount>2</channelcount>
								<layout>stereo</layout>
								<audiochannel>
									<sourcechannel>1</sourcechannel>
									<channellabel>left</channellabel>
								</audiochannel>
								<audiochannel>
									<sourcechannel>2</sourcechannel>
									<channellabel>right</channellabel>
								</audiochannel>
							</audio>
						</media>
					</file>
					<sourcetrack>
						<mediatype>video</mediatype>
					</sourcetrack>
					<fielddominance>none</fielddominance>
					<itemhistory>
						<uuid>709FA6CE-91DC-4A6B-9827-42687B6DEB36</uuid>
						<uuid>22C1F158-FE3C-406A-8877-6F6A1DC0DBED</uuid>
					</itemhistory>
				</clipitem>
				<clipitem id="Michael056 ">
					<name>Michael056</name>
					<duration>324</duration>
					<rate>
						<ntsc>FALSE</ntsc>
						<timebase>25</timebase>
					</rate>
					<in>0</in>
					<out>324</out>
					<start>55567</start>
					<end>55891</end>
					<pixelaspectratio>Square</pixelaspectratio>
					<anamorphic>FALSE</anamorphic>
					<alphatype>none</alphatype>
					<logginginfo>
						<scene/>
						<shottake/>
						<lognote/>
						<good>FALSE</good>
					</logginginfo>
					<labels>
						<label2/>
					</labels>
					<comments>
						<mastercomment1/>
						<mastercomment2/>
						<mastercomment3/>
						<mastercomment4/>
					</comments>
					<file id="Michael056 1">
						<name>Michael056</name>
						<pathurl>file://localhost/Volumes/Michael's%20Passport/woodbdrigenov2011media/Michael056</pathurl>
						<rate>
							<timebase>25</timebase>
						</rate>
						<duration>324</duration>
						<metadata>
							<storage>QuickTime</storage>
							<key>com.apple.finalcutstudio.media.uuid</key>
							<size>36</size>
							<type>UTF8</type>
							<value>82C2B3A2-9A1B-4B58-B3BB-C471E8CD46B2</value>
						</metadata>
						<metadata>
							<storage>QuickTime</storage>
							<key>com.apple.finalcutstudio.media.history.uuid</key>
							<size>36</size>
							<type>UTF8</type>
							<value>17B178FB-E705-4C13-969F-3A898C0542B2</value>
						</metadata>
						<timecode>
							<rate>
								<timebase>25</timebase>
							</rate>
							<string>00:00:00:00</string>
							<frame>0</frame>
							<displayformat>NDF</displayformat>
							<source>source</source>
							<reel>
								<name>Michael</name>
							</reel>
						</timecode>
						<media>
							<video>
								<duration>324</duration>
								<samplecharacteristics>
									<width>1280</width>
									<height>720</height>
								</samplecharacteristics>
							</video>
							<audio>
								<samplecharacteristics>
									<samplerate>48000</samplerate>
									<depth>16</depth>
								</samplecharacteristics>
								<channelcount>2</channelcount>
								<layout>stereo</layout>
								<audiochannel>
									<sourcechannel>1</sourcechannel>
									<channellabel>left</channellabel>
								</audiochannel>
								<audiochannel>
									<sourcechannel>2</sourcechannel>
									<channellabel>right</channellabel>
								</audiochannel>
							</audio>
						</media>
					</file>
					<sourcetrack>
						<mediatype>video</mediatype>
					</sourcetrack>
					<fielddominance>none</fielddominance>
					<itemhistory>
						<uuid>8AA743B8-44CD-4E45-90CD-F1CECF19B5CB</uuid>
						<uuid>A27ED4B2-8D54-4D9B-AE58-E5238B412305</uuid>
					</itemhistory>
				</clipitem>
				<clipitem id="Michael057 ">
					<name>Michael057</name>
					<duration>672</duration>
					<rate>
						<ntsc>FALSE</ntsc>
						<timebase>25</timebase>
					</rate>
					<in>0</in>
					<out>672</out>
					<start>55995</start>
					<end>56667</end>
					<pixelaspectratio>Square</pixelaspectratio>
					<anamorphic>FALSE</anamorphic>
					<alphatype>none</alphatype>
					<logginginfo>
						<scene/>
						<shottake/>
						<lognote/>
						<good>FALSE</good>
					</logginginfo>
					<labels>
						<label2/>
					</labels>
					<comments>
						<mastercomment1/>
						<mastercomment2/>
						<mastercomment3/>
						<mastercomment4/>
					</comments>
					<file id="Michael057 1">
						<name>Michael057</name>
						<pathurl>file://localhost/Volumes/Michael's%20Passport/woodbdrigenov2011media/Michael057</pathurl>
						<rate>
							<timebase>25</timebase>
						</rate>
						<duration>672</duration>
						<metadata>
							<storage>QuickTime</storage>
							<key>com.apple.finalcutstudio.media.uuid</key>
							<size>36</size>
							<type>UTF8</type>
							<value>67C46E2E-9D3E-42FF-93C1-EAE72EB23611</value>
						</metadata>
						<metadata>
							<storage>QuickTime</storage>
							<key>com.apple.finalcutstudio.media.history.uuid</key>
							<size>36</size>
							<type>UTF8</type>
							<value>81BEF7F7-8473-4560-868D-301B8DD83911</value>
						</metadata>
						<timecode>
							<rate>
								<timebase>25</timebase>
							</rate>
							<string>00:00:00:00</string>
							<frame>0</frame>
							<displayformat>NDF</displayformat>
							<source>source</source>
							<reel>
								<name>Michael</name>
							</reel>
						</timecode>
						<media>
							<video>
								<duration>672</duration>
								<samplecharacteristics>
									<width>1280</width>
									<height>720</height>
								</samplecharacteristics>
							</video>
							<audio>
								<samplecharacteristics>
									<samplerate>48000</samplerate>
									<depth>16</depth>
								</samplecharacteristics>
								<channelcount>2</channelcount>
								<layout>stereo</layout>
								<audiochannel>
									<sourcechannel>1</sourcechannel>
									<channellabel>left</channellabel>
								</audiochannel>
								<audiochannel>
									<sourcechannel>2</sourcechannel>
									<channellabel>right</channellabel>
								</audiochannel>
							</audio>
						</media>
					</file>
					<sourcetrack>
						<mediatype>video</mediatype>
					</sourcetrack>
					<fielddominance>none</fielddominance>
					<itemhistory>
						<uuid>D510B21B-A7F2-46E7-9A8A-5AB72EDC7434</uuid>
						<uuid>D4C46BB5-B5BA-455B-8728-6542EF74D0E1</uuid>
					</itemhistory>
				</clipitem>
				<clipitem id="Michael058 ">
					<name>Michael058</name>
					<duration>516</duration>
					<rate>
						<ntsc>FALSE</ntsc>
						<timebase>25</timebase>
					</rate>
					<in>0</in>
					<out>515</out>
					<start>57176</start>
					<end>57691</end>
					<pixelaspectratio>Square</pixelaspectratio>
					<anamorphic>FALSE</anamorphic>
					<alphatype>none</alphatype>
					<logginginfo>
						<scene/>
						<shottake/>
						<lognote/>
						<good>FALSE</good>
					</logginginfo>
					<labels>
						<label2/>
					</labels>
					<comments>
						<mastercomment1/>
						<mastercomment2/>
						<mastercomment3/>
						<mastercomment4/>
					</comments>
					<file id="Michael058 1">
						<name>Michael058</name>
						<pathurl>file://localhost/Volumes/Michael's%20Passport/woodbdrigenov2011media/Michael058</pathurl>
						<rate>
							<timebase>25</timebase>
						</rate>
						<duration>516</duration>
						<metadata>
							<storage>QuickTime</storage>
							<key>com.apple.finalcutstudio.media.uuid</key>
							<size>36</size>
							<type>UTF8</type>
							<value>BFDAF272-EE1D-466C-889B-1AA3894A2660</value>
						</metadata>
						<metadata>
							<storage>QuickTime</storage>
							<key>com.apple.finalcutstudio.media.history.uuid</key>
							<size>36</size>
							<type>UTF8</type>
							<value>9B8E0A4C-9EBB-483F-84B2-DA9A819CDBB9</value>
						</metadata>
						<timecode>
							<rate>
								<timebase>25</timebase>
							</rate>
							<string>00:00:00:00</string>
							<frame>0</frame>
							<displayformat>NDF</displayformat>
							<source>source</source>
							<reel>
								<name>Michael</name>
							</reel>
						</timecode>
						<media>
							<video>
								<duration>516</duration>
								<samplecharacteristics>
									<width>1280</width>
									<height>720</height>
								</samplecharacteristics>
							</video>
							<audio>
								<samplecharacteristics>
									<samplerate>48000</samplerate>
									<depth>16</depth>
								</samplecharacteristics>
								<channelcount>2</channelcount>
								<layout>stereo</layout>
								<audiochannel>
									<sourcechannel>1</sourcechannel>
									<channellabel>left</channellabel>
								</audiochannel>
								<audiochannel>
									<sourcechannel>2</sourcechannel>
									<channellabel>right</channellabel>
								</audiochannel>
							</audio>
						</media>
					</file>
					<sourcetrack>
						<mediatype>video</mediatype>
					</sourcetrack>
					<fielddominance>none</fielddominance>
					<itemhistory>
						<uuid>702BE2E2-7E95-49C0-BECB-386EF47299A7</uuid>
						<uuid>A0234E24-0FF6-4C75-A2E1-422D2E8AFBC6</uuid>
					</itemhistory>
				</clipitem>
				<clipitem id="Michael059 ">
					<name>Michael059</name>
					<duration>852</duration>
					<rate>
						<ntsc>FALSE</ntsc>
						<timebase>25</timebase>
					</rate>
					<in>0</in>
					<out>851</out>
					<start>57818</start>
					<end>58669</end>
					<pixelaspectratio>Square</pixelaspectratio>
					<anamorphic>FALSE</anamorphic>
					<alphatype>none</alphatype>
					<logginginfo>
						<scene/>
						<shottake/>
						<lognote/>
						<good>FALSE</good>
					</logginginfo>
					<labels>
						<label2/>
					</labels>
					<comments>
						<mastercomment1/>
						<mastercomment2/>
						<mastercomment3/>
						<mastercomment4/>
					</comments>
					<file id="Michael059 1">
						<name>Michael059</name>
						<pathurl>file://localhost/Volumes/Michael's%20Passport/woodbdrigenov2011media/Michael059</pathurl>
						<rate>
							<timebase>25</timebase>
						</rate>
						<duration>852</duration>
						<metadata>
							<storage>QuickTime</storage>
							<key>com.apple.finalcutstudio.media.uuid</key>
							<size>36</size>
							<type>UTF8</type>
							<value>B53FAE7B-963C-4B07-974A-3C28A5C9E25D</value>
						</metadata>
						<metadata>
							<storage>QuickTime</storage>
							<key>com.apple.finalcutstudio.media.history.uuid</key>
							<size>36</size>
							<type>UTF8</type>
							<value>F551E841-025E-4227-AE13-B63FFFA4113A</value>
						</metadata>
						<timecode>
							<rate>
								<timebase>25</timebase>
							</rate>
							<string>00:00:00:00</string>
							<frame>0</frame>
							<displayformat>NDF</displayformat>
							<source>source</source>
							<reel>
								<name>Michael</name>
							</reel>
						</timecode>
						<media>
							<video>
								<duration>852</duration>
								<samplecharacteristics>
									<width>1280</width>
									<height>720</height>
								</samplecharacteristics>
							</video>
							<audio>
								<samplecharacteristics>
									<samplerate>48000</samplerate>
									<depth>16</depth>
								</samplecharacteristics>
								<channelcount>2</channelcount>
								<layout>stereo</layout>
								<audiochannel>
									<sourcechannel>1</sourcechannel>
									<channellabel>left</channellabel>
								</audiochannel>
								<audiochannel>
									<sourcechannel>2</sourcechannel>
									<channellabel>right</channellabel>
								</audiochannel>
							</audio>
						</media>
					</file>
					<sourcetrack>
						<mediatype>video</mediatype>
					</sourcetrack>
					<fielddominance>none</fielddominance>
					<itemhistory>
						<uuid>BC33A406-006E-489A-BFCC-D874A7BD2B4D</uuid>
						<uuid>B83792F7-7160-4984-B1B0-E8A22997B659</uuid>
					</itemhistory>
				</clipitem>
				<clipitem id="Michael060 ">
					<name>Michael060</name>
					<duration>984</duration>
					<rate>
						<ntsc>FALSE</ntsc>
						<timebase>25</timebase>
					</rate>
					<in>0</in>
					<out>984</out>
					<start>60167</start>
					<end>61151</end>
					<pixelaspectratio>Square</pixelaspectratio>
					<anamorphic>FALSE</anamorphic>
					<alphatype>none</alphatype>
					<logginginfo>
						<scene/>
						<shottake/>
						<lognote/>
						<good>FALSE</good>
					</logginginfo>
					<labels>
						<label2/>
					</labels>
					<comments>
						<mastercomment1/>
						<mastercomment2/>
						<mastercomment3/>
						<mastercomment4/>
					</comments>
					<file id="Michael060 1">
						<name>Michael060</name>
						<pathurl>file://localhost/Volumes/Michael's%20Passport/woodbdrigenov2011media/Michael060</pathurl>
						<rate>
							<timebase>25</timebase>
						</rate>
						<duration>984</duration>
						<metadata>
							<storage>QuickTime</storage>
							<key>com.apple.finalcutstudio.media.uuid</key>
							<size>36</size>
							<type>UTF8</type>
							<value>B110E8EC-E790-400C-92F6-13249DE4D97A</value>
						</metadata>
						<metadata>
							<storage>QuickTime</storage>
							<key>com.apple.finalcutstudio.media.history.uuid</key>
							<size>36</size>
							<type>UTF8</type>
							<value>EAE0968B-4953-4F13-A02D-109EC2A31D29</value>
						</metadata>
						<timecode>
							<rate>
								<timebase>25</timebase>
							</rate>
							<string>00:00:00:00</string>
							<frame>0</frame>
							<displayformat>NDF</displayformat>
							<source>source</source>
							<reel>
								<name>Michael</name>
							</reel>
						</timecode>
						<media>
							<video>
								<duration>984</duration>
								<samplecharacteristics>
									<width>1280</width>
									<height>720</height>
								</samplecharacteristics>
							</video>
							<audio>
								<samplecharacteristics>
									<samplerate>48000</samplerate>
									<depth>16</depth>
								</samplecharacteristics>
								<channelcount>2</channelcount>
								<layout>stereo</layout>
								<audiochannel>
									<sourcechannel>1</sourcechannel>
									<channellabel>left</channellabel>
								</audiochannel>
								<audiochannel>
									<sourcechannel>2</sourcechannel>
									<channellabel>right</channellabel>
								</audiochannel>
							</audio>
						</media>
					</file>
					<sourcetrack>
						<mediatype>video</mediatype>
					</sourcetrack>
					<fielddominance>none</fielddominance>
					<itemhistory>
						<uuid>A6C0B03E-ECDE-4CE2-94B3-EBC902A033BF</uuid>
						<uuid>EC3E77F3-48B3-4AB4-95AB-9715AFEF1407</uuid>
					</itemhistory>
				</clipitem>
				<clipitem id="Michael061 ">
					<name>Michael061</name>
					<duration>828</duration>
					<rate>
						<ntsc>FALSE</ntsc>
						<timebase>25</timebase>
					</rate>
					<in>0</in>
					<out>828</out>
					<start>61282</start>
					<end>62110</end>
					<pixelaspectratio>Square</pixelaspectratio>
					<anamorphic>FALSE</anamorphic>
					<alphatype>none</alphatype>
					<logginginfo>
						<scene/>
						<shottake/>
						<lognote/>
						<good>FALSE</good>
					</logginginfo>
					<labels>
						<label2/>
					</labels>
					<comments>
						<mastercomment1/>
						<mastercomment2/>
						<mastercomment3/>
						<mastercomment4/>
					</comments>
					<file id="Michael061 1">
						<name>Michael061</name>
						<pathurl>file://localhost/Volumes/Michael's%20Passport/woodbdrigenov2011media/Michael061</pathurl>
						<rate>
							<timebase>25</timebase>
						</rate>
						<duration>828</duration>
						<metadata>
							<storage>QuickTime</storage>
							<key>com.apple.finalcutstudio.media.uuid</key>
							<size>36</size>
							<type>UTF8</type>
							<value>22469868-7C37-42D7-A049-37DC0C1015B7</value>
						</metadata>
						<metadata>
							<storage>QuickTime</storage>
							<key>com.apple.finalcutstudio.media.history.uuid</key>
							<size>36</size>
							<type>UTF8</type>
							<value>DE64B446-0536-4F3A-A817-9418B0E14388</value>
						</metadata>
						<timecode>
							<rate>
								<timebase>25</timebase>
							</rate>
							<string>00:00:00:00</string>
							<frame>0</frame>
							<displayformat>NDF</displayformat>
							<source>source</source>
							<reel>
								<name>Michael</name>
							</reel>
						</timecode>
						<media>
							<video>
								<duration>828</duration>
								<samplecharacteristics>
									<width>1280</width>
									<height>720</height>
								</samplecharacteristics>
							</video>
							<audio>
								<samplecharacteristics>
									<samplerate>48000</samplerate>
									<depth>16</depth>
								</samplecharacteristics>
								<channelcount>2</channelcount>
								<layout>stereo</layout>
								<audiochannel>
									<sourcechannel>1</sourcechannel>
									<channellabel>left</channellabel>
								</audiochannel>
								<audiochannel>
									<sourcechannel>2</sourcechannel>
									<channellabel>right</channellabel>
								</audiochannel>
							</audio>
						</media>
					</file>
					<sourcetrack>
						<mediatype>video</mediatype>
					</sourcetrack>
					<fielddominance>none</fielddominance>
					<itemhistory>
						<uuid>2E249DE0-F112-4437-880D-5BD937E50DA8</uuid>
						<uuid>20C41850-0FA4-4BD2-B0D6-8BA20FF28DAA</uuid>
					</itemhistory>
				</clipitem>
				<clipitem id="Michael062 ">
					<name>Michael062</name>
					<duration>2364</duration>
					<rate>
						<ntsc>FALSE</ntsc>
						<timebase>25</timebase>
					</rate>
					<in>0</in>
					<out>2364</out>
					<start>62676</start>
					<end>65040</end>
					<pixelaspectratio>Square</pixelaspectratio>
					<anamorphic>FALSE</anamorphic>
					<alphatype>none</alphatype>
					<logginginfo>
						<scene/>
						<shottake/>
						<lognote/>
						<good>FALSE</good>
					</logginginfo>
					<labels>
						<label2/>
					</labels>
					<comments>
						<mastercomment1/>
						<mastercomment2/>
						<mastercomment3/>
						<mastercomment4/>
					</comments>
					<file id="Michael062 1">
						<name>Michael062</name>
						<pathurl>file://localhost/Volumes/Michael's%20Passport/woodbdrigenov2011media/Michael062</pathurl>
						<rate>
							<timebase>25</timebase>
						</rate>
						<duration>2364</duration>
						<metadata>
							<storage>QuickTime</storage>
							<key>com.apple.finalcutstudio.media.uuid</key>
							<size>36</size>
							<type>UTF8</type>
							<value>34450D4C-F4F1-4C76-A915-3031972600F2</value>
						</metadata>
						<metadata>
							<storage>QuickTime</storage>
							<key>com.apple.finalcutstudio.media.history.uuid</key>
							<size>36</size>
							<type>UTF8</type>
							<value>61AEC5FB-9CF9-4E07-AEFD-71158655E04B</value>
						</metadata>
						<timecode>
							<rate>
								<timebase>25</timebase>
							</rate>
							<string>00:00:00:00</string>
							<frame>0</frame>
							<displayformat>NDF</displayformat>
							<source>source</source>
							<reel>
								<name>Michael</name>
							</reel>
						</timecode>
						<media>
							<video>
								<duration>2364</duration>
								<samplecharacteristics>
									<width>1280</width>
									<height>720</height>
								</samplecharacteristics>
							</video>
							<audio>
								<samplecharacteristics>
									<samplerate>48000</samplerate>
									<depth>16</depth>
								</samplecharacteristics>
								<channelcount>2</channelcount>
								<layout>stereo</layout>
								<audiochannel>
									<sourcechannel>1</sourcechannel>
									<channellabel>left</channellabel>
								</audiochannel>
								<audiochannel>
									<sourcechannel>2</sourcechannel>
									<channellabel>right</channellabel>
								</audiochannel>
							</audio>
						</media>
					</file>
					<sourcetrack>
						<mediatype>video</mediatype>
					</sourcetrack>
					<fielddominance>none</fielddominance>
					<itemhistory>
						<uuid>691317EC-D230-4D10-9932-19F821030198</uuid>
						<uuid>61A57FC2-257E-4EA8-B63F-2BB4C08020C8</uuid>
					</itemhistory>
				</clipitem>
				<clipitem id="Michael063 ">
					<name>Michael063</name>
					<duration>768</duration>
					<rate>
						<ntsc>FALSE</ntsc>
						<timebase>25</timebase>
					</rate>
					<in>0</in>
					<out>767</out>
					<start>65325</start>
					<end>66092</end>
					<pixelaspectratio>Square</pixelaspectratio>
					<anamorphic>FALSE</anamorphic>
					<alphatype>none</alphatype>
					<logginginfo>
						<scene/>
						<shottake/>
						<lognote/>
						<good>FALSE</good>
					</logginginfo>
					<labels>
						<label2/>
					</labels>
					<comments>
						<mastercomment1/>
						<mastercomment2/>
						<mastercomment3/>
						<mastercomment4/>
					</comments>
					<file id="Michael063 1">
						<name>Michael063</name>
						<pathurl>file://localhost/Volumes/Michael's%20Passport/woodbdrigenov2011media/Michael063</pathurl>
						<rate>
							<timebase>25</timebase>
						</rate>
						<duration>768</duration>
						<metadata>
							<storage>QuickTime</storage>
							<key>com.apple.finalcutstudio.media.uuid</key>
							<size>36</size>
							<type>UTF8</type>
							<value>57F88726-FB9A-4D0E-8500-4ED05C00CDF0</value>
						</metadata>
						<metadata>
							<storage>QuickTime</storage>
							<key>com.apple.finalcutstudio.media.history.uuid</key>
							<size>36</size>
							<type>UTF8</type>
							<value>E033B52B-A6AA-4F86-9795-24019EB7CAEB</value>
						</metadata>
						<timecode>
							<rate>
								<timebase>25</timebase>
							</rate>
							<string>00:00:00:00</string>
							<frame>0</frame>
							<displayformat>NDF</displayformat>
							<source>source</source>
							<reel>
								<name>Michael</name>
							</reel>
						</timecode>
						<media>
							<video>
								<duration>768</duration>
								<samplecharacteristics>
									<width>1280</width>
									<height>720</height>
								</samplecharacteristics>
							</video>
							<audio>
								<samplecharacteristics>
									<samplerate>48000</samplerate>
									<depth>16</depth>
								</samplecharacteristics>
								<channelcount>2</channelcount>
								<layout>stereo</layout>
								<audiochannel>
									<sourcechannel>1</sourcechannel>
									<channellabel>left</channellabel>
								</audiochannel>
								<audiochannel>
									<sourcechannel>2</sourcechannel>
									<channellabel>right</channellabel>
								</audiochannel>
							</audio>
						</media>
					</file>
					<sourcetrack>
						<mediatype>video</mediatype>
					</sourcetrack>
					<fielddominance>none</fielddominance>
					<itemhistory>
						<uuid>8BFD8D6A-99B6-4C51-A26B-5ABBAE872FF2</uuid>
						<uuid>3D3842C7-6E2E-4E6F-8BEE-61115C92660F</uuid>
					</itemhistory>
				</clipitem>
				<clipitem id="Michael064 ">
					<name>Michael064</name>
					<duration>1812</duration>
					<rate>
						<ntsc>FALSE</ntsc>
						<timebase>25</timebase>
					</rate>
					<in>0</in>
					<out>1812</out>
					<start>66257</start>
					<end>68069</end>
					<pixelaspectratio>Square</pixelaspectratio>
					<anamorphic>FALSE</anamorphic>
					<alphatype>none</alphatype>
					<logginginfo>
						<scene/>
						<shottake/>
						<lognote/>
						<good>FALSE</good>
					</logginginfo>
					<labels>
						<label2/>
					</labels>
					<comments>
						<mastercomment1/>
						<mastercomment2/>
						<mastercomment3/>
						<mastercomment4/>
					</comments>
					<file id="Michael064 1">
						<name>Michael064</name>
						<pathurl>file://localhost/Volumes/Michael's%20Passport/woodbdrigenov2011media/Michael064</pathurl>
						<rate>
							<timebase>25</timebase>
						</rate>
						<duration>1812</duration>
						<metadata>
							<storage>QuickTime</storage>
							<key>com.apple.finalcutstudio.media.uuid</key>
							<size>36</size>
							<type>UTF8</type>
							<value>E882CCAF-8C4A-439A-9D30-E28861474FC6</value>
						</metadata>
						<metadata>
							<storage>QuickTime</storage>
							<key>com.apple.finalcutstudio.media.history.uuid</key>
							<size>36</size>
							<type>UTF8</type>
							<value>AD4A6EFA-346E-4C00-87C9-8DCBF262FCE9</value>
						</metadata>
						<timecode>
							<rate>
								<timebase>25</timebase>
							</rate>
							<string>00:00:00:00</string>
							<frame>0</frame>
							<displayformat>NDF</displayformat>
							<source>source</source>
							<reel>
								<name>Michael</name>
							</reel>
						</timecode>
						<media>
							<video>
								<duration>1812</duration>
								<samplecharacteristics>
									<width>1280</width>
									<height>720</height>
								</samplecharacteristics>
							</video>
							<audio>
								<samplecharacteristics>
									<samplerate>48000</samplerate>
									<depth>16</depth>
								</samplecharacteristics>
								<channelcount>2</channelcount>
								<layout>stereo</layout>
								<audiochannel>
									<sourcechannel>1</sourcechannel>
									<channellabel>left</channellabel>
								</audiochannel>
								<audiochannel>
									<sourcechannel>2</sourcechannel>
									<channellabel>right</channellabel>
								</audiochannel>
							</audio>
						</media>
					</file>
					<sourcetrack>
						<mediatype>video</mediatype>
					</sourcetrack>
					<fielddominance>none</fielddominance>
					<itemhistory>
						<uuid>D47C1304-502B-4FAD-AEDA-1542786446C5</uuid>
						<uuid>7CAEF7AA-247E-421A-BCDF-C7D842FF9383</uuid>
					</itemhistory>
				</clipitem>
				<clipitem id="Michael065Subclipa">
					<name>Michael065Subclipa</name>
					<duration>176</duration>
					<rate>
						<ntsc>FALSE</ntsc>
						<timebase>25</timebase>
					</rate>
					<in>0</in>
					<out>175</out>
					<start>68111</start>
					<end>68286</end>
					<pixelaspectratio>Square</pixelaspectratio>
					<anamorphic>FALSE</anamorphic>
					<alphatype>none</alphatype>
					<logginginfo>
						<scene/>
						<shottake/>
						<lognote/>
						<good>FALSE</good>
					</logginginfo>
					<labels>
						<label2/>
					</labels>
					<comments>
						<mastercomment1/>
						<mastercomment2/>
						<mastercomment3/>
						<mastercomment4/>
					</comments>
					<file id="Michael065Subclipa1">
						<name>Michael065Subclipa</name>
						<pathurl>file://localhost/Volumes/Michael's%20Passport/woodbdrigenov2011media/Michael065Subclipa</pathurl>
						<rate>
							<timebase>25</timebase>
						</rate>
						<duration>176</duration>
						<metadata>
							<storage>QuickTime</storage>
							<key>com.apple.finalcutstudio.media.uuid</key>
							<size>36</size>
							<type>UTF8</type>
							<value>84B721A6-500F-4241-8458-D1E325ABAB74</value>
						</metadata>
						<metadata>
							<storage>QuickTime</storage>
							<key>com.apple.finalcutstudio.media.history.uuid</key>
							<size>36</size>
							<type>UTF8</type>
							<value>209F6006-31CE-4992-AD75-E232B5FB0091</value>
						</metadata>
						<timecode>
							<rate>
								<timebase>25</timebase>
							</rate>
							<string>00:00:00:00</string>
							<frame>0</frame>
							<displayformat>NDF</displayformat>
							<source>source</source>
							<reel>
								<name>Michael</name>
							</reel>
						</timecode>
						<media>
							<video>
								<duration>176</duration>
								<samplecharacteristics>
									<width>1280</width>
									<height>720</height>
								</samplecharacteristics>
							</video>
							<audio>
								<samplecharacteristics>
									<samplerate>48000</samplerate>
									<depth>16</depth>
								</samplecharacteristics>
								<channelcount>2</channelcount>
								<layout>stereo</layout>
								<audiochannel>
									<sourcechannel>1</sourcechannel>
									<channellabel>left</channellabel>
								</audiochannel>
								<audiochannel>
									<sourcechannel>2</sourcechannel>
									<channellabel>right</channellabel>
								</audiochannel>
							</audio>
						</media>
					</file>
					<sourcetrack>
						<mediatype>video</mediatype>
					</sourcetrack>
					<fielddominance>none</fielddominance>
					<itemhistory>
						<uuid>3308444A-B9FC-4903-9E50-F128F76E17CD</uuid>
						<uuid>81C6DC5F-3EF6-4226-82DA-DA4675D71CE4</uuid>
					</itemhistory>
				</clipitem>
				<clipitem id="Michael065Subclipb">
					<name>Michael065Subclipb</name>
					<duration>317</duration>
					<rate>
						<ntsc>FALSE</ntsc>
						<timebase>25</timebase>
					</rate>
					<in>0</in>
					<out>317</out>
					<start>68286</start>
					<end>68603</end>
					<pixelaspectratio>Square</pixelaspectratio>
					<anamorphic>FALSE</anamorphic>
					<alphatype>none</alphatype>
					<logginginfo>
						<scene/>
						<shottake/>
						<lognote/>
						<good>FALSE</good>
					</logginginfo>
					<labels>
						<label2/>
					</labels>
					<comments>
						<mastercomment1/>
						<mastercomment2/>
						<mastercomment3/>
						<mastercomment4/>
					</comments>
					<file id="Michael065Subclipb1">
						<name>Michael065Subclipb</name>
						<pathurl>file://localhost/Volumes/Michael's%20Passport/woodbdrigenov2011media/Michael065Subclipb</pathurl>
						<rate>
							<timebase>25</timebase>
						</rate>
						<duration>317</duration>
						<metadata>
							<storage>QuickTime</storage>
							<key>com.apple.finalcutstudio.media.uuid</key>
							<size>36</size>
							<type>UTF8</type>
							<value>F2DD1C97-4910-4CCA-BD9D-B56750344FC7</value>
						</metadata>
						<metadata>
							<storage>QuickTime</storage>
							<key>com.apple.finalcutstudio.media.history.uuid</key>
							<size>36</size>
							<type>UTF8</type>
							<value>209F6006-31CE-4992-AD75-E232B5FB0091</value>
						</metadata>
						<timecode>
							<rate>
								<timebase>25</timebase>
							</rate>
							<string>00:00:07:00</string>
							<frame>175</frame>
							<displayformat>NDF</displayformat>
							<source>source</source>
							<reel>
								<name>Michael</name>
							</reel>
						</timecode>
						<media>
							<video>
								<duration>317</duration>
								<samplecharacteristics>
									<width>1280</width>
									<height>720</height>
								</samplecharacteristics>
							</video>
							<audio>
								<samplecharacteristics>
									<samplerate>48000</samplerate>
									<depth>16</depth>
								</samplecharacteristics>
								<channelcount>2</channelcount>
								<layout>stereo</layout>
								<audiochannel>
									<sourcechannel>1</sourcechannel>
									<channellabel>left</channellabel>
								</audiochannel>
								<audiochannel>
									<sourcechannel>2</sourcechannel>
									<channellabel>right</channellabel>
								</audiochannel>
							</audio>
						</media>
					</file>
					<sourcetrack>
						<mediatype>video</mediatype>
					</sourcetrack>
					<fielddominance>none</fielddominance>
					<itemhistory>
						<uuid>34FE7D1A-FEDA-4509-8E74-A047881A66E4</uuid>
						<uuid>7FDABD8B-A3CB-4CA8-8784-341404AF5EB9</uuid>
					</itemhistory>
				</clipitem>
				<clipitem id="Michael066 ">
					<name>Michael066</name>
					<duration>540</duration>
					<rate>
						<ntsc>FALSE</ntsc>
						<timebase>25</timebase>
					</rate>
					<in>0</in>
					<out>540</out>
					<start>70810</start>
					<end>71350</end>
					<pixelaspectratio>Square</pixelaspectratio>
					<anamorphic>FALSE</anamorphic>
					<alphatype>none</alphatype>
					<logginginfo>
						<scene/>
						<shottake/>
						<lognote/>
						<good>FALSE</good>
					</logginginfo>
					<labels>
						<label>Good Take</label>
						<label2/>
					</labels>
					<comments>
						<mastercomment1/>
						<mastercomment2/>
						<mastercomment3/>
						<mastercomment4/>
					</comments>
					<file id="Michael066 1">
						<name>Michael066</name>
						<pathurl>file://localhost/Volumes/Michael's%20Passport/woodbdrigenov2011media/Michael066</pathurl>
						<rate>
							<timebase>25</timebase>
						</rate>
						<duration>540</duration>
						<metadata>
							<storage>QuickTime</storage>
							<key>com.apple.finalcutstudio.media.uuid</key>
							<size>36</size>
							<type>UTF8</type>
							<value>E9BD122C-29C9-461D-98D2-5F6DE6D03072</value>
						</metadata>
						<metadata>
							<storage>QuickTime</storage>
							<key>com.apple.finalcutstudio.media.history.uuid</key>
							<size>36</size>
							<type>UTF8</type>
							<value>3DBD07B3-554E-45FB-8A3E-B8A72A54C9A8</value>
						</metadata>
						<timecode>
							<rate>
								<timebase>25</timebase>
							</rate>
							<string>00:00:00:00</string>
							<frame>0</frame>
							<displayformat>NDF</displayformat>
							<source>source</source>
							<reel>
								<name>Michael</name>
							</reel>
						</timecode>
						<media>
							<video>
								<duration>540</duration>
								<samplecharacteristics>
									<width>1280</width>
									<height>720</height>
								</samplecharacteristics>
							</video>
							<audio>
								<samplecharacteristics>
									<samplerate>48000</samplerate>
									<depth>16</depth>
								</samplecharacteristics>
								<channelcount>2</channelcount>
								<layout>stereo</layout>
								<audiochannel>
									<sourcechannel>1</sourcechannel>
									<channellabel>left</channellabel>
								</audiochannel>
								<audiochannel>
									<sourcechannel>2</sourcechannel>
									<channellabel>right</channellabel>
								</audiochannel>
							</audio>
						</media>
					</file>
					<sourcetrack>
						<mediatype>video</mediatype>
					</sourcetrack>
					<fielddominance>none</fielddominance>
					<itemhistory>
						<uuid>238C9CB9-74C5-462C-90D6-01EC0C78F3DD</uuid>
						<uuid>F49E9940-6CD3-49A0-A832-926AC7609B9F</uuid>
					</itemhistory>
				</clipitem>
				<clipitem id="Michael067 ">
					<name>Michael067</name>
					<duration>720</duration>
					<rate>
						<ntsc>FALSE</ntsc>
						<timebase>25</timebase>
					</rate>
					<in>0</in>
					<out>720</out>
					<start>71524</start>
					<end>72244</end>
					<pixelaspectratio>Square</pixelaspectratio>
					<anamorphic>FALSE</anamorphic>
					<alphatype>none</alphatype>
					<logginginfo>
						<scene/>
						<shottake/>
						<lognote/>
						<good>FALSE</good>
					</logginginfo>
					<labels>
						<label>Good Take</label>
						<label2/>
					</labels>
					<comments>
						<mastercomment1/>
						<mastercomment2/>
						<mastercomment3/>
						<mastercomment4/>
					</comments>
					<file id="Michael067 1">
						<name>Michael067</name>
						<pathurl>file://localhost/Volumes/Michael's%20Passport/woodbdrigenov2011media/Michael067</pathurl>
						<rate>
							<timebase>25</timebase>
						</rate>
						<duration>720</duration>
						<metadata>
							<storage>QuickTime</storage>
							<key>com.apple.finalcutstudio.media.uuid</key>
							<size>36</size>
							<type>UTF8</type>
							<value>B34289FD-6FCB-4B89-A2CB-BC3F71B57105</value>
						</metadata>
						<metadata>
							<storage>QuickTime</storage>
							<key>com.apple.finalcutstudio.media.history.uuid</key>
							<size>36</size>
							<type>UTF8</type>
							<value>A615004A-CA09-48B4-99F4-1A6A072F5390</value>
						</metadata>
						<timecode>
							<rate>
								<timebase>25</timebase>
							</rate>
							<string>00:00:00:00</string>
							<frame>0</frame>
							<displayformat>NDF</displayformat>
							<source>source</source>
							<reel>
								<name>Michael</name>
							</reel>
						</timecode>
						<media>
							<video>
								<duration>720</duration>
								<samplecharacteristics>
									<width>1280</width>
									<height>720</height>
								</samplecharacteristics>
							</video>
							<audio>
								<samplecharacteristics>
									<samplerate>48000</samplerate>
									<depth>16</depth>
								</samplecharacteristics>
								<channelcount>2</channelcount>
								<layout>stereo</layout>
								<audiochannel>
									<sourcechannel>1</sourcechannel>
									<channellabel>left</channellabel>
								</audiochannel>
								<audiochannel>
									<sourcechannel>2</sourcechannel>
									<channellabel>right</channellabel>
								</audiochannel>
							</audio>
						</media>
					</file>
					<sourcetrack>
						<mediatype>video</mediatype>
					</sourcetrack>
					<fielddominance>none</fielddominance>
					<itemhistory>
						<uuid>696AB8F4-A322-4835-AAB0-0C4F366B2235</uuid>
						<uuid>1DB37D6A-A0CB-464A-ABAA-CCA95113ADBD</uuid>
					</itemhistory>
				</clipitem>
				<clipitem id="Michael068 ">
					<name>Michael068</name>
					<duration>744</duration>
					<rate>
						<ntsc>FALSE</ntsc>
						<timebase>25</timebase>
					</rate>
					<in>0</in>
					<out>743</out>
					<start>73544</start>
					<end>74287</end>
					<pixelaspectratio>Square</pixelaspectratio>
					<anamorphic>FALSE</anamorphic>
					<alphatype>none</alphatype>
					<logginginfo>
						<scene/>
						<shottake/>
						<lognote/>
						<good>FALSE</good>
					</logginginfo>
					<labels>
						<label>Good Take</label>
						<label2/>
					</labels>
					<comments>
						<mastercomment1/>
						<mastercomment2/>
						<mastercomment3/>
						<mastercomment4/>
					</comments>
					<file id="Michael068 1">
						<name>Michael068</name>
						<pathurl>file://localhost/Volumes/Michael's%20Passport/woodbdrigenov2011media/Michael068</pathurl>
						<rate>
							<timebase>25</timebase>
						</rate>
						<duration>744</duration>
						<metadata>
							<storage>QuickTime</storage>
							<key>com.apple.finalcutstudio.media.uuid</key>
							<size>36</size>
							<type>UTF8</type>
							<value>6732B544-0E97-4D2A-8F95-3F71B4ED8F7C</value>
						</metadata>
						<metadata>
							<storage>QuickTime</storage>
							<key>com.apple.finalcutstudio.media.history.uuid</key>
							<size>36</size>
							<type>UTF8</type>
							<value>1CE83686-3A5C-4CD7-99A9-BC8C6C08FFE0</value>
						</metadata>
						<timecode>
							<rate>
								<timebase>25</timebase>
							</rate>
							<string>00:00:00:00</string>
							<frame>0</frame>
							<displayformat>NDF</displayformat>
							<source>source</source>
							<reel>
								<name>Michael</name>
							</reel>
						</timecode>
						<media>
							<video>
								<duration>744</duration>
								<samplecharacteristics>
									<width>1280</width>
									<height>720</height>
								</samplecharacteristics>
							</video>
							<audio>
								<samplecharacteristics>
									<samplerate>48000</samplerate>
									<depth>16</depth>
								</samplecharacteristics>
								<channelcount>2</channelcount>
								<layout>stereo</layout>
								<audiochannel>
									<sourcechannel>1</sourcechannel>
									<channellabel>left</channellabel>
								</audiochannel>
								<audiochannel>
									<sourcechannel>2</sourcechannel>
									<channellabel>right</channellabel>
								</audiochannel>
							</audio>
						</media>
					</file>
					<sourcetrack>
						<mediatype>video</mediatype>
					</sourcetrack>
					<fielddominance>none</fielddominance>
					<itemhistory>
						<uuid>7ADEA39D-53B1-4AEE-A671-24ED6E198A1D</uuid>
						<uuid>9CC2290E-0B02-4E9D-B960-8D1FEC5F9CEF</uuid>
					</itemhistory>
				</clipitem>
				<clipitem id="Michael069Subclipa">
					<name>Michael069Subclipa</name>
					<duration>201</duration>
					<rate>
						<ntsc>FALSE</ntsc>
						<timebase>25</timebase>
					</rate>
					<in>0</in>
					<out>200</out>
					<start>74390</start>
					<end>74590</end>
					<pixelaspectratio>Square</pixelaspectratio>
					<anamorphic>FALSE</anamorphic>
					<alphatype>none</alphatype>
					<logginginfo>
						<scene/>
						<shottake/>
						<lognote/>
						<good>FALSE</good>
					</logginginfo>
					<labels>
						<label>Good Take</label>
						<label2/>
					</labels>
					<comments>
						<mastercomment1/>
						<mastercomment2/>
						<mastercomment3/>
						<mastercomment4/>
					</comments>
					<file id="Michael069Subclipa1">
						<name>Michael069Subclipa</name>
						<pathurl>file://localhost/Volumes/Michael's%20Passport/woodbdrigenov2011media/Michael069Subclipa</pathurl>
						<rate>
							<timebase>25</timebase>
						</rate>
						<duration>201</duration>
						<metadata>
							<storage>QuickTime</storage>
							<key>com.apple.finalcutstudio.media.uuid</key>
							<size>36</size>
							<type>UTF8</type>
							<value>ABF6F424-22A6-4A0A-9162-941B4F0845B0</value>
						</metadata>
						<metadata>
							<storage>QuickTime</storage>
							<key>com.apple.finalcutstudio.media.history.uuid</key>
							<size>36</size>
							<type>UTF8</type>
							<value>0D3B3E9C-BB01-45FD-B2B7-877EDB178BB1</value>
						</metadata>
						<timecode>
							<rate>
								<timebase>25</timebase>
							</rate>
							<string>00:00:00:00</string>
							<frame>0</frame>
							<displayformat>NDF</displayformat>
							<source>source</source>
							<reel>
								<name>Michael</name>
							</reel>
						</timecode>
						<media>
							<video>
								<duration>201</duration>
								<samplecharacteristics>
									<width>1280</width>
									<height>720</height>
								</samplecharacteristics>
							</video>
							<audio>
								<samplecharacteristics>
									<samplerate>48000</samplerate>
									<depth>16</depth>
								</samplecharacteristics>
								<channelcount>2</channelcount>
								<layout>stereo</layout>
								<audiochannel>
									<sourcechannel>1</sourcechannel>
									<channellabel>left</channellabel>
								</audiochannel>
								<audiochannel>
									<sourcechannel>2</sourcechannel>
									<channellabel>right</channellabel>
								</audiochannel>
							</audio>
						</media>
					</file>
					<sourcetrack>
						<mediatype>video</mediatype>
					</sourcetrack>
					<fielddominance>none</fielddominance>
					<itemhistory>
						<uuid>77352E70-289C-45EC-8F86-F5D286DB82F4</uuid>
						<uuid>2BCC80C9-D451-49EC-8E76-3130DC8A45EA</uuid>
					</itemhistory>
				</clipitem>
				<clipitem id="Michael069Subclipb">
					<name>Michael069Subclipb</name>
					<duration>328</duration>
					<rate>
						<ntsc>FALSE</ntsc>
						<timebase>25</timebase>
					</rate>
					<in>0</in>
					<out>328</out>
					<start>74590</start>
					<end>74918</end>
					<pixelaspectratio>Square</pixelaspectratio>
					<anamorphic>FALSE</anamorphic>
					<alphatype>none</alphatype>
					<logginginfo>
						<scene/>
						<shottake/>
						<lognote/>
						<good>FALSE</good>
					</logginginfo>
					<labels>
						<label>Good Take</label>
						<label2/>
					</labels>
					<comments>
						<mastercomment1/>
						<mastercomment2/>
						<mastercomment3/>
						<mastercomment4/>
					</comments>
					<file id="Michael069Subclipb1">
						<name>Michael069Subclipb</name>
						<pathurl>file://localhost/Volumes/Michael's%20Passport/woodbdrigenov2011media/Michael069Subclipb</pathurl>
						<rate>
							<timebase>25</timebase>
						</rate>
						<duration>328</duration>
						<metadata>
							<storage>QuickTime</storage>
							<key>com.apple.finalcutstudio.media.uuid</key>
							<size>36</size>
							<type>UTF8</type>
							<value>211810AF-3BAC-4ECB-BEA8-B1D5115856C9</value>
						</metadata>
						<metadata>
							<storage>QuickTime</storage>
							<key>com.apple.finalcutstudio.media.history.uuid</key>
							<size>36</size>
							<type>UTF8</type>
							<value>0D3B3E9C-BB01-45FD-B2B7-877EDB178BB1</value>
						</metadata>
						<timecode>
							<rate>
								<timebase>25</timebase>
							</rate>
							<string>00:00:08:00</string>
							<frame>200</frame>
							<displayformat>NDF</displayformat>
							<source>source</source>
							<reel>
								<name>Michael</name>
							</reel>
						</timecode>
						<media>
							<video>
								<duration>328</duration>
								<samplecharacteristics>
									<width>1280</width>
									<height>720</height>
								</samplecharacteristics>
							</video>
							<audio>
								<samplecharacteristics>
									<samplerate>48000</samplerate>
									<depth>16</depth>
								</samplecharacteristics>
								<channelcount>2</channelcount>
								<layout>stereo</layout>
								<audiochannel>
									<sourcechannel>1</sourcechannel>
									<channellabel>left</channellabel>
								</audiochannel>
								<audiochannel>
									<sourcechannel>2</sourcechannel>
									<channellabel>right</channellabel>
								</audiochannel>
							</audio>
						</media>
					</file>
					<sourcetrack>
						<mediatype>video</mediatype>
					</sourcetrack>
					<fielddominance>none</fielddominance>
					<itemhistory>
						<uuid>DC7C1B31-A256-404A-BE76-986F71567522</uuid>
						<uuid>8B9A5F04-5C92-40B8-AAA3-ACA00E0D3F05</uuid>
					</itemhistory>
				</clipitem>
				<clipitem id="Michael070 ">
					<name>Michael070</name>
					<duration>204</duration>
					<rate>
						<ntsc>FALSE</ntsc>
						<timebase>25</timebase>
					</rate>
					<in>0</in>
					<out>204</out>
					<start>75007</start>
					<end>75211</end>
					<pixelaspectratio>Square</pixelaspectratio>
					<anamorphic>FALSE</anamorphic>
					<alphatype>none</alphatype>
					<logginginfo>
						<scene/>
						<shottake/>
						<lognote/>
						<good>FALSE</good>
					</logginginfo>
					<labels>
						<label2/>
					</labels>
					<comments>
						<mastercomment1/>
						<mastercomment2/>
						<mastercomment3/>
						<mastercomment4/>
					</comments>
					<file id="Michael070 1">
						<name>Michael070</name>
						<pathurl>file://localhost/Volumes/Michael's%20Passport/woodbdrigenov2011media/Michael070</pathurl>
						<rate>
							<timebase>25</timebase>
						</rate>
						<duration>204</duration>
						<metadata>
							<storage>QuickTime</storage>
							<key>com.apple.finalcutstudio.media.uuid</key>
							<size>36</size>
							<type>UTF8</type>
							<value>5795796E-B395-4D7F-9263-594A64889CC6</value>
						</metadata>
						<metadata>
							<storage>QuickTime</storage>
							<key>com.apple.finalcutstudio.media.history.uuid</key>
							<size>36</size>
							<type>UTF8</type>
							<value>B5F6BF6E-5F9A-4620-8B26-D992238269BE</value>
						</metadata>
						<timecode>
							<rate>
								<timebase>25</timebase>
							</rate>
							<string>00:00:00:00</string>
							<frame>0</frame>
							<displayformat>NDF</displayformat>
							<source>source</source>
							<reel>
								<name>Michael</name>
							</reel>
						</timecode>
						<media>
							<video>
								<duration>204</duration>
								<samplecharacteristics>
									<width>1280</width>
									<height>720</height>
								</samplecharacteristics>
							</video>
							<audio>
								<samplecharacteristics>
									<samplerate>48000</samplerate>
									<depth>16</depth>
								</samplecharacteristics>
								<channelcount>2</channelcount>
								<layout>stereo</layout>
								<audiochannel>
									<sourcechannel>1</sourcechannel>
									<channellabel>left</channellabel>
								</audiochannel>
								<audiochannel>
									<sourcechannel>2</sourcechannel>
									<channellabel>right</channellabel>
								</audiochannel>
							</audio>
						</media>
					</file>
					<sourcetrack>
						<mediatype>video</mediatype>
					</sourcetrack>
					<fielddominance>none</fielddominance>
					<itemhistory>
						<uuid>4C57A24D-61BA-4DC9-9C33-B8669E1799EB</uuid>
						<uuid>FA98277C-88C2-4DEE-9658-84D6D28FC03D</uuid>
					</itemhistory>
				</clipitem>
				<clipitem id="Michael071 ">
					<name>Michael071</name>
					<duration>1584</duration>
					<rate>
						<ntsc>FALSE</ntsc>
						<timebase>25</timebase>
					</rate>
					<in>0</in>
					<out>1583</out>
					<start>76378</start>
					<end>77961</end>
					<pixelaspectratio>Square</pixelaspectratio>
					<enabled>TRUE</enabled>
					<anamorphic>FALSE</anamorphic>
					<alphatype>none</alphatype>
					<logginginfo>
						<scene/>
						<shottake/>
						<lognote/>
						<good>FALSE</good>
					</logginginfo>
					<labels>
						<label>Good Take</label>
						<label2/>
					</labels>
					<comments>
						<mastercomment1/>
						<mastercomment2/>
						<mastercomment3/>
						<mastercomment4/>
					</comments>
					<file id="Michael071 1">
						<name>Michael071</name>
						<pathurl>file://localhost/Volumes/Michael's%20Passport/woodbdrigenov2011media/Michael071</pathurl>
						<rate>
							<timebase>25</timebase>
						</rate>
						<duration>1584</duration>
						<metadata>
							<storage>QuickTime</storage>
							<key>com.apple.finalcutstudio.media.uuid</key>
							<size>36</size>
							<type>UTF8</type>
							<value>40F1B83B-47AD-4F05-92AD-3D28B032D6CF</value>
						</metadata>
						<metadata>
							<storage>QuickTime</storage>
							<key>com.apple.finalcutstudio.media.history.uuid</key>
							<size>36</size>
							<type>UTF8</type>
							<value>60560831-12AA-42A9-8959-3A150B61040E</value>
						</metadata>
						<timecode>
							<rate>
								<timebase>25</timebase>
							</rate>
							<string>00:00:00:00</string>
							<frame>0</frame>
							<displayformat>NDF</displayformat>
							<source>source</source>
							<reel>
								<name>Michael</name>
							</reel>
						</timecode>
						<media>
							<video>
								<duration>1584</duration>
								<samplecharacteristics>
									<width>1280</width>
									<height>720</height>
								</samplecharacteristics>
							</video>
							<audio>
								<samplecharacteristics>
									<samplerate>48000</samplerate>
									<depth>16</depth>
								</samplecharacteristics>
								<channelcount>2</channelcount>
								<layout>stereo</layout>
								<audiochannel>
									<sourcechannel>1</sourcechannel>
									<channellabel>left</channellabel>
								</audiochannel>
								<audiochannel>
									<sourcechannel>2</sourcechannel>
									<channellabel>right</channellabel>
								</audiochannel>
							</audio>
						</media>
					</file>
					<sourcetrack>
						<mediatype>video</mediatype>
					</sourcetrack>
					<fielddominance>none</fielddominance>
					<itemhistory>
						<uuid>E0B1B5EF-4986-4CA4-B7F1-9F342B13E85D</uuid>
						<uuid>4703AD74-CB27-4E48-8A3E-52711962B855</uuid>
					</itemhistory>
				</clipitem>
				<clipitem id="Michael072 ">
					<name>Michael072</name>
					<duration>744</duration>
					<rate>
						<ntsc>FALSE</ntsc>
						<timebase>25</timebase>
					</rate>
					<in>0</in>
					<out>743</out>
					<start>78044</start>
					<end>78787</end>
					<pixelaspectratio>Square</pixelaspectratio>
					<enabled>TRUE</enabled>
					<anamorphic>FALSE</anamorphic>
					<alphatype>none</alphatype>
					<logginginfo>
						<scene/>
						<shottake/>
						<lognote/>
						<good>FALSE</good>
					</logginginfo>
					<labels>
						<label>Good Take</label>
						<label2/>
					</labels>
					<comments>
						<mastercomment1/>
						<mastercomment2/>
						<mastercomment3/>
						<mastercomment4/>
					</comments>
					<file id="Michael072 1">
						<name>Michael072</name>
						<pathurl>file://localhost/Volumes/Michael's%20Passport/woodbdrigenov2011media/Michael072</pathurl>
						<rate>
							<timebase>25</timebase>
						</rate>
						<duration>744</duration>
						<metadata>
							<storage>QuickTime</storage>
							<key>com.apple.finalcutstudio.media.uuid</key>
							<size>36</size>
							<type>UTF8</type>
							<value>88695873-537F-4CDE-A158-66F28D2386EC</value>
						</metadata>
						<metadata>
							<storage>QuickTime</storage>
							<key>com.apple.finalcutstudio.media.history.uuid</key>
							<size>36</size>
							<type>UTF8</type>
							<value>1D4145EE-0D00-4534-9343-F80104E89BE6</value>
						</metadata>
						<timecode>
							<rate>
								<timebase>25</timebase>
							</rate>
							<string>00:00:00:00</string>
							<frame>0</frame>
							<displayformat>NDF</displayformat>
							<source>source</source>
							<reel>
								<name>Michael</name>
							</reel>
						</timecode>
						<media>
							<video>
								<duration>744</duration>
								<samplecharacteristics>
									<width>1280</width>
									<height>720</height>
								</samplecharacteristics>
							</video>
							<audio>
								<samplecharacteristics>
									<samplerate>48000</samplerate>
									<depth>16</depth>
								</samplecharacteristics>
								<channelcount>2</channelcount>
								<layout>stereo</layout>
								<audiochannel>
									<sourcechannel>1</sourcechannel>
									<channellabel>left</channellabel>
								</audiochannel>
								<audiochannel>
									<sourcechannel>2</sourcechannel>
									<channellabel>right</channellabel>
								</audiochannel>
							</audio>
						</media>
					</file>
					<sourcetrack>
						<mediatype>video</mediatype>
					</sourcetrack>
					<fielddominance>none</fielddominance>
					<itemhistory>
						<uuid>8DE8A256-8ACC-464B-96A8-6005A94020A1</uuid>
						<uuid>492EA12C-81B8-4DCB-AA7F-CCDB6657CE26</uuid>
					</itemhistory>
				</clipitem>
				<clipitem id="Michael073Subclipb">
					<name>Michael073Subclipb</name>
					<duration>1980</duration>
					<rate>
						<ntsc>FALSE</ntsc>
						<timebase>25</timebase>
					</rate>
					<in>0</in>
					<out>1979</out>
					<start>81480</start>
					<end>83459</end>
					<pixelaspectratio>Square</pixelaspectratio>
					<enabled>TRUE</enabled>
					<anamorphic>FALSE</anamorphic>
					<alphatype>none</alphatype>
					<logginginfo>
						<scene/>
						<shottake/>
						<lognote/>
						<good>FALSE</good>
					</logginginfo>
					<labels>
						<label>Good Take</label>
						<label2/>
					</labels>
					<comments>
						<mastercomment1/>
						<mastercomment2/>
						<mastercomment3/>
						<mastercomment4/>
					</comments>
					<file id="Michael073Subclipb1">
						<name>Michael073Subclipb</name>
						<pathurl>file://localhost/Volumes/Michael's%20Passport/woodbdrigenov2011media/Michael073Subclipb</pathurl>
						<rate>
							<timebase>25</timebase>
						</rate>
						<duration>1980</duration>
						<metadata>
							<storage>QuickTime</storage>
							<key>com.apple.finalcutstudio.media.uuid</key>
							<size>36</size>
							<type>UTF8</type>
							<value>1236E1A8-2082-4505-8CFD-21DCCF7B991E</value>
						</metadata>
						<metadata>
							<storage>QuickTime</storage>
							<key>com.apple.finalcutstudio.media.history.uuid</key>
							<size>36</size>
							<type>UTF8</type>
							<value>E84E4054-0D8B-4B52-9871-9C582CCDE561</value>
						</metadata>
						<timecode>
							<rate>
								<timebase>25</timebase>
							</rate>
							<string>00:00:00:00</string>
							<frame>0</frame>
							<displayformat>NDF</displayformat>
							<source>source</source>
							<reel>
								<name>Michael</name>
							</reel>
						</timecode>
						<media>
							<video>
								<duration>1980</duration>
								<samplecharacteristics>
									<width>1280</width>
									<height>720</height>
								</samplecharacteristics>
							</video>
							<audio>
								<samplecharacteristics>
									<samplerate>48000</samplerate>
									<depth>16</depth>
								</samplecharacteristics>
								<channelcount>2</channelcount>
								<layout>stereo</layout>
								<audiochannel>
									<sourcechannel>1</sourcechannel>
									<channellabel>left</channellabel>
								</audiochannel>
								<audiochannel>
									<sourcechannel>2</sourcechannel>
									<channellabel>right</channellabel>
								</audiochannel>
							</audio>
						</media>
					</file>
					<sourcetrack>
						<mediatype>video</mediatype>
					</sourcetrack>
					<fielddominance>none</fielddominance>
					<itemhistory>
						<uuid>1C234E74-6449-464A-A8E7-8E6CC066B6CC</uuid>
						<uuid>6767161A-49AD-4DE6-80E1-E19ECDFACD92</uuid>
					</itemhistory>
				</clipitem>
				<clipitem id="Michael074 ">
					<name>Michael074</name>
					<duration>960</duration>
					<rate>
						<ntsc>FALSE</ntsc>
						<timebase>25</timebase>
					</rate>
					<in>0</in>
					<out>959</out>
					<start>84909</start>
					<end>85868</end>
					<pixelaspectratio>Square</pixelaspectratio>
					<anamorphic>FALSE</anamorphic>
					<alphatype>none</alphatype>
					<logginginfo>
						<scene/>
						<shottake/>
						<lognote/>
						<good>FALSE</good>
					</logginginfo>
					<labels>
						<label2/>
					</labels>
					<comments>
						<mastercomment1/>
						<mastercomment2/>
						<mastercomment3/>
						<mastercomment4/>
					</comments>
					<file id="Michael074 1">
						<name>Michael074</name>
						<pathurl>file://localhost/Volumes/Michael's%20Passport/woodbdrigenov2011media/Michael074</pathurl>
						<rate>
							<timebase>25</timebase>
						</rate>
						<duration>960</duration>
						<metadata>
							<storage>QuickTime</storage>
							<key>com.apple.finalcutstudio.media.uuid</key>
							<size>36</size>
							<type>UTF8</type>
							<value>A9EA3C75-C554-4B24-B9CD-9802CB36A8D6</value>
						</metadata>
						<metadata>
							<storage>QuickTime</storage>
							<key>com.apple.finalcutstudio.media.history.uuid</key>
							<size>36</size>
							<type>UTF8</type>
							<value>C9397E86-8836-4EBF-B634-8161A9D9920D</value>
						</metadata>
						<timecode>
							<rate>
								<timebase>25</timebase>
							</rate>
							<string>00:00:00:00</string>
							<frame>0</frame>
							<displayformat>NDF</displayformat>
							<source>source</source>
							<reel>
								<name>Michael</name>
							</reel>
						</timecode>
						<media>
							<video>
								<duration>960</duration>
								<samplecharacteristics>
									<width>1280</width>
									<height>720</height>
								</samplecharacteristics>
							</video>
							<audio>
								<samplecharacteristics>
									<samplerate>48000</samplerate>
									<depth>16</depth>
								</samplecharacteristics>
								<channelcount>2</channelcount>
								<layout>stereo</layout>
								<audiochannel>
									<sourcechannel>1</sourcechannel>
									<channellabel>left</channellabel>
								</audiochannel>
								<audiochannel>
									<sourcechannel>2</sourcechannel>
									<channellabel>right</channellabel>
								</audiochannel>
							</audio>
						</media>
					</file>
					<sourcetrack>
						<mediatype>video</mediatype>
					</sourcetrack>
					<fielddominance>none</fielddominance>
					<itemhistory>
						<uuid>949568CC-CAFF-4E74-9F63-F211F12C7304</uuid>
						<uuid>673106B4-065B-43F8-890C-6B7AE4991018</uuid>
					</itemhistory>
				</clipitem>
				<clipitem id="Michael075 ">
					<name>Michael075</name>
					<duration>1248</duration>
					<rate>
						<ntsc>FALSE</ntsc>
						<timebase>25</timebase>
					</rate>
					<in>0</in>
					<out>1247</out>
					<start>86060</start>
					<end>87307</end>
					<pixelaspectratio>Square</pixelaspectratio>
					<anamorphic>FALSE</anamorphic>
					<alphatype>none</alphatype>
					<logginginfo>
						<scene/>
						<shottake/>
						<lognote/>
						<good>FALSE</good>
					</logginginfo>
					<labels>
						<label2/>
					</labels>
					<comments>
						<mastercomment1/>
						<mastercomment2/>
						<mastercomment3/>
						<mastercomment4/>
					</comments>
					<file id="Michael075 1">
						<name>Michael075</name>
						<pathurl>file://localhost/Volumes/Michael's%20Passport/woodbdrigenov2011media/Michael075</pathurl>
						<rate>
							<timebase>25</timebase>
						</rate>
						<duration>1248</duration>
						<metadata>
							<storage>QuickTime</storage>
							<key>com.apple.finalcutstudio.media.uuid</key>
							<size>36</size>
							<type>UTF8</type>
							<value>57C82FBC-52FA-483F-8082-37B637497311</value>
						</metadata>
						<metadata>
							<storage>QuickTime</storage>
							<key>com.apple.finalcutstudio.media.history.uuid</key>
							<size>36</size>
							<type>UTF8</type>
							<value>0D93ABF4-B24E-4C7D-A76B-84AB9DD0D047</value>
						</metadata>
						<timecode>
							<rate>
								<timebase>25</timebase>
							</rate>
							<string>00:00:00:00</string>
							<frame>0</frame>
							<displayformat>NDF</displayformat>
							<source>source</source>
							<reel>
								<name>Michael</name>
							</reel>
						</timecode>
						<media>
							<video>
								<duration>1248</duration>
								<samplecharacteristics>
									<width>1280</width>
									<height>720</height>
								</samplecharacteristics>
							</video>
							<audio>
								<samplecharacteristics>
									<samplerate>48000</samplerate>
									<depth>16</depth>
								</samplecharacteristics>
								<channelcount>2</channelcount>
								<layout>stereo</layout>
								<audiochannel>
									<sourcechannel>1</sourcechannel>
									<channellabel>left</channellabel>
								</audiochannel>
								<audiochannel>
									<sourcechannel>2</sourcechannel>
									<channellabel>right</channellabel>
								</audiochannel>
							</audio>
						</media>
					</file>
					<sourcetrack>
						<mediatype>video</mediatype>
					</sourcetrack>
					<fielddominance>none</fielddominance>
					<itemhistory>
						<uuid>2EB5DC9A-25B2-416D-BB97-951397395E56</uuid>
						<uuid>13387D9F-C665-4D15-B93A-E7F8E09907E9</uuid>
					</itemhistory>
				</clipitem>
				<clipitem id="Michael076 ">
					<name>Michael076</name>
					<duration>1008</duration>
					<rate>
						<ntsc>FALSE</ntsc>
						<timebase>25</timebase>
					</rate>
					<in>0</in>
					<out>1008</out>
					<start>87506</start>
					<end>88514</end>
					<pixelaspectratio>Square</pixelaspectratio>
					<anamorphic>FALSE</anamorphic>
					<alphatype>none</alphatype>
					<logginginfo>
						<scene/>
						<shottake/>
						<lognote/>
						<good>FALSE</good>
					</logginginfo>
					<labels>
						<label2/>
					</labels>
					<comments>
						<mastercomment1/>
						<mastercomment2/>
						<mastercomment3/>
						<mastercomment4/>
					</comments>
					<file id="Michael076 1">
						<name>Michael076</name>
						<pathurl>file://localhost/Volumes/Michael's%20Passport/woodbdrigenov2011media/Michael076</pathurl>
						<rate>
							<timebase>25</timebase>
						</rate>
						<duration>1008</duration>
						<metadata>
							<storage>QuickTime</storage>
							<key>com.apple.finalcutstudio.media.uuid</key>
							<size>36</size>
							<type>UTF8</type>
							<value>4F3A2BD7-E543-4724-A990-814768DE117F</value>
						</metadata>
						<metadata>
							<storage>QuickTime</storage>
							<key>com.apple.finalcutstudio.media.history.uuid</key>
							<size>36</size>
							<type>UTF8</type>
							<value>0ECE8DD3-97A0-4C11-BEBD-8F311D354FBF</value>
						</metadata>
						<timecode>
							<rate>
								<timebase>25</timebase>
							</rate>
							<string>00:00:00:00</string>
							<frame>0</frame>
							<displayformat>NDF</displayformat>
							<source>source</source>
							<reel>
								<name>Michael</name>
							</reel>
						</timecode>
						<media>
							<video>
								<duration>1008</duration>
								<samplecharacteristics>
									<width>1280</width>
									<height>720</height>
								</samplecharacteristics>
							</video>
							<audio>
								<samplecharacteristics>
									<samplerate>48000</samplerate>
									<depth>16</depth>
								</samplecharacteristics>
								<channelcount>2</channelcount>
								<layout>stereo</layout>
								<audiochannel>
									<sourcechannel>1</sourcechannel>
									<channellabel>left</channellabel>
								</audiochannel>
								<audiochannel>
									<sourcechannel>2</sourcechannel>
									<channellabel>right</channellabel>
								</audiochannel>
							</audio>
						</media>
					</file>
					<sourcetrack>
						<mediatype>video</mediatype>
					</sourcetrack>
					<fielddominance>none</fielddominance>
					<itemhistory>
						<uuid>BBDC6079-A9E7-49FC-9EA9-4E788AAB8B37</uuid>
						<uuid>9299E1B2-B935-4667-B333-2C92A1582A03</uuid>
					</itemhistory>
				</clipitem>
				<clipitem id="Michael077 ">
					<name>Michael077</name>
					<duration>1200</duration>
					<rate>
						<ntsc>FALSE</ntsc>
						<timebase>25</timebase>
					</rate>
					<in>0</in>
					<out>1200</out>
					<start>88870</start>
					<end>90070</end>
					<pixelaspectratio>Square</pixelaspectratio>
					<anamorphic>FALSE</anamorphic>
					<alphatype>none</alphatype>
					<logginginfo>
						<scene/>
						<shottake/>
						<lognote/>
						<good>FALSE</good>
					</logginginfo>
					<labels>
						<label2/>
					</labels>
					<comments>
						<mastercomment1/>
						<mastercomment2/>
						<mastercomment3/>
						<mastercomment4/>
					</comments>
					<file id="Michael077 1">
						<name>Michael077</name>
						<pathurl>file://localhost/Volumes/Michael's%20Passport/woodbdrigenov2011media/Michael077</pathurl>
						<rate>
							<timebase>25</timebase>
						</rate>
						<duration>1200</duration>
						<metadata>
							<storage>QuickTime</storage>
							<key>com.apple.finalcutstudio.media.uuid</key>
							<size>36</size>
							<type>UTF8</type>
							<value>39BECC01-595C-449D-90B6-393CE4D0AEE3</value>
						</metadata>
						<metadata>
							<storage>QuickTime</storage>
							<key>com.apple.finalcutstudio.media.history.uuid</key>
							<size>36</size>
							<type>UTF8</type>
							<value>1D8E0D43-81B5-4FB4-A987-F78C578FDBA8</value>
						</metadata>
						<timecode>
							<rate>
								<timebase>25</timebase>
							</rate>
							<string>00:00:00:00</string>
							<frame>0</frame>
							<displayformat>NDF</displayformat>
							<source>source</source>
							<reel>
								<name>Michael</name>
							</reel>
						</timecode>
						<media>
							<video>
								<duration>1200</duration>
								<samplecharacteristics>
									<width>1280</width>
									<height>720</height>
								</samplecharacteristics>
							</video>
							<audio>
								<samplecharacteristics>
									<samplerate>48000</samplerate>
									<depth>16</depth>
								</samplecharacteristics>
								<channelcount>2</channelcount>
								<layout>stereo</layout>
								<audiochannel>
									<sourcechannel>1</sourcechannel>
									<channellabel>left</channellabel>
								</audiochannel>
								<audiochannel>
									<sourcechannel>2</sourcechannel>
									<channellabel>right</channellabel>
								</audiochannel>
							</audio>
						</media>
					</file>
					<sourcetrack>
						<mediatype>video</mediatype>
					</sourcetrack>
					<fielddominance>none</fielddominance>
					<itemhistory>
						<uuid>AD5CC99A-DE61-4AAE-84F7-80EB97C9CA21</uuid>
						<uuid>9F0CBE62-247B-49BA-B79F-3CAB880CA96B</uuid>
					</itemhistory>
				</clipitem>
				<clipitem id="Michael077 2">
					<name>Michael077</name>
					<duration>89</duration>
					<rate>
						<ntsc>FALSE</ntsc>
						<timebase>25</timebase>
					</rate>
					<in>64</in>
					<out>88</out>
					<start>90070</start>
					<end>90094</end>
					<pixelaspectratio>Square</pixelaspectratio>
					<anamorphic>FALSE</anamorphic>
					<alphatype>none</alphatype>
					<logginginfo>
						<scene/>
						<shottake/>
						<lognote/>
						<good>FALSE</good>
					</logginginfo>
					<labels>
						<label2/>
					</labels>
					<comments>
						<mastercomment1/>
						<mastercomment2/>
						<mastercomment3/>
						<mastercomment4/>
					</comments>
					<file id="Michael047Subclipa">
						<name>Michael047Subclipa</name>
						<pathurl>file://localhost/Volumes/Michael's%20Passport/woodbdrigenov2011media/Michael047Subclipa</pathurl>
						<rate>
							<timebase>25</timebase>
						</rate>
						<duration>89</duration>
						<metadata>
							<storage>QuickTime</storage>
							<key>com.apple.finalcutstudio.media.uuid</key>
							<size>36</size>
							<type>UTF8</type>
							<value>616D2224-D514-42A0-ABA8-8773292624BC</value>
						</metadata>
						<metadata>
							<storage>QuickTime</storage>
							<key>com.apple.finalcutstudio.media.history.uuid</key>
							<size>36</size>
							<type>UTF8</type>
							<value>9AA7610A-CE2D-4D05-8BBA-9F18F63A0EAD</value>
						</metadata>
						<timecode>
							<rate>
								<timebase>25</timebase>
							</rate>
							<string>00:00:00:00</string>
							<frame>0</frame>
							<displayformat>NDF</displayformat>
							<source>source</source>
							<reel>
								<name>Michael</name>
							</reel>
						</timecode>
						<media>
							<video>
								<duration>89</duration>
								<samplecharacteristics>
									<width>1280</width>
									<height>720</height>
								</samplecharacteristics>
							</video>
							<audio>
								<samplecharacteristics>
									<samplerate>48000</samplerate>
									<depth>16</depth>
								</samplecharacteristics>
								<channelcount>2</channelcount>
								<layout>stereo</layout>
								<audiochannel>
									<sourcechannel>1</sourcechannel>
									<channellabel>left</channellabel>
								</audiochannel>
								<audiochannel>
									<sourcechannel>2</sourcechannel>
									<channellabel>right</channellabel>
								</audiochannel>
							</audio>
						</media>
					</file>
					<sourcetrack>
						<mediatype>video</mediatype>
					</sourcetrack>
					<fielddominance>none</fielddominance>
					<itemhistory>
						<uuid>3900CD77-2D32-4AB7-B1C6-7DE1892C7045</uuid>
						<uuid>071448D6-50B2-4C4C-BE0D-CC9EDD0592E4</uuid>
					</itemhistory>
				</clipitem>
				<clipitem id="Michael078 ">
					<name>Michael078</name>
					<duration>204</duration>
					<rate>
						<ntsc>FALSE</ntsc>
						<timebase>25</timebase>
					</rate>
					<in>0</in>
					<out>204</out>
					<start>90331</start>
					<end>90535</end>
					<pixelaspectratio>Square</pixelaspectratio>
					<anamorphic>FALSE</anamorphic>
					<alphatype>none</alphatype>
					<logginginfo>
						<scene/>
						<shottake/>
						<lognote/>
						<good>FALSE</good>
					</logginginfo>
					<labels>
						<label2/>
					</labels>
					<comments>
						<mastercomment1/>
						<mastercomment2/>
						<mastercomment3/>
						<mastercomment4/>
					</comments>
					<file id="Michael078 1">
						<name>Michael078</name>
						<pathurl>file://localhost/Volumes/Michael's%20Passport/woodbdrigenov2011media/Michael078</pathurl>
						<rate>
							<timebase>25</timebase>
						</rate>
						<duration>204</duration>
						<metadata>
							<storage>QuickTime</storage>
							<key>com.apple.finalcutstudio.media.uuid</key>
							<size>36</size>
							<type>UTF8</type>
							<value>B58AE5CC-21DA-4607-B88B-F65D9AD7B405</value>
						</metadata>
						<metadata>
							<storage>QuickTime</storage>
							<key>com.apple.finalcutstudio.media.history.uuid</key>
							<size>36</size>
							<type>UTF8</type>
							<value>AD12AC69-F1DC-4972-B652-CC3778D42F7F</value>
						</metadata>
						<timecode>
							<rate>
								<timebase>25</timebase>
							</rate>
							<string>00:00:00:00</string>
							<frame>0</frame>
							<displayformat>NDF</displayformat>
							<source>source</source>
							<reel>
								<name>Michael</name>
							</reel>
						</timecode>
						<media>
							<video>
								<duration>204</duration>
								<samplecharacteristics>
									<width>1280</width>
									<height>720</height>
								</samplecharacteristics>
							</video>
							<audio>
								<samplecharacteristics>
									<samplerate>48000</samplerate>
									<depth>16</depth>
								</samplecharacteristics>
								<channelcount>2</channelcount>
								<layout>stereo</layout>
								<audiochannel>
									<sourcechannel>1</sourcechannel>
									<channellabel>left</channellabel>
								</audiochannel>
								<audiochannel>
									<sourcechannel>2</sourcechannel>
									<channellabel>right</channellabel>
								</audiochannel>
							</audio>
						</media>
					</file>
					<sourcetrack>
						<mediatype>video</mediatype>
					</sourcetrack>
					<fielddominance>none</fielddominance>
					<itemhistory>
						<uuid>E188545A-1CBE-4F82-A32E-BAED14971409</uuid>
						<uuid>CDFE3EC7-0921-4461-9A6E-0616E25D9398</uuid>
					</itemhistory>
				</clipitem>
				<clipitem id="Michael079 ">
					<name>Michael079</name>
					<duration>1656</duration>
					<rate>
						<ntsc>FALSE</ntsc>
						<timebase>25</timebase>
					</rate>
					<in>0</in>
					<out>1655</out>
					<start>92624</start>
					<end>94279</end>
					<pixelaspectratio>Square</pixelaspectratio>
					<anamorphic>FALSE</anamorphic>
					<alphatype>none</alphatype>
					<logginginfo>
						<scene/>
						<shottake/>
						<lognote/>
						<good>FALSE</good>
					</logginginfo>
					<labels>
						<label2/>
					</labels>
					<comments>
						<mastercomment1/>
						<mastercomment2/>
						<mastercomment3/>
						<mastercomment4/>
					</comments>
					<file id="Michael079 1">
						<name>Michael079</name>
						<pathurl>file://localhost/Volumes/Michael's%20Passport/woodbdrigenov2011media/Michael079</pathurl>
						<rate>
							<timebase>25</timebase>
						</rate>
						<duration>1656</duration>
						<metadata>
							<storage>QuickTime</storage>
							<key>com.apple.finalcutstudio.media.uuid</key>
							<size>36</size>
							<type>UTF8</type>
							<value>26D8F0EA-3B64-4280-94C9-C94B12940175</value>
						</metadata>
						<metadata>
							<storage>QuickTime</storage>
							<key>com.apple.finalcutstudio.media.history.uuid</key>
							<size>36</size>
							<type>UTF8</type>
							<value>77266385-F803-4DA7-AE4D-507DD5CCFDD4</value>
						</metadata>
						<timecode>
							<rate>
								<timebase>25</timebase>
							</rate>
							<string>00:00:00:00</string>
							<frame>0</frame>
							<displayformat>NDF</displayformat>
							<source>source</source>
							<reel>
								<name>Michael</name>
							</reel>
						</timecode>
						<media>
							<video>
								<duration>1656</duration>
								<samplecharacteristics>
									<width>1280</width>
									<height>720</height>
								</samplecharacteristics>
							</video>
							<audio>
								<samplecharacteristics>
									<samplerate>48000</samplerate>
									<depth>16</depth>
								</samplecharacteristics>
								<channelcount>2</channelcount>
								<layout>stereo</layout>
								<audiochannel>
									<sourcechannel>1</sourcechannel>
									<channellabel>left</channellabel>
								</audiochannel>
								<audiochannel>
									<sourcechannel>2</sourcechannel>
									<channellabel>right</channellabel>
								</audiochannel>
							</audio>
						</media>
					</file>
					<sourcetrack>
						<mediatype>video</mediatype>
					</sourcetrack>
					<fielddominance>none</fielddominance>
					<itemhistory>
						<uuid>E8827423-A488-4A36-B61C-55925DE19F82</uuid>
						<uuid>C0F2CCF9-EA68-4CF1-BB6E-0ABEAA8D9432</uuid>
					</itemhistory>
				</clipitem>
				<clipitem id="Michael080 ">
					<name>Michael080</name>
					<duration>120</duration>
					<rate>
						<ntsc>FALSE</ntsc>
						<timebase>25</timebase>
					</rate>
					<in>0</in>
					<out>119</out>
					<start>96207</start>
					<end>96326</end>
					<pixelaspectratio>Square</pixelaspectratio>
					<anamorphic>FALSE</anamorphic>
					<alphatype>none</alphatype>
					<logginginfo>
						<scene/>
						<shottake/>
						<lognote/>
						<good>FALSE</good>
					</logginginfo>
					<labels>
						<label2/>
					</labels>
					<comments>
						<mastercomment1/>
						<mastercomment2/>
						<mastercomment3/>
						<mastercomment4/>
					</comments>
					<file id="Michael080 1">
						<name>Michael080</name>
						<pathurl>file://localhost/Volumes/Michael's%20Passport/woodbdrigenov2011media/Michael080</pathurl>
						<rate>
							<timebase>25</timebase>
						</rate>
						<duration>120</duration>
						<metadata>
							<storage>QuickTime</storage>
							<key>com.apple.finalcutstudio.media.uuid</key>
							<size>36</size>
							<type>UTF8</type>
							<value>D083F880-5D6B-461C-9361-2FC1BEB675E9</value>
						</metadata>
						<metadata>
							<storage>QuickTime</storage>
							<key>com.apple.finalcutstudio.media.history.uuid</key>
							<size>36</size>
							<type>UTF8</type>
							<value>C3F57826-B3B0-41F5-BA72-841965F31397</value>
						</metadata>
						<timecode>
							<rate>
								<timebase>25</timebase>
							</rate>
							<string>00:00:00:00</string>
							<frame>0</frame>
							<displayformat>NDF</displayformat>
							<source>source</source>
							<reel>
								<name>Michael</name>
							</reel>
						</timecode>
						<media>
							<video>
								<duration>120</duration>
								<samplecharacteristics>
									<width>1280</width>
									<height>720</height>
								</samplecharacteristics>
							</video>
							<audio>
								<samplecharacteristics>
									<samplerate>48000</samplerate>
									<depth>16</depth>
								</samplecharacteristics>
								<channelcount>2</channelcount>
								<layout>stereo</layout>
								<audiochannel>
									<sourcechannel>1</sourcechannel>
									<channellabel>left</channellabel>
								</audiochannel>
								<audiochannel>
									<sourcechannel>2</sourcechannel>
									<channellabel>right</channellabel>
								</audiochannel>
							</audio>
						</media>
					</file>
					<sourcetrack>
						<mediatype>video</mediatype>
					</sourcetrack>
					<fielddominance>none</fielddominance>
					<itemhistory>
						<uuid>286F40F0-728F-4CA9-8063-7AEF36B147CC</uuid>
						<uuid>3EDE1379-1083-45D8-9AA4-F0250515B120</uuid>
					</itemhistory>
				</clipitem>
				<clipitem id="Michael081 ">
					<name>Michael081</name>
					<duration>540</duration>
					<rate>
						<ntsc>FALSE</ntsc>
						<timebase>25</timebase>
					</rate>
					<in>0</in>
					<out>539</out>
					<start>96400</start>
					<end>96939</end>
					<pixelaspectratio>Square</pixelaspectratio>
					<anamorphic>FALSE</anamorphic>
					<alphatype>none</alphatype>
					<logginginfo>
						<scene/>
						<shottake/>
						<lognote/>
						<good>FALSE</good>
					</logginginfo>
					<labels>
						<label2/>
					</labels>
					<comments>
						<mastercomment1/>
						<mastercomment2/>
						<mastercomment3/>
						<mastercomment4/>
					</comments>
					<file id="Michael081 1">
						<name>Michael081</name>
						<pathurl>file://localhost/Volumes/Michael's%20Passport/woodbdrigenov2011media/Michael081</pathurl>
						<rate>
							<timebase>25</timebase>
						</rate>
						<duration>540</duration>
						<metadata>
							<storage>QuickTime</storage>
							<key>com.apple.finalcutstudio.media.uuid</key>
							<size>36</size>
							<type>UTF8</type>
							<value>02C6EF1F-7D98-47D5-B16C-7D1F39CFA29A</value>
						</metadata>
						<metadata>
							<storage>QuickTime</storage>
							<key>com.apple.finalcutstudio.media.history.uuid</key>
							<size>36</size>
							<type>UTF8</type>
							<value>63E380E7-D274-4650-A392-73684D90DBCB</value>
						</metadata>
						<timecode>
							<rate>
								<timebase>25</timebase>
							</rate>
							<string>00:00:00:00</string>
							<frame>0</frame>
							<displayformat>NDF</displayformat>
							<source>source</source>
							<reel>
								<name>Michael</name>
							</reel>
						</timecode>
						<media>
							<video>
								<duration>540</duration>
								<samplecharacteristics>
									<width>1280</width>
									<height>720</height>
								</samplecharacteristics>
							</video>
							<audio>
								<samplecharacteristics>
									<samplerate>48000</samplerate>
									<depth>16</depth>
								</samplecharacteristics>
								<channelcount>2</channelcount>
								<layout>stereo</layout>
								<audiochannel>
									<sourcechannel>1</sourcechannel>
									<channellabel>left</channellabel>
								</audiochannel>
								<audiochannel>
									<sourcechannel>2</sourcechannel>
									<channellabel>right</channellabel>
								</audiochannel>
							</audio>
						</media>
					</file>
					<sourcetrack>
						<mediatype>video</mediatype>
					</sourcetrack>
					<fielddominance>none</fielddominance>
					<itemhistory>
						<uuid>D88DF7B2-DFDA-4CC0-AD7C-A598421DC430</uuid>
						<uuid>B36EC614-41D0-486A-B15A-1220F89E2528</uuid>
					</itemhistory>
				</clipitem>
				<clipitem id="Michael082 ">
					<name>Michael082</name>
					<duration>2580</duration>
					<rate>
						<ntsc>FALSE</ntsc>
						<timebase>25</timebase>
					</rate>
					<in>0</in>
					<out>2579</out>
					<start>97082</start>
					<end>99661</end>
					<pixelaspectratio>Square</pixelaspectratio>
					<anamorphic>FALSE</anamorphic>
					<alphatype>none</alphatype>
					<logginginfo>
						<scene/>
						<shottake/>
						<lognote/>
						<good>FALSE</good>
					</logginginfo>
					<labels>
						<label2/>
					</labels>
					<comments>
						<mastercomment1/>
						<mastercomment2/>
						<mastercomment3/>
						<mastercomment4/>
					</comments>
					<file id="Michael082 1">
						<name>Michael082</name>
						<pathurl>file://localhost/Volumes/Michael's%20Passport/woodbdrigenov2011media/Michael082</pathurl>
						<rate>
							<timebase>25</timebase>
						</rate>
						<duration>2580</duration>
						<metadata>
							<storage>QuickTime</storage>
							<key>com.apple.finalcutstudio.media.uuid</key>
							<size>36</size>
							<type>UTF8</type>
							<value>77A8315A-6DF2-4877-A98B-E98C6A966043</value>
						</metadata>
						<metadata>
							<storage>QuickTime</storage>
							<key>com.apple.finalcutstudio.media.history.uuid</key>
							<size>36</size>
							<type>UTF8</type>
							<value>F5F331C7-2070-415E-B44E-52D6DD45BE40</value>
						</metadata>
						<timecode>
							<rate>
								<timebase>25</timebase>
							</rate>
							<string>00:00:00:00</string>
							<frame>0</frame>
							<displayformat>NDF</displayformat>
							<source>source</source>
							<reel>
								<name>Michael</name>
							</reel>
						</timecode>
						<media>
							<video>
								<duration>2580</duration>
								<samplecharacteristics>
									<width>1280</width>
									<height>720</height>
								</samplecharacteristics>
							</video>
							<audio>
								<samplecharacteristics>
									<samplerate>48000</samplerate>
									<depth>16</depth>
								</samplecharacteristics>
								<channelcount>2</channelcount>
								<layout>stereo</layout>
								<audiochannel>
									<sourcechannel>1</sourcechannel>
									<channellabel>left</channellabel>
								</audiochannel>
								<audiochannel>
									<sourcechannel>2</sourcechannel>
									<channellabel>right</channellabel>
								</audiochannel>
							</audio>
						</media>
					</file>
					<sourcetrack>
						<mediatype>video</mediatype>
					</sourcetrack>
					<fielddominance>none</fielddominance>
					<itemhistory>
						<uuid>11C5D7F7-9FA1-47B4-8D61-49F86B856968</uuid>
						<uuid>8D6B4B8C-28DA-4B33-86E2-0F690E3029B8</uuid>
					</itemhistory>
				</clipitem>
				<clipitem id="Michael083 ">
					<name>Michael083</name>
					<duration>216</duration>
					<rate>
						<ntsc>FALSE</ntsc>
						<timebase>25</timebase>
					</rate>
					<in>0</in>
					<out>216</out>
					<start>100015</start>
					<end>100231</end>
					<pixelaspectratio>Square</pixelaspectratio>
					<anamorphic>FALSE</anamorphic>
					<alphatype>none</alphatype>
					<logginginfo>
						<scene/>
						<shottake/>
						<lognote/>
						<good>FALSE</good>
					</logginginfo>
					<labels>
						<label2/>
					</labels>
					<comments>
						<mastercomment1/>
						<mastercomment2/>
						<mastercomment3/>
						<mastercomment4/>
					</comments>
					<file id="Michael083 1">
						<name>Michael083</name>
						<pathurl>file://localhost/Volumes/Michael's%20Passport/woodbdrigenov2011media/Michael083</pathurl>
						<rate>
							<timebase>25</timebase>
						</rate>
						<duration>216</duration>
						<metadata>
							<storage>QuickTime</storage>
							<key>com.apple.finalcutstudio.media.uuid</key>
							<size>36</size>
							<type>UTF8</type>
							<value>048A3533-E6F7-41AB-B950-115727517ACA</value>
						</metadata>
						<metadata>
							<storage>QuickTime</storage>
							<key>com.apple.finalcutstudio.media.history.uuid</key>
							<size>36</size>
							<type>UTF8</type>
							<value>DCEFA3FE-B755-4A69-90C1-20359046C47E</value>
						</metadata>
						<timecode>
							<rate>
								<timebase>25</timebase>
							</rate>
							<string>00:00:00:00</string>
							<frame>0</frame>
							<displayformat>NDF</displayformat>
							<source>source</source>
							<reel>
								<name>Michael</name>
							</reel>
						</timecode>
						<media>
							<video>
								<duration>216</duration>
								<samplecharacteristics>
									<width>1280</width>
									<height>720</height>
								</samplecharacteristics>
							</video>
							<audio>
								<samplecharacteristics>
									<samplerate>48000</samplerate>
									<depth>16</depth>
								</samplecharacteristics>
								<channelcount>2</channelcount>
								<layout>stereo</layout>
								<audiochannel>
									<sourcechannel>1</sourcechannel>
									<channellabel>left</channellabel>
								</audiochannel>
								<audiochannel>
									<sourcechannel>2</sourcechannel>
									<channellabel>right</channellabel>
								</audiochannel>
							</audio>
						</media>
					</file>
					<sourcetrack>
						<mediatype>video</mediatype>
					</sourcetrack>
					<fielddominance>none</fielddominance>
					<itemhistory>
						<uuid>BE440B3D-67F8-474B-A763-8AEC39E05EC0</uuid>
						<uuid>660BE4C0-98BC-4CD9-AFA1-95012085BCD7</uuid>
					</itemhistory>
				</clipitem>
				<clipitem id="Michael084 ">
					<name>Michael084</name>
					<duration>780</duration>
					<rate>
						<ntsc>FALSE</ntsc>
						<timebase>25</timebase>
					</rate>
					<in>0</in>
					<out>779</out>
					<start>101023</start>
					<end>101802</end>
					<pixelaspectratio>Square</pixelaspectratio>
					<anamorphic>FALSE</anamorphic>
					<alphatype>none</alphatype>
					<logginginfo>
						<scene/>
						<shottake/>
						<lognote/>
						<good>FALSE</good>
					</logginginfo>
					<labels>
						<label2/>
					</labels>
					<comments>
						<mastercomment1/>
						<mastercomment2/>
						<mastercomment3/>
						<mastercomment4/>
					</comments>
					<file id="Michael084 1">
						<name>Michael084</name>
						<pathurl>file://localhost/Volumes/Michael's%20Passport/woodbdrigenov2011media/Michael084</pathurl>
						<rate>
							<timebase>25</timebase>
						</rate>
						<duration>780</duration>
						<metadata>
							<storage>QuickTime</storage>
							<key>com.apple.finalcutstudio.media.uuid</key>
							<size>36</size>
							<type>UTF8</type>
							<value>1082F640-C07E-43A1-89C6-0D18C86EE7A6</value>
						</metadata>
						<metadata>
							<storage>QuickTime</storage>
							<key>com.apple.finalcutstudio.media.history.uuid</key>
							<size>36</size>
							<type>UTF8</type>
							<value>D51D6A92-6C83-4FE0-94D5-1EEEC1C63E57</value>
						</metadata>
						<timecode>
							<rate>
								<timebase>25</timebase>
							</rate>
							<string>00:00:00:00</string>
							<frame>0</frame>
							<displayformat>NDF</displayformat>
							<source>source</source>
							<reel>
								<name>Michael</name>
							</reel>
						</timecode>
						<media>
							<video>
								<duration>780</duration>
								<samplecharacteristics>
									<width>1280</width>
									<height>720</height>
								</samplecharacteristics>
							</video>
							<audio>
								<samplecharacteristics>
									<samplerate>48000</samplerate>
									<depth>16</depth>
								</samplecharacteristics>
								<channelcount>2</channelcount>
								<layout>stereo</layout>
								<audiochannel>
									<sourcechannel>1</sourcechannel>
									<channellabel>left</channellabel>
								</audiochannel>
								<audiochannel>
									<sourcechannel>2</sourcechannel>
									<channellabel>right</channellabel>
								</audiochannel>
							</audio>
						</media>
					</file>
					<sourcetrack>
						<mediatype>video</mediatype>
					</sourcetrack>
					<fielddominance>none</fielddominance>
					<itemhistory>
						<uuid>823D37B0-69FC-4519-95AC-F7444C3F2880</uuid>
						<uuid>BCAF3E79-7254-4937-9645-2894676C9CE4</uuid>
					</itemhistory>
				</clipitem>
				<clipitem id="Michael085 ">
					<name>Michael085</name>
					<duration>2160</duration>
					<rate>
						<ntsc>FALSE</ntsc>
						<timebase>25</timebase>
					</rate>
					<in>0</in>
					<out>2159</out>
					<start>101898</start>
					<end>104057</end>
					<pixelaspectratio>Square</pixelaspectratio>
					<anamorphic>FALSE</anamorphic>
					<alphatype>none</alphatype>
					<logginginfo>
						<scene/>
						<shottake/>
						<lognote/>
						<good>FALSE</good>
					</logginginfo>
					<labels>
						<label2/>
					</labels>
					<comments>
						<mastercomment1/>
						<mastercomment2/>
						<mastercomment3/>
						<mastercomment4/>
					</comments>
					<file id="Michael085 1">
						<name>Michael085</name>
						<pathurl>file://localhost/Volumes/Michael's%20Passport/woodbdrigenov2011media/Michael085</pathurl>
						<rate>
							<timebase>25</timebase>
						</rate>
						<duration>2160</duration>
						<metadata>
							<storage>QuickTime</storage>
							<key>com.apple.finalcutstudio.media.uuid</key>
							<size>36</size>
							<type>UTF8</type>
							<value>B8207836-E1CF-4A6E-9059-2BBBFCAF2C41</value>
						</metadata>
						<metadata>
							<storage>QuickTime</storage>
							<key>com.apple.finalcutstudio.media.history.uuid</key>
							<size>36</size>
							<type>UTF8</type>
							<value>B37884EB-38E3-4B35-ACBD-C42756D54B04</value>
						</metadata>
						<timecode>
							<rate>
								<timebase>25</timebase>
							</rate>
							<string>00:00:00:00</string>
							<frame>0</frame>
							<displayformat>NDF</displayformat>
							<source>source</source>
							<reel>
								<name>Michael</name>
							</reel>
						</timecode>
						<media>
							<video>
								<duration>2160</duration>
								<samplecharacteristics>
									<width>1280</width>
									<height>720</height>
								</samplecharacteristics>
							</video>
							<audio>
								<samplecharacteristics>
									<samplerate>48000</samplerate>
									<depth>16</depth>
								</samplecharacteristics>
								<channelcount>2</channelcount>
								<layout>stereo</layout>
								<audiochannel>
									<sourcechannel>1</sourcechannel>
									<channellabel>left</channellabel>
								</audiochannel>
								<audiochannel>
									<sourcechannel>2</sourcechannel>
									<channellabel>right</channellabel>
								</audiochannel>
							</audio>
						</media>
					</file>
					<sourcetrack>
						<mediatype>video</mediatype>
					</sourcetrack>
					<fielddominance>none</fielddominance>
					<itemhistory>
						<uuid>E8D832CE-5A84-4A8A-910E-A30EBD09F739</uuid>
						<uuid>7C9B2B5F-17C7-45EA-9F6E-85CE3BC994F3</uuid>
					</itemhistory>
				</clipitem>
				<clipitem id="Michael086 ">
					<name>Michael086</name>
					<duration>768</duration>
					<rate>
						<ntsc>FALSE</ntsc>
						<timebase>25</timebase>
					</rate>
					<in>0</in>
					<out>767</out>
					<start>104997</start>
					<end>105764</end>
					<pixelaspectratio>Square</pixelaspectratio>
					<anamorphic>FALSE</anamorphic>
					<alphatype>none</alphatype>
					<logginginfo>
						<scene/>
						<shottake/>
						<lognote/>
						<good>FALSE</good>
					</logginginfo>
					<labels>
						<label2/>
					</labels>
					<comments>
						<mastercomment1/>
						<mastercomment2/>
						<mastercomment3/>
						<mastercomment4/>
					</comments>
					<file id="Michael086 1">
						<name>Michael086</name>
						<pathurl>file://localhost/Volumes/Michael's%20Passport/woodbdrigenov2011media/Michael086</pathurl>
						<rate>
							<timebase>25</timebase>
						</rate>
						<duration>768</duration>
						<metadata>
							<storage>QuickTime</storage>
							<key>com.apple.finalcutstudio.media.uuid</key>
							<size>36</size>
							<type>UTF8</type>
							<value>549C6F8E-128B-41AE-90F6-4C140B392109</value>
						</metadata>
						<metadata>
							<storage>QuickTime</storage>
							<key>com.apple.finalcutstudio.media.history.uuid</key>
							<size>36</size>
							<type>UTF8</type>
							<value>3BF0A22F-218C-467D-87AD-696B8861CE3A</value>
						</metadata>
						<timecode>
							<rate>
								<timebase>25</timebase>
							</rate>
							<string>00:00:00:00</string>
							<frame>0</frame>
							<displayformat>NDF</displayformat>
							<source>source</source>
							<reel>
								<name>Michael</name>
							</reel>
						</timecode>
						<media>
							<video>
								<duration>768</duration>
								<samplecharacteristics>
									<width>1280</width>
									<height>720</height>
								</samplecharacteristics>
							</video>
							<audio>
								<samplecharacteristics>
									<samplerate>48000</samplerate>
									<depth>16</depth>
								</samplecharacteristics>
								<channelcount>2</channelcount>
								<layout>stereo</layout>
								<audiochannel>
									<sourcechannel>1</sourcechannel>
									<channellabel>left</channellabel>
								</audiochannel>
								<audiochannel>
									<sourcechannel>2</sourcechannel>
									<channellabel>right</channellabel>
								</audiochannel>
							</audio>
						</media>
					</file>
					<sourcetrack>
						<mediatype>video</mediatype>
					</sourcetrack>
					<fielddominance>none</fielddominance>
					<itemhistory>
						<uuid>9A2BB063-D646-471D-88A7-FD5B62C3DC1F</uuid>
						<uuid>6EB19132-1E9B-45A4-A77B-02E1672FB822</uuid>
					</itemhistory>
				</clipitem>
				<clipitem id="Michael087Subclipa">
					<name>Michael087Subclipa</name>
					<duration>885</duration>
					<rate>
						<ntsc>FALSE</ntsc>
						<timebase>25</timebase>
					</rate>
					<in>0</in>
					<out>885</out>
					<start>105885</start>
					<end>106770</end>
					<pixelaspectratio>Square</pixelaspectratio>
					<anamorphic>FALSE</anamorphic>
					<alphatype>none</alphatype>
					<logginginfo>
						<scene/>
						<shottake/>
						<lognote/>
						<good>FALSE</good>
					</logginginfo>
					<labels>
						<label2/>
					</labels>
					<comments>
						<mastercomment1/>
						<mastercomment2/>
						<mastercomment3/>
						<mastercomment4/>
					</comments>
					<file id="Michael087Subclipa1">
						<name>Michael087Subclipa</name>
						<pathurl>file://localhost/Volumes/Michael's%20Passport/woodbdrigenov2011media/Michael087Subclipa</pathurl>
						<rate>
							<timebase>25</timebase>
						</rate>
						<duration>885</duration>
						<metadata>
							<storage>QuickTime</storage>
							<key>com.apple.finalcutstudio.media.uuid</key>
							<size>36</size>
							<type>UTF8</type>
							<value>31445A84-0452-411D-980B-EC8B6EDF8EF2</value>
						</metadata>
						<metadata>
							<storage>QuickTime</storage>
							<key>com.apple.finalcutstudio.media.history.uuid</key>
							<size>36</size>
							<type>UTF8</type>
							<value>931C4C98-25A7-4807-AFD4-F5865E12B5F5</value>
						</metadata>
						<timecode>
							<rate>
								<timebase>25</timebase>
							</rate>
							<string>00:00:00:00</string>
							<frame>0</frame>
							<displayformat>NDF</displayformat>
							<source>source</source>
							<reel>
								<name>Michael</name>
							</reel>
						</timecode>
						<media>
							<video>
								<duration>885</duration>
								<samplecharacteristics>
									<width>1280</width>
									<height>720</height>
								</samplecharacteristics>
							</video>
							<audio>
								<samplecharacteristics>
									<samplerate>48000</samplerate>
									<depth>16</depth>
								</samplecharacteristics>
								<channelcount>2</channelcount>
								<layout>stereo</layout>
								<audiochannel>
									<sourcechannel>1</sourcechannel>
									<channellabel>left</channellabel>
								</audiochannel>
								<audiochannel>
									<sourcechannel>2</sourcechannel>
									<channellabel>right</channellabel>
								</audiochannel>
							</audio>
						</media>
					</file>
					<sourcetrack>
						<mediatype>video</mediatype>
					</sourcetrack>
					<fielddominance>none</fielddominance>
					<itemhistory>
						<uuid>D13CAB73-4F28-4DAD-B5D9-E7C0ED867499</uuid>
						<uuid>58A489A4-D880-439E-A575-CC41DABD637A</uuid>
					</itemhistory>
				</clipitem>
				<clipitem id="Michael087Subclipb">
					<name>Michael087Subclipb</name>
					<duration>301</duration>
					<rate>
						<ntsc>FALSE</ntsc>
						<timebase>25</timebase>
					</rate>
					<in>0</in>
					<out>300</out>
					<start>106770</start>
					<end>107070</end>
					<pixelaspectratio>Square</pixelaspectratio>
					<anamorphic>FALSE</anamorphic>
					<alphatype>none</alphatype>
					<logginginfo>
						<scene/>
						<shottake/>
						<lognote/>
						<good>FALSE</good>
					</logginginfo>
					<labels>
						<label2/>
					</labels>
					<comments>
						<mastercomment1/>
						<mastercomment2/>
						<mastercomment3/>
						<mastercomment4/>
					</comments>
					<file id="Michael087Subclipb1">
						<name>Michael087Subclipb</name>
						<pathurl>file://localhost/Volumes/Michael's%20Passport/woodbdrigenov2011media/Michael087Subclipb</pathurl>
						<rate>
							<timebase>25</timebase>
						</rate>
						<duration>301</duration>
						<metadata>
							<storage>QuickTime</storage>
							<key>com.apple.finalcutstudio.media.uuid</key>
							<size>36</size>
							<type>UTF8</type>
							<value>592B702E-EE05-423F-A45A-BC9762252730</value>
						</metadata>
						<metadata>
							<storage>QuickTime</storage>
							<key>com.apple.finalcutstudio.media.history.uuid</key>
							<size>36</size>
							<type>UTF8</type>
							<value>931C4C98-25A7-4807-AFD4-F5865E12B5F5</value>
						</metadata>
						<timecode>
							<rate>
								<timebase>25</timebase>
							</rate>
							<string>00:00:35:09</string>
							<frame>884</frame>
							<displayformat>NDF</displayformat>
							<source>source</source>
							<reel>
								<name>Michael</name>
							</reel>
						</timecode>
						<media>
							<video>
								<duration>301</duration>
								<samplecharacteristics>
									<width>1280</width>
									<height>720</height>
								</samplecharacteristics>
							</video>
							<audio>
								<samplecharacteristics>
									<samplerate>48000</samplerate>
									<depth>16</depth>
								</samplecharacteristics>
								<channelcount>2</channelcount>
								<layout>stereo</layout>
								<audiochannel>
									<sourcechannel>1</sourcechannel>
									<channellabel>left</channellabel>
								</audiochannel>
								<audiochannel>
									<sourcechannel>2</sourcechannel>
									<channellabel>right</channellabel>
								</audiochannel>
							</audio>
						</media>
					</file>
					<sourcetrack>
						<mediatype>video</mediatype>
					</sourcetrack>
					<fielddominance>none</fielddominance>
					<itemhistory>
						<uuid>FFDE8CC7-4E46-4C10-B600-60AACB318552</uuid>
						<uuid>4D0C8BE3-2D10-4B8D-8EF6-983319AA81A1</uuid>
					</itemhistory>
				</clipitem>
				<clipitem id="Michael087Subclipc">
					<name>Michael087Subclipc</name>
					<duration>508</duration>
					<rate>
						<ntsc>FALSE</ntsc>
						<timebase>25</timebase>
					</rate>
					<in>0</in>
					<out>508</out>
					<start>107070</start>
					<end>107578</end>
					<pixelaspectratio>Square</pixelaspectratio>
					<anamorphic>FALSE</anamorphic>
					<alphatype>none</alphatype>
					<logginginfo>
						<scene/>
						<shottake/>
						<lognote/>
						<good>FALSE</good>
					</logginginfo>
					<labels>
						<label2/>
					</labels>
					<comments>
						<mastercomment1/>
						<mastercomment2/>
						<mastercomment3/>
						<mastercomment4/>
					</comments>
					<file id="Michael087Subclipc1">
						<name>Michael087Subclipc</name>
						<pathurl>file://localhost/Volumes/Michael's%20Passport/woodbdrigenov2011media/Michael087Subclipc</pathurl>
						<rate>
							<timebase>25</timebase>
						</rate>
						<duration>508</duration>
						<metadata>
							<storage>QuickTime</storage>
							<key>com.apple.finalcutstudio.media.uuid</key>
							<size>36</size>
							<type>UTF8</type>
							<value>0E505C9C-809E-4CEA-A5B4-C1E9F1D28625</value>
						</metadata>
						<metadata>
							<storage>QuickTime</storage>
							<key>com.apple.finalcutstudio.media.history.uuid</key>
							<size>36</size>
							<type>UTF8</type>
							<value>931C4C98-25A7-4807-AFD4-F5865E12B5F5</value>
						</metadata>
						<timecode>
							<rate>
								<timebase>25</timebase>
							</rate>
							<string>00:00:47:09</string>
							<frame>1184</frame>
							<displayformat>NDF</displayformat>
							<source>source</source>
							<reel>
								<name>Michael</name>
							</reel>
						</timecode>
						<media>
							<video>
								<duration>508</duration>
								<samplecharacteristics>
									<width>1280</width>
									<height>720</height>
								</samplecharacteristics>
							</video>
							<audio>
								<samplecharacteristics>
									<samplerate>48000</samplerate>
									<depth>16</depth>
								</samplecharacteristics>
								<channelcount>2</channelcount>
								<layout>stereo</layout>
								<audiochannel>
									<sourcechannel>1</sourcechannel>
									<channellabel>left</channellabel>
								</audiochannel>
								<audiochannel>
									<sourcechannel>2</sourcechannel>
									<channellabel>right</channellabel>
								</audiochannel>
							</audio>
						</media>
					</file>
					<sourcetrack>
						<mediatype>video</mediatype>
					</sourcetrack>
					<fielddominance>none</fielddominance>
					<itemhistory>
						<uuid>8C5579E5-95FF-4898-85E0-B8B0C955899B</uuid>
						<uuid>60C5D1FE-1043-438C-B10B-9EA88A9F733C</uuid>
					</itemhistory>
				</clipitem>
				<clipitem id="Michael088 ">
					<name>Michael088</name>
					<duration>564</duration>
					<rate>
						<ntsc>FALSE</ntsc>
						<timebase>25</timebase>
					</rate>
					<in>0</in>
					<out>564</out>
					<start>108429</start>
					<end>108993</end>
					<pixelaspectratio>Square</pixelaspectratio>
					<anamorphic>FALSE</anamorphic>
					<alphatype>none</alphatype>
					<logginginfo>
						<scene/>
						<shottake/>
						<lognote/>
						<good>FALSE</good>
					</logginginfo>
					<labels>
						<label2/>
					</labels>
					<comments>
						<mastercomment1/>
						<mastercomment2/>
						<mastercomment3/>
						<mastercomment4/>
					</comments>
					<file id="Michael088 1">
						<name>Michael088</name>
						<pathurl>file://localhost/Volumes/Michael's%20Passport/woodbdrigenov2011media/Michael088</pathurl>
						<rate>
							<timebase>25</timebase>
						</rate>
						<duration>564</duration>
						<metadata>
							<storage>QuickTime</storage>
							<key>com.apple.finalcutstudio.media.uuid</key>
							<size>36</size>
							<type>UTF8</type>
							<value>78F816E7-9B41-44A6-A1AE-1A71165BF0FC</value>
						</metadata>
						<metadata>
							<storage>QuickTime</storage>
							<key>com.apple.finalcutstudio.media.history.uuid</key>
							<size>36</size>
							<type>UTF8</type>
							<value>54C0ECB9-5FCF-49F3-94D1-D7A4D77733C9</value>
						</metadata>
						<timecode>
							<rate>
								<timebase>25</timebase>
							</rate>
							<string>00:00:00:00</string>
							<frame>0</frame>
							<displayformat>NDF</displayformat>
							<source>source</source>
							<reel>
								<name>Michael</name>
							</reel>
						</timecode>
						<media>
							<video>
								<duration>564</duration>
								<samplecharacteristics>
									<width>1280</width>
									<height>720</height>
								</samplecharacteristics>
							</video>
							<audio>
								<samplecharacteristics>
									<samplerate>48000</samplerate>
									<depth>16</depth>
								</samplecharacteristics>
								<channelcount>2</channelcount>
								<layout>stereo</layout>
								<audiochannel>
									<sourcechannel>1</sourcechannel>
									<channellabel>left</channellabel>
								</audiochannel>
								<audiochannel>
									<sourcechannel>2</sourcechannel>
									<channellabel>right</channellabel>
								</audiochannel>
							</audio>
						</media>
					</file>
					<sourcetrack>
						<mediatype>video</mediatype>
					</sourcetrack>
					<fielddominance>none</fielddominance>
					<itemhistory>
						<uuid>FD50D228-6DB4-497B-BA5D-B8FD79547361</uuid>
						<uuid>2F53EDFA-BFF6-45D4-9F90-A5A2B0F6CA72</uuid>
					</itemhistory>
				</clipitem>
				<clipitem id="Michael089 ">
					<name>Michael089</name>
					<duration>480</duration>
					<rate>
						<ntsc>FALSE</ntsc>
						<timebase>25</timebase>
					</rate>
					<in>0</in>
					<out>479</out>
					<start>109167</start>
					<end>109646</end>
					<pixelaspectratio>Square</pixelaspectratio>
					<anamorphic>FALSE</anamorphic>
					<alphatype>none</alphatype>
					<logginginfo>
						<scene/>
						<shottake/>
						<lognote/>
						<good>FALSE</good>
					</logginginfo>
					<labels>
						<label2/>
					</labels>
					<comments>
						<mastercomment1/>
						<mastercomment2/>
						<mastercomment3/>
						<mastercomment4/>
					</comments>
					<file id="Michael089 1">
						<name>Michael089</name>
						<pathurl>file://localhost/Volumes/Michael's%20Passport/woodbdrigenov2011media/Michael089</pathurl>
						<rate>
							<timebase>25</timebase>
						</rate>
						<duration>480</duration>
						<metadata>
							<storage>QuickTime</storage>
							<key>com.apple.finalcutstudio.media.uuid</key>
							<size>36</size>
							<type>UTF8</type>
							<value>D02AF2EB-B7BD-413F-83D3-412FC42E3BA2</value>
						</metadata>
						<metadata>
							<storage>QuickTime</storage>
							<key>com.apple.finalcutstudio.media.history.uuid</key>
							<size>36</size>
							<type>UTF8</type>
							<value>F7EC5570-D8EC-4F9A-8958-B96C7ACF41DF</value>
						</metadata>
						<timecode>
							<rate>
								<timebase>25</timebase>
							</rate>
							<string>00:00:00:00</string>
							<frame>0</frame>
							<displayformat>NDF</displayformat>
							<source>source</source>
							<reel>
								<name>Michael</name>
							</reel>
						</timecode>
						<media>
							<video>
								<duration>480</duration>
								<samplecharacteristics>
									<width>1280</width>
									<height>720</height>
								</samplecharacteristics>
							</video>
							<audio>
								<samplecharacteristics>
									<samplerate>48000</samplerate>
									<depth>16</depth>
								</samplecharacteristics>
								<channelcount>2</channelcount>
								<layout>stereo</layout>
								<audiochannel>
									<sourcechannel>1</sourcechannel>
									<channellabel>left</channellabel>
								</audiochannel>
								<audiochannel>
									<sourcechannel>2</sourcechannel>
									<channellabel>right</channellabel>
								</audiochannel>
							</audio>
						</media>
					</file>
					<sourcetrack>
						<mediatype>video</mediatype>
					</sourcetrack>
					<fielddominance>none</fielddominance>
					<itemhistory>
						<uuid>AD42B277-8393-47EF-8DCE-9FC61009DE76</uuid>
						<uuid>7329576E-CAE6-4A43-A4D4-1402B822070F</uuid>
					</itemhistory>
				</clipitem>
				<clipitem id="Michael090Subclipb">
					<name>Michael090Subclipb</name>
					<duration>594</duration>
					<rate>
						<ntsc>FALSE</ntsc>
						<timebase>25</timebase>
					</rate>
					<in>0</in>
					<out>593</out>
					<start>111865</start>
					<end>112458</end>
					<pixelaspectratio>Square</pixelaspectratio>
					<anamorphic>FALSE</anamorphic>
					<alphatype>none</alphatype>
					<logginginfo>
						<scene/>
						<shottake/>
						<lognote/>
						<good>FALSE</good>
					</logginginfo>
					<labels>
						<label2/>
					</labels>
					<comments>
						<mastercomment1/>
						<mastercomment2/>
						<mastercomment3/>
						<mastercomment4/>
					</comments>
					<file id="Michael090Subclipb1">
						<name>Michael090Subclipb</name>
						<pathurl>file://localhost/Volumes/Michael's%20Passport/woodbdrigenov2011media/Michael090Subclipb</pathurl>
						<rate>
							<timebase>25</timebase>
						</rate>
						<duration>594</duration>
						<metadata>
							<storage>QuickTime</storage>
							<key>com.apple.finalcutstudio.media.uuid</key>
							<size>36</size>
							<type>UTF8</type>
							<value>F823D99A-8D7F-4A84-8CB2-F3F87C65DDA7</value>
						</metadata>
						<metadata>
							<storage>QuickTime</storage>
							<key>com.apple.finalcutstudio.media.history.uuid</key>
							<size>36</size>
							<type>UTF8</type>
							<value>59FB0E97-91FA-4089-97CF-BE044E468D55</value>
						</metadata>
						<timecode>
							<rate>
								<timebase>25</timebase>
							</rate>
							<string>00:00:07:11</string>
							<frame>186</frame>
							<displayformat>NDF</displayformat>
							<source>source</source>
							<reel>
								<name>Michael</name>
							</reel>
						</timecode>
						<media>
							<video>
								<duration>594</duration>
								<samplecharacteristics>
									<width>1280</width>
									<height>720</height>
								</samplecharacteristics>
							</video>
							<audio>
								<samplecharacteristics>
									<samplerate>48000</samplerate>
									<depth>16</depth>
								</samplecharacteristics>
								<channelcount>2</channelcount>
								<layout>stereo</layout>
								<audiochannel>
									<sourcechannel>1</sourcechannel>
									<channellabel>left</channellabel>
								</audiochannel>
								<audiochannel>
									<sourcechannel>2</sourcechannel>
									<channellabel>right</channellabel>
								</audiochannel>
							</audio>
						</media>
					</file>
					<sourcetrack>
						<mediatype>video</mediatype>
					</sourcetrack>
					<fielddominance>none</fielddominance>
					<itemhistory>
						<uuid>FFEC4849-989D-4932-B615-1CA1C9F5DD64</uuid>
						<uuid>3BBEC83C-198D-4300-8426-4EC0A728410B</uuid>
					</itemhistory>
				</clipitem>
				<clipitem id="Michael091 ">
					<name>Michael091</name>
					<duration>960</duration>
					<rate>
						<ntsc>FALSE</ntsc>
						<timebase>25</timebase>
					</rate>
					<in>0</in>
					<out>959</out>
					<start>117330</start>
					<end>118289</end>
					<pixelaspectratio>Square</pixelaspectratio>
					<anamorphic>FALSE</anamorphic>
					<alphatype>none</alphatype>
					<logginginfo>
						<scene/>
						<shottake/>
						<lognote/>
						<good>FALSE</good>
					</logginginfo>
					<labels>
						<label2/>
					</labels>
					<comments>
						<mastercomment1/>
						<mastercomment2/>
						<mastercomment3/>
						<mastercomment4/>
					</comments>
					<file id="Michael091 1">
						<name>Michael091</name>
						<pathurl>file://localhost/Volumes/Michael's%20Passport/woodbdrigenov2011media/Michael091</pathurl>
						<rate>
							<timebase>25</timebase>
						</rate>
						<duration>960</duration>
						<metadata>
							<storage>QuickTime</storage>
							<key>com.apple.finalcutstudio.media.uuid</key>
							<size>36</size>
							<type>UTF8</type>
							<value>4B4701DE-5B55-469B-A5F5-BA2AAF976186</value>
						</metadata>
						<metadata>
							<storage>QuickTime</storage>
							<key>com.apple.finalcutstudio.media.history.uuid</key>
							<size>36</size>
							<type>UTF8</type>
							<value>BFFA719B-302F-4872-B3B2-FEA1C9F3C99C</value>
						</metadata>
						<timecode>
							<rate>
								<timebase>25</timebase>
							</rate>
							<string>00:00:00:00</string>
							<frame>0</frame>
							<displayformat>NDF</displayformat>
							<source>source</source>
							<reel>
								<name>Michael</name>
							</reel>
						</timecode>
						<media>
							<video>
								<duration>960</duration>
								<samplecharacteristics>
									<width>1280</width>
									<height>720</height>
								</samplecharacteristics>
							</video>
							<audio>
								<samplecharacteristics>
									<samplerate>48000</samplerate>
									<depth>16</depth>
								</samplecharacteristics>
								<channelcount>2</channelcount>
								<layout>stereo</layout>
								<audiochannel>
									<sourcechannel>1</sourcechannel>
									<channellabel>left</channellabel>
								</audiochannel>
								<audiochannel>
									<sourcechannel>2</sourcechannel>
									<channellabel>right</channellabel>
								</audiochannel>
							</audio>
						</media>
					</file>
					<sourcetrack>
						<mediatype>video</mediatype>
					</sourcetrack>
					<fielddominance>none</fielddominance>
					<itemhistory>
						<uuid>1B157BD0-CDE2-4B4D-911C-D2F4AA282947</uuid>
						<uuid>500D88A1-C77F-4E01-A2C6-18E34A3DDB44</uuid>
					</itemhistory>
				</clipitem>
				<clipitem id="Michael092 ">
					<name>Michael092</name>
					<duration>2664</duration>
					<rate>
						<ntsc>FALSE</ntsc>
						<timebase>25</timebase>
					</rate>
					<in>0</in>
					<out>2664</out>
					<start>119717</start>
					<end>122381</end>
					<pixelaspectratio>Square</pixelaspectratio>
					<anamorphic>FALSE</anamorphic>
					<alphatype>none</alphatype>
					<logginginfo>
						<scene/>
						<shottake/>
						<lognote/>
						<good>FALSE</good>
					</logginginfo>
					<labels>
						<label2/>
					</labels>
					<comments>
						<mastercomment1/>
						<mastercomment2/>
						<mastercomment3/>
						<mastercomment4/>
					</comments>
					<file id="Michael092 1">
						<name>Michael092</name>
						<pathurl>file://localhost/Volumes/Michael's%20Passport/woodbdrigenov2011media/Michael092</pathurl>
						<rate>
							<timebase>25</timebase>
						</rate>
						<duration>2664</duration>
						<metadata>
							<storage>QuickTime</storage>
							<key>com.apple.finalcutstudio.media.uuid</key>
							<size>36</size>
							<type>UTF8</type>
							<value>6496E429-7E84-41BD-B36E-B5FF6979259F</value>
						</metadata>
						<metadata>
							<storage>QuickTime</storage>
							<key>com.apple.finalcutstudio.media.history.uuid</key>
							<size>36</size>
							<type>UTF8</type>
							<value>43E639F2-9D3E-41F0-9015-BE2C6E0912E1</value>
						</metadata>
						<timecode>
							<rate>
								<timebase>25</timebase>
							</rate>
							<string>00:00:00:00</string>
							<frame>0</frame>
							<displayformat>NDF</displayformat>
							<source>source</source>
							<reel>
								<name>Michael</name>
							</reel>
						</timecode>
						<media>
							<video>
								<duration>2664</duration>
								<samplecharacteristics>
									<width>1280</width>
									<height>720</height>
								</samplecharacteristics>
							</video>
							<audio>
								<samplecharacteristics>
									<samplerate>48000</samplerate>
									<depth>16</depth>
								</samplecharacteristics>
								<channelcount>2</channelcount>
								<layout>stereo</layout>
								<audiochannel>
									<sourcechannel>1</sourcechannel>
									<channellabel>left</channellabel>
								</audiochannel>
								<audiochannel>
									<sourcechannel>2</sourcechannel>
									<channellabel>right</channellabel>
								</audiochannel>
							</audio>
						</media>
					</file>
					<sourcetrack>
						<mediatype>video</mediatype>
					</sourcetrack>
					<fielddominance>none</fielddominance>
					<itemhistory>
						<uuid>080F2F0E-03EF-44E1-BE48-1AD0B13A78BC</uuid>
						<uuid>1BC1CC24-B7C7-48F9-BEAC-EAD73584A7C5</uuid>
					</itemhistory>
				</clipitem>
				<clipitem id="Michael093 ">
					<name>Michael093</name>
					<duration>1548</duration>
					<rate>
						<ntsc>FALSE</ntsc>
						<timebase>25</timebase>
					</rate>
					<in>0</in>
					<out>1547</out>
					<start>122455</start>
					<end>124002</end>
					<pixelaspectratio>Square</pixelaspectratio>
					<anamorphic>FALSE</anamorphic>
					<alphatype>none</alphatype>
					<logginginfo>
						<scene/>
						<shottake/>
						<lognote/>
						<good>FALSE</good>
					</logginginfo>
					<labels>
						<label2/>
					</labels>
					<comments>
						<mastercomment1/>
						<mastercomment2/>
						<mastercomment3/>
						<mastercomment4/>
					</comments>
					<file id="Michael093 1">
						<name>Michael093</name>
						<pathurl>file://localhost/Volumes/Michael's%20Passport/woodbdrigenov2011media/Michael093</pathurl>
						<rate>
							<timebase>25</timebase>
						</rate>
						<duration>1548</duration>
						<metadata>
							<storage>QuickTime</storage>
							<key>com.apple.finalcutstudio.media.uuid</key>
							<size>36</size>
							<type>UTF8</type>
							<value>D632F4C2-B0CB-49D0-BF25-C839F6828647</value>
						</metadata>
						<metadata>
							<storage>QuickTime</storage>
							<key>com.apple.finalcutstudio.media.history.uuid</key>
							<size>36</size>
							<type>UTF8</type>
							<value>E0674DD7-5F36-4782-8052-C6A31DA40992</value>
						</metadata>
						<timecode>
							<rate>
								<timebase>25</timebase>
							</rate>
							<string>00:00:00:00</string>
							<frame>0</frame>
							<displayformat>NDF</displayformat>
							<source>source</source>
							<reel>
								<name>Michael</name>
							</reel>
						</timecode>
						<media>
							<video>
								<duration>1548</duration>
								<samplecharacteristics>
									<width>1280</width>
									<height>720</height>
								</samplecharacteristics>
							</video>
							<audio>
								<samplecharacteristics>
									<samplerate>48000</samplerate>
									<depth>16</depth>
								</samplecharacteristics>
								<channelcount>2</channelcount>
								<layout>stereo</layout>
								<audiochannel>
									<sourcechannel>1</sourcechannel>
									<channellabel>left</channellabel>
								</audiochannel>
								<audiochannel>
									<sourcechannel>2</sourcechannel>
									<channellabel>right</channellabel>
								</audiochannel>
							</audio>
						</media>
					</file>
					<sourcetrack>
						<mediatype>video</mediatype>
					</sourcetrack>
					<fielddominance>none</fielddominance>
					<itemhistory>
						<uuid>E2E5D3EE-45AA-47DA-93DB-A8AE886EDD55</uuid>
						<uuid>CC5C2C28-D2F9-4490-9C7A-202C5F6B91C7</uuid>
					</itemhistory>
				</clipitem>
				<clipitem id="Michael094Subclipa">
					<name>Michael094Subclipa</name>
					<duration>1140</duration>
					<rate>
						<ntsc>FALSE</ntsc>
						<timebase>25</timebase>
					</rate>
					<in>0</in>
					<out>1139</out>
					<start>124447</start>
					<end>125586</end>
					<pixelaspectratio>Square</pixelaspectratio>
					<anamorphic>FALSE</anamorphic>
					<alphatype>none</alphatype>
					<logginginfo>
						<scene/>
						<shottake/>
						<lognote/>
						<good>FALSE</good>
					</logginginfo>
					<labels>
						<label2/>
					</labels>
					<comments>
						<mastercomment1/>
						<mastercomment2/>
						<mastercomment3/>
						<mastercomment4/>
					</comments>
					<file id="Michael094Subclipa1">
						<name>Michael094Subclipa</name>
						<pathurl>file://localhost/Volumes/Michael's%20Passport/woodbdrigenov2011media/Michael094Subclipa</pathurl>
						<rate>
							<timebase>25</timebase>
						</rate>
						<duration>1140</duration>
						<metadata>
							<storage>QuickTime</storage>
							<key>com.apple.finalcutstudio.media.uuid</key>
							<size>36</size>
							<type>UTF8</type>
							<value>6188D61F-96A8-46EB-B77B-8A6CB8B5D7A0</value>
						</metadata>
						<metadata>
							<storage>QuickTime</storage>
							<key>com.apple.finalcutstudio.media.history.uuid</key>
							<size>36</size>
							<type>UTF8</type>
							<value>6D1B273F-BEB2-4A85-8C98-556A3BBA2A27</value>
						</metadata>
						<timecode>
							<rate>
								<timebase>25</timebase>
							</rate>
							<string>00:00:00:00</string>
							<frame>0</frame>
							<displayformat>NDF</displayformat>
							<source>source</source>
							<reel>
								<name>Michael</name>
							</reel>
						</timecode>
						<media>
							<video>
								<duration>1140</duration>
								<samplecharacteristics>
									<width>1280</width>
									<height>720</height>
								</samplecharacteristics>
							</video>
							<audio>
								<samplecharacteristics>
									<samplerate>48000</samplerate>
									<depth>16</depth>
								</samplecharacteristics>
								<channelcount>2</channelcount>
								<layout>stereo</layout>
								<audiochannel>
									<sourcechannel>1</sourcechannel>
									<channellabel>left</channellabel>
								</audiochannel>
								<audiochannel>
									<sourcechannel>2</sourcechannel>
									<channellabel>right</channellabel>
								</audiochannel>
							</audio>
						</media>
					</file>
					<sourcetrack>
						<mediatype>video</mediatype>
					</sourcetrack>
					<fielddominance>none</fielddominance>
					<itemhistory>
						<uuid>8D67F84A-14EC-4290-9482-0F477EFD4828</uuid>
						<uuid>5C87C6F4-2922-4A99-9FBE-46F622AC81FE</uuid>
					</itemhistory>
				</clipitem>
				<clipitem id="Michael094Subclipb">
					<name>Michael094Subclipb</name>
					<duration>613</duration>
					<rate>
						<ntsc>FALSE</ntsc>
						<timebase>25</timebase>
					</rate>
					<in>0</in>
					<out>612</out>
					<start>125586</start>
					<end>126198</end>
					<pixelaspectratio>Square</pixelaspectratio>
					<anamorphic>FALSE</anamorphic>
					<alphatype>none</alphatype>
					<logginginfo>
						<scene/>
						<shottake/>
						<lognote/>
						<good>FALSE</good>
					</logginginfo>
					<labels>
						<label2/>
					</labels>
					<comments>
						<mastercomment1/>
						<mastercomment2/>
						<mastercomment3/>
						<mastercomment4/>
					</comments>
					<file id="Michael094Subclipb1">
						<name>Michael094Subclipb</name>
						<pathurl>file://localhost/Volumes/Michael's%20Passport/woodbdrigenov2011media/Michael094Subclipb</pathurl>
						<rate>
							<timebase>25</timebase>
						</rate>
						<duration>613</duration>
						<metadata>
							<storage>QuickTime</storage>
							<key>com.apple.finalcutstudio.media.uuid</key>
							<size>36</size>
							<type>UTF8</type>
							<value>B10B8502-601C-451C-A997-9D37FF30F6FD</value>
						</metadata>
						<metadata>
							<storage>QuickTime</storage>
							<key>com.apple.finalcutstudio.media.history.uuid</key>
							<size>36</size>
							<type>UTF8</type>
							<value>6D1B273F-BEB2-4A85-8C98-556A3BBA2A27</value>
						</metadata>
						<timecode>
							<rate>
								<timebase>25</timebase>
							</rate>
							<string>00:00:45:14</string>
							<frame>1139</frame>
							<displayformat>NDF</displayformat>
							<source>source</source>
							<reel>
								<name>Michael</name>
							</reel>
						</timecode>
						<media>
							<video>
								<duration>613</duration>
								<samplecharacteristics>
									<width>1280</width>
									<height>720</height>
								</samplecharacteristics>
							</video>
							<audio>
								<samplecharacteristics>
									<samplerate>48000</samplerate>
									<depth>16</depth>
								</samplecharacteristics>
								<channelcount>2</channelcount>
								<layout>stereo</layout>
								<audiochannel>
									<sourcechannel>1</sourcechannel>
									<channellabel>left</channellabel>
								</audiochannel>
								<audiochannel>
									<sourcechannel>2</sourcechannel>
									<channellabel>right</channellabel>
								</audiochannel>
							</audio>
						</media>
					</file>
					<sourcetrack>
						<mediatype>video</mediatype>
					</sourcetrack>
					<fielddominance>none</fielddominance>
					<itemhistory>
						<uuid>D9623635-C568-468D-A981-4185A652B2BE</uuid>
						<uuid>609E92C8-5E29-421F-8FA1-4EE03E5B18A0</uuid>
					</itemhistory>
				</clipitem>
				<clipitem id="Michael095Subclipa">
					<name>Michael095Subclipa</name>
					<duration>448</duration>
					<rate>
						<ntsc>FALSE</ntsc>
						<timebase>25</timebase>
					</rate>
					<in>0</in>
					<out>447</out>
					<start>129310</start>
					<end>129757</end>
					<pixelaspectratio>Square</pixelaspectratio>
					<anamorphic>FALSE</anamorphic>
					<alphatype>none</alphatype>
					<logginginfo>
						<scene/>
						<shottake/>
						<lognote/>
						<good>FALSE</good>
					</logginginfo>
					<labels>
						<label2/>
					</labels>
					<comments>
						<mastercomment1/>
						<mastercomment2/>
						<mastercomment3/>
						<mastercomment4/>
					</comments>
					<file id="Michael095Subclipa1">
						<name>Michael095Subclipa</name>
						<pathurl>file://localhost/Volumes/Michael's%20Passport/woodbdrigenov2011media/Michael095Subclipa</pathurl>
						<rate>
							<timebase>25</timebase>
						</rate>
						<duration>448</duration>
						<metadata>
							<storage>QuickTime</storage>
							<key>com.apple.finalcutstudio.media.uuid</key>
							<size>36</size>
							<type>UTF8</type>
							<value>2D533697-A46D-47E1-98D9-9C7FDD9443A8</value>
						</metadata>
						<metadata>
							<storage>QuickTime</storage>
							<key>com.apple.finalcutstudio.media.history.uuid</key>
							<size>36</size>
							<type>UTF8</type>
							<value>282C6995-535C-4F3B-8063-A338733B4926</value>
						</metadata>
						<timecode>
							<rate>
								<timebase>25</timebase>
							</rate>
							<string>00:00:00:00</string>
							<frame>0</frame>
							<displayformat>NDF</displayformat>
							<source>source</source>
							<reel>
								<name>Michael</name>
							</reel>
						</timecode>
						<media>
							<video>
								<duration>448</duration>
								<samplecharacteristics>
									<width>1280</width>
									<height>720</height>
								</samplecharacteristics>
							</video>
							<audio>
								<samplecharacteristics>
									<samplerate>48000</samplerate>
									<depth>16</depth>
								</samplecharacteristics>
								<channelcount>2</channelcount>
								<layout>stereo</layout>
								<audiochannel>
									<sourcechannel>1</sourcechannel>
									<channellabel>left</channellabel>
								</audiochannel>
								<audiochannel>
									<sourcechannel>2</sourcechannel>
									<channellabel>right</channellabel>
								</audiochannel>
							</audio>
						</media>
					</file>
					<sourcetrack>
						<mediatype>video</mediatype>
					</sourcetrack>
					<fielddominance>none</fielddominance>
					<itemhistory>
						<uuid>1DB3D2AB-6F54-41C1-9C68-D576C642A62D</uuid>
						<uuid>7F9CCA57-DC41-49EE-ADA9-046DF0CDB90D</uuid>
					</itemhistory>
				</clipitem>
				<clipitem id="Michael095Subclipb">
					<name>Michael095Subclipb</name>
					<duration>705</duration>
					<rate>
						<ntsc>FALSE</ntsc>
						<timebase>25</timebase>
					</rate>
					<in>0</in>
					<out>705</out>
					<start>129757</start>
					<end>130462</end>
					<pixelaspectratio>Square</pixelaspectratio>
					<anamorphic>FALSE</anamorphic>
					<alphatype>none</alphatype>
					<logginginfo>
						<scene/>
						<shottake/>
						<lognote/>
						<good>FALSE</good>
					</logginginfo>
					<labels>
						<label2/>
					</labels>
					<comments>
						<mastercomment1/>
						<mastercomment2/>
						<mastercomment3/>
						<mastercomment4/>
					</comments>
					<file id="Michael095Subclipb1">
						<name>Michael095Subclipb</name>
						<pathurl>file://localhost/Volumes/Michael's%20Passport/woodbdrigenov2011media/Michael095Subclipb</pathurl>
						<rate>
							<timebase>25</timebase>
						</rate>
						<duration>705</duration>
						<metadata>
							<storage>QuickTime</storage>
							<key>com.apple.finalcutstudio.media.uuid</key>
							<size>36</size>
							<type>UTF8</type>
							<value>60FDFBC6-3746-4DA6-8825-C33AD1AB7B47</value>
						</metadata>
						<metadata>
							<storage>QuickTime</storage>
							<key>com.apple.finalcutstudio.media.history.uuid</key>
							<size>36</size>
							<type>UTF8</type>
							<value>282C6995-535C-4F3B-8063-A338733B4926</value>
						</metadata>
						<timecode>
							<rate>
								<timebase>25</timebase>
							</rate>
							<string>00:00:17:22</string>
							<frame>447</frame>
							<displayformat>NDF</displayformat>
							<source>source</source>
							<reel>
								<name>Michael</name>
							</reel>
						</timecode>
						<media>
							<video>
								<duration>705</duration>
								<samplecharacteristics>
									<width>1280</width>
									<height>720</height>
								</samplecharacteristics>
							</video>
							<audio>
								<samplecharacteristics>
									<samplerate>48000</samplerate>
									<depth>16</depth>
								</samplecharacteristics>
								<channelcount>2</channelcount>
								<layout>stereo</layout>
								<audiochannel>
									<sourcechannel>1</sourcechannel>
									<channellabel>left</channellabel>
								</audiochannel>
								<audiochannel>
									<sourcechannel>2</sourcechannel>
									<channellabel>right</channellabel>
								</audiochannel>
							</audio>
						</media>
					</file>
					<sourcetrack>
						<mediatype>video</mediatype>
					</sourcetrack>
					<fielddominance>none</fielddominance>
					<itemhistory>
						<uuid>FFC1F259-D157-4283-98A6-4AD1F39453F8</uuid>
						<uuid>A8D77E1F-F6EF-42FD-A755-97ECF68E9312</uuid>
					</itemhistory>
				</clipitem>
				<clipitem id="Michael096Subclipa">
					<name>Michael096Subclipa</name>
					<duration>268</duration>
					<rate>
						<ntsc>FALSE</ntsc>
						<timebase>25</timebase>
					</rate>
					<in>0</in>
					<out>267</out>
					<start>130517</start>
					<end>130784</end>
					<pixelaspectratio>Square</pixelaspectratio>
					<anamorphic>FALSE</anamorphic>
					<alphatype>none</alphatype>
					<logginginfo>
						<scene/>
						<shottake/>
						<lognote/>
						<good>FALSE</good>
					</logginginfo>
					<labels>
						<label2/>
					</labels>
					<comments>
						<mastercomment1/>
						<mastercomment2/>
						<mastercomment3/>
						<mastercomment4/>
					</comments>
					<file id="Michael096Subclipa1">
						<name>Michael096Subclipa</name>
						<pathurl>file://localhost/Volumes/Michael's%20Passport/woodbdrigenov2011media/Michael096Subclipa</pathurl>
						<rate>
							<timebase>25</timebase>
						</rate>
						<duration>268</duration>
						<metadata>
							<storage>QuickTime</storage>
							<key>com.apple.finalcutstudio.media.uuid</key>
							<size>36</size>
							<type>UTF8</type>
							<value>8705FC3B-6A2A-4AB9-9272-22DFC331E2DA</value>
						</metadata>
						<metadata>
							<storage>QuickTime</storage>
							<key>com.apple.finalcutstudio.media.history.uuid</key>
							<size>36</size>
							<type>UTF8</type>
							<value>792DE3D7-ADBF-4C37-88D2-B6B11AD8CCC7</value>
						</metadata>
						<timecode>
							<rate>
								<timebase>25</timebase>
							</rate>
							<string>00:00:00:00</string>
							<frame>0</frame>
							<displayformat>NDF</displayformat>
							<source>source</source>
							<reel>
								<name>Michael</name>
							</reel>
						</timecode>
						<media>
							<video>
								<duration>268</duration>
								<samplecharacteristics>
									<width>1280</width>
									<height>720</height>
								</samplecharacteristics>
							</video>
							<audio>
								<samplecharacteristics>
									<samplerate>48000</samplerate>
									<depth>16</depth>
								</samplecharacteristics>
								<channelcount>2</channelcount>
								<layout>stereo</layout>
								<audiochannel>
									<sourcechannel>1</sourcechannel>
									<channellabel>left</channellabel>
								</audiochannel>
								<audiochannel>
									<sourcechannel>2</sourcechannel>
									<channellabel>right</channellabel>
								</audiochannel>
							</audio>
						</media>
					</file>
					<sourcetrack>
						<mediatype>video</mediatype>
					</sourcetrack>
					<fielddominance>none</fielddominance>
					<itemhistory>
						<uuid>43CB3F34-AED7-4886-91F5-D1D5B2AE62C5</uuid>
						<uuid>9AC5D593-0D1E-40FA-AC30-3145D4564179</uuid>
					</itemhistory>
				</clipitem>
				<clipitem id="Michael096Subclipb">
					<name>Michael096Subclipb</name>
					<duration>177</duration>
					<rate>
						<ntsc>FALSE</ntsc>
						<timebase>25</timebase>
					</rate>
					<in>0</in>
					<out>176</out>
					<start>130784</start>
					<end>130960</end>
					<pixelaspectratio>Square</pixelaspectratio>
					<anamorphic>FALSE</anamorphic>
					<alphatype>none</alphatype>
					<logginginfo>
						<scene/>
						<shottake/>
						<lognote/>
						<good>FALSE</good>
					</logginginfo>
					<labels>
						<label2/>
					</labels>
					<comments>
						<mastercomment1/>
						<mastercomment2/>
						<mastercomment3/>
						<mastercomment4/>
					</comments>
					<file id="Michael096Subclipb1">
						<name>Michael096Subclipb</name>
						<pathurl>file://localhost/Volumes/Michael's%20Passport/woodbdrigenov2011media/Michael096Subclipb</pathurl>
						<rate>
							<timebase>25</timebase>
						</rate>
						<duration>177</duration>
						<metadata>
							<storage>QuickTime</storage>
							<key>com.apple.finalcutstudio.media.uuid</key>
							<size>36</size>
							<type>UTF8</type>
							<value>BF103A8D-683B-4909-AE72-0F1D80887EA3</value>
						</metadata>
						<metadata>
							<storage>QuickTime</storage>
							<key>com.apple.finalcutstudio.media.history.uuid</key>
							<size>36</size>
							<type>UTF8</type>
							<value>792DE3D7-ADBF-4C37-88D2-B6B11AD8CCC7</value>
						</metadata>
						<timecode>
							<rate>
								<timebase>25</timebase>
							</rate>
							<string>00:00:10:17</string>
							<frame>267</frame>
							<displayformat>NDF</displayformat>
							<source>source</source>
							<reel>
								<name>Michael</name>
							</reel>
						</timecode>
						<media>
							<video>
								<duration>177</duration>
								<samplecharacteristics>
									<width>1280</width>
									<height>720</height>
								</samplecharacteristics>
							</video>
							<audio>
								<samplecharacteristics>
									<samplerate>48000</samplerate>
									<depth>16</depth>
								</samplecharacteristics>
								<channelcount>2</channelcount>
								<layout>stereo</layout>
								<audiochannel>
									<sourcechannel>1</sourcechannel>
									<channellabel>left</channellabel>
								</audiochannel>
								<audiochannel>
									<sourcechannel>2</sourcechannel>
									<channellabel>right</channellabel>
								</audiochannel>
							</audio>
						</media>
					</file>
					<sourcetrack>
						<mediatype>video</mediatype>
					</sourcetrack>
					<fielddominance>none</fielddominance>
					<itemhistory>
						<uuid>A6C9076B-7F37-40A7-9928-0515D4E26B10</uuid>
						<uuid>002E4E12-7047-4535-BC51-A37B8B8C3574</uuid>
					</itemhistory>
				</clipitem>
				<clipitem id="Michael097 ">
					<name>Michael097</name>
					<duration>372</duration>
					<rate>
						<ntsc>FALSE</ntsc>
						<timebase>25</timebase>
					</rate>
					<in>0</in>
					<out>371</out>
					<start>131218</start>
					<end>131589</end>
					<pixelaspectratio>Square</pixelaspectratio>
					<anamorphic>FALSE</anamorphic>
					<alphatype>none</alphatype>
					<logginginfo>
						<scene/>
						<shottake/>
						<lognote/>
						<good>FALSE</good>
					</logginginfo>
					<labels>
						<label2/>
					</labels>
					<comments>
						<mastercomment1/>
						<mastercomment2/>
						<mastercomment3/>
						<mastercomment4/>
					</comments>
					<file id="Michael097 1">
						<name>Michael097</name>
						<pathurl>file://localhost/Volumes/Michael's%20Passport/woodbdrigenov2011media/Michael097</pathurl>
						<rate>
							<timebase>25</timebase>
						</rate>
						<duration>372</duration>
						<metadata>
							<storage>QuickTime</storage>
							<key>com.apple.finalcutstudio.media.uuid</key>
							<size>36</size>
							<type>UTF8</type>
							<value>6C890070-A402-448F-81EC-F8E92BD17A08</value>
						</metadata>
						<metadata>
							<storage>QuickTime</storage>
							<key>com.apple.finalcutstudio.media.history.uuid</key>
							<size>36</size>
							<type>UTF8</type>
							<value>355B0976-F0CF-45D0-940E-FFBE79A46723</value>
						</metadata>
						<timecode>
							<rate>
								<timebase>25</timebase>
							</rate>
							<string>00:00:00:00</string>
							<frame>0</frame>
							<displayformat>NDF</displayformat>
							<source>source</source>
							<reel>
								<name>Michael</name>
							</reel>
						</timecode>
						<media>
							<video>
								<duration>372</duration>
								<samplecharacteristics>
									<width>1280</width>
									<height>720</height>
								</samplecharacteristics>
							</video>
							<audio>
								<samplecharacteristics>
									<samplerate>48000</samplerate>
									<depth>16</depth>
								</samplecharacteristics>
								<channelcount>2</channelcount>
								<layout>stereo</layout>
								<audiochannel>
									<sourcechannel>1</sourcechannel>
									<channellabel>left</channellabel>
								</audiochannel>
								<audiochannel>
									<sourcechannel>2</sourcechannel>
									<channellabel>right</channellabel>
								</audiochannel>
							</audio>
						</media>
					</file>
					<sourcetrack>
						<mediatype>video</mediatype>
					</sourcetrack>
					<fielddominance>none</fielddominance>
					<itemhistory>
						<uuid>F22D2765-0EEF-480F-8C61-C1D4D3F17D0F</uuid>
						<uuid>4EC4B086-9C7E-4B53-9982-1359A64C30FE</uuid>
					</itemhistory>
				</clipitem>
				<clipitem id="Michael098 ">
					<name>Michael098</name>
					<duration>264</duration>
					<rate>
						<ntsc>FALSE</ntsc>
						<timebase>25</timebase>
					</rate>
					<in>0</in>
					<out>263</out>
					<start>131691</start>
					<end>131954</end>
					<pixelaspectratio>Square</pixelaspectratio>
					<anamorphic>FALSE</anamorphic>
					<alphatype>none</alphatype>
					<logginginfo>
						<scene/>
						<shottake/>
						<lognote/>
						<good>FALSE</good>
					</logginginfo>
					<labels>
						<label2/>
					</labels>
					<comments>
						<mastercomment1/>
						<mastercomment2/>
						<mastercomment3/>
						<mastercomment4/>
					</comments>
					<file id="Michael098 1">
						<name>Michael098</name>
						<pathurl>file://localhost/Volumes/Michael's%20Passport/woodbdrigenov2011media/Michael098</pathurl>
						<rate>
							<timebase>25</timebase>
						</rate>
						<duration>264</duration>
						<metadata>
							<storage>QuickTime</storage>
							<key>com.apple.finalcutstudio.media.uuid</key>
							<size>36</size>
							<type>UTF8</type>
							<value>122EE28D-9B02-4D7F-AAFF-2307919373B0</value>
						</metadata>
						<metadata>
							<storage>QuickTime</storage>
							<key>com.apple.finalcutstudio.media.history.uuid</key>
							<size>36</size>
							<type>UTF8</type>
							<value>5487EB66-9783-49CA-9937-C8BCDB7C7166</value>
						</metadata>
						<timecode>
							<rate>
								<timebase>25</timebase>
							</rate>
							<string>00:00:00:00</string>
							<frame>0</frame>
							<displayformat>NDF</displayformat>
							<source>source</source>
							<reel>
								<name>Michael</name>
							</reel>
						</timecode>
						<media>
							<video>
								<duration>264</duration>
								<samplecharacteristics>
									<width>1280</width>
									<height>720</height>
								</samplecharacteristics>
							</video>
							<audio>
								<samplecharacteristics>
									<samplerate>48000</samplerate>
									<depth>16</depth>
								</samplecharacteristics>
								<channelcount>2</channelcount>
								<layout>stereo</layout>
								<audiochannel>
									<sourcechannel>1</sourcechannel>
									<channellabel>left</channellabel>
								</audiochannel>
								<audiochannel>
									<sourcechannel>2</sourcechannel>
									<channellabel>right</channellabel>
								</audiochannel>
							</audio>
						</media>
					</file>
					<sourcetrack>
						<mediatype>video</mediatype>
					</sourcetrack>
					<fielddominance>none</fielddominance>
					<itemhistory>
						<uuid>E5CE5D77-E38D-420F-828D-418AC10C0C3B</uuid>
						<uuid>CE251B45-3D66-4ABE-BA04-4E72EB73DF39</uuid>
					</itemhistory>
				</clipitem>
				<clipitem id="Michael099 ">
					<name>Michael099</name>
					<duration>720</duration>
					<rate>
						<ntsc>FALSE</ntsc>
						<timebase>25</timebase>
					</rate>
					<in>0</in>
					<out>720</out>
					<start>132108</start>
					<end>132828</end>
					<pixelaspectratio>Square</pixelaspectratio>
					<anamorphic>FALSE</anamorphic>
					<alphatype>none</alphatype>
					<logginginfo>
						<scene/>
						<shottake/>
						<lognote/>
						<good>FALSE</good>
					</logginginfo>
					<labels>
						<label2/>
					</labels>
					<comments>
						<mastercomment1/>
						<mastercomment2/>
						<mastercomment3/>
						<mastercomment4/>
					</comments>
					<file id="Michael099 1">
						<name>Michael099</name>
						<pathurl>file://localhost/Volumes/Michael's%20Passport/woodbdrigenov2011media/Michael099</pathurl>
						<rate>
							<timebase>25</timebase>
						</rate>
						<duration>720</duration>
						<metadata>
							<storage>QuickTime</storage>
							<key>com.apple.finalcutstudio.media.uuid</key>
							<size>36</size>
							<type>UTF8</type>
							<value>6EEF41BC-9DB5-4300-A30D-5ECAA089B4BF</value>
						</metadata>
						<metadata>
							<storage>QuickTime</storage>
							<key>com.apple.finalcutstudio.media.history.uuid</key>
							<size>36</size>
							<type>UTF8</type>
							<value>D7F118B8-9150-4987-898A-16A14330E8AD</value>
						</metadata>
						<timecode>
							<rate>
								<timebase>25</timebase>
							</rate>
							<string>00:00:00:00</string>
							<frame>0</frame>
							<displayformat>NDF</displayformat>
							<source>source</source>
							<reel>
								<name>Michael</name>
							</reel>
						</timecode>
						<media>
							<video>
								<duration>720</duration>
								<samplecharacteristics>
									<width>1280</width>
									<height>720</height>
								</samplecharacteristics>
							</video>
							<audio>
								<samplecharacteristics>
									<samplerate>48000</samplerate>
									<depth>16</depth>
								</samplecharacteristics>
								<channelcount>2</channelcount>
								<layout>stereo</layout>
								<audiochannel>
									<sourcechannel>1</sourcechannel>
									<channellabel>left</channellabel>
								</audiochannel>
								<audiochannel>
									<sourcechannel>2</sourcechannel>
									<channellabel>right</channellabel>
								</audiochannel>
							</audio>
						</media>
					</file>
					<sourcetrack>
						<mediatype>video</mediatype>
					</sourcetrack>
					<link>
						<linkclipref>Michael099 </linkclipref>
						<mediatype>video</mediatype>
						<trackindex>4</trackindex>
						<clipindex>115</clipindex>
					</link>
					<link>
						<linkclipref>Michael099 2</linkclipref>
						<mediatype>audio</mediatype>
						<trackindex>5</trackindex>
						<clipindex>25</clipindex>
						<groupindex>1</groupindex>
					</link>
					<link>
						<linkclipref>Michael099 3</linkclipref>
						<mediatype>audio</mediatype>
						<trackindex>6</trackindex>
						<clipindex>25</clipindex>
						<groupindex>1</groupindex>
					</link>
					<fielddominance>none</fielddominance>
					<itemhistory>
						<uuid>60120B52-C701-46B4-80DB-F7E29750904D</uuid>
						<uuid>6496229D-3539-4FCD-AFD7-5E0E0759AF9E</uuid>
					</itemhistory>
				</clipitem>
				<clipitem id="Michael100 ">
					<name>Michael100</name>
					<duration>276</duration>
					<rate>
						<ntsc>FALSE</ntsc>
						<timebase>25</timebase>
					</rate>
					<in>0</in>
					<out>276</out>
					<start>132828</start>
					<end>133104</end>
					<pixelaspectratio>Square</pixelaspectratio>
					<anamorphic>FALSE</anamorphic>
					<alphatype>none</alphatype>
					<logginginfo>
						<scene/>
						<shottake/>
						<lognote/>
						<good>FALSE</good>
					</logginginfo>
					<labels>
						<label2/>
					</labels>
					<comments>
						<mastercomment1/>
						<mastercomment2/>
						<mastercomment3/>
						<mastercomment4/>
					</comments>
					<file id="Michael100 1">
						<name>Michael100</name>
						<pathurl>file://localhost/Volumes/Michael's%20Passport/woodbdrigenov2011media/Michael100</pathurl>
						<rate>
							<timebase>25</timebase>
						</rate>
						<duration>276</duration>
						<metadata>
							<storage>QuickTime</storage>
							<key>com.apple.finalcutstudio.media.uuid</key>
							<size>36</size>
							<type>UTF8</type>
							<value>DC7EA503-9B4B-41F2-A126-209C2260EAD4</value>
						</metadata>
						<metadata>
							<storage>QuickTime</storage>
							<key>com.apple.finalcutstudio.media.history.uuid</key>
							<size>36</size>
							<type>UTF8</type>
							<value>9E9C1B22-6293-4389-9A19-4CD05118841F</value>
						</metadata>
						<timecode>
							<rate>
								<timebase>25</timebase>
							</rate>
							<string>00:00:00:00</string>
							<frame>0</frame>
							<displayformat>NDF</displayformat>
							<source>source</source>
							<reel>
								<name>Michael</name>
							</reel>
						</timecode>
						<media>
							<video>
								<duration>276</duration>
								<samplecharacteristics>
									<width>1280</width>
									<height>720</height>
								</samplecharacteristics>
							</video>
							<audio>
								<samplecharacteristics>
									<samplerate>48000</samplerate>
									<depth>16</depth>
								</samplecharacteristics>
								<channelcount>2</channelcount>
								<layout>stereo</layout>
								<audiochannel>
									<sourcechannel>1</sourcechannel>
									<channellabel>left</channellabel>
								</audiochannel>
								<audiochannel>
									<sourcechannel>2</sourcechannel>
									<channellabel>right</channellabel>
								</audiochannel>
							</audio>
						</media>
					</file>
					<sourcetrack>
						<mediatype>video</mediatype>
					</sourcetrack>
					<link>
						<linkclipref>Michael100 </linkclipref>
						<mediatype>video</mediatype>
						<trackindex>4</trackindex>
						<clipindex>116</clipindex>
					</link>
					<link>
						<linkclipref>Michael100 2</linkclipref>
						<mediatype>audio</mediatype>
						<trackindex>5</trackindex>
						<clipindex>26</clipindex>
						<groupindex>1</groupindex>
					</link>
					<link>
						<linkclipref>Michael100 3</linkclipref>
						<mediatype>audio</mediatype>
						<trackindex>6</trackindex>
						<clipindex>26</clipindex>
						<groupindex>1</groupindex>
					</link>
					<fielddominance>none</fielddominance>
					<itemhistory>
						<uuid>FCF2D990-2C15-4C49-863A-5441645F8068</uuid>
						<uuid>BBEA9BBC-3843-43EA-91CB-A0DCF05C87B0</uuid>
					</itemhistory>
				</clipitem>
				<clipitem id="Michael101 ">
					<name>Michael101</name>
					<duration>444</duration>
					<rate>
						<ntsc>FALSE</ntsc>
						<timebase>25</timebase>
					</rate>
					<in>0</in>
					<out>444</out>
					<start>133104</start>
					<end>133548</end>
					<pixelaspectratio>Square</pixelaspectratio>
					<anamorphic>FALSE</anamorphic>
					<alphatype>none</alphatype>
					<logginginfo>
						<scene/>
						<shottake/>
						<lognote/>
						<good>FALSE</good>
					</logginginfo>
					<labels>
						<label2/>
					</labels>
					<comments>
						<mastercomment1/>
						<mastercomment2/>
						<mastercomment3/>
						<mastercomment4/>
					</comments>
					<file id="Michael101 1">
						<name>Michael101</name>
						<pathurl>file://localhost/Volumes/Michael's%20Passport/woodbdrigenov2011media/Michael101</pathurl>
						<rate>
							<timebase>25</timebase>
						</rate>
						<duration>444</duration>
						<metadata>
							<storage>QuickTime</storage>
							<key>com.apple.finalcutstudio.media.uuid</key>
							<size>36</size>
							<type>UTF8</type>
							<value>67FE2BA6-6CF1-4BD0-9CA9-58F1A0DA8164</value>
						</metadata>
						<metadata>
							<storage>QuickTime</storage>
							<key>com.apple.finalcutstudio.media.history.uuid</key>
							<size>36</size>
							<type>UTF8</type>
							<value>B972C4BF-1B0F-47E1-BD80-4FA014F57F23</value>
						</metadata>
						<timecode>
							<rate>
								<timebase>25</timebase>
							</rate>
							<string>00:00:00:00</string>
							<frame>0</frame>
							<displayformat>NDF</displayformat>
							<source>source</source>
							<reel>
								<name>Michael</name>
							</reel>
						</timecode>
						<media>
							<video>
								<duration>444</duration>
								<samplecharacteristics>
									<width>1280</width>
									<height>720</height>
								</samplecharacteristics>
							</video>
							<audio>
								<samplecharacteristics>
									<samplerate>48000</samplerate>
									<depth>16</depth>
								</samplecharacteristics>
								<channelcount>2</channelcount>
								<layout>stereo</layout>
								<audiochannel>
									<sourcechannel>1</sourcechannel>
									<channellabel>left</channellabel>
								</audiochannel>
								<audiochannel>
									<sourcechannel>2</sourcechannel>
									<channellabel>right</channellabel>
								</audiochannel>
							</audio>
						</media>
					</file>
					<sourcetrack>
						<mediatype>video</mediatype>
					</sourcetrack>
					<link>
						<linkclipref>Michael101 </linkclipref>
						<mediatype>video</mediatype>
						<trackindex>4</trackindex>
						<clipindex>117</clipindex>
					</link>
					<link>
						<linkclipref>Michael101 2</linkclipref>
						<mediatype>audio</mediatype>
						<trackindex>5</trackindex>
						<clipindex>27</clipindex>
						<groupindex>1</groupindex>
					</link>
					<link>
						<linkclipref>Michael101 3</linkclipref>
						<mediatype>audio</mediatype>
						<trackindex>6</trackindex>
						<clipindex>27</clipindex>
						<groupindex>1</groupindex>
					</link>
					<fielddominance>none</fielddominance>
					<itemhistory>
						<uuid>58DC6DA5-6253-4E48-9416-A67FC1D28A4F</uuid>
						<uuid>39193B87-0864-4A8D-8424-5CFFE0BBA6CD</uuid>
					</itemhistory>
				</clipitem>
				<clipitem id="Michael102 ">
					<name>Michael102</name>
					<duration>312</duration>
					<rate>
						<ntsc>FALSE</ntsc>
						<timebase>25</timebase>
					</rate>
					<in>0</in>
					<out>312</out>
					<start>133548</start>
					<end>133860</end>
					<pixelaspectratio>Square</pixelaspectratio>
					<anamorphic>FALSE</anamorphic>
					<alphatype>none</alphatype>
					<logginginfo>
						<scene/>
						<shottake/>
						<lognote/>
						<good>FALSE</good>
					</logginginfo>
					<labels>
						<label2/>
					</labels>
					<comments>
						<mastercomment1/>
						<mastercomment2/>
						<mastercomment3/>
						<mastercomment4/>
					</comments>
					<file id="Michael102 1">
						<name>Michael102</name>
						<pathurl>file://localhost/Volumes/Michael's%20Passport/woodbdrigenov2011media/Michael102</pathurl>
						<rate>
							<timebase>25</timebase>
						</rate>
						<duration>312</duration>
						<metadata>
							<storage>QuickTime</storage>
							<key>com.apple.finalcutstudio.media.uuid</key>
							<size>36</size>
							<type>UTF8</type>
							<value>BAFC8C80-DDCA-44EF-BB2A-EF9951DA0432</value>
						</metadata>
						<metadata>
							<storage>QuickTime</storage>
							<key>com.apple.finalcutstudio.media.history.uuid</key>
							<size>36</size>
							<type>UTF8</type>
							<value>F9B9C3B4-E6E9-4E94-AAE0-F6703DEDCE76</value>
						</metadata>
						<timecode>
							<rate>
								<timebase>25</timebase>
							</rate>
							<string>00:00:00:00</string>
							<frame>0</frame>
							<displayformat>NDF</displayformat>
							<source>source</source>
							<reel>
								<name>Michael</name>
							</reel>
						</timecode>
						<media>
							<video>
								<duration>312</duration>
								<samplecharacteristics>
									<width>1280</width>
									<height>720</height>
								</samplecharacteristics>
							</video>
							<audio>
								<samplecharacteristics>
									<samplerate>48000</samplerate>
									<depth>16</depth>
								</samplecharacteristics>
								<channelcount>2</channelcount>
								<layout>stereo</layout>
								<audiochannel>
									<sourcechannel>1</sourcechannel>
									<channellabel>left</channellabel>
								</audiochannel>
								<audiochannel>
									<sourcechannel>2</sourcechannel>
									<channellabel>right</channellabel>
								</audiochannel>
							</audio>
						</media>
					</file>
					<sourcetrack>
						<mediatype>video</mediatype>
					</sourcetrack>
					<link>
						<linkclipref>Michael102 </linkclipref>
						<mediatype>video</mediatype>
						<trackindex>4</trackindex>
						<clipindex>118</clipindex>
					</link>
					<link>
						<linkclipref>Michael102 2</linkclipref>
						<mediatype>audio</mediatype>
						<trackindex>5</trackindex>
						<clipindex>28</clipindex>
						<groupindex>1</groupindex>
					</link>
					<link>
						<linkclipref>Michael102 3</linkclipref>
						<mediatype>audio</mediatype>
						<trackindex>6</trackindex>
						<clipindex>28</clipindex>
						<groupindex>1</groupindex>
					</link>
					<fielddominance>none</fielddominance>
					<itemhistory>
						<uuid>D70C9E60-084E-4403-9E26-2580A0D6A7F5</uuid>
						<uuid>C7DF4B55-6EB1-45FE-B096-428AFB8B1B15</uuid>
					</itemhistory>
				</clipitem>
				<clipitem id="Michael103 ">
					<name>Michael103</name>
					<duration>264</duration>
					<rate>
						<ntsc>FALSE</ntsc>
						<timebase>25</timebase>
					</rate>
					<in>0</in>
					<out>264</out>
					<start>133860</start>
					<end>134124</end>
					<pixelaspectratio>Square</pixelaspectratio>
					<anamorphic>FALSE</anamorphic>
					<alphatype>none</alphatype>
					<logginginfo>
						<scene/>
						<shottake/>
						<lognote/>
						<good>FALSE</good>
					</logginginfo>
					<labels>
						<label2/>
					</labels>
					<comments>
						<mastercomment1/>
						<mastercomment2/>
						<mastercomment3/>
						<mastercomment4/>
					</comments>
					<file id="Michael103 1">
						<name>Michael103</name>
						<pathurl>file://localhost/Volumes/Michael's%20Passport/woodbdrigenov2011media/Michael103</pathurl>
						<rate>
							<timebase>25</timebase>
						</rate>
						<duration>264</duration>
						<metadata>
							<storage>QuickTime</storage>
							<key>com.apple.finalcutstudio.media.uuid</key>
							<size>36</size>
							<type>UTF8</type>
							<value>6D294739-D3F6-48EB-A7F1-53CB47C6FD20</value>
						</metadata>
						<metadata>
							<storage>QuickTime</storage>
							<key>com.apple.finalcutstudio.media.history.uuid</key>
							<size>36</size>
							<type>UTF8</type>
							<value>BB4145E1-2D1D-4D6D-8582-E6735A293152</value>
						</metadata>
						<timecode>
							<rate>
								<timebase>25</timebase>
							</rate>
							<string>00:00:00:00</string>
							<frame>0</frame>
							<displayformat>NDF</displayformat>
							<source>source</source>
							<reel>
								<name>Michael</name>
							</reel>
						</timecode>
						<media>
							<video>
								<duration>264</duration>
								<samplecharacteristics>
									<width>1280</width>
									<height>720</height>
								</samplecharacteristics>
							</video>
							<audio>
								<samplecharacteristics>
									<samplerate>48000</samplerate>
									<depth>16</depth>
								</samplecharacteristics>
								<channelcount>2</channelcount>
								<layout>stereo</layout>
								<audiochannel>
									<sourcechannel>1</sourcechannel>
									<channellabel>left</channellabel>
								</audiochannel>
								<audiochannel>
									<sourcechannel>2</sourcechannel>
									<channellabel>right</channellabel>
								</audiochannel>
							</audio>
						</media>
					</file>
					<sourcetrack>
						<mediatype>video</mediatype>
					</sourcetrack>
					<link>
						<linkclipref>Michael103 </linkclipref>
						<mediatype>video</mediatype>
						<trackindex>4</trackindex>
						<clipindex>119</clipindex>
					</link>
					<link>
						<linkclipref>Michael103 2</linkclipref>
						<mediatype>audio</mediatype>
						<trackindex>5</trackindex>
						<clipindex>29</clipindex>
						<groupindex>1</groupindex>
					</link>
					<link>
						<linkclipref>Michael103 3</linkclipref>
						<mediatype>audio</mediatype>
						<trackindex>6</trackindex>
						<clipindex>29</clipindex>
						<groupindex>1</groupindex>
					</link>
					<fielddominance>none</fielddominance>
					<itemhistory>
						<uuid>DD4B5F19-75CF-4B4A-937F-CEAED8EDA546</uuid>
						<uuid>07E2EC56-4EC6-4A0C-A736-FDB09C14FB98</uuid>
					</itemhistory>
				</clipitem>
				<clipitem id="Michael104Subclipa">
					<name>Michael104Subclipa</name>
					<duration>249</duration>
					<rate>
						<ntsc>FALSE</ntsc>
						<timebase>25</timebase>
					</rate>
					<in>0</in>
					<out>249</out>
					<start>134124</start>
					<end>134373</end>
					<pixelaspectratio>Square</pixelaspectratio>
					<anamorphic>FALSE</anamorphic>
					<alphatype>none</alphatype>
					<logginginfo>
						<scene/>
						<shottake/>
						<lognote/>
						<good>FALSE</good>
					</logginginfo>
					<labels>
						<label2/>
					</labels>
					<comments>
						<mastercomment1/>
						<mastercomment2/>
						<mastercomment3/>
						<mastercomment4/>
					</comments>
					<file id="Michael104Subclipa1">
						<name>Michael104Subclipa</name>
						<pathurl>file://localhost/Volumes/Michael's%20Passport/woodbdrigenov2011media/Michael104Subclipa</pathurl>
						<rate>
							<timebase>25</timebase>
						</rate>
						<duration>249</duration>
						<metadata>
							<storage>QuickTime</storage>
							<key>com.apple.finalcutstudio.media.uuid</key>
							<size>36</size>
							<type>UTF8</type>
							<value>228826BE-3DC1-4D27-9390-DDA6BF5B6652</value>
						</metadata>
						<metadata>
							<storage>QuickTime</storage>
							<key>com.apple.finalcutstudio.media.history.uuid</key>
							<size>36</size>
							<type>UTF8</type>
							<value>12C05A50-E1BF-4340-9404-697ED3A195EB</value>
						</metadata>
						<timecode>
							<rate>
								<timebase>25</timebase>
							</rate>
							<string>00:00:00:00</string>
							<frame>0</frame>
							<displayformat>NDF</displayformat>
							<source>source</source>
							<reel>
								<name>Michael</name>
							</reel>
						</timecode>
						<media>
							<video>
								<duration>249</duration>
								<samplecharacteristics>
									<width>1280</width>
									<height>720</height>
								</samplecharacteristics>
							</video>
							<audio>
								<samplecharacteristics>
									<samplerate>48000</samplerate>
									<depth>16</depth>
								</samplecharacteristics>
								<channelcount>2</channelcount>
								<layout>stereo</layout>
								<audiochannel>
									<sourcechannel>1</sourcechannel>
									<channellabel>left</channellabel>
								</audiochannel>
								<audiochannel>
									<sourcechannel>2</sourcechannel>
									<channellabel>right</channellabel>
								</audiochannel>
							</audio>
						</media>
					</file>
					<sourcetrack>
						<mediatype>video</mediatype>
					</sourcetrack>
					<link>
						<linkclipref>Michael104Subclipa</linkclipref>
						<mediatype>video</mediatype>
						<trackindex>4</trackindex>
						<clipindex>120</clipindex>
					</link>
					<link>
						<linkclipref>Michael104Subclipa2</linkclipref>
						<mediatype>audio</mediatype>
						<trackindex>5</trackindex>
						<clipindex>30</clipindex>
						<groupindex>1</groupindex>
					</link>
					<link>
						<linkclipref>Michael104Subclipa3</linkclipref>
						<mediatype>audio</mediatype>
						<trackindex>6</trackindex>
						<clipindex>30</clipindex>
						<groupindex>1</groupindex>
					</link>
					<fielddominance>none</fielddominance>
					<itemhistory>
						<uuid>885A829C-2836-41A1-BA26-5DBEADB2632E</uuid>
						<uuid>3DEFB986-B926-4AE9-80F7-E0EFAFD1F268</uuid>
					</itemhistory>
				</clipitem>
				<clipitem id="Michael104Subclipb">
					<name>Michael104Subclipb</name>
					<duration>503</duration>
					<rate>
						<ntsc>FALSE</ntsc>
						<timebase>25</timebase>
					</rate>
					<in>0</in>
					<out>503</out>
					<start>134373</start>
					<end>134876</end>
					<pixelaspectratio>Square</pixelaspectratio>
					<anamorphic>FALSE</anamorphic>
					<alphatype>none</alphatype>
					<logginginfo>
						<scene/>
						<shottake/>
						<lognote/>
						<good>FALSE</good>
					</logginginfo>
					<labels>
						<label2/>
					</labels>
					<comments>
						<mastercomment1/>
						<mastercomment2/>
						<mastercomment3/>
						<mastercomment4/>
					</comments>
					<file id="Michael104Subclipb1">
						<name>Michael104Subclipb</name>
						<pathurl>file://localhost/Volumes/Michael's%20Passport/woodbdrigenov2011media/Michael104Subclipb</pathurl>
						<rate>
							<timebase>25</timebase>
						</rate>
						<duration>503</duration>
						<metadata>
							<storage>QuickTime</storage>
							<key>com.apple.finalcutstudio.media.uuid</key>
							<size>36</size>
							<type>UTF8</type>
							<value>244EA5B2-13D7-407F-9203-FBE461C23201</value>
						</metadata>
						<metadata>
							<storage>QuickTime</storage>
							<key>com.apple.finalcutstudio.media.history.uuid</key>
							<size>36</size>
							<type>UTF8</type>
							<value>12C05A50-E1BF-4340-9404-697ED3A195EB</value>
						</metadata>
						<timecode>
							<rate>
								<timebase>25</timebase>
							</rate>
							<string>00:00:09:23</string>
							<frame>248</frame>
							<displayformat>NDF</displayformat>
							<source>source</source>
							<reel>
								<name>Michael</name>
							</reel>
						</timecode>
						<media>
							<video>
								<duration>503</duration>
								<samplecharacteristics>
									<width>1280</width>
									<height>720</height>
								</samplecharacteristics>
							</video>
							<audio>
								<samplecharacteristics>
									<samplerate>48000</samplerate>
									<depth>16</depth>
								</samplecharacteristics>
								<channelcount>2</channelcount>
								<layout>stereo</layout>
								<audiochannel>
									<sourcechannel>1</sourcechannel>
									<channellabel>left</channellabel>
								</audiochannel>
								<audiochannel>
									<sourcechannel>2</sourcechannel>
									<channellabel>right</channellabel>
								</audiochannel>
							</audio>
						</media>
					</file>
					<sourcetrack>
						<mediatype>video</mediatype>
					</sourcetrack>
					<link>
						<linkclipref>Michael104Subclipb</linkclipref>
						<mediatype>video</mediatype>
						<trackindex>4</trackindex>
						<clipindex>121</clipindex>
					</link>
					<link>
						<linkclipref>Michael104Subclipb2</linkclipref>
						<mediatype>audio</mediatype>
						<trackindex>5</trackindex>
						<clipindex>31</clipindex>
						<groupindex>1</groupindex>
					</link>
					<link>
						<linkclipref>Michael104Subclipb3</linkclipref>
						<mediatype>audio</mediatype>
						<trackindex>6</trackindex>
						<clipindex>31</clipindex>
						<groupindex>1</groupindex>
					</link>
					<fielddominance>none</fielddominance>
					<itemhistory>
						<uuid>A580AB38-0150-4CD7-8C0F-C8519809A89F</uuid>
						<uuid>67A52E95-CBA3-4A92-B745-3BA829A795A0</uuid>
					</itemhistory>
				</clipitem>
				<clipitem id="Michael104Subclipc">
					<name>Michael104Subclipc</name>
					<duration>174</duration>
					<rate>
						<ntsc>FALSE</ntsc>
						<timebase>25</timebase>
					</rate>
					<in>0</in>
					<out>174</out>
					<start>134876</start>
					<end>135050</end>
					<pixelaspectratio>Square</pixelaspectratio>
					<anamorphic>FALSE</anamorphic>
					<alphatype>none</alphatype>
					<logginginfo>
						<scene/>
						<shottake/>
						<lognote/>
						<good>FALSE</good>
					</logginginfo>
					<labels>
						<label2/>
					</labels>
					<comments>
						<mastercomment1/>
						<mastercomment2/>
						<mastercomment3/>
						<mastercomment4/>
					</comments>
					<file id="Michael104Subclipc1">
						<name>Michael104Subclipc</name>
						<pathurl>file://localhost/Volumes/Michael's%20Passport/woodbdrigenov2011media/Michael104Subclipc</pathurl>
						<rate>
							<timebase>25</timebase>
						</rate>
						<duration>174</duration>
						<metadata>
							<storage>QuickTime</storage>
							<key>com.apple.finalcutstudio.media.uuid</key>
							<size>36</size>
							<type>UTF8</type>
							<value>F7D17A9F-EE72-438B-B980-C169C007ABCD</value>
						</metadata>
						<metadata>
							<storage>QuickTime</storage>
							<key>com.apple.finalcutstudio.media.history.uuid</key>
							<size>36</size>
							<type>UTF8</type>
							<value>12C05A50-E1BF-4340-9404-697ED3A195EB</value>
						</metadata>
						<timecode>
							<rate>
								<timebase>25</timebase>
							</rate>
							<string>00:00:30:00</string>
							<frame>750</frame>
							<displayformat>NDF</displayformat>
							<source>source</source>
							<reel>
								<name>Michael</name>
							</reel>
						</timecode>
						<media>
							<video>
								<duration>174</duration>
								<samplecharacteristics>
									<width>1280</width>
									<height>720</height>
								</samplecharacteristics>
							</video>
							<audio>
								<samplecharacteristics>
									<samplerate>48000</samplerate>
									<depth>16</depth>
								</samplecharacteristics>
								<channelcount>2</channelcount>
								<layout>stereo</layout>
								<audiochannel>
									<sourcechannel>1</sourcechannel>
									<channellabel>left</channellabel>
								</audiochannel>
								<audiochannel>
									<sourcechannel>2</sourcechannel>
									<channellabel>right</channellabel>
								</audiochannel>
							</audio>
						</media>
					</file>
					<sourcetrack>
						<mediatype>video</mediatype>
					</sourcetrack>
					<link>
						<linkclipref>Michael104Subclipc</linkclipref>
						<mediatype>video</mediatype>
						<trackindex>4</trackindex>
						<clipindex>122</clipindex>
					</link>
					<link>
						<linkclipref>Michael104Subclipc2</linkclipref>
						<mediatype>audio</mediatype>
						<trackindex>5</trackindex>
						<clipindex>32</clipindex>
						<groupindex>1</groupindex>
					</link>
					<link>
						<linkclipref>Michael104Subclipc3</linkclipref>
						<mediatype>audio</mediatype>
						<trackindex>6</trackindex>
						<clipindex>32</clipindex>
						<groupindex>1</groupindex>
					</link>
					<fielddominance>none</fielddominance>
					<itemhistory>
						<uuid>8F14AEDE-00BE-4455-943B-0029C277B841</uuid>
						<uuid>384044FF-66D8-4871-8F0D-1C69F9FB60E3</uuid>
					</itemhistory>
				</clipitem>
				<clipitem id="Michael105 ">
					<name>Michael105</name>
					<duration>216</duration>
					<rate>
						<ntsc>FALSE</ntsc>
						<timebase>25</timebase>
					</rate>
					<in>0</in>
					<out>216</out>
					<start>135050</start>
					<end>135266</end>
					<pixelaspectratio>Square</pixelaspectratio>
					<anamorphic>FALSE</anamorphic>
					<alphatype>none</alphatype>
					<logginginfo>
						<scene/>
						<shottake/>
						<lognote/>
						<good>FALSE</good>
					</logginginfo>
					<labels>
						<label2/>
					</labels>
					<comments>
						<mastercomment1/>
						<mastercomment2/>
						<mastercomment3/>
						<mastercomment4/>
					</comments>
					<file id="Michael105 1">
						<name>Michael105</name>
						<pathurl>file://localhost/Volumes/Michael's%20Passport/woodbdrigenov2011media/Michael105</pathurl>
						<rate>
							<timebase>25</timebase>
						</rate>
						<duration>216</duration>
						<metadata>
							<storage>QuickTime</storage>
							<key>com.apple.finalcutstudio.media.uuid</key>
							<size>36</size>
							<type>UTF8</type>
							<value>F8AE24E4-BA60-45EF-9246-69E1FC1DDCA3</value>
						</metadata>
						<metadata>
							<storage>QuickTime</storage>
							<key>com.apple.finalcutstudio.media.history.uuid</key>
							<size>36</size>
							<type>UTF8</type>
							<value>F2B99E71-B9DD-43F3-B251-E357DD923655</value>
						</metadata>
						<timecode>
							<rate>
								<timebase>25</timebase>
							</rate>
							<string>00:00:00:00</string>
							<frame>0</frame>
							<displayformat>NDF</displayformat>
							<source>source</source>
							<reel>
								<name>Michael</name>
							</reel>
						</timecode>
						<media>
							<video>
								<duration>216</duration>
								<samplecharacteristics>
									<width>1280</width>
									<height>720</height>
								</samplecharacteristics>
							</video>
							<audio>
								<samplecharacteristics>
									<samplerate>48000</samplerate>
									<depth>16</depth>
								</samplecharacteristics>
								<channelcount>2</channelcount>
								<layout>stereo</layout>
								<audiochannel>
									<sourcechannel>1</sourcechannel>
									<channellabel>left</channellabel>
								</audiochannel>
								<audiochannel>
									<sourcechannel>2</sourcechannel>
									<channellabel>right</channellabel>
								</audiochannel>
							</audio>
						</media>
					</file>
					<sourcetrack>
						<mediatype>video</mediatype>
					</sourcetrack>
					<link>
						<linkclipref>Michael105 </linkclipref>
						<mediatype>video</mediatype>
						<trackindex>4</trackindex>
						<clipindex>123</clipindex>
					</link>
					<link>
						<linkclipref>Michael105 2</linkclipref>
						<mediatype>audio</mediatype>
						<trackindex>5</trackindex>
						<clipindex>33</clipindex>
						<groupindex>1</groupindex>
					</link>
					<link>
						<linkclipref>Michael105 3</linkclipref>
						<mediatype>audio</mediatype>
						<trackindex>6</trackindex>
						<clipindex>33</clipindex>
						<groupindex>1</groupindex>
					</link>
					<fielddominance>none</fielddominance>
					<itemhistory>
						<uuid>C3A8DEC8-9123-4375-9763-41B3FCFA561F</uuid>
						<uuid>3E4FF105-17D0-411B-A8B5-0AD636234DDF</uuid>
					</itemhistory>
				</clipitem>
				<clipitem id="Michael106 ">
					<name>Michael106</name>
					<duration>432</duration>
					<rate>
						<ntsc>FALSE</ntsc>
						<timebase>25</timebase>
					</rate>
					<in>0</in>
					<out>432</out>
					<start>135266</start>
					<end>135698</end>
					<pixelaspectratio>Square</pixelaspectratio>
					<anamorphic>FALSE</anamorphic>
					<alphatype>none</alphatype>
					<logginginfo>
						<scene/>
						<shottake/>
						<lognote/>
						<good>FALSE</good>
					</logginginfo>
					<labels>
						<label2/>
					</labels>
					<comments>
						<mastercomment1/>
						<mastercomment2/>
						<mastercomment3/>
						<mastercomment4/>
					</comments>
					<file id="Michael106 1">
						<name>Michael106</name>
						<pathurl>file://localhost/Volumes/Michael's%20Passport/woodbdrigenov2011media/Michael106</pathurl>
						<rate>
							<timebase>25</timebase>
						</rate>
						<duration>432</duration>
						<metadata>
							<storage>QuickTime</storage>
							<key>com.apple.finalcutstudio.media.uuid</key>
							<size>36</size>
							<type>UTF8</type>
							<value>CDE64F9E-B94B-46EE-8C72-ADBEB92D78CA</value>
						</metadata>
						<metadata>
							<storage>QuickTime</storage>
							<key>com.apple.finalcutstudio.media.history.uuid</key>
							<size>36</size>
							<type>UTF8</type>
							<value>D20D43B4-F46A-48AA-BB45-46B7C0C822BD</value>
						</metadata>
						<timecode>
							<rate>
								<timebase>25</timebase>
							</rate>
							<string>00:00:00:00</string>
							<frame>0</frame>
							<displayformat>NDF</displayformat>
							<source>source</source>
							<reel>
								<name>Michael</name>
							</reel>
						</timecode>
						<media>
							<video>
								<duration>432</duration>
								<samplecharacteristics>
									<width>1280</width>
									<height>720</height>
								</samplecharacteristics>
							</video>
							<audio>
								<samplecharacteristics>
									<samplerate>48000</samplerate>
									<depth>16</depth>
								</samplecharacteristics>
								<channelcount>2</channelcount>
								<layout>stereo</layout>
								<audiochannel>
									<sourcechannel>1</sourcechannel>
									<channellabel>left</channellabel>
								</audiochannel>
								<audiochannel>
									<sourcechannel>2</sourcechannel>
									<channellabel>right</channellabel>
								</audiochannel>
							</audio>
						</media>
					</file>
					<sourcetrack>
						<mediatype>video</mediatype>
					</sourcetrack>
					<link>
						<linkclipref>Michael106 </linkclipref>
						<mediatype>video</mediatype>
						<trackindex>4</trackindex>
						<clipindex>124</clipindex>
					</link>
					<link>
						<linkclipref>Michael106 2</linkclipref>
						<mediatype>audio</mediatype>
						<trackindex>5</trackindex>
						<clipindex>34</clipindex>
						<groupindex>1</groupindex>
					</link>
					<link>
						<linkclipref>Michael106 3</linkclipref>
						<mediatype>audio</mediatype>
						<trackindex>6</trackindex>
						<clipindex>34</clipindex>
						<groupindex>1</groupindex>
					</link>
					<fielddominance>none</fielddominance>
					<itemhistory>
						<uuid>D684F87B-979D-4AF2-851A-70DC113715E6</uuid>
						<uuid>229E3933-D125-4BC5-B376-8BCB4C83C5F0</uuid>
					</itemhistory>
				</clipitem>
				<clipitem id="Michael107Subclipa">
					<name>Michael107Subclipa</name>
					<duration>1179</duration>
					<rate>
						<ntsc>FALSE</ntsc>
						<timebase>25</timebase>
					</rate>
					<in>0</in>
					<out>1179</out>
					<start>135698</start>
					<end>136877</end>
					<pixelaspectratio>Square</pixelaspectratio>
					<anamorphic>FALSE</anamorphic>
					<alphatype>none</alphatype>
					<logginginfo>
						<scene/>
						<shottake/>
						<lognote/>
						<good>FALSE</good>
					</logginginfo>
					<labels>
						<label2/>
					</labels>
					<comments>
						<mastercomment1/>
						<mastercomment2/>
						<mastercomment3/>
						<mastercomment4/>
					</comments>
					<file id="Michael107Subclipa1">
						<name>Michael107Subclipa</name>
						<pathurl>file://localhost/Volumes/Michael's%20Passport/woodbdrigenov2011media/Michael107Subclipa</pathurl>
						<rate>
							<timebase>25</timebase>
						</rate>
						<duration>1179</duration>
						<metadata>
							<storage>QuickTime</storage>
							<key>com.apple.finalcutstudio.media.uuid</key>
							<size>36</size>
							<type>UTF8</type>
							<value>1C76B8CA-E9B0-4985-A2ED-1C89BBB1FB2F</value>
						</metadata>
						<metadata>
							<storage>QuickTime</storage>
							<key>com.apple.finalcutstudio.media.history.uuid</key>
							<size>36</size>
							<type>UTF8</type>
							<value>BBC07B69-D4F7-4B74-9704-212525BE0DF3</value>
						</metadata>
						<timecode>
							<rate>
								<timebase>25</timebase>
							</rate>
							<string>00:00:00:00</string>
							<frame>0</frame>
							<displayformat>NDF</displayformat>
							<source>source</source>
							<reel>
								<name>Michael</name>
							</reel>
						</timecode>
						<media>
							<video>
								<duration>1179</duration>
								<samplecharacteristics>
									<width>1280</width>
									<height>720</height>
								</samplecharacteristics>
							</video>
							<audio>
								<samplecharacteristics>
									<samplerate>48000</samplerate>
									<depth>16</depth>
								</samplecharacteristics>
								<channelcount>2</channelcount>
								<layout>stereo</layout>
								<audiochannel>
									<sourcechannel>1</sourcechannel>
									<channellabel>left</channellabel>
								</audiochannel>
								<audiochannel>
									<sourcechannel>2</sourcechannel>
									<channellabel>right</channellabel>
								</audiochannel>
							</audio>
						</media>
					</file>
					<sourcetrack>
						<mediatype>video</mediatype>
					</sourcetrack>
					<link>
						<linkclipref>Michael107Subclipa</linkclipref>
						<mediatype>video</mediatype>
						<trackindex>4</trackindex>
						<clipindex>125</clipindex>
					</link>
					<link>
						<linkclipref>Michael107Subclipa2</linkclipref>
						<mediatype>audio</mediatype>
						<trackindex>5</trackindex>
						<clipindex>35</clipindex>
						<groupindex>1</groupindex>
					</link>
					<link>
						<linkclipref>Michael107Subclipa3</linkclipref>
						<mediatype>audio</mediatype>
						<trackindex>6</trackindex>
						<clipindex>35</clipindex>
						<groupindex>1</groupindex>
					</link>
					<fielddominance>none</fielddominance>
					<itemhistory>
						<uuid>FFEA6BFE-6D62-49B3-9040-90F33B82D69E</uuid>
						<uuid>834F31BF-8BBF-4753-A8D2-64EAC3F48084</uuid>
					</itemhistory>
				</clipitem>
				<clipitem id="Michael107Subclipb">
					<name>Michael107Subclipb</name>
					<duration>274</duration>
					<rate>
						<ntsc>FALSE</ntsc>
						<timebase>25</timebase>
					</rate>
					<in>0</in>
					<out>274</out>
					<start>136877</start>
					<end>137151</end>
					<pixelaspectratio>Square</pixelaspectratio>
					<anamorphic>FALSE</anamorphic>
					<alphatype>none</alphatype>
					<logginginfo>
						<scene/>
						<shottake/>
						<lognote/>
						<good>FALSE</good>
					</logginginfo>
					<labels>
						<label2/>
					</labels>
					<comments>
						<mastercomment1/>
						<mastercomment2/>
						<mastercomment3/>
						<mastercomment4/>
					</comments>
					<file id="Michael107Subclipb1">
						<name>Michael107Subclipb</name>
						<pathurl>file://localhost/Volumes/Michael's%20Passport/woodbdrigenov2011media/Michael107Subclipb</pathurl>
						<rate>
							<timebase>25</timebase>
						</rate>
						<duration>274</duration>
						<metadata>
							<storage>QuickTime</storage>
							<key>com.apple.finalcutstudio.media.uuid</key>
							<size>36</size>
							<type>UTF8</type>
							<value>CC0FA3E4-D0C1-45C8-BB3C-D53D1CE629E3</value>
						</metadata>
						<metadata>
							<storage>QuickTime</storage>
							<key>com.apple.finalcutstudio.media.history.uuid</key>
							<size>36</size>
							<type>UTF8</type>
							<value>BBC07B69-D4F7-4B74-9704-212525BE0DF3</value>
						</metadata>
						<timecode>
							<rate>
								<timebase>25</timebase>
							</rate>
							<string>00:00:47:03</string>
							<frame>1178</frame>
							<displayformat>NDF</displayformat>
							<source>source</source>
							<reel>
								<name>Michael</name>
							</reel>
						</timecode>
						<media>
							<video>
								<duration>274</duration>
								<samplecharacteristics>
									<width>1280</width>
									<height>720</height>
								</samplecharacteristics>
							</video>
							<audio>
								<samplecharacteristics>
									<samplerate>48000</samplerate>
									<depth>16</depth>
								</samplecharacteristics>
								<channelcount>2</channelcount>
								<layout>stereo</layout>
								<audiochannel>
									<sourcechannel>1</sourcechannel>
									<channellabel>left</channellabel>
								</audiochannel>
								<audiochannel>
									<sourcechannel>2</sourcechannel>
									<channellabel>right</channellabel>
								</audiochannel>
							</audio>
						</media>
					</file>
					<sourcetrack>
						<mediatype>video</mediatype>
					</sourcetrack>
					<link>
						<linkclipref>Michael107Subclipb</linkclipref>
						<mediatype>video</mediatype>
						<trackindex>4</trackindex>
						<clipindex>126</clipindex>
					</link>
					<link>
						<linkclipref>Michael107Subclipb2</linkclipref>
						<mediatype>audio</mediatype>
						<trackindex>5</trackindex>
						<clipindex>36</clipindex>
						<groupindex>1</groupindex>
					</link>
					<link>
						<linkclipref>Michael107Subclipb3</linkclipref>
						<mediatype>audio</mediatype>
						<trackindex>6</trackindex>
						<clipindex>36</clipindex>
						<groupindex>1</groupindex>
					</link>
					<fielddominance>none</fielddominance>
					<itemhistory>
						<uuid>B75F52FB-B838-425F-817A-34F6E52446D1</uuid>
						<uuid>9C76C2B6-3439-48B5-BB5D-333CB0E3E377</uuid>
					</itemhistory>
				</clipitem>
				<enabled>TRUE</enabled>
				<locked>FALSE</locked>
			</track>
			<track>
				<clipitem id="Rodrigo001 ">
					<name>Rodrigo001</name>
					<duration>888</duration>
					<rate>
						<ntsc>FALSE</ntsc>
						<timebase>25</timebase>
					</rate>
					<in>0</in>
					<out>888</out>
					<start>10678</start>
					<end>11566</end>
					<pixelaspectratio>Square</pixelaspectratio>
					<enabled>TRUE</enabled>
					<anamorphic>FALSE</anamorphic>
					<alphatype>none</alphatype>
					<logginginfo>
						<scene/>
						<shottake/>
						<lognote/>
						<good>FALSE</good>
					</logginginfo>
					<labels>
						<label2/>
					</labels>
					<comments>
						<mastercomment1/>
						<mastercomment2/>
						<mastercomment3/>
						<mastercomment4/>
					</comments>
					<file id="Rodrigo001 1">
						<name>Rodrigo001</name>
						<pathurl>file://localhost/Volumes/Michael's%20Passport/woodbdrigenov2011media/Rodrigo001</pathurl>
						<rate>
							<timebase>25</timebase>
						</rate>
						<duration>888</duration>
						<metadata>
							<storage>QuickTime</storage>
							<key>com.apple.finalcutstudio.media.uuid</key>
							<size>36</size>
							<type>UTF8</type>
							<value>119F8D34-DF7C-42FF-ABA0-199107BD6278</value>
						</metadata>
						<metadata>
							<storage>QuickTime</storage>
							<key>com.apple.finalcutstudio.media.history.uuid</key>
							<size>36</size>
							<type>UTF8</type>
							<value>E4E65B6D-9FD2-43BD-880D-5308935DBA06</value>
						</metadata>
						<media>
							<video>
								<duration>888</duration>
								<samplecharacteristics>
									<width>1280</width>
									<height>720</height>
								</samplecharacteristics>
							</video>
							<audio>
								<samplecharacteristics>
									<samplerate>48000</samplerate>
									<depth>16</depth>
								</samplecharacteristics>
								<channelcount>1</channelcount>
								<layout>mono</layout>
								<audiochannel>
									<sourcechannel>1</sourcechannel>
									<channellabel>discrete</channellabel>
								</audiochannel>
							</audio>
							<audio>
								<samplecharacteristics>
									<samplerate>48000</samplerate>
									<depth>16</depth>
								</samplecharacteristics>
								<channelcount>1</channelcount>
								<layout>mono</layout>
								<audiochannel>
									<sourcechannel>2</sourcechannel>
									<channellabel>discrete</channellabel>
								</audiochannel>
							</audio>
						</media>
					</file>
					<sourcetrack>
						<mediatype>video</mediatype>
					</sourcetrack>
					<link>
						<linkclipref>Rodrigo001 </linkclipref>
						<mediatype>video</mediatype>
						<trackindex>5</trackindex>
						<clipindex>1</clipindex>
					</link>
					<link>
						<linkclipref>Rodrigo001 2</linkclipref>
						<mediatype>audio</mediatype>
						<trackindex>7</trackindex>
						<clipindex>1</clipindex>
					</link>
					<link>
						<linkclipref>Rodrigo001 3</linkclipref>
						<mediatype>audio</mediatype>
						<trackindex>8</trackindex>
						<clipindex>1</clipindex>
					</link>
					<fielddominance>none</fielddominance>
					<itemhistory>
						<uuid>C8979F76-01D6-4C67-8892-AF767614BAD5</uuid>
						<uuid>479D63D0-C371-4FED-9811-5E229826D9EB</uuid>
					</itemhistory>
				</clipitem>
				<clipitem id="Rodrigo002 ">
					<name>Rodrigo002</name>
					<duration>750</duration>
					<rate>
						<ntsc>FALSE</ntsc>
						<timebase>25</timebase>
					</rate>
					<in>0</in>
					<out>750</out>
					<start>11566</start>
					<end>12316</end>
					<pixelaspectratio>Square</pixelaspectratio>
					<enabled>TRUE</enabled>
					<anamorphic>FALSE</anamorphic>
					<alphatype>none</alphatype>
					<logginginfo>
						<scene/>
						<shottake/>
						<lognote/>
						<good>FALSE</good>
					</logginginfo>
					<labels>
						<label2/>
					</labels>
					<comments>
						<mastercomment1/>
						<mastercomment2/>
						<mastercomment3/>
						<mastercomment4/>
					</comments>
					<file id="Rodrigo002 1">
						<name>Rodrigo002</name>
						<pathurl>file://localhost/Volumes/Michael's%20Passport/woodbdrigenov2011media/Rodrigo002</pathurl>
						<rate>
							<timebase>25</timebase>
						</rate>
						<duration>750</duration>
						<metadata>
							<storage>QuickTime</storage>
							<key>com.apple.finalcutstudio.media.uuid</key>
							<size>36</size>
							<type>UTF8</type>
							<value>A7E2DC32-333D-4BC6-934B-8AB856EE1863</value>
						</metadata>
						<metadata>
							<storage>QuickTime</storage>
							<key>com.apple.finalcutstudio.media.history.uuid</key>
							<size>36</size>
							<type>UTF8</type>
							<value>71A4195B-5968-4E58-8ECE-BC221F07B0BB</value>
						</metadata>
						<media>
							<video>
								<duration>750</duration>
								<samplecharacteristics>
									<width>1280</width>
									<height>720</height>
								</samplecharacteristics>
							</video>
							<audio>
								<samplecharacteristics>
									<samplerate>48000</samplerate>
									<depth>16</depth>
								</samplecharacteristics>
								<channelcount>1</channelcount>
								<layout>mono</layout>
								<audiochannel>
									<sourcechannel>1</sourcechannel>
									<channellabel>discrete</channellabel>
								</audiochannel>
							</audio>
							<audio>
								<samplecharacteristics>
									<samplerate>48000</samplerate>
									<depth>16</depth>
								</samplecharacteristics>
								<channelcount>1</channelcount>
								<layout>mono</layout>
								<audiochannel>
									<sourcechannel>2</sourcechannel>
									<channellabel>discrete</channellabel>
								</audiochannel>
							</audio>
						</media>
					</file>
					<sourcetrack>
						<mediatype>video</mediatype>
					</sourcetrack>
					<link>
						<linkclipref>Rodrigo002 </linkclipref>
						<mediatype>video</mediatype>
						<trackindex>5</trackindex>
						<clipindex>2</clipindex>
					</link>
					<link>
						<linkclipref>Rodrigo002 2</linkclipref>
						<mediatype>audio</mediatype>
						<trackindex>7</trackindex>
						<clipindex>2</clipindex>
					</link>
					<link>
						<linkclipref>Rodrigo002 3</linkclipref>
						<mediatype>audio</mediatype>
						<trackindex>8</trackindex>
						<clipindex>2</clipindex>
					</link>
					<fielddominance>none</fielddominance>
					<itemhistory>
						<uuid>95AB4668-89FF-4DD4-9AAD-79E7BB064B3F</uuid>
						<uuid>D4537EDA-3DCC-4BFD-BF6B-2C6D02F2A7AD</uuid>
					</itemhistory>
				</clipitem>
				<clipitem id="Rodrigo003 ">
					<name>Rodrigo003</name>
					<duration>375</duration>
					<rate>
						<ntsc>FALSE</ntsc>
						<timebase>25</timebase>
					</rate>
					<in>0</in>
					<out>375</out>
					<start>12316</start>
					<end>12691</end>
					<pixelaspectratio>Square</pixelaspectratio>
					<enabled>TRUE</enabled>
					<anamorphic>FALSE</anamorphic>
					<alphatype>none</alphatype>
					<logginginfo>
						<scene/>
						<shottake/>
						<lognote/>
						<good>FALSE</good>
					</logginginfo>
					<labels>
						<label2/>
					</labels>
					<comments>
						<mastercomment1/>
						<mastercomment2/>
						<mastercomment3/>
						<mastercomment4/>
					</comments>
					<file id="Rodrigo003 1">
						<name>Rodrigo003</name>
						<pathurl>file://localhost/Volumes/Michael's%20Passport/woodbdrigenov2011media/Rodrigo003</pathurl>
						<rate>
							<timebase>25</timebase>
						</rate>
						<duration>375</duration>
						<metadata>
							<storage>QuickTime</storage>
							<key>com.apple.finalcutstudio.media.uuid</key>
							<size>36</size>
							<type>UTF8</type>
							<value>B015D099-E256-4686-97FD-504B12E66AE1</value>
						</metadata>
						<metadata>
							<storage>QuickTime</storage>
							<key>com.apple.finalcutstudio.media.history.uuid</key>
							<size>36</size>
							<type>UTF8</type>
							<value>D0E4D880-287B-420C-8644-49C06A708855</value>
						</metadata>
						<media>
							<video>
								<duration>375</duration>
								<samplecharacteristics>
									<width>1280</width>
									<height>720</height>
								</samplecharacteristics>
							</video>
							<audio>
								<samplecharacteristics>
									<samplerate>48000</samplerate>
									<depth>16</depth>
								</samplecharacteristics>
								<channelcount>1</channelcount>
								<layout>mono</layout>
								<audiochannel>
									<sourcechannel>1</sourcechannel>
									<channellabel>discrete</channellabel>
								</audiochannel>
							</audio>
							<audio>
								<samplecharacteristics>
									<samplerate>48000</samplerate>
									<depth>16</depth>
								</samplecharacteristics>
								<channelcount>1</channelcount>
								<layout>mono</layout>
								<audiochannel>
									<sourcechannel>2</sourcechannel>
									<channellabel>discrete</channellabel>
								</audiochannel>
							</audio>
						</media>
					</file>
					<sourcetrack>
						<mediatype>video</mediatype>
					</sourcetrack>
					<link>
						<linkclipref>Rodrigo003 </linkclipref>
						<mediatype>video</mediatype>
						<trackindex>5</trackindex>
						<clipindex>3</clipindex>
					</link>
					<link>
						<linkclipref>Rodrigo003 2</linkclipref>
						<mediatype>audio</mediatype>
						<trackindex>7</trackindex>
						<clipindex>3</clipindex>
					</link>
					<link>
						<linkclipref>Rodrigo003 3</linkclipref>
						<mediatype>audio</mediatype>
						<trackindex>8</trackindex>
						<clipindex>3</clipindex>
					</link>
					<fielddominance>none</fielddominance>
					<itemhistory>
						<uuid>8850DF11-7EAD-415D-83D1-5453BC171621</uuid>
						<uuid>8AEA3CD2-C567-46FA-8492-993E77BEE1ED</uuid>
					</itemhistory>
				</clipitem>
				<clipitem id="Rodrigo004 ">
					<name>Rodrigo004</name>
					<duration>375</duration>
					<rate>
						<ntsc>FALSE</ntsc>
						<timebase>25</timebase>
					</rate>
					<in>0</in>
					<out>374</out>
					<start>15240</start>
					<end>15614</end>
					<pixelaspectratio>Square</pixelaspectratio>
					<enabled>TRUE</enabled>
					<anamorphic>FALSE</anamorphic>
					<alphatype>none</alphatype>
					<logginginfo>
						<scene/>
						<shottake/>
						<lognote/>
						<good>FALSE</good>
					</logginginfo>
					<labels>
						<label2/>
					</labels>
					<comments>
						<mastercomment1/>
						<mastercomment2/>
						<mastercomment3/>
						<mastercomment4/>
					</comments>
					<file id="Rodrigo004 1">
						<name>Rodrigo004</name>
						<pathurl>file://localhost/Volumes/Michael's%20Passport/woodbdrigenov2011media/Rodrigo004</pathurl>
						<rate>
							<timebase>25</timebase>
						</rate>
						<duration>375</duration>
						<metadata>
							<storage>QuickTime</storage>
							<key>com.apple.finalcutstudio.media.uuid</key>
							<size>36</size>
							<type>UTF8</type>
							<value>35E5B86D-05B3-429C-83F8-C06330704F9E</value>
						</metadata>
						<metadata>
							<storage>QuickTime</storage>
							<key>com.apple.finalcutstudio.media.history.uuid</key>
							<size>36</size>
							<type>UTF8</type>
							<value>D86623E2-2AF6-4DFD-A815-E724CC7B8626</value>
						</metadata>
						<media>
							<video>
								<duration>375</duration>
								<samplecharacteristics>
									<width>1280</width>
									<height>720</height>
								</samplecharacteristics>
							</video>
							<audio>
								<samplecharacteristics>
									<samplerate>48000</samplerate>
									<depth>16</depth>
								</samplecharacteristics>
								<channelcount>1</channelcount>
								<layout>mono</layout>
								<audiochannel>
									<sourcechannel>1</sourcechannel>
									<channellabel>discrete</channellabel>
								</audiochannel>
							</audio>
							<audio>
								<samplecharacteristics>
									<samplerate>48000</samplerate>
									<depth>16</depth>
								</samplecharacteristics>
								<channelcount>1</channelcount>
								<layout>mono</layout>
								<audiochannel>
									<sourcechannel>2</sourcechannel>
									<channellabel>discrete</channellabel>
								</audiochannel>
							</audio>
						</media>
					</file>
					<sourcetrack>
						<mediatype>video</mediatype>
					</sourcetrack>
					<fielddominance>none</fielddominance>
					<itemhistory>
						<uuid>4DC38DC8-01CD-46C6-A407-4999D6C8FB12</uuid>
						<uuid>F952B12E-AFEC-47E0-8812-6F0DE4AC87FF</uuid>
					</itemhistory>
				</clipitem>
				<clipitem id="Rodrigo005 ">
					<name>Rodrigo005</name>
					<duration>1038</duration>
					<rate>
						<ntsc>FALSE</ntsc>
						<timebase>25</timebase>
					</rate>
					<in>0</in>
					<out>1037</out>
					<start>29956</start>
					<end>30993</end>
					<pixelaspectratio>Square</pixelaspectratio>
					<anamorphic>FALSE</anamorphic>
					<alphatype>none</alphatype>
					<logginginfo>
						<scene/>
						<shottake/>
						<lognote/>
						<good>FALSE</good>
					</logginginfo>
					<labels>
						<label2/>
					</labels>
					<comments>
						<mastercomment1/>
						<mastercomment2/>
						<mastercomment3/>
						<mastercomment4/>
					</comments>
					<file id="Rodrigo005 1">
						<name>Rodrigo005</name>
						<pathurl>file://localhost/Volumes/Michael's%20Passport/woodbdrigenov2011media/Rodrigo005</pathurl>
						<rate>
							<timebase>25</timebase>
						</rate>
						<duration>1038</duration>
						<metadata>
							<storage>QuickTime</storage>
							<key>com.apple.finalcutstudio.media.uuid</key>
							<size>36</size>
							<type>UTF8</type>
							<value>B6B4231F-220D-41B6-9CEE-93041C60ADEA</value>
						</metadata>
						<metadata>
							<storage>QuickTime</storage>
							<key>com.apple.finalcutstudio.media.history.uuid</key>
							<size>36</size>
							<type>UTF8</type>
							<value>9C9CAF96-E762-4818-9B78-494E72449DF0</value>
						</metadata>
						<media>
							<video>
								<duration>1038</duration>
								<samplecharacteristics>
									<width>1280</width>
									<height>720</height>
								</samplecharacteristics>
							</video>
							<audio>
								<samplecharacteristics>
									<samplerate>48000</samplerate>
									<depth>16</depth>
								</samplecharacteristics>
								<channelcount>1</channelcount>
								<layout>mono</layout>
								<audiochannel>
									<sourcechannel>1</sourcechannel>
									<channellabel>discrete</channellabel>
								</audiochannel>
							</audio>
							<audio>
								<samplecharacteristics>
									<samplerate>48000</samplerate>
									<depth>16</depth>
								</samplecharacteristics>
								<channelcount>1</channelcount>
								<layout>mono</layout>
								<audiochannel>
									<sourcechannel>2</sourcechannel>
									<channellabel>discrete</channellabel>
								</audiochannel>
							</audio>
						</media>
					</file>
					<sourcetrack>
						<mediatype>video</mediatype>
					</sourcetrack>
					<fielddominance>none</fielddominance>
					<itemhistory>
						<uuid>375E3A25-2E27-4E7B-8A8A-1AAED1FABE0B</uuid>
						<uuid>0EC5C8FF-2B9C-43D3-8AAF-AAC5A8CC940C</uuid>
					</itemhistory>
				</clipitem>
				<clipitem id="Rodrigo006 ">
					<name>Rodrigo006</name>
					<duration>1413</duration>
					<rate>
						<ntsc>FALSE</ntsc>
						<timebase>25</timebase>
					</rate>
					<in>0</in>
					<out>1413</out>
					<start>31868</start>
					<end>33281</end>
					<pixelaspectratio>Square</pixelaspectratio>
					<anamorphic>FALSE</anamorphic>
					<alphatype>none</alphatype>
					<logginginfo>
						<scene/>
						<shottake/>
						<lognote/>
						<good>FALSE</good>
					</logginginfo>
					<labels>
						<label2/>
					</labels>
					<comments>
						<mastercomment1/>
						<mastercomment2/>
						<mastercomment3/>
						<mastercomment4/>
					</comments>
					<file id="Rodrigo006 1">
						<name>Rodrigo006</name>
						<pathurl>file://localhost/Volumes/Michael's%20Passport/woodbdrigenov2011media/Rodrigo006</pathurl>
						<rate>
							<timebase>25</timebase>
						</rate>
						<duration>1413</duration>
						<metadata>
							<storage>QuickTime</storage>
							<key>com.apple.finalcutstudio.media.uuid</key>
							<size>36</size>
							<type>UTF8</type>
							<value>8AA24C3C-9A68-4D63-AAA5-16AED755D4C3</value>
						</metadata>
						<metadata>
							<storage>QuickTime</storage>
							<key>com.apple.finalcutstudio.media.history.uuid</key>
							<size>36</size>
							<type>UTF8</type>
							<value>7CDF49DD-C490-48ED-A3D8-28B682101BB7</value>
						</metadata>
						<media>
							<video>
								<duration>1413</duration>
								<samplecharacteristics>
									<width>1280</width>
									<height>720</height>
								</samplecharacteristics>
							</video>
							<audio>
								<samplecharacteristics>
									<samplerate>48000</samplerate>
									<depth>16</depth>
								</samplecharacteristics>
								<channelcount>1</channelcount>
								<layout>mono</layout>
								<audiochannel>
									<sourcechannel>1</sourcechannel>
									<channellabel>discrete</channellabel>
								</audiochannel>
							</audio>
							<audio>
								<samplecharacteristics>
									<samplerate>48000</samplerate>
									<depth>16</depth>
								</samplecharacteristics>
								<channelcount>1</channelcount>
								<layout>mono</layout>
								<audiochannel>
									<sourcechannel>2</sourcechannel>
									<channellabel>discrete</channellabel>
								</audiochannel>
							</audio>
						</media>
					</file>
					<sourcetrack>
						<mediatype>video</mediatype>
					</sourcetrack>
					<fielddominance>none</fielddominance>
					<itemhistory>
						<uuid>31953252-8AB3-4A9B-9F4B-003F03988035</uuid>
						<uuid>30FA6145-5DB1-4EAA-85EE-D2EAD11D3915</uuid>
					</itemhistory>
				</clipitem>
				<clipitem id="Rodrigo007 ">
					<name>Rodrigo007</name>
					<duration>163</duration>
					<rate>
						<ntsc>FALSE</ntsc>
						<timebase>25</timebase>
					</rate>
					<in>0</in>
					<out>162</out>
					<start>34744</start>
					<end>34906</end>
					<pixelaspectratio>Square</pixelaspectratio>
					<anamorphic>FALSE</anamorphic>
					<alphatype>none</alphatype>
					<logginginfo>
						<scene/>
						<shottake/>
						<lognote/>
						<good>FALSE</good>
					</logginginfo>
					<labels>
						<label2/>
					</labels>
					<comments>
						<mastercomment1/>
						<mastercomment2/>
						<mastercomment3/>
						<mastercomment4/>
					</comments>
					<file id="Rodrigo007 1">
						<name>Rodrigo007</name>
						<pathurl>file://localhost/Volumes/Michael's%20Passport/woodbdrigenov2011media/Rodrigo007</pathurl>
						<rate>
							<timebase>25</timebase>
						</rate>
						<duration>163</duration>
						<metadata>
							<storage>QuickTime</storage>
							<key>com.apple.finalcutstudio.media.uuid</key>
							<size>36</size>
							<type>UTF8</type>
							<value>FB007A26-0409-4558-9ECD-0F7689A9B189</value>
						</metadata>
						<metadata>
							<storage>QuickTime</storage>
							<key>com.apple.finalcutstudio.media.history.uuid</key>
							<size>36</size>
							<type>UTF8</type>
							<value>54CCD84D-8309-45FE-9EEE-5D28498BA590</value>
						</metadata>
						<media>
							<video>
								<duration>163</duration>
								<samplecharacteristics>
									<width>1280</width>
									<height>720</height>
								</samplecharacteristics>
							</video>
							<audio>
								<samplecharacteristics>
									<samplerate>48000</samplerate>
									<depth>16</depth>
								</samplecharacteristics>
								<channelcount>1</channelcount>
								<layout>mono</layout>
								<audiochannel>
									<sourcechannel>1</sourcechannel>
									<channellabel>discrete</channellabel>
								</audiochannel>
							</audio>
							<audio>
								<samplecharacteristics>
									<samplerate>48000</samplerate>
									<depth>16</depth>
								</samplecharacteristics>
								<channelcount>1</channelcount>
								<layout>mono</layout>
								<audiochannel>
									<sourcechannel>2</sourcechannel>
									<channellabel>discrete</channellabel>
								</audiochannel>
							</audio>
						</media>
					</file>
					<sourcetrack>
						<mediatype>video</mediatype>
					</sourcetrack>
					<fielddominance>none</fielddominance>
					<itemhistory>
						<uuid>FA4C9C7F-59F7-4CDE-80E7-17E5D8BB9B0C</uuid>
						<uuid>44B7D367-F670-45F8-999B-A2E09FC60B83</uuid>
					</itemhistory>
				</clipitem>
				<clipitem id="Rodrigo008Subclipa">
					<name>Rodrigo008Subclipa</name>
					<duration>577</duration>
					<rate>
						<ntsc>FALSE</ntsc>
						<timebase>25</timebase>
					</rate>
					<in>0</in>
					<out>576</out>
					<start>35600</start>
					<end>36176</end>
					<pixelaspectratio>Square</pixelaspectratio>
					<anamorphic>FALSE</anamorphic>
					<alphatype>none</alphatype>
					<logginginfo>
						<scene/>
						<shottake/>
						<lognote/>
						<good>FALSE</good>
					</logginginfo>
					<labels>
						<label2/>
					</labels>
					<comments>
						<mastercomment1/>
						<mastercomment2/>
						<mastercomment3/>
						<mastercomment4/>
					</comments>
					<file id="Rodrigo008Subclipa1">
						<name>Rodrigo008Subclipa</name>
						<pathurl>file://localhost/Volumes/Michael's%20Passport/woodbdrigenov2011media/Rodrigo008Subclipa</pathurl>
						<rate>
							<timebase>25</timebase>
						</rate>
						<duration>577</duration>
						<metadata>
							<storage>QuickTime</storage>
							<key>com.apple.finalcutstudio.media.uuid</key>
							<size>36</size>
							<type>UTF8</type>
							<value>4B94D4D2-263B-43BB-9CD9-F92E3D21B22F</value>
						</metadata>
						<metadata>
							<storage>QuickTime</storage>
							<key>com.apple.finalcutstudio.media.history.uuid</key>
							<size>36</size>
							<type>UTF8</type>
							<value>0EB04DBD-09B5-44F2-886D-F1F7371483A3</value>
						</metadata>
						<media>
							<video>
								<duration>577</duration>
								<samplecharacteristics>
									<width>1280</width>
									<height>720</height>
								</samplecharacteristics>
							</video>
							<audio>
								<samplecharacteristics>
									<samplerate>48000</samplerate>
									<depth>16</depth>
								</samplecharacteristics>
								<channelcount>1</channelcount>
								<layout>mono</layout>
								<audiochannel>
									<sourcechannel>1</sourcechannel>
									<channellabel>discrete</channellabel>
								</audiochannel>
							</audio>
							<audio>
								<samplecharacteristics>
									<samplerate>48000</samplerate>
									<depth>16</depth>
								</samplecharacteristics>
								<channelcount>1</channelcount>
								<layout>mono</layout>
								<audiochannel>
									<sourcechannel>2</sourcechannel>
									<channellabel>discrete</channellabel>
								</audiochannel>
							</audio>
						</media>
					</file>
					<sourcetrack>
						<mediatype>video</mediatype>
					</sourcetrack>
					<fielddominance>none</fielddominance>
					<itemhistory>
						<uuid>7C3AA961-C010-4BFB-ABB0-52AE044E893A</uuid>
						<uuid>328F9BFB-A85B-45C6-9523-25B65637E265</uuid>
					</itemhistory>
				</clipitem>
				<clipitem id="Rodrigo008Subclipb">
					<name>Rodrigo008Subclipb</name>
					<duration>524</duration>
					<rate>
						<ntsc>FALSE</ntsc>
						<timebase>25</timebase>
					</rate>
					<in>0</in>
					<out>523</out>
					<start>36176</start>
					<end>36699</end>
					<pixelaspectratio>Square</pixelaspectratio>
					<anamorphic>FALSE</anamorphic>
					<alphatype>none</alphatype>
					<logginginfo>
						<scene/>
						<shottake/>
						<lognote/>
						<good>FALSE</good>
					</logginginfo>
					<labels>
						<label2/>
					</labels>
					<comments>
						<mastercomment1/>
						<mastercomment2/>
						<mastercomment3/>
						<mastercomment4/>
					</comments>
					<file id="Rodrigo008Subclipb1">
						<name>Rodrigo008Subclipb</name>
						<pathurl>file://localhost/Volumes/Michael's%20Passport/woodbdrigenov2011media/Rodrigo008Subclipb</pathurl>
						<rate>
							<timebase>25</timebase>
						</rate>
						<duration>524</duration>
						<metadata>
							<storage>QuickTime</storage>
							<key>com.apple.finalcutstudio.media.uuid</key>
							<size>36</size>
							<type>UTF8</type>
							<value>F4C66D22-8B98-4705-8DA6-055F4E47069A</value>
						</metadata>
						<metadata>
							<storage>QuickTime</storage>
							<key>com.apple.finalcutstudio.media.history.uuid</key>
							<size>36</size>
							<type>UTF8</type>
							<value>0EB04DBD-09B5-44F2-886D-F1F7371483A3</value>
						</metadata>
						<media>
							<video>
								<duration>524</duration>
								<samplecharacteristics>
									<width>1280</width>
									<height>720</height>
								</samplecharacteristics>
							</video>
							<audio>
								<samplecharacteristics>
									<samplerate>48000</samplerate>
									<depth>16</depth>
								</samplecharacteristics>
								<channelcount>1</channelcount>
								<layout>mono</layout>
								<audiochannel>
									<sourcechannel>1</sourcechannel>
									<channellabel>discrete</channellabel>
								</audiochannel>
							</audio>
							<audio>
								<samplecharacteristics>
									<samplerate>48000</samplerate>
									<depth>16</depth>
								</samplecharacteristics>
								<channelcount>1</channelcount>
								<layout>mono</layout>
								<audiochannel>
									<sourcechannel>2</sourcechannel>
									<channellabel>discrete</channellabel>
								</audiochannel>
							</audio>
						</media>
					</file>
					<sourcetrack>
						<mediatype>video</mediatype>
					</sourcetrack>
					<fielddominance>none</fielddominance>
					<itemhistory>
						<uuid>072E506E-0EDF-423F-9F4F-347E1DBEF685</uuid>
						<uuid>7C211DF7-46FC-47EE-85D1-B9A151EFB08C</uuid>
					</itemhistory>
				</clipitem>
				<clipitem id="Rodrigo009 ">
					<name>Rodrigo009</name>
					<duration>900</duration>
					<rate>
						<ntsc>FALSE</ntsc>
						<timebase>25</timebase>
					</rate>
					<in>0</in>
					<out>900</out>
					<start>38569</start>
					<end>39469</end>
					<pixelaspectratio>Square</pixelaspectratio>
					<anamorphic>FALSE</anamorphic>
					<alphatype>none</alphatype>
					<logginginfo>
						<scene/>
						<shottake/>
						<lognote/>
						<good>FALSE</good>
					</logginginfo>
					<labels>
						<label2/>
					</labels>
					<comments>
						<mastercomment1/>
						<mastercomment2/>
						<mastercomment3/>
						<mastercomment4/>
					</comments>
					<file id="Rodrigo009 1">
						<name>Rodrigo009</name>
						<pathurl>file://localhost/Volumes/Michael's%20Passport/woodbdrigenov2011media/Rodrigo009</pathurl>
						<rate>
							<timebase>25</timebase>
						</rate>
						<duration>900</duration>
						<metadata>
							<storage>QuickTime</storage>
							<key>com.apple.finalcutstudio.media.uuid</key>
							<size>36</size>
							<type>UTF8</type>
							<value>2F592DD7-F226-4979-A846-789C9FD4F5BC</value>
						</metadata>
						<metadata>
							<storage>QuickTime</storage>
							<key>com.apple.finalcutstudio.media.history.uuid</key>
							<size>36</size>
							<type>UTF8</type>
							<value>F48F4018-0E25-4D5E-A52C-23CCEA3AEF27</value>
						</metadata>
						<media>
							<video>
								<duration>900</duration>
								<samplecharacteristics>
									<width>1280</width>
									<height>720</height>
								</samplecharacteristics>
							</video>
							<audio>
								<samplecharacteristics>
									<samplerate>48000</samplerate>
									<depth>16</depth>
								</samplecharacteristics>
								<channelcount>1</channelcount>
								<layout>mono</layout>
								<audiochannel>
									<sourcechannel>1</sourcechannel>
									<channellabel>discrete</channellabel>
								</audiochannel>
							</audio>
							<audio>
								<samplecharacteristics>
									<samplerate>48000</samplerate>
									<depth>16</depth>
								</samplecharacteristics>
								<channelcount>1</channelcount>
								<layout>mono</layout>
								<audiochannel>
									<sourcechannel>2</sourcechannel>
									<channellabel>discrete</channellabel>
								</audiochannel>
							</audio>
						</media>
					</file>
					<sourcetrack>
						<mediatype>video</mediatype>
					</sourcetrack>
					<fielddominance>none</fielddominance>
					<itemhistory>
						<uuid>9114317A-7E31-4E52-9CAC-45086BF9D042</uuid>
						<uuid>64788DF7-9C29-494A-B94C-D20871A30498</uuid>
					</itemhistory>
				</clipitem>
				<clipitem id="Rodrigo010 ">
					<name>Rodrigo010</name>
					<duration>838</duration>
					<rate>
						<ntsc>FALSE</ntsc>
						<timebase>25</timebase>
					</rate>
					<in>0</in>
					<out>837</out>
					<start>42346</start>
					<end>43183</end>
					<pixelaspectratio>Square</pixelaspectratio>
					<anamorphic>FALSE</anamorphic>
					<alphatype>none</alphatype>
					<logginginfo>
						<scene/>
						<shottake/>
						<lognote/>
						<good>FALSE</good>
					</logginginfo>
					<labels>
						<label2/>
					</labels>
					<comments>
						<mastercomment1/>
						<mastercomment2/>
						<mastercomment3/>
						<mastercomment4/>
					</comments>
					<file id="Rodrigo010 1">
						<name>Rodrigo010</name>
						<pathurl>file://localhost/Volumes/Michael's%20Passport/woodbdrigenov2011media/Rodrigo010</pathurl>
						<rate>
							<timebase>25</timebase>
						</rate>
						<duration>838</duration>
						<metadata>
							<storage>QuickTime</storage>
							<key>com.apple.finalcutstudio.media.uuid</key>
							<size>36</size>
							<type>UTF8</type>
							<value>7194EBFF-56F2-44B4-A79E-846EBF42DCA8</value>
						</metadata>
						<metadata>
							<storage>QuickTime</storage>
							<key>com.apple.finalcutstudio.media.history.uuid</key>
							<size>36</size>
							<type>UTF8</type>
							<value>399783B6-2B94-4A54-A8CA-96A85EBD5104</value>
						</metadata>
						<media>
							<video>
								<duration>838</duration>
								<samplecharacteristics>
									<width>1280</width>
									<height>720</height>
								</samplecharacteristics>
							</video>
							<audio>
								<samplecharacteristics>
									<samplerate>48000</samplerate>
									<depth>16</depth>
								</samplecharacteristics>
								<channelcount>1</channelcount>
								<layout>mono</layout>
								<audiochannel>
									<sourcechannel>1</sourcechannel>
									<channellabel>discrete</channellabel>
								</audiochannel>
							</audio>
							<audio>
								<samplecharacteristics>
									<samplerate>48000</samplerate>
									<depth>16</depth>
								</samplecharacteristics>
								<channelcount>1</channelcount>
								<layout>mono</layout>
								<audiochannel>
									<sourcechannel>2</sourcechannel>
									<channellabel>discrete</channellabel>
								</audiochannel>
							</audio>
						</media>
					</file>
					<sourcetrack>
						<mediatype>video</mediatype>
					</sourcetrack>
					<fielddominance>none</fielddominance>
					<itemhistory>
						<uuid>7966C4DE-75DF-4DFF-ACE4-0B35E8E617B3</uuid>
						<uuid>CE95EA25-BBAD-452B-97DF-F92D4909B03A</uuid>
					</itemhistory>
				</clipitem>
				<clipitem id="Rodrigo011 ">
					<name>Rodrigo011</name>
					<duration>700</duration>
					<rate>
						<ntsc>FALSE</ntsc>
						<timebase>25</timebase>
					</rate>
					<in>0</in>
					<out>699</out>
					<start>44514</start>
					<end>45213</end>
					<pixelaspectratio>Square</pixelaspectratio>
					<anamorphic>FALSE</anamorphic>
					<alphatype>none</alphatype>
					<logginginfo>
						<scene/>
						<shottake/>
						<lognote/>
						<good>FALSE</good>
					</logginginfo>
					<labels>
						<label2/>
					</labels>
					<comments>
						<mastercomment1/>
						<mastercomment2/>
						<mastercomment3/>
						<mastercomment4/>
					</comments>
					<file id="Rodrigo011 1">
						<name>Rodrigo011</name>
						<pathurl>file://localhost/Volumes/Michael's%20Passport/woodbdrigenov2011media/Rodrigo011</pathurl>
						<rate>
							<timebase>25</timebase>
						</rate>
						<duration>700</duration>
						<metadata>
							<storage>QuickTime</storage>
							<key>com.apple.finalcutstudio.media.uuid</key>
							<size>36</size>
							<type>UTF8</type>
							<value>4B9039D9-832E-4EAE-A169-22BD6997973B</value>
						</metadata>
						<metadata>
							<storage>QuickTime</storage>
							<key>com.apple.finalcutstudio.media.history.uuid</key>
							<size>36</size>
							<type>UTF8</type>
							<value>BACB37B1-BC6F-4807-86A7-76C6F23FDF94</value>
						</metadata>
						<media>
							<video>
								<duration>700</duration>
								<samplecharacteristics>
									<width>1280</width>
									<height>720</height>
								</samplecharacteristics>
							</video>
							<audio>
								<samplecharacteristics>
									<samplerate>48000</samplerate>
									<depth>16</depth>
								</samplecharacteristics>
								<channelcount>1</channelcount>
								<layout>mono</layout>
								<audiochannel>
									<sourcechannel>1</sourcechannel>
									<channellabel>discrete</channellabel>
								</audiochannel>
							</audio>
							<audio>
								<samplecharacteristics>
									<samplerate>48000</samplerate>
									<depth>16</depth>
								</samplecharacteristics>
								<channelcount>1</channelcount>
								<layout>mono</layout>
								<audiochannel>
									<sourcechannel>2</sourcechannel>
									<channellabel>discrete</channellabel>
								</audiochannel>
							</audio>
						</media>
					</file>
					<sourcetrack>
						<mediatype>video</mediatype>
					</sourcetrack>
					<fielddominance>none</fielddominance>
					<itemhistory>
						<uuid>3272881D-5566-46C7-8D2A-4A06C6B3414D</uuid>
						<uuid>61B65F43-9047-466A-8C97-C5ADAEB54718</uuid>
					</itemhistory>
				</clipitem>
				<clipitem id="Rodrigo012 ">
					<name>Rodrigo012</name>
					<duration>863</duration>
					<rate>
						<ntsc>FALSE</ntsc>
						<timebase>25</timebase>
					</rate>
					<in>0</in>
					<out>862</out>
					<start>48739</start>
					<end>49601</end>
					<pixelaspectratio>Square</pixelaspectratio>
					<anamorphic>FALSE</anamorphic>
					<alphatype>none</alphatype>
					<logginginfo>
						<scene/>
						<shottake/>
						<lognote/>
						<good>FALSE</good>
					</logginginfo>
					<labels>
						<label2/>
					</labels>
					<comments>
						<mastercomment1/>
						<mastercomment2/>
						<mastercomment3/>
						<mastercomment4/>
					</comments>
					<file id="Rodrigo012 1">
						<name>Rodrigo012</name>
						<pathurl>file://localhost/Volumes/Michael's%20Passport/woodbdrigenov2011media/Rodrigo012</pathurl>
						<rate>
							<timebase>25</timebase>
						</rate>
						<duration>863</duration>
						<metadata>
							<storage>QuickTime</storage>
							<key>com.apple.finalcutstudio.media.uuid</key>
							<size>36</size>
							<type>UTF8</type>
							<value>06E7624A-A06A-41A4-AE35-099E98FFC5C3</value>
						</metadata>
						<metadata>
							<storage>QuickTime</storage>
							<key>com.apple.finalcutstudio.media.history.uuid</key>
							<size>36</size>
							<type>UTF8</type>
							<value>97C718EC-B491-4121-BC53-0BCE66227F3E</value>
						</metadata>
						<media>
							<video>
								<duration>863</duration>
								<samplecharacteristics>
									<width>1280</width>
									<height>720</height>
								</samplecharacteristics>
							</video>
							<audio>
								<samplecharacteristics>
									<samplerate>48000</samplerate>
									<depth>16</depth>
								</samplecharacteristics>
								<channelcount>1</channelcount>
								<layout>mono</layout>
								<audiochannel>
									<sourcechannel>1</sourcechannel>
									<channellabel>discrete</channellabel>
								</audiochannel>
							</audio>
							<audio>
								<samplecharacteristics>
									<samplerate>48000</samplerate>
									<depth>16</depth>
								</samplecharacteristics>
								<channelcount>1</channelcount>
								<layout>mono</layout>
								<audiochannel>
									<sourcechannel>2</sourcechannel>
									<channellabel>discrete</channellabel>
								</audiochannel>
							</audio>
						</media>
					</file>
					<sourcetrack>
						<mediatype>video</mediatype>
					</sourcetrack>
					<fielddominance>none</fielddominance>
					<itemhistory>
						<uuid>FEEF6ED3-EBD0-4D5A-9BB8-CCC4C11C4DD3</uuid>
						<uuid>5ACC0FA8-B201-42A3-AF2F-BFC0ABCE459B</uuid>
					</itemhistory>
				</clipitem>
				<clipitem id="Rodrigo013 ">
					<name>Rodrigo013</name>
					<duration>450</duration>
					<rate>
						<ntsc>FALSE</ntsc>
						<timebase>25</timebase>
					</rate>
					<in>0</in>
					<out>450</out>
					<start>51822</start>
					<end>52272</end>
					<pixelaspectratio>Square</pixelaspectratio>
					<anamorphic>FALSE</anamorphic>
					<alphatype>none</alphatype>
					<logginginfo>
						<scene/>
						<shottake/>
						<lognote/>
						<good>FALSE</good>
					</logginginfo>
					<labels>
						<label2/>
					</labels>
					<comments>
						<mastercomment1/>
						<mastercomment2/>
						<mastercomment3/>
						<mastercomment4/>
					</comments>
					<file id="Rodrigo013 1">
						<name>Rodrigo013</name>
						<pathurl>file://localhost/Volumes/Michael's%20Passport/woodbdrigenov2011media/Rodrigo013</pathurl>
						<rate>
							<timebase>25</timebase>
						</rate>
						<duration>450</duration>
						<metadata>
							<storage>QuickTime</storage>
							<key>com.apple.finalcutstudio.media.uuid</key>
							<size>36</size>
							<type>UTF8</type>
							<value>F816F286-1F7C-4A40-B6AF-8BAAB05115A7</value>
						</metadata>
						<metadata>
							<storage>QuickTime</storage>
							<key>com.apple.finalcutstudio.media.history.uuid</key>
							<size>36</size>
							<type>UTF8</type>
							<value>0B99DA0D-1B20-4C85-B83A-2CE002ED9AAD</value>
						</metadata>
						<media>
							<video>
								<duration>450</duration>
								<samplecharacteristics>
									<width>1280</width>
									<height>720</height>
								</samplecharacteristics>
							</video>
							<audio>
								<samplecharacteristics>
									<samplerate>48000</samplerate>
									<depth>16</depth>
								</samplecharacteristics>
								<channelcount>1</channelcount>
								<layout>mono</layout>
								<audiochannel>
									<sourcechannel>1</sourcechannel>
									<channellabel>discrete</channellabel>
								</audiochannel>
							</audio>
							<audio>
								<samplecharacteristics>
									<samplerate>48000</samplerate>
									<depth>16</depth>
								</samplecharacteristics>
								<channelcount>1</channelcount>
								<layout>mono</layout>
								<audiochannel>
									<sourcechannel>2</sourcechannel>
									<channellabel>discrete</channellabel>
								</audiochannel>
							</audio>
						</media>
					</file>
					<sourcetrack>
						<mediatype>video</mediatype>
					</sourcetrack>
					<fielddominance>none</fielddominance>
					<itemhistory>
						<uuid>E1C101BD-8DED-46EB-8C66-F30612F6B0CF</uuid>
						<uuid>E59E906B-7DC0-46D7-BE31-997C7574C384</uuid>
					</itemhistory>
				</clipitem>
				<clipitem id="Rodrigo014 ">
					<name>Rodrigo014</name>
					<duration>2238</duration>
					<rate>
						<ntsc>FALSE</ntsc>
						<timebase>25</timebase>
					</rate>
					<in>0</in>
					<out>2238</out>
					<start>54827</start>
					<end>57065</end>
					<pixelaspectratio>Square</pixelaspectratio>
					<anamorphic>FALSE</anamorphic>
					<alphatype>none</alphatype>
					<logginginfo>
						<scene/>
						<shottake/>
						<lognote/>
						<good>FALSE</good>
					</logginginfo>
					<labels>
						<label2/>
					</labels>
					<comments>
						<mastercomment1/>
						<mastercomment2/>
						<mastercomment3/>
						<mastercomment4/>
					</comments>
					<file id="Rodrigo014 1">
						<name>Rodrigo014</name>
						<pathurl>file://localhost/Volumes/Michael's%20Passport/woodbdrigenov2011media/Rodrigo014</pathurl>
						<rate>
							<timebase>25</timebase>
						</rate>
						<duration>2238</duration>
						<metadata>
							<storage>QuickTime</storage>
							<key>com.apple.finalcutstudio.media.uuid</key>
							<size>36</size>
							<type>UTF8</type>
							<value>985A716F-FD23-4EE5-9546-C182A2D18DD5</value>
						</metadata>
						<metadata>
							<storage>QuickTime</storage>
							<key>com.apple.finalcutstudio.media.history.uuid</key>
							<size>36</size>
							<type>UTF8</type>
							<value>137090EB-A43A-4CE1-A1AA-ECA6A4C07D3D</value>
						</metadata>
						<media>
							<video>
								<duration>2238</duration>
								<samplecharacteristics>
									<width>1280</width>
									<height>720</height>
								</samplecharacteristics>
							</video>
							<audio>
								<samplecharacteristics>
									<samplerate>48000</samplerate>
									<depth>16</depth>
								</samplecharacteristics>
								<channelcount>1</channelcount>
								<layout>mono</layout>
								<audiochannel>
									<sourcechannel>1</sourcechannel>
									<channellabel>discrete</channellabel>
								</audiochannel>
							</audio>
							<audio>
								<samplecharacteristics>
									<samplerate>48000</samplerate>
									<depth>16</depth>
								</samplecharacteristics>
								<channelcount>1</channelcount>
								<layout>mono</layout>
								<audiochannel>
									<sourcechannel>2</sourcechannel>
									<channellabel>discrete</channellabel>
								</audiochannel>
							</audio>
						</media>
					</file>
					<sourcetrack>
						<mediatype>video</mediatype>
					</sourcetrack>
					<fielddominance>none</fielddominance>
					<itemhistory>
						<uuid>5B92D795-2E45-400D-AF3F-685BA400BCA1</uuid>
						<uuid>E602B662-89E4-4465-A6AF-424D1D5AFCBF</uuid>
					</itemhistory>
				</clipitem>
				<clipitem id="Rodrigo015 ">
					<name>Rodrigo015</name>
					<duration>938</duration>
					<rate>
						<ntsc>FALSE</ntsc>
						<timebase>25</timebase>
					</rate>
					<in>0</in>
					<out>937</out>
					<start>57861</start>
					<end>58798</end>
					<pixelaspectratio>Square</pixelaspectratio>
					<anamorphic>FALSE</anamorphic>
					<alphatype>none</alphatype>
					<logginginfo>
						<scene/>
						<shottake/>
						<lognote/>
						<good>FALSE</good>
					</logginginfo>
					<labels>
						<label2/>
					</labels>
					<comments>
						<mastercomment1/>
						<mastercomment2/>
						<mastercomment3/>
						<mastercomment4/>
					</comments>
					<file id="Rodrigo015 1">
						<name>Rodrigo015</name>
						<pathurl>file://localhost/Volumes/Michael's%20Passport/woodbdrigenov2011media/Rodrigo015</pathurl>
						<rate>
							<timebase>25</timebase>
						</rate>
						<duration>938</duration>
						<metadata>
							<storage>QuickTime</storage>
							<key>com.apple.finalcutstudio.media.uuid</key>
							<size>36</size>
							<type>UTF8</type>
							<value>050EE3F2-ED5D-4056-9916-72053D862426</value>
						</metadata>
						<metadata>
							<storage>QuickTime</storage>
							<key>com.apple.finalcutstudio.media.history.uuid</key>
							<size>36</size>
							<type>UTF8</type>
							<value>838FFCEB-BAFD-4C9D-98E8-C12F0BD12FDC</value>
						</metadata>
						<media>
							<video>
								<duration>938</duration>
								<samplecharacteristics>
									<width>1280</width>
									<height>720</height>
								</samplecharacteristics>
							</video>
							<audio>
								<samplecharacteristics>
									<samplerate>48000</samplerate>
									<depth>16</depth>
								</samplecharacteristics>
								<channelcount>1</channelcount>
								<layout>mono</layout>
								<audiochannel>
									<sourcechannel>1</sourcechannel>
									<channellabel>discrete</channellabel>
								</audiochannel>
							</audio>
							<audio>
								<samplecharacteristics>
									<samplerate>48000</samplerate>
									<depth>16</depth>
								</samplecharacteristics>
								<channelcount>1</channelcount>
								<layout>mono</layout>
								<audiochannel>
									<sourcechannel>2</sourcechannel>
									<channellabel>discrete</channellabel>
								</audiochannel>
							</audio>
						</media>
					</file>
					<sourcetrack>
						<mediatype>video</mediatype>
					</sourcetrack>
					<fielddominance>none</fielddominance>
					<itemhistory>
						<uuid>25DDA7DA-0C10-4FBC-A58D-179B58FF4A3B</uuid>
						<uuid>25CBCE70-7DFC-4E04-92F8-733A09032AFB</uuid>
					</itemhistory>
				</clipitem>
				<clipitem id="Rodrigo016 ">
					<name>Rodrigo016</name>
					<duration>563</duration>
					<rate>
						<ntsc>FALSE</ntsc>
						<timebase>25</timebase>
					</rate>
					<in>0</in>
					<out>562</out>
					<start>60769</start>
					<end>61331</end>
					<pixelaspectratio>Square</pixelaspectratio>
					<anamorphic>FALSE</anamorphic>
					<alphatype>none</alphatype>
					<logginginfo>
						<scene/>
						<shottake/>
						<lognote/>
						<good>FALSE</good>
					</logginginfo>
					<labels>
						<label2/>
					</labels>
					<comments>
						<mastercomment1/>
						<mastercomment2/>
						<mastercomment3/>
						<mastercomment4/>
					</comments>
					<file id="Rodrigo016 1">
						<name>Rodrigo016</name>
						<pathurl>file://localhost/Volumes/Michael's%20Passport/woodbdrigenov2011media/Rodrigo016</pathurl>
						<rate>
							<timebase>25</timebase>
						</rate>
						<duration>563</duration>
						<metadata>
							<storage>QuickTime</storage>
							<key>com.apple.finalcutstudio.media.uuid</key>
							<size>36</size>
							<type>UTF8</type>
							<value>5B5C3BC5-DDC0-4A45-B11E-7E71E1903647</value>
						</metadata>
						<metadata>
							<storage>QuickTime</storage>
							<key>com.apple.finalcutstudio.media.history.uuid</key>
							<size>36</size>
							<type>UTF8</type>
							<value>407BF8BF-097D-4413-AF35-624AE31AD1DB</value>
						</metadata>
						<media>
							<video>
								<duration>563</duration>
								<samplecharacteristics>
									<width>1280</width>
									<height>720</height>
								</samplecharacteristics>
							</video>
							<audio>
								<samplecharacteristics>
									<samplerate>48000</samplerate>
									<depth>16</depth>
								</samplecharacteristics>
								<channelcount>1</channelcount>
								<layout>mono</layout>
								<audiochannel>
									<sourcechannel>1</sourcechannel>
									<channellabel>discrete</channellabel>
								</audiochannel>
							</audio>
							<audio>
								<samplecharacteristics>
									<samplerate>48000</samplerate>
									<depth>16</depth>
								</samplecharacteristics>
								<channelcount>1</channelcount>
								<layout>mono</layout>
								<audiochannel>
									<sourcechannel>2</sourcechannel>
									<channellabel>discrete</channellabel>
								</audiochannel>
							</audio>
						</media>
					</file>
					<sourcetrack>
						<mediatype>video</mediatype>
					</sourcetrack>
					<fielddominance>none</fielddominance>
					<itemhistory>
						<uuid>5935322C-5956-4E41-86F8-38043E2AD4A3</uuid>
						<uuid>A0192B53-B51B-44DC-A371-C2B8F4ED5289</uuid>
					</itemhistory>
				</clipitem>
				<clipitem id="Rodrigo017 ">
					<name>Rodrigo017</name>
					<duration>750</duration>
					<rate>
						<ntsc>FALSE</ntsc>
						<timebase>25</timebase>
					</rate>
					<in>0</in>
					<out>749</out>
					<start>63263</start>
					<end>64012</end>
					<pixelaspectratio>Square</pixelaspectratio>
					<anamorphic>FALSE</anamorphic>
					<alphatype>none</alphatype>
					<logginginfo>
						<scene/>
						<shottake/>
						<lognote/>
						<good>FALSE</good>
					</logginginfo>
					<labels>
						<label2/>
					</labels>
					<comments>
						<mastercomment1/>
						<mastercomment2/>
						<mastercomment3/>
						<mastercomment4/>
					</comments>
					<file id="Rodrigo017 1">
						<name>Rodrigo017</name>
						<pathurl>file://localhost/Volumes/Michael's%20Passport/woodbdrigenov2011media/Rodrigo017</pathurl>
						<rate>
							<timebase>25</timebase>
						</rate>
						<duration>750</duration>
						<metadata>
							<storage>QuickTime</storage>
							<key>com.apple.finalcutstudio.media.uuid</key>
							<size>36</size>
							<type>UTF8</type>
							<value>5EB11490-3FE2-4414-AAA1-D156C212BCEB</value>
						</metadata>
						<metadata>
							<storage>QuickTime</storage>
							<key>com.apple.finalcutstudio.media.history.uuid</key>
							<size>36</size>
							<type>UTF8</type>
							<value>18438844-37B3-4C2B-A273-A0D48857AC23</value>
						</metadata>
						<media>
							<video>
								<duration>750</duration>
								<samplecharacteristics>
									<width>1280</width>
									<height>720</height>
								</samplecharacteristics>
							</video>
							<audio>
								<samplecharacteristics>
									<samplerate>48000</samplerate>
									<depth>16</depth>
								</samplecharacteristics>
								<channelcount>1</channelcount>
								<layout>mono</layout>
								<audiochannel>
									<sourcechannel>1</sourcechannel>
									<channellabel>discrete</channellabel>
								</audiochannel>
							</audio>
							<audio>
								<samplecharacteristics>
									<samplerate>48000</samplerate>
									<depth>16</depth>
								</samplecharacteristics>
								<channelcount>1</channelcount>
								<layout>mono</layout>
								<audiochannel>
									<sourcechannel>2</sourcechannel>
									<channellabel>discrete</channellabel>
								</audiochannel>
							</audio>
						</media>
					</file>
					<sourcetrack>
						<mediatype>video</mediatype>
					</sourcetrack>
					<fielddominance>none</fielddominance>
					<itemhistory>
						<uuid>1357F9E5-3B95-4A7B-93A2-7071F0052FB4</uuid>
						<uuid>9D5C5670-6D17-454A-9213-BEC3DB64EBF3</uuid>
					</itemhistory>
				</clipitem>
				<clipitem id="Rodrigo018 ">
					<name>Rodrigo018</name>
					<duration>738</duration>
					<rate>
						<ntsc>FALSE</ntsc>
						<timebase>25</timebase>
					</rate>
					<in>0</in>
					<out>737</out>
					<start>64242</start>
					<end>64979</end>
					<pixelaspectratio>Square</pixelaspectratio>
					<anamorphic>FALSE</anamorphic>
					<alphatype>none</alphatype>
					<logginginfo>
						<scene/>
						<shottake/>
						<lognote/>
						<good>FALSE</good>
					</logginginfo>
					<labels>
						<label2/>
					</labels>
					<comments>
						<mastercomment1/>
						<mastercomment2/>
						<mastercomment3/>
						<mastercomment4/>
					</comments>
					<file id="Rodrigo018 1">
						<name>Rodrigo018</name>
						<pathurl>file://localhost/Volumes/Michael's%20Passport/woodbdrigenov2011media/Rodrigo018</pathurl>
						<rate>
							<timebase>25</timebase>
						</rate>
						<duration>738</duration>
						<metadata>
							<storage>QuickTime</storage>
							<key>com.apple.finalcutstudio.media.uuid</key>
							<size>36</size>
							<type>UTF8</type>
							<value>2A585CDA-EAC2-499E-AB1B-79DA9C94230E</value>
						</metadata>
						<metadata>
							<storage>QuickTime</storage>
							<key>com.apple.finalcutstudio.media.history.uuid</key>
							<size>36</size>
							<type>UTF8</type>
							<value>B7A360ED-36AE-4D8D-B8F6-E4137CC37B55</value>
						</metadata>
						<media>
							<video>
								<duration>738</duration>
								<samplecharacteristics>
									<width>1280</width>
									<height>720</height>
								</samplecharacteristics>
							</video>
							<audio>
								<samplecharacteristics>
									<samplerate>48000</samplerate>
									<depth>16</depth>
								</samplecharacteristics>
								<channelcount>1</channelcount>
								<layout>mono</layout>
								<audiochannel>
									<sourcechannel>1</sourcechannel>
									<channellabel>discrete</channellabel>
								</audiochannel>
							</audio>
							<audio>
								<samplecharacteristics>
									<samplerate>48000</samplerate>
									<depth>16</depth>
								</samplecharacteristics>
								<channelcount>1</channelcount>
								<layout>mono</layout>
								<audiochannel>
									<sourcechannel>2</sourcechannel>
									<channellabel>discrete</channellabel>
								</audiochannel>
							</audio>
						</media>
					</file>
					<sourcetrack>
						<mediatype>video</mediatype>
					</sourcetrack>
					<fielddominance>none</fielddominance>
					<itemhistory>
						<uuid>C24E0EAB-D1B6-49E7-B500-53CACA311A70</uuid>
						<uuid>FF2EBE63-3959-4FF7-BB50-CDDFC46BE3B9</uuid>
					</itemhistory>
				</clipitem>
				<clipitem id="Rodrigo019 ">
					<name>Rodrigo019</name>
					<duration>500</duration>
					<rate>
						<ntsc>FALSE</ntsc>
						<timebase>25</timebase>
					</rate>
					<in>0</in>
					<out>499</out>
					<start>68253</start>
					<end>68752</end>
					<pixelaspectratio>Square</pixelaspectratio>
					<anamorphic>FALSE</anamorphic>
					<alphatype>none</alphatype>
					<logginginfo>
						<scene/>
						<shottake/>
						<lognote/>
						<good>FALSE</good>
					</logginginfo>
					<labels>
						<label2/>
					</labels>
					<comments>
						<mastercomment1/>
						<mastercomment2/>
						<mastercomment3/>
						<mastercomment4/>
					</comments>
					<file id="Rodrigo019 1">
						<name>Rodrigo019</name>
						<pathurl>file://localhost/Volumes/Michael's%20Passport/woodbdrigenov2011media/Rodrigo019</pathurl>
						<rate>
							<timebase>25</timebase>
						</rate>
						<duration>500</duration>
						<metadata>
							<storage>QuickTime</storage>
							<key>com.apple.finalcutstudio.media.uuid</key>
							<size>36</size>
							<type>UTF8</type>
							<value>CB0252B4-7F89-41A9-BCF5-854F968465AF</value>
						</metadata>
						<metadata>
							<storage>QuickTime</storage>
							<key>com.apple.finalcutstudio.media.history.uuid</key>
							<size>36</size>
							<type>UTF8</type>
							<value>975AB762-2B06-4207-9B56-28EA3021389E</value>
						</metadata>
						<media>
							<video>
								<duration>500</duration>
								<samplecharacteristics>
									<width>1280</width>
									<height>720</height>
								</samplecharacteristics>
							</video>
							<audio>
								<samplecharacteristics>
									<samplerate>48000</samplerate>
									<depth>16</depth>
								</samplecharacteristics>
								<channelcount>1</channelcount>
								<layout>mono</layout>
								<audiochannel>
									<sourcechannel>1</sourcechannel>
									<channellabel>discrete</channellabel>
								</audiochannel>
							</audio>
							<audio>
								<samplecharacteristics>
									<samplerate>48000</samplerate>
									<depth>16</depth>
								</samplecharacteristics>
								<channelcount>1</channelcount>
								<layout>mono</layout>
								<audiochannel>
									<sourcechannel>2</sourcechannel>
									<channellabel>discrete</channellabel>
								</audiochannel>
							</audio>
						</media>
					</file>
					<sourcetrack>
						<mediatype>video</mediatype>
					</sourcetrack>
					<fielddominance>none</fielddominance>
					<itemhistory>
						<uuid>F784D81F-31F6-4D6F-8C90-FDBCEE3EFBA5</uuid>
						<uuid>4882176B-84EE-4479-9996-A46D9E8F1039</uuid>
					</itemhistory>
				</clipitem>
				<clipitem id="Rodrigo020 ">
					<name>Rodrigo020</name>
					<duration>625</duration>
					<rate>
						<ntsc>FALSE</ntsc>
						<timebase>25</timebase>
					</rate>
					<in>0</in>
					<out>624</out>
					<start>70685</start>
					<end>71309</end>
					<pixelaspectratio>Square</pixelaspectratio>
					<anamorphic>FALSE</anamorphic>
					<alphatype>none</alphatype>
					<logginginfo>
						<scene/>
						<shottake/>
						<lognote/>
						<good>FALSE</good>
					</logginginfo>
					<labels>
						<label2/>
					</labels>
					<comments>
						<mastercomment1/>
						<mastercomment2/>
						<mastercomment3/>
						<mastercomment4/>
					</comments>
					<file id="Rodrigo020 1">
						<name>Rodrigo020</name>
						<pathurl>file://localhost/Volumes/Michael's%20Passport/woodbdrigenov2011media/Rodrigo020</pathurl>
						<rate>
							<timebase>25</timebase>
						</rate>
						<duration>625</duration>
						<metadata>
							<storage>QuickTime</storage>
							<key>com.apple.finalcutstudio.media.uuid</key>
							<size>36</size>
							<type>UTF8</type>
							<value>380CAA12-0916-4DE7-B0F6-B5A67360F3F0</value>
						</metadata>
						<metadata>
							<storage>QuickTime</storage>
							<key>com.apple.finalcutstudio.media.history.uuid</key>
							<size>36</size>
							<type>UTF8</type>
							<value>CE8E1E24-567B-4864-B557-B6C2BB094FF9</value>
						</metadata>
						<media>
							<video>
								<duration>625</duration>
								<samplecharacteristics>
									<width>1280</width>
									<height>720</height>
								</samplecharacteristics>
							</video>
							<audio>
								<samplecharacteristics>
									<samplerate>48000</samplerate>
									<depth>16</depth>
								</samplecharacteristics>
								<channelcount>1</channelcount>
								<layout>mono</layout>
								<audiochannel>
									<sourcechannel>1</sourcechannel>
									<channellabel>discrete</channellabel>
								</audiochannel>
							</audio>
							<audio>
								<samplecharacteristics>
									<samplerate>48000</samplerate>
									<depth>16</depth>
								</samplecharacteristics>
								<channelcount>1</channelcount>
								<layout>mono</layout>
								<audiochannel>
									<sourcechannel>2</sourcechannel>
									<channellabel>discrete</channellabel>
								</audiochannel>
							</audio>
						</media>
					</file>
					<sourcetrack>
						<mediatype>video</mediatype>
					</sourcetrack>
					<fielddominance>none</fielddominance>
					<itemhistory>
						<uuid>69EC3F44-4168-4E5F-84AB-B3CE23740B4C</uuid>
						<uuid>42243582-EE2C-40CD-B0C2-359C04F85CF9</uuid>
					</itemhistory>
				</clipitem>
				<clipitem id="Rodrigo021 ">
					<name>Rodrigo021</name>
					<duration>988</duration>
					<rate>
						<ntsc>FALSE</ntsc>
						<timebase>25</timebase>
					</rate>
					<in>0</in>
					<out>987</out>
					<start>73068</start>
					<end>74055</end>
					<pixelaspectratio>Square</pixelaspectratio>
					<anamorphic>FALSE</anamorphic>
					<alphatype>none</alphatype>
					<logginginfo>
						<scene/>
						<shottake/>
						<lognote/>
						<good>FALSE</good>
					</logginginfo>
					<labels>
						<label2/>
					</labels>
					<comments>
						<mastercomment1/>
						<mastercomment2/>
						<mastercomment3/>
						<mastercomment4/>
					</comments>
					<file id="Rodrigo021 1">
						<name>Rodrigo021</name>
						<pathurl>file://localhost/Volumes/Michael's%20Passport/woodbdrigenov2011media/Rodrigo021</pathurl>
						<rate>
							<timebase>25</timebase>
						</rate>
						<duration>988</duration>
						<metadata>
							<storage>QuickTime</storage>
							<key>com.apple.finalcutstudio.media.uuid</key>
							<size>36</size>
							<type>UTF8</type>
							<value>8C32FA46-8BEF-4BFC-912D-A1C77351072F</value>
						</metadata>
						<metadata>
							<storage>QuickTime</storage>
							<key>com.apple.finalcutstudio.media.history.uuid</key>
							<size>36</size>
							<type>UTF8</type>
							<value>A3D91848-0ED0-4638-8A03-4E00608191D3</value>
						</metadata>
						<media>
							<video>
								<duration>988</duration>
								<samplecharacteristics>
									<width>1280</width>
									<height>720</height>
								</samplecharacteristics>
							</video>
							<audio>
								<samplecharacteristics>
									<samplerate>48000</samplerate>
									<depth>16</depth>
								</samplecharacteristics>
								<channelcount>1</channelcount>
								<layout>mono</layout>
								<audiochannel>
									<sourcechannel>1</sourcechannel>
									<channellabel>discrete</channellabel>
								</audiochannel>
							</audio>
							<audio>
								<samplecharacteristics>
									<samplerate>48000</samplerate>
									<depth>16</depth>
								</samplecharacteristics>
								<channelcount>1</channelcount>
								<layout>mono</layout>
								<audiochannel>
									<sourcechannel>2</sourcechannel>
									<channellabel>discrete</channellabel>
								</audiochannel>
							</audio>
						</media>
					</file>
					<sourcetrack>
						<mediatype>video</mediatype>
					</sourcetrack>
					<fielddominance>none</fielddominance>
					<itemhistory>
						<uuid>68F5EC9A-8727-4E79-8C5C-0DD715B6FB9D</uuid>
						<uuid>3EC8A7AC-DC7A-4476-9B18-2FF55D568E3D</uuid>
					</itemhistory>
				</clipitem>
				<clipitem id="Rodrigo023 ">
					<name>Rodrigo023</name>
					<duration>100</duration>
					<rate>
						<ntsc>FALSE</ntsc>
						<timebase>25</timebase>
					</rate>
					<in>0</in>
					<out>99</out>
					<start>74908</start>
					<end>75007</end>
					<pixelaspectratio>Square</pixelaspectratio>
					<anamorphic>FALSE</anamorphic>
					<alphatype>none</alphatype>
					<logginginfo>
						<scene/>
						<shottake/>
						<lognote/>
						<good>FALSE</good>
					</logginginfo>
					<labels>
						<label2/>
					</labels>
					<comments>
						<mastercomment1/>
						<mastercomment2/>
						<mastercomment3/>
						<mastercomment4/>
					</comments>
					<file id="Rodrigo023 1">
						<name>Rodrigo023</name>
						<pathurl>file://localhost/Volumes/Michael's%20Passport/woodbdrigenov2011media/Rodrigo023</pathurl>
						<rate>
							<timebase>25</timebase>
						</rate>
						<duration>100</duration>
						<metadata>
							<storage>QuickTime</storage>
							<key>com.apple.finalcutstudio.media.uuid</key>
							<size>36</size>
							<type>UTF8</type>
							<value>95D453F5-DEAD-4BF6-A7F5-81075FC4B874</value>
						</metadata>
						<metadata>
							<storage>QuickTime</storage>
							<key>com.apple.finalcutstudio.media.history.uuid</key>
							<size>36</size>
							<type>UTF8</type>
							<value>3F4DC242-C3C4-44F1-9CCF-0429ED6E2D38</value>
						</metadata>
						<media>
							<video>
								<duration>100</duration>
								<samplecharacteristics>
									<width>1280</width>
									<height>720</height>
								</samplecharacteristics>
							</video>
							<audio>
								<samplecharacteristics>
									<samplerate>48000</samplerate>
									<depth>16</depth>
								</samplecharacteristics>
								<channelcount>1</channelcount>
								<layout>mono</layout>
								<audiochannel>
									<sourcechannel>1</sourcechannel>
									<channellabel>discrete</channellabel>
								</audiochannel>
							</audio>
							<audio>
								<samplecharacteristics>
									<samplerate>48000</samplerate>
									<depth>16</depth>
								</samplecharacteristics>
								<channelcount>1</channelcount>
								<layout>mono</layout>
								<audiochannel>
									<sourcechannel>2</sourcechannel>
									<channellabel>discrete</channellabel>
								</audiochannel>
							</audio>
						</media>
					</file>
					<sourcetrack>
						<mediatype>video</mediatype>
					</sourcetrack>
					<fielddominance>none</fielddominance>
					<itemhistory>
						<uuid>A95D34EE-1529-439F-90F6-6DF8495BD593</uuid>
						<uuid>00849181-EDF2-4199-99B7-66B976C4C0C7</uuid>
					</itemhistory>
				</clipitem>
				<clipitem id="Rodrigo024 ">
					<name>Rodrigo024</name>
					<duration>1238</duration>
					<rate>
						<ntsc>FALSE</ntsc>
						<timebase>25</timebase>
					</rate>
					<in>0</in>
					<out>1237</out>
					<start>76991</start>
					<end>78228</end>
					<pixelaspectratio>Square</pixelaspectratio>
					<anamorphic>FALSE</anamorphic>
					<alphatype>none</alphatype>
					<logginginfo>
						<scene/>
						<shottake/>
						<lognote/>
						<good>FALSE</good>
					</logginginfo>
					<labels>
						<label2/>
					</labels>
					<comments>
						<mastercomment1/>
						<mastercomment2/>
						<mastercomment3/>
						<mastercomment4/>
					</comments>
					<file id="Rodrigo024 1">
						<name>Rodrigo024</name>
						<pathurl>file://localhost/Volumes/Michael's%20Passport/woodbdrigenov2011media/Rodrigo024</pathurl>
						<rate>
							<timebase>25</timebase>
						</rate>
						<duration>1238</duration>
						<metadata>
							<storage>QuickTime</storage>
							<key>com.apple.finalcutstudio.media.uuid</key>
							<size>36</size>
							<type>UTF8</type>
							<value>C7D399CA-9016-4ABF-AD73-804F590FE380</value>
						</metadata>
						<metadata>
							<storage>QuickTime</storage>
							<key>com.apple.finalcutstudio.media.history.uuid</key>
							<size>36</size>
							<type>UTF8</type>
							<value>E8B33EDE-E330-4535-A078-31B470040F72</value>
						</metadata>
						<media>
							<video>
								<duration>1238</duration>
								<samplecharacteristics>
									<width>1280</width>
									<height>720</height>
								</samplecharacteristics>
							</video>
							<audio>
								<samplecharacteristics>
									<samplerate>48000</samplerate>
									<depth>16</depth>
								</samplecharacteristics>
								<channelcount>1</channelcount>
								<layout>mono</layout>
								<audiochannel>
									<sourcechannel>1</sourcechannel>
									<channellabel>discrete</channellabel>
								</audiochannel>
							</audio>
							<audio>
								<samplecharacteristics>
									<samplerate>48000</samplerate>
									<depth>16</depth>
								</samplecharacteristics>
								<channelcount>1</channelcount>
								<layout>mono</layout>
								<audiochannel>
									<sourcechannel>2</sourcechannel>
									<channellabel>discrete</channellabel>
								</audiochannel>
							</audio>
						</media>
					</file>
					<sourcetrack>
						<mediatype>video</mediatype>
					</sourcetrack>
					<fielddominance>none</fielddominance>
					<itemhistory>
						<uuid>E15F2569-0989-4639-9FAC-A4321E15EDA6</uuid>
						<uuid>80F063B0-E8DC-484E-B6A9-4AFDD44F1822</uuid>
					</itemhistory>
				</clipitem>
				<clipitem id="Rodrigo025 ">
					<name>Rodrigo025</name>
					<duration>600</duration>
					<rate>
						<ntsc>FALSE</ntsc>
						<timebase>25</timebase>
					</rate>
					<in>0</in>
					<out>600</out>
					<start>78506</start>
					<end>79106</end>
					<pixelaspectratio>Square</pixelaspectratio>
					<anamorphic>FALSE</anamorphic>
					<alphatype>none</alphatype>
					<logginginfo>
						<scene/>
						<shottake/>
						<lognote/>
						<good>FALSE</good>
					</logginginfo>
					<labels>
						<label2/>
					</labels>
					<comments>
						<mastercomment1/>
						<mastercomment2/>
						<mastercomment3/>
						<mastercomment4/>
					</comments>
					<file id="Rodrigo025 1">
						<name>Rodrigo025</name>
						<pathurl>file://localhost/Volumes/Michael's%20Passport/woodbdrigenov2011media/Rodrigo025</pathurl>
						<rate>
							<timebase>25</timebase>
						</rate>
						<duration>600</duration>
						<metadata>
							<storage>QuickTime</storage>
							<key>com.apple.finalcutstudio.media.uuid</key>
							<size>36</size>
							<type>UTF8</type>
							<value>D6802F15-DAB6-4847-B877-FA9744B40F10</value>
						</metadata>
						<metadata>
							<storage>QuickTime</storage>
							<key>com.apple.finalcutstudio.media.history.uuid</key>
							<size>36</size>
							<type>UTF8</type>
							<value>2A83F886-160C-4721-A395-569973E7642E</value>
						</metadata>
						<media>
							<video>
								<duration>600</duration>
								<samplecharacteristics>
									<width>1280</width>
									<height>720</height>
								</samplecharacteristics>
							</video>
							<audio>
								<samplecharacteristics>
									<samplerate>48000</samplerate>
									<depth>16</depth>
								</samplecharacteristics>
								<channelcount>1</channelcount>
								<layout>mono</layout>
								<audiochannel>
									<sourcechannel>1</sourcechannel>
									<channellabel>discrete</channellabel>
								</audiochannel>
							</audio>
							<audio>
								<samplecharacteristics>
									<samplerate>48000</samplerate>
									<depth>16</depth>
								</samplecharacteristics>
								<channelcount>1</channelcount>
								<layout>mono</layout>
								<audiochannel>
									<sourcechannel>2</sourcechannel>
									<channellabel>discrete</channellabel>
								</audiochannel>
							</audio>
						</media>
					</file>
					<sourcetrack>
						<mediatype>video</mediatype>
					</sourcetrack>
					<fielddominance>none</fielddominance>
					<itemhistory>
						<uuid>0D052FB7-9184-40CE-9ECE-E4C6CF46C485</uuid>
						<uuid>3AF9A963-28FD-4FA0-B80E-29EE84D50C53</uuid>
					</itemhistory>
				</clipitem>
				<clipitem id="Rodrigo026 ">
					<name>Rodrigo026</name>
					<duration>788</duration>
					<rate>
						<ntsc>FALSE</ntsc>
						<timebase>25</timebase>
					</rate>
					<in>0</in>
					<out>787</out>
					<start>80017</start>
					<end>80804</end>
					<pixelaspectratio>Square</pixelaspectratio>
					<anamorphic>FALSE</anamorphic>
					<alphatype>none</alphatype>
					<logginginfo>
						<scene/>
						<shottake/>
						<lognote/>
						<good>FALSE</good>
					</logginginfo>
					<labels>
						<label2/>
					</labels>
					<comments>
						<mastercomment1/>
						<mastercomment2/>
						<mastercomment3/>
						<mastercomment4/>
					</comments>
					<file id="Rodrigo026 1">
						<name>Rodrigo026</name>
						<pathurl>file://localhost/Volumes/Michael's%20Passport/woodbdrigenov2011media/Rodrigo026</pathurl>
						<rate>
							<timebase>25</timebase>
						</rate>
						<duration>788</duration>
						<metadata>
							<storage>QuickTime</storage>
							<key>com.apple.finalcutstudio.media.uuid</key>
							<size>36</size>
							<type>UTF8</type>
							<value>9D4A12CE-E0BC-4D5C-A6BB-637409A62EF5</value>
						</metadata>
						<metadata>
							<storage>QuickTime</storage>
							<key>com.apple.finalcutstudio.media.history.uuid</key>
							<size>36</size>
							<type>UTF8</type>
							<value>8104E65D-DC6C-4F77-A888-3AC2AE6AA2D2</value>
						</metadata>
						<media>
							<video>
								<duration>788</duration>
								<samplecharacteristics>
									<width>1280</width>
									<height>720</height>
								</samplecharacteristics>
							</video>
							<audio>
								<samplecharacteristics>
									<samplerate>48000</samplerate>
									<depth>16</depth>
								</samplecharacteristics>
								<channelcount>1</channelcount>
								<layout>mono</layout>
								<audiochannel>
									<sourcechannel>1</sourcechannel>
									<channellabel>discrete</channellabel>
								</audiochannel>
							</audio>
							<audio>
								<samplecharacteristics>
									<samplerate>48000</samplerate>
									<depth>16</depth>
								</samplecharacteristics>
								<channelcount>1</channelcount>
								<layout>mono</layout>
								<audiochannel>
									<sourcechannel>2</sourcechannel>
									<channellabel>discrete</channellabel>
								</audiochannel>
							</audio>
						</media>
					</file>
					<sourcetrack>
						<mediatype>video</mediatype>
					</sourcetrack>
					<fielddominance>none</fielddominance>
					<itemhistory>
						<uuid>9AD39A7B-A01B-468A-B0E7-186CC9963DC3</uuid>
						<uuid>442C714B-6E90-41A6-A501-8C17367E6E91</uuid>
					</itemhistory>
				</clipitem>
				<clipitem id="Rodrigo027 ">
					<name>Rodrigo027</name>
					<duration>763</duration>
					<rate>
						<ntsc>FALSE</ntsc>
						<timebase>25</timebase>
					</rate>
					<in>0</in>
					<out>762</out>
					<start>81240</start>
					<end>82002</end>
					<pixelaspectratio>Square</pixelaspectratio>
					<anamorphic>FALSE</anamorphic>
					<alphatype>none</alphatype>
					<logginginfo>
						<scene/>
						<shottake/>
						<lognote/>
						<good>FALSE</good>
					</logginginfo>
					<labels>
						<label2/>
					</labels>
					<comments>
						<mastercomment1/>
						<mastercomment2/>
						<mastercomment3/>
						<mastercomment4/>
					</comments>
					<file id="Rodrigo027 1">
						<name>Rodrigo027</name>
						<pathurl>file://localhost/Volumes/Michael's%20Passport/woodbdrigenov2011media/Rodrigo027</pathurl>
						<rate>
							<timebase>25</timebase>
						</rate>
						<duration>763</duration>
						<metadata>
							<storage>QuickTime</storage>
							<key>com.apple.finalcutstudio.media.uuid</key>
							<size>36</size>
							<type>UTF8</type>
							<value>C2B47C31-50FD-4243-AF7A-81882EFF7B29</value>
						</metadata>
						<metadata>
							<storage>QuickTime</storage>
							<key>com.apple.finalcutstudio.media.history.uuid</key>
							<size>36</size>
							<type>UTF8</type>
							<value>61D875AD-7BBB-4184-92A0-50577100E87A</value>
						</metadata>
						<media>
							<video>
								<duration>763</duration>
								<samplecharacteristics>
									<width>1280</width>
									<height>720</height>
								</samplecharacteristics>
							</video>
							<audio>
								<samplecharacteristics>
									<samplerate>48000</samplerate>
									<depth>16</depth>
								</samplecharacteristics>
								<channelcount>1</channelcount>
								<layout>mono</layout>
								<audiochannel>
									<sourcechannel>1</sourcechannel>
									<channellabel>discrete</channellabel>
								</audiochannel>
							</audio>
							<audio>
								<samplecharacteristics>
									<samplerate>48000</samplerate>
									<depth>16</depth>
								</samplecharacteristics>
								<channelcount>1</channelcount>
								<layout>mono</layout>
								<audiochannel>
									<sourcechannel>2</sourcechannel>
									<channellabel>discrete</channellabel>
								</audiochannel>
							</audio>
						</media>
					</file>
					<sourcetrack>
						<mediatype>video</mediatype>
					</sourcetrack>
					<fielddominance>none</fielddominance>
					<itemhistory>
						<uuid>5907AF86-0909-4268-BCED-8D96E21D87E7</uuid>
						<uuid>B0406173-5C40-4E0E-9FE3-D6756ECC1A3C</uuid>
					</itemhistory>
				</clipitem>
				<clipitem id="Rodrigo028 ">
					<name>Rodrigo028</name>
					<duration>1150</duration>
					<rate>
						<ntsc>FALSE</ntsc>
						<timebase>25</timebase>
					</rate>
					<in>0</in>
					<out>1150</out>
					<start>84889</start>
					<end>86039</end>
					<pixelaspectratio>Square</pixelaspectratio>
					<anamorphic>FALSE</anamorphic>
					<alphatype>none</alphatype>
					<logginginfo>
						<scene/>
						<shottake/>
						<lognote/>
						<good>FALSE</good>
					</logginginfo>
					<labels>
						<label2/>
					</labels>
					<comments>
						<mastercomment1/>
						<mastercomment2/>
						<mastercomment3/>
						<mastercomment4/>
					</comments>
					<file id="Rodrigo028 1">
						<name>Rodrigo028</name>
						<pathurl>file://localhost/Volumes/Michael's%20Passport/woodbdrigenov2011media/Rodrigo028</pathurl>
						<rate>
							<timebase>25</timebase>
						</rate>
						<duration>1150</duration>
						<metadata>
							<storage>QuickTime</storage>
							<key>com.apple.finalcutstudio.media.uuid</key>
							<size>36</size>
							<type>UTF8</type>
							<value>5745DF7F-E6EB-4F5D-AA8A-2251F78A2B4F</value>
						</metadata>
						<metadata>
							<storage>QuickTime</storage>
							<key>com.apple.finalcutstudio.media.history.uuid</key>
							<size>36</size>
							<type>UTF8</type>
							<value>DE510F3D-6AA9-4701-B183-61A9A177622E</value>
						</metadata>
						<media>
							<video>
								<duration>1150</duration>
								<samplecharacteristics>
									<width>1280</width>
									<height>720</height>
								</samplecharacteristics>
							</video>
							<audio>
								<samplecharacteristics>
									<samplerate>48000</samplerate>
									<depth>16</depth>
								</samplecharacteristics>
								<channelcount>1</channelcount>
								<layout>mono</layout>
								<audiochannel>
									<sourcechannel>1</sourcechannel>
									<channellabel>discrete</channellabel>
								</audiochannel>
							</audio>
							<audio>
								<samplecharacteristics>
									<samplerate>48000</samplerate>
									<depth>16</depth>
								</samplecharacteristics>
								<channelcount>1</channelcount>
								<layout>mono</layout>
								<audiochannel>
									<sourcechannel>2</sourcechannel>
									<channellabel>discrete</channellabel>
								</audiochannel>
							</audio>
						</media>
					</file>
					<sourcetrack>
						<mediatype>video</mediatype>
					</sourcetrack>
					<fielddominance>none</fielddominance>
					<itemhistory>
						<uuid>D82767E7-97FC-4C6E-9D51-F6EFC55A9CD4</uuid>
						<uuid>4D26639F-B39C-4013-9872-0D18552E48B9</uuid>
					</itemhistory>
				</clipitem>
				<clipitem id="Rodrigo029 ">
					<name>Rodrigo029</name>
					<duration>1225</duration>
					<rate>
						<ntsc>FALSE</ntsc>
						<timebase>25</timebase>
					</rate>
					<in>0</in>
					<out>1225</out>
					<start>87080</start>
					<end>88305</end>
					<pixelaspectratio>Square</pixelaspectratio>
					<anamorphic>FALSE</anamorphic>
					<alphatype>none</alphatype>
					<logginginfo>
						<scene/>
						<shottake/>
						<lognote/>
						<good>FALSE</good>
					</logginginfo>
					<labels>
						<label2/>
					</labels>
					<comments>
						<mastercomment1/>
						<mastercomment2/>
						<mastercomment3/>
						<mastercomment4/>
					</comments>
					<file id="Rodrigo029 1">
						<name>Rodrigo029</name>
						<pathurl>file://localhost/Volumes/Michael's%20Passport/woodbdrigenov2011media/Rodrigo029</pathurl>
						<rate>
							<timebase>25</timebase>
						</rate>
						<duration>1225</duration>
						<metadata>
							<storage>QuickTime</storage>
							<key>com.apple.finalcutstudio.media.uuid</key>
							<size>36</size>
							<type>UTF8</type>
							<value>0F3340F3-00E4-4AFA-B910-27477C07C0D2</value>
						</metadata>
						<metadata>
							<storage>QuickTime</storage>
							<key>com.apple.finalcutstudio.media.history.uuid</key>
							<size>36</size>
							<type>UTF8</type>
							<value>EDE13F6A-D151-40A9-9FD8-B1FB8FE02C69</value>
						</metadata>
						<media>
							<video>
								<duration>1225</duration>
								<samplecharacteristics>
									<width>1280</width>
									<height>720</height>
								</samplecharacteristics>
							</video>
							<audio>
								<samplecharacteristics>
									<samplerate>48000</samplerate>
									<depth>16</depth>
								</samplecharacteristics>
								<channelcount>1</channelcount>
								<layout>mono</layout>
								<audiochannel>
									<sourcechannel>1</sourcechannel>
									<channellabel>discrete</channellabel>
								</audiochannel>
							</audio>
							<audio>
								<samplecharacteristics>
									<samplerate>48000</samplerate>
									<depth>16</depth>
								</samplecharacteristics>
								<channelcount>1</channelcount>
								<layout>mono</layout>
								<audiochannel>
									<sourcechannel>2</sourcechannel>
									<channellabel>discrete</channellabel>
								</audiochannel>
							</audio>
						</media>
					</file>
					<sourcetrack>
						<mediatype>video</mediatype>
					</sourcetrack>
					<fielddominance>none</fielddominance>
					<itemhistory>
						<uuid>2C193217-2B08-407A-B5C4-CF804EAB407A</uuid>
						<uuid>676DFAE3-4E7A-47CA-B810-EA1127245C2D</uuid>
					</itemhistory>
				</clipitem>
				<clipitem id="Rodrigo030Subclipa">
					<name>Rodrigo030Subclipa</name>
					<duration>666</duration>
					<rate>
						<ntsc>FALSE</ntsc>
						<timebase>25</timebase>
					</rate>
					<in>0</in>
					<out>666</out>
					<start>89480</start>
					<end>90146</end>
					<pixelaspectratio>Square</pixelaspectratio>
					<anamorphic>FALSE</anamorphic>
					<alphatype>none</alphatype>
					<logginginfo>
						<scene/>
						<shottake/>
						<lognote/>
						<good>FALSE</good>
					</logginginfo>
					<labels>
						<label2/>
					</labels>
					<comments>
						<mastercomment1/>
						<mastercomment2/>
						<mastercomment3/>
						<mastercomment4/>
					</comments>
					<file id="Rodrigo030Subclipa1">
						<name>Rodrigo030Subclipa</name>
						<pathurl>file://localhost/Volumes/Michael's%20Passport/woodbdrigenov2011media/Rodrigo030Subclipa</pathurl>
						<rate>
							<timebase>25</timebase>
						</rate>
						<duration>666</duration>
						<metadata>
							<storage>QuickTime</storage>
							<key>com.apple.finalcutstudio.media.uuid</key>
							<size>36</size>
							<type>UTF8</type>
							<value>4ED0C99C-D95F-48BD-9875-623F76724023</value>
						</metadata>
						<metadata>
							<storage>QuickTime</storage>
							<key>com.apple.finalcutstudio.media.history.uuid</key>
							<size>36</size>
							<type>UTF8</type>
							<value>A6C7BD8E-5809-4A5D-B5FE-6A43DE46952B</value>
						</metadata>
						<media>
							<video>
								<duration>666</duration>
								<samplecharacteristics>
									<width>1280</width>
									<height>720</height>
								</samplecharacteristics>
							</video>
							<audio>
								<samplecharacteristics>
									<samplerate>48000</samplerate>
									<depth>16</depth>
								</samplecharacteristics>
								<channelcount>1</channelcount>
								<layout>mono</layout>
								<audiochannel>
									<sourcechannel>1</sourcechannel>
									<channellabel>discrete</channellabel>
								</audiochannel>
							</audio>
							<audio>
								<samplecharacteristics>
									<samplerate>48000</samplerate>
									<depth>16</depth>
								</samplecharacteristics>
								<channelcount>1</channelcount>
								<layout>mono</layout>
								<audiochannel>
									<sourcechannel>2</sourcechannel>
									<channellabel>discrete</channellabel>
								</audiochannel>
							</audio>
						</media>
					</file>
					<sourcetrack>
						<mediatype>video</mediatype>
					</sourcetrack>
					<fielddominance>none</fielddominance>
					<itemhistory>
						<uuid>CDAAEC7A-45A2-4901-A49C-A49671554FE7</uuid>
						<uuid>52028F25-75A8-4680-9D99-FD21ACA3A763</uuid>
					</itemhistory>
				</clipitem>
				<clipitem id="Rodrigo030Subclipb">
					<name>Rodrigo030Subclipb</name>
					<duration>298</duration>
					<rate>
						<ntsc>FALSE</ntsc>
						<timebase>25</timebase>
					</rate>
					<in>0</in>
					<out>297</out>
					<start>90146</start>
					<end>90443</end>
					<pixelaspectratio>Square</pixelaspectratio>
					<anamorphic>FALSE</anamorphic>
					<alphatype>none</alphatype>
					<logginginfo>
						<scene/>
						<shottake/>
						<lognote/>
						<good>FALSE</good>
					</logginginfo>
					<labels>
						<label2/>
					</labels>
					<comments>
						<mastercomment1/>
						<mastercomment2/>
						<mastercomment3/>
						<mastercomment4/>
					</comments>
					<file id="Rodrigo030Subclipb1">
						<name>Rodrigo030Subclipb</name>
						<pathurl>file://localhost/Volumes/Michael's%20Passport/woodbdrigenov2011media/Rodrigo030Subclipb</pathurl>
						<rate>
							<timebase>25</timebase>
						</rate>
						<duration>298</duration>
						<metadata>
							<storage>QuickTime</storage>
							<key>com.apple.finalcutstudio.media.uuid</key>
							<size>36</size>
							<type>UTF8</type>
							<value>69BB70BD-1994-44A8-8CDB-2C1805128EB9</value>
						</metadata>
						<metadata>
							<storage>QuickTime</storage>
							<key>com.apple.finalcutstudio.media.history.uuid</key>
							<size>36</size>
							<type>UTF8</type>
							<value>A6C7BD8E-5809-4A5D-B5FE-6A43DE46952B</value>
						</metadata>
						<media>
							<video>
								<duration>298</duration>
								<samplecharacteristics>
									<width>1280</width>
									<height>720</height>
								</samplecharacteristics>
							</video>
							<audio>
								<samplecharacteristics>
									<samplerate>48000</samplerate>
									<depth>16</depth>
								</samplecharacteristics>
								<channelcount>1</channelcount>
								<layout>mono</layout>
								<audiochannel>
									<sourcechannel>1</sourcechannel>
									<channellabel>discrete</channellabel>
								</audiochannel>
							</audio>
							<audio>
								<samplecharacteristics>
									<samplerate>48000</samplerate>
									<depth>16</depth>
								</samplecharacteristics>
								<channelcount>1</channelcount>
								<layout>mono</layout>
								<audiochannel>
									<sourcechannel>2</sourcechannel>
									<channellabel>discrete</channellabel>
								</audiochannel>
							</audio>
						</media>
					</file>
					<sourcetrack>
						<mediatype>video</mediatype>
					</sourcetrack>
					<fielddominance>none</fielddominance>
					<itemhistory>
						<uuid>52E2BE87-5067-4F82-A292-491D11AFA9BB</uuid>
						<uuid>D1ABB308-55AB-4B49-9F5F-8BDD984F7823</uuid>
					</itemhistory>
				</clipitem>
				<clipitem id="Rodrigo031 ">
					<name>Rodrigo031</name>
					<duration>800</duration>
					<rate>
						<ntsc>FALSE</ntsc>
						<timebase>25</timebase>
					</rate>
					<in>0</in>
					<out>799</out>
					<start>97137</start>
					<end>97936</end>
					<pixelaspectratio>Square</pixelaspectratio>
					<anamorphic>FALSE</anamorphic>
					<alphatype>none</alphatype>
					<logginginfo>
						<scene/>
						<shottake/>
						<lognote/>
						<good>FALSE</good>
					</logginginfo>
					<labels>
						<label2/>
					</labels>
					<comments>
						<mastercomment1/>
						<mastercomment2/>
						<mastercomment3/>
						<mastercomment4/>
					</comments>
					<file id="Rodrigo031 1">
						<name>Rodrigo031</name>
						<pathurl>file://localhost/Volumes/Michael's%20Passport/woodbdrigenov2011media/Rodrigo031</pathurl>
						<rate>
							<timebase>25</timebase>
						</rate>
						<duration>800</duration>
						<metadata>
							<storage>QuickTime</storage>
							<key>com.apple.finalcutstudio.media.uuid</key>
							<size>36</size>
							<type>UTF8</type>
							<value>9EFE45A4-8A50-499B-9974-87878761E1F0</value>
						</metadata>
						<metadata>
							<storage>QuickTime</storage>
							<key>com.apple.finalcutstudio.media.history.uuid</key>
							<size>36</size>
							<type>UTF8</type>
							<value>C5B9500F-E115-4678-A540-00260A9BD91F</value>
						</metadata>
						<media>
							<video>
								<duration>800</duration>
								<samplecharacteristics>
									<width>1280</width>
									<height>720</height>
								</samplecharacteristics>
							</video>
							<audio>
								<samplecharacteristics>
									<samplerate>48000</samplerate>
									<depth>16</depth>
								</samplecharacteristics>
								<channelcount>1</channelcount>
								<layout>mono</layout>
								<audiochannel>
									<sourcechannel>1</sourcechannel>
									<channellabel>discrete</channellabel>
								</audiochannel>
							</audio>
							<audio>
								<samplecharacteristics>
									<samplerate>48000</samplerate>
									<depth>16</depth>
								</samplecharacteristics>
								<channelcount>1</channelcount>
								<layout>mono</layout>
								<audiochannel>
									<sourcechannel>2</sourcechannel>
									<channellabel>discrete</channellabel>
								</audiochannel>
							</audio>
						</media>
					</file>
					<sourcetrack>
						<mediatype>video</mediatype>
					</sourcetrack>
					<fielddominance>none</fielddominance>
					<itemhistory>
						<uuid>0FEA002F-9750-48CA-9702-89E53A0E377D</uuid>
						<uuid>74013CBB-9DCF-443F-8952-170411A68DA7</uuid>
					</itemhistory>
				</clipitem>
				<clipitem id="Rodrigo032 ">
					<name>Rodrigo032</name>
					<duration>375</duration>
					<rate>
						<ntsc>FALSE</ntsc>
						<timebase>25</timebase>
					</rate>
					<in>0</in>
					<out>374</out>
					<start>99687</start>
					<end>100061</end>
					<pixelaspectratio>Square</pixelaspectratio>
					<anamorphic>FALSE</anamorphic>
					<alphatype>none</alphatype>
					<logginginfo>
						<scene/>
						<shottake/>
						<lognote/>
						<good>FALSE</good>
					</logginginfo>
					<labels>
						<label2/>
					</labels>
					<comments>
						<mastercomment1/>
						<mastercomment2/>
						<mastercomment3/>
						<mastercomment4/>
					</comments>
					<file id="Rodrigo032 1">
						<name>Rodrigo032</name>
						<pathurl>file://localhost/Volumes/Michael's%20Passport/woodbdrigenov2011media/Rodrigo032</pathurl>
						<rate>
							<timebase>25</timebase>
						</rate>
						<duration>375</duration>
						<metadata>
							<storage>QuickTime</storage>
							<key>com.apple.finalcutstudio.media.uuid</key>
							<size>36</size>
							<type>UTF8</type>
							<value>B7160FFB-50E7-4B68-8EBC-9EA94AA17D12</value>
						</metadata>
						<metadata>
							<storage>QuickTime</storage>
							<key>com.apple.finalcutstudio.media.history.uuid</key>
							<size>36</size>
							<type>UTF8</type>
							<value>7F54A7AA-37D8-4C24-BCAE-4D73B1D2DE8A</value>
						</metadata>
						<media>
							<video>
								<duration>375</duration>
								<samplecharacteristics>
									<width>1280</width>
									<height>720</height>
								</samplecharacteristics>
							</video>
							<audio>
								<samplecharacteristics>
									<samplerate>48000</samplerate>
									<depth>16</depth>
								</samplecharacteristics>
								<channelcount>1</channelcount>
								<layout>mono</layout>
								<audiochannel>
									<sourcechannel>1</sourcechannel>
									<channellabel>discrete</channellabel>
								</audiochannel>
							</audio>
							<audio>
								<samplecharacteristics>
									<samplerate>48000</samplerate>
									<depth>16</depth>
								</samplecharacteristics>
								<channelcount>1</channelcount>
								<layout>mono</layout>
								<audiochannel>
									<sourcechannel>2</sourcechannel>
									<channellabel>discrete</channellabel>
								</audiochannel>
							</audio>
						</media>
					</file>
					<sourcetrack>
						<mediatype>video</mediatype>
					</sourcetrack>
					<fielddominance>none</fielddominance>
					<itemhistory>
						<uuid>00A0EED9-0607-401C-97AB-246AAB089E12</uuid>
						<uuid>A02EC400-F8A4-4075-84C5-5F773C3879EA</uuid>
					</itemhistory>
				</clipitem>
				<clipitem id="Rodrigo033 ">
					<name>Rodrigo033</name>
					<duration>788</duration>
					<rate>
						<ntsc>FALSE</ntsc>
						<timebase>25</timebase>
					</rate>
					<in>0</in>
					<out>787</out>
					<start>101401</start>
					<end>102188</end>
					<pixelaspectratio>Square</pixelaspectratio>
					<anamorphic>FALSE</anamorphic>
					<alphatype>none</alphatype>
					<logginginfo>
						<scene/>
						<shottake/>
						<lognote/>
						<good>FALSE</good>
					</logginginfo>
					<labels>
						<label2/>
					</labels>
					<comments>
						<mastercomment1/>
						<mastercomment2/>
						<mastercomment3/>
						<mastercomment4/>
					</comments>
					<file id="Rodrigo033 1">
						<name>Rodrigo033</name>
						<pathurl>file://localhost/Volumes/Michael's%20Passport/woodbdrigenov2011media/Rodrigo033</pathurl>
						<rate>
							<timebase>25</timebase>
						</rate>
						<duration>788</duration>
						<metadata>
							<storage>QuickTime</storage>
							<key>com.apple.finalcutstudio.media.uuid</key>
							<size>36</size>
							<type>UTF8</type>
							<value>0B1A4259-8126-4E9F-A19F-6FE63DE0AA74</value>
						</metadata>
						<metadata>
							<storage>QuickTime</storage>
							<key>com.apple.finalcutstudio.media.history.uuid</key>
							<size>36</size>
							<type>UTF8</type>
							<value>44A0BCAE-DF21-4C7A-BB90-1C7D021BD182</value>
						</metadata>
						<media>
							<video>
								<duration>788</duration>
								<samplecharacteristics>
									<width>1280</width>
									<height>720</height>
								</samplecharacteristics>
							</video>
							<audio>
								<samplecharacteristics>
									<samplerate>48000</samplerate>
									<depth>16</depth>
								</samplecharacteristics>
								<channelcount>1</channelcount>
								<layout>mono</layout>
								<audiochannel>
									<sourcechannel>1</sourcechannel>
									<channellabel>discrete</channellabel>
								</audiochannel>
							</audio>
							<audio>
								<samplecharacteristics>
									<samplerate>48000</samplerate>
									<depth>16</depth>
								</samplecharacteristics>
								<channelcount>1</channelcount>
								<layout>mono</layout>
								<audiochannel>
									<sourcechannel>2</sourcechannel>
									<channellabel>discrete</channellabel>
								</audiochannel>
							</audio>
						</media>
					</file>
					<sourcetrack>
						<mediatype>video</mediatype>
					</sourcetrack>
					<fielddominance>none</fielddominance>
					<itemhistory>
						<uuid>F85D7D07-599A-46CA-BC8E-29433A24F097</uuid>
						<uuid>28707C52-2F49-49E9-A777-DD5BB8171710</uuid>
					</itemhistory>
				</clipitem>
				<clipitem id="Rodrigo034 ">
					<name>Rodrigo034</name>
					<duration>1788</duration>
					<rate>
						<ntsc>FALSE</ntsc>
						<timebase>25</timebase>
					</rate>
					<in>0</in>
					<out>1787</out>
					<start>103697</start>
					<end>105484</end>
					<pixelaspectratio>Square</pixelaspectratio>
					<anamorphic>FALSE</anamorphic>
					<alphatype>none</alphatype>
					<logginginfo>
						<scene/>
						<shottake/>
						<lognote/>
						<good>FALSE</good>
					</logginginfo>
					<labels>
						<label2/>
					</labels>
					<comments>
						<mastercomment1/>
						<mastercomment2/>
						<mastercomment3/>
						<mastercomment4/>
					</comments>
					<file id="Rodrigo034 1">
						<name>Rodrigo034</name>
						<pathurl>file://localhost/Volumes/Michael's%20Passport/woodbdrigenov2011media/Rodrigo034</pathurl>
						<rate>
							<timebase>25</timebase>
						</rate>
						<duration>1788</duration>
						<metadata>
							<storage>QuickTime</storage>
							<key>com.apple.finalcutstudio.media.uuid</key>
							<size>36</size>
							<type>UTF8</type>
							<value>EBA729C7-B556-4722-9C50-048464B75BB5</value>
						</metadata>
						<metadata>
							<storage>QuickTime</storage>
							<key>com.apple.finalcutstudio.media.history.uuid</key>
							<size>36</size>
							<type>UTF8</type>
							<value>C885FEC0-8B89-46D6-B4C8-8CEC032E17CF</value>
						</metadata>
						<media>
							<video>
								<duration>1788</duration>
								<samplecharacteristics>
									<width>1280</width>
									<height>720</height>
								</samplecharacteristics>
							</video>
							<audio>
								<samplecharacteristics>
									<samplerate>48000</samplerate>
									<depth>16</depth>
								</samplecharacteristics>
								<channelcount>1</channelcount>
								<layout>mono</layout>
								<audiochannel>
									<sourcechannel>1</sourcechannel>
									<channellabel>discrete</channellabel>
								</audiochannel>
							</audio>
							<audio>
								<samplecharacteristics>
									<samplerate>48000</samplerate>
									<depth>16</depth>
								</samplecharacteristics>
								<channelcount>1</channelcount>
								<layout>mono</layout>
								<audiochannel>
									<sourcechannel>2</sourcechannel>
									<channellabel>discrete</channellabel>
								</audiochannel>
							</audio>
						</media>
					</file>
					<sourcetrack>
						<mediatype>video</mediatype>
					</sourcetrack>
					<fielddominance>none</fielddominance>
					<itemhistory>
						<uuid>3850F3CB-CF25-42CE-A8BE-3F602DFD2991</uuid>
						<uuid>69AB11C8-8534-41B0-AC81-68D05BE56423</uuid>
					</itemhistory>
				</clipitem>
				<clipitem id="Rodrigo035 ">
					<name>Rodrigo035</name>
					<duration>650</duration>
					<rate>
						<ntsc>FALSE</ntsc>
						<timebase>25</timebase>
					</rate>
					<in>0</in>
					<out>649</out>
					<start>106089</start>
					<end>106738</end>
					<pixelaspectratio>Square</pixelaspectratio>
					<anamorphic>FALSE</anamorphic>
					<alphatype>none</alphatype>
					<logginginfo>
						<scene/>
						<shottake/>
						<lognote/>
						<good>FALSE</good>
					</logginginfo>
					<labels>
						<label2/>
					</labels>
					<comments>
						<mastercomment1/>
						<mastercomment2/>
						<mastercomment3/>
						<mastercomment4/>
					</comments>
					<file id="Rodrigo035 1">
						<name>Rodrigo035</name>
						<pathurl>file://localhost/Volumes/Michael's%20Passport/woodbdrigenov2011media/Rodrigo035</pathurl>
						<rate>
							<timebase>25</timebase>
						</rate>
						<duration>650</duration>
						<metadata>
							<storage>QuickTime</storage>
							<key>com.apple.finalcutstudio.media.uuid</key>
							<size>36</size>
							<type>UTF8</type>
							<value>7679D392-0047-4329-BB7B-DBC38109763C</value>
						</metadata>
						<metadata>
							<storage>QuickTime</storage>
							<key>com.apple.finalcutstudio.media.history.uuid</key>
							<size>36</size>
							<type>UTF8</type>
							<value>086353A0-6759-47BA-BE57-F75DD8DFFE82</value>
						</metadata>
						<media>
							<video>
								<duration>650</duration>
								<samplecharacteristics>
									<width>1280</width>
									<height>720</height>
								</samplecharacteristics>
							</video>
							<audio>
								<samplecharacteristics>
									<samplerate>48000</samplerate>
									<depth>16</depth>
								</samplecharacteristics>
								<channelcount>1</channelcount>
								<layout>mono</layout>
								<audiochannel>
									<sourcechannel>1</sourcechannel>
									<channellabel>discrete</channellabel>
								</audiochannel>
							</audio>
							<audio>
								<samplecharacteristics>
									<samplerate>48000</samplerate>
									<depth>16</depth>
								</samplecharacteristics>
								<channelcount>1</channelcount>
								<layout>mono</layout>
								<audiochannel>
									<sourcechannel>2</sourcechannel>
									<channellabel>discrete</channellabel>
								</audiochannel>
							</audio>
						</media>
					</file>
					<sourcetrack>
						<mediatype>video</mediatype>
					</sourcetrack>
					<fielddominance>none</fielddominance>
					<itemhistory>
						<uuid>7ED990A4-6B07-48B0-A89F-5718B358AAFB</uuid>
						<uuid>171E9333-77EA-4A67-ADEE-69F2017E9470</uuid>
					</itemhistory>
				</clipitem>
				<clipitem id="Rodrigo036 ">
					<name>Rodrigo036</name>
					<duration>563</duration>
					<rate>
						<ntsc>FALSE</ntsc>
						<timebase>25</timebase>
					</rate>
					<in>0</in>
					<out>562</out>
					<start>111589</start>
					<end>112151</end>
					<pixelaspectratio>Square</pixelaspectratio>
					<anamorphic>FALSE</anamorphic>
					<alphatype>none</alphatype>
					<logginginfo>
						<scene/>
						<shottake/>
						<lognote/>
						<good>FALSE</good>
					</logginginfo>
					<labels>
						<label2/>
					</labels>
					<comments>
						<mastercomment1/>
						<mastercomment2/>
						<mastercomment3/>
						<mastercomment4/>
					</comments>
					<file id="Rodrigo036 1">
						<name>Rodrigo036</name>
						<pathurl>file://localhost/Volumes/Michael's%20Passport/woodbdrigenov2011media/Rodrigo036</pathurl>
						<rate>
							<timebase>25</timebase>
						</rate>
						<duration>563</duration>
						<metadata>
							<storage>QuickTime</storage>
							<key>com.apple.finalcutstudio.media.uuid</key>
							<size>36</size>
							<type>UTF8</type>
							<value>93241590-B3C2-41DE-A366-A2A45A88BD4D</value>
						</metadata>
						<metadata>
							<storage>QuickTime</storage>
							<key>com.apple.finalcutstudio.media.history.uuid</key>
							<size>36</size>
							<type>UTF8</type>
							<value>A369B5A7-CFAB-4A59-85C7-C366BD48CCCD</value>
						</metadata>
						<media>
							<video>
								<duration>563</duration>
								<samplecharacteristics>
									<width>1280</width>
									<height>720</height>
								</samplecharacteristics>
							</video>
							<audio>
								<samplecharacteristics>
									<samplerate>48000</samplerate>
									<depth>16</depth>
								</samplecharacteristics>
								<channelcount>1</channelcount>
								<layout>mono</layout>
								<audiochannel>
									<sourcechannel>1</sourcechannel>
									<channellabel>discrete</channellabel>
								</audiochannel>
							</audio>
							<audio>
								<samplecharacteristics>
									<samplerate>48000</samplerate>
									<depth>16</depth>
								</samplecharacteristics>
								<channelcount>1</channelcount>
								<layout>mono</layout>
								<audiochannel>
									<sourcechannel>2</sourcechannel>
									<channellabel>discrete</channellabel>
								</audiochannel>
							</audio>
						</media>
					</file>
					<sourcetrack>
						<mediatype>video</mediatype>
					</sourcetrack>
					<fielddominance>none</fielddominance>
					<itemhistory>
						<uuid>D3BF4A62-E62C-46E0-A44E-8B5018EB65F2</uuid>
						<uuid>68EA6B69-3C18-4DDE-95F2-F37150B49A85</uuid>
					</itemhistory>
				</clipitem>
				<clipitem id="Rodrigo037 ">
					<name>Rodrigo037</name>
					<duration>2338</duration>
					<rate>
						<ntsc>FALSE</ntsc>
						<timebase>25</timebase>
					</rate>
					<in>0</in>
					<out>2338</out>
					<start>123518</start>
					<end>125856</end>
					<pixelaspectratio>Square</pixelaspectratio>
					<anamorphic>FALSE</anamorphic>
					<alphatype>none</alphatype>
					<logginginfo>
						<scene/>
						<shottake/>
						<lognote/>
						<good>FALSE</good>
					</logginginfo>
					<labels>
						<label2/>
					</labels>
					<comments>
						<mastercomment1/>
						<mastercomment2/>
						<mastercomment3/>
						<mastercomment4/>
					</comments>
					<file id="Rodrigo037 1">
						<name>Rodrigo037</name>
						<pathurl>file://localhost/Volumes/Michael's%20Passport/woodbdrigenov2011media/Rodrigo037</pathurl>
						<rate>
							<timebase>25</timebase>
						</rate>
						<duration>2338</duration>
						<metadata>
							<storage>QuickTime</storage>
							<key>com.apple.finalcutstudio.media.uuid</key>
							<size>36</size>
							<type>UTF8</type>
							<value>656C2C50-82C2-4B64-8FEF-906EC27D206C</value>
						</metadata>
						<metadata>
							<storage>QuickTime</storage>
							<key>com.apple.finalcutstudio.media.history.uuid</key>
							<size>36</size>
							<type>UTF8</type>
							<value>C94828F4-88E6-479B-BD19-68F07D28BD82</value>
						</metadata>
						<media>
							<video>
								<duration>2338</duration>
								<samplecharacteristics>
									<width>1280</width>
									<height>720</height>
								</samplecharacteristics>
							</video>
							<audio>
								<samplecharacteristics>
									<samplerate>48000</samplerate>
									<depth>16</depth>
								</samplecharacteristics>
								<channelcount>1</channelcount>
								<layout>mono</layout>
								<audiochannel>
									<sourcechannel>1</sourcechannel>
									<channellabel>discrete</channellabel>
								</audiochannel>
							</audio>
							<audio>
								<samplecharacteristics>
									<samplerate>48000</samplerate>
									<depth>16</depth>
								</samplecharacteristics>
								<channelcount>1</channelcount>
								<layout>mono</layout>
								<audiochannel>
									<sourcechannel>2</sourcechannel>
									<channellabel>discrete</channellabel>
								</audiochannel>
							</audio>
						</media>
					</file>
					<sourcetrack>
						<mediatype>video</mediatype>
					</sourcetrack>
					<fielddominance>none</fielddominance>
					<itemhistory>
						<uuid>D9C87B70-D977-4CBD-AEEF-F5C55A68E340</uuid>
						<uuid>17273057-7A76-4723-941D-44B7C64F2435</uuid>
					</itemhistory>
				</clipitem>
				<clipitem id="Rodrigo038 ">
					<name>Rodrigo038</name>
					<duration>625</duration>
					<rate>
						<ntsc>FALSE</ntsc>
						<timebase>25</timebase>
					</rate>
					<in>0</in>
					<out>624</out>
					<start>128732</start>
					<end>129356</end>
					<pixelaspectratio>Square</pixelaspectratio>
					<anamorphic>FALSE</anamorphic>
					<alphatype>none</alphatype>
					<logginginfo>
						<scene/>
						<shottake/>
						<lognote/>
						<good>FALSE</good>
					</logginginfo>
					<labels>
						<label2/>
					</labels>
					<comments>
						<mastercomment1/>
						<mastercomment2/>
						<mastercomment3/>
						<mastercomment4/>
					</comments>
					<file id="Rodrigo038 1">
						<name>Rodrigo038</name>
						<pathurl>file://localhost/Volumes/Michael's%20Passport/woodbdrigenov2011media/Rodrigo038</pathurl>
						<rate>
							<timebase>25</timebase>
						</rate>
						<duration>625</duration>
						<metadata>
							<storage>QuickTime</storage>
							<key>com.apple.finalcutstudio.media.uuid</key>
							<size>36</size>
							<type>UTF8</type>
							<value>1B376087-B7D5-40B8-A606-4BEA3FF6D8B6</value>
						</metadata>
						<metadata>
							<storage>QuickTime</storage>
							<key>com.apple.finalcutstudio.media.history.uuid</key>
							<size>36</size>
							<type>UTF8</type>
							<value>10CAA16F-D9C0-47CE-8CCD-983FAD25D781</value>
						</metadata>
						<media>
							<video>
								<duration>625</duration>
								<samplecharacteristics>
									<width>1280</width>
									<height>720</height>
								</samplecharacteristics>
							</video>
							<audio>
								<samplecharacteristics>
									<samplerate>48000</samplerate>
									<depth>16</depth>
								</samplecharacteristics>
								<channelcount>1</channelcount>
								<layout>mono</layout>
								<audiochannel>
									<sourcechannel>1</sourcechannel>
									<channellabel>discrete</channellabel>
								</audiochannel>
							</audio>
							<audio>
								<samplecharacteristics>
									<samplerate>48000</samplerate>
									<depth>16</depth>
								</samplecharacteristics>
								<channelcount>1</channelcount>
								<layout>mono</layout>
								<audiochannel>
									<sourcechannel>2</sourcechannel>
									<channellabel>discrete</channellabel>
								</audiochannel>
							</audio>
						</media>
					</file>
					<sourcetrack>
						<mediatype>video</mediatype>
					</sourcetrack>
					<fielddominance>none</fielddominance>
					<itemhistory>
						<uuid>8DB9347D-65BA-4DBE-904E-29D40458FD1C</uuid>
						<uuid>20AEB44B-4DA8-4D20-9429-F0C5EE10F66B</uuid>
					</itemhistory>
				</clipitem>
				<clipitem id="Rodrigo039 ">
					<name>Rodrigo039</name>
					<duration>75</duration>
					<rate>
						<ntsc>FALSE</ntsc>
						<timebase>25</timebase>
					</rate>
					<in>0</in>
					<out>75</out>
					<start>130871</start>
					<end>130946</end>
					<pixelaspectratio>Square</pixelaspectratio>
					<anamorphic>FALSE</anamorphic>
					<alphatype>none</alphatype>
					<logginginfo>
						<scene/>
						<shottake/>
						<lognote/>
						<good>FALSE</good>
					</logginginfo>
					<labels>
						<label2/>
					</labels>
					<comments>
						<mastercomment1/>
						<mastercomment2/>
						<mastercomment3/>
						<mastercomment4/>
					</comments>
					<file id="Rodrigo039 1">
						<name>Rodrigo039</name>
						<pathurl>file://localhost/Volumes/Michael's%20Passport/woodbdrigenov2011media/Rodrigo039</pathurl>
						<rate>
							<timebase>25</timebase>
						</rate>
						<duration>75</duration>
						<metadata>
							<storage>QuickTime</storage>
							<key>com.apple.finalcutstudio.media.uuid</key>
							<size>36</size>
							<type>UTF8</type>
							<value>39982D4B-E3B3-4DEB-BFD9-9AF05B1C65D4</value>
						</metadata>
						<metadata>
							<storage>QuickTime</storage>
							<key>com.apple.finalcutstudio.media.history.uuid</key>
							<size>36</size>
							<type>UTF8</type>
							<value>FD632B39-25FA-4D42-A07E-58182F15722D</value>
						</metadata>
						<media>
							<video>
								<duration>75</duration>
								<samplecharacteristics>
									<width>1280</width>
									<height>720</height>
								</samplecharacteristics>
							</video>
							<audio>
								<samplecharacteristics>
									<samplerate>48000</samplerate>
									<depth>16</depth>
								</samplecharacteristics>
								<channelcount>1</channelcount>
								<layout>mono</layout>
								<audiochannel>
									<sourcechannel>1</sourcechannel>
									<channellabel>discrete</channellabel>
								</audiochannel>
							</audio>
							<audio>
								<samplecharacteristics>
									<samplerate>48000</samplerate>
									<depth>16</depth>
								</samplecharacteristics>
								<channelcount>1</channelcount>
								<layout>mono</layout>
								<audiochannel>
									<sourcechannel>2</sourcechannel>
									<channellabel>discrete</channellabel>
								</audiochannel>
							</audio>
						</media>
					</file>
					<sourcetrack>
						<mediatype>video</mediatype>
					</sourcetrack>
					<fielddominance>none</fielddominance>
					<itemhistory>
						<uuid>DBFCB516-0FD8-44D2-B152-C9D717AF603E</uuid>
						<uuid>05258C3E-8663-4BEC-9F3F-94962ECBFAFF</uuid>
					</itemhistory>
				</clipitem>
				<enabled>TRUE</enabled>
				<locked>FALSE</locked>
			</track>
			<track>
				<clipitem id="StephenConquer001 ">
					<name>StephenConquer001</name>
					<duration>1041</duration>
					<rate>
						<ntsc>FALSE</ntsc>
						<timebase>25</timebase>
					</rate>
					<in>0</in>
					<out>1041</out>
					<start>12691</start>
					<end>13732</end>
					<pixelaspectratio>Square</pixelaspectratio>
					<anamorphic>FALSE</anamorphic>
					<alphatype>none</alphatype>
					<logginginfo>
						<scene/>
						<shottake/>
						<lognote/>
						<good>FALSE</good>
					</logginginfo>
					<labels>
						<label2/>
					</labels>
					<comments>
						<mastercomment1/>
						<mastercomment2/>
						<mastercomment3/>
						<mastercomment4/>
					</comments>
					<file id="StephenConquer001 1">
						<name>StephenConquer001</name>
						<pathurl>file://localhost/Volumes/Michael's%20Passport/woodbdrigenov2011media/StephenConquer001</pathurl>
						<rate>
							<timebase>25</timebase>
						</rate>
						<duration>1041</duration>
						<metadata>
							<storage>QuickTime</storage>
							<key>com.apple.finalcutstudio.media.uuid</key>
							<size>36</size>
							<type>UTF8</type>
							<value>8D05B9F2-3ED7-4AE1-807C-A1716609287C</value>
						</metadata>
						<metadata>
							<storage>QuickTime</storage>
							<key>com.apple.finalcutstudio.media.history.uuid</key>
							<size>36</size>
							<type>UTF8</type>
							<value>009904A7-1D62-4814-A62E-AE9747F577FD</value>
						</metadata>
						<media>
							<video>
								<duration>1041</duration>
								<samplecharacteristics>
									<width>1280</width>
									<height>720</height>
								</samplecharacteristics>
							</video>
							<audio>
								<samplecharacteristics>
									<samplerate>48000</samplerate>
									<depth>16</depth>
								</samplecharacteristics>
								<channelcount>2</channelcount>
								<layout>stereo</layout>
								<audiochannel>
									<sourcechannel>1</sourcechannel>
									<channellabel>left</channellabel>
								</audiochannel>
								<audiochannel>
									<sourcechannel>2</sourcechannel>
									<channellabel>right</channellabel>
								</audiochannel>
							</audio>
						</media>
					</file>
					<sourcetrack>
						<mediatype>video</mediatype>
					</sourcetrack>
					<link>
						<linkclipref>StephenConquer001 </linkclipref>
						<mediatype>video</mediatype>
						<trackindex>6</trackindex>
						<clipindex>1</clipindex>
					</link>
					<link>
						<linkclipref>StephenConquer001 2</linkclipref>
						<mediatype>audio</mediatype>
						<trackindex>17</trackindex>
						<clipindex>1</clipindex>
						<groupindex>1</groupindex>
					</link>
					<link>
						<linkclipref>StephenConquer001 3</linkclipref>
						<mediatype>audio</mediatype>
						<trackindex>18</trackindex>
						<clipindex>1</clipindex>
						<groupindex>1</groupindex>
					</link>
					<fielddominance>none</fielddominance>
					<itemhistory>
						<uuid>42AB4CFD-C371-46F8-A066-CD4E2AFE30D0</uuid>
						<uuid>3CDA6D0A-BE72-4D9A-B9F2-FA704901AF11</uuid>
					</itemhistory>
				</clipitem>
				<clipitem id="StephenConquer002Subclipa">
					<name>StephenConquer002Subclipa</name>
					<duration>400</duration>
					<rate>
						<ntsc>FALSE</ntsc>
						<timebase>25</timebase>
					</rate>
					<in>0</in>
					<out>399</out>
					<start>18907</start>
					<end>19306</end>
					<pixelaspectratio>Square</pixelaspectratio>
					<anamorphic>FALSE</anamorphic>
					<alphatype>none</alphatype>
					<logginginfo>
						<scene/>
						<shottake/>
						<lognote/>
						<good>FALSE</good>
					</logginginfo>
					<labels>
						<label2/>
					</labels>
					<comments>
						<mastercomment1/>
						<mastercomment2/>
						<mastercomment3/>
						<mastercomment4/>
					</comments>
					<file id="StephenConquer002Subclipa1">
						<name>StephenConquer002Subclipa</name>
						<pathurl>file://localhost/Volumes/Michael's%20Passport/woodbdrigenov2011media/StephenConquer002Subclipa</pathurl>
						<rate>
							<timebase>25</timebase>
						</rate>
						<duration>400</duration>
						<metadata>
							<storage>QuickTime</storage>
							<key>com.apple.finalcutstudio.media.uuid</key>
							<size>36</size>
							<type>UTF8</type>
							<value>ED7BDDDF-A1F3-47C3-9D53-763069F8CB34</value>
						</metadata>
						<metadata>
							<storage>QuickTime</storage>
							<key>com.apple.finalcutstudio.media.history.uuid</key>
							<size>36</size>
							<type>UTF8</type>
							<value>3FD6935F-198B-4E42-B874-673F4C30A811</value>
						</metadata>
						<media>
							<video>
								<duration>400</duration>
								<samplecharacteristics>
									<width>1280</width>
									<height>720</height>
								</samplecharacteristics>
							</video>
							<audio>
								<samplecharacteristics>
									<samplerate>48000</samplerate>
									<depth>16</depth>
								</samplecharacteristics>
								<channelcount>2</channelcount>
								<layout>stereo</layout>
								<audiochannel>
									<sourcechannel>1</sourcechannel>
									<channellabel>left</channellabel>
								</audiochannel>
								<audiochannel>
									<sourcechannel>2</sourcechannel>
									<channellabel>right</channellabel>
								</audiochannel>
							</audio>
						</media>
					</file>
					<sourcetrack>
						<mediatype>video</mediatype>
					</sourcetrack>
					<fielddominance>none</fielddominance>
					<itemhistory>
						<uuid>46CA053B-A34A-4FD3-8F46-23BE77D480C5</uuid>
						<uuid>3C0749AD-91E6-43F5-B993-3EAF7A89F85F</uuid>
					</itemhistory>
				</clipitem>
				<clipitem id="StephenConquer002Subclipb">
					<name>StephenConquer002Subclipb</name>
					<duration>591</duration>
					<rate>
						<ntsc>FALSE</ntsc>
						<timebase>25</timebase>
					</rate>
					<in>0</in>
					<out>591</out>
					<start>19306</start>
					<end>19897</end>
					<pixelaspectratio>Square</pixelaspectratio>
					<anamorphic>FALSE</anamorphic>
					<alphatype>none</alphatype>
					<logginginfo>
						<scene/>
						<shottake/>
						<lognote/>
						<good>FALSE</good>
					</logginginfo>
					<labels>
						<label2/>
					</labels>
					<comments>
						<mastercomment1/>
						<mastercomment2/>
						<mastercomment3/>
						<mastercomment4/>
					</comments>
					<file id="StephenConquer002Subclipb1">
						<name>StephenConquer002Subclipb</name>
						<pathurl>file://localhost/Volumes/Michael's%20Passport/woodbdrigenov2011media/StephenConquer002Subclipb</pathurl>
						<rate>
							<timebase>25</timebase>
						</rate>
						<duration>591</duration>
						<metadata>
							<storage>QuickTime</storage>
							<key>com.apple.finalcutstudio.media.uuid</key>
							<size>36</size>
							<type>UTF8</type>
							<value>CC7F2E36-AD2B-480A-BCF5-2BB800A7444E</value>
						</metadata>
						<metadata>
							<storage>QuickTime</storage>
							<key>com.apple.finalcutstudio.media.history.uuid</key>
							<size>36</size>
							<type>UTF8</type>
							<value>3FD6935F-198B-4E42-B874-673F4C30A811</value>
						</metadata>
						<media>
							<video>
								<duration>591</duration>
								<samplecharacteristics>
									<width>1280</width>
									<height>720</height>
								</samplecharacteristics>
							</video>
							<audio>
								<samplecharacteristics>
									<samplerate>48000</samplerate>
									<depth>16</depth>
								</samplecharacteristics>
								<channelcount>2</channelcount>
								<layout>stereo</layout>
								<audiochannel>
									<sourcechannel>1</sourcechannel>
									<channellabel>left</channellabel>
								</audiochannel>
								<audiochannel>
									<sourcechannel>2</sourcechannel>
									<channellabel>right</channellabel>
								</audiochannel>
							</audio>
						</media>
					</file>
					<sourcetrack>
						<mediatype>video</mediatype>
					</sourcetrack>
					<fielddominance>none</fielddominance>
					<itemhistory>
						<uuid>09952929-DE79-4556-8D64-485886E2346F</uuid>
						<uuid>73FCBE73-0B80-4A2A-B73C-83FBEED71B70</uuid>
					</itemhistory>
				</clipitem>
				<clipitem id="StephenConquer002Subclipc">
					<name>StephenConquer002Subclipc</name>
					<duration>689</duration>
					<rate>
						<ntsc>FALSE</ntsc>
						<timebase>25</timebase>
					</rate>
					<in>0</in>
					<out>688</out>
					<start>19897</start>
					<end>20585</end>
					<pixelaspectratio>Square</pixelaspectratio>
					<anamorphic>FALSE</anamorphic>
					<alphatype>none</alphatype>
					<logginginfo>
						<scene/>
						<shottake/>
						<lognote/>
						<good>FALSE</good>
					</logginginfo>
					<labels>
						<label2/>
					</labels>
					<comments>
						<mastercomment1/>
						<mastercomment2/>
						<mastercomment3/>
						<mastercomment4/>
					</comments>
					<file id="StephenConquer002Subclipc1">
						<name>StephenConquer002Subclipc</name>
						<pathurl>file://localhost/Volumes/Michael's%20Passport/woodbdrigenov2011media/StephenConquer002Subclipc</pathurl>
						<rate>
							<timebase>25</timebase>
						</rate>
						<duration>689</duration>
						<metadata>
							<storage>QuickTime</storage>
							<key>com.apple.finalcutstudio.media.uuid</key>
							<size>36</size>
							<type>UTF8</type>
							<value>963E6946-3695-4E11-821C-48C3BDB125A2</value>
						</metadata>
						<metadata>
							<storage>QuickTime</storage>
							<key>com.apple.finalcutstudio.media.history.uuid</key>
							<size>36</size>
							<type>UTF8</type>
							<value>3FD6935F-198B-4E42-B874-673F4C30A811</value>
						</metadata>
						<media>
							<video>
								<duration>689</duration>
								<samplecharacteristics>
									<width>1280</width>
									<height>720</height>
								</samplecharacteristics>
							</video>
							<audio>
								<samplecharacteristics>
									<samplerate>48000</samplerate>
									<depth>16</depth>
								</samplecharacteristics>
								<channelcount>2</channelcount>
								<layout>stereo</layout>
								<audiochannel>
									<sourcechannel>1</sourcechannel>
									<channellabel>left</channellabel>
								</audiochannel>
								<audiochannel>
									<sourcechannel>2</sourcechannel>
									<channellabel>right</channellabel>
								</audiochannel>
							</audio>
						</media>
					</file>
					<sourcetrack>
						<mediatype>video</mediatype>
					</sourcetrack>
					<fielddominance>none</fielddominance>
					<itemhistory>
						<uuid>2EE821DE-2B32-460E-80F2-8BD0D22117A6</uuid>
						<uuid>62EB790C-CDD6-4BAD-A000-16EFEBA7EF9C</uuid>
					</itemhistory>
				</clipitem>
				<clipitem id="StephenConquer003 ">
					<name>StephenConquer003</name>
					<duration>188</duration>
					<rate>
						<ntsc>FALSE</ntsc>
						<timebase>25</timebase>
					</rate>
					<in>0</in>
					<out>187</out>
					<start>23810</start>
					<end>23997</end>
					<pixelaspectratio>Square</pixelaspectratio>
					<anamorphic>FALSE</anamorphic>
					<alphatype>none</alphatype>
					<logginginfo>
						<scene/>
						<shottake/>
						<lognote/>
						<good>FALSE</good>
					</logginginfo>
					<labels>
						<label2/>
					</labels>
					<comments>
						<mastercomment1/>
						<mastercomment2/>
						<mastercomment3/>
						<mastercomment4/>
					</comments>
					<file id="StephenConquer003 1">
						<name>StephenConquer003</name>
						<pathurl>file://localhost/Volumes/Michael's%20Passport/woodbdrigenov2011media/StephenConquer003</pathurl>
						<rate>
							<timebase>25</timebase>
						</rate>
						<duration>188</duration>
						<metadata>
							<storage>QuickTime</storage>
							<key>com.apple.finalcutstudio.media.uuid</key>
							<size>36</size>
							<type>UTF8</type>
							<value>3D479812-DA0C-493F-BB02-69B7861A3B85</value>
						</metadata>
						<metadata>
							<storage>QuickTime</storage>
							<key>com.apple.finalcutstudio.media.history.uuid</key>
							<size>36</size>
							<type>UTF8</type>
							<value>9A1288EA-6074-4D05-BB41-70AE06034845</value>
						</metadata>
						<media>
							<video>
								<duration>188</duration>
								<samplecharacteristics>
									<width>1280</width>
									<height>720</height>
								</samplecharacteristics>
							</video>
							<audio>
								<samplecharacteristics>
									<samplerate>48000</samplerate>
									<depth>16</depth>
								</samplecharacteristics>
								<channelcount>2</channelcount>
								<layout>stereo</layout>
								<audiochannel>
									<sourcechannel>1</sourcechannel>
									<channellabel>left</channellabel>
								</audiochannel>
								<audiochannel>
									<sourcechannel>2</sourcechannel>
									<channellabel>right</channellabel>
								</audiochannel>
							</audio>
						</media>
					</file>
					<sourcetrack>
						<mediatype>video</mediatype>
					</sourcetrack>
					<fielddominance>none</fielddominance>
					<itemhistory>
						<uuid>0DB8D03D-2B8F-4CC7-B592-20748132BB75</uuid>
						<uuid>DFD875D4-274A-4012-B5AC-4BE7F374A580</uuid>
					</itemhistory>
				</clipitem>
				<clipitem id="StephenConquer004Subclipa">
					<name>StephenConquer004Subclipa</name>
					<duration>1039</duration>
					<rate>
						<ntsc>FALSE</ntsc>
						<timebase>25</timebase>
					</rate>
					<in>0</in>
					<out>1038</out>
					<start>24280</start>
					<end>25318</end>
					<pixelaspectratio>Square</pixelaspectratio>
					<anamorphic>FALSE</anamorphic>
					<alphatype>none</alphatype>
					<logginginfo>
						<scene/>
						<shottake/>
						<lognote/>
						<good>FALSE</good>
					</logginginfo>
					<labels>
						<label2/>
					</labels>
					<comments>
						<mastercomment1/>
						<mastercomment2/>
						<mastercomment3/>
						<mastercomment4/>
					</comments>
					<file id="StephenConquer004Subclipa1">
						<name>StephenConquer004Subclipa</name>
						<pathurl>file://localhost/Volumes/Michael's%20Passport/woodbdrigenov2011media/StephenConquer004Subclipa</pathurl>
						<rate>
							<timebase>25</timebase>
						</rate>
						<duration>1039</duration>
						<metadata>
							<storage>QuickTime</storage>
							<key>com.apple.finalcutstudio.media.uuid</key>
							<size>36</size>
							<type>UTF8</type>
							<value>17788FA2-9803-4CFF-B7B5-19313D28F7CA</value>
						</metadata>
						<metadata>
							<storage>QuickTime</storage>
							<key>com.apple.finalcutstudio.media.history.uuid</key>
							<size>36</size>
							<type>UTF8</type>
							<value>5C70A91C-C0B9-4B8F-9FB4-79513C7B8712</value>
						</metadata>
						<media>
							<video>
								<duration>1039</duration>
								<samplecharacteristics>
									<width>1280</width>
									<height>720</height>
								</samplecharacteristics>
							</video>
							<audio>
								<samplecharacteristics>
									<samplerate>48000</samplerate>
									<depth>16</depth>
								</samplecharacteristics>
								<channelcount>2</channelcount>
								<layout>stereo</layout>
								<audiochannel>
									<sourcechannel>1</sourcechannel>
									<channellabel>left</channellabel>
								</audiochannel>
								<audiochannel>
									<sourcechannel>2</sourcechannel>
									<channellabel>right</channellabel>
								</audiochannel>
							</audio>
						</media>
					</file>
					<sourcetrack>
						<mediatype>video</mediatype>
					</sourcetrack>
					<fielddominance>none</fielddominance>
					<itemhistory>
						<uuid>B4C868BF-1284-405B-94BD-B6C5AFFE6BCC</uuid>
						<uuid>7F8347DD-9BC7-40CC-A051-11CCCB9932EF</uuid>
					</itemhistory>
				</clipitem>
				<clipitem id="StephenConquer004Subclipb">
					<name>StephenConquer004Subclipb</name>
					<duration>194</duration>
					<rate>
						<ntsc>FALSE</ntsc>
						<timebase>25</timebase>
					</rate>
					<in>0</in>
					<out>194</out>
					<start>25319</start>
					<end>25513</end>
					<pixelaspectratio>Square</pixelaspectratio>
					<anamorphic>FALSE</anamorphic>
					<alphatype>none</alphatype>
					<logginginfo>
						<scene/>
						<shottake/>
						<lognote/>
						<good>FALSE</good>
					</logginginfo>
					<labels>
						<label2/>
					</labels>
					<comments>
						<mastercomment1/>
						<mastercomment2/>
						<mastercomment3/>
						<mastercomment4/>
					</comments>
					<file id="StephenConquer004Subclipb1">
						<name>StephenConquer004Subclipb</name>
						<pathurl>file://localhost/Volumes/Michael's%20Passport/woodbdrigenov2011media/StephenConquer004Subclipb</pathurl>
						<rate>
							<timebase>25</timebase>
						</rate>
						<duration>194</duration>
						<metadata>
							<storage>QuickTime</storage>
							<key>com.apple.finalcutstudio.media.uuid</key>
							<size>36</size>
							<type>UTF8</type>
							<value>511C4659-5890-4FFE-B60F-CF0C8C671C2E</value>
						</metadata>
						<metadata>
							<storage>QuickTime</storage>
							<key>com.apple.finalcutstudio.media.history.uuid</key>
							<size>36</size>
							<type>UTF8</type>
							<value>5C70A91C-C0B9-4B8F-9FB4-79513C7B8712</value>
						</metadata>
						<media>
							<video>
								<duration>194</duration>
								<samplecharacteristics>
									<width>1280</width>
									<height>720</height>
								</samplecharacteristics>
							</video>
							<audio>
								<samplecharacteristics>
									<samplerate>48000</samplerate>
									<depth>16</depth>
								</samplecharacteristics>
								<channelcount>2</channelcount>
								<layout>stereo</layout>
								<audiochannel>
									<sourcechannel>1</sourcechannel>
									<channellabel>left</channellabel>
								</audiochannel>
								<audiochannel>
									<sourcechannel>2</sourcechannel>
									<channellabel>right</channellabel>
								</audiochannel>
							</audio>
						</media>
					</file>
					<sourcetrack>
						<mediatype>video</mediatype>
					</sourcetrack>
					<fielddominance>none</fielddominance>
					<itemhistory>
						<uuid>2422234D-E60E-4C4B-ADBE-E76A6D1BF118</uuid>
						<uuid>9910F2CB-7EDC-4935-8672-087A4A264AF0</uuid>
					</itemhistory>
				</clipitem>
				<clipitem id="StephenConquer006Subclipa">
					<name>StephenConquer006Subclipa</name>
					<duration>122</duration>
					<rate>
						<ntsc>FALSE</ntsc>
						<timebase>25</timebase>
					</rate>
					<in>0</in>
					<out>121</out>
					<start>32900</start>
					<end>33021</end>
					<pixelaspectratio>Square</pixelaspectratio>
					<anamorphic>FALSE</anamorphic>
					<alphatype>none</alphatype>
					<logginginfo>
						<scene/>
						<shottake/>
						<lognote/>
						<good>FALSE</good>
					</logginginfo>
					<labels>
						<label2/>
					</labels>
					<comments>
						<mastercomment1/>
						<mastercomment2/>
						<mastercomment3/>
						<mastercomment4/>
					</comments>
					<file id="StephenConquer006Subclipa1">
						<name>StephenConquer006Subclipa</name>
						<pathurl>file://localhost/Volumes/Michael's%20Passport/woodbdrigenov2011media/StephenConquer006Subclipa</pathurl>
						<rate>
							<timebase>25</timebase>
						</rate>
						<duration>122</duration>
						<metadata>
							<storage>QuickTime</storage>
							<key>com.apple.finalcutstudio.media.uuid</key>
							<size>36</size>
							<type>UTF8</type>
							<value>89E96246-ED3F-4236-803D-0D7791657C0C</value>
						</metadata>
						<metadata>
							<storage>QuickTime</storage>
							<key>com.apple.finalcutstudio.media.history.uuid</key>
							<size>36</size>
							<type>UTF8</type>
							<value>28075DCD-CA77-45C8-836A-17F29D9706ED</value>
						</metadata>
						<media>
							<video>
								<duration>122</duration>
								<samplecharacteristics>
									<width>1280</width>
									<height>720</height>
								</samplecharacteristics>
							</video>
							<audio>
								<samplecharacteristics>
									<samplerate>48000</samplerate>
									<depth>16</depth>
								</samplecharacteristics>
								<channelcount>2</channelcount>
								<layout>stereo</layout>
								<audiochannel>
									<sourcechannel>1</sourcechannel>
									<channellabel>left</channellabel>
								</audiochannel>
								<audiochannel>
									<sourcechannel>2</sourcechannel>
									<channellabel>right</channellabel>
								</audiochannel>
							</audio>
						</media>
					</file>
					<sourcetrack>
						<mediatype>video</mediatype>
					</sourcetrack>
					<fielddominance>none</fielddominance>
					<itemhistory>
						<uuid>B5EB4B52-4185-43DC-A089-F1519FCBACA5</uuid>
						<uuid>65572F7D-9DF7-483E-A2EC-FFADBE1C68BF</uuid>
					</itemhistory>
				</clipitem>
				<clipitem id="StephenConquer006Subclipb">
					<name>StephenConquer006Subclipb</name>
					<duration>313</duration>
					<rate>
						<ntsc>FALSE</ntsc>
						<timebase>25</timebase>
					</rate>
					<in>0</in>
					<out>313</out>
					<start>33021</start>
					<end>33334</end>
					<pixelaspectratio>Square</pixelaspectratio>
					<anamorphic>FALSE</anamorphic>
					<alphatype>none</alphatype>
					<logginginfo>
						<scene/>
						<shottake/>
						<lognote/>
						<good>FALSE</good>
					</logginginfo>
					<labels>
						<label2/>
					</labels>
					<comments>
						<mastercomment1/>
						<mastercomment2/>
						<mastercomment3/>
						<mastercomment4/>
					</comments>
					<file id="StephenConquer006Subclipb1">
						<name>StephenConquer006Subclipb</name>
						<pathurl>file://localhost/Volumes/Michael's%20Passport/woodbdrigenov2011media/StephenConquer006Subclipb</pathurl>
						<rate>
							<timebase>25</timebase>
						</rate>
						<duration>313</duration>
						<metadata>
							<storage>QuickTime</storage>
							<key>com.apple.finalcutstudio.media.uuid</key>
							<size>36</size>
							<type>UTF8</type>
							<value>F5B5CE34-4839-4AC3-B9C3-1283E029CEBC</value>
						</metadata>
						<metadata>
							<storage>QuickTime</storage>
							<key>com.apple.finalcutstudio.media.history.uuid</key>
							<size>36</size>
							<type>UTF8</type>
							<value>28075DCD-CA77-45C8-836A-17F29D9706ED</value>
						</metadata>
						<media>
							<video>
								<duration>313</duration>
								<samplecharacteristics>
									<width>1280</width>
									<height>720</height>
								</samplecharacteristics>
							</video>
							<audio>
								<samplecharacteristics>
									<samplerate>48000</samplerate>
									<depth>16</depth>
								</samplecharacteristics>
								<channelcount>2</channelcount>
								<layout>stereo</layout>
								<audiochannel>
									<sourcechannel>1</sourcechannel>
									<channellabel>left</channellabel>
								</audiochannel>
								<audiochannel>
									<sourcechannel>2</sourcechannel>
									<channellabel>right</channellabel>
								</audiochannel>
							</audio>
						</media>
					</file>
					<sourcetrack>
						<mediatype>video</mediatype>
					</sourcetrack>
					<fielddominance>none</fielddominance>
					<itemhistory>
						<uuid>6D9043A6-BC9D-42F3-AE2A-03473A9B666E</uuid>
						<uuid>8CFBF1C2-4C80-4AEA-9D0B-7BB7A0B1F00F</uuid>
					</itemhistory>
				</clipitem>
				<clipitem id="StephenConquer006Subclipc">
					<name>StephenConquer006Subclipc</name>
					<duration>208</duration>
					<rate>
						<ntsc>FALSE</ntsc>
						<timebase>25</timebase>
					</rate>
					<in>0</in>
					<out>208</out>
					<start>33334</start>
					<end>33542</end>
					<pixelaspectratio>Square</pixelaspectratio>
					<anamorphic>FALSE</anamorphic>
					<alphatype>none</alphatype>
					<logginginfo>
						<scene/>
						<shottake/>
						<lognote/>
						<good>FALSE</good>
					</logginginfo>
					<labels>
						<label2/>
					</labels>
					<comments>
						<mastercomment1/>
						<mastercomment2/>
						<mastercomment3/>
						<mastercomment4/>
					</comments>
					<file id="StephenConquer006Subclipc1">
						<name>StephenConquer006Subclipc</name>
						<pathurl>file://localhost/Volumes/Michael's%20Passport/woodbdrigenov2011media/StephenConquer006Subclipc</pathurl>
						<rate>
							<timebase>25</timebase>
						</rate>
						<duration>208</duration>
						<metadata>
							<storage>QuickTime</storage>
							<key>com.apple.finalcutstudio.media.uuid</key>
							<size>36</size>
							<type>UTF8</type>
							<value>6E7DA012-67CF-49FF-AB72-ADAE37ABB58B</value>
						</metadata>
						<metadata>
							<storage>QuickTime</storage>
							<key>com.apple.finalcutstudio.media.history.uuid</key>
							<size>36</size>
							<type>UTF8</type>
							<value>28075DCD-CA77-45C8-836A-17F29D9706ED</value>
						</metadata>
						<media>
							<video>
								<duration>208</duration>
								<samplecharacteristics>
									<width>1280</width>
									<height>720</height>
								</samplecharacteristics>
							</video>
							<audio>
								<samplecharacteristics>
									<samplerate>48000</samplerate>
									<depth>16</depth>
								</samplecharacteristics>
								<channelcount>2</channelcount>
								<layout>stereo</layout>
								<audiochannel>
									<sourcechannel>1</sourcechannel>
									<channellabel>left</channellabel>
								</audiochannel>
								<audiochannel>
									<sourcechannel>2</sourcechannel>
									<channellabel>right</channellabel>
								</audiochannel>
							</audio>
						</media>
					</file>
					<sourcetrack>
						<mediatype>video</mediatype>
					</sourcetrack>
					<fielddominance>none</fielddominance>
					<itemhistory>
						<uuid>8BF1B791-1454-47E7-AE67-D25D816817FF</uuid>
						<uuid>D65BB0BA-C0C0-4422-B272-4688552AA871</uuid>
					</itemhistory>
				</clipitem>
				<clipitem id="StephenConquer007Subclipa">
					<name>StephenConquer007Subclipa</name>
					<duration>585</duration>
					<rate>
						<ntsc>FALSE</ntsc>
						<timebase>25</timebase>
					</rate>
					<in>0</in>
					<out>584</out>
					<start>45471</start>
					<end>46055</end>
					<pixelaspectratio>Square</pixelaspectratio>
					<anamorphic>FALSE</anamorphic>
					<alphatype>none</alphatype>
					<logginginfo>
						<scene/>
						<shottake/>
						<lognote/>
						<good>FALSE</good>
					</logginginfo>
					<labels>
						<label2/>
					</labels>
					<comments>
						<mastercomment1/>
						<mastercomment2/>
						<mastercomment3/>
						<mastercomment4/>
					</comments>
					<file id="StephenConquer007Subclipa1">
						<name>StephenConquer007Subclipa</name>
						<pathurl>file://localhost/Volumes/Michael's%20Passport/woodbdrigenov2011media/StephenConquer007Subclipa</pathurl>
						<rate>
							<timebase>25</timebase>
						</rate>
						<duration>585</duration>
						<metadata>
							<storage>QuickTime</storage>
							<key>com.apple.finalcutstudio.media.uuid</key>
							<size>36</size>
							<type>UTF8</type>
							<value>0479E384-D850-4B6C-BC6D-65645DC25282</value>
						</metadata>
						<metadata>
							<storage>QuickTime</storage>
							<key>com.apple.finalcutstudio.media.history.uuid</key>
							<size>36</size>
							<type>UTF8</type>
							<value>C4B2B3D5-A67A-4399-82F4-7717FE4EE3DE</value>
						</metadata>
						<media>
							<video>
								<duration>585</duration>
								<samplecharacteristics>
									<width>1280</width>
									<height>720</height>
								</samplecharacteristics>
							</video>
							<audio>
								<samplecharacteristics>
									<samplerate>48000</samplerate>
									<depth>16</depth>
								</samplecharacteristics>
								<channelcount>2</channelcount>
								<layout>stereo</layout>
								<audiochannel>
									<sourcechannel>1</sourcechannel>
									<channellabel>left</channellabel>
								</audiochannel>
								<audiochannel>
									<sourcechannel>2</sourcechannel>
									<channellabel>right</channellabel>
								</audiochannel>
							</audio>
						</media>
					</file>
					<sourcetrack>
						<mediatype>video</mediatype>
					</sourcetrack>
					<fielddominance>none</fielddominance>
					<itemhistory>
						<uuid>C958A273-8858-4E43-B382-57BF84A44CD3</uuid>
						<uuid>DB4D69DD-C3CF-48E7-9DFD-EC25FE6C4AE8</uuid>
					</itemhistory>
				</clipitem>
				<clipitem id="StephenConquer007Subclipb">
					<name>StephenConquer007Subclipb</name>
					<duration>500</duration>
					<rate>
						<ntsc>FALSE</ntsc>
						<timebase>25</timebase>
					</rate>
					<in>0</in>
					<out>500</out>
					<start>46055</start>
					<end>46555</end>
					<pixelaspectratio>Square</pixelaspectratio>
					<anamorphic>FALSE</anamorphic>
					<alphatype>none</alphatype>
					<logginginfo>
						<scene/>
						<shottake/>
						<lognote/>
						<good>FALSE</good>
					</logginginfo>
					<labels>
						<label2/>
					</labels>
					<comments>
						<mastercomment1/>
						<mastercomment2/>
						<mastercomment3/>
						<mastercomment4/>
					</comments>
					<file id="StephenConquer007Subclipb1">
						<name>StephenConquer007Subclipb</name>
						<pathurl>file://localhost/Volumes/Michael's%20Passport/woodbdrigenov2011media/StephenConquer007Subclipb</pathurl>
						<rate>
							<timebase>25</timebase>
						</rate>
						<duration>500</duration>
						<metadata>
							<storage>QuickTime</storage>
							<key>com.apple.finalcutstudio.media.uuid</key>
							<size>36</size>
							<type>UTF8</type>
							<value>054340BF-CA27-4EE2-85E2-941989B7CC90</value>
						</metadata>
						<metadata>
							<storage>QuickTime</storage>
							<key>com.apple.finalcutstudio.media.history.uuid</key>
							<size>36</size>
							<type>UTF8</type>
							<value>C4B2B3D5-A67A-4399-82F4-7717FE4EE3DE</value>
						</metadata>
						<media>
							<video>
								<duration>500</duration>
								<samplecharacteristics>
									<width>1280</width>
									<height>720</height>
								</samplecharacteristics>
							</video>
							<audio>
								<samplecharacteristics>
									<samplerate>48000</samplerate>
									<depth>16</depth>
								</samplecharacteristics>
								<channelcount>2</channelcount>
								<layout>stereo</layout>
								<audiochannel>
									<sourcechannel>1</sourcechannel>
									<channellabel>left</channellabel>
								</audiochannel>
								<audiochannel>
									<sourcechannel>2</sourcechannel>
									<channellabel>right</channellabel>
								</audiochannel>
							</audio>
						</media>
					</file>
					<sourcetrack>
						<mediatype>video</mediatype>
					</sourcetrack>
					<fielddominance>none</fielddominance>
					<itemhistory>
						<uuid>C3B4DECD-0E26-4F85-A51D-6EB53BACB42A</uuid>
						<uuid>BAD4A882-54CC-4B3D-AC5A-CC604BEE2020</uuid>
					</itemhistory>
				</clipitem>
				<clipitem id="StephenConquer007Subclipc">
					<name>StephenConquer007Subclipc</name>
					<duration>858</duration>
					<rate>
						<ntsc>FALSE</ntsc>
						<timebase>25</timebase>
					</rate>
					<in>0</in>
					<out>858</out>
					<start>46556</start>
					<end>47414</end>
					<pixelaspectratio>Square</pixelaspectratio>
					<anamorphic>FALSE</anamorphic>
					<alphatype>none</alphatype>
					<logginginfo>
						<scene/>
						<shottake/>
						<lognote/>
						<good>FALSE</good>
					</logginginfo>
					<labels>
						<label2/>
					</labels>
					<comments>
						<mastercomment1/>
						<mastercomment2/>
						<mastercomment3/>
						<mastercomment4/>
					</comments>
					<file id="StephenConquer007Subclipc1">
						<name>StephenConquer007Subclipc</name>
						<pathurl>file://localhost/Volumes/Michael's%20Passport/woodbdrigenov2011media/StephenConquer007Subclipc</pathurl>
						<rate>
							<timebase>25</timebase>
						</rate>
						<duration>858</duration>
						<metadata>
							<storage>QuickTime</storage>
							<key>com.apple.finalcutstudio.media.uuid</key>
							<size>36</size>
							<type>UTF8</type>
							<value>04DA7132-46B9-494C-BC32-615D4C5C0DD1</value>
						</metadata>
						<metadata>
							<storage>QuickTime</storage>
							<key>com.apple.finalcutstudio.media.history.uuid</key>
							<size>36</size>
							<type>UTF8</type>
							<value>C4B2B3D5-A67A-4399-82F4-7717FE4EE3DE</value>
						</metadata>
						<media>
							<video>
								<duration>858</duration>
								<samplecharacteristics>
									<width>1280</width>
									<height>720</height>
								</samplecharacteristics>
							</video>
							<audio>
								<samplecharacteristics>
									<samplerate>48000</samplerate>
									<depth>16</depth>
								</samplecharacteristics>
								<channelcount>2</channelcount>
								<layout>stereo</layout>
								<audiochannel>
									<sourcechannel>1</sourcechannel>
									<channellabel>left</channellabel>
								</audiochannel>
								<audiochannel>
									<sourcechannel>2</sourcechannel>
									<channellabel>right</channellabel>
								</audiochannel>
							</audio>
						</media>
					</file>
					<sourcetrack>
						<mediatype>video</mediatype>
					</sourcetrack>
					<fielddominance>none</fielddominance>
					<itemhistory>
						<uuid>8D81763F-1080-4EC3-8C5F-C23F9185CDF9</uuid>
						<uuid>75751EC0-AC54-46E7-9A76-C0C96C344048</uuid>
					</itemhistory>
				</clipitem>
				<clipitem id="StephenConquer008Subclipa">
					<name>StephenConquer008Subclipa</name>
					<duration>445</duration>
					<rate>
						<ntsc>FALSE</ntsc>
						<timebase>25</timebase>
					</rate>
					<in>0</in>
					<out>445</out>
					<start>55005</start>
					<end>55450</end>
					<pixelaspectratio>Square</pixelaspectratio>
					<anamorphic>FALSE</anamorphic>
					<alphatype>none</alphatype>
					<logginginfo>
						<scene/>
						<shottake/>
						<lognote/>
						<good>FALSE</good>
					</logginginfo>
					<labels>
						<label2/>
					</labels>
					<comments>
						<mastercomment1/>
						<mastercomment2/>
						<mastercomment3/>
						<mastercomment4/>
					</comments>
					<file id="StephenConquer008Subclipa1">
						<name>StephenConquer008Subclipa</name>
						<pathurl>file://localhost/Volumes/Michael's%20Passport/woodbdrigenov2011media/StephenConquer008Subclipa</pathurl>
						<rate>
							<timebase>25</timebase>
						</rate>
						<duration>445</duration>
						<metadata>
							<storage>QuickTime</storage>
							<key>com.apple.finalcutstudio.media.uuid</key>
							<size>36</size>
							<type>UTF8</type>
							<value>55760DE7-1A3F-4554-AD63-98A23170782E</value>
						</metadata>
						<metadata>
							<storage>QuickTime</storage>
							<key>com.apple.finalcutstudio.media.history.uuid</key>
							<size>36</size>
							<type>UTF8</type>
							<value>4C3E6FE8-36E4-4A78-A37E-90A0A6CD4A23</value>
						</metadata>
						<media>
							<video>
								<duration>445</duration>
								<samplecharacteristics>
									<width>1280</width>
									<height>720</height>
								</samplecharacteristics>
							</video>
							<audio>
								<samplecharacteristics>
									<samplerate>48000</samplerate>
									<depth>16</depth>
								</samplecharacteristics>
								<channelcount>2</channelcount>
								<layout>stereo</layout>
								<audiochannel>
									<sourcechannel>1</sourcechannel>
									<channellabel>left</channellabel>
								</audiochannel>
								<audiochannel>
									<sourcechannel>2</sourcechannel>
									<channellabel>right</channellabel>
								</audiochannel>
							</audio>
						</media>
					</file>
					<sourcetrack>
						<mediatype>video</mediatype>
					</sourcetrack>
					<fielddominance>none</fielddominance>
					<itemhistory>
						<uuid>088FF25B-E8CD-4C26-B6B9-5C59F828B728</uuid>
						<uuid>89BDB168-204B-4314-B266-5230A1069585</uuid>
					</itemhistory>
				</clipitem>
				<clipitem id="StephenConquer008Subclipb">
					<name>StephenConquer008Subclipb</name>
					<duration>1788</duration>
					<rate>
						<ntsc>FALSE</ntsc>
						<timebase>25</timebase>
					</rate>
					<in>0</in>
					<out>1788</out>
					<start>55450</start>
					<end>57238</end>
					<pixelaspectratio>Square</pixelaspectratio>
					<anamorphic>FALSE</anamorphic>
					<alphatype>none</alphatype>
					<logginginfo>
						<scene/>
						<shottake/>
						<lognote/>
						<good>FALSE</good>
					</logginginfo>
					<labels>
						<label2/>
					</labels>
					<comments>
						<mastercomment1/>
						<mastercomment2/>
						<mastercomment3/>
						<mastercomment4/>
					</comments>
					<file id="StephenConquer008Subclipb1">
						<name>StephenConquer008Subclipb</name>
						<pathurl>file://localhost/Volumes/Michael's%20Passport/woodbdrigenov2011media/StephenConquer008Subclipb</pathurl>
						<rate>
							<timebase>25</timebase>
						</rate>
						<duration>1788</duration>
						<metadata>
							<storage>QuickTime</storage>
							<key>com.apple.finalcutstudio.media.uuid</key>
							<size>36</size>
							<type>UTF8</type>
							<value>1E62F68C-4B48-4B83-84A7-9E6AD514BC3B</value>
						</metadata>
						<metadata>
							<storage>QuickTime</storage>
							<key>com.apple.finalcutstudio.media.history.uuid</key>
							<size>36</size>
							<type>UTF8</type>
							<value>4C3E6FE8-36E4-4A78-A37E-90A0A6CD4A23</value>
						</metadata>
						<media>
							<video>
								<duration>1788</duration>
								<samplecharacteristics>
									<width>1280</width>
									<height>720</height>
								</samplecharacteristics>
							</video>
							<audio>
								<samplecharacteristics>
									<samplerate>48000</samplerate>
									<depth>16</depth>
								</samplecharacteristics>
								<channelcount>2</channelcount>
								<layout>stereo</layout>
								<audiochannel>
									<sourcechannel>1</sourcechannel>
									<channellabel>left</channellabel>
								</audiochannel>
								<audiochannel>
									<sourcechannel>2</sourcechannel>
									<channellabel>right</channellabel>
								</audiochannel>
							</audio>
						</media>
					</file>
					<sourcetrack>
						<mediatype>video</mediatype>
					</sourcetrack>
					<fielddominance>none</fielddominance>
					<itemhistory>
						<uuid>7DA86234-C354-4E22-AF96-4CD645F2AC45</uuid>
						<uuid>08DFA447-166E-4954-8809-F26D6A0E997F</uuid>
					</itemhistory>
				</clipitem>
				<clipitem id="StephenConquer009Subclipa">
					<name>StephenConquer009Subclipa</name>
					<duration>1904</duration>
					<rate>
						<ntsc>FALSE</ntsc>
						<timebase>25</timebase>
					</rate>
					<in>0</in>
					<out>1903</out>
					<start>69122</start>
					<end>71025</end>
					<pixelaspectratio>Square</pixelaspectratio>
					<anamorphic>FALSE</anamorphic>
					<alphatype>none</alphatype>
					<logginginfo>
						<scene/>
						<shottake/>
						<lognote/>
						<good>FALSE</good>
					</logginginfo>
					<labels>
						<label2/>
					</labels>
					<comments>
						<mastercomment1/>
						<mastercomment2/>
						<mastercomment3/>
						<mastercomment4/>
					</comments>
					<file id="StephenConquer009Subclipa1">
						<name>StephenConquer009Subclipa</name>
						<pathurl>file://localhost/Volumes/Michael's%20Passport/woodbdrigenov2011media/StephenConquer009Subclipa</pathurl>
						<rate>
							<timebase>25</timebase>
						</rate>
						<duration>1904</duration>
						<metadata>
							<storage>QuickTime</storage>
							<key>com.apple.finalcutstudio.media.uuid</key>
							<size>36</size>
							<type>UTF8</type>
							<value>4820813D-071E-4722-A2CE-410D8CB482B7</value>
						</metadata>
						<metadata>
							<storage>QuickTime</storage>
							<key>com.apple.finalcutstudio.media.history.uuid</key>
							<size>36</size>
							<type>UTF8</type>
							<value>3BEABA43-E2AC-4AAF-B187-7007F6F949CC</value>
						</metadata>
						<media>
							<video>
								<duration>1904</duration>
								<samplecharacteristics>
									<width>1280</width>
									<height>720</height>
								</samplecharacteristics>
							</video>
							<audio>
								<samplecharacteristics>
									<samplerate>48000</samplerate>
									<depth>16</depth>
								</samplecharacteristics>
								<channelcount>2</channelcount>
								<layout>stereo</layout>
								<audiochannel>
									<sourcechannel>1</sourcechannel>
									<channellabel>left</channellabel>
								</audiochannel>
								<audiochannel>
									<sourcechannel>2</sourcechannel>
									<channellabel>right</channellabel>
								</audiochannel>
							</audio>
						</media>
					</file>
					<sourcetrack>
						<mediatype>video</mediatype>
					</sourcetrack>
					<fielddominance>none</fielddominance>
					<itemhistory>
						<uuid>BFF9FE49-5C65-432D-9A02-2670744C7FE3</uuid>
						<uuid>713046DE-59E5-4DA0-857D-65803A75236F</uuid>
					</itemhistory>
				</clipitem>
				<clipitem id="StephenConquer009Subclipb">
					<name>StephenConquer009Subclipb</name>
					<duration>1056</duration>
					<rate>
						<ntsc>FALSE</ntsc>
						<timebase>25</timebase>
					</rate>
					<in>0</in>
					<out>1056</out>
					<start>71026</start>
					<end>72082</end>
					<pixelaspectratio>Square</pixelaspectratio>
					<anamorphic>FALSE</anamorphic>
					<alphatype>none</alphatype>
					<logginginfo>
						<scene/>
						<shottake/>
						<lognote/>
						<good>FALSE</good>
					</logginginfo>
					<labels>
						<label2/>
					</labels>
					<comments>
						<mastercomment1/>
						<mastercomment2/>
						<mastercomment3/>
						<mastercomment4/>
					</comments>
					<file id="StephenConquer009Subclipb1">
						<name>StephenConquer009Subclipb</name>
						<pathurl>file://localhost/Volumes/Michael's%20Passport/woodbdrigenov2011media/StephenConquer009Subclipb</pathurl>
						<rate>
							<timebase>25</timebase>
						</rate>
						<duration>1056</duration>
						<metadata>
							<storage>QuickTime</storage>
							<key>com.apple.finalcutstudio.media.uuid</key>
							<size>36</size>
							<type>UTF8</type>
							<value>652C181A-9975-4AA9-BFCF-AB57CE6F94CA</value>
						</metadata>
						<metadata>
							<storage>QuickTime</storage>
							<key>com.apple.finalcutstudio.media.history.uuid</key>
							<size>36</size>
							<type>UTF8</type>
							<value>3BEABA43-E2AC-4AAF-B187-7007F6F949CC</value>
						</metadata>
						<media>
							<video>
								<duration>1056</duration>
								<samplecharacteristics>
									<width>1280</width>
									<height>720</height>
								</samplecharacteristics>
							</video>
							<audio>
								<samplecharacteristics>
									<samplerate>48000</samplerate>
									<depth>16</depth>
								</samplecharacteristics>
								<channelcount>2</channelcount>
								<layout>stereo</layout>
								<audiochannel>
									<sourcechannel>1</sourcechannel>
									<channellabel>left</channellabel>
								</audiochannel>
								<audiochannel>
									<sourcechannel>2</sourcechannel>
									<channellabel>right</channellabel>
								</audiochannel>
							</audio>
						</media>
					</file>
					<sourcetrack>
						<mediatype>video</mediatype>
					</sourcetrack>
					<fielddominance>none</fielddominance>
					<itemhistory>
						<uuid>B212368D-90AD-4996-A571-AF054941FF49</uuid>
						<uuid>824766DD-A457-4A09-9CE7-AB90A1A8E0F8</uuid>
					</itemhistory>
				</clipitem>
				<clipitem id="StephenConquer009Subclipc">
					<name>StephenConquer009Subclipc</name>
					<duration>2685</duration>
					<rate>
						<ntsc>FALSE</ntsc>
						<timebase>25</timebase>
					</rate>
					<in>0</in>
					<out>2684</out>
					<start>72083</start>
					<end>74767</end>
					<pixelaspectratio>Square</pixelaspectratio>
					<anamorphic>FALSE</anamorphic>
					<alphatype>none</alphatype>
					<logginginfo>
						<scene/>
						<shottake/>
						<lognote/>
						<good>FALSE</good>
					</logginginfo>
					<labels>
						<label2/>
					</labels>
					<comments>
						<mastercomment1/>
						<mastercomment2/>
						<mastercomment3/>
						<mastercomment4/>
					</comments>
					<file id="StephenConquer009Subclipc1">
						<name>StephenConquer009Subclipc</name>
						<pathurl>file://localhost/Volumes/Michael's%20Passport/woodbdrigenov2011media/StephenConquer009Subclipc</pathurl>
						<rate>
							<timebase>25</timebase>
						</rate>
						<duration>2685</duration>
						<metadata>
							<storage>QuickTime</storage>
							<key>com.apple.finalcutstudio.media.uuid</key>
							<size>36</size>
							<type>UTF8</type>
							<value>01370904-EB00-48A0-92C8-E95496CC54F1</value>
						</metadata>
						<metadata>
							<storage>QuickTime</storage>
							<key>com.apple.finalcutstudio.media.history.uuid</key>
							<size>36</size>
							<type>UTF8</type>
							<value>3BEABA43-E2AC-4AAF-B187-7007F6F949CC</value>
						</metadata>
						<media>
							<video>
								<duration>2685</duration>
								<samplecharacteristics>
									<width>1280</width>
									<height>720</height>
								</samplecharacteristics>
							</video>
							<audio>
								<samplecharacteristics>
									<samplerate>48000</samplerate>
									<depth>16</depth>
								</samplecharacteristics>
								<channelcount>2</channelcount>
								<layout>stereo</layout>
								<audiochannel>
									<sourcechannel>1</sourcechannel>
									<channellabel>left</channellabel>
								</audiochannel>
								<audiochannel>
									<sourcechannel>2</sourcechannel>
									<channellabel>right</channellabel>
								</audiochannel>
							</audio>
						</media>
					</file>
					<sourcetrack>
						<mediatype>video</mediatype>
					</sourcetrack>
					<fielddominance>none</fielddominance>
					<itemhistory>
						<uuid>40B12235-EFE2-4DB6-8932-9B05982BE468</uuid>
						<uuid>4E9F360E-9D1B-4EDA-A445-7259F49A1DE3</uuid>
					</itemhistory>
				</clipitem>
				<clipitem id="StephenConquer010Subclipa">
					<name>StephenConquer010Subclipa</name>
					<duration>353</duration>
					<rate>
						<ntsc>FALSE</ntsc>
						<timebase>25</timebase>
					</rate>
					<in>0</in>
					<out>352</out>
					<start>76281</start>
					<end>76633</end>
					<pixelaspectratio>Square</pixelaspectratio>
					<anamorphic>FALSE</anamorphic>
					<alphatype>none</alphatype>
					<logginginfo>
						<scene/>
						<shottake/>
						<lognote/>
						<good>FALSE</good>
					</logginginfo>
					<labels>
						<label2/>
					</labels>
					<comments>
						<mastercomment1/>
						<mastercomment2/>
						<mastercomment3/>
						<mastercomment4/>
					</comments>
					<file id="StephenConquer010Subclipa1">
						<name>StephenConquer010Subclipa</name>
						<pathurl>file://localhost/Volumes/Michael's%20Passport/woodbdrigenov2011media/StephenConquer010Subclipa</pathurl>
						<rate>
							<timebase>25</timebase>
						</rate>
						<duration>353</duration>
						<metadata>
							<storage>QuickTime</storage>
							<key>com.apple.finalcutstudio.media.uuid</key>
							<size>36</size>
							<type>UTF8</type>
							<value>3D129A68-CE62-425C-A979-E2214CFB668F</value>
						</metadata>
						<metadata>
							<storage>QuickTime</storage>
							<key>com.apple.finalcutstudio.media.history.uuid</key>
							<size>36</size>
							<type>UTF8</type>
							<value>7F908644-42BA-4983-A9C1-76F6D9A9F87C</value>
						</metadata>
						<media>
							<video>
								<duration>353</duration>
								<samplecharacteristics>
									<width>1280</width>
									<height>720</height>
								</samplecharacteristics>
							</video>
							<audio>
								<samplecharacteristics>
									<samplerate>48000</samplerate>
									<depth>16</depth>
								</samplecharacteristics>
								<channelcount>2</channelcount>
								<layout>stereo</layout>
								<audiochannel>
									<sourcechannel>1</sourcechannel>
									<channellabel>left</channellabel>
								</audiochannel>
								<audiochannel>
									<sourcechannel>2</sourcechannel>
									<channellabel>right</channellabel>
								</audiochannel>
							</audio>
						</media>
					</file>
					<sourcetrack>
						<mediatype>video</mediatype>
					</sourcetrack>
					<fielddominance>none</fielddominance>
					<itemhistory>
						<uuid>ED11970C-3CDE-419E-8BB5-E82A72F0070F</uuid>
						<uuid>48F381E9-DEE9-47AA-9BC0-CECBAFCCC967</uuid>
					</itemhistory>
				</clipitem>
				<clipitem id="StephenConquer010Subclipb">
					<name>StephenConquer010Subclipb</name>
					<duration>717</duration>
					<rate>
						<ntsc>FALSE</ntsc>
						<timebase>25</timebase>
					</rate>
					<in>0</in>
					<out>717</out>
					<start>76633</start>
					<end>77350</end>
					<pixelaspectratio>Square</pixelaspectratio>
					<anamorphic>FALSE</anamorphic>
					<alphatype>none</alphatype>
					<logginginfo>
						<scene/>
						<shottake/>
						<lognote/>
						<good>FALSE</good>
					</logginginfo>
					<labels>
						<label2/>
					</labels>
					<comments>
						<mastercomment1/>
						<mastercomment2/>
						<mastercomment3/>
						<mastercomment4/>
					</comments>
					<file id="StephenConquer010Subclipb1">
						<name>StephenConquer010Subclipb</name>
						<pathurl>file://localhost/Volumes/Michael's%20Passport/woodbdrigenov2011media/StephenConquer010Subclipb</pathurl>
						<rate>
							<timebase>25</timebase>
						</rate>
						<duration>717</duration>
						<metadata>
							<storage>QuickTime</storage>
							<key>com.apple.finalcutstudio.media.uuid</key>
							<size>36</size>
							<type>UTF8</type>
							<value>48211994-CA08-47D8-95F2-4DC6025030D7</value>
						</metadata>
						<metadata>
							<storage>QuickTime</storage>
							<key>com.apple.finalcutstudio.media.history.uuid</key>
							<size>36</size>
							<type>UTF8</type>
							<value>7F908644-42BA-4983-A9C1-76F6D9A9F87C</value>
						</metadata>
						<media>
							<video>
								<duration>717</duration>
								<samplecharacteristics>
									<width>1280</width>
									<height>720</height>
								</samplecharacteristics>
							</video>
							<audio>
								<samplecharacteristics>
									<samplerate>48000</samplerate>
									<depth>16</depth>
								</samplecharacteristics>
								<channelcount>2</channelcount>
								<layout>stereo</layout>
								<audiochannel>
									<sourcechannel>1</sourcechannel>
									<channellabel>left</channellabel>
								</audiochannel>
								<audiochannel>
									<sourcechannel>2</sourcechannel>
									<channellabel>right</channellabel>
								</audiochannel>
							</audio>
						</media>
					</file>
					<sourcetrack>
						<mediatype>video</mediatype>
					</sourcetrack>
					<fielddominance>none</fielddominance>
					<itemhistory>
						<uuid>DF96E424-74FC-45D3-B801-BC31C539CB41</uuid>
						<uuid>1F7E39A4-2641-4E4E-957F-8E5659EDF61B</uuid>
					</itemhistory>
				</clipitem>
				<clipitem id="StephenConquer010Subclipc">
					<name>StephenConquer010Subclipc</name>
					<duration>854</duration>
					<rate>
						<ntsc>FALSE</ntsc>
						<timebase>25</timebase>
					</rate>
					<in>0</in>
					<out>854</out>
					<start>77350</start>
					<end>78204</end>
					<pixelaspectratio>Square</pixelaspectratio>
					<anamorphic>FALSE</anamorphic>
					<alphatype>none</alphatype>
					<logginginfo>
						<scene/>
						<shottake/>
						<lognote/>
						<good>FALSE</good>
					</logginginfo>
					<labels>
						<label2/>
					</labels>
					<comments>
						<mastercomment1/>
						<mastercomment2/>
						<mastercomment3/>
						<mastercomment4/>
					</comments>
					<file id="StephenConquer010Subclipc1">
						<name>StephenConquer010Subclipc</name>
						<pathurl>file://localhost/Volumes/Michael's%20Passport/woodbdrigenov2011media/StephenConquer010Subclipc</pathurl>
						<rate>
							<timebase>25</timebase>
						</rate>
						<duration>854</duration>
						<metadata>
							<storage>QuickTime</storage>
							<key>com.apple.finalcutstudio.media.uuid</key>
							<size>36</size>
							<type>UTF8</type>
							<value>DF3EAFE7-620A-426E-A5C6-7EA6D6D64EEC</value>
						</metadata>
						<metadata>
							<storage>QuickTime</storage>
							<key>com.apple.finalcutstudio.media.history.uuid</key>
							<size>36</size>
							<type>UTF8</type>
							<value>7F908644-42BA-4983-A9C1-76F6D9A9F87C</value>
						</metadata>
						<media>
							<video>
								<duration>854</duration>
								<samplecharacteristics>
									<width>1280</width>
									<height>720</height>
								</samplecharacteristics>
							</video>
							<audio>
								<samplecharacteristics>
									<samplerate>48000</samplerate>
									<depth>16</depth>
								</samplecharacteristics>
								<channelcount>2</channelcount>
								<layout>stereo</layout>
								<audiochannel>
									<sourcechannel>1</sourcechannel>
									<channellabel>left</channellabel>
								</audiochannel>
								<audiochannel>
									<sourcechannel>2</sourcechannel>
									<channellabel>right</channellabel>
								</audiochannel>
							</audio>
						</media>
					</file>
					<sourcetrack>
						<mediatype>video</mediatype>
					</sourcetrack>
					<fielddominance>none</fielddominance>
					<itemhistory>
						<uuid>BDA7B62A-DFB6-4793-B319-BF2A2D19AA08</uuid>
						<uuid>7AAAA3FD-C91C-40A9-BD9B-55C844989FC0</uuid>
					</itemhistory>
				</clipitem>
				<clipitem id="StephenConquer011Subclipa">
					<name>StephenConquer011Subclipa</name>
					<duration>746</duration>
					<rate>
						<ntsc>FALSE</ntsc>
						<timebase>25</timebase>
					</rate>
					<in>0</in>
					<out>745</out>
					<start>82817</start>
					<end>83562</end>
					<pixelaspectratio>Square</pixelaspectratio>
					<anamorphic>FALSE</anamorphic>
					<alphatype>none</alphatype>
					<logginginfo>
						<scene/>
						<shottake/>
						<lognote/>
						<good>FALSE</good>
					</logginginfo>
					<labels>
						<label2/>
					</labels>
					<comments>
						<mastercomment1/>
						<mastercomment2/>
						<mastercomment3/>
						<mastercomment4/>
					</comments>
					<file id="StephenConquer011Subclipa1">
						<name>StephenConquer011Subclipa</name>
						<pathurl>file://localhost/Volumes/Michael's%20Passport/woodbdrigenov2011media/StephenConquer011Subclipa</pathurl>
						<rate>
							<timebase>25</timebase>
						</rate>
						<duration>746</duration>
						<metadata>
							<storage>QuickTime</storage>
							<key>com.apple.finalcutstudio.media.uuid</key>
							<size>36</size>
							<type>UTF8</type>
							<value>A8E242D3-F7DC-4720-8779-CDC0E56B4C91</value>
						</metadata>
						<metadata>
							<storage>QuickTime</storage>
							<key>com.apple.finalcutstudio.media.history.uuid</key>
							<size>36</size>
							<type>UTF8</type>
							<value>2E8135AB-EABC-4144-B2C9-29561E6CD6F3</value>
						</metadata>
						<media>
							<video>
								<duration>746</duration>
								<samplecharacteristics>
									<width>1280</width>
									<height>720</height>
								</samplecharacteristics>
							</video>
							<audio>
								<samplecharacteristics>
									<samplerate>48000</samplerate>
									<depth>16</depth>
								</samplecharacteristics>
								<channelcount>2</channelcount>
								<layout>stereo</layout>
								<audiochannel>
									<sourcechannel>1</sourcechannel>
									<channellabel>left</channellabel>
								</audiochannel>
								<audiochannel>
									<sourcechannel>2</sourcechannel>
									<channellabel>right</channellabel>
								</audiochannel>
							</audio>
						</media>
					</file>
					<sourcetrack>
						<mediatype>video</mediatype>
					</sourcetrack>
					<fielddominance>none</fielddominance>
					<itemhistory>
						<uuid>8906C0DD-3CE3-429D-AB90-E7237E4F5AEC</uuid>
						<uuid>5512EDF2-C8E5-4F43-87DA-24F50E8A6FEC</uuid>
					</itemhistory>
				</clipitem>
				<clipitem id="StephenConquer011Subclipb">
					<name>StephenConquer011Subclipb</name>
					<duration>787</duration>
					<rate>
						<ntsc>FALSE</ntsc>
						<timebase>25</timebase>
					</rate>
					<in>0</in>
					<out>786</out>
					<start>83562</start>
					<end>84348</end>
					<pixelaspectratio>Square</pixelaspectratio>
					<anamorphic>FALSE</anamorphic>
					<alphatype>none</alphatype>
					<logginginfo>
						<scene/>
						<shottake/>
						<lognote/>
						<good>FALSE</good>
					</logginginfo>
					<labels>
						<label2/>
					</labels>
					<comments>
						<mastercomment1/>
						<mastercomment2/>
						<mastercomment3/>
						<mastercomment4/>
					</comments>
					<file id="StephenConquer011Subclipb1">
						<name>StephenConquer011Subclipb</name>
						<pathurl>file://localhost/Volumes/Michael's%20Passport/woodbdrigenov2011media/StephenConquer011Subclipb</pathurl>
						<rate>
							<timebase>25</timebase>
						</rate>
						<duration>787</duration>
						<metadata>
							<storage>QuickTime</storage>
							<key>com.apple.finalcutstudio.media.uuid</key>
							<size>36</size>
							<type>UTF8</type>
							<value>3BA72834-E052-4030-8E37-7503BEEA63A1</value>
						</metadata>
						<metadata>
							<storage>QuickTime</storage>
							<key>com.apple.finalcutstudio.media.history.uuid</key>
							<size>36</size>
							<type>UTF8</type>
							<value>2E8135AB-EABC-4144-B2C9-29561E6CD6F3</value>
						</metadata>
						<media>
							<video>
								<duration>787</duration>
								<samplecharacteristics>
									<width>1280</width>
									<height>720</height>
								</samplecharacteristics>
							</video>
							<audio>
								<samplecharacteristics>
									<samplerate>48000</samplerate>
									<depth>16</depth>
								</samplecharacteristics>
								<channelcount>2</channelcount>
								<layout>stereo</layout>
								<audiochannel>
									<sourcechannel>1</sourcechannel>
									<channellabel>left</channellabel>
								</audiochannel>
								<audiochannel>
									<sourcechannel>2</sourcechannel>
									<channellabel>right</channellabel>
								</audiochannel>
							</audio>
						</media>
					</file>
					<sourcetrack>
						<mediatype>video</mediatype>
					</sourcetrack>
					<fielddominance>none</fielddominance>
					<itemhistory>
						<uuid>7207B90A-FEB1-49B4-BAC7-FBB04A38567C</uuid>
						<uuid>7415777B-876B-4BD8-93B9-CDA46E1246DB</uuid>
					</itemhistory>
				</clipitem>
				<clipitem id="StephenConquer011Subclipc">
					<name>StephenConquer011Subclipc</name>
					<duration>788</duration>
					<rate>
						<ntsc>FALSE</ntsc>
						<timebase>25</timebase>
					</rate>
					<in>0</in>
					<out>788</out>
					<start>84349</start>
					<end>85137</end>
					<pixelaspectratio>Square</pixelaspectratio>
					<anamorphic>FALSE</anamorphic>
					<alphatype>none</alphatype>
					<logginginfo>
						<scene/>
						<shottake/>
						<lognote/>
						<good>FALSE</good>
					</logginginfo>
					<labels>
						<label2/>
					</labels>
					<comments>
						<mastercomment1/>
						<mastercomment2/>
						<mastercomment3/>
						<mastercomment4/>
					</comments>
					<file id="StephenConquer011Subclipc1">
						<name>StephenConquer011Subclipc</name>
						<pathurl>file://localhost/Volumes/Michael's%20Passport/woodbdrigenov2011media/StephenConquer011Subclipc</pathurl>
						<rate>
							<timebase>25</timebase>
						</rate>
						<duration>788</duration>
						<metadata>
							<storage>QuickTime</storage>
							<key>com.apple.finalcutstudio.media.uuid</key>
							<size>36</size>
							<type>UTF8</type>
							<value>FD2B9393-D615-49B3-BBD7-19B2E29CAB2A</value>
						</metadata>
						<metadata>
							<storage>QuickTime</storage>
							<key>com.apple.finalcutstudio.media.history.uuid</key>
							<size>36</size>
							<type>UTF8</type>
							<value>2E8135AB-EABC-4144-B2C9-29561E6CD6F3</value>
						</metadata>
						<media>
							<video>
								<duration>788</duration>
								<samplecharacteristics>
									<width>1280</width>
									<height>720</height>
								</samplecharacteristics>
							</video>
							<audio>
								<samplecharacteristics>
									<samplerate>48000</samplerate>
									<depth>16</depth>
								</samplecharacteristics>
								<channelcount>2</channelcount>
								<layout>stereo</layout>
								<audiochannel>
									<sourcechannel>1</sourcechannel>
									<channellabel>left</channellabel>
								</audiochannel>
								<audiochannel>
									<sourcechannel>2</sourcechannel>
									<channellabel>right</channellabel>
								</audiochannel>
							</audio>
						</media>
					</file>
					<sourcetrack>
						<mediatype>video</mediatype>
					</sourcetrack>
					<fielddominance>none</fielddominance>
					<itemhistory>
						<uuid>2B3A59D5-B746-4588-8F8B-599D9C315487</uuid>
						<uuid>4315AA7C-94B9-4C23-AC29-B8250EA01CC7</uuid>
					</itemhistory>
				</clipitem>
				<clipitem id="StephenConquer011Subclipd">
					<name>StephenConquer011Subclipd</name>
					<duration>439</duration>
					<rate>
						<ntsc>FALSE</ntsc>
						<timebase>25</timebase>
					</rate>
					<in>0</in>
					<out>438</out>
					<start>85137</start>
					<end>85575</end>
					<pixelaspectratio>Square</pixelaspectratio>
					<anamorphic>FALSE</anamorphic>
					<alphatype>none</alphatype>
					<logginginfo>
						<scene/>
						<shottake/>
						<lognote/>
						<good>FALSE</good>
					</logginginfo>
					<labels>
						<label2/>
					</labels>
					<comments>
						<mastercomment1/>
						<mastercomment2/>
						<mastercomment3/>
						<mastercomment4/>
					</comments>
					<file id="StephenConquer011Subclipd1">
						<name>StephenConquer011Subclipd</name>
						<pathurl>file://localhost/Volumes/Michael's%20Passport/woodbdrigenov2011media/StephenConquer011Subclipd</pathurl>
						<rate>
							<timebase>25</timebase>
						</rate>
						<duration>439</duration>
						<metadata>
							<storage>QuickTime</storage>
							<key>com.apple.finalcutstudio.media.uuid</key>
							<size>36</size>
							<type>UTF8</type>
							<value>D2A68611-ADE5-4125-8002-2D675EEF1348</value>
						</metadata>
						<metadata>
							<storage>QuickTime</storage>
							<key>com.apple.finalcutstudio.media.history.uuid</key>
							<size>36</size>
							<type>UTF8</type>
							<value>2E8135AB-EABC-4144-B2C9-29561E6CD6F3</value>
						</metadata>
						<media>
							<video>
								<duration>439</duration>
								<samplecharacteristics>
									<width>1280</width>
									<height>720</height>
								</samplecharacteristics>
							</video>
							<audio>
								<samplecharacteristics>
									<samplerate>48000</samplerate>
									<depth>16</depth>
								</samplecharacteristics>
								<channelcount>2</channelcount>
								<layout>stereo</layout>
								<audiochannel>
									<sourcechannel>1</sourcechannel>
									<channellabel>left</channellabel>
								</audiochannel>
								<audiochannel>
									<sourcechannel>2</sourcechannel>
									<channellabel>right</channellabel>
								</audiochannel>
							</audio>
						</media>
					</file>
					<sourcetrack>
						<mediatype>video</mediatype>
					</sourcetrack>
					<fielddominance>none</fielddominance>
					<itemhistory>
						<uuid>0AE1E11F-1824-4471-8106-3DA0790E7FC2</uuid>
						<uuid>DB4A8652-C704-4246-BF9A-1FE9FE1F3CEE</uuid>
					</itemhistory>
				</clipitem>
				<clipitem id="StephenConquer011Subclipe">
					<name>StephenConquer011Subclipe</name>
					<duration>624</duration>
					<rate>
						<ntsc>FALSE</ntsc>
						<timebase>25</timebase>
					</rate>
					<in>0</in>
					<out>623</out>
					<start>85576</start>
					<end>86199</end>
					<pixelaspectratio>Square</pixelaspectratio>
					<anamorphic>FALSE</anamorphic>
					<alphatype>none</alphatype>
					<logginginfo>
						<scene/>
						<shottake/>
						<lognote/>
						<good>FALSE</good>
					</logginginfo>
					<labels>
						<label2/>
					</labels>
					<comments>
						<mastercomment1/>
						<mastercomment2/>
						<mastercomment3/>
						<mastercomment4/>
					</comments>
					<file id="StephenConquer011Subclipe1">
						<name>StephenConquer011Subclipe</name>
						<pathurl>file://localhost/Volumes/Michael's%20Passport/woodbdrigenov2011media/StephenConquer011Subclipe</pathurl>
						<rate>
							<timebase>25</timebase>
						</rate>
						<duration>624</duration>
						<metadata>
							<storage>QuickTime</storage>
							<key>com.apple.finalcutstudio.media.uuid</key>
							<size>36</size>
							<type>UTF8</type>
							<value>A68FE45B-CFF2-47C3-91A8-88CA6FABE43E</value>
						</metadata>
						<metadata>
							<storage>QuickTime</storage>
							<key>com.apple.finalcutstudio.media.history.uuid</key>
							<size>36</size>
							<type>UTF8</type>
							<value>2E8135AB-EABC-4144-B2C9-29561E6CD6F3</value>
						</metadata>
						<media>
							<video>
								<duration>624</duration>
								<samplecharacteristics>
									<width>1280</width>
									<height>720</height>
								</samplecharacteristics>
							</video>
							<audio>
								<samplecharacteristics>
									<samplerate>48000</samplerate>
									<depth>16</depth>
								</samplecharacteristics>
								<channelcount>2</channelcount>
								<layout>stereo</layout>
								<audiochannel>
									<sourcechannel>1</sourcechannel>
									<channellabel>left</channellabel>
								</audiochannel>
								<audiochannel>
									<sourcechannel>2</sourcechannel>
									<channellabel>right</channellabel>
								</audiochannel>
							</audio>
						</media>
					</file>
					<sourcetrack>
						<mediatype>video</mediatype>
					</sourcetrack>
					<fielddominance>none</fielddominance>
					<itemhistory>
						<uuid>DDA7FCC7-4C1C-4490-B047-823603EBDCBA</uuid>
						<uuid>15702055-006A-4B80-BEBF-204FBF390B64</uuid>
					</itemhistory>
				</clipitem>
				<clipitem id="StephenConquer011Subclipf">
					<name>StephenConquer011Subclipf</name>
					<duration>573</duration>
					<rate>
						<ntsc>FALSE</ntsc>
						<timebase>25</timebase>
					</rate>
					<in>0</in>
					<out>573</out>
					<start>86199</start>
					<end>86772</end>
					<pixelaspectratio>Square</pixelaspectratio>
					<anamorphic>FALSE</anamorphic>
					<alphatype>none</alphatype>
					<logginginfo>
						<scene/>
						<shottake/>
						<lognote/>
						<good>FALSE</good>
					</logginginfo>
					<labels>
						<label2/>
					</labels>
					<comments>
						<mastercomment1/>
						<mastercomment2/>
						<mastercomment3/>
						<mastercomment4/>
					</comments>
					<file id="StephenConquer011Subclipf1">
						<name>StephenConquer011Subclipf</name>
						<pathurl>file://localhost/Volumes/Michael's%20Passport/woodbdrigenov2011media/StephenConquer011Subclipf</pathurl>
						<rate>
							<timebase>25</timebase>
						</rate>
						<duration>573</duration>
						<metadata>
							<storage>QuickTime</storage>
							<key>com.apple.finalcutstudio.media.uuid</key>
							<size>36</size>
							<type>UTF8</type>
							<value>48C0F302-6735-469E-8A48-DA2278A0A2D4</value>
						</metadata>
						<metadata>
							<storage>QuickTime</storage>
							<key>com.apple.finalcutstudio.media.history.uuid</key>
							<size>36</size>
							<type>UTF8</type>
							<value>2E8135AB-EABC-4144-B2C9-29561E6CD6F3</value>
						</metadata>
						<media>
							<video>
								<duration>573</duration>
								<samplecharacteristics>
									<width>1280</width>
									<height>720</height>
								</samplecharacteristics>
							</video>
							<audio>
								<samplecharacteristics>
									<samplerate>48000</samplerate>
									<depth>16</depth>
								</samplecharacteristics>
								<channelcount>2</channelcount>
								<layout>stereo</layout>
								<audiochannel>
									<sourcechannel>1</sourcechannel>
									<channellabel>left</channellabel>
								</audiochannel>
								<audiochannel>
									<sourcechannel>2</sourcechannel>
									<channellabel>right</channellabel>
								</audiochannel>
							</audio>
						</media>
					</file>
					<sourcetrack>
						<mediatype>video</mediatype>
					</sourcetrack>
					<fielddominance>none</fielddominance>
					<itemhistory>
						<uuid>9A935015-3188-4884-ABC1-DA9A2C55D34E</uuid>
						<uuid>2D448DAF-D8F0-4AEF-AD41-B005E67B7122</uuid>
					</itemhistory>
				</clipitem>
				<clipitem id="StephenConquer011Subclipg">
					<name>StephenConquer011Subclipg</name>
					<duration>3534</duration>
					<rate>
						<ntsc>FALSE</ntsc>
						<timebase>25</timebase>
					</rate>
					<in>0</in>
					<out>3533</out>
					<start>86772</start>
					<end>90305</end>
					<pixelaspectratio>Square</pixelaspectratio>
					<anamorphic>FALSE</anamorphic>
					<alphatype>none</alphatype>
					<logginginfo>
						<scene/>
						<shottake/>
						<lognote/>
						<good>FALSE</good>
					</logginginfo>
					<labels>
						<label2/>
					</labels>
					<comments>
						<mastercomment1/>
						<mastercomment2/>
						<mastercomment3/>
						<mastercomment4/>
					</comments>
					<file id="StephenConquer011Subclipg1">
						<name>StephenConquer011Subclipg</name>
						<pathurl>file://localhost/Volumes/Michael's%20Passport/woodbdrigenov2011media/StephenConquer011Subclipg</pathurl>
						<rate>
							<timebase>25</timebase>
						</rate>
						<duration>3534</duration>
						<metadata>
							<storage>QuickTime</storage>
							<key>com.apple.finalcutstudio.media.uuid</key>
							<size>36</size>
							<type>UTF8</type>
							<value>F140BE5B-4FC6-4D8B-B74F-F509DA33966E</value>
						</metadata>
						<metadata>
							<storage>QuickTime</storage>
							<key>com.apple.finalcutstudio.media.history.uuid</key>
							<size>36</size>
							<type>UTF8</type>
							<value>2E8135AB-EABC-4144-B2C9-29561E6CD6F3</value>
						</metadata>
						<media>
							<video>
								<duration>3534</duration>
								<samplecharacteristics>
									<width>1280</width>
									<height>720</height>
								</samplecharacteristics>
							</video>
							<audio>
								<samplecharacteristics>
									<samplerate>48000</samplerate>
									<depth>16</depth>
								</samplecharacteristics>
								<channelcount>2</channelcount>
								<layout>stereo</layout>
								<audiochannel>
									<sourcechannel>1</sourcechannel>
									<channellabel>left</channellabel>
								</audiochannel>
								<audiochannel>
									<sourcechannel>2</sourcechannel>
									<channellabel>right</channellabel>
								</audiochannel>
							</audio>
						</media>
					</file>
					<sourcetrack>
						<mediatype>video</mediatype>
					</sourcetrack>
					<fielddominance>none</fielddominance>
					<itemhistory>
						<uuid>A11FB2D8-8379-4B56-B07B-6A4126361AB5</uuid>
						<uuid>0F08425B-F8E5-426C-96F9-7F79D2AE5532</uuid>
					</itemhistory>
				</clipitem>
				<clipitem id="StephenConquer012Subclipa">
					<name>StephenConquer012Subclipa</name>
					<duration>360</duration>
					<rate>
						<ntsc>FALSE</ntsc>
						<timebase>25</timebase>
					</rate>
					<in>0</in>
					<out>360</out>
					<start>91006</start>
					<end>91366</end>
					<pixelaspectratio>Square</pixelaspectratio>
					<anamorphic>FALSE</anamorphic>
					<alphatype>none</alphatype>
					<logginginfo>
						<scene/>
						<shottake/>
						<lognote/>
						<good>FALSE</good>
					</logginginfo>
					<labels>
						<label2/>
					</labels>
					<comments>
						<mastercomment1/>
						<mastercomment2/>
						<mastercomment3/>
						<mastercomment4/>
					</comments>
					<file id="StephenConquer012Subclipa1">
						<name>StephenConquer012Subclipa</name>
						<pathurl>file://localhost/Volumes/Michael's%20Passport/woodbdrigenov2011media/StephenConquer012Subclipa</pathurl>
						<rate>
							<timebase>25</timebase>
						</rate>
						<duration>360</duration>
						<metadata>
							<storage>QuickTime</storage>
							<key>com.apple.finalcutstudio.media.uuid</key>
							<size>36</size>
							<type>UTF8</type>
							<value>2C3B1B5C-EEF8-4358-97F9-1652BC68C7C8</value>
						</metadata>
						<metadata>
							<storage>QuickTime</storage>
							<key>com.apple.finalcutstudio.media.history.uuid</key>
							<size>36</size>
							<type>UTF8</type>
							<value>C077811D-D1F3-4396-90B7-49791CEE1239</value>
						</metadata>
						<media>
							<video>
								<duration>360</duration>
								<samplecharacteristics>
									<width>1280</width>
									<height>720</height>
								</samplecharacteristics>
							</video>
							<audio>
								<samplecharacteristics>
									<samplerate>48000</samplerate>
									<depth>16</depth>
								</samplecharacteristics>
								<channelcount>2</channelcount>
								<layout>stereo</layout>
								<audiochannel>
									<sourcechannel>1</sourcechannel>
									<channellabel>left</channellabel>
								</audiochannel>
								<audiochannel>
									<sourcechannel>2</sourcechannel>
									<channellabel>right</channellabel>
								</audiochannel>
							</audio>
						</media>
					</file>
					<sourcetrack>
						<mediatype>video</mediatype>
					</sourcetrack>
					<fielddominance>none</fielddominance>
					<itemhistory>
						<uuid>50DEBA8F-CA9F-459A-8777-E47E33B52169</uuid>
						<uuid>6270F344-7AAF-469D-99F2-38EBD07D2220</uuid>
					</itemhistory>
				</clipitem>
				<clipitem id="StephenConquer012Subclipb">
					<name>StephenConquer012Subclipb</name>
					<duration>1013</duration>
					<rate>
						<ntsc>FALSE</ntsc>
						<timebase>25</timebase>
					</rate>
					<in>0</in>
					<out>1013</out>
					<start>91366</start>
					<end>92379</end>
					<pixelaspectratio>Square</pixelaspectratio>
					<anamorphic>FALSE</anamorphic>
					<alphatype>none</alphatype>
					<logginginfo>
						<scene/>
						<shottake/>
						<lognote/>
						<good>FALSE</good>
					</logginginfo>
					<labels>
						<label2/>
					</labels>
					<comments>
						<mastercomment1/>
						<mastercomment2/>
						<mastercomment3/>
						<mastercomment4/>
					</comments>
					<file id="StephenConquer012Subclipb1">
						<name>StephenConquer012Subclipb</name>
						<pathurl>file://localhost/Volumes/Michael's%20Passport/woodbdrigenov2011media/StephenConquer012Subclipb</pathurl>
						<rate>
							<timebase>25</timebase>
						</rate>
						<duration>1013</duration>
						<metadata>
							<storage>QuickTime</storage>
							<key>com.apple.finalcutstudio.media.uuid</key>
							<size>36</size>
							<type>UTF8</type>
							<value>0B96D505-08C2-425B-9AB2-D593CA6F78A3</value>
						</metadata>
						<metadata>
							<storage>QuickTime</storage>
							<key>com.apple.finalcutstudio.media.history.uuid</key>
							<size>36</size>
							<type>UTF8</type>
							<value>C077811D-D1F3-4396-90B7-49791CEE1239</value>
						</metadata>
						<media>
							<video>
								<duration>1013</duration>
								<samplecharacteristics>
									<width>1280</width>
									<height>720</height>
								</samplecharacteristics>
							</video>
							<audio>
								<samplecharacteristics>
									<samplerate>48000</samplerate>
									<depth>16</depth>
								</samplecharacteristics>
								<channelcount>2</channelcount>
								<layout>stereo</layout>
								<audiochannel>
									<sourcechannel>1</sourcechannel>
									<channellabel>left</channellabel>
								</audiochannel>
								<audiochannel>
									<sourcechannel>2</sourcechannel>
									<channellabel>right</channellabel>
								</audiochannel>
							</audio>
						</media>
					</file>
					<sourcetrack>
						<mediatype>video</mediatype>
					</sourcetrack>
					<fielddominance>none</fielddominance>
					<itemhistory>
						<uuid>A1ADE0FE-CE2B-4D96-A57C-77FDA6C58B34</uuid>
						<uuid>B35E20DF-9A95-4D32-87B5-13CEF52B9A11</uuid>
					</itemhistory>
				</clipitem>
				<clipitem id="StephenConquer012Subclipc">
					<name>StephenConquer012Subclipc</name>
					<duration>169</duration>
					<rate>
						<ntsc>FALSE</ntsc>
						<timebase>25</timebase>
					</rate>
					<in>0</in>
					<out>168</out>
					<start>92379</start>
					<end>92547</end>
					<pixelaspectratio>Square</pixelaspectratio>
					<anamorphic>FALSE</anamorphic>
					<alphatype>none</alphatype>
					<logginginfo>
						<scene/>
						<shottake/>
						<lognote/>
						<good>FALSE</good>
					</logginginfo>
					<labels>
						<label2/>
					</labels>
					<comments>
						<mastercomment1/>
						<mastercomment2/>
						<mastercomment3/>
						<mastercomment4/>
					</comments>
					<file id="StephenConquer012Subclipc1">
						<name>StephenConquer012Subclipc</name>
						<pathurl>file://localhost/Volumes/Michael's%20Passport/woodbdrigenov2011media/StephenConquer012Subclipc</pathurl>
						<rate>
							<timebase>25</timebase>
						</rate>
						<duration>169</duration>
						<metadata>
							<storage>QuickTime</storage>
							<key>com.apple.finalcutstudio.media.uuid</key>
							<size>36</size>
							<type>UTF8</type>
							<value>410B6107-FC2B-420A-89AD-88C3D27437A4</value>
						</metadata>
						<metadata>
							<storage>QuickTime</storage>
							<key>com.apple.finalcutstudio.media.history.uuid</key>
							<size>36</size>
							<type>UTF8</type>
							<value>C077811D-D1F3-4396-90B7-49791CEE1239</value>
						</metadata>
						<media>
							<video>
								<duration>169</duration>
								<samplecharacteristics>
									<width>1280</width>
									<height>720</height>
								</samplecharacteristics>
							</video>
							<audio>
								<samplecharacteristics>
									<samplerate>48000</samplerate>
									<depth>16</depth>
								</samplecharacteristics>
								<channelcount>2</channelcount>
								<layout>stereo</layout>
								<audiochannel>
									<sourcechannel>1</sourcechannel>
									<channellabel>left</channellabel>
								</audiochannel>
								<audiochannel>
									<sourcechannel>2</sourcechannel>
									<channellabel>right</channellabel>
								</audiochannel>
							</audio>
						</media>
					</file>
					<sourcetrack>
						<mediatype>video</mediatype>
					</sourcetrack>
					<fielddominance>none</fielddominance>
					<itemhistory>
						<uuid>4C8987CC-7AD6-40E9-972E-DDA7E4E830ED</uuid>
						<uuid>4601B798-C567-44F0-AE7A-13CC5F7683E0</uuid>
					</itemhistory>
				</clipitem>
				<clipitem id="StephenConquer012Subclipd">
					<name>StephenConquer012Subclipd</name>
					<duration>356</duration>
					<rate>
						<ntsc>FALSE</ntsc>
						<timebase>25</timebase>
					</rate>
					<in>0</in>
					<out>355</out>
					<start>92547</start>
					<end>92902</end>
					<pixelaspectratio>Square</pixelaspectratio>
					<anamorphic>FALSE</anamorphic>
					<alphatype>none</alphatype>
					<logginginfo>
						<scene/>
						<shottake/>
						<lognote/>
						<good>FALSE</good>
					</logginginfo>
					<labels>
						<label2/>
					</labels>
					<comments>
						<mastercomment1/>
						<mastercomment2/>
						<mastercomment3/>
						<mastercomment4/>
					</comments>
					<file id="StephenConquer012Subclipd1">
						<name>StephenConquer012Subclipd</name>
						<pathurl>file://localhost/Volumes/Michael's%20Passport/woodbdrigenov2011media/StephenConquer012Subclipd</pathurl>
						<rate>
							<timebase>25</timebase>
						</rate>
						<duration>356</duration>
						<metadata>
							<storage>QuickTime</storage>
							<key>com.apple.finalcutstudio.media.uuid</key>
							<size>36</size>
							<type>UTF8</type>
							<value>15CF6E6F-0236-4047-9B9D-6828D05F2F65</value>
						</metadata>
						<metadata>
							<storage>QuickTime</storage>
							<key>com.apple.finalcutstudio.media.history.uuid</key>
							<size>36</size>
							<type>UTF8</type>
							<value>C077811D-D1F3-4396-90B7-49791CEE1239</value>
						</metadata>
						<media>
							<video>
								<duration>356</duration>
								<samplecharacteristics>
									<width>1280</width>
									<height>720</height>
								</samplecharacteristics>
							</video>
							<audio>
								<samplecharacteristics>
									<samplerate>48000</samplerate>
									<depth>16</depth>
								</samplecharacteristics>
								<channelcount>2</channelcount>
								<layout>stereo</layout>
								<audiochannel>
									<sourcechannel>1</sourcechannel>
									<channellabel>left</channellabel>
								</audiochannel>
								<audiochannel>
									<sourcechannel>2</sourcechannel>
									<channellabel>right</channellabel>
								</audiochannel>
							</audio>
						</media>
					</file>
					<sourcetrack>
						<mediatype>video</mediatype>
					</sourcetrack>
					<fielddominance>none</fielddominance>
					<itemhistory>
						<uuid>85934E46-5F56-4B14-AD56-DCC3BEF221D7</uuid>
						<uuid>6D02A274-B843-4333-A83E-BEEA9A0313CC</uuid>
					</itemhistory>
				</clipitem>
				<clipitem id="StephenConquer012Subclipe">
					<name>StephenConquer012Subclipe</name>
					<duration>1325</duration>
					<rate>
						<ntsc>FALSE</ntsc>
						<timebase>25</timebase>
					</rate>
					<in>0</in>
					<out>1324</out>
					<start>92903</start>
					<end>94227</end>
					<pixelaspectratio>Square</pixelaspectratio>
					<anamorphic>FALSE</anamorphic>
					<alphatype>none</alphatype>
					<logginginfo>
						<scene/>
						<shottake/>
						<lognote/>
						<good>FALSE</good>
					</logginginfo>
					<labels>
						<label2/>
					</labels>
					<comments>
						<mastercomment1/>
						<mastercomment2/>
						<mastercomment3/>
						<mastercomment4/>
					</comments>
					<file id="StephenConquer012Subclipe1">
						<name>StephenConquer012Subclipe</name>
						<pathurl>file://localhost/Volumes/Michael's%20Passport/woodbdrigenov2011media/StephenConquer012Subclipe</pathurl>
						<rate>
							<timebase>25</timebase>
						</rate>
						<duration>1325</duration>
						<metadata>
							<storage>QuickTime</storage>
							<key>com.apple.finalcutstudio.media.uuid</key>
							<size>36</size>
							<type>UTF8</type>
							<value>5D07B0BC-6810-47BE-8950-665A4F7337A2</value>
						</metadata>
						<metadata>
							<storage>QuickTime</storage>
							<key>com.apple.finalcutstudio.media.history.uuid</key>
							<size>36</size>
							<type>UTF8</type>
							<value>C077811D-D1F3-4396-90B7-49791CEE1239</value>
						</metadata>
						<media>
							<video>
								<duration>1325</duration>
								<samplecharacteristics>
									<width>1280</width>
									<height>720</height>
								</samplecharacteristics>
							</video>
							<audio>
								<samplecharacteristics>
									<samplerate>48000</samplerate>
									<depth>16</depth>
								</samplecharacteristics>
								<channelcount>2</channelcount>
								<layout>stereo</layout>
								<audiochannel>
									<sourcechannel>1</sourcechannel>
									<channellabel>left</channellabel>
								</audiochannel>
								<audiochannel>
									<sourcechannel>2</sourcechannel>
									<channellabel>right</channellabel>
								</audiochannel>
							</audio>
						</media>
					</file>
					<sourcetrack>
						<mediatype>video</mediatype>
					</sourcetrack>
					<fielddominance>none</fielddominance>
					<itemhistory>
						<uuid>8458BC79-33D3-40FB-A9F9-726A5D9B0570</uuid>
						<uuid>D26AC5C8-F9A1-40EA-87EA-344984C46E29</uuid>
					</itemhistory>
				</clipitem>
				<clipitem id="StephenConquer013Subclipa">
					<name>StephenConquer013Subclipa</name>
					<duration>754</duration>
					<rate>
						<ntsc>FALSE</ntsc>
						<timebase>25</timebase>
					</rate>
					<in>0</in>
					<out>753</out>
					<start>95164</start>
					<end>95917</end>
					<pixelaspectratio>Square</pixelaspectratio>
					<anamorphic>FALSE</anamorphic>
					<alphatype>none</alphatype>
					<logginginfo>
						<scene/>
						<shottake/>
						<lognote/>
						<good>FALSE</good>
					</logginginfo>
					<labels>
						<label2/>
					</labels>
					<comments>
						<mastercomment1/>
						<mastercomment2/>
						<mastercomment3/>
						<mastercomment4/>
					</comments>
					<file id="StephenConquer013Subclipa1">
						<name>StephenConquer013Subclipa</name>
						<pathurl>file://localhost/Volumes/Michael's%20Passport/woodbdrigenov2011media/StephenConquer013Subclipa</pathurl>
						<rate>
							<timebase>25</timebase>
						</rate>
						<duration>754</duration>
						<metadata>
							<storage>QuickTime</storage>
							<key>com.apple.finalcutstudio.media.uuid</key>
							<size>36</size>
							<type>UTF8</type>
							<value>5408E0A8-CAF9-4378-810C-9312300607FE</value>
						</metadata>
						<metadata>
							<storage>QuickTime</storage>
							<key>com.apple.finalcutstudio.media.history.uuid</key>
							<size>36</size>
							<type>UTF8</type>
							<value>7526C70C-712D-49CB-9412-8B832A9A7821</value>
						</metadata>
						<media>
							<video>
								<duration>754</duration>
								<samplecharacteristics>
									<width>1280</width>
									<height>720</height>
								</samplecharacteristics>
							</video>
							<audio>
								<samplecharacteristics>
									<samplerate>48000</samplerate>
									<depth>16</depth>
								</samplecharacteristics>
								<channelcount>2</channelcount>
								<layout>stereo</layout>
								<audiochannel>
									<sourcechannel>1</sourcechannel>
									<channellabel>left</channellabel>
								</audiochannel>
								<audiochannel>
									<sourcechannel>2</sourcechannel>
									<channellabel>right</channellabel>
								</audiochannel>
							</audio>
						</media>
					</file>
					<sourcetrack>
						<mediatype>video</mediatype>
					</sourcetrack>
					<fielddominance>none</fielddominance>
					<itemhistory>
						<uuid>AF7982E1-AB5A-43EA-8438-50EDAE9D2339</uuid>
						<uuid>B5BD1017-24F3-4796-9717-106F79C82201</uuid>
					</itemhistory>
				</clipitem>
				<clipitem id="StephenConquer013Subclipb">
					<name>StephenConquer013Subclipb</name>
					<duration>1855</duration>
					<rate>
						<ntsc>FALSE</ntsc>
						<timebase>25</timebase>
					</rate>
					<in>0</in>
					<out>1854</out>
					<start>95918</start>
					<end>97772</end>
					<pixelaspectratio>Square</pixelaspectratio>
					<anamorphic>FALSE</anamorphic>
					<alphatype>none</alphatype>
					<logginginfo>
						<scene/>
						<shottake/>
						<lognote/>
						<good>FALSE</good>
					</logginginfo>
					<labels>
						<label2/>
					</labels>
					<comments>
						<mastercomment1/>
						<mastercomment2/>
						<mastercomment3/>
						<mastercomment4/>
					</comments>
					<file id="StephenConquer013Subclipb1">
						<name>StephenConquer013Subclipb</name>
						<pathurl>file://localhost/Volumes/Michael's%20Passport/woodbdrigenov2011media/StephenConquer013Subclipb</pathurl>
						<rate>
							<timebase>25</timebase>
						</rate>
						<duration>1855</duration>
						<metadata>
							<storage>QuickTime</storage>
							<key>com.apple.finalcutstudio.media.uuid</key>
							<size>36</size>
							<type>UTF8</type>
							<value>5393CB08-A6FB-4307-BBF8-DEF04E4517E5</value>
						</metadata>
						<metadata>
							<storage>QuickTime</storage>
							<key>com.apple.finalcutstudio.media.history.uuid</key>
							<size>36</size>
							<type>UTF8</type>
							<value>7526C70C-712D-49CB-9412-8B832A9A7821</value>
						</metadata>
						<media>
							<video>
								<duration>1855</duration>
								<samplecharacteristics>
									<width>1280</width>
									<height>720</height>
								</samplecharacteristics>
							</video>
							<audio>
								<samplecharacteristics>
									<samplerate>48000</samplerate>
									<depth>16</depth>
								</samplecharacteristics>
								<channelcount>2</channelcount>
								<layout>stereo</layout>
								<audiochannel>
									<sourcechannel>1</sourcechannel>
									<channellabel>left</channellabel>
								</audiochannel>
								<audiochannel>
									<sourcechannel>2</sourcechannel>
									<channellabel>right</channellabel>
								</audiochannel>
							</audio>
						</media>
					</file>
					<sourcetrack>
						<mediatype>video</mediatype>
					</sourcetrack>
					<fielddominance>none</fielddominance>
					<itemhistory>
						<uuid>7B36CE29-3B2C-4831-ACC1-9DD6A0D5BE1F</uuid>
						<uuid>817ADD2F-5022-4E57-8685-16AA9002F554</uuid>
					</itemhistory>
				</clipitem>
				<clipitem id="StephenConquer013Subclipc">
					<name>StephenConquer013Subclipc</name>
					<duration>1761</duration>
					<rate>
						<ntsc>FALSE</ntsc>
						<timebase>25</timebase>
					</rate>
					<in>0</in>
					<out>1760</out>
					<start>97774</start>
					<end>99534</end>
					<pixelaspectratio>Square</pixelaspectratio>
					<anamorphic>FALSE</anamorphic>
					<alphatype>none</alphatype>
					<logginginfo>
						<scene/>
						<shottake/>
						<lognote/>
						<good>FALSE</good>
					</logginginfo>
					<labels>
						<label2/>
					</labels>
					<comments>
						<mastercomment1/>
						<mastercomment2/>
						<mastercomment3/>
						<mastercomment4/>
					</comments>
					<file id="StephenConquer013Subclipc1">
						<name>StephenConquer013Subclipc</name>
						<pathurl>file://localhost/Volumes/Michael's%20Passport/woodbdrigenov2011media/StephenConquer013Subclipc</pathurl>
						<rate>
							<timebase>25</timebase>
						</rate>
						<duration>1761</duration>
						<metadata>
							<storage>QuickTime</storage>
							<key>com.apple.finalcutstudio.media.uuid</key>
							<size>36</size>
							<type>UTF8</type>
							<value>455177A8-59A3-45BA-90DB-AB9A8DAF255B</value>
						</metadata>
						<metadata>
							<storage>QuickTime</storage>
							<key>com.apple.finalcutstudio.media.history.uuid</key>
							<size>36</size>
							<type>UTF8</type>
							<value>7526C70C-712D-49CB-9412-8B832A9A7821</value>
						</metadata>
						<media>
							<video>
								<duration>1761</duration>
								<samplecharacteristics>
									<width>1280</width>
									<height>720</height>
								</samplecharacteristics>
							</video>
							<audio>
								<samplecharacteristics>
									<samplerate>48000</samplerate>
									<depth>16</depth>
								</samplecharacteristics>
								<channelcount>2</channelcount>
								<layout>stereo</layout>
								<audiochannel>
									<sourcechannel>1</sourcechannel>
									<channellabel>left</channellabel>
								</audiochannel>
								<audiochannel>
									<sourcechannel>2</sourcechannel>
									<channellabel>right</channellabel>
								</audiochannel>
							</audio>
						</media>
					</file>
					<sourcetrack>
						<mediatype>video</mediatype>
					</sourcetrack>
					<fielddominance>none</fielddominance>
					<itemhistory>
						<uuid>DBFB4268-F902-41B7-A98D-2A4B4FA25913</uuid>
						<uuid>73FD29EA-5DAE-453F-8055-FC67D8975CCE</uuid>
					</itemhistory>
				</clipitem>
				<clipitem id="StephenConquer014Subclipa">
					<name>StephenConquer014Subclipa</name>
					<duration>976</duration>
					<rate>
						<ntsc>FALSE</ntsc>
						<timebase>25</timebase>
					</rate>
					<in>0</in>
					<out>976</out>
					<start>100326</start>
					<end>101302</end>
					<pixelaspectratio>Square</pixelaspectratio>
					<anamorphic>FALSE</anamorphic>
					<alphatype>none</alphatype>
					<logginginfo>
						<scene/>
						<shottake/>
						<lognote/>
						<good>FALSE</good>
					</logginginfo>
					<labels>
						<label2/>
					</labels>
					<comments>
						<mastercomment1/>
						<mastercomment2/>
						<mastercomment3/>
						<mastercomment4/>
					</comments>
					<file id="StephenConquer014Subclipa1">
						<name>StephenConquer014Subclipa</name>
						<pathurl>file://localhost/Volumes/Michael's%20Passport/woodbdrigenov2011media/StephenConquer014Subclipa</pathurl>
						<rate>
							<timebase>25</timebase>
						</rate>
						<duration>976</duration>
						<metadata>
							<storage>QuickTime</storage>
							<key>com.apple.finalcutstudio.media.uuid</key>
							<size>36</size>
							<type>UTF8</type>
							<value>919C60F3-6D43-4684-B9CA-B115DE1D7964</value>
						</metadata>
						<metadata>
							<storage>QuickTime</storage>
							<key>com.apple.finalcutstudio.media.history.uuid</key>
							<size>36</size>
							<type>UTF8</type>
							<value>E327184A-7E1B-4806-9DBA-E95703B50D8B</value>
						</metadata>
						<media>
							<video>
								<duration>976</duration>
								<samplecharacteristics>
									<width>1280</width>
									<height>720</height>
								</samplecharacteristics>
							</video>
							<audio>
								<samplecharacteristics>
									<samplerate>48000</samplerate>
									<depth>16</depth>
								</samplecharacteristics>
								<channelcount>2</channelcount>
								<layout>stereo</layout>
								<audiochannel>
									<sourcechannel>1</sourcechannel>
									<channellabel>left</channellabel>
								</audiochannel>
								<audiochannel>
									<sourcechannel>2</sourcechannel>
									<channellabel>right</channellabel>
								</audiochannel>
							</audio>
						</media>
					</file>
					<sourcetrack>
						<mediatype>video</mediatype>
					</sourcetrack>
					<fielddominance>none</fielddominance>
					<itemhistory>
						<uuid>549961F4-E834-4104-95C1-6F8AD62DD17A</uuid>
						<uuid>1D7D05ED-E4F9-4DC7-B8B0-50A93DA54B11</uuid>
					</itemhistory>
				</clipitem>
				<clipitem id="StephenConquer014Subclipb">
					<name>StephenConquer014Subclipb</name>
					<duration>1990</duration>
					<rate>
						<ntsc>FALSE</ntsc>
						<timebase>25</timebase>
					</rate>
					<in>0</in>
					<out>1989</out>
					<start>101303</start>
					<end>103292</end>
					<pixelaspectratio>Square</pixelaspectratio>
					<anamorphic>FALSE</anamorphic>
					<alphatype>none</alphatype>
					<logginginfo>
						<scene/>
						<shottake/>
						<lognote/>
						<good>FALSE</good>
					</logginginfo>
					<labels>
						<label2/>
					</labels>
					<comments>
						<mastercomment1/>
						<mastercomment2/>
						<mastercomment3/>
						<mastercomment4/>
					</comments>
					<file id="StephenConquer014Subclipb1">
						<name>StephenConquer014Subclipb</name>
						<pathurl>file://localhost/Volumes/Michael's%20Passport/woodbdrigenov2011media/StephenConquer014Subclipb</pathurl>
						<rate>
							<timebase>25</timebase>
						</rate>
						<duration>1990</duration>
						<metadata>
							<storage>QuickTime</storage>
							<key>com.apple.finalcutstudio.media.uuid</key>
							<size>36</size>
							<type>UTF8</type>
							<value>735CB94C-0C65-4A9C-946F-C73B3D7B11D2</value>
						</metadata>
						<metadata>
							<storage>QuickTime</storage>
							<key>com.apple.finalcutstudio.media.history.uuid</key>
							<size>36</size>
							<type>UTF8</type>
							<value>E327184A-7E1B-4806-9DBA-E95703B50D8B</value>
						</metadata>
						<media>
							<video>
								<duration>1990</duration>
								<samplecharacteristics>
									<width>1280</width>
									<height>720</height>
								</samplecharacteristics>
							</video>
							<audio>
								<samplecharacteristics>
									<samplerate>48000</samplerate>
									<depth>16</depth>
								</samplecharacteristics>
								<channelcount>2</channelcount>
								<layout>stereo</layout>
								<audiochannel>
									<sourcechannel>1</sourcechannel>
									<channellabel>left</channellabel>
								</audiochannel>
								<audiochannel>
									<sourcechannel>2</sourcechannel>
									<channellabel>right</channellabel>
								</audiochannel>
							</audio>
						</media>
					</file>
					<sourcetrack>
						<mediatype>video</mediatype>
					</sourcetrack>
					<fielddominance>none</fielddominance>
					<itemhistory>
						<uuid>2BAA2E3D-6610-45DD-9D55-CB09E2EFD7AB</uuid>
						<uuid>51A74300-D701-41BA-B902-7B6D779F154D</uuid>
					</itemhistory>
				</clipitem>
				<clipitem id="StephenConquer014Subclipc">
					<name>StephenConquer014Subclipc</name>
					<duration>3674</duration>
					<rate>
						<ntsc>FALSE</ntsc>
						<timebase>25</timebase>
					</rate>
					<in>0</in>
					<out>3674</out>
					<start>103294</start>
					<end>106968</end>
					<pixelaspectratio>Square</pixelaspectratio>
					<anamorphic>FALSE</anamorphic>
					<alphatype>none</alphatype>
					<logginginfo>
						<scene/>
						<shottake/>
						<lognote/>
						<good>FALSE</good>
					</logginginfo>
					<labels>
						<label2/>
					</labels>
					<comments>
						<mastercomment1/>
						<mastercomment2/>
						<mastercomment3/>
						<mastercomment4/>
					</comments>
					<file id="StephenConquer014Subclipc1">
						<name>StephenConquer014Subclipc</name>
						<pathurl>file://localhost/Volumes/Michael's%20Passport/woodbdrigenov2011media/StephenConquer014Subclipc</pathurl>
						<rate>
							<timebase>25</timebase>
						</rate>
						<duration>3674</duration>
						<metadata>
							<storage>QuickTime</storage>
							<key>com.apple.finalcutstudio.media.uuid</key>
							<size>36</size>
							<type>UTF8</type>
							<value>A404B779-0929-4777-864C-6116DD753B0D</value>
						</metadata>
						<metadata>
							<storage>QuickTime</storage>
							<key>com.apple.finalcutstudio.media.history.uuid</key>
							<size>36</size>
							<type>UTF8</type>
							<value>E327184A-7E1B-4806-9DBA-E95703B50D8B</value>
						</metadata>
						<media>
							<video>
								<duration>3674</duration>
								<samplecharacteristics>
									<width>1280</width>
									<height>720</height>
								</samplecharacteristics>
							</video>
							<audio>
								<samplecharacteristics>
									<samplerate>48000</samplerate>
									<depth>16</depth>
								</samplecharacteristics>
								<channelcount>2</channelcount>
								<layout>stereo</layout>
								<audiochannel>
									<sourcechannel>1</sourcechannel>
									<channellabel>left</channellabel>
								</audiochannel>
								<audiochannel>
									<sourcechannel>2</sourcechannel>
									<channellabel>right</channellabel>
								</audiochannel>
							</audio>
						</media>
					</file>
					<sourcetrack>
						<mediatype>video</mediatype>
					</sourcetrack>
					<fielddominance>none</fielddominance>
					<itemhistory>
						<uuid>D4E29231-40FD-406A-B4AD-0796C476BCD1</uuid>
						<uuid>8EDA9EA6-CE65-419E-BC72-F4BBF6ACC70B</uuid>
					</itemhistory>
				</clipitem>
				<clipitem id="StephenConquer015Subclipa">
					<name>StephenConquer015Subclipa</name>
					<duration>162</duration>
					<rate>
						<ntsc>FALSE</ntsc>
						<timebase>25</timebase>
					</rate>
					<in>0</in>
					<out>161</out>
					<start>108747</start>
					<end>108908</end>
					<pixelaspectratio>Square</pixelaspectratio>
					<anamorphic>FALSE</anamorphic>
					<alphatype>none</alphatype>
					<logginginfo>
						<scene/>
						<shottake/>
						<lognote/>
						<good>FALSE</good>
					</logginginfo>
					<labels>
						<label2/>
					</labels>
					<comments>
						<mastercomment1/>
						<mastercomment2/>
						<mastercomment3/>
						<mastercomment4/>
					</comments>
					<file id="StephenConquer015Subclipa1">
						<name>StephenConquer015Subclipa</name>
						<pathurl>file://localhost/Volumes/Michael's%20Passport/woodbdrigenov2011media/StephenConquer015Subclipa</pathurl>
						<rate>
							<timebase>25</timebase>
						</rate>
						<duration>162</duration>
						<metadata>
							<storage>QuickTime</storage>
							<key>com.apple.finalcutstudio.media.uuid</key>
							<size>36</size>
							<type>UTF8</type>
							<value>B8EB547D-277B-4F2F-A7A7-54234934B35D</value>
						</metadata>
						<metadata>
							<storage>QuickTime</storage>
							<key>com.apple.finalcutstudio.media.history.uuid</key>
							<size>36</size>
							<type>UTF8</type>
							<value>BA9A2D02-6C56-477E-824F-6818353EA845</value>
						</metadata>
						<media>
							<video>
								<duration>162</duration>
								<samplecharacteristics>
									<width>1280</width>
									<height>720</height>
								</samplecharacteristics>
							</video>
							<audio>
								<samplecharacteristics>
									<samplerate>48000</samplerate>
									<depth>16</depth>
								</samplecharacteristics>
								<channelcount>2</channelcount>
								<layout>stereo</layout>
								<audiochannel>
									<sourcechannel>1</sourcechannel>
									<channellabel>left</channellabel>
								</audiochannel>
								<audiochannel>
									<sourcechannel>2</sourcechannel>
									<channellabel>right</channellabel>
								</audiochannel>
							</audio>
						</media>
					</file>
					<sourcetrack>
						<mediatype>video</mediatype>
					</sourcetrack>
					<fielddominance>none</fielddominance>
					<itemhistory>
						<uuid>90091F9B-0782-43A7-89CC-68618E69E417</uuid>
						<uuid>60FDBF4B-5562-4692-9A1C-0E8FC1CD47F9</uuid>
					</itemhistory>
				</clipitem>
				<clipitem id="StephenConquer015Subclipb">
					<name>StephenConquer015Subclipb</name>
					<duration>316</duration>
					<rate>
						<ntsc>FALSE</ntsc>
						<timebase>25</timebase>
					</rate>
					<in>0</in>
					<out>316</out>
					<start>108908</start>
					<end>109224</end>
					<pixelaspectratio>Square</pixelaspectratio>
					<anamorphic>FALSE</anamorphic>
					<alphatype>none</alphatype>
					<logginginfo>
						<scene/>
						<shottake/>
						<lognote/>
						<good>FALSE</good>
					</logginginfo>
					<labels>
						<label2/>
					</labels>
					<comments>
						<mastercomment1/>
						<mastercomment2/>
						<mastercomment3/>
						<mastercomment4/>
					</comments>
					<file id="StephenConquer015Subclipb1">
						<name>StephenConquer015Subclipb</name>
						<pathurl>file://localhost/Volumes/Michael's%20Passport/woodbdrigenov2011media/StephenConquer015Subclipb</pathurl>
						<rate>
							<timebase>25</timebase>
						</rate>
						<duration>316</duration>
						<metadata>
							<storage>QuickTime</storage>
							<key>com.apple.finalcutstudio.media.uuid</key>
							<size>36</size>
							<type>UTF8</type>
							<value>F418AD2B-B847-4C25-9154-955C902265B7</value>
						</metadata>
						<metadata>
							<storage>QuickTime</storage>
							<key>com.apple.finalcutstudio.media.history.uuid</key>
							<size>36</size>
							<type>UTF8</type>
							<value>BA9A2D02-6C56-477E-824F-6818353EA845</value>
						</metadata>
						<media>
							<video>
								<duration>316</duration>
								<samplecharacteristics>
									<width>1280</width>
									<height>720</height>
								</samplecharacteristics>
							</video>
							<audio>
								<samplecharacteristics>
									<samplerate>48000</samplerate>
									<depth>16</depth>
								</samplecharacteristics>
								<channelcount>2</channelcount>
								<layout>stereo</layout>
								<audiochannel>
									<sourcechannel>1</sourcechannel>
									<channellabel>left</channellabel>
								</audiochannel>
								<audiochannel>
									<sourcechannel>2</sourcechannel>
									<channellabel>right</channellabel>
								</audiochannel>
							</audio>
						</media>
					</file>
					<sourcetrack>
						<mediatype>video</mediatype>
					</sourcetrack>
					<fielddominance>none</fielddominance>
					<itemhistory>
						<uuid>080CD315-459B-4E81-8E90-E1395FE9D1EF</uuid>
						<uuid>8256B818-CFDD-4DC8-8E3A-5AC202D0AE0A</uuid>
					</itemhistory>
				</clipitem>
				<clipitem id="StephenConquer015Subclipc">
					<name>StephenConquer015Subclipc</name>
					<duration>506</duration>
					<rate>
						<ntsc>FALSE</ntsc>
						<timebase>25</timebase>
					</rate>
					<in>0</in>
					<out>505</out>
					<start>109224</start>
					<end>109729</end>
					<pixelaspectratio>Square</pixelaspectratio>
					<anamorphic>FALSE</anamorphic>
					<alphatype>none</alphatype>
					<logginginfo>
						<scene/>
						<shottake/>
						<lognote/>
						<good>FALSE</good>
					</logginginfo>
					<labels>
						<label2/>
					</labels>
					<comments>
						<mastercomment1/>
						<mastercomment2/>
						<mastercomment3/>
						<mastercomment4/>
					</comments>
					<file id="StephenConquer015Subclipc1">
						<name>StephenConquer015Subclipc</name>
						<pathurl>file://localhost/Volumes/Michael's%20Passport/woodbdrigenov2011media/StephenConquer015Subclipc</pathurl>
						<rate>
							<timebase>25</timebase>
						</rate>
						<duration>506</duration>
						<metadata>
							<storage>QuickTime</storage>
							<key>com.apple.finalcutstudio.media.uuid</key>
							<size>36</size>
							<type>UTF8</type>
							<value>0E89B422-AF7F-44E7-B134-4004C37E0128</value>
						</metadata>
						<metadata>
							<storage>QuickTime</storage>
							<key>com.apple.finalcutstudio.media.history.uuid</key>
							<size>36</size>
							<type>UTF8</type>
							<value>BA9A2D02-6C56-477E-824F-6818353EA845</value>
						</metadata>
						<media>
							<video>
								<duration>506</duration>
								<samplecharacteristics>
									<width>1280</width>
									<height>720</height>
								</samplecharacteristics>
							</video>
							<audio>
								<samplecharacteristics>
									<samplerate>48000</samplerate>
									<depth>16</depth>
								</samplecharacteristics>
								<channelcount>2</channelcount>
								<layout>stereo</layout>
								<audiochannel>
									<sourcechannel>1</sourcechannel>
									<channellabel>left</channellabel>
								</audiochannel>
								<audiochannel>
									<sourcechannel>2</sourcechannel>
									<channellabel>right</channellabel>
								</audiochannel>
							</audio>
						</media>
					</file>
					<sourcetrack>
						<mediatype>video</mediatype>
					</sourcetrack>
					<fielddominance>none</fielddominance>
					<itemhistory>
						<uuid>48AEE377-C1A6-472B-84E8-00DBBB109535</uuid>
						<uuid>CBA90BB0-E9D9-4843-95C7-DA81807769AD</uuid>
					</itemhistory>
				</clipitem>
				<clipitem id="StephenConquer015Subclipd">
					<name>StephenConquer015Subclipd</name>
					<duration>495</duration>
					<rate>
						<ntsc>FALSE</ntsc>
						<timebase>25</timebase>
					</rate>
					<in>0</in>
					<out>494</out>
					<start>109729</start>
					<end>110223</end>
					<pixelaspectratio>Square</pixelaspectratio>
					<anamorphic>FALSE</anamorphic>
					<alphatype>none</alphatype>
					<logginginfo>
						<scene/>
						<shottake/>
						<lognote/>
						<good>FALSE</good>
					</logginginfo>
					<labels>
						<label2/>
					</labels>
					<comments>
						<mastercomment1/>
						<mastercomment2/>
						<mastercomment3/>
						<mastercomment4/>
					</comments>
					<file id="StephenConquer015Subclipd1">
						<name>StephenConquer015Subclipd</name>
						<pathurl>file://localhost/Volumes/Michael's%20Passport/woodbdrigenov2011media/StephenConquer015Subclipd</pathurl>
						<rate>
							<timebase>25</timebase>
						</rate>
						<duration>495</duration>
						<metadata>
							<storage>QuickTime</storage>
							<key>com.apple.finalcutstudio.media.uuid</key>
							<size>36</size>
							<type>UTF8</type>
							<value>812FD934-651E-4D91-AA31-8F2E08B8B522</value>
						</metadata>
						<metadata>
							<storage>QuickTime</storage>
							<key>com.apple.finalcutstudio.media.history.uuid</key>
							<size>36</size>
							<type>UTF8</type>
							<value>BA9A2D02-6C56-477E-824F-6818353EA845</value>
						</metadata>
						<media>
							<video>
								<duration>495</duration>
								<samplecharacteristics>
									<width>1280</width>
									<height>720</height>
								</samplecharacteristics>
							</video>
							<audio>
								<samplecharacteristics>
									<samplerate>48000</samplerate>
									<depth>16</depth>
								</samplecharacteristics>
								<channelcount>2</channelcount>
								<layout>stereo</layout>
								<audiochannel>
									<sourcechannel>1</sourcechannel>
									<channellabel>left</channellabel>
								</audiochannel>
								<audiochannel>
									<sourcechannel>2</sourcechannel>
									<channellabel>right</channellabel>
								</audiochannel>
							</audio>
						</media>
					</file>
					<sourcetrack>
						<mediatype>video</mediatype>
					</sourcetrack>
					<fielddominance>none</fielddominance>
					<itemhistory>
						<uuid>A571025F-FBAD-4AA1-AA1C-DC79073ACA7F</uuid>
						<uuid>8A700F3C-43A5-4FC7-8941-6523F32072F9</uuid>
					</itemhistory>
				</clipitem>
				<clipitem id="StephenConquer016 ">
					<name>StephenConquer016</name>
					<duration>2913</duration>
					<rate>
						<ntsc>FALSE</ntsc>
						<timebase>25</timebase>
					</rate>
					<in>0</in>
					<out>2913</out>
					<start>119317</start>
					<end>122230</end>
					<pixelaspectratio>Square</pixelaspectratio>
					<anamorphic>FALSE</anamorphic>
					<alphatype>none</alphatype>
					<logginginfo>
						<scene/>
						<shottake/>
						<lognote/>
						<good>FALSE</good>
					</logginginfo>
					<labels>
						<label2/>
					</labels>
					<comments>
						<mastercomment1/>
						<mastercomment2/>
						<mastercomment3/>
						<mastercomment4/>
					</comments>
					<file id="StephenConquer016 1">
						<name>StephenConquer016</name>
						<pathurl>file://localhost/Volumes/Michael's%20Passport/woodbdrigenov2011media/StephenConquer016</pathurl>
						<rate>
							<timebase>25</timebase>
						</rate>
						<duration>2913</duration>
						<metadata>
							<storage>QuickTime</storage>
							<key>com.apple.finalcutstudio.media.uuid</key>
							<size>36</size>
							<type>UTF8</type>
							<value>68BF8399-2E86-4908-9769-0A26F95EAF97</value>
						</metadata>
						<metadata>
							<storage>QuickTime</storage>
							<key>com.apple.finalcutstudio.media.history.uuid</key>
							<size>36</size>
							<type>UTF8</type>
							<value>6CAD17C0-5168-475A-A020-A40758B228F5</value>
						</metadata>
						<media>
							<video>
								<duration>2913</duration>
								<samplecharacteristics>
									<width>1280</width>
									<height>720</height>
								</samplecharacteristics>
							</video>
							<audio>
								<samplecharacteristics>
									<samplerate>48000</samplerate>
									<depth>16</depth>
								</samplecharacteristics>
								<channelcount>2</channelcount>
								<layout>stereo</layout>
								<audiochannel>
									<sourcechannel>1</sourcechannel>
									<channellabel>left</channellabel>
								</audiochannel>
								<audiochannel>
									<sourcechannel>2</sourcechannel>
									<channellabel>right</channellabel>
								</audiochannel>
							</audio>
						</media>
					</file>
					<sourcetrack>
						<mediatype>video</mediatype>
					</sourcetrack>
					<fielddominance>none</fielddominance>
					<itemhistory>
						<uuid>BDA27782-9095-4ACA-80B1-95907B4E7CA4</uuid>
						<uuid>7BDC00D3-C17E-4934-8DE3-8E1FC86CE732</uuid>
					</itemhistory>
				</clipitem>
				<clipitem id="StephenConquer017Subclipa">
					<name>StephenConquer017Subclipa</name>
					<duration>1158</duration>
					<rate>
						<ntsc>FALSE</ntsc>
						<timebase>25</timebase>
					</rate>
					<in>0</in>
					<out>1157</out>
					<start>122785</start>
					<end>123942</end>
					<pixelaspectratio>Square</pixelaspectratio>
					<anamorphic>FALSE</anamorphic>
					<alphatype>none</alphatype>
					<logginginfo>
						<scene/>
						<shottake/>
						<lognote/>
						<good>FALSE</good>
					</logginginfo>
					<labels>
						<label2/>
					</labels>
					<comments>
						<mastercomment1/>
						<mastercomment2/>
						<mastercomment3/>
						<mastercomment4/>
					</comments>
					<file id="StephenConquer017Subclipa1">
						<name>StephenConquer017Subclipa</name>
						<pathurl>file://localhost/Volumes/Michael's%20Passport/woodbdrigenov2011media/StephenConquer017Subclipa</pathurl>
						<rate>
							<timebase>25</timebase>
						</rate>
						<duration>1158</duration>
						<metadata>
							<storage>QuickTime</storage>
							<key>com.apple.finalcutstudio.media.uuid</key>
							<size>36</size>
							<type>UTF8</type>
							<value>983D7E20-0C48-4D13-AC42-DD2E6E101316</value>
						</metadata>
						<metadata>
							<storage>QuickTime</storage>
							<key>com.apple.finalcutstudio.media.history.uuid</key>
							<size>36</size>
							<type>UTF8</type>
							<value>54EC29D2-65FF-4981-AFD9-211757DF2389</value>
						</metadata>
						<media>
							<video>
								<duration>1158</duration>
								<samplecharacteristics>
									<width>1280</width>
									<height>720</height>
								</samplecharacteristics>
							</video>
							<audio>
								<samplecharacteristics>
									<samplerate>48000</samplerate>
									<depth>16</depth>
								</samplecharacteristics>
								<channelcount>2</channelcount>
								<layout>stereo</layout>
								<audiochannel>
									<sourcechannel>1</sourcechannel>
									<channellabel>left</channellabel>
								</audiochannel>
								<audiochannel>
									<sourcechannel>2</sourcechannel>
									<channellabel>right</channellabel>
								</audiochannel>
							</audio>
						</media>
					</file>
					<sourcetrack>
						<mediatype>video</mediatype>
					</sourcetrack>
					<fielddominance>none</fielddominance>
					<itemhistory>
						<uuid>AAF314FD-2441-43BE-B77B-45B76BD1D355</uuid>
						<uuid>0D870762-C615-46E3-A9FA-5034E33D3E51</uuid>
					</itemhistory>
				</clipitem>
				<clipitem id="StephenConquer017Subclipb">
					<name>StephenConquer017Subclipb</name>
					<duration>1592</duration>
					<rate>
						<ntsc>FALSE</ntsc>
						<timebase>25</timebase>
					</rate>
					<in>0</in>
					<out>1592</out>
					<start>123943</start>
					<end>125535</end>
					<pixelaspectratio>Square</pixelaspectratio>
					<anamorphic>FALSE</anamorphic>
					<alphatype>none</alphatype>
					<logginginfo>
						<scene/>
						<shottake/>
						<lognote/>
						<good>FALSE</good>
					</logginginfo>
					<labels>
						<label2/>
					</labels>
					<comments>
						<mastercomment1/>
						<mastercomment2/>
						<mastercomment3/>
						<mastercomment4/>
					</comments>
					<file id="StephenConquer017Subclipb1">
						<name>StephenConquer017Subclipb</name>
						<pathurl>file://localhost/Volumes/Michael's%20Passport/woodbdrigenov2011media/StephenConquer017Subclipb</pathurl>
						<rate>
							<timebase>25</timebase>
						</rate>
						<duration>1592</duration>
						<metadata>
							<storage>QuickTime</storage>
							<key>com.apple.finalcutstudio.media.uuid</key>
							<size>36</size>
							<type>UTF8</type>
							<value>72ADA6C2-E4DD-4BA5-893D-5F9C8A54FB83</value>
						</metadata>
						<metadata>
							<storage>QuickTime</storage>
							<key>com.apple.finalcutstudio.media.history.uuid</key>
							<size>36</size>
							<type>UTF8</type>
							<value>54EC29D2-65FF-4981-AFD9-211757DF2389</value>
						</metadata>
						<media>
							<video>
								<duration>1592</duration>
								<samplecharacteristics>
									<width>1280</width>
									<height>720</height>
								</samplecharacteristics>
							</video>
							<audio>
								<samplecharacteristics>
									<samplerate>48000</samplerate>
									<depth>16</depth>
								</samplecharacteristics>
								<channelcount>2</channelcount>
								<layout>stereo</layout>
								<audiochannel>
									<sourcechannel>1</sourcechannel>
									<channellabel>left</channellabel>
								</audiochannel>
								<audiochannel>
									<sourcechannel>2</sourcechannel>
									<channellabel>right</channellabel>
								</audiochannel>
							</audio>
						</media>
					</file>
					<sourcetrack>
						<mediatype>video</mediatype>
					</sourcetrack>
					<fielddominance>none</fielddominance>
					<itemhistory>
						<uuid>66FE4624-49E8-42A4-8C91-FBDEAC1B30C8</uuid>
						<uuid>85AE5880-1C88-4751-AA2F-B46B5E2DBCC8</uuid>
					</itemhistory>
				</clipitem>
				<clipitem id="StephenConquer018 ">
					<name>StephenConquer018</name>
					<duration>3610</duration>
					<rate>
						<ntsc>FALSE</ntsc>
						<timebase>25</timebase>
					</rate>
					<in>0</in>
					<out>3609</out>
					<start>126415</start>
					<end>130024</end>
					<pixelaspectratio>Square</pixelaspectratio>
					<anamorphic>FALSE</anamorphic>
					<alphatype>none</alphatype>
					<logginginfo>
						<scene/>
						<shottake/>
						<lognote/>
						<good>FALSE</good>
					</logginginfo>
					<labels>
						<label2/>
					</labels>
					<comments>
						<mastercomment1/>
						<mastercomment2/>
						<mastercomment3/>
						<mastercomment4/>
					</comments>
					<file id="StephenConquer018 1">
						<name>StephenConquer018</name>
						<pathurl>file://localhost/Volumes/Michael's%20Passport/woodbdrigenov2011media/StephenConquer018</pathurl>
						<rate>
							<timebase>25</timebase>
						</rate>
						<duration>3610</duration>
						<metadata>
							<storage>QuickTime</storage>
							<key>com.apple.finalcutstudio.media.uuid</key>
							<size>36</size>
							<type>UTF8</type>
							<value>9D41182D-CB95-4780-B1DF-C0EFBE19ED6F</value>
						</metadata>
						<metadata>
							<storage>QuickTime</storage>
							<key>com.apple.finalcutstudio.media.history.uuid</key>
							<size>36</size>
							<type>UTF8</type>
							<value>A96C8650-EE72-45A3-87F1-638DBC4379CE</value>
						</metadata>
						<media>
							<video>
								<duration>3610</duration>
								<samplecharacteristics>
									<width>1280</width>
									<height>720</height>
								</samplecharacteristics>
							</video>
							<audio>
								<samplecharacteristics>
									<samplerate>48000</samplerate>
									<depth>16</depth>
								</samplecharacteristics>
								<channelcount>2</channelcount>
								<layout>stereo</layout>
								<audiochannel>
									<sourcechannel>1</sourcechannel>
									<channellabel>left</channellabel>
								</audiochannel>
								<audiochannel>
									<sourcechannel>2</sourcechannel>
									<channellabel>right</channellabel>
								</audiochannel>
							</audio>
						</media>
					</file>
					<sourcetrack>
						<mediatype>video</mediatype>
					</sourcetrack>
					<fielddominance>none</fielddominance>
					<itemhistory>
						<uuid>BF339231-12CA-4C45-BA24-90CADEB7A541</uuid>
						<uuid>6F163A0D-2D65-4F5E-B6C8-79A18894C224</uuid>
					</itemhistory>
				</clipitem>
				<enabled>TRUE</enabled>
				<locked>FALSE</locked>
			</track>
			<track>
				<clipitem id="AndrewLord006Subclipa">
					<name>AndrewLord006Subclipa</name>
					<duration>181</duration>
					<rate>
						<ntsc>FALSE</ntsc>
						<timebase>25</timebase>
					</rate>
					<in>0</in>
					<out>181</out>
					<start>622</start>
					<end>803</end>
					<pixelaspectratio>Square</pixelaspectratio>
					<enabled>TRUE</enabled>
					<anamorphic>FALSE</anamorphic>
					<alphatype>none</alphatype>
					<logginginfo>
						<scene/>
						<shottake/>
						<lognote/>
						<good>FALSE</good>
					</logginginfo>
					<labels>
						<label2/>
					</labels>
					<comments>
						<mastercomment1/>
						<mastercomment2/>
						<mastercomment3/>
						<mastercomment4/>
					</comments>
					<file id="AndrewLord006Subclipa1">
						<name>AndrewLord006Subclipa</name>
						<pathurl>file://localhost/Volumes/Michael's%20Passport/woodbdrigenov2011media/AndrewLord006Subclipa</pathurl>
						<rate>
							<timebase>25</timebase>
						</rate>
						<duration>181</duration>
						<metadata>
							<storage>QuickTime</storage>
							<key>com.apple.finalcutstudio.media.uuid</key>
							<size>36</size>
							<type>UTF8</type>
							<value>C55A4C0A-F7C5-4702-AA54-D41685DB2BEF</value>
						</metadata>
						<media>
							<video>
								<duration>181</duration>
								<samplecharacteristics>
									<width>1280</width>
									<height>720</height>
								</samplecharacteristics>
							</video>
							<audio>
								<samplecharacteristics>
									<samplerate>48000</samplerate>
									<depth>16</depth>
								</samplecharacteristics>
								<channelcount>2</channelcount>
								<layout>stereo</layout>
								<audiochannel>
									<sourcechannel>1</sourcechannel>
									<channellabel>left</channellabel>
								</audiochannel>
								<audiochannel>
									<sourcechannel>2</sourcechannel>
									<channellabel>right</channellabel>
								</audiochannel>
							</audio>
						</media>
					</file>
					<sourcetrack>
						<mediatype>video</mediatype>
					</sourcetrack>
					<link>
						<linkclipref>AndrewLord006Subclipa</linkclipref>
						<mediatype>video</mediatype>
						<trackindex>7</trackindex>
						<clipindex>1</clipindex>
					</link>
					<link>
						<linkclipref>AndrewLord006Subclipa2</linkclipref>
						<mediatype>audio</mediatype>
						<trackindex>9</trackindex>
						<clipindex>1</clipindex>
						<groupindex>1</groupindex>
					</link>
					<link>
						<linkclipref>AndrewLord006Subclipa3</linkclipref>
						<mediatype>audio</mediatype>
						<trackindex>10</trackindex>
						<clipindex>1</clipindex>
						<groupindex>1</groupindex>
					</link>
					<fielddominance>none</fielddominance>
					<itemhistory>
						<uuid>4E3FE0AD-3F19-4AEC-90DA-E6735EBD254C</uuid>
						<uuid>0C84D2C3-FE5F-4C37-ADE0-0C09D6E30976</uuid>
					</itemhistory>
				</clipitem>
				<clipitem id="AndrewLord007Subclipa">
					<name>AndrewLord007Subclipa</name>
					<duration>112</duration>
					<rate>
						<ntsc>FALSE</ntsc>
						<timebase>25</timebase>
					</rate>
					<in>0</in>
					<out>112</out>
					<start>803</start>
					<end>915</end>
					<pixelaspectratio>Square</pixelaspectratio>
					<anamorphic>FALSE</anamorphic>
					<alphatype>none</alphatype>
					<logginginfo>
						<scene/>
						<shottake/>
						<lognote/>
						<good>FALSE</good>
					</logginginfo>
					<labels>
						<label2/>
					</labels>
					<comments>
						<mastercomment1/>
						<mastercomment2/>
						<mastercomment3/>
						<mastercomment4/>
					</comments>
					<file id="AndrewLord007Subclipa1">
						<name>AndrewLord007Subclipa</name>
						<pathurl>file://localhost/Volumes/Michael's%20Passport/woodbdrigenov2011media/AndrewLord007Subclipa</pathurl>
						<rate>
							<timebase>25</timebase>
						</rate>
						<duration>112</duration>
						<metadata>
							<storage>QuickTime</storage>
							<key>com.apple.finalcutstudio.media.uuid</key>
							<size>36</size>
							<type>UTF8</type>
							<value>232E29E6-E0B9-48C3-AE3B-FF2D5A036CCC</value>
						</metadata>
						<media>
							<video>
								<duration>112</duration>
								<samplecharacteristics>
									<width>1280</width>
									<height>720</height>
								</samplecharacteristics>
							</video>
							<audio>
								<samplecharacteristics>
									<samplerate>48000</samplerate>
									<depth>16</depth>
								</samplecharacteristics>
								<channelcount>2</channelcount>
								<layout>stereo</layout>
								<audiochannel>
									<sourcechannel>1</sourcechannel>
									<channellabel>left</channellabel>
								</audiochannel>
								<audiochannel>
									<sourcechannel>2</sourcechannel>
									<channellabel>right</channellabel>
								</audiochannel>
							</audio>
						</media>
					</file>
					<sourcetrack>
						<mediatype>video</mediatype>
					</sourcetrack>
					<link>
						<linkclipref>AndrewLord007Subclipa</linkclipref>
						<mediatype>video</mediatype>
						<trackindex>7</trackindex>
						<clipindex>2</clipindex>
					</link>
					<link>
						<linkclipref>AndrewLord007Subclipa2</linkclipref>
						<mediatype>audio</mediatype>
						<trackindex>9</trackindex>
						<clipindex>2</clipindex>
						<groupindex>1</groupindex>
					</link>
					<link>
						<linkclipref>AndrewLord007Subclipa3</linkclipref>
						<mediatype>audio</mediatype>
						<trackindex>10</trackindex>
						<clipindex>2</clipindex>
						<groupindex>1</groupindex>
					</link>
					<fielddominance>none</fielddominance>
					<itemhistory>
						<uuid>DEE51269-B96F-4E1F-A696-F1ABFEF6C83D</uuid>
						<uuid>47646900-F892-4CD3-98C9-4583F4C77F19</uuid>
					</itemhistory>
				</clipitem>
				<clipitem id="AndrewLord008Subclipa">
					<name>AndrewLord008Subclipa</name>
					<duration>340</duration>
					<rate>
						<ntsc>FALSE</ntsc>
						<timebase>25</timebase>
					</rate>
					<in>0</in>
					<out>340</out>
					<start>915</start>
					<end>1255</end>
					<pixelaspectratio>Square</pixelaspectratio>
					<enabled>TRUE</enabled>
					<anamorphic>FALSE</anamorphic>
					<alphatype>none</alphatype>
					<logginginfo>
						<scene/>
						<shottake/>
						<lognote/>
						<good>FALSE</good>
					</logginginfo>
					<labels>
						<label2/>
					</labels>
					<comments>
						<mastercomment1/>
						<mastercomment2/>
						<mastercomment3/>
						<mastercomment4/>
					</comments>
					<file id="AndrewLord008Subclipa1">
						<name>AndrewLord008Subclipa</name>
						<pathurl>file://localhost/Volumes/Michael's%20Passport/woodbdrigenov2011media/AndrewLord008Subclipa</pathurl>
						<rate>
							<timebase>25</timebase>
						</rate>
						<duration>340</duration>
						<metadata>
							<storage>QuickTime</storage>
							<key>com.apple.finalcutstudio.media.uuid</key>
							<size>36</size>
							<type>UTF8</type>
							<value>4AF6ED96-7135-4843-9819-11039E72B123</value>
						</metadata>
						<media>
							<video>
								<duration>340</duration>
								<samplecharacteristics>
									<width>1280</width>
									<height>720</height>
								</samplecharacteristics>
							</video>
							<audio>
								<samplecharacteristics>
									<samplerate>48000</samplerate>
									<depth>16</depth>
								</samplecharacteristics>
								<channelcount>2</channelcount>
								<layout>stereo</layout>
								<audiochannel>
									<sourcechannel>1</sourcechannel>
									<channellabel>left</channellabel>
								</audiochannel>
								<audiochannel>
									<sourcechannel>2</sourcechannel>
									<channellabel>right</channellabel>
								</audiochannel>
							</audio>
						</media>
					</file>
					<sourcetrack>
						<mediatype>video</mediatype>
					</sourcetrack>
					<link>
						<linkclipref>AndrewLord008Subclipa</linkclipref>
						<mediatype>video</mediatype>
						<trackindex>7</trackindex>
						<clipindex>3</clipindex>
					</link>
					<link>
						<linkclipref>AndrewLord008Subclipa2</linkclipref>
						<mediatype>audio</mediatype>
						<trackindex>9</trackindex>
						<clipindex>3</clipindex>
						<groupindex>1</groupindex>
					</link>
					<link>
						<linkclipref>AndrewLord008Subclipa3</linkclipref>
						<mediatype>audio</mediatype>
						<trackindex>10</trackindex>
						<clipindex>3</clipindex>
						<groupindex>1</groupindex>
					</link>
					<fielddominance>none</fielddominance>
					<itemhistory>
						<uuid>C0745BF7-09F8-4E1B-B512-FD9FA7F65359</uuid>
						<uuid>9E84E1AC-49D3-4F97-8904-80F5A5A852CD</uuid>
					</itemhistory>
				</clipitem>
				<clipitem id="AndrewLord008Subclipb">
					<name>AndrewLord008Subclipb</name>
					<duration>1984</duration>
					<rate>
						<ntsc>FALSE</ntsc>
						<timebase>25</timebase>
					</rate>
					<in>0</in>
					<out>1984</out>
					<start>1255</start>
					<end>3239</end>
					<pixelaspectratio>Square</pixelaspectratio>
					<enabled>TRUE</enabled>
					<anamorphic>FALSE</anamorphic>
					<alphatype>none</alphatype>
					<logginginfo>
						<scene/>
						<shottake/>
						<lognote/>
						<good>FALSE</good>
					</logginginfo>
					<labels>
						<label2/>
					</labels>
					<comments>
						<mastercomment1/>
						<mastercomment2/>
						<mastercomment3/>
						<mastercomment4/>
					</comments>
					<file id="AndrewLord008Subclipb1">
						<name>AndrewLord008Subclipb</name>
						<pathurl>file://localhost/Volumes/Michael's%20Passport/woodbdrigenov2011media/AndrewLord008Subclipb</pathurl>
						<rate>
							<timebase>25</timebase>
						</rate>
						<duration>1984</duration>
						<metadata>
							<storage>QuickTime</storage>
							<key>com.apple.finalcutstudio.media.uuid</key>
							<size>36</size>
							<type>UTF8</type>
							<value>BA1A6CCE-EEE3-47C9-B616-52EF9B34E338</value>
						</metadata>
						<media>
							<video>
								<duration>1984</duration>
								<samplecharacteristics>
									<width>1280</width>
									<height>720</height>
								</samplecharacteristics>
							</video>
							<audio>
								<samplecharacteristics>
									<samplerate>48000</samplerate>
									<depth>16</depth>
								</samplecharacteristics>
								<channelcount>2</channelcount>
								<layout>stereo</layout>
								<audiochannel>
									<sourcechannel>1</sourcechannel>
									<channellabel>left</channellabel>
								</audiochannel>
								<audiochannel>
									<sourcechannel>2</sourcechannel>
									<channellabel>right</channellabel>
								</audiochannel>
							</audio>
						</media>
					</file>
					<sourcetrack>
						<mediatype>video</mediatype>
					</sourcetrack>
					<link>
						<linkclipref>AndrewLord008Subclipb</linkclipref>
						<mediatype>video</mediatype>
						<trackindex>7</trackindex>
						<clipindex>4</clipindex>
					</link>
					<link>
						<linkclipref>AndrewLord008Subclipb2</linkclipref>
						<mediatype>audio</mediatype>
						<trackindex>9</trackindex>
						<clipindex>4</clipindex>
						<groupindex>1</groupindex>
					</link>
					<link>
						<linkclipref>AndrewLord008Subclipb3</linkclipref>
						<mediatype>audio</mediatype>
						<trackindex>10</trackindex>
						<clipindex>4</clipindex>
						<groupindex>1</groupindex>
					</link>
					<fielddominance>none</fielddominance>
					<itemhistory>
						<uuid>24ADD50B-051C-4D20-A245-EF4AE7D9BBD5</uuid>
						<uuid>7E2F6588-6BEB-47BA-ABF5-0662EA88D83D</uuid>
					</itemhistory>
				</clipitem>
				<clipitem id="AndrewLord008Subclipc">
					<name>AndrewLord008Subclipc</name>
					<duration>122</duration>
					<rate>
						<ntsc>FALSE</ntsc>
						<timebase>25</timebase>
					</rate>
					<in>0</in>
					<out>122</out>
					<start>3239</start>
					<end>3361</end>
					<pixelaspectratio>Square</pixelaspectratio>
					<anamorphic>FALSE</anamorphic>
					<alphatype>none</alphatype>
					<logginginfo>
						<scene/>
						<shottake/>
						<lognote/>
						<good>FALSE</good>
					</logginginfo>
					<labels>
						<label2/>
					</labels>
					<comments>
						<mastercomment1/>
						<mastercomment2/>
						<mastercomment3/>
						<mastercomment4/>
					</comments>
					<file id="AndrewLord008Subclipc1">
						<name>AndrewLord008Subclipc</name>
						<pathurl>file://localhost/Volumes/Michael's%20Passport/woodbdrigenov2011media/AndrewLord008Subclipc</pathurl>
						<rate>
							<timebase>25</timebase>
						</rate>
						<duration>122</duration>
						<metadata>
							<storage>QuickTime</storage>
							<key>com.apple.finalcutstudio.media.uuid</key>
							<size>36</size>
							<type>UTF8</type>
							<value>F14B81C4-E303-485B-B73C-63FDE7A6918C</value>
						</metadata>
						<media>
							<video>
								<duration>122</duration>
								<samplecharacteristics>
									<width>1280</width>
									<height>720</height>
								</samplecharacteristics>
							</video>
							<audio>
								<samplecharacteristics>
									<samplerate>48000</samplerate>
									<depth>16</depth>
								</samplecharacteristics>
								<channelcount>2</channelcount>
								<layout>stereo</layout>
								<audiochannel>
									<sourcechannel>1</sourcechannel>
									<channellabel>left</channellabel>
								</audiochannel>
								<audiochannel>
									<sourcechannel>2</sourcechannel>
									<channellabel>right</channellabel>
								</audiochannel>
							</audio>
						</media>
					</file>
					<sourcetrack>
						<mediatype>video</mediatype>
					</sourcetrack>
					<link>
						<linkclipref>AndrewLord008Subclipc</linkclipref>
						<mediatype>video</mediatype>
						<trackindex>7</trackindex>
						<clipindex>5</clipindex>
					</link>
					<link>
						<linkclipref>AndrewLord008Subclipc2</linkclipref>
						<mediatype>audio</mediatype>
						<trackindex>9</trackindex>
						<clipindex>5</clipindex>
						<groupindex>1</groupindex>
					</link>
					<link>
						<linkclipref>AndrewLord008Subclipc3</linkclipref>
						<mediatype>audio</mediatype>
						<trackindex>10</trackindex>
						<clipindex>5</clipindex>
						<groupindex>1</groupindex>
					</link>
					<fielddominance>none</fielddominance>
					<itemhistory>
						<uuid>1F031D77-7CA8-4113-BED9-31374461AAE1</uuid>
						<uuid>CC00FB5D-860E-41B7-85C7-04D3BD8AFD37</uuid>
					</itemhistory>
				</clipitem>
				<clipitem id="AndrewLord008Subclipd">
					<name>AndrewLord008Subclipd</name>
					<duration>801</duration>
					<rate>
						<ntsc>FALSE</ntsc>
						<timebase>25</timebase>
					</rate>
					<in>0</in>
					<out>801</out>
					<start>3361</start>
					<end>4162</end>
					<pixelaspectratio>Square</pixelaspectratio>
					<enabled>TRUE</enabled>
					<anamorphic>FALSE</anamorphic>
					<alphatype>none</alphatype>
					<logginginfo>
						<scene/>
						<shottake/>
						<lognote/>
						<good>FALSE</good>
					</logginginfo>
					<labels>
						<label2/>
					</labels>
					<comments>
						<mastercomment1/>
						<mastercomment2/>
						<mastercomment3/>
						<mastercomment4/>
					</comments>
					<file id="AndrewLord008Subclipd1">
						<name>AndrewLord008Subclipd</name>
						<pathurl>file://localhost/Volumes/Michael's%20Passport/woodbdrigenov2011media/AndrewLord008Subclipd</pathurl>
						<rate>
							<timebase>25</timebase>
						</rate>
						<duration>801</duration>
						<metadata>
							<storage>QuickTime</storage>
							<key>com.apple.finalcutstudio.media.uuid</key>
							<size>36</size>
							<type>UTF8</type>
							<value>959544D3-8365-439E-BBF8-6F7B5ADF07F7</value>
						</metadata>
						<media>
							<video>
								<duration>801</duration>
								<samplecharacteristics>
									<width>1280</width>
									<height>720</height>
								</samplecharacteristics>
							</video>
							<audio>
								<samplecharacteristics>
									<samplerate>48000</samplerate>
									<depth>16</depth>
								</samplecharacteristics>
								<channelcount>2</channelcount>
								<layout>stereo</layout>
								<audiochannel>
									<sourcechannel>1</sourcechannel>
									<channellabel>left</channellabel>
								</audiochannel>
								<audiochannel>
									<sourcechannel>2</sourcechannel>
									<channellabel>right</channellabel>
								</audiochannel>
							</audio>
						</media>
					</file>
					<sourcetrack>
						<mediatype>video</mediatype>
					</sourcetrack>
					<link>
						<linkclipref>AndrewLord008Subclipd</linkclipref>
						<mediatype>video</mediatype>
						<trackindex>7</trackindex>
						<clipindex>6</clipindex>
					</link>
					<link>
						<linkclipref>AndrewLord008Subclipd2</linkclipref>
						<mediatype>audio</mediatype>
						<trackindex>9</trackindex>
						<clipindex>6</clipindex>
						<groupindex>1</groupindex>
					</link>
					<link>
						<linkclipref>AndrewLord008Subclipd3</linkclipref>
						<mediatype>audio</mediatype>
						<trackindex>10</trackindex>
						<clipindex>6</clipindex>
						<groupindex>1</groupindex>
					</link>
					<fielddominance>none</fielddominance>
					<itemhistory>
						<uuid>21EBC650-7661-4CDF-8A5B-0B9B8F397702</uuid>
						<uuid>A3DA255B-2F25-4FA5-9F9C-68AF87A318C0</uuid>
					</itemhistory>
				</clipitem>
				<clipitem id="AndrewLord009Subclipa">
					<name>AndrewLord009Subclipa</name>
					<duration>578</duration>
					<rate>
						<ntsc>FALSE</ntsc>
						<timebase>25</timebase>
					</rate>
					<in>0</in>
					<out>578</out>
					<start>4162</start>
					<end>4740</end>
					<pixelaspectratio>Square</pixelaspectratio>
					<enabled>TRUE</enabled>
					<anamorphic>FALSE</anamorphic>
					<alphatype>none</alphatype>
					<logginginfo>
						<scene/>
						<shottake/>
						<lognote/>
						<good>FALSE</good>
					</logginginfo>
					<labels>
						<label2/>
					</labels>
					<comments>
						<mastercomment1/>
						<mastercomment2/>
						<mastercomment3/>
						<mastercomment4/>
					</comments>
					<file id="AndrewLord009Subclipa1">
						<name>AndrewLord009Subclipa</name>
						<pathurl>file://localhost/Volumes/Michael's%20Passport/woodbdrigenov2011media/AndrewLord009Subclipa</pathurl>
						<rate>
							<timebase>25</timebase>
						</rate>
						<duration>578</duration>
						<metadata>
							<storage>QuickTime</storage>
							<key>com.apple.finalcutstudio.media.uuid</key>
							<size>36</size>
							<type>UTF8</type>
							<value>BB2CD530-82EF-40AB-A60B-290C45253FBF</value>
						</metadata>
						<media>
							<video>
								<duration>578</duration>
								<samplecharacteristics>
									<width>1280</width>
									<height>720</height>
								</samplecharacteristics>
							</video>
							<audio>
								<samplecharacteristics>
									<samplerate>48000</samplerate>
									<depth>16</depth>
								</samplecharacteristics>
								<channelcount>2</channelcount>
								<layout>stereo</layout>
								<audiochannel>
									<sourcechannel>1</sourcechannel>
									<channellabel>left</channellabel>
								</audiochannel>
								<audiochannel>
									<sourcechannel>2</sourcechannel>
									<channellabel>right</channellabel>
								</audiochannel>
							</audio>
						</media>
					</file>
					<sourcetrack>
						<mediatype>video</mediatype>
					</sourcetrack>
					<link>
						<linkclipref>AndrewLord009Subclipa</linkclipref>
						<mediatype>video</mediatype>
						<trackindex>7</trackindex>
						<clipindex>7</clipindex>
					</link>
					<link>
						<linkclipref>AndrewLord009Subclipa2</linkclipref>
						<mediatype>audio</mediatype>
						<trackindex>9</trackindex>
						<clipindex>7</clipindex>
						<groupindex>1</groupindex>
					</link>
					<link>
						<linkclipref>AndrewLord009Subclipa3</linkclipref>
						<mediatype>audio</mediatype>
						<trackindex>10</trackindex>
						<clipindex>7</clipindex>
						<groupindex>1</groupindex>
					</link>
					<fielddominance>none</fielddominance>
					<itemhistory>
						<uuid>B1991D68-863F-4E94-AD72-F033977C6AA5</uuid>
						<uuid>4558AE7D-3D53-41A5-B261-D1C24CC051C5</uuid>
					</itemhistory>
				</clipitem>
				<clipitem id="AndrewLord009Subclipb">
					<name>AndrewLord009Subclipb</name>
					<duration>1352</duration>
					<rate>
						<ntsc>FALSE</ntsc>
						<timebase>25</timebase>
					</rate>
					<in>0</in>
					<out>1352</out>
					<start>4740</start>
					<end>6092</end>
					<pixelaspectratio>Square</pixelaspectratio>
					<enabled>TRUE</enabled>
					<anamorphic>FALSE</anamorphic>
					<alphatype>none</alphatype>
					<logginginfo>
						<scene/>
						<shottake/>
						<lognote/>
						<good>FALSE</good>
					</logginginfo>
					<labels>
						<label2/>
					</labels>
					<comments>
						<mastercomment1/>
						<mastercomment2/>
						<mastercomment3/>
						<mastercomment4/>
					</comments>
					<file id="AndrewLord009Subclipb1">
						<name>AndrewLord009Subclipb</name>
						<pathurl>file://localhost/Volumes/Michael's%20Passport/woodbdrigenov2011media/AndrewLord009Subclipb</pathurl>
						<rate>
							<timebase>25</timebase>
						</rate>
						<duration>1352</duration>
						<metadata>
							<storage>QuickTime</storage>
							<key>com.apple.finalcutstudio.media.uuid</key>
							<size>36</size>
							<type>UTF8</type>
							<value>FF0698F5-9F99-4077-8784-6C869BB66FDC</value>
						</metadata>
						<media>
							<video>
								<duration>1352</duration>
								<samplecharacteristics>
									<width>1280</width>
									<height>720</height>
								</samplecharacteristics>
							</video>
							<audio>
								<samplecharacteristics>
									<samplerate>48000</samplerate>
									<depth>16</depth>
								</samplecharacteristics>
								<channelcount>2</channelcount>
								<layout>stereo</layout>
								<audiochannel>
									<sourcechannel>1</sourcechannel>
									<channellabel>left</channellabel>
								</audiochannel>
								<audiochannel>
									<sourcechannel>2</sourcechannel>
									<channellabel>right</channellabel>
								</audiochannel>
							</audio>
						</media>
					</file>
					<sourcetrack>
						<mediatype>video</mediatype>
					</sourcetrack>
					<link>
						<linkclipref>AndrewLord009Subclipb</linkclipref>
						<mediatype>video</mediatype>
						<trackindex>7</trackindex>
						<clipindex>8</clipindex>
					</link>
					<link>
						<linkclipref>AndrewLord009Subclipb2</linkclipref>
						<mediatype>audio</mediatype>
						<trackindex>9</trackindex>
						<clipindex>8</clipindex>
						<groupindex>1</groupindex>
					</link>
					<link>
						<linkclipref>AndrewLord009Subclipb3</linkclipref>
						<mediatype>audio</mediatype>
						<trackindex>10</trackindex>
						<clipindex>8</clipindex>
						<groupindex>1</groupindex>
					</link>
					<fielddominance>none</fielddominance>
					<itemhistory>
						<uuid>84B836AC-2D84-4A95-8449-DC0C38134633</uuid>
						<uuid>45298B4F-5CFA-42B4-A5EE-EEA7791697F6</uuid>
					</itemhistory>
				</clipitem>
				<clipitem id="AndrewLord001Subclipa">
					<name>AndrewLord001Subclipa</name>
					<duration>692</duration>
					<rate>
						<ntsc>FALSE</ntsc>
						<timebase>25</timebase>
					</rate>
					<in>0</in>
					<out>691</out>
					<start>29998</start>
					<end>30689</end>
					<pixelaspectratio>Square</pixelaspectratio>
					<anamorphic>FALSE</anamorphic>
					<alphatype>none</alphatype>
					<logginginfo>
						<scene/>
						<shottake/>
						<lognote/>
						<good>FALSE</good>
					</logginginfo>
					<labels>
						<label2/>
					</labels>
					<comments>
						<mastercomment1/>
						<mastercomment2/>
						<mastercomment3/>
						<mastercomment4/>
					</comments>
					<file id="AndrewLord001Subclipa1">
						<name>AndrewLord001Subclipa</name>
						<pathurl>file://localhost/Volumes/Michael's%20Passport/woodbdrigenov2011media/AndrewLord001Subclipa</pathurl>
						<rate>
							<timebase>25</timebase>
						</rate>
						<duration>692</duration>
						<metadata>
							<storage>QuickTime</storage>
							<key>com.apple.finalcutstudio.media.uuid</key>
							<size>36</size>
							<type>UTF8</type>
							<value>001361BB-B3E2-493D-97C6-2A1701F037BB</value>
						</metadata>
						<media>
							<video>
								<duration>692</duration>
								<samplecharacteristics>
									<width>1280</width>
									<height>720</height>
								</samplecharacteristics>
							</video>
							<audio>
								<samplecharacteristics>
									<samplerate>48000</samplerate>
									<depth>16</depth>
								</samplecharacteristics>
								<channelcount>2</channelcount>
								<layout>stereo</layout>
								<audiochannel>
									<sourcechannel>1</sourcechannel>
									<channellabel>left</channellabel>
								</audiochannel>
								<audiochannel>
									<sourcechannel>2</sourcechannel>
									<channellabel>right</channellabel>
								</audiochannel>
							</audio>
						</media>
					</file>
					<sourcetrack>
						<mediatype>video</mediatype>
					</sourcetrack>
					<fielddominance>none</fielddominance>
					<itemhistory>
						<uuid>F0AEAC98-FDB7-45BB-819D-9D531728DFCF</uuid>
						<uuid>F81E097E-80A5-4143-B498-79AB6290F78F</uuid>
					</itemhistory>
				</clipitem>
				<clipitem id="AndrewLord001Subclipb">
					<name>AndrewLord001Subclipb</name>
					<duration>1006</duration>
					<rate>
						<ntsc>FALSE</ntsc>
						<timebase>25</timebase>
					</rate>
					<in>0</in>
					<out>1005</out>
					<start>31773</start>
					<end>32778</end>
					<pixelaspectratio>Square</pixelaspectratio>
					<anamorphic>FALSE</anamorphic>
					<alphatype>none</alphatype>
					<logginginfo>
						<scene/>
						<shottake/>
						<lognote/>
						<good>FALSE</good>
					</logginginfo>
					<labels>
						<label2/>
					</labels>
					<comments>
						<mastercomment1/>
						<mastercomment2/>
						<mastercomment3/>
						<mastercomment4/>
					</comments>
					<file id="AndrewLord001Subclipb1">
						<name>AndrewLord001Subclipb</name>
						<pathurl>file://localhost/Volumes/Michael's%20Passport/woodbdrigenov2011media/AndrewLord001Subclipb</pathurl>
						<rate>
							<timebase>25</timebase>
						</rate>
						<duration>1006</duration>
						<metadata>
							<storage>QuickTime</storage>
							<key>com.apple.finalcutstudio.media.uuid</key>
							<size>36</size>
							<type>UTF8</type>
							<value>182ADBDB-E341-4C9C-97F5-D60353ADE493</value>
						</metadata>
						<media>
							<video>
								<duration>1006</duration>
								<samplecharacteristics>
									<width>1280</width>
									<height>720</height>
								</samplecharacteristics>
							</video>
							<audio>
								<samplecharacteristics>
									<samplerate>48000</samplerate>
									<depth>16</depth>
								</samplecharacteristics>
								<channelcount>2</channelcount>
								<layout>stereo</layout>
								<audiochannel>
									<sourcechannel>1</sourcechannel>
									<channellabel>left</channellabel>
								</audiochannel>
								<audiochannel>
									<sourcechannel>2</sourcechannel>
									<channellabel>right</channellabel>
								</audiochannel>
							</audio>
						</media>
					</file>
					<sourcetrack>
						<mediatype>video</mediatype>
					</sourcetrack>
					<fielddominance>none</fielddominance>
					<itemhistory>
						<uuid>80351851-5D2B-48CE-BD90-58AA640819E7</uuid>
						<uuid>D1AEF91E-2F13-4636-BC10-5D4583CF29DF</uuid>
					</itemhistory>
				</clipitem>
				<clipitem id="AndrewLord001Subclipc">
					<name>AndrewLord001Subclipc</name>
					<duration>2362</duration>
					<rate>
						<ntsc>FALSE</ntsc>
						<timebase>25</timebase>
					</rate>
					<in>0</in>
					<out>2361</out>
					<start>33001</start>
					<end>35362</end>
					<pixelaspectratio>Square</pixelaspectratio>
					<anamorphic>FALSE</anamorphic>
					<alphatype>none</alphatype>
					<logginginfo>
						<scene/>
						<shottake/>
						<lognote/>
						<good>FALSE</good>
					</logginginfo>
					<labels>
						<label2/>
					</labels>
					<comments>
						<mastercomment1/>
						<mastercomment2/>
						<mastercomment3/>
						<mastercomment4/>
					</comments>
					<file id="AndrewLord001Subclipc1">
						<name>AndrewLord001Subclipc</name>
						<pathurl>file://localhost/Volumes/Michael's%20Passport/woodbdrigenov2011media/AndrewLord001Subclipc</pathurl>
						<rate>
							<timebase>25</timebase>
						</rate>
						<duration>2362</duration>
						<metadata>
							<storage>QuickTime</storage>
							<key>com.apple.finalcutstudio.media.uuid</key>
							<size>36</size>
							<type>UTF8</type>
							<value>1448ECB9-41F2-49E7-97A3-95A0D1EFDF16</value>
						</metadata>
						<media>
							<video>
								<duration>2362</duration>
								<samplecharacteristics>
									<width>1280</width>
									<height>720</height>
								</samplecharacteristics>
							</video>
							<audio>
								<samplecharacteristics>
									<samplerate>48000</samplerate>
									<depth>16</depth>
								</samplecharacteristics>
								<channelcount>2</channelcount>
								<layout>stereo</layout>
								<audiochannel>
									<sourcechannel>1</sourcechannel>
									<channellabel>left</channellabel>
								</audiochannel>
								<audiochannel>
									<sourcechannel>2</sourcechannel>
									<channellabel>right</channellabel>
								</audiochannel>
							</audio>
						</media>
					</file>
					<sourcetrack>
						<mediatype>video</mediatype>
					</sourcetrack>
					<fielddominance>none</fielddominance>
					<itemhistory>
						<uuid>0B564BA7-A2E2-4597-A373-684626A42DEC</uuid>
						<uuid>9E64C173-78A1-4597-9CF9-321DC6C04489</uuid>
					</itemhistory>
				</clipitem>
				<clipitem id="AndrewLord001Subclipd">
					<name>AndrewLord001Subclipd</name>
					<duration>428</duration>
					<rate>
						<ntsc>FALSE</ntsc>
						<timebase>25</timebase>
					</rate>
					<in>0</in>
					<out>427</out>
					<start>35441</start>
					<end>35868</end>
					<pixelaspectratio>Square</pixelaspectratio>
					<anamorphic>FALSE</anamorphic>
					<alphatype>none</alphatype>
					<logginginfo>
						<scene/>
						<shottake/>
						<lognote/>
						<good>FALSE</good>
					</logginginfo>
					<labels>
						<label2/>
					</labels>
					<comments>
						<mastercomment1/>
						<mastercomment2/>
						<mastercomment3/>
						<mastercomment4/>
					</comments>
					<file id="AndrewLord001Subclipd1">
						<name>AndrewLord001Subclipd</name>
						<pathurl>file://localhost/Volumes/Michael's%20Passport/woodbdrigenov2011media/AndrewLord001Subclipd</pathurl>
						<rate>
							<timebase>25</timebase>
						</rate>
						<duration>428</duration>
						<metadata>
							<storage>QuickTime</storage>
							<key>com.apple.finalcutstudio.media.uuid</key>
							<size>36</size>
							<type>UTF8</type>
							<value>EDDC3908-832D-4536-915B-F2C7DE4720F9</value>
						</metadata>
						<media>
							<video>
								<duration>428</duration>
								<samplecharacteristics>
									<width>1280</width>
									<height>720</height>
								</samplecharacteristics>
							</video>
							<audio>
								<samplecharacteristics>
									<samplerate>48000</samplerate>
									<depth>16</depth>
								</samplecharacteristics>
								<channelcount>2</channelcount>
								<layout>stereo</layout>
								<audiochannel>
									<sourcechannel>1</sourcechannel>
									<channellabel>left</channellabel>
								</audiochannel>
								<audiochannel>
									<sourcechannel>2</sourcechannel>
									<channellabel>right</channellabel>
								</audiochannel>
							</audio>
						</media>
					</file>
					<sourcetrack>
						<mediatype>video</mediatype>
					</sourcetrack>
					<fielddominance>none</fielddominance>
					<itemhistory>
						<uuid>97E502ED-AAFF-423B-A90B-CFA25001752B</uuid>
						<uuid>0E374591-6935-41D0-8C27-D438BE0672CC</uuid>
					</itemhistory>
				</clipitem>
				<clipitem id="AndrewLord001Subclipe">
					<name>AndrewLord001Subclipe</name>
					<duration>603</duration>
					<rate>
						<ntsc>FALSE</ntsc>
						<timebase>25</timebase>
					</rate>
					<in>0</in>
					<out>602</out>
					<start>36271</start>
					<end>36873</end>
					<pixelaspectratio>Square</pixelaspectratio>
					<anamorphic>FALSE</anamorphic>
					<alphatype>none</alphatype>
					<logginginfo>
						<scene/>
						<shottake/>
						<lognote/>
						<good>FALSE</good>
					</logginginfo>
					<labels>
						<label2/>
					</labels>
					<comments>
						<mastercomment1/>
						<mastercomment2/>
						<mastercomment3/>
						<mastercomment4/>
					</comments>
					<file id="AndrewLord001Subclipe1">
						<name>AndrewLord001Subclipe</name>
						<pathurl>file://localhost/Volumes/Michael's%20Passport/woodbdrigenov2011media/AndrewLord001Subclipe</pathurl>
						<rate>
							<timebase>25</timebase>
						</rate>
						<duration>603</duration>
						<metadata>
							<storage>QuickTime</storage>
							<key>com.apple.finalcutstudio.media.uuid</key>
							<size>36</size>
							<type>UTF8</type>
							<value>9D366C5C-88BC-4FA8-861F-F26BF685E16C</value>
						</metadata>
						<media>
							<video>
								<duration>603</duration>
								<samplecharacteristics>
									<width>1280</width>
									<height>720</height>
								</samplecharacteristics>
							</video>
							<audio>
								<samplecharacteristics>
									<samplerate>48000</samplerate>
									<depth>16</depth>
								</samplecharacteristics>
								<channelcount>2</channelcount>
								<layout>stereo</layout>
								<audiochannel>
									<sourcechannel>1</sourcechannel>
									<channellabel>left</channellabel>
								</audiochannel>
								<audiochannel>
									<sourcechannel>2</sourcechannel>
									<channellabel>right</channellabel>
								</audiochannel>
							</audio>
						</media>
					</file>
					<sourcetrack>
						<mediatype>video</mediatype>
					</sourcetrack>
					<fielddominance>none</fielddominance>
					<itemhistory>
						<uuid>D3C9D00E-1F39-4C0C-B116-3AE788DFF439</uuid>
						<uuid>F724ED3C-69CC-4984-B3FA-1E0BED1777F7</uuid>
					</itemhistory>
				</clipitem>
				<clipitem id="AndrewLord001Subclipf">
					<name>AndrewLord001Subclipf</name>
					<duration>257</duration>
					<rate>
						<ntsc>FALSE</ntsc>
						<timebase>25</timebase>
					</rate>
					<in>0</in>
					<out>256</out>
					<start>36922</start>
					<end>37178</end>
					<pixelaspectratio>Square</pixelaspectratio>
					<anamorphic>FALSE</anamorphic>
					<alphatype>none</alphatype>
					<logginginfo>
						<scene/>
						<shottake/>
						<lognote/>
						<good>FALSE</good>
					</logginginfo>
					<labels>
						<label2/>
					</labels>
					<comments>
						<mastercomment1/>
						<mastercomment2/>
						<mastercomment3/>
						<mastercomment4/>
					</comments>
					<file id="AndrewLord001Subclipf1">
						<name>AndrewLord001Subclipf</name>
						<pathurl>file://localhost/Volumes/Michael's%20Passport/woodbdrigenov2011media/AndrewLord001Subclipf</pathurl>
						<rate>
							<timebase>25</timebase>
						</rate>
						<duration>257</duration>
						<metadata>
							<storage>QuickTime</storage>
							<key>com.apple.finalcutstudio.media.uuid</key>
							<size>36</size>
							<type>UTF8</type>
							<value>79C56F6B-119E-4D67-9224-2DD090C49038</value>
						</metadata>
						<media>
							<video>
								<duration>257</duration>
								<samplecharacteristics>
									<width>1280</width>
									<height>720</height>
								</samplecharacteristics>
							</video>
							<audio>
								<samplecharacteristics>
									<samplerate>48000</samplerate>
									<depth>16</depth>
								</samplecharacteristics>
								<channelcount>2</channelcount>
								<layout>stereo</layout>
								<audiochannel>
									<sourcechannel>1</sourcechannel>
									<channellabel>left</channellabel>
								</audiochannel>
								<audiochannel>
									<sourcechannel>2</sourcechannel>
									<channellabel>right</channellabel>
								</audiochannel>
							</audio>
						</media>
					</file>
					<sourcetrack>
						<mediatype>video</mediatype>
					</sourcetrack>
					<fielddominance>none</fielddominance>
					<itemhistory>
						<uuid>A41741A7-4F2D-4BE8-A523-84D9940FBF9C</uuid>
						<uuid>49EBC415-07C8-4AAD-B6E9-4F75FDC89FF6</uuid>
					</itemhistory>
				</clipitem>
				<clipitem id="AndrewLord001Subclipg">
					<name>AndrewLord001Subclipg</name>
					<duration>1739</duration>
					<rate>
						<ntsc>FALSE</ntsc>
						<timebase>25</timebase>
					</rate>
					<in>0</in>
					<out>1738</out>
					<start>37272</start>
					<end>39010</end>
					<pixelaspectratio>Square</pixelaspectratio>
					<anamorphic>FALSE</anamorphic>
					<alphatype>none</alphatype>
					<logginginfo>
						<scene/>
						<shottake/>
						<lognote/>
						<good>FALSE</good>
					</logginginfo>
					<labels>
						<label2/>
					</labels>
					<comments>
						<mastercomment1/>
						<mastercomment2/>
						<mastercomment3/>
						<mastercomment4/>
					</comments>
					<file id="AndrewLord001Subclipg1">
						<name>AndrewLord001Subclipg</name>
						<pathurl>file://localhost/Volumes/Michael's%20Passport/woodbdrigenov2011media/AndrewLord001Subclipg</pathurl>
						<rate>
							<timebase>25</timebase>
						</rate>
						<duration>1739</duration>
						<metadata>
							<storage>QuickTime</storage>
							<key>com.apple.finalcutstudio.media.uuid</key>
							<size>36</size>
							<type>UTF8</type>
							<value>2EAC81BB-123B-4A9D-9272-FAEF6D87A783</value>
						</metadata>
						<media>
							<video>
								<duration>1739</duration>
								<samplecharacteristics>
									<width>1280</width>
									<height>720</height>
								</samplecharacteristics>
							</video>
							<audio>
								<samplecharacteristics>
									<samplerate>48000</samplerate>
									<depth>16</depth>
								</samplecharacteristics>
								<channelcount>2</channelcount>
								<layout>stereo</layout>
								<audiochannel>
									<sourcechannel>1</sourcechannel>
									<channellabel>left</channellabel>
								</audiochannel>
								<audiochannel>
									<sourcechannel>2</sourcechannel>
									<channellabel>right</channellabel>
								</audiochannel>
							</audio>
						</media>
					</file>
					<sourcetrack>
						<mediatype>video</mediatype>
					</sourcetrack>
					<fielddominance>none</fielddominance>
					<itemhistory>
						<uuid>22D2FADA-AFFA-445C-9F9C-EBB81C29A8CC</uuid>
						<uuid>94BBBB3B-A0E1-455F-8C10-C990F3690B1D</uuid>
					</itemhistory>
				</clipitem>
				<clipitem id="AndrewLord001Subcliph">
					<name>AndrewLord001Subcliph</name>
					<duration>2209</duration>
					<rate>
						<ntsc>FALSE</ntsc>
						<timebase>25</timebase>
					</rate>
					<in>0</in>
					<out>2209</out>
					<start>39394</start>
					<end>41603</end>
					<pixelaspectratio>Square</pixelaspectratio>
					<anamorphic>FALSE</anamorphic>
					<alphatype>none</alphatype>
					<logginginfo>
						<scene/>
						<shottake/>
						<lognote/>
						<good>FALSE</good>
					</logginginfo>
					<labels>
						<label2/>
					</labels>
					<comments>
						<mastercomment1/>
						<mastercomment2/>
						<mastercomment3/>
						<mastercomment4/>
					</comments>
					<file id="AndrewLord001Subcliph1">
						<name>AndrewLord001Subcliph</name>
						<pathurl>file://localhost/Volumes/Michael's%20Passport/woodbdrigenov2011media/AndrewLord001Subcliph</pathurl>
						<rate>
							<timebase>25</timebase>
						</rate>
						<duration>2209</duration>
						<metadata>
							<storage>QuickTime</storage>
							<key>com.apple.finalcutstudio.media.uuid</key>
							<size>36</size>
							<type>UTF8</type>
							<value>4276535A-D7DF-4994-AB4A-2F8910AE6614</value>
						</metadata>
						<media>
							<video>
								<duration>2209</duration>
								<samplecharacteristics>
									<width>1280</width>
									<height>720</height>
								</samplecharacteristics>
							</video>
							<audio>
								<samplecharacteristics>
									<samplerate>48000</samplerate>
									<depth>16</depth>
								</samplecharacteristics>
								<channelcount>2</channelcount>
								<layout>stereo</layout>
								<audiochannel>
									<sourcechannel>1</sourcechannel>
									<channellabel>left</channellabel>
								</audiochannel>
								<audiochannel>
									<sourcechannel>2</sourcechannel>
									<channellabel>right</channellabel>
								</audiochannel>
							</audio>
						</media>
					</file>
					<sourcetrack>
						<mediatype>video</mediatype>
					</sourcetrack>
					<fielddominance>none</fielddominance>
					<itemhistory>
						<uuid>B11A1BE8-F32C-45A9-B0A0-BCD03DB5819B</uuid>
						<uuid>F8E75E85-01FB-4D1B-B609-C8AB57468CAC</uuid>
					</itemhistory>
				</clipitem>
				<clipitem id="AndrewLord001Subclipi">
					<name>AndrewLord001Subclipi</name>
					<duration>2672</duration>
					<rate>
						<ntsc>FALSE</ntsc>
						<timebase>25</timebase>
					</rate>
					<in>0</in>
					<out>2671</out>
					<start>41688</start>
					<end>44359</end>
					<pixelaspectratio>Square</pixelaspectratio>
					<anamorphic>FALSE</anamorphic>
					<alphatype>none</alphatype>
					<logginginfo>
						<scene/>
						<shottake/>
						<lognote/>
						<good>FALSE</good>
					</logginginfo>
					<labels>
						<label2/>
					</labels>
					<comments>
						<mastercomment1/>
						<mastercomment2/>
						<mastercomment3/>
						<mastercomment4/>
					</comments>
					<file id="AndrewLord001Subclipi1">
						<name>AndrewLord001Subclipi</name>
						<pathurl>file://localhost/Volumes/Michael's%20Passport/woodbdrigenov2011media/AndrewLord001Subclipi</pathurl>
						<rate>
							<timebase>25</timebase>
						</rate>
						<duration>2672</duration>
						<metadata>
							<storage>QuickTime</storage>
							<key>com.apple.finalcutstudio.media.uuid</key>
							<size>36</size>
							<type>UTF8</type>
							<value>F7CDA421-A483-4982-9790-8DAC103DD066</value>
						</metadata>
						<media>
							<video>
								<duration>2672</duration>
								<samplecharacteristics>
									<width>1280</width>
									<height>720</height>
								</samplecharacteristics>
							</video>
							<audio>
								<samplecharacteristics>
									<samplerate>48000</samplerate>
									<depth>16</depth>
								</samplecharacteristics>
								<channelcount>2</channelcount>
								<layout>stereo</layout>
								<audiochannel>
									<sourcechannel>1</sourcechannel>
									<channellabel>left</channellabel>
								</audiochannel>
								<audiochannel>
									<sourcechannel>2</sourcechannel>
									<channellabel>right</channellabel>
								</audiochannel>
							</audio>
						</media>
					</file>
					<sourcetrack>
						<mediatype>video</mediatype>
					</sourcetrack>
					<fielddominance>none</fielddominance>
					<itemhistory>
						<uuid>37EAFAF8-A9ED-418D-BC29-2AF0A34F0B90</uuid>
						<uuid>BE142C07-FD9B-49A2-A277-5E6F5E0B5636</uuid>
					</itemhistory>
				</clipitem>
				<clipitem id="AndrewLord001Subclipj">
					<name>AndrewLord001Subclipj</name>
					<duration>275</duration>
					<rate>
						<ntsc>FALSE</ntsc>
						<timebase>25</timebase>
					</rate>
					<in>0</in>
					<out>274</out>
					<start>44431</start>
					<end>44705</end>
					<pixelaspectratio>Square</pixelaspectratio>
					<anamorphic>FALSE</anamorphic>
					<alphatype>none</alphatype>
					<logginginfo>
						<scene/>
						<shottake/>
						<lognote/>
						<good>FALSE</good>
					</logginginfo>
					<labels>
						<label2/>
					</labels>
					<comments>
						<mastercomment1/>
						<mastercomment2/>
						<mastercomment3/>
						<mastercomment4/>
					</comments>
					<file id="AndrewLord001Subclipj1">
						<name>AndrewLord001Subclipj</name>
						<pathurl>file://localhost/Volumes/Michael's%20Passport/woodbdrigenov2011media/AndrewLord001Subclipj</pathurl>
						<rate>
							<timebase>25</timebase>
						</rate>
						<duration>275</duration>
						<metadata>
							<storage>QuickTime</storage>
							<key>com.apple.finalcutstudio.media.uuid</key>
							<size>36</size>
							<type>UTF8</type>
							<value>9F3E8E79-0438-4C4C-A872-644B0A305927</value>
						</metadata>
						<media>
							<video>
								<duration>275</duration>
								<samplecharacteristics>
									<width>1280</width>
									<height>720</height>
								</samplecharacteristics>
							</video>
							<audio>
								<samplecharacteristics>
									<samplerate>48000</samplerate>
									<depth>16</depth>
								</samplecharacteristics>
								<channelcount>2</channelcount>
								<layout>stereo</layout>
								<audiochannel>
									<sourcechannel>1</sourcechannel>
									<channellabel>left</channellabel>
								</audiochannel>
								<audiochannel>
									<sourcechannel>2</sourcechannel>
									<channellabel>right</channellabel>
								</audiochannel>
							</audio>
						</media>
					</file>
					<sourcetrack>
						<mediatype>video</mediatype>
					</sourcetrack>
					<fielddominance>none</fielddominance>
					<itemhistory>
						<uuid>F4729A15-7DB8-47AF-B6B1-503F6E07AF91</uuid>
						<uuid>D57AA9D9-C2A0-450D-9977-2B10A242D021</uuid>
					</itemhistory>
				</clipitem>
				<clipitem id="AndrewLord002 ">
					<name>AndrewLord002</name>
					<duration>15306</duration>
					<rate>
						<ntsc>FALSE</ntsc>
						<timebase>25</timebase>
					</rate>
					<in>0</in>
					<out>15305</out>
					<start>53091</start>
					<end>68396</end>
					<pixelaspectratio>Square</pixelaspectratio>
					<anamorphic>FALSE</anamorphic>
					<alphatype>none</alphatype>
					<logginginfo>
						<scene/>
						<shottake/>
						<lognote/>
						<good>FALSE</good>
					</logginginfo>
					<labels>
						<label2/>
					</labels>
					<comments>
						<mastercomment1/>
						<mastercomment2/>
						<mastercomment3/>
						<mastercomment4/>
					</comments>
					<file id="AndrewLord002 1">
						<name>AndrewLord002</name>
						<pathurl>file://localhost/Volumes/Michael's%20Passport/woodbdrigenov2011media/AndrewLord002</pathurl>
						<rate>
							<timebase>25</timebase>
						</rate>
						<duration>15306</duration>
						<metadata>
							<storage>QuickTime</storage>
							<key>com.apple.finalcutstudio.media.uuid</key>
							<size>36</size>
							<type>UTF8</type>
							<value>92FCE0E0-3DAB-471F-9C58-284FCC767480</value>
						</metadata>
						<media>
							<video>
								<duration>15306</duration>
								<samplecharacteristics>
									<width>1280</width>
									<height>720</height>
								</samplecharacteristics>
							</video>
							<audio>
								<samplecharacteristics>
									<samplerate>48000</samplerate>
									<depth>16</depth>
								</samplecharacteristics>
								<channelcount>2</channelcount>
								<layout>stereo</layout>
								<audiochannel>
									<sourcechannel>1</sourcechannel>
									<channellabel>left</channellabel>
								</audiochannel>
								<audiochannel>
									<sourcechannel>2</sourcechannel>
									<channellabel>right</channellabel>
								</audiochannel>
							</audio>
						</media>
					</file>
					<sourcetrack>
						<mediatype>video</mediatype>
					</sourcetrack>
					<fielddominance>none</fielddominance>
					<itemhistory>
						<uuid>978F8FF8-1F6B-407F-B1C4-F565B464E7BE</uuid>
						<uuid>FD12E34C-A46D-4AB2-9A3B-DFDC4A44F301</uuid>
					</itemhistory>
				</clipitem>
				<clipitem id="AndrewLord003Subclipa">
					<name>AndrewLord003Subclipa</name>
					<duration>4711</duration>
					<rate>
						<ntsc>FALSE</ntsc>
						<timebase>25</timebase>
					</rate>
					<in>0</in>
					<out>4710</out>
					<start>94658</start>
					<end>99368</end>
					<pixelaspectratio>Square</pixelaspectratio>
					<anamorphic>FALSE</anamorphic>
					<alphatype>none</alphatype>
					<logginginfo>
						<scene/>
						<shottake/>
						<lognote/>
						<good>FALSE</good>
					</logginginfo>
					<labels>
						<label2/>
					</labels>
					<comments>
						<mastercomment1/>
						<mastercomment2/>
						<mastercomment3/>
						<mastercomment4/>
					</comments>
					<file id="AndrewLord003Subclipa1">
						<name>AndrewLord003Subclipa</name>
						<pathurl>file://localhost/Volumes/Michael's%20Passport/woodbdrigenov2011media/AndrewLord003Subclipa</pathurl>
						<rate>
							<timebase>25</timebase>
						</rate>
						<duration>4711</duration>
						<metadata>
							<storage>QuickTime</storage>
							<key>com.apple.finalcutstudio.media.uuid</key>
							<size>36</size>
							<type>UTF8</type>
							<value>AB6FD085-D08D-4E1C-A45B-2602490B7EA3</value>
						</metadata>
						<media>
							<video>
								<duration>4711</duration>
								<samplecharacteristics>
									<width>1280</width>
									<height>720</height>
								</samplecharacteristics>
							</video>
							<audio>
								<samplecharacteristics>
									<samplerate>48000</samplerate>
									<depth>16</depth>
								</samplecharacteristics>
								<channelcount>2</channelcount>
								<layout>stereo</layout>
								<audiochannel>
									<sourcechannel>1</sourcechannel>
									<channellabel>left</channellabel>
								</audiochannel>
								<audiochannel>
									<sourcechannel>2</sourcechannel>
									<channellabel>right</channellabel>
								</audiochannel>
							</audio>
						</media>
					</file>
					<sourcetrack>
						<mediatype>video</mediatype>
					</sourcetrack>
					<fielddominance>none</fielddominance>
					<itemhistory>
						<uuid>A134A618-743E-47FF-B22F-308BE0F80B95</uuid>
						<uuid>24447929-3CDC-455A-B7E2-3C8AEE31422C</uuid>
					</itemhistory>
				</clipitem>
				<clipitem id="AndrewLord004Subclipa">
					<name>AndrewLord004Subclipa</name>
					<duration>500</duration>
					<rate>
						<ntsc>FALSE</ntsc>
						<timebase>25</timebase>
					</rate>
					<in>0</in>
					<out>500</out>
					<start>108784</start>
					<end>109284</end>
					<pixelaspectratio>Square</pixelaspectratio>
					<anamorphic>FALSE</anamorphic>
					<alphatype>none</alphatype>
					<logginginfo>
						<scene/>
						<shottake/>
						<lognote/>
						<good>FALSE</good>
					</logginginfo>
					<labels>
						<label2/>
					</labels>
					<comments>
						<mastercomment1/>
						<mastercomment2/>
						<mastercomment3/>
						<mastercomment4/>
					</comments>
					<file id="AndrewLord004Subclipa1">
						<name>AndrewLord004Subclipa</name>
						<pathurl>file://localhost/Volumes/Michael's%20Passport/woodbdrigenov2011media/AndrewLord004Subclipa</pathurl>
						<rate>
							<timebase>25</timebase>
						</rate>
						<duration>500</duration>
						<metadata>
							<storage>QuickTime</storage>
							<key>com.apple.finalcutstudio.media.uuid</key>
							<size>36</size>
							<type>UTF8</type>
							<value>1CAE58E1-DF6A-444A-91F7-3A64E708FE7F</value>
						</metadata>
						<media>
							<video>
								<duration>500</duration>
								<samplecharacteristics>
									<width>1280</width>
									<height>720</height>
								</samplecharacteristics>
							</video>
							<audio>
								<samplecharacteristics>
									<samplerate>48000</samplerate>
									<depth>16</depth>
								</samplecharacteristics>
								<channelcount>2</channelcount>
								<layout>stereo</layout>
								<audiochannel>
									<sourcechannel>1</sourcechannel>
									<channellabel>left</channellabel>
								</audiochannel>
								<audiochannel>
									<sourcechannel>2</sourcechannel>
									<channellabel>right</channellabel>
								</audiochannel>
							</audio>
						</media>
					</file>
					<sourcetrack>
						<mediatype>video</mediatype>
					</sourcetrack>
					<fielddominance>none</fielddominance>
					<itemhistory>
						<uuid>49403D41-4FE4-4496-A5E5-C439E94D05DB</uuid>
						<uuid>D2838135-A179-486E-9FE9-3CD36CE53CB1</uuid>
					</itemhistory>
				</clipitem>
				<clipitem id="AndrewLord004Subclipb">
					<name>AndrewLord004Subclipb</name>
					<duration>2555</duration>
					<rate>
						<ntsc>FALSE</ntsc>
						<timebase>25</timebase>
					</rate>
					<in>0</in>
					<out>2554</out>
					<start>109409</start>
					<end>111963</end>
					<pixelaspectratio>Square</pixelaspectratio>
					<anamorphic>FALSE</anamorphic>
					<alphatype>none</alphatype>
					<logginginfo>
						<scene/>
						<shottake/>
						<lognote/>
						<good>FALSE</good>
					</logginginfo>
					<labels>
						<label2/>
					</labels>
					<comments>
						<mastercomment1/>
						<mastercomment2/>
						<mastercomment3/>
						<mastercomment4/>
					</comments>
					<file id="AndrewLord004Subclipb1">
						<name>AndrewLord004Subclipb</name>
						<pathurl>file://localhost/Volumes/Michael's%20Passport/woodbdrigenov2011media/AndrewLord004Subclipb</pathurl>
						<rate>
							<timebase>25</timebase>
						</rate>
						<duration>2555</duration>
						<metadata>
							<storage>QuickTime</storage>
							<key>com.apple.finalcutstudio.media.uuid</key>
							<size>36</size>
							<type>UTF8</type>
							<value>7DCEC288-D33A-47E6-85B8-BD9D8C883156</value>
						</metadata>
						<media>
							<video>
								<duration>2555</duration>
								<samplecharacteristics>
									<width>1280</width>
									<height>720</height>
								</samplecharacteristics>
							</video>
							<audio>
								<samplecharacteristics>
									<samplerate>48000</samplerate>
									<depth>16</depth>
								</samplecharacteristics>
								<channelcount>2</channelcount>
								<layout>stereo</layout>
								<audiochannel>
									<sourcechannel>1</sourcechannel>
									<channellabel>left</channellabel>
								</audiochannel>
								<audiochannel>
									<sourcechannel>2</sourcechannel>
									<channellabel>right</channellabel>
								</audiochannel>
							</audio>
						</media>
					</file>
					<sourcetrack>
						<mediatype>video</mediatype>
					</sourcetrack>
					<fielddominance>none</fielddominance>
					<itemhistory>
						<uuid>CBC655F4-B958-4353-A2BF-30F246C129F4</uuid>
						<uuid>CD5C2E6A-C87B-47C9-9487-6EDAA12B52A8</uuid>
					</itemhistory>
				</clipitem>
				<clipitem id="AndrewLord004Subclipc">
					<name>AndrewLord004Subclipc</name>
					<duration>5686</duration>
					<rate>
						<ntsc>FALSE</ntsc>
						<timebase>25</timebase>
					</rate>
					<in>0</in>
					<out>5686</out>
					<start>112149</start>
					<end>117835</end>
					<pixelaspectratio>Square</pixelaspectratio>
					<anamorphic>FALSE</anamorphic>
					<alphatype>none</alphatype>
					<logginginfo>
						<scene/>
						<shottake/>
						<lognote/>
						<good>FALSE</good>
					</logginginfo>
					<labels>
						<label2/>
					</labels>
					<comments>
						<mastercomment1/>
						<mastercomment2/>
						<mastercomment3/>
						<mastercomment4/>
					</comments>
					<file id="AndrewLord004Subclipc1">
						<name>AndrewLord004Subclipc</name>
						<pathurl>file://localhost/Volumes/Michael's%20Passport/woodbdrigenov2011media/AndrewLord004Subclipc</pathurl>
						<rate>
							<timebase>25</timebase>
						</rate>
						<duration>5686</duration>
						<metadata>
							<storage>QuickTime</storage>
							<key>com.apple.finalcutstudio.media.uuid</key>
							<size>36</size>
							<type>UTF8</type>
							<value>A3491C5A-A20C-409E-A374-E424E6F1E576</value>
						</metadata>
						<media>
							<video>
								<duration>5686</duration>
								<samplecharacteristics>
									<width>1280</width>
									<height>720</height>
								</samplecharacteristics>
							</video>
							<audio>
								<samplecharacteristics>
									<samplerate>48000</samplerate>
									<depth>16</depth>
								</samplecharacteristics>
								<channelcount>2</channelcount>
								<layout>stereo</layout>
								<audiochannel>
									<sourcechannel>1</sourcechannel>
									<channellabel>left</channellabel>
								</audiochannel>
								<audiochannel>
									<sourcechannel>2</sourcechannel>
									<channellabel>right</channellabel>
								</audiochannel>
							</audio>
						</media>
					</file>
					<sourcetrack>
						<mediatype>video</mediatype>
					</sourcetrack>
					<fielddominance>none</fielddominance>
					<itemhistory>
						<uuid>77689E7C-1E2A-4FE1-AE2E-0EC284D1BD12</uuid>
						<uuid>34535022-E593-46EA-BBA5-4ED44AC7986C</uuid>
					</itemhistory>
				</clipitem>
				<clipitem id="AndrewLord005Subclipa">
					<name>AndrewLord005Subclipa</name>
					<duration>277</duration>
					<rate>
						<ntsc>FALSE</ntsc>
						<timebase>25</timebase>
					</rate>
					<in>0</in>
					<out>277</out>
					<start>125801</start>
					<end>126078</end>
					<pixelaspectratio>Square</pixelaspectratio>
					<anamorphic>FALSE</anamorphic>
					<alphatype>none</alphatype>
					<logginginfo>
						<scene/>
						<shottake/>
						<lognote/>
						<good>FALSE</good>
					</logginginfo>
					<labels>
						<label2/>
					</labels>
					<comments>
						<mastercomment1/>
						<mastercomment2/>
						<mastercomment3/>
						<mastercomment4/>
					</comments>
					<file id="AndrewLord005Subclipa1">
						<name>AndrewLord005Subclipa</name>
						<pathurl>file://localhost/Volumes/Michael's%20Passport/woodbdrigenov2011media/AndrewLord005Subclipa</pathurl>
						<rate>
							<timebase>25</timebase>
						</rate>
						<duration>277</duration>
						<metadata>
							<storage>QuickTime</storage>
							<key>com.apple.finalcutstudio.media.uuid</key>
							<size>36</size>
							<type>UTF8</type>
							<value>EF99B732-6822-4F6C-B86C-E80D9BD1C77F</value>
						</metadata>
						<media>
							<video>
								<duration>277</duration>
								<samplecharacteristics>
									<width>1280</width>
									<height>720</height>
								</samplecharacteristics>
							</video>
							<audio>
								<samplecharacteristics>
									<samplerate>48000</samplerate>
									<depth>16</depth>
								</samplecharacteristics>
								<channelcount>2</channelcount>
								<layout>stereo</layout>
								<audiochannel>
									<sourcechannel>1</sourcechannel>
									<channellabel>left</channellabel>
								</audiochannel>
								<audiochannel>
									<sourcechannel>2</sourcechannel>
									<channellabel>right</channellabel>
								</audiochannel>
							</audio>
						</media>
					</file>
					<sourcetrack>
						<mediatype>video</mediatype>
					</sourcetrack>
					<fielddominance>none</fielddominance>
					<itemhistory>
						<uuid>36272416-6C53-4834-846E-F0DEA13FF2D7</uuid>
						<uuid>B4C85C52-9C27-4525-9A51-34955DD47867</uuid>
					</itemhistory>
				</clipitem>
				<clipitem id="AndrewLord005Subclipb">
					<name>AndrewLord005Subclipb</name>
					<duration>3989</duration>
					<rate>
						<ntsc>FALSE</ntsc>
						<timebase>25</timebase>
					</rate>
					<in>0</in>
					<out>3988</out>
					<start>126107</start>
					<end>130095</end>
					<pixelaspectratio>Square</pixelaspectratio>
					<anamorphic>FALSE</anamorphic>
					<alphatype>none</alphatype>
					<logginginfo>
						<scene/>
						<shottake/>
						<lognote/>
						<good>FALSE</good>
					</logginginfo>
					<labels>
						<label2/>
					</labels>
					<comments>
						<mastercomment1/>
						<mastercomment2/>
						<mastercomment3/>
						<mastercomment4/>
					</comments>
					<file id="AndrewLord005Subclipb1">
						<name>AndrewLord005Subclipb</name>
						<pathurl>file://localhost/Volumes/Michael's%20Passport/woodbdrigenov2011media/AndrewLord005Subclipb</pathurl>
						<rate>
							<timebase>25</timebase>
						</rate>
						<duration>3989</duration>
						<metadata>
							<storage>QuickTime</storage>
							<key>com.apple.finalcutstudio.media.uuid</key>
							<size>36</size>
							<type>UTF8</type>
							<value>12AC817A-3F87-42FC-B386-2C26FED77B34</value>
						</metadata>
						<media>
							<video>
								<duration>3989</duration>
								<samplecharacteristics>
									<width>1280</width>
									<height>720</height>
								</samplecharacteristics>
							</video>
							<audio>
								<samplecharacteristics>
									<samplerate>48000</samplerate>
									<depth>16</depth>
								</samplecharacteristics>
								<channelcount>2</channelcount>
								<layout>stereo</layout>
								<audiochannel>
									<sourcechannel>1</sourcechannel>
									<channellabel>left</channellabel>
								</audiochannel>
								<audiochannel>
									<sourcechannel>2</sourcechannel>
									<channellabel>right</channellabel>
								</audiochannel>
							</audio>
						</media>
					</file>
					<sourcetrack>
						<mediatype>video</mediatype>
					</sourcetrack>
					<fielddominance>none</fielddominance>
					<itemhistory>
						<uuid>7B58C932-DEF2-4E69-8E21-2BC63ABD9141</uuid>
						<uuid>4B1302D9-3C74-4FA5-8555-205267191517</uuid>
					</itemhistory>
				</clipitem>
				<enabled>TRUE</enabled>
				<locked>FALSE</locked>
			</track>
			<track>
				<clipitem id="AntonyAgar001Subclipa">
					<name>AntonyAgar001Subclipa</name>
					<duration>569</duration>
					<rate>
						<ntsc>FALSE</ntsc>
						<timebase>25</timebase>
					</rate>
					<in>0</in>
					<out>569</out>
					<start>633</start>
					<end>1202</end>
					<pixelaspectratio>Square</pixelaspectratio>
					<enabled>TRUE</enabled>
					<anamorphic>FALSE</anamorphic>
					<alphatype>none</alphatype>
					<logginginfo>
						<scene/>
						<shottake/>
						<lognote/>
						<good>FALSE</good>
					</logginginfo>
					<labels>
						<label>Good Take</label>
						<label2/>
					</labels>
					<comments>
						<mastercomment1/>
						<mastercomment2/>
						<mastercomment3/>
						<mastercomment4/>
					</comments>
					<file id="AntonyAgar001Subclipa1">
						<name>AntonyAgar001Subclipa</name>
						<pathurl>file://localhost/Volumes/Michael's%20Passport/woodbdrigenov2011media/AntonyAgar001Subclipa</pathurl>
						<rate>
							<timebase>25</timebase>
						</rate>
						<duration>569</duration>
						<metadata>
							<storage>QuickTime</storage>
							<key>com.apple.finalcutstudio.media.uuid</key>
							<size>36</size>
							<type>UTF8</type>
							<value>B2B0865E-D98C-4575-B1CC-73F88340E2E2</value>
						</metadata>
						<metadata>
							<storage>QuickTime</storage>
							<key>com.apple.finalcutstudio.media.history.uuid</key>
							<size>36</size>
							<type>UTF8</type>
							<value>8D1DBEC5-1554-4E4D-BB9A-AF574E01CAD3</value>
						</metadata>
						<timecode>
							<rate>
								<timebase>25</timebase>
							</rate>
							<string>00:00:04:03</string>
							<frame>103</frame>
							<displayformat>NDF</displayformat>
							<source>source</source>
							<reel>
								<name>AnthonyAgar</name>
							</reel>
						</timecode>
						<media>
							<video>
								<duration>569</duration>
								<samplecharacteristics>
									<width>1280</width>
									<height>720</height>
								</samplecharacteristics>
							</video>
							<audio>
								<samplecharacteristics>
									<samplerate>48000</samplerate>
									<depth>16</depth>
								</samplecharacteristics>
								<channelcount>2</channelcount>
								<layout>stereo</layout>
								<audiochannel>
									<sourcechannel>1</sourcechannel>
									<channellabel>left</channellabel>
								</audiochannel>
								<audiochannel>
									<sourcechannel>2</sourcechannel>
									<channellabel>right</channellabel>
								</audiochannel>
							</audio>
						</media>
					</file>
					<sourcetrack>
						<mediatype>video</mediatype>
					</sourcetrack>
					<link>
						<linkclipref>AntonyAgar001Subclipa</linkclipref>
						<mediatype>video</mediatype>
						<trackindex>8</trackindex>
						<clipindex>1</clipindex>
					</link>
					<link>
						<linkclipref>AntonyAgar001Subclipa2</linkclipref>
						<mediatype>audio</mediatype>
						<trackindex>11</trackindex>
						<clipindex>1</clipindex>
						<groupindex>1</groupindex>
					</link>
					<link>
						<linkclipref>AntonyAgar001Subclipa3</linkclipref>
						<mediatype>audio</mediatype>
						<trackindex>12</trackindex>
						<clipindex>1</clipindex>
						<groupindex>1</groupindex>
					</link>
					<fielddominance>none</fielddominance>
					<itemhistory>
						<uuid>D684BF7F-99C2-4126-9456-F58FCAA679C3</uuid>
						<uuid>2FC9C6C1-98AE-42A6-A77D-C2C95BAAA09F</uuid>
					</itemhistory>
				</clipitem>
				<clipitem id="AntonyAgar002Subclipa">
					<name>AntonyAgar002Subclipa</name>
					<duration>2989</duration>
					<rate>
						<ntsc>FALSE</ntsc>
						<timebase>25</timebase>
					</rate>
					<in>0</in>
					<out>2989</out>
					<start>1202</start>
					<end>4191</end>
					<pixelaspectratio>Square</pixelaspectratio>
					<enabled>TRUE</enabled>
					<anamorphic>FALSE</anamorphic>
					<alphatype>none</alphatype>
					<logginginfo>
						<scene/>
						<shottake/>
						<lognote/>
						<good>FALSE</good>
					</logginginfo>
					<labels>
						<label>Good Take</label>
						<label2/>
					</labels>
					<comments>
						<mastercomment1/>
						<mastercomment2/>
						<mastercomment3/>
						<mastercomment4/>
					</comments>
					<file id="AntonyAgar002Subclipa1">
						<name>AntonyAgar002Subclipa</name>
						<pathurl>file://localhost/Volumes/Michael's%20Passport/woodbdrigenov2011media/AntonyAgar002Subclipa</pathurl>
						<rate>
							<timebase>25</timebase>
						</rate>
						<duration>2989</duration>
						<metadata>
							<storage>QuickTime</storage>
							<key>com.apple.finalcutstudio.media.uuid</key>
							<size>36</size>
							<type>UTF8</type>
							<value>B3DEA5E7-679E-42D9-9699-27355D409F6C</value>
						</metadata>
						<metadata>
							<storage>QuickTime</storage>
							<key>com.apple.finalcutstudio.media.history.uuid</key>
							<size>36</size>
							<type>UTF8</type>
							<value>7E003042-B3AA-4FB5-9349-81658C38C0B3</value>
						</metadata>
						<timecode>
							<rate>
								<timebase>25</timebase>
							</rate>
							<string>00:00:00:24</string>
							<frame>24</frame>
							<displayformat>NDF</displayformat>
							<source>source</source>
							<reel>
								<name>AnthonyAgar</name>
							</reel>
						</timecode>
						<media>
							<video>
								<duration>2989</duration>
								<samplecharacteristics>
									<width>1280</width>
									<height>720</height>
								</samplecharacteristics>
							</video>
							<audio>
								<samplecharacteristics>
									<samplerate>48000</samplerate>
									<depth>16</depth>
								</samplecharacteristics>
								<channelcount>2</channelcount>
								<layout>stereo</layout>
								<audiochannel>
									<sourcechannel>1</sourcechannel>
									<channellabel>left</channellabel>
								</audiochannel>
								<audiochannel>
									<sourcechannel>2</sourcechannel>
									<channellabel>right</channellabel>
								</audiochannel>
							</audio>
						</media>
					</file>
					<sourcetrack>
						<mediatype>video</mediatype>
					</sourcetrack>
					<link>
						<linkclipref>AntonyAgar002Subclipa</linkclipref>
						<mediatype>video</mediatype>
						<trackindex>8</trackindex>
						<clipindex>2</clipindex>
					</link>
					<link>
						<linkclipref>AntonyAgar002Subclipa2</linkclipref>
						<mediatype>audio</mediatype>
						<trackindex>11</trackindex>
						<clipindex>2</clipindex>
						<groupindex>1</groupindex>
					</link>
					<link>
						<linkclipref>AntonyAgar002Subclipa3</linkclipref>
						<mediatype>audio</mediatype>
						<trackindex>12</trackindex>
						<clipindex>2</clipindex>
						<groupindex>1</groupindex>
					</link>
					<fielddominance>none</fielddominance>
					<itemhistory>
						<uuid>9C8B5425-FC65-4A95-AFAB-5AA548E1CC93</uuid>
						<uuid>CA2A58BA-BBF8-48F3-B776-8BB6CE31738E</uuid>
					</itemhistory>
				</clipitem>
				<clipitem id="AntonyAgar002Subclipb">
					<name>AntonyAgar002Subclipb</name>
					<duration>1619</duration>
					<rate>
						<ntsc>FALSE</ntsc>
						<timebase>25</timebase>
					</rate>
					<in>0</in>
					<out>1619</out>
					<start>4191</start>
					<end>5810</end>
					<pixelaspectratio>Square</pixelaspectratio>
					<enabled>TRUE</enabled>
					<anamorphic>FALSE</anamorphic>
					<alphatype>none</alphatype>
					<logginginfo>
						<scene/>
						<shottake/>
						<lognote/>
						<good>FALSE</good>
					</logginginfo>
					<labels>
						<label>Good Take</label>
						<label2/>
					</labels>
					<comments>
						<mastercomment1/>
						<mastercomment2/>
						<mastercomment3/>
						<mastercomment4/>
					</comments>
					<file id="AntonyAgar002Subclipb1">
						<name>AntonyAgar002Subclipb</name>
						<pathurl>file://localhost/Volumes/Michael's%20Passport/woodbdrigenov2011media/AntonyAgar002Subclipb</pathurl>
						<rate>
							<timebase>25</timebase>
						</rate>
						<duration>1619</duration>
						<metadata>
							<storage>QuickTime</storage>
							<key>com.apple.finalcutstudio.media.uuid</key>
							<size>36</size>
							<type>UTF8</type>
							<value>CC0F9741-05B0-4550-9320-8018ACE63780</value>
						</metadata>
						<metadata>
							<storage>QuickTime</storage>
							<key>com.apple.finalcutstudio.media.history.uuid</key>
							<size>36</size>
							<type>UTF8</type>
							<value>7E003042-B3AA-4FB5-9349-81658C38C0B3</value>
						</metadata>
						<timecode>
							<rate>
								<timebase>25</timebase>
							</rate>
							<string>00:02:17:22</string>
							<frame>3447</frame>
							<displayformat>NDF</displayformat>
							<source>source</source>
							<reel>
								<name>AnthonyAgar</name>
							</reel>
						</timecode>
						<media>
							<video>
								<duration>1619</duration>
								<samplecharacteristics>
									<width>1280</width>
									<height>720</height>
								</samplecharacteristics>
							</video>
							<audio>
								<samplecharacteristics>
									<samplerate>48000</samplerate>
									<depth>16</depth>
								</samplecharacteristics>
								<channelcount>2</channelcount>
								<layout>stereo</layout>
								<audiochannel>
									<sourcechannel>1</sourcechannel>
									<channellabel>left</channellabel>
								</audiochannel>
								<audiochannel>
									<sourcechannel>2</sourcechannel>
									<channellabel>right</channellabel>
								</audiochannel>
							</audio>
						</media>
					</file>
					<sourcetrack>
						<mediatype>video</mediatype>
					</sourcetrack>
					<link>
						<linkclipref>AntonyAgar002Subclipb</linkclipref>
						<mediatype>video</mediatype>
						<trackindex>8</trackindex>
						<clipindex>3</clipindex>
					</link>
					<link>
						<linkclipref>AntonyAgar002Subclipb2</linkclipref>
						<mediatype>audio</mediatype>
						<trackindex>11</trackindex>
						<clipindex>3</clipindex>
						<groupindex>1</groupindex>
					</link>
					<link>
						<linkclipref>AntonyAgar002Subclipb3</linkclipref>
						<mediatype>audio</mediatype>
						<trackindex>12</trackindex>
						<clipindex>3</clipindex>
						<groupindex>1</groupindex>
					</link>
					<fielddominance>none</fielddominance>
					<itemhistory>
						<uuid>D7B2240D-623C-40D5-AA9D-498EF7249420</uuid>
						<uuid>93EC04A1-434C-4B13-808A-54BE31392EE6</uuid>
					</itemhistory>
				</clipitem>
				<clipitem id="AntonyAgar003 ">
					<name>AntonyAgar003</name>
					<duration>456</duration>
					<rate>
						<ntsc>FALSE</ntsc>
						<timebase>25</timebase>
					</rate>
					<in>0</in>
					<out>456</out>
					<start>5810</start>
					<end>6266</end>
					<pixelaspectratio>Square</pixelaspectratio>
					<enabled>TRUE</enabled>
					<anamorphic>FALSE</anamorphic>
					<alphatype>none</alphatype>
					<logginginfo>
						<scene/>
						<shottake/>
						<lognote/>
						<good>FALSE</good>
					</logginginfo>
					<labels>
						<label>Good Take</label>
						<label2/>
					</labels>
					<comments>
						<mastercomment1/>
						<mastercomment2/>
						<mastercomment3/>
						<mastercomment4/>
					</comments>
					<file id="AntonyAgar003 1">
						<name>AntonyAgar003</name>
						<pathurl>file://localhost/Volumes/Michael's%20Passport/woodbdrigenov2011media/AntonyAgar003</pathurl>
						<rate>
							<timebase>25</timebase>
						</rate>
						<duration>456</duration>
						<metadata>
							<storage>QuickTime</storage>
							<key>com.apple.finalcutstudio.media.uuid</key>
							<size>36</size>
							<type>UTF8</type>
							<value>F72A1F6F-F520-447D-998D-C17FAAE2D8BB</value>
						</metadata>
						<metadata>
							<storage>QuickTime</storage>
							<key>com.apple.finalcutstudio.media.history.uuid</key>
							<size>36</size>
							<type>UTF8</type>
							<value>5CF9D900-339F-44C9-B6CA-D0083BD704DE</value>
						</metadata>
						<timecode>
							<rate>
								<timebase>25</timebase>
							</rate>
							<string>00:00:00:00</string>
							<frame>0</frame>
							<displayformat>NDF</displayformat>
							<source>source</source>
							<reel>
								<name>AnthonyAgar</name>
							</reel>
						</timecode>
						<media>
							<video>
								<duration>456</duration>
								<samplecharacteristics>
									<width>1280</width>
									<height>720</height>
								</samplecharacteristics>
							</video>
							<audio>
								<samplecharacteristics>
									<samplerate>48000</samplerate>
									<depth>16</depth>
								</samplecharacteristics>
								<channelcount>2</channelcount>
								<layout>stereo</layout>
								<audiochannel>
									<sourcechannel>1</sourcechannel>
									<channellabel>left</channellabel>
								</audiochannel>
								<audiochannel>
									<sourcechannel>2</sourcechannel>
									<channellabel>right</channellabel>
								</audiochannel>
							</audio>
						</media>
					</file>
					<sourcetrack>
						<mediatype>video</mediatype>
					</sourcetrack>
					<link>
						<linkclipref>AntonyAgar003 </linkclipref>
						<mediatype>video</mediatype>
						<trackindex>8</trackindex>
						<clipindex>4</clipindex>
					</link>
					<link>
						<linkclipref>AntonyAgar003 2</linkclipref>
						<mediatype>audio</mediatype>
						<trackindex>11</trackindex>
						<clipindex>4</clipindex>
						<groupindex>1</groupindex>
					</link>
					<link>
						<linkclipref>AntonyAgar003 3</linkclipref>
						<mediatype>audio</mediatype>
						<trackindex>12</trackindex>
						<clipindex>4</clipindex>
						<groupindex>1</groupindex>
					</link>
					<fielddominance>none</fielddominance>
					<itemhistory>
						<uuid>B6EA7E1A-06AF-4385-B480-DB9CA762BD3A</uuid>
						<uuid>3AA34981-57A9-4EE9-8D71-A6F8191D8CEA</uuid>
					</itemhistory>
				</clipitem>
				<clipitem id="AntonyAgar004Subclipa">
					<name>AntonyAgar004Subclipa</name>
					<duration>2872</duration>
					<rate>
						<ntsc>FALSE</ntsc>
						<timebase>25</timebase>
					</rate>
					<in>0</in>
					<out>2872</out>
					<start>6266</start>
					<end>9138</end>
					<pixelaspectratio>Square</pixelaspectratio>
					<enabled>TRUE</enabled>
					<anamorphic>FALSE</anamorphic>
					<alphatype>none</alphatype>
					<logginginfo>
						<scene/>
						<shottake/>
						<lognote/>
						<good>FALSE</good>
					</logginginfo>
					<labels>
						<label>Good Take</label>
						<label2/>
					</labels>
					<comments>
						<mastercomment1/>
						<mastercomment2/>
						<mastercomment3/>
						<mastercomment4/>
					</comments>
					<file id="AntonyAgar004Subclipa1">
						<name>AntonyAgar004Subclipa</name>
						<pathurl>file://localhost/Volumes/Michael's%20Passport/woodbdrigenov2011media/AntonyAgar004Subclipa</pathurl>
						<rate>
							<timebase>25</timebase>
						</rate>
						<duration>2872</duration>
						<metadata>
							<storage>QuickTime</storage>
							<key>com.apple.finalcutstudio.media.uuid</key>
							<size>36</size>
							<type>UTF8</type>
							<value>699002EC-A265-4788-83FB-36AFDD31F705</value>
						</metadata>
						<metadata>
							<storage>QuickTime</storage>
							<key>com.apple.finalcutstudio.media.history.uuid</key>
							<size>36</size>
							<type>UTF8</type>
							<value>FCA59B18-106A-40D9-B0DB-BB10160BB6CC</value>
						</metadata>
						<timecode>
							<rate>
								<timebase>25</timebase>
							</rate>
							<string>00:00:09:06</string>
							<frame>231</frame>
							<displayformat>NDF</displayformat>
							<source>source</source>
							<reel>
								<name>AnthonyAgar</name>
							</reel>
						</timecode>
						<media>
							<video>
								<duration>2872</duration>
								<samplecharacteristics>
									<width>1280</width>
									<height>720</height>
								</samplecharacteristics>
							</video>
							<audio>
								<samplecharacteristics>
									<samplerate>48000</samplerate>
									<depth>16</depth>
								</samplecharacteristics>
								<channelcount>2</channelcount>
								<layout>stereo</layout>
								<audiochannel>
									<sourcechannel>1</sourcechannel>
									<channellabel>left</channellabel>
								</audiochannel>
								<audiochannel>
									<sourcechannel>2</sourcechannel>
									<channellabel>right</channellabel>
								</audiochannel>
							</audio>
						</media>
					</file>
					<sourcetrack>
						<mediatype>video</mediatype>
					</sourcetrack>
					<link>
						<linkclipref>AntonyAgar004Subclipa</linkclipref>
						<mediatype>video</mediatype>
						<trackindex>8</trackindex>
						<clipindex>5</clipindex>
					</link>
					<link>
						<linkclipref>AntonyAgar004Subclipa2</linkclipref>
						<mediatype>audio</mediatype>
						<trackindex>11</trackindex>
						<clipindex>5</clipindex>
						<groupindex>1</groupindex>
					</link>
					<link>
						<linkclipref>AntonyAgar004Subclipa3</linkclipref>
						<mediatype>audio</mediatype>
						<trackindex>12</trackindex>
						<clipindex>5</clipindex>
						<groupindex>1</groupindex>
					</link>
					<fielddominance>none</fielddominance>
					<itemhistory>
						<uuid>1AF75FD7-F1F2-4F11-AE6F-A536A78C294A</uuid>
						<uuid>A8B422F1-CF4B-422F-AF0B-72D9492FF9C9</uuid>
					</itemhistory>
				</clipitem>
				<clipitem id="AntonyAgar005Subclipa">
					<name>AntonyAgar005Subclipa</name>
					<duration>221</duration>
					<rate>
						<ntsc>FALSE</ntsc>
						<timebase>25</timebase>
					</rate>
					<in>0</in>
					<out>221</out>
					<start>9138</start>
					<end>9359</end>
					<pixelaspectratio>Square</pixelaspectratio>
					<enabled>TRUE</enabled>
					<anamorphic>FALSE</anamorphic>
					<alphatype>none</alphatype>
					<logginginfo>
						<scene/>
						<shottake/>
						<lognote/>
						<good>FALSE</good>
					</logginginfo>
					<labels>
						<label>Good Take</label>
						<label2/>
					</labels>
					<comments>
						<mastercomment1/>
						<mastercomment2/>
						<mastercomment3/>
						<mastercomment4/>
					</comments>
					<file id="AntonyAgar005Subclipa1">
						<name>AntonyAgar005Subclipa</name>
						<pathurl>file://localhost/Volumes/Michael's%20Passport/woodbdrigenov2011media/AntonyAgar005Subclipa</pathurl>
						<rate>
							<timebase>25</timebase>
						</rate>
						<duration>221</duration>
						<metadata>
							<storage>QuickTime</storage>
							<key>com.apple.finalcutstudio.media.uuid</key>
							<size>36</size>
							<type>UTF8</type>
							<value>3BF68AE9-DB46-4319-9C3E-E4CDB898E2BA</value>
						</metadata>
						<metadata>
							<storage>QuickTime</storage>
							<key>com.apple.finalcutstudio.media.history.uuid</key>
							<size>36</size>
							<type>UTF8</type>
							<value>A8BCC317-7AE5-4B44-8990-0D1CD0A434ED</value>
						</metadata>
						<timecode>
							<rate>
								<timebase>25</timebase>
							</rate>
							<string>00:00:05:19</string>
							<frame>144</frame>
							<displayformat>NDF</displayformat>
							<source>source</source>
							<reel>
								<name>AnthonyAgar</name>
							</reel>
						</timecode>
						<media>
							<video>
								<duration>221</duration>
								<samplecharacteristics>
									<width>1280</width>
									<height>720</height>
								</samplecharacteristics>
							</video>
							<audio>
								<samplecharacteristics>
									<samplerate>48000</samplerate>
									<depth>16</depth>
								</samplecharacteristics>
								<channelcount>2</channelcount>
								<layout>stereo</layout>
								<audiochannel>
									<sourcechannel>1</sourcechannel>
									<channellabel>left</channellabel>
								</audiochannel>
								<audiochannel>
									<sourcechannel>2</sourcechannel>
									<channellabel>right</channellabel>
								</audiochannel>
							</audio>
						</media>
					</file>
					<sourcetrack>
						<mediatype>video</mediatype>
					</sourcetrack>
					<link>
						<linkclipref>AntonyAgar005Subclipa</linkclipref>
						<mediatype>video</mediatype>
						<trackindex>8</trackindex>
						<clipindex>6</clipindex>
					</link>
					<link>
						<linkclipref>AntonyAgar005Subclipa2</linkclipref>
						<mediatype>audio</mediatype>
						<trackindex>11</trackindex>
						<clipindex>6</clipindex>
						<groupindex>1</groupindex>
					</link>
					<link>
						<linkclipref>AntonyAgar005Subclipa3</linkclipref>
						<mediatype>audio</mediatype>
						<trackindex>12</trackindex>
						<clipindex>6</clipindex>
						<groupindex>1</groupindex>
					</link>
					<fielddominance>none</fielddominance>
					<itemhistory>
						<uuid>9E13D5B0-419F-4CB8-9EE0-B56A8CB0B1D6</uuid>
						<uuid>E7C790FA-B513-4417-A210-6DC3BC56C25B</uuid>
					</itemhistory>
				</clipitem>
				<clipitem id="AntonyAgar006Subclipa">
					<name>AntonyAgar006Subclipa</name>
					<duration>1838</duration>
					<rate>
						<ntsc>FALSE</ntsc>
						<timebase>25</timebase>
					</rate>
					<in>0</in>
					<out>1838</out>
					<start>9359</start>
					<end>11197</end>
					<pixelaspectratio>Square</pixelaspectratio>
					<enabled>TRUE</enabled>
					<anamorphic>FALSE</anamorphic>
					<alphatype>none</alphatype>
					<logginginfo>
						<scene/>
						<shottake/>
						<lognote/>
						<good>FALSE</good>
					</logginginfo>
					<labels>
						<label>Good Take</label>
						<label2/>
					</labels>
					<comments>
						<mastercomment1/>
						<mastercomment2/>
						<mastercomment3/>
						<mastercomment4/>
					</comments>
					<file id="AntonyAgar006Subclipa1">
						<name>AntonyAgar006Subclipa</name>
						<pathurl>file://localhost/Volumes/Michael's%20Passport/woodbdrigenov2011media/AntonyAgar006Subclipa</pathurl>
						<rate>
							<timebase>25</timebase>
						</rate>
						<duration>1838</duration>
						<metadata>
							<storage>QuickTime</storage>
							<key>com.apple.finalcutstudio.media.uuid</key>
							<size>36</size>
							<type>UTF8</type>
							<value>CB6A1568-4ED9-4441-A251-F571706DA527</value>
						</metadata>
						<metadata>
							<storage>QuickTime</storage>
							<key>com.apple.finalcutstudio.media.history.uuid</key>
							<size>36</size>
							<type>UTF8</type>
							<value>9411F5DB-E314-4E83-82AD-72D1A08B440B</value>
						</metadata>
						<timecode>
							<rate>
								<timebase>25</timebase>
							</rate>
							<string>00:00:10:00</string>
							<frame>250</frame>
							<displayformat>NDF</displayformat>
							<source>source</source>
							<reel>
								<name>AnthonyAgar</name>
							</reel>
						</timecode>
						<media>
							<video>
								<duration>1838</duration>
								<samplecharacteristics>
									<width>1280</width>
									<height>720</height>
								</samplecharacteristics>
							</video>
							<audio>
								<samplecharacteristics>
									<samplerate>48000</samplerate>
									<depth>16</depth>
								</samplecharacteristics>
								<channelcount>2</channelcount>
								<layout>stereo</layout>
								<audiochannel>
									<sourcechannel>1</sourcechannel>
									<channellabel>left</channellabel>
								</audiochannel>
								<audiochannel>
									<sourcechannel>2</sourcechannel>
									<channellabel>right</channellabel>
								</audiochannel>
							</audio>
						</media>
					</file>
					<sourcetrack>
						<mediatype>video</mediatype>
					</sourcetrack>
					<link>
						<linkclipref>AntonyAgar006Subclipa</linkclipref>
						<mediatype>video</mediatype>
						<trackindex>8</trackindex>
						<clipindex>7</clipindex>
					</link>
					<link>
						<linkclipref>AntonyAgar006Subclipa2</linkclipref>
						<mediatype>audio</mediatype>
						<trackindex>11</trackindex>
						<clipindex>7</clipindex>
						<groupindex>1</groupindex>
					</link>
					<link>
						<linkclipref>AntonyAgar006Subclipa3</linkclipref>
						<mediatype>audio</mediatype>
						<trackindex>12</trackindex>
						<clipindex>7</clipindex>
						<groupindex>1</groupindex>
					</link>
					<fielddominance>none</fielddominance>
					<itemhistory>
						<uuid>93AF204A-2FBE-46D2-B31C-77B88212D459</uuid>
						<uuid>DFF58828-40CA-4DF0-8CE6-8FE34E92EC3A</uuid>
					</itemhistory>
				</clipitem>
				<clipitem id="AntonyAgar007Subclipa">
					<name>AntonyAgar007Subclipa</name>
					<duration>723</duration>
					<rate>
						<ntsc>FALSE</ntsc>
						<timebase>25</timebase>
					</rate>
					<in>32</in>
					<out>723</out>
					<start>11197</start>
					<end>11888</end>
					<pixelaspectratio>Square</pixelaspectratio>
					<enabled>TRUE</enabled>
					<anamorphic>FALSE</anamorphic>
					<alphatype>none</alphatype>
					<logginginfo>
						<scene/>
						<shottake/>
						<lognote/>
						<good>FALSE</good>
					</logginginfo>
					<labels>
						<label>Good Take</label>
						<label2/>
					</labels>
					<comments>
						<mastercomment1/>
						<mastercomment2/>
						<mastercomment3/>
						<mastercomment4/>
					</comments>
					<file id="AntonyAgar007Subclipa1">
						<name>AntonyAgar007Subclipa</name>
						<pathurl>file://localhost/Volumes/Michael's%20Passport/woodbdrigenov2011media/AntonyAgar007Subclipa</pathurl>
						<rate>
							<timebase>25</timebase>
						</rate>
						<duration>723</duration>
						<metadata>
							<storage>QuickTime</storage>
							<key>com.apple.finalcutstudio.media.uuid</key>
							<size>36</size>
							<type>UTF8</type>
							<value>2A7333B3-F128-4D79-9C87-EEC925DC4A18</value>
						</metadata>
						<metadata>
							<storage>QuickTime</storage>
							<key>com.apple.finalcutstudio.media.history.uuid</key>
							<size>36</size>
							<type>UTF8</type>
							<value>B50D2B0C-01FC-4F39-8D7D-D707F143E258</value>
						</metadata>
						<timecode>
							<rate>
								<timebase>25</timebase>
							</rate>
							<string>00:00:16:05</string>
							<frame>405</frame>
							<displayformat>NDF</displayformat>
							<source>source</source>
							<reel>
								<name>AnthonyAgar</name>
							</reel>
						</timecode>
						<media>
							<video>
								<duration>723</duration>
								<samplecharacteristics>
									<width>1280</width>
									<height>720</height>
								</samplecharacteristics>
							</video>
							<audio>
								<samplecharacteristics>
									<samplerate>48000</samplerate>
									<depth>16</depth>
								</samplecharacteristics>
								<channelcount>2</channelcount>
								<layout>stereo</layout>
								<audiochannel>
									<sourcechannel>1</sourcechannel>
									<channellabel>left</channellabel>
								</audiochannel>
								<audiochannel>
									<sourcechannel>2</sourcechannel>
									<channellabel>right</channellabel>
								</audiochannel>
							</audio>
						</media>
					</file>
					<sourcetrack>
						<mediatype>video</mediatype>
					</sourcetrack>
					<link>
						<linkclipref>AntonyAgar007Subclipa</linkclipref>
						<mediatype>video</mediatype>
						<trackindex>8</trackindex>
						<clipindex>8</clipindex>
					</link>
					<link>
						<linkclipref>AntonyAgar007Subclipa2</linkclipref>
						<mediatype>audio</mediatype>
						<trackindex>11</trackindex>
						<clipindex>8</clipindex>
						<groupindex>1</groupindex>
					</link>
					<link>
						<linkclipref>AntonyAgar007Subclipa3</linkclipref>
						<mediatype>audio</mediatype>
						<trackindex>12</trackindex>
						<clipindex>8</clipindex>
						<groupindex>1</groupindex>
					</link>
					<fielddominance>none</fielddominance>
					<itemhistory>
						<uuid>A210374C-ADA4-4248-8C3B-509F81D55875</uuid>
						<uuid>ADF39C74-D5E8-4197-832B-03B661796547</uuid>
					</itemhistory>
				</clipitem>
				<clipitem id="AntonyAgar007Subclipb">
					<name>AntonyAgar007Subclipb</name>
					<duration>136</duration>
					<rate>
						<ntsc>FALSE</ntsc>
						<timebase>25</timebase>
					</rate>
					<in>0</in>
					<out>136</out>
					<start>11888</start>
					<end>12024</end>
					<pixelaspectratio>Square</pixelaspectratio>
					<enabled>TRUE</enabled>
					<anamorphic>FALSE</anamorphic>
					<alphatype>none</alphatype>
					<logginginfo>
						<scene/>
						<shottake/>
						<lognote/>
						<good>FALSE</good>
					</logginginfo>
					<labels>
						<label>Good Take</label>
						<label2/>
					</labels>
					<comments>
						<mastercomment1/>
						<mastercomment2/>
						<mastercomment3/>
						<mastercomment4/>
					</comments>
					<file id="AntonyAgar007Subclipb1">
						<name>AntonyAgar007Subclipb</name>
						<pathurl>file://localhost/Volumes/Michael's%20Passport/woodbdrigenov2011media/AntonyAgar007Subclipb</pathurl>
						<rate>
							<timebase>25</timebase>
						</rate>
						<duration>136</duration>
						<metadata>
							<storage>QuickTime</storage>
							<key>com.apple.finalcutstudio.media.uuid</key>
							<size>36</size>
							<type>UTF8</type>
							<value>AB1C479E-51E4-43A2-992C-E27CCB693130</value>
						</metadata>
						<metadata>
							<storage>QuickTime</storage>
							<key>com.apple.finalcutstudio.media.history.uuid</key>
							<size>36</size>
							<type>UTF8</type>
							<value>B50D2B0C-01FC-4F39-8D7D-D707F143E258</value>
						</metadata>
						<timecode>
							<rate>
								<timebase>25</timebase>
							</rate>
							<string>00:00:55:02</string>
							<frame>1377</frame>
							<displayformat>NDF</displayformat>
							<source>source</source>
							<reel>
								<name>AnthonyAgar</name>
							</reel>
						</timecode>
						<media>
							<video>
								<duration>136</duration>
								<samplecharacteristics>
									<width>1280</width>
									<height>720</height>
								</samplecharacteristics>
							</video>
							<audio>
								<samplecharacteristics>
									<samplerate>48000</samplerate>
									<depth>16</depth>
								</samplecharacteristics>
								<channelcount>2</channelcount>
								<layout>stereo</layout>
								<audiochannel>
									<sourcechannel>1</sourcechannel>
									<channellabel>left</channellabel>
								</audiochannel>
								<audiochannel>
									<sourcechannel>2</sourcechannel>
									<channellabel>right</channellabel>
								</audiochannel>
							</audio>
						</media>
					</file>
					<sourcetrack>
						<mediatype>video</mediatype>
					</sourcetrack>
					<link>
						<linkclipref>AntonyAgar007Subclipb</linkclipref>
						<mediatype>video</mediatype>
						<trackindex>8</trackindex>
						<clipindex>9</clipindex>
					</link>
					<link>
						<linkclipref>AntonyAgar007Subclipb2</linkclipref>
						<mediatype>audio</mediatype>
						<trackindex>11</trackindex>
						<clipindex>9</clipindex>
						<groupindex>1</groupindex>
					</link>
					<link>
						<linkclipref>AntonyAgar007Subclipb3</linkclipref>
						<mediatype>audio</mediatype>
						<trackindex>12</trackindex>
						<clipindex>9</clipindex>
						<groupindex>1</groupindex>
					</link>
					<fielddominance>none</fielddominance>
					<itemhistory>
						<uuid>1D483FBC-7974-4EB3-8459-ECC834B6D16F</uuid>
						<uuid>555F4BAB-FA83-41CE-A177-ACBE5D89DB05</uuid>
					</itemhistory>
				</clipitem>
				<clipitem id="AntonyAgar007Subclipc">
					<name>AntonyAgar007Subclipc</name>
					<duration>451</duration>
					<rate>
						<ntsc>FALSE</ntsc>
						<timebase>25</timebase>
					</rate>
					<in>0</in>
					<out>451</out>
					<start>12024</start>
					<end>12475</end>
					<pixelaspectratio>Square</pixelaspectratio>
					<enabled>TRUE</enabled>
					<anamorphic>FALSE</anamorphic>
					<alphatype>none</alphatype>
					<logginginfo>
						<scene/>
						<shottake/>
						<lognote/>
						<good>FALSE</good>
					</logginginfo>
					<labels>
						<label>Good Take</label>
						<label2/>
					</labels>
					<comments>
						<mastercomment1/>
						<mastercomment2/>
						<mastercomment3/>
						<mastercomment4/>
					</comments>
					<file id="AntonyAgar007Subclipc1">
						<name>AntonyAgar007Subclipc</name>
						<pathurl>file://localhost/Volumes/Michael's%20Passport/woodbdrigenov2011media/AntonyAgar007Subclipc</pathurl>
						<rate>
							<timebase>25</timebase>
						</rate>
						<duration>451</duration>
						<metadata>
							<storage>QuickTime</storage>
							<key>com.apple.finalcutstudio.media.uuid</key>
							<size>36</size>
							<type>UTF8</type>
							<value>B8FA2A09-76CB-4594-88E1-84B9B630C8D1</value>
						</metadata>
						<metadata>
							<storage>QuickTime</storage>
							<key>com.apple.finalcutstudio.media.history.uuid</key>
							<size>36</size>
							<type>UTF8</type>
							<value>B50D2B0C-01FC-4F39-8D7D-D707F143E258</value>
						</metadata>
						<timecode>
							<rate>
								<timebase>25</timebase>
							</rate>
							<string>00:01:03:06</string>
							<frame>1581</frame>
							<displayformat>NDF</displayformat>
							<source>source</source>
							<reel>
								<name>AnthonyAgar</name>
							</reel>
						</timecode>
						<media>
							<video>
								<duration>451</duration>
								<samplecharacteristics>
									<width>1280</width>
									<height>720</height>
								</samplecharacteristics>
							</video>
							<audio>
								<samplecharacteristics>
									<samplerate>48000</samplerate>
									<depth>16</depth>
								</samplecharacteristics>
								<channelcount>2</channelcount>
								<layout>stereo</layout>
								<audiochannel>
									<sourcechannel>1</sourcechannel>
									<channellabel>left</channellabel>
								</audiochannel>
								<audiochannel>
									<sourcechannel>2</sourcechannel>
									<channellabel>right</channellabel>
								</audiochannel>
							</audio>
						</media>
					</file>
					<sourcetrack>
						<mediatype>video</mediatype>
					</sourcetrack>
					<link>
						<linkclipref>AntonyAgar007Subclipc</linkclipref>
						<mediatype>video</mediatype>
						<trackindex>8</trackindex>
						<clipindex>10</clipindex>
					</link>
					<link>
						<linkclipref>AntonyAgar007Subclipc2</linkclipref>
						<mediatype>audio</mediatype>
						<trackindex>11</trackindex>
						<clipindex>10</clipindex>
						<groupindex>1</groupindex>
					</link>
					<link>
						<linkclipref>AntonyAgar007Subclipc3</linkclipref>
						<mediatype>audio</mediatype>
						<trackindex>12</trackindex>
						<clipindex>10</clipindex>
						<groupindex>1</groupindex>
					</link>
					<fielddominance>none</fielddominance>
					<itemhistory>
						<uuid>8F4D5837-481F-40CC-B830-419C879C1A2B</uuid>
						<uuid>9906E492-4165-4E80-828E-B06B70A5EA91</uuid>
					</itemhistory>
				</clipitem>
				<clipitem id="AntonyAgar007Subclipd">
					<name>AntonyAgar007Subclipd</name>
					<duration>111</duration>
					<rate>
						<ntsc>FALSE</ntsc>
						<timebase>25</timebase>
					</rate>
					<in>0</in>
					<out>111</out>
					<start>12475</start>
					<end>12586</end>
					<pixelaspectratio>Square</pixelaspectratio>
					<enabled>TRUE</enabled>
					<anamorphic>FALSE</anamorphic>
					<alphatype>none</alphatype>
					<logginginfo>
						<scene/>
						<shottake/>
						<lognote/>
						<good>FALSE</good>
					</logginginfo>
					<labels>
						<label>Good Take</label>
						<label2/>
					</labels>
					<comments>
						<mastercomment1/>
						<mastercomment2/>
						<mastercomment3/>
						<mastercomment4/>
					</comments>
					<file id="AntonyAgar007Subclipd1">
						<name>AntonyAgar007Subclipd</name>
						<pathurl>file://localhost/Volumes/Michael's%20Passport/woodbdrigenov2011media/AntonyAgar007Subclipd</pathurl>
						<rate>
							<timebase>25</timebase>
						</rate>
						<duration>111</duration>
						<metadata>
							<storage>QuickTime</storage>
							<key>com.apple.finalcutstudio.media.uuid</key>
							<size>36</size>
							<type>UTF8</type>
							<value>5C14DE2D-9A53-471F-9CB9-F21FD7CA8A3E</value>
						</metadata>
						<metadata>
							<storage>QuickTime</storage>
							<key>com.apple.finalcutstudio.media.history.uuid</key>
							<size>36</size>
							<type>UTF8</type>
							<value>B50D2B0C-01FC-4F39-8D7D-D707F143E258</value>
						</metadata>
						<timecode>
							<rate>
								<timebase>25</timebase>
							</rate>
							<string>00:01:35:08</string>
							<frame>2383</frame>
							<displayformat>NDF</displayformat>
							<source>source</source>
							<reel>
								<name>AnthonyAgar</name>
							</reel>
						</timecode>
						<media>
							<video>
								<duration>111</duration>
								<samplecharacteristics>
									<width>1280</width>
									<height>720</height>
								</samplecharacteristics>
							</video>
							<audio>
								<samplecharacteristics>
									<samplerate>48000</samplerate>
									<depth>16</depth>
								</samplecharacteristics>
								<channelcount>2</channelcount>
								<layout>stereo</layout>
								<audiochannel>
									<sourcechannel>1</sourcechannel>
									<channellabel>left</channellabel>
								</audiochannel>
								<audiochannel>
									<sourcechannel>2</sourcechannel>
									<channellabel>right</channellabel>
								</audiochannel>
							</audio>
						</media>
					</file>
					<sourcetrack>
						<mediatype>video</mediatype>
					</sourcetrack>
					<link>
						<linkclipref>AntonyAgar007Subclipd</linkclipref>
						<mediatype>video</mediatype>
						<trackindex>8</trackindex>
						<clipindex>11</clipindex>
					</link>
					<link>
						<linkclipref>AntonyAgar007Subclipd2</linkclipref>
						<mediatype>audio</mediatype>
						<trackindex>11</trackindex>
						<clipindex>11</clipindex>
						<groupindex>1</groupindex>
					</link>
					<link>
						<linkclipref>AntonyAgar007Subclipd3</linkclipref>
						<mediatype>audio</mediatype>
						<trackindex>12</trackindex>
						<clipindex>11</clipindex>
						<groupindex>1</groupindex>
					</link>
					<fielddominance>none</fielddominance>
					<itemhistory>
						<uuid>9C6A74AF-3DDF-4CD8-9FC8-F776781CBC40</uuid>
						<uuid>67E39B48-4EDC-4EF9-BA34-7AB7BAD53CDC</uuid>
					</itemhistory>
				</clipitem>
				<clipitem id="AntonyAgar007Subclipe">
					<name>AntonyAgar007Subclipe</name>
					<duration>550</duration>
					<rate>
						<ntsc>FALSE</ntsc>
						<timebase>25</timebase>
					</rate>
					<in>0</in>
					<out>550</out>
					<start>12586</start>
					<end>13136</end>
					<pixelaspectratio>Square</pixelaspectratio>
					<enabled>TRUE</enabled>
					<anamorphic>FALSE</anamorphic>
					<alphatype>none</alphatype>
					<logginginfo>
						<scene/>
						<shottake/>
						<lognote/>
						<good>FALSE</good>
					</logginginfo>
					<labels>
						<label>Good Take</label>
						<label2/>
					</labels>
					<comments>
						<mastercomment1/>
						<mastercomment2/>
						<mastercomment3/>
						<mastercomment4/>
					</comments>
					<file id="AntonyAgar007Subclipe1">
						<name>AntonyAgar007Subclipe</name>
						<pathurl>file://localhost/Volumes/Michael's%20Passport/woodbdrigenov2011media/AntonyAgar007Subclipe</pathurl>
						<rate>
							<timebase>25</timebase>
						</rate>
						<duration>550</duration>
						<metadata>
							<storage>QuickTime</storage>
							<key>com.apple.finalcutstudio.media.uuid</key>
							<size>36</size>
							<type>UTF8</type>
							<value>39DF786F-935D-4976-8F14-1B22F8BBA979</value>
						</metadata>
						<metadata>
							<storage>QuickTime</storage>
							<key>com.apple.finalcutstudio.media.history.uuid</key>
							<size>36</size>
							<type>UTF8</type>
							<value>B50D2B0C-01FC-4F39-8D7D-D707F143E258</value>
						</metadata>
						<timecode>
							<rate>
								<timebase>25</timebase>
							</rate>
							<string>00:02:01:15</string>
							<frame>3040</frame>
							<displayformat>NDF</displayformat>
							<source>source</source>
							<reel>
								<name>AnthonyAgar</name>
							</reel>
						</timecode>
						<media>
							<video>
								<duration>550</duration>
								<samplecharacteristics>
									<width>1280</width>
									<height>720</height>
								</samplecharacteristics>
							</video>
							<audio>
								<samplecharacteristics>
									<samplerate>48000</samplerate>
									<depth>16</depth>
								</samplecharacteristics>
								<channelcount>2</channelcount>
								<layout>stereo</layout>
								<audiochannel>
									<sourcechannel>1</sourcechannel>
									<channellabel>left</channellabel>
								</audiochannel>
								<audiochannel>
									<sourcechannel>2</sourcechannel>
									<channellabel>right</channellabel>
								</audiochannel>
							</audio>
						</media>
					</file>
					<sourcetrack>
						<mediatype>video</mediatype>
					</sourcetrack>
					<link>
						<linkclipref>AntonyAgar007Subclipe</linkclipref>
						<mediatype>video</mediatype>
						<trackindex>8</trackindex>
						<clipindex>12</clipindex>
					</link>
					<link>
						<linkclipref>AntonyAgar007Subclipe2</linkclipref>
						<mediatype>audio</mediatype>
						<trackindex>11</trackindex>
						<clipindex>12</clipindex>
						<groupindex>1</groupindex>
					</link>
					<link>
						<linkclipref>AntonyAgar007Subclipe3</linkclipref>
						<mediatype>audio</mediatype>
						<trackindex>12</trackindex>
						<clipindex>12</clipindex>
						<groupindex>1</groupindex>
					</link>
					<fielddominance>none</fielddominance>
					<itemhistory>
						<uuid>AA8248F6-A98F-4141-85AC-CA4F1F18109C</uuid>
						<uuid>A1BDFB13-A173-4110-9CB1-768F2450C902</uuid>
					</itemhistory>
				</clipitem>
				<clipitem id="AntonyAgar008Subclip">
					<name>AntonyAgar008Subclip</name>
					<duration>123</duration>
					<rate>
						<ntsc>FALSE</ntsc>
						<timebase>25</timebase>
					</rate>
					<in>0</in>
					<out>123</out>
					<start>13136</start>
					<end>13259</end>
					<pixelaspectratio>Square</pixelaspectratio>
					<enabled>TRUE</enabled>
					<anamorphic>FALSE</anamorphic>
					<alphatype>none</alphatype>
					<logginginfo>
						<scene/>
						<shottake/>
						<lognote/>
						<good>FALSE</good>
					</logginginfo>
					<labels>
						<label>Good Take</label>
						<label2/>
					</labels>
					<comments>
						<mastercomment1/>
						<mastercomment2/>
						<mastercomment3/>
						<mastercomment4/>
					</comments>
					<file id="AntonyAgar008Subclip1">
						<name>AntonyAgar008Subclip</name>
						<pathurl>file://localhost/Volumes/Michael's%20Passport/woodbdrigenov2011media/AntonyAgar008Subclip</pathurl>
						<rate>
							<timebase>25</timebase>
						</rate>
						<duration>123</duration>
						<metadata>
							<storage>QuickTime</storage>
							<key>com.apple.finalcutstudio.media.uuid</key>
							<size>36</size>
							<type>UTF8</type>
							<value>AC9E5B6F-8C2B-4C69-8567-DB1AA074074E</value>
						</metadata>
						<metadata>
							<storage>QuickTime</storage>
							<key>com.apple.finalcutstudio.media.history.uuid</key>
							<size>36</size>
							<type>UTF8</type>
							<value>1D3B5FD1-94B6-4432-82F1-FEA02BF6AAB0</value>
						</metadata>
						<timecode>
							<rate>
								<timebase>25</timebase>
							</rate>
							<string>00:01:05:22</string>
							<frame>1647</frame>
							<displayformat>NDF</displayformat>
							<source>source</source>
							<reel>
								<name>AnthonyAgar</name>
							</reel>
						</timecode>
						<media>
							<video>
								<duration>123</duration>
								<samplecharacteristics>
									<width>1280</width>
									<height>720</height>
								</samplecharacteristics>
							</video>
							<audio>
								<samplecharacteristics>
									<samplerate>48000</samplerate>
									<depth>16</depth>
								</samplecharacteristics>
								<channelcount>2</channelcount>
								<layout>stereo</layout>
								<audiochannel>
									<sourcechannel>1</sourcechannel>
									<channellabel>left</channellabel>
								</audiochannel>
								<audiochannel>
									<sourcechannel>2</sourcechannel>
									<channellabel>right</channellabel>
								</audiochannel>
							</audio>
						</media>
					</file>
					<sourcetrack>
						<mediatype>video</mediatype>
					</sourcetrack>
					<link>
						<linkclipref>AntonyAgar008Subclip</linkclipref>
						<mediatype>video</mediatype>
						<trackindex>8</trackindex>
						<clipindex>13</clipindex>
					</link>
					<link>
						<linkclipref>AntonyAgar008Subclip2</linkclipref>
						<mediatype>audio</mediatype>
						<trackindex>11</trackindex>
						<clipindex>13</clipindex>
						<groupindex>1</groupindex>
					</link>
					<link>
						<linkclipref>AntonyAgar008Subclip3</linkclipref>
						<mediatype>audio</mediatype>
						<trackindex>12</trackindex>
						<clipindex>13</clipindex>
						<groupindex>1</groupindex>
					</link>
					<fielddominance>none</fielddominance>
					<itemhistory>
						<uuid>8469DB4A-AD6E-48EE-B931-D230EAD7E2FB</uuid>
						<uuid>BA0E7E79-ED53-4E13-9FBE-61720E2AD97C</uuid>
					</itemhistory>
				</clipitem>
				<clipitem id="AntonyAgar008Subclip2 ">
					<name>AntonyAgar008Subclip2</name>
					<duration>416</duration>
					<rate>
						<ntsc>FALSE</ntsc>
						<timebase>25</timebase>
					</rate>
					<in>0</in>
					<out>416</out>
					<start>13259</start>
					<end>13675</end>
					<pixelaspectratio>Square</pixelaspectratio>
					<enabled>TRUE</enabled>
					<anamorphic>FALSE</anamorphic>
					<alphatype>none</alphatype>
					<logginginfo>
						<scene/>
						<shottake/>
						<lognote/>
						<good>FALSE</good>
					</logginginfo>
					<labels>
						<label>Good Take</label>
						<label2/>
					</labels>
					<comments>
						<mastercomment1/>
						<mastercomment2/>
						<mastercomment3/>
						<mastercomment4/>
					</comments>
					<file id="AntonyAgar008Subclip2 1">
						<name>AntonyAgar008Subclip2</name>
						<pathurl>file://localhost/Volumes/Michael's%20Passport/woodbdrigenov2011media/AntonyAgar008Subclip2</pathurl>
						<rate>
							<timebase>25</timebase>
						</rate>
						<duration>416</duration>
						<metadata>
							<storage>QuickTime</storage>
							<key>com.apple.finalcutstudio.media.uuid</key>
							<size>36</size>
							<type>UTF8</type>
							<value>84E11C7C-CA08-4ED0-90BE-AFD19554EAA7</value>
						</metadata>
						<metadata>
							<storage>QuickTime</storage>
							<key>com.apple.finalcutstudio.media.history.uuid</key>
							<size>36</size>
							<type>UTF8</type>
							<value>1D3B5FD1-94B6-4432-82F1-FEA02BF6AAB0</value>
						</metadata>
						<timecode>
							<rate>
								<timebase>25</timebase>
							</rate>
							<string>00:01:39:23</string>
							<frame>2498</frame>
							<displayformat>NDF</displayformat>
							<source>source</source>
							<reel>
								<name>AnthonyAgar</name>
							</reel>
						</timecode>
						<media>
							<video>
								<duration>416</duration>
								<samplecharacteristics>
									<width>1280</width>
									<height>720</height>
								</samplecharacteristics>
							</video>
							<audio>
								<samplecharacteristics>
									<samplerate>48000</samplerate>
									<depth>16</depth>
								</samplecharacteristics>
								<channelcount>2</channelcount>
								<layout>stereo</layout>
								<audiochannel>
									<sourcechannel>1</sourcechannel>
									<channellabel>left</channellabel>
								</audiochannel>
								<audiochannel>
									<sourcechannel>2</sourcechannel>
									<channellabel>right</channellabel>
								</audiochannel>
							</audio>
						</media>
					</file>
					<sourcetrack>
						<mediatype>video</mediatype>
					</sourcetrack>
					<link>
						<linkclipref>AntonyAgar008Subclip2 </linkclipref>
						<mediatype>video</mediatype>
						<trackindex>8</trackindex>
						<clipindex>14</clipindex>
					</link>
					<link>
						<linkclipref>AntonyAgar008Subclip2 2</linkclipref>
						<mediatype>audio</mediatype>
						<trackindex>11</trackindex>
						<clipindex>14</clipindex>
						<groupindex>1</groupindex>
					</link>
					<link>
						<linkclipref>AntonyAgar008Subclip2 3</linkclipref>
						<mediatype>audio</mediatype>
						<trackindex>12</trackindex>
						<clipindex>14</clipindex>
						<groupindex>1</groupindex>
					</link>
					<fielddominance>none</fielddominance>
					<itemhistory>
						<uuid>DF94742D-023F-4F97-94B3-53CE7F3C2613</uuid>
						<uuid>64F31F27-C817-4EE1-88C9-AC1AAA5CE447</uuid>
					</itemhistory>
				</clipitem>
				<clipitem id="AntonyAgar008Subclip3 ">
					<name>AntonyAgar008Subclip3</name>
					<duration>392</duration>
					<rate>
						<ntsc>FALSE</ntsc>
						<timebase>25</timebase>
					</rate>
					<in>0</in>
					<out>392</out>
					<start>13675</start>
					<end>14067</end>
					<pixelaspectratio>Square</pixelaspectratio>
					<enabled>TRUE</enabled>
					<anamorphic>FALSE</anamorphic>
					<alphatype>none</alphatype>
					<logginginfo>
						<scene/>
						<shottake/>
						<lognote/>
						<good>FALSE</good>
					</logginginfo>
					<labels>
						<label>Good Take</label>
						<label2/>
					</labels>
					<comments>
						<mastercomment1/>
						<mastercomment2/>
						<mastercomment3/>
						<mastercomment4/>
					</comments>
					<file id="AntonyAgar008Subclip3 1">
						<name>AntonyAgar008Subclip3</name>
						<pathurl>file://localhost/Volumes/Michael's%20Passport/woodbdrigenov2011media/AntonyAgar008Subclip3</pathurl>
						<rate>
							<timebase>25</timebase>
						</rate>
						<duration>392</duration>
						<metadata>
							<storage>QuickTime</storage>
							<key>com.apple.finalcutstudio.media.uuid</key>
							<size>36</size>
							<type>UTF8</type>
							<value>362D6E71-0A63-479D-99AE-DA468C769CF6</value>
						</metadata>
						<metadata>
							<storage>QuickTime</storage>
							<key>com.apple.finalcutstudio.media.history.uuid</key>
							<size>36</size>
							<type>UTF8</type>
							<value>1D3B5FD1-94B6-4432-82F1-FEA02BF6AAB0</value>
						</metadata>
						<timecode>
							<rate>
								<timebase>25</timebase>
							</rate>
							<string>00:02:02:02</string>
							<frame>3052</frame>
							<displayformat>NDF</displayformat>
							<source>source</source>
							<reel>
								<name>AnthonyAgar</name>
							</reel>
						</timecode>
						<media>
							<video>
								<duration>392</duration>
								<samplecharacteristics>
									<width>1280</width>
									<height>720</height>
								</samplecharacteristics>
							</video>
							<audio>
								<samplecharacteristics>
									<samplerate>48000</samplerate>
									<depth>16</depth>
								</samplecharacteristics>
								<channelcount>2</channelcount>
								<layout>stereo</layout>
								<audiochannel>
									<sourcechannel>1</sourcechannel>
									<channellabel>left</channellabel>
								</audiochannel>
								<audiochannel>
									<sourcechannel>2</sourcechannel>
									<channellabel>right</channellabel>
								</audiochannel>
							</audio>
						</media>
					</file>
					<sourcetrack>
						<mediatype>video</mediatype>
					</sourcetrack>
					<link>
						<linkclipref>AntonyAgar008Subclip3 </linkclipref>
						<mediatype>video</mediatype>
						<trackindex>8</trackindex>
						<clipindex>15</clipindex>
					</link>
					<link>
						<linkclipref>AntonyAgar008Subclip3 2</linkclipref>
						<mediatype>audio</mediatype>
						<trackindex>11</trackindex>
						<clipindex>15</clipindex>
						<groupindex>1</groupindex>
					</link>
					<link>
						<linkclipref>AntonyAgar008Subclip3 3</linkclipref>
						<mediatype>audio</mediatype>
						<trackindex>12</trackindex>
						<clipindex>15</clipindex>
						<groupindex>1</groupindex>
					</link>
					<fielddominance>none</fielddominance>
					<itemhistory>
						<uuid>66A686BD-C64C-422A-8C9C-28301B206B15</uuid>
						<uuid>12B58A7E-E0F4-4389-B456-E637CD792355</uuid>
					</itemhistory>
				</clipitem>
				<clipitem id="AntonyAgar008Subclipa">
					<name>AntonyAgar008Subclipa</name>
					<duration>105</duration>
					<rate>
						<ntsc>FALSE</ntsc>
						<timebase>25</timebase>
					</rate>
					<in>0</in>
					<out>105</out>
					<start>14067</start>
					<end>14172</end>
					<pixelaspectratio>Square</pixelaspectratio>
					<enabled>TRUE</enabled>
					<anamorphic>FALSE</anamorphic>
					<alphatype>none</alphatype>
					<logginginfo>
						<scene/>
						<shottake/>
						<lognote/>
						<good>FALSE</good>
					</logginginfo>
					<labels>
						<label>Good Take</label>
						<label2/>
					</labels>
					<comments>
						<mastercomment1/>
						<mastercomment2/>
						<mastercomment3/>
						<mastercomment4/>
					</comments>
					<file id="AntonyAgar008Subclipa1">
						<name>AntonyAgar008Subclipa</name>
						<pathurl>file://localhost/Volumes/Michael's%20Passport/woodbdrigenov2011media/AntonyAgar008Subclipa</pathurl>
						<rate>
							<timebase>25</timebase>
						</rate>
						<duration>105</duration>
						<metadata>
							<storage>QuickTime</storage>
							<key>com.apple.finalcutstudio.media.uuid</key>
							<size>36</size>
							<type>UTF8</type>
							<value>8E58A17E-A5CE-46F5-81A2-BF4B51EC4ABD</value>
						</metadata>
						<metadata>
							<storage>QuickTime</storage>
							<key>com.apple.finalcutstudio.media.history.uuid</key>
							<size>36</size>
							<type>UTF8</type>
							<value>1D3B5FD1-94B6-4432-82F1-FEA02BF6AAB0</value>
						</metadata>
						<timecode>
							<rate>
								<timebase>25</timebase>
							</rate>
							<string>00:00:00:00</string>
							<frame>0</frame>
							<displayformat>NDF</displayformat>
							<source>source</source>
							<reel>
								<name>AnthonyAgar</name>
							</reel>
						</timecode>
						<media>
							<video>
								<duration>105</duration>
								<samplecharacteristics>
									<width>1280</width>
									<height>720</height>
								</samplecharacteristics>
							</video>
							<audio>
								<samplecharacteristics>
									<samplerate>48000</samplerate>
									<depth>16</depth>
								</samplecharacteristics>
								<channelcount>2</channelcount>
								<layout>stereo</layout>
								<audiochannel>
									<sourcechannel>1</sourcechannel>
									<channellabel>left</channellabel>
								</audiochannel>
								<audiochannel>
									<sourcechannel>2</sourcechannel>
									<channellabel>right</channellabel>
								</audiochannel>
							</audio>
						</media>
					</file>
					<sourcetrack>
						<mediatype>video</mediatype>
					</sourcetrack>
					<link>
						<linkclipref>AntonyAgar008Subclipa</linkclipref>
						<mediatype>video</mediatype>
						<trackindex>8</trackindex>
						<clipindex>16</clipindex>
					</link>
					<link>
						<linkclipref>AntonyAgar008Subclipa2</linkclipref>
						<mediatype>audio</mediatype>
						<trackindex>11</trackindex>
						<clipindex>16</clipindex>
						<groupindex>1</groupindex>
					</link>
					<link>
						<linkclipref>AntonyAgar008Subclipa3</linkclipref>
						<mediatype>audio</mediatype>
						<trackindex>12</trackindex>
						<clipindex>16</clipindex>
						<groupindex>1</groupindex>
					</link>
					<fielddominance>none</fielddominance>
					<itemhistory>
						<uuid>55F853F2-7E13-4294-B132-2B4C7B4032D2</uuid>
						<uuid>AF86129C-5356-4FE7-A6CB-6BEA4D32B86A</uuid>
					</itemhistory>
				</clipitem>
				<clipitem id="AntonyAgar008Subclipb">
					<name>AntonyAgar008Subclipb</name>
					<duration>213</duration>
					<rate>
						<ntsc>FALSE</ntsc>
						<timebase>25</timebase>
					</rate>
					<in>0</in>
					<out>213</out>
					<start>14172</start>
					<end>14385</end>
					<pixelaspectratio>Square</pixelaspectratio>
					<enabled>TRUE</enabled>
					<anamorphic>FALSE</anamorphic>
					<alphatype>none</alphatype>
					<logginginfo>
						<scene/>
						<shottake/>
						<lognote/>
						<good>FALSE</good>
					</logginginfo>
					<labels>
						<label>Good Take</label>
						<label2/>
					</labels>
					<comments>
						<mastercomment1/>
						<mastercomment2/>
						<mastercomment3/>
						<mastercomment4/>
					</comments>
					<file id="AntonyAgar008Subclipb1">
						<name>AntonyAgar008Subclipb</name>
						<pathurl>file://localhost/Volumes/Michael's%20Passport/woodbdrigenov2011media/AntonyAgar008Subclipb</pathurl>
						<rate>
							<timebase>25</timebase>
						</rate>
						<duration>213</duration>
						<metadata>
							<storage>QuickTime</storage>
							<key>com.apple.finalcutstudio.media.uuid</key>
							<size>36</size>
							<type>UTF8</type>
							<value>FDC5B801-FE72-4374-B8F4-DF528DAB57FC</value>
						</metadata>
						<metadata>
							<storage>QuickTime</storage>
							<key>com.apple.finalcutstudio.media.history.uuid</key>
							<size>36</size>
							<type>UTF8</type>
							<value>1D3B5FD1-94B6-4432-82F1-FEA02BF6AAB0</value>
						</metadata>
						<timecode>
							<rate>
								<timebase>25</timebase>
							</rate>
							<string>00:00:10:09</string>
							<frame>259</frame>
							<displayformat>NDF</displayformat>
							<source>source</source>
							<reel>
								<name>AnthonyAgar</name>
							</reel>
						</timecode>
						<media>
							<video>
								<duration>213</duration>
								<samplecharacteristics>
									<width>1280</width>
									<height>720</height>
								</samplecharacteristics>
							</video>
							<audio>
								<samplecharacteristics>
									<samplerate>48000</samplerate>
									<depth>16</depth>
								</samplecharacteristics>
								<channelcount>2</channelcount>
								<layout>stereo</layout>
								<audiochannel>
									<sourcechannel>1</sourcechannel>
									<channellabel>left</channellabel>
								</audiochannel>
								<audiochannel>
									<sourcechannel>2</sourcechannel>
									<channellabel>right</channellabel>
								</audiochannel>
							</audio>
						</media>
					</file>
					<sourcetrack>
						<mediatype>video</mediatype>
					</sourcetrack>
					<link>
						<linkclipref>AntonyAgar008Subclipb</linkclipref>
						<mediatype>video</mediatype>
						<trackindex>8</trackindex>
						<clipindex>17</clipindex>
					</link>
					<link>
						<linkclipref>AntonyAgar008Subclipb2</linkclipref>
						<mediatype>audio</mediatype>
						<trackindex>11</trackindex>
						<clipindex>17</clipindex>
						<groupindex>1</groupindex>
					</link>
					<link>
						<linkclipref>AntonyAgar008Subclipb3</linkclipref>
						<mediatype>audio</mediatype>
						<trackindex>12</trackindex>
						<clipindex>17</clipindex>
						<groupindex>1</groupindex>
					</link>
					<fielddominance>none</fielddominance>
					<itemhistory>
						<uuid>9DBB6214-4845-4FAB-BC97-023BC228EAF8</uuid>
						<uuid>63211B2B-335A-41BB-83DC-5E780D95D2D4</uuid>
					</itemhistory>
				</clipitem>
				<clipitem id="AntonyAgar015Subclipa">
					<name>AntonyAgar015Subclipa</name>
					<duration>206</duration>
					<rate>
						<ntsc>FALSE</ntsc>
						<timebase>25</timebase>
					</rate>
					<in>0</in>
					<out>205</out>
					<start>20101</start>
					<end>20306</end>
					<pixelaspectratio>Square</pixelaspectratio>
					<anamorphic>FALSE</anamorphic>
					<alphatype>none</alphatype>
					<logginginfo>
						<scene/>
						<shottake/>
						<lognote/>
						<good>FALSE</good>
					</logginginfo>
					<labels>
						<label2/>
					</labels>
					<comments>
						<mastercomment1/>
						<mastercomment2/>
						<mastercomment3/>
						<mastercomment4/>
					</comments>
					<file id="AntonyAgar015Subclipa1">
						<name>AntonyAgar015Subclipa</name>
						<pathurl>file://localhost/Volumes/Michael's%20Passport/woodbdrigenov2011media/AntonyAgar015Subclipa</pathurl>
						<rate>
							<timebase>25</timebase>
						</rate>
						<duration>206</duration>
						<metadata>
							<storage>QuickTime</storage>
							<key>com.apple.finalcutstudio.media.uuid</key>
							<size>36</size>
							<type>UTF8</type>
							<value>1D0CE180-C2F1-4A83-A64E-4D63BA9BA591</value>
						</metadata>
						<metadata>
							<storage>QuickTime</storage>
							<key>com.apple.finalcutstudio.media.history.uuid</key>
							<size>36</size>
							<type>UTF8</type>
							<value>0ABB6AD5-CCE0-4954-B3D9-1612D59C6910</value>
						</metadata>
						<timecode>
							<rate>
								<timebase>25</timebase>
							</rate>
							<string>00:00:00:00</string>
							<frame>0</frame>
							<displayformat>NDF</displayformat>
							<source>source</source>
							<reel>
								<name>AnthonyAgar</name>
							</reel>
						</timecode>
						<media>
							<video>
								<duration>206</duration>
								<samplecharacteristics>
									<width>1280</width>
									<height>720</height>
								</samplecharacteristics>
							</video>
							<audio>
								<samplecharacteristics>
									<samplerate>48000</samplerate>
									<depth>16</depth>
								</samplecharacteristics>
								<channelcount>2</channelcount>
								<layout>stereo</layout>
								<audiochannel>
									<sourcechannel>1</sourcechannel>
									<channellabel>left</channellabel>
								</audiochannel>
								<audiochannel>
									<sourcechannel>2</sourcechannel>
									<channellabel>right</channellabel>
								</audiochannel>
							</audio>
						</media>
					</file>
					<sourcetrack>
						<mediatype>video</mediatype>
					</sourcetrack>
					<fielddominance>none</fielddominance>
					<itemhistory>
						<uuid>E9FC1561-7D25-451B-A88C-4295425C1624</uuid>
						<uuid>A5095ED2-9865-45D0-9E26-CB8CC742C93E</uuid>
					</itemhistory>
				</clipitem>
				<clipitem id="AntonyAgar015Subclipb">
					<name>AntonyAgar015Subclipb</name>
					<duration>417</duration>
					<rate>
						<ntsc>FALSE</ntsc>
						<timebase>25</timebase>
					</rate>
					<in>0</in>
					<out>416</out>
					<start>20500</start>
					<end>20916</end>
					<pixelaspectratio>Square</pixelaspectratio>
					<anamorphic>FALSE</anamorphic>
					<alphatype>none</alphatype>
					<logginginfo>
						<scene/>
						<shottake/>
						<lognote/>
						<good>FALSE</good>
					</logginginfo>
					<labels>
						<label2/>
					</labels>
					<comments>
						<mastercomment1/>
						<mastercomment2/>
						<mastercomment3/>
						<mastercomment4/>
					</comments>
					<file id="AntonyAgar015Subclipb1">
						<name>AntonyAgar015Subclipb</name>
						<pathurl>file://localhost/Volumes/Michael's%20Passport/woodbdrigenov2011media/AntonyAgar015Subclipb</pathurl>
						<rate>
							<timebase>25</timebase>
						</rate>
						<duration>417</duration>
						<metadata>
							<storage>QuickTime</storage>
							<key>com.apple.finalcutstudio.media.uuid</key>
							<size>36</size>
							<type>UTF8</type>
							<value>6CEF29A2-062F-4C52-B928-01902355091E</value>
						</metadata>
						<metadata>
							<storage>QuickTime</storage>
							<key>com.apple.finalcutstudio.media.history.uuid</key>
							<size>36</size>
							<type>UTF8</type>
							<value>0ABB6AD5-CCE0-4954-B3D9-1612D59C6910</value>
						</metadata>
						<timecode>
							<rate>
								<timebase>25</timebase>
							</rate>
							<string>00:00:15:24</string>
							<frame>399</frame>
							<displayformat>NDF</displayformat>
							<source>source</source>
							<reel>
								<name>AnthonyAgar</name>
							</reel>
						</timecode>
						<media>
							<video>
								<duration>417</duration>
								<samplecharacteristics>
									<width>1280</width>
									<height>720</height>
								</samplecharacteristics>
							</video>
							<audio>
								<samplecharacteristics>
									<samplerate>48000</samplerate>
									<depth>16</depth>
								</samplecharacteristics>
								<channelcount>2</channelcount>
								<layout>stereo</layout>
								<audiochannel>
									<sourcechannel>1</sourcechannel>
									<channellabel>left</channellabel>
								</audiochannel>
								<audiochannel>
									<sourcechannel>2</sourcechannel>
									<channellabel>right</channellabel>
								</audiochannel>
							</audio>
						</media>
					</file>
					<sourcetrack>
						<mediatype>video</mediatype>
					</sourcetrack>
					<fielddominance>none</fielddominance>
					<itemhistory>
						<uuid>1805D952-E981-4D46-BC73-E3FEAC8437AE</uuid>
						<uuid>53B7B86B-D109-415B-AC63-7690F23C4F76</uuid>
					</itemhistory>
				</clipitem>
				<clipitem id="AntonyAgar015Subclipc">
					<name>AntonyAgar015Subclipc</name>
					<duration>784</duration>
					<rate>
						<ntsc>FALSE</ntsc>
						<timebase>25</timebase>
					</rate>
					<in>0</in>
					<out>783</out>
					<start>21144</start>
					<end>21927</end>
					<pixelaspectratio>Square</pixelaspectratio>
					<anamorphic>FALSE</anamorphic>
					<alphatype>none</alphatype>
					<logginginfo>
						<scene/>
						<shottake/>
						<lognote/>
						<good>FALSE</good>
					</logginginfo>
					<labels>
						<label2/>
					</labels>
					<comments>
						<mastercomment1/>
						<mastercomment2/>
						<mastercomment3/>
						<mastercomment4/>
					</comments>
					<file id="AntonyAgar015Subclipc1">
						<name>AntonyAgar015Subclipc</name>
						<pathurl>file://localhost/Volumes/Michael's%20Passport/woodbdrigenov2011media/AntonyAgar015Subclipc</pathurl>
						<rate>
							<timebase>25</timebase>
						</rate>
						<duration>784</duration>
						<metadata>
							<storage>QuickTime</storage>
							<key>com.apple.finalcutstudio.media.uuid</key>
							<size>36</size>
							<type>UTF8</type>
							<value>1E86E005-4F50-48EA-A0CD-282BB6D9FB35</value>
						</metadata>
						<metadata>
							<storage>QuickTime</storage>
							<key>com.apple.finalcutstudio.media.history.uuid</key>
							<size>36</size>
							<type>UTF8</type>
							<value>0ABB6AD5-CCE0-4954-B3D9-1612D59C6910</value>
						</metadata>
						<timecode>
							<rate>
								<timebase>25</timebase>
							</rate>
							<string>00:00:41:18</string>
							<frame>1043</frame>
							<displayformat>NDF</displayformat>
							<source>source</source>
							<reel>
								<name>AnthonyAgar</name>
							</reel>
						</timecode>
						<media>
							<video>
								<duration>784</duration>
								<samplecharacteristics>
									<width>1280</width>
									<height>720</height>
								</samplecharacteristics>
							</video>
							<audio>
								<samplecharacteristics>
									<samplerate>48000</samplerate>
									<depth>16</depth>
								</samplecharacteristics>
								<channelcount>2</channelcount>
								<layout>stereo</layout>
								<audiochannel>
									<sourcechannel>1</sourcechannel>
									<channellabel>left</channellabel>
								</audiochannel>
								<audiochannel>
									<sourcechannel>2</sourcechannel>
									<channellabel>right</channellabel>
								</audiochannel>
							</audio>
						</media>
					</file>
					<sourcetrack>
						<mediatype>video</mediatype>
					</sourcetrack>
					<fielddominance>none</fielddominance>
					<itemhistory>
						<uuid>ECA68EBC-43CE-4898-9384-1D91FF25E4B9</uuid>
						<uuid>3B772EFF-2E87-4309-915A-136E136ED434</uuid>
					</itemhistory>
				</clipitem>
				<clipitem id="AntonyAgar016Subclipa">
					<name>AntonyAgar016Subclipa</name>
					<duration>300</duration>
					<rate>
						<ntsc>FALSE</ntsc>
						<timebase>25</timebase>
					</rate>
					<in>0</in>
					<out>299</out>
					<start>24597</start>
					<end>24896</end>
					<pixelaspectratio>Square</pixelaspectratio>
					<anamorphic>FALSE</anamorphic>
					<alphatype>none</alphatype>
					<logginginfo>
						<scene/>
						<shottake/>
						<lognote/>
						<good>FALSE</good>
					</logginginfo>
					<labels>
						<label2/>
					</labels>
					<comments>
						<mastercomment1/>
						<mastercomment2/>
						<mastercomment3/>
						<mastercomment4/>
					</comments>
					<file id="AntonyAgar016Subclipa1">
						<name>AntonyAgar016Subclipa</name>
						<pathurl>file://localhost/Volumes/Michael's%20Passport/woodbdrigenov2011media/AntonyAgar016Subclipa</pathurl>
						<rate>
							<timebase>25</timebase>
						</rate>
						<duration>300</duration>
						<metadata>
							<storage>QuickTime</storage>
							<key>com.apple.finalcutstudio.media.uuid</key>
							<size>36</size>
							<type>UTF8</type>
							<value>61889909-4F31-495B-A18C-FD0F9E1B68D9</value>
						</metadata>
						<metadata>
							<storage>QuickTime</storage>
							<key>com.apple.finalcutstudio.media.history.uuid</key>
							<size>36</size>
							<type>UTF8</type>
							<value>3ED8E43A-A64A-464F-8A81-6D5EF540EDE8</value>
						</metadata>
						<timecode>
							<rate>
								<timebase>25</timebase>
							</rate>
							<string>00:00:25:20</string>
							<frame>645</frame>
							<displayformat>NDF</displayformat>
							<source>source</source>
							<reel>
								<name>AnthonyAgar</name>
							</reel>
						</timecode>
						<media>
							<video>
								<duration>300</duration>
								<samplecharacteristics>
									<width>1280</width>
									<height>720</height>
								</samplecharacteristics>
							</video>
							<audio>
								<samplecharacteristics>
									<samplerate>48000</samplerate>
									<depth>16</depth>
								</samplecharacteristics>
								<channelcount>2</channelcount>
								<layout>stereo</layout>
								<audiochannel>
									<sourcechannel>1</sourcechannel>
									<channellabel>left</channellabel>
								</audiochannel>
								<audiochannel>
									<sourcechannel>2</sourcechannel>
									<channellabel>right</channellabel>
								</audiochannel>
							</audio>
						</media>
					</file>
					<sourcetrack>
						<mediatype>video</mediatype>
					</sourcetrack>
					<fielddominance>none</fielddominance>
					<itemhistory>
						<uuid>68BA0FC6-7B72-4662-8044-4B5BA8370299</uuid>
						<uuid>DA2924E8-6297-4624-BE34-65CB697AFF64</uuid>
					</itemhistory>
				</clipitem>
				<clipitem id="AntonyAgar016Subclipb">
					<name>AntonyAgar016Subclipb</name>
					<duration>864</duration>
					<rate>
						<ntsc>FALSE</ntsc>
						<timebase>25</timebase>
					</rate>
					<in>0</in>
					<out>863</out>
					<start>24958</start>
					<end>25821</end>
					<pixelaspectratio>Square</pixelaspectratio>
					<anamorphic>FALSE</anamorphic>
					<alphatype>none</alphatype>
					<logginginfo>
						<scene/>
						<shottake/>
						<lognote/>
						<good>FALSE</good>
					</logginginfo>
					<labels>
						<label2/>
					</labels>
					<comments>
						<mastercomment1/>
						<mastercomment2/>
						<mastercomment3/>
						<mastercomment4/>
					</comments>
					<file id="AntonyAgar016Subclipb1">
						<name>AntonyAgar016Subclipb</name>
						<pathurl>file://localhost/Volumes/Michael's%20Passport/woodbdrigenov2011media/AntonyAgar016Subclipb</pathurl>
						<rate>
							<timebase>25</timebase>
						</rate>
						<duration>864</duration>
						<metadata>
							<storage>QuickTime</storage>
							<key>com.apple.finalcutstudio.media.uuid</key>
							<size>36</size>
							<type>UTF8</type>
							<value>C7588F0D-75B7-435D-9F92-71B01D2431C0</value>
						</metadata>
						<metadata>
							<storage>QuickTime</storage>
							<key>com.apple.finalcutstudio.media.history.uuid</key>
							<size>36</size>
							<type>UTF8</type>
							<value>3ED8E43A-A64A-464F-8A81-6D5EF540EDE8</value>
						</metadata>
						<timecode>
							<rate>
								<timebase>25</timebase>
							</rate>
							<string>00:00:40:06</string>
							<frame>1006</frame>
							<displayformat>NDF</displayformat>
							<source>source</source>
							<reel>
								<name>AnthonyAgar</name>
							</reel>
						</timecode>
						<media>
							<video>
								<duration>864</duration>
								<samplecharacteristics>
									<width>1280</width>
									<height>720</height>
								</samplecharacteristics>
							</video>
							<audio>
								<samplecharacteristics>
									<samplerate>48000</samplerate>
									<depth>16</depth>
								</samplecharacteristics>
								<channelcount>2</channelcount>
								<layout>stereo</layout>
								<audiochannel>
									<sourcechannel>1</sourcechannel>
									<channellabel>left</channellabel>
								</audiochannel>
								<audiochannel>
									<sourcechannel>2</sourcechannel>
									<channellabel>right</channellabel>
								</audiochannel>
							</audio>
						</media>
					</file>
					<sourcetrack>
						<mediatype>video</mediatype>
					</sourcetrack>
					<fielddominance>none</fielddominance>
					<itemhistory>
						<uuid>4784D1D2-7F21-45B9-95D4-EF3AC96E5969</uuid>
						<uuid>00335947-3F45-42EB-9EC7-2DA1C842D904</uuid>
					</itemhistory>
				</clipitem>
				<clipitem id="AntonyAgar016Subclipc">
					<name>AntonyAgar016Subclipc</name>
					<duration>2014</duration>
					<rate>
						<ntsc>FALSE</ntsc>
						<timebase>25</timebase>
					</rate>
					<in>0</in>
					<out>2013</out>
					<start>25973</start>
					<end>27986</end>
					<pixelaspectratio>Square</pixelaspectratio>
					<anamorphic>FALSE</anamorphic>
					<alphatype>none</alphatype>
					<logginginfo>
						<scene/>
						<shottake/>
						<lognote/>
						<good>FALSE</good>
					</logginginfo>
					<labels>
						<label2/>
					</labels>
					<comments>
						<mastercomment1/>
						<mastercomment2/>
						<mastercomment3/>
						<mastercomment4/>
					</comments>
					<file id="AntonyAgar016Subclipc1">
						<name>AntonyAgar016Subclipc</name>
						<pathurl>file://localhost/Volumes/Michael's%20Passport/woodbdrigenov2011media/AntonyAgar016Subclipc</pathurl>
						<rate>
							<timebase>25</timebase>
						</rate>
						<duration>2014</duration>
						<metadata>
							<storage>QuickTime</storage>
							<key>com.apple.finalcutstudio.media.uuid</key>
							<size>36</size>
							<type>UTF8</type>
							<value>5B0AD1DA-D39F-4BFF-8A7E-B0F0FA4BE1A6</value>
						</metadata>
						<metadata>
							<storage>QuickTime</storage>
							<key>com.apple.finalcutstudio.media.history.uuid</key>
							<size>36</size>
							<type>UTF8</type>
							<value>3ED8E43A-A64A-464F-8A81-6D5EF540EDE8</value>
						</metadata>
						<timecode>
							<rate>
								<timebase>25</timebase>
							</rate>
							<string>00:01:20:21</string>
							<frame>2021</frame>
							<displayformat>NDF</displayformat>
							<source>source</source>
							<reel>
								<name>AnthonyAgar</name>
							</reel>
						</timecode>
						<media>
							<video>
								<duration>2014</duration>
								<samplecharacteristics>
									<width>1280</width>
									<height>720</height>
								</samplecharacteristics>
							</video>
							<audio>
								<samplecharacteristics>
									<samplerate>48000</samplerate>
									<depth>16</depth>
								</samplecharacteristics>
								<channelcount>2</channelcount>
								<layout>stereo</layout>
								<audiochannel>
									<sourcechannel>1</sourcechannel>
									<channellabel>left</channellabel>
								</audiochannel>
								<audiochannel>
									<sourcechannel>2</sourcechannel>
									<channellabel>right</channellabel>
								</audiochannel>
							</audio>
						</media>
					</file>
					<sourcetrack>
						<mediatype>video</mediatype>
					</sourcetrack>
					<fielddominance>none</fielddominance>
					<itemhistory>
						<uuid>492B4AC2-FD46-4602-9FA2-D2EC531F759B</uuid>
						<uuid>CC9D537C-011E-41E4-AD72-ADF90C0D6715</uuid>
					</itemhistory>
				</clipitem>
				<clipitem id="AntonyAgar017Subclipa">
					<name>AntonyAgar017Subclipa</name>
					<duration>504</duration>
					<rate>
						<ntsc>FALSE</ntsc>
						<timebase>25</timebase>
					</rate>
					<in>0</in>
					<out>503</out>
					<start>30357</start>
					<end>30860</end>
					<pixelaspectratio>Square</pixelaspectratio>
					<anamorphic>FALSE</anamorphic>
					<alphatype>none</alphatype>
					<logginginfo>
						<scene/>
						<shottake/>
						<lognote/>
						<good>FALSE</good>
					</logginginfo>
					<labels>
						<label2/>
					</labels>
					<comments>
						<mastercomment1/>
						<mastercomment2/>
						<mastercomment3/>
						<mastercomment4/>
					</comments>
					<file id="AntonyAgar017Subclipa1">
						<name>AntonyAgar017Subclipa</name>
						<pathurl>file://localhost/Volumes/Michael's%20Passport/woodbdrigenov2011media/AntonyAgar017Subclipa</pathurl>
						<rate>
							<timebase>25</timebase>
						</rate>
						<duration>504</duration>
						<metadata>
							<storage>QuickTime</storage>
							<key>com.apple.finalcutstudio.media.uuid</key>
							<size>36</size>
							<type>UTF8</type>
							<value>4EC3FEA9-22BE-4D45-9A3C-545B50CAA68E</value>
						</metadata>
						<metadata>
							<storage>QuickTime</storage>
							<key>com.apple.finalcutstudio.media.history.uuid</key>
							<size>36</size>
							<type>UTF8</type>
							<value>CAD926AE-8BA2-4F7B-8072-D30B53163A0B</value>
						</metadata>
						<timecode>
							<rate>
								<timebase>25</timebase>
							</rate>
							<string>00:00:01:04</string>
							<frame>29</frame>
							<displayformat>NDF</displayformat>
							<source>source</source>
							<reel>
								<name>AnthonyAgar</name>
							</reel>
						</timecode>
						<media>
							<video>
								<duration>504</duration>
								<samplecharacteristics>
									<width>1280</width>
									<height>720</height>
								</samplecharacteristics>
							</video>
							<audio>
								<samplecharacteristics>
									<samplerate>48000</samplerate>
									<depth>16</depth>
								</samplecharacteristics>
								<channelcount>2</channelcount>
								<layout>stereo</layout>
								<audiochannel>
									<sourcechannel>1</sourcechannel>
									<channellabel>left</channellabel>
								</audiochannel>
								<audiochannel>
									<sourcechannel>2</sourcechannel>
									<channellabel>right</channellabel>
								</audiochannel>
							</audio>
						</media>
					</file>
					<sourcetrack>
						<mediatype>video</mediatype>
					</sourcetrack>
					<fielddominance>none</fielddominance>
					<itemhistory>
						<uuid>B70A3563-E0B7-443B-AE36-8C754A90E6B2</uuid>
						<uuid>DF9408D5-9B7C-4E0A-A394-ACD4DF3315BF</uuid>
					</itemhistory>
				</clipitem>
				<clipitem id="AntonyAgar017Subclipb">
					<name>AntonyAgar017Subclipb</name>
					<duration>13108</duration>
					<rate>
						<ntsc>FALSE</ntsc>
						<timebase>25</timebase>
					</rate>
					<in>0</in>
					<out>13107</out>
					<start>31321</start>
					<end>44428</end>
					<pixelaspectratio>Square</pixelaspectratio>
					<anamorphic>FALSE</anamorphic>
					<alphatype>none</alphatype>
					<logginginfo>
						<scene/>
						<shottake/>
						<lognote/>
						<good>FALSE</good>
					</logginginfo>
					<labels>
						<label2/>
					</labels>
					<comments>
						<mastercomment1/>
						<mastercomment2/>
						<mastercomment3/>
						<mastercomment4/>
					</comments>
					<file id="AntonyAgar017Subclipb1">
						<name>AntonyAgar017Subclipb</name>
						<pathurl>file://localhost/Volumes/Michael's%20Passport/woodbdrigenov2011media/AntonyAgar017Subclipb</pathurl>
						<rate>
							<timebase>25</timebase>
						</rate>
						<duration>13108</duration>
						<metadata>
							<storage>QuickTime</storage>
							<key>com.apple.finalcutstudio.media.uuid</key>
							<size>36</size>
							<type>UTF8</type>
							<value>C5E3D931-B33A-43E3-80C8-F8A438E5EE8D</value>
						</metadata>
						<metadata>
							<storage>QuickTime</storage>
							<key>com.apple.finalcutstudio.media.history.uuid</key>
							<size>36</size>
							<type>UTF8</type>
							<value>CAD926AE-8BA2-4F7B-8072-D30B53163A0B</value>
						</metadata>
						<timecode>
							<rate>
								<timebase>25</timebase>
							</rate>
							<string>00:00:39:17</string>
							<frame>992</frame>
							<displayformat>NDF</displayformat>
							<source>source</source>
							<reel>
								<name>AnthonyAgar</name>
							</reel>
						</timecode>
						<media>
							<video>
								<duration>13108</duration>
								<samplecharacteristics>
									<width>1280</width>
									<height>720</height>
								</samplecharacteristics>
							</video>
							<audio>
								<samplecharacteristics>
									<samplerate>48000</samplerate>
									<depth>16</depth>
								</samplecharacteristics>
								<channelcount>2</channelcount>
								<layout>stereo</layout>
								<audiochannel>
									<sourcechannel>1</sourcechannel>
									<channellabel>left</channellabel>
								</audiochannel>
								<audiochannel>
									<sourcechannel>2</sourcechannel>
									<channellabel>right</channellabel>
								</audiochannel>
							</audio>
						</media>
					</file>
					<sourcetrack>
						<mediatype>video</mediatype>
					</sourcetrack>
					<fielddominance>none</fielddominance>
					<itemhistory>
						<uuid>BE10032A-8DE9-409E-BB80-B190D6D50C50</uuid>
						<uuid>E724F53D-CE7D-4B0A-8D06-5DFEB91554AA</uuid>
					</itemhistory>
				</clipitem>
				<clipitem id="AntonyAgar018Subclipa">
					<name>AntonyAgar018Subclipa</name>
					<duration>744</duration>
					<rate>
						<ntsc>FALSE</ntsc>
						<timebase>25</timebase>
					</rate>
					<in>0</in>
					<out>743</out>
					<start>45782</start>
					<end>46525</end>
					<pixelaspectratio>Square</pixelaspectratio>
					<anamorphic>FALSE</anamorphic>
					<alphatype>none</alphatype>
					<logginginfo>
						<scene/>
						<shottake/>
						<lognote/>
						<good>FALSE</good>
					</logginginfo>
					<labels>
						<label2/>
					</labels>
					<comments>
						<mastercomment1/>
						<mastercomment2/>
						<mastercomment3/>
						<mastercomment4/>
					</comments>
					<file id="AntonyAgar018Subclipa1">
						<name>AntonyAgar018Subclipa</name>
						<pathurl>file://localhost/Volumes/Michael's%20Passport/woodbdrigenov2011media/AntonyAgar018Subclipa</pathurl>
						<rate>
							<timebase>25</timebase>
						</rate>
						<duration>744</duration>
						<metadata>
							<storage>QuickTime</storage>
							<key>com.apple.finalcutstudio.media.uuid</key>
							<size>36</size>
							<type>UTF8</type>
							<value>4BCECE12-CD6F-4953-B6B3-53DC2C560971</value>
						</metadata>
						<metadata>
							<storage>QuickTime</storage>
							<key>com.apple.finalcutstudio.media.history.uuid</key>
							<size>36</size>
							<type>UTF8</type>
							<value>247BB1B9-BEDD-449C-A72E-DEA63AB32B6A</value>
						</metadata>
						<timecode>
							<rate>
								<timebase>25</timebase>
							</rate>
							<string>00:00:22:02</string>
							<frame>552</frame>
							<displayformat>NDF</displayformat>
							<source>source</source>
							<reel>
								<name>AnthonyAgar</name>
							</reel>
						</timecode>
						<media>
							<video>
								<duration>744</duration>
								<samplecharacteristics>
									<width>1280</width>
									<height>720</height>
								</samplecharacteristics>
							</video>
							<audio>
								<samplecharacteristics>
									<samplerate>48000</samplerate>
									<depth>16</depth>
								</samplecharacteristics>
								<channelcount>2</channelcount>
								<layout>stereo</layout>
								<audiochannel>
									<sourcechannel>1</sourcechannel>
									<channellabel>left</channellabel>
								</audiochannel>
								<audiochannel>
									<sourcechannel>2</sourcechannel>
									<channellabel>right</channellabel>
								</audiochannel>
							</audio>
						</media>
					</file>
					<sourcetrack>
						<mediatype>video</mediatype>
					</sourcetrack>
					<fielddominance>none</fielddominance>
					<itemhistory>
						<uuid>9A05DBF2-9B7E-4C33-B44D-D95A90231CCB</uuid>
						<uuid>72413D67-13B1-4337-97C5-27900662AFA9</uuid>
					</itemhistory>
				</clipitem>
				<clipitem id="AntonyAgar018Subclip">
					<name>AntonyAgar018Subclip</name>
					<duration>5213</duration>
					<rate>
						<ntsc>FALSE</ntsc>
						<timebase>25</timebase>
					</rate>
					<in>0</in>
					<out>5212</out>
					<start>46582</start>
					<end>51794</end>
					<pixelaspectratio>Square</pixelaspectratio>
					<anamorphic>FALSE</anamorphic>
					<alphatype>none</alphatype>
					<logginginfo>
						<scene/>
						<shottake/>
						<lognote/>
						<good>FALSE</good>
					</logginginfo>
					<labels>
						<label2/>
					</labels>
					<comments>
						<mastercomment1/>
						<mastercomment2/>
						<mastercomment3/>
						<mastercomment4/>
					</comments>
					<file id="AntonyAgar018Subclip1">
						<name>AntonyAgar018Subclip</name>
						<pathurl>file://localhost/Volumes/Michael's%20Passport/woodbdrigenov2011media/AntonyAgar018Subclip</pathurl>
						<rate>
							<timebase>25</timebase>
						</rate>
						<duration>5213</duration>
						<metadata>
							<storage>QuickTime</storage>
							<key>com.apple.finalcutstudio.media.uuid</key>
							<size>36</size>
							<type>UTF8</type>
							<value>A6BABD5F-BCF6-4826-BAF0-525E168F49F6</value>
						</metadata>
						<metadata>
							<storage>QuickTime</storage>
							<key>com.apple.finalcutstudio.media.history.uuid</key>
							<size>36</size>
							<type>UTF8</type>
							<value>247BB1B9-BEDD-449C-A72E-DEA63AB32B6A</value>
						</metadata>
						<timecode>
							<rate>
								<timebase>25</timebase>
							</rate>
							<string>00:00:54:01</string>
							<frame>1351</frame>
							<displayformat>NDF</displayformat>
							<source>source</source>
							<reel>
								<name>AnthonyAgar</name>
							</reel>
						</timecode>
						<media>
							<video>
								<duration>5213</duration>
								<samplecharacteristics>
									<width>1280</width>
									<height>720</height>
								</samplecharacteristics>
							</video>
							<audio>
								<samplecharacteristics>
									<samplerate>48000</samplerate>
									<depth>16</depth>
								</samplecharacteristics>
								<channelcount>2</channelcount>
								<layout>stereo</layout>
								<audiochannel>
									<sourcechannel>1</sourcechannel>
									<channellabel>left</channellabel>
								</audiochannel>
								<audiochannel>
									<sourcechannel>2</sourcechannel>
									<channellabel>right</channellabel>
								</audiochannel>
							</audio>
						</media>
					</file>
					<sourcetrack>
						<mediatype>video</mediatype>
					</sourcetrack>
					<fielddominance>none</fielddominance>
					<itemhistory>
						<uuid>BF765A3B-C51E-4826-982E-44F0DC664F83</uuid>
						<uuid>10630B6F-A047-474B-8CBB-BD3AFC382B23</uuid>
					</itemhistory>
				</clipitem>
				<clipitem id="AntonyAgar019Subclipa">
					<name>AntonyAgar019Subclipa</name>
					<duration>370</duration>
					<rate>
						<ntsc>FALSE</ntsc>
						<timebase>25</timebase>
					</rate>
					<in>0</in>
					<out>369</out>
					<start>53598</start>
					<end>53967</end>
					<pixelaspectratio>Square</pixelaspectratio>
					<anamorphic>FALSE</anamorphic>
					<alphatype>none</alphatype>
					<logginginfo>
						<scene/>
						<shottake/>
						<lognote/>
						<good>FALSE</good>
					</logginginfo>
					<labels>
						<label2/>
					</labels>
					<comments>
						<mastercomment1/>
						<mastercomment2/>
						<mastercomment3/>
						<mastercomment4/>
					</comments>
					<file id="AntonyAgar019Subclipa1">
						<name>AntonyAgar019Subclipa</name>
						<pathurl>file://localhost/Volumes/Michael's%20Passport/woodbdrigenov2011media/AntonyAgar019Subclipa</pathurl>
						<rate>
							<timebase>25</timebase>
						</rate>
						<duration>370</duration>
						<metadata>
							<storage>QuickTime</storage>
							<key>com.apple.finalcutstudio.media.uuid</key>
							<size>36</size>
							<type>UTF8</type>
							<value>0AED50E8-370E-43F2-AFA0-D5CD770C144F</value>
						</metadata>
						<metadata>
							<storage>QuickTime</storage>
							<key>com.apple.finalcutstudio.media.history.uuid</key>
							<size>36</size>
							<type>UTF8</type>
							<value>9C2CDA3F-64B6-4464-945F-5308440D64BD</value>
						</metadata>
						<timecode>
							<rate>
								<timebase>25</timebase>
							</rate>
							<string>00:00:14:16</string>
							<frame>366</frame>
							<displayformat>NDF</displayformat>
							<source>source</source>
							<reel>
								<name>AnthonyAgar</name>
							</reel>
						</timecode>
						<media>
							<video>
								<duration>370</duration>
								<samplecharacteristics>
									<width>1280</width>
									<height>720</height>
								</samplecharacteristics>
							</video>
							<audio>
								<samplecharacteristics>
									<samplerate>48000</samplerate>
									<depth>16</depth>
								</samplecharacteristics>
								<channelcount>2</channelcount>
								<layout>stereo</layout>
								<audiochannel>
									<sourcechannel>1</sourcechannel>
									<channellabel>left</channellabel>
								</audiochannel>
								<audiochannel>
									<sourcechannel>2</sourcechannel>
									<channellabel>right</channellabel>
								</audiochannel>
							</audio>
						</media>
					</file>
					<sourcetrack>
						<mediatype>video</mediatype>
					</sourcetrack>
					<fielddominance>none</fielddominance>
					<itemhistory>
						<uuid>4D322347-F59B-43C9-A51C-05A468F6F928</uuid>
						<uuid>19BA1CB4-B21C-4DD6-9094-4C2D1174ACC2</uuid>
					</itemhistory>
				</clipitem>
				<clipitem id="AntonyAgar019Subclipb">
					<name>AntonyAgar019Subclipb</name>
					<duration>585</duration>
					<rate>
						<ntsc>FALSE</ntsc>
						<timebase>25</timebase>
					</rate>
					<in>0</in>
					<out>584</out>
					<start>54113</start>
					<end>54697</end>
					<pixelaspectratio>Square</pixelaspectratio>
					<anamorphic>FALSE</anamorphic>
					<alphatype>none</alphatype>
					<logginginfo>
						<scene/>
						<shottake/>
						<lognote/>
						<good>FALSE</good>
					</logginginfo>
					<labels>
						<label2/>
					</labels>
					<comments>
						<mastercomment1/>
						<mastercomment2/>
						<mastercomment3/>
						<mastercomment4/>
					</comments>
					<file id="AntonyAgar019Subclipb1">
						<name>AntonyAgar019Subclipb</name>
						<pathurl>file://localhost/Volumes/Michael's%20Passport/woodbdrigenov2011media/AntonyAgar019Subclipb</pathurl>
						<rate>
							<timebase>25</timebase>
						</rate>
						<duration>585</duration>
						<metadata>
							<storage>QuickTime</storage>
							<key>com.apple.finalcutstudio.media.uuid</key>
							<size>36</size>
							<type>UTF8</type>
							<value>FD468780-AA28-47F5-B6C7-BB3DB4FBA5F0</value>
						</metadata>
						<metadata>
							<storage>QuickTime</storage>
							<key>com.apple.finalcutstudio.media.history.uuid</key>
							<size>36</size>
							<type>UTF8</type>
							<value>9C2CDA3F-64B6-4464-945F-5308440D64BD</value>
						</metadata>
						<timecode>
							<rate>
								<timebase>25</timebase>
							</rate>
							<string>00:00:35:06</string>
							<frame>881</frame>
							<displayformat>NDF</displayformat>
							<source>source</source>
							<reel>
								<name>AnthonyAgar</name>
							</reel>
						</timecode>
						<media>
							<video>
								<duration>585</duration>
								<samplecharacteristics>
									<width>1280</width>
									<height>720</height>
								</samplecharacteristics>
							</video>
							<audio>
								<samplecharacteristics>
									<samplerate>48000</samplerate>
									<depth>16</depth>
								</samplecharacteristics>
								<channelcount>2</channelcount>
								<layout>stereo</layout>
								<audiochannel>
									<sourcechannel>1</sourcechannel>
									<channellabel>left</channellabel>
								</audiochannel>
								<audiochannel>
									<sourcechannel>2</sourcechannel>
									<channellabel>right</channellabel>
								</audiochannel>
							</audio>
						</media>
					</file>
					<sourcetrack>
						<mediatype>video</mediatype>
					</sourcetrack>
					<fielddominance>none</fielddominance>
					<itemhistory>
						<uuid>7E2D2829-9F17-4CB6-84CF-06E244F0E68E</uuid>
						<uuid>B8B027E5-AB1A-4C4C-A013-E5DCFD1DE2C4</uuid>
					</itemhistory>
				</clipitem>
				<clipitem id="AntonyAgar019Subclipc">
					<name>AntonyAgar019Subclipc</name>
					<duration>716</duration>
					<rate>
						<ntsc>FALSE</ntsc>
						<timebase>25</timebase>
					</rate>
					<in>0</in>
					<out>715</out>
					<start>54772</start>
					<end>55487</end>
					<pixelaspectratio>Square</pixelaspectratio>
					<anamorphic>FALSE</anamorphic>
					<alphatype>none</alphatype>
					<logginginfo>
						<scene/>
						<shottake/>
						<lognote/>
						<good>FALSE</good>
					</logginginfo>
					<labels>
						<label2/>
					</labels>
					<comments>
						<mastercomment1/>
						<mastercomment2/>
						<mastercomment3/>
						<mastercomment4/>
					</comments>
					<file id="AntonyAgar019Subclipc1">
						<name>AntonyAgar019Subclipc</name>
						<pathurl>file://localhost/Volumes/Michael's%20Passport/woodbdrigenov2011media/AntonyAgar019Subclipc</pathurl>
						<rate>
							<timebase>25</timebase>
						</rate>
						<duration>716</duration>
						<metadata>
							<storage>QuickTime</storage>
							<key>com.apple.finalcutstudio.media.uuid</key>
							<size>36</size>
							<type>UTF8</type>
							<value>EDCA4738-620F-43D5-9CF6-9F209522A5B4</value>
						</metadata>
						<metadata>
							<storage>QuickTime</storage>
							<key>com.apple.finalcutstudio.media.history.uuid</key>
							<size>36</size>
							<type>UTF8</type>
							<value>9C2CDA3F-64B6-4464-945F-5308440D64BD</value>
						</metadata>
						<timecode>
							<rate>
								<timebase>25</timebase>
							</rate>
							<string>00:01:01:15</string>
							<frame>1540</frame>
							<displayformat>NDF</displayformat>
							<source>source</source>
							<reel>
								<name>AnthonyAgar</name>
							</reel>
						</timecode>
						<media>
							<video>
								<duration>716</duration>
								<samplecharacteristics>
									<width>1280</width>
									<height>720</height>
								</samplecharacteristics>
							</video>
							<audio>
								<samplecharacteristics>
									<samplerate>48000</samplerate>
									<depth>16</depth>
								</samplecharacteristics>
								<channelcount>2</channelcount>
								<layout>stereo</layout>
								<audiochannel>
									<sourcechannel>1</sourcechannel>
									<channellabel>left</channellabel>
								</audiochannel>
								<audiochannel>
									<sourcechannel>2</sourcechannel>
									<channellabel>right</channellabel>
								</audiochannel>
							</audio>
						</media>
					</file>
					<sourcetrack>
						<mediatype>video</mediatype>
					</sourcetrack>
					<fielddominance>none</fielddominance>
					<itemhistory>
						<uuid>8F2C3127-E326-4F8B-8679-24D2E80D9B7D</uuid>
						<uuid>3E5C90D3-73D3-465E-B82C-1A0871DFD1C9</uuid>
					</itemhistory>
				</clipitem>
				<clipitem id="AntonyAgar019Subclipd">
					<name>AntonyAgar019Subclipd</name>
					<duration>5023</duration>
					<rate>
						<ntsc>FALSE</ntsc>
						<timebase>25</timebase>
					</rate>
					<in>0</in>
					<out>5022</out>
					<start>56411</start>
					<end>61433</end>
					<pixelaspectratio>Square</pixelaspectratio>
					<anamorphic>FALSE</anamorphic>
					<alphatype>none</alphatype>
					<logginginfo>
						<scene/>
						<shottake/>
						<lognote/>
						<good>FALSE</good>
					</logginginfo>
					<labels>
						<label2/>
					</labels>
					<comments>
						<mastercomment1/>
						<mastercomment2/>
						<mastercomment3/>
						<mastercomment4/>
					</comments>
					<file id="AntonyAgar019Subclipd1">
						<name>AntonyAgar019Subclipd</name>
						<pathurl>file://localhost/Volumes/Michael's%20Passport/woodbdrigenov2011media/AntonyAgar019Subclipd</pathurl>
						<rate>
							<timebase>25</timebase>
						</rate>
						<duration>5023</duration>
						<metadata>
							<storage>QuickTime</storage>
							<key>com.apple.finalcutstudio.media.uuid</key>
							<size>36</size>
							<type>UTF8</type>
							<value>82BB3748-5CF3-4063-B18B-A0F050FC021B</value>
						</metadata>
						<metadata>
							<storage>QuickTime</storage>
							<key>com.apple.finalcutstudio.media.history.uuid</key>
							<size>36</size>
							<type>UTF8</type>
							<value>9C2CDA3F-64B6-4464-945F-5308440D64BD</value>
						</metadata>
						<timecode>
							<rate>
								<timebase>25</timebase>
							</rate>
							<string>00:02:07:04</string>
							<frame>3179</frame>
							<displayformat>NDF</displayformat>
							<source>source</source>
							<reel>
								<name>AnthonyAgar</name>
							</reel>
						</timecode>
						<media>
							<video>
								<duration>5023</duration>
								<samplecharacteristics>
									<width>1280</width>
									<height>720</height>
								</samplecharacteristics>
							</video>
							<audio>
								<samplecharacteristics>
									<samplerate>48000</samplerate>
									<depth>16</depth>
								</samplecharacteristics>
								<channelcount>2</channelcount>
								<layout>stereo</layout>
								<audiochannel>
									<sourcechannel>1</sourcechannel>
									<channellabel>left</channellabel>
								</audiochannel>
								<audiochannel>
									<sourcechannel>2</sourcechannel>
									<channellabel>right</channellabel>
								</audiochannel>
							</audio>
						</media>
					</file>
					<sourcetrack>
						<mediatype>video</mediatype>
					</sourcetrack>
					<fielddominance>none</fielddominance>
					<itemhistory>
						<uuid>452DB496-3128-44DD-950F-169E86FB2B23</uuid>
						<uuid>0E25D950-B3A0-42EF-BBB0-2C44F3E28092</uuid>
					</itemhistory>
				</clipitem>
				<clipitem id="AntonyAgar019Subclip">
					<name>AntonyAgar019Subclip</name>
					<duration>251</duration>
					<rate>
						<ntsc>FALSE</ntsc>
						<timebase>25</timebase>
					</rate>
					<in>0</in>
					<out>251</out>
					<start>61937</start>
					<end>62188</end>
					<pixelaspectratio>Square</pixelaspectratio>
					<anamorphic>FALSE</anamorphic>
					<alphatype>none</alphatype>
					<logginginfo>
						<scene/>
						<shottake/>
						<lognote/>
						<good>FALSE</good>
					</logginginfo>
					<labels>
						<label2/>
					</labels>
					<comments>
						<mastercomment1/>
						<mastercomment2/>
						<mastercomment3/>
						<mastercomment4/>
					</comments>
					<file id="AntonyAgar019Subclip1">
						<name>AntonyAgar019Subclip</name>
						<pathurl>file://localhost/Volumes/Michael's%20Passport/woodbdrigenov2011media/AntonyAgar019Subclip</pathurl>
						<rate>
							<timebase>25</timebase>
						</rate>
						<duration>251</duration>
						<metadata>
							<storage>QuickTime</storage>
							<key>com.apple.finalcutstudio.media.uuid</key>
							<size>36</size>
							<type>UTF8</type>
							<value>0D9AE88E-D311-48A0-9BC0-F7DA37BE05B4</value>
						</metadata>
						<metadata>
							<storage>QuickTime</storage>
							<key>com.apple.finalcutstudio.media.history.uuid</key>
							<size>36</size>
							<type>UTF8</type>
							<value>9C2CDA3F-64B6-4464-945F-5308440D64BD</value>
						</metadata>
						<timecode>
							<rate>
								<timebase>25</timebase>
							</rate>
							<string>00:05:48:05</string>
							<frame>8705</frame>
							<displayformat>NDF</displayformat>
							<source>source</source>
							<reel>
								<name>AnthonyAgar</name>
							</reel>
						</timecode>
						<media>
							<video>
								<duration>251</duration>
								<samplecharacteristics>
									<width>1280</width>
									<height>720</height>
								</samplecharacteristics>
							</video>
							<audio>
								<samplecharacteristics>
									<samplerate>48000</samplerate>
									<depth>16</depth>
								</samplecharacteristics>
								<channelcount>2</channelcount>
								<layout>stereo</layout>
								<audiochannel>
									<sourcechannel>1</sourcechannel>
									<channellabel>left</channellabel>
								</audiochannel>
								<audiochannel>
									<sourcechannel>2</sourcechannel>
									<channellabel>right</channellabel>
								</audiochannel>
							</audio>
						</media>
					</file>
					<sourcetrack>
						<mediatype>video</mediatype>
					</sourcetrack>
					<fielddominance>none</fielddominance>
					<itemhistory>
						<uuid>3BAEA626-0B7E-4BE9-B568-131079380AE9</uuid>
						<uuid>C58D5E4C-D9C4-4BAD-BD10-2C8E08D2AB38</uuid>
					</itemhistory>
				</clipitem>
				<clipitem id="AntonyAgar019Subclip2">
					<name>AntonyAgar019Subclip</name>
					<duration>5394</duration>
					<rate>
						<ntsc>FALSE</ntsc>
						<timebase>25</timebase>
					</rate>
					<in>0</in>
					<out>5394</out>
					<start>62357</start>
					<end>67751</end>
					<pixelaspectratio>Square</pixelaspectratio>
					<anamorphic>FALSE</anamorphic>
					<alphatype>none</alphatype>
					<logginginfo>
						<scene/>
						<shottake/>
						<lognote/>
						<good>FALSE</good>
					</logginginfo>
					<labels>
						<label2/>
					</labels>
					<comments>
						<mastercomment1/>
						<mastercomment2/>
						<mastercomment3/>
						<mastercomment4/>
					</comments>
					<file id="AntonyAgar019Subclipe">
						<name>AntonyAgar019Subclipe</name>
						<pathurl>file://localhost/Volumes/Michael's%20Passport/woodbdrigenov2011media/AntonyAgar019Subclipe</pathurl>
						<rate>
							<timebase>25</timebase>
						</rate>
						<duration>5394</duration>
						<metadata>
							<storage>QuickTime</storage>
							<key>com.apple.finalcutstudio.media.uuid</key>
							<size>36</size>
							<type>UTF8</type>
							<value>E59C9CC3-275C-46A9-A271-E486350EAD60</value>
						</metadata>
						<metadata>
							<storage>QuickTime</storage>
							<key>com.apple.finalcutstudio.media.history.uuid</key>
							<size>36</size>
							<type>UTF8</type>
							<value>9C2CDA3F-64B6-4464-945F-5308440D64BD</value>
						</metadata>
						<timecode>
							<rate>
								<timebase>25</timebase>
							</rate>
							<string>00:06:05:00</string>
							<frame>9125</frame>
							<displayformat>NDF</displayformat>
							<source>source</source>
							<reel>
								<name>AnthonyAgar</name>
							</reel>
						</timecode>
						<media>
							<video>
								<duration>5394</duration>
								<samplecharacteristics>
									<width>1280</width>
									<height>720</height>
								</samplecharacteristics>
							</video>
							<audio>
								<samplecharacteristics>
									<samplerate>48000</samplerate>
									<depth>16</depth>
								</samplecharacteristics>
								<channelcount>2</channelcount>
								<layout>stereo</layout>
								<audiochannel>
									<sourcechannel>1</sourcechannel>
									<channellabel>left</channellabel>
								</audiochannel>
								<audiochannel>
									<sourcechannel>2</sourcechannel>
									<channellabel>right</channellabel>
								</audiochannel>
							</audio>
						</media>
					</file>
					<sourcetrack>
						<mediatype>video</mediatype>
					</sourcetrack>
					<fielddominance>none</fielddominance>
					<itemhistory>
						<uuid>5B53F4FE-029B-4791-86B1-7BDF00C2DAC8</uuid>
						<uuid>21F75400-48D4-4A20-90FD-E89D940FD4FF</uuid>
					</itemhistory>
				</clipitem>
				<clipitem id="AntonyAgar020Subclipa">
					<name>AntonyAgar020Subclipa</name>
					<duration>1160</duration>
					<rate>
						<ntsc>FALSE</ntsc>
						<timebase>25</timebase>
					</rate>
					<in>0</in>
					<out>1159</out>
					<start>71932</start>
					<end>73091</end>
					<pixelaspectratio>Square</pixelaspectratio>
					<anamorphic>FALSE</anamorphic>
					<alphatype>none</alphatype>
					<logginginfo>
						<scene/>
						<shottake/>
						<lognote/>
						<good>FALSE</good>
					</logginginfo>
					<labels>
						<label2/>
					</labels>
					<comments>
						<mastercomment1/>
						<mastercomment2/>
						<mastercomment3/>
						<mastercomment4/>
					</comments>
					<file id="AntonyAgar020Subclipa1">
						<name>AntonyAgar020Subclipa</name>
						<pathurl>file://localhost/Volumes/Michael's%20Passport/woodbdrigenov2011media/AntonyAgar020Subclipa</pathurl>
						<rate>
							<timebase>25</timebase>
						</rate>
						<duration>1160</duration>
						<metadata>
							<storage>QuickTime</storage>
							<key>com.apple.finalcutstudio.media.uuid</key>
							<size>36</size>
							<type>UTF8</type>
							<value>4D061361-8824-4680-8739-ACBD3ECBBE94</value>
						</metadata>
						<metadata>
							<storage>QuickTime</storage>
							<key>com.apple.finalcutstudio.media.history.uuid</key>
							<size>36</size>
							<type>UTF8</type>
							<value>C6BB05F5-05CC-415F-B173-22350562E6D8</value>
						</metadata>
						<timecode>
							<rate>
								<timebase>25</timebase>
							</rate>
							<string>00:00:13:02</string>
							<frame>327</frame>
							<displayformat>NDF</displayformat>
							<source>source</source>
							<reel>
								<name>AnthonyAgar</name>
							</reel>
						</timecode>
						<media>
							<video>
								<duration>1160</duration>
								<samplecharacteristics>
									<width>1280</width>
									<height>720</height>
								</samplecharacteristics>
							</video>
							<audio>
								<samplecharacteristics>
									<samplerate>48000</samplerate>
									<depth>16</depth>
								</samplecharacteristics>
								<channelcount>2</channelcount>
								<layout>stereo</layout>
								<audiochannel>
									<sourcechannel>1</sourcechannel>
									<channellabel>left</channellabel>
								</audiochannel>
								<audiochannel>
									<sourcechannel>2</sourcechannel>
									<channellabel>right</channellabel>
								</audiochannel>
							</audio>
						</media>
					</file>
					<sourcetrack>
						<mediatype>video</mediatype>
					</sourcetrack>
					<fielddominance>none</fielddominance>
					<itemhistory>
						<uuid>78A4C7EE-B80D-4435-94AC-8E2333F1B4D1</uuid>
						<uuid>7317FD66-27FA-42E0-9145-768AC8AA7FA5</uuid>
					</itemhistory>
				</clipitem>
				<clipitem id="AntonyAgar020Subclipb">
					<name>AntonyAgar020Subclipb</name>
					<duration>150</duration>
					<rate>
						<ntsc>FALSE</ntsc>
						<timebase>25</timebase>
					</rate>
					<in>0</in>
					<out>149</out>
					<start>73206</start>
					<end>73355</end>
					<pixelaspectratio>Square</pixelaspectratio>
					<anamorphic>FALSE</anamorphic>
					<alphatype>none</alphatype>
					<logginginfo>
						<scene/>
						<shottake/>
						<lognote/>
						<good>FALSE</good>
					</logginginfo>
					<labels>
						<label2/>
					</labels>
					<comments>
						<mastercomment1/>
						<mastercomment2/>
						<mastercomment3/>
						<mastercomment4/>
					</comments>
					<file id="AntonyAgar020Subclipb1">
						<name>AntonyAgar020Subclipb</name>
						<pathurl>file://localhost/Volumes/Michael's%20Passport/woodbdrigenov2011media/AntonyAgar020Subclipb</pathurl>
						<rate>
							<timebase>25</timebase>
						</rate>
						<duration>150</duration>
						<metadata>
							<storage>QuickTime</storage>
							<key>com.apple.finalcutstudio.media.uuid</key>
							<size>36</size>
							<type>UTF8</type>
							<value>731621CB-CBC4-41DE-A635-D755145AF5DD</value>
						</metadata>
						<metadata>
							<storage>QuickTime</storage>
							<key>com.apple.finalcutstudio.media.history.uuid</key>
							<size>36</size>
							<type>UTF8</type>
							<value>C6BB05F5-05CC-415F-B173-22350562E6D8</value>
						</metadata>
						<timecode>
							<rate>
								<timebase>25</timebase>
							</rate>
							<string>00:01:04:01</string>
							<frame>1601</frame>
							<displayformat>NDF</displayformat>
							<source>source</source>
							<reel>
								<name>AnthonyAgar</name>
							</reel>
						</timecode>
						<media>
							<video>
								<duration>150</duration>
								<samplecharacteristics>
									<width>1280</width>
									<height>720</height>
								</samplecharacteristics>
							</video>
							<audio>
								<samplecharacteristics>
									<samplerate>48000</samplerate>
									<depth>16</depth>
								</samplecharacteristics>
								<channelcount>2</channelcount>
								<layout>stereo</layout>
								<audiochannel>
									<sourcechannel>1</sourcechannel>
									<channellabel>left</channellabel>
								</audiochannel>
								<audiochannel>
									<sourcechannel>2</sourcechannel>
									<channellabel>right</channellabel>
								</audiochannel>
							</audio>
						</media>
					</file>
					<sourcetrack>
						<mediatype>video</mediatype>
					</sourcetrack>
					<fielddominance>none</fielddominance>
					<itemhistory>
						<uuid>BE31E32A-06FE-49A3-A427-E64300BBE5CC</uuid>
						<uuid>4C2C6E1A-6B32-441B-8F18-5C9AEBCD3F39</uuid>
					</itemhistory>
				</clipitem>
				<clipitem id="AntonyAgar020Subclipc">
					<name>AntonyAgar020Subclipc</name>
					<duration>393</duration>
					<rate>
						<ntsc>FALSE</ntsc>
						<timebase>25</timebase>
					</rate>
					<in>0</in>
					<out>392</out>
					<start>73424</start>
					<end>73816</end>
					<pixelaspectratio>Square</pixelaspectratio>
					<anamorphic>FALSE</anamorphic>
					<alphatype>none</alphatype>
					<logginginfo>
						<scene/>
						<shottake/>
						<lognote/>
						<good>FALSE</good>
					</logginginfo>
					<labels>
						<label2/>
					</labels>
					<comments>
						<mastercomment1/>
						<mastercomment2/>
						<mastercomment3/>
						<mastercomment4/>
					</comments>
					<file id="AntonyAgar020Subclipc1">
						<name>AntonyAgar020Subclipc</name>
						<pathurl>file://localhost/Volumes/Michael's%20Passport/woodbdrigenov2011media/AntonyAgar020Subclipc</pathurl>
						<rate>
							<timebase>25</timebase>
						</rate>
						<duration>393</duration>
						<metadata>
							<storage>QuickTime</storage>
							<key>com.apple.finalcutstudio.media.uuid</key>
							<size>36</size>
							<type>UTF8</type>
							<value>CFE0780E-7142-4EA5-82F9-2F6A0A36D529</value>
						</metadata>
						<metadata>
							<storage>QuickTime</storage>
							<key>com.apple.finalcutstudio.media.history.uuid</key>
							<size>36</size>
							<type>UTF8</type>
							<value>C6BB05F5-05CC-415F-B173-22350562E6D8</value>
						</metadata>
						<timecode>
							<rate>
								<timebase>25</timebase>
							</rate>
							<string>00:01:12:19</string>
							<frame>1819</frame>
							<displayformat>NDF</displayformat>
							<source>source</source>
							<reel>
								<name>AnthonyAgar</name>
							</reel>
						</timecode>
						<media>
							<video>
								<duration>393</duration>
								<samplecharacteristics>
									<width>1280</width>
									<height>720</height>
								</samplecharacteristics>
							</video>
							<audio>
								<samplecharacteristics>
									<samplerate>48000</samplerate>
									<depth>16</depth>
								</samplecharacteristics>
								<channelcount>2</channelcount>
								<layout>stereo</layout>
								<audiochannel>
									<sourcechannel>1</sourcechannel>
									<channellabel>left</channellabel>
								</audiochannel>
								<audiochannel>
									<sourcechannel>2</sourcechannel>
									<channellabel>right</channellabel>
								</audiochannel>
							</audio>
						</media>
					</file>
					<sourcetrack>
						<mediatype>video</mediatype>
					</sourcetrack>
					<fielddominance>none</fielddominance>
					<itemhistory>
						<uuid>CD2983A6-DB3C-4996-AFE8-07A7423EF0EE</uuid>
						<uuid>15C069EA-DB6D-4072-AE8C-7992C81B0D37</uuid>
					</itemhistory>
				</clipitem>
				<clipitem id="AntonyAgar020Subclipd">
					<name>AntonyAgar020Subclipd</name>
					<duration>231</duration>
					<rate>
						<ntsc>FALSE</ntsc>
						<timebase>25</timebase>
					</rate>
					<in>0</in>
					<out>230</out>
					<start>74386</start>
					<end>74616</end>
					<pixelaspectratio>Square</pixelaspectratio>
					<anamorphic>FALSE</anamorphic>
					<alphatype>none</alphatype>
					<logginginfo>
						<scene/>
						<shottake/>
						<lognote/>
						<good>FALSE</good>
					</logginginfo>
					<labels>
						<label2/>
					</labels>
					<comments>
						<mastercomment1/>
						<mastercomment2/>
						<mastercomment3/>
						<mastercomment4/>
					</comments>
					<file id="AntonyAgar020Subclipd1">
						<name>AntonyAgar020Subclipd</name>
						<pathurl>file://localhost/Volumes/Michael's%20Passport/woodbdrigenov2011media/AntonyAgar020Subclipd</pathurl>
						<rate>
							<timebase>25</timebase>
						</rate>
						<duration>231</duration>
						<metadata>
							<storage>QuickTime</storage>
							<key>com.apple.finalcutstudio.media.uuid</key>
							<size>36</size>
							<type>UTF8</type>
							<value>A7327D12-1A5C-4279-9471-E5FB7901872B</value>
						</metadata>
						<metadata>
							<storage>QuickTime</storage>
							<key>com.apple.finalcutstudio.media.history.uuid</key>
							<size>36</size>
							<type>UTF8</type>
							<value>C6BB05F5-05CC-415F-B173-22350562E6D8</value>
						</metadata>
						<timecode>
							<rate>
								<timebase>25</timebase>
							</rate>
							<string>00:01:51:06</string>
							<frame>2781</frame>
							<displayformat>NDF</displayformat>
							<source>source</source>
							<reel>
								<name>AnthonyAgar</name>
							</reel>
						</timecode>
						<media>
							<video>
								<duration>231</duration>
								<samplecharacteristics>
									<width>1280</width>
									<height>720</height>
								</samplecharacteristics>
							</video>
							<audio>
								<samplecharacteristics>
									<samplerate>48000</samplerate>
									<depth>16</depth>
								</samplecharacteristics>
								<channelcount>2</channelcount>
								<layout>stereo</layout>
								<audiochannel>
									<sourcechannel>1</sourcechannel>
									<channellabel>left</channellabel>
								</audiochannel>
								<audiochannel>
									<sourcechannel>2</sourcechannel>
									<channellabel>right</channellabel>
								</audiochannel>
							</audio>
						</media>
					</file>
					<sourcetrack>
						<mediatype>video</mediatype>
					</sourcetrack>
					<fielddominance>none</fielddominance>
					<itemhistory>
						<uuid>CE61BD9D-57EE-4E0D-948F-755DFE6D9F38</uuid>
						<uuid>BEAC4E5D-7107-4980-97E5-30C0F9E6A825</uuid>
					</itemhistory>
				</clipitem>
				<clipitem id="AntonyAgar021Subclipa">
					<name>AntonyAgar021Subclipa</name>
					<duration>165</duration>
					<rate>
						<ntsc>FALSE</ntsc>
						<timebase>25</timebase>
					</rate>
					<in>0</in>
					<out>164</out>
					<start>75512</start>
					<end>75676</end>
					<pixelaspectratio>Square</pixelaspectratio>
					<anamorphic>FALSE</anamorphic>
					<alphatype>none</alphatype>
					<logginginfo>
						<scene/>
						<shottake/>
						<lognote/>
						<good>FALSE</good>
					</logginginfo>
					<labels>
						<label2/>
					</labels>
					<comments>
						<mastercomment1/>
						<mastercomment2/>
						<mastercomment3/>
						<mastercomment4/>
					</comments>
					<file id="AntonyAgar021Subclipa1">
						<name>AntonyAgar021Subclipa</name>
						<pathurl>file://localhost/Volumes/Michael's%20Passport/woodbdrigenov2011media/AntonyAgar021Subclipa</pathurl>
						<rate>
							<timebase>25</timebase>
						</rate>
						<duration>165</duration>
						<metadata>
							<storage>QuickTime</storage>
							<key>com.apple.finalcutstudio.media.uuid</key>
							<size>36</size>
							<type>UTF8</type>
							<value>F7D63B78-BDC4-4DC2-BA21-848DED8EAD65</value>
						</metadata>
						<metadata>
							<storage>QuickTime</storage>
							<key>com.apple.finalcutstudio.media.history.uuid</key>
							<size>36</size>
							<type>UTF8</type>
							<value>9931E7AD-5801-4908-8036-68ADA51D89A5</value>
						</metadata>
						<timecode>
							<rate>
								<timebase>25</timebase>
							</rate>
							<string>00:00:02:13</string>
							<frame>63</frame>
							<displayformat>NDF</displayformat>
							<source>source</source>
							<reel>
								<name>AnthonyAgar</name>
							</reel>
						</timecode>
						<media>
							<video>
								<duration>165</duration>
								<samplecharacteristics>
									<width>1280</width>
									<height>720</height>
								</samplecharacteristics>
							</video>
							<audio>
								<samplecharacteristics>
									<samplerate>48000</samplerate>
									<depth>16</depth>
								</samplecharacteristics>
								<channelcount>2</channelcount>
								<layout>stereo</layout>
								<audiochannel>
									<sourcechannel>1</sourcechannel>
									<channellabel>left</channellabel>
								</audiochannel>
								<audiochannel>
									<sourcechannel>2</sourcechannel>
									<channellabel>right</channellabel>
								</audiochannel>
							</audio>
						</media>
					</file>
					<sourcetrack>
						<mediatype>video</mediatype>
					</sourcetrack>
					<fielddominance>none</fielddominance>
					<itemhistory>
						<uuid>57C836B3-4331-4484-9957-E07B587927E0</uuid>
						<uuid>6D729B79-1763-4998-9449-32B96F0A767B</uuid>
					</itemhistory>
				</clipitem>
				<clipitem id="AntonyAgar022Subclipa">
					<name>AntonyAgar022Subclipa</name>
					<duration>1079</duration>
					<rate>
						<ntsc>FALSE</ntsc>
						<timebase>25</timebase>
					</rate>
					<in>0</in>
					<out>1078</out>
					<start>84097</start>
					<end>85175</end>
					<pixelaspectratio>Square</pixelaspectratio>
					<anamorphic>FALSE</anamorphic>
					<alphatype>none</alphatype>
					<logginginfo>
						<scene/>
						<shottake/>
						<lognote/>
						<good>FALSE</good>
					</logginginfo>
					<labels>
						<label2/>
					</labels>
					<comments>
						<mastercomment1/>
						<mastercomment2/>
						<mastercomment3/>
						<mastercomment4/>
					</comments>
					<file id="AntonyAgar022Subclipa1">
						<name>AntonyAgar022Subclipa</name>
						<pathurl>file://localhost/Volumes/Michael's%20Passport/woodbdrigenov2011media/AntonyAgar022Subclipa</pathurl>
						<rate>
							<timebase>25</timebase>
						</rate>
						<duration>1079</duration>
						<metadata>
							<storage>QuickTime</storage>
							<key>com.apple.finalcutstudio.media.uuid</key>
							<size>36</size>
							<type>UTF8</type>
							<value>9E20F95C-1262-4885-BDEA-F2C03F208781</value>
						</metadata>
						<metadata>
							<storage>QuickTime</storage>
							<key>com.apple.finalcutstudio.media.history.uuid</key>
							<size>36</size>
							<type>UTF8</type>
							<value>5BF80F82-4511-41A7-A5D5-7C67BCFD2E52</value>
						</metadata>
						<timecode>
							<rate>
								<timebase>25</timebase>
							</rate>
							<string>00:00:22:00</string>
							<frame>550</frame>
							<displayformat>NDF</displayformat>
							<source>source</source>
							<reel>
								<name>AnthonyAgar</name>
							</reel>
						</timecode>
						<media>
							<video>
								<duration>1079</duration>
								<samplecharacteristics>
									<width>1280</width>
									<height>720</height>
								</samplecharacteristics>
							</video>
							<audio>
								<samplecharacteristics>
									<samplerate>48000</samplerate>
									<depth>16</depth>
								</samplecharacteristics>
								<channelcount>2</channelcount>
								<layout>stereo</layout>
								<audiochannel>
									<sourcechannel>1</sourcechannel>
									<channellabel>left</channellabel>
								</audiochannel>
								<audiochannel>
									<sourcechannel>2</sourcechannel>
									<channellabel>right</channellabel>
								</audiochannel>
							</audio>
						</media>
					</file>
					<sourcetrack>
						<mediatype>video</mediatype>
					</sourcetrack>
					<fielddominance>none</fielddominance>
					<itemhistory>
						<uuid>B44FE69E-8EFC-433E-89B7-098833734312</uuid>
						<uuid>690CE172-175B-48E1-A3E2-9BF861DD0F99</uuid>
					</itemhistory>
				</clipitem>
				<clipitem id="AntonyAgar022Subclipb">
					<name>AntonyAgar022Subclipb</name>
					<duration>403</duration>
					<rate>
						<ntsc>FALSE</ntsc>
						<timebase>25</timebase>
					</rate>
					<in>0</in>
					<out>403</out>
					<start>85391</start>
					<end>85794</end>
					<pixelaspectratio>Square</pixelaspectratio>
					<anamorphic>FALSE</anamorphic>
					<alphatype>none</alphatype>
					<logginginfo>
						<scene/>
						<shottake/>
						<lognote/>
						<good>FALSE</good>
					</logginginfo>
					<labels>
						<label2/>
					</labels>
					<comments>
						<mastercomment1/>
						<mastercomment2/>
						<mastercomment3/>
						<mastercomment4/>
					</comments>
					<file id="AntonyAgar022Subclipb1">
						<name>AntonyAgar022Subclipb</name>
						<pathurl>file://localhost/Volumes/Michael's%20Passport/woodbdrigenov2011media/AntonyAgar022Subclipb</pathurl>
						<rate>
							<timebase>25</timebase>
						</rate>
						<duration>403</duration>
						<metadata>
							<storage>QuickTime</storage>
							<key>com.apple.finalcutstudio.media.uuid</key>
							<size>36</size>
							<type>UTF8</type>
							<value>D17A458E-DE9F-4B5D-A24C-EBF0A1163ECC</value>
						</metadata>
						<metadata>
							<storage>QuickTime</storage>
							<key>com.apple.finalcutstudio.media.history.uuid</key>
							<size>36</size>
							<type>UTF8</type>
							<value>5BF80F82-4511-41A7-A5D5-7C67BCFD2E52</value>
						</metadata>
						<timecode>
							<rate>
								<timebase>25</timebase>
							</rate>
							<string>00:01:13:19</string>
							<frame>1844</frame>
							<displayformat>NDF</displayformat>
							<source>source</source>
							<reel>
								<name>AnthonyAgar</name>
							</reel>
						</timecode>
						<media>
							<video>
								<duration>403</duration>
								<samplecharacteristics>
									<width>1280</width>
									<height>720</height>
								</samplecharacteristics>
							</video>
							<audio>
								<samplecharacteristics>
									<samplerate>48000</samplerate>
									<depth>16</depth>
								</samplecharacteristics>
								<channelcount>2</channelcount>
								<layout>stereo</layout>
								<audiochannel>
									<sourcechannel>1</sourcechannel>
									<channellabel>left</channellabel>
								</audiochannel>
								<audiochannel>
									<sourcechannel>2</sourcechannel>
									<channellabel>right</channellabel>
								</audiochannel>
							</audio>
						</media>
					</file>
					<sourcetrack>
						<mediatype>video</mediatype>
					</sourcetrack>
					<fielddominance>none</fielddominance>
					<itemhistory>
						<uuid>A25F1001-9655-4B36-BABF-7CE5C2CB9CD5</uuid>
						<uuid>6950ACFD-3C63-4502-9186-98CEB5944DBC</uuid>
					</itemhistory>
				</clipitem>
				<clipitem id="AntonyAgar022Subclipc">
					<name>AntonyAgar022Subclipc</name>
					<duration>277</duration>
					<rate>
						<ntsc>FALSE</ntsc>
						<timebase>25</timebase>
					</rate>
					<in>0</in>
					<out>277</out>
					<start>85888</start>
					<end>86165</end>
					<pixelaspectratio>Square</pixelaspectratio>
					<anamorphic>FALSE</anamorphic>
					<alphatype>none</alphatype>
					<logginginfo>
						<scene/>
						<shottake/>
						<lognote/>
						<good>FALSE</good>
					</logginginfo>
					<labels>
						<label2/>
					</labels>
					<comments>
						<mastercomment1/>
						<mastercomment2/>
						<mastercomment3/>
						<mastercomment4/>
					</comments>
					<file id="AntonyAgar022Subclipc1">
						<name>AntonyAgar022Subclipc</name>
						<pathurl>file://localhost/Volumes/Michael's%20Passport/woodbdrigenov2011media/AntonyAgar022Subclipc</pathurl>
						<rate>
							<timebase>25</timebase>
						</rate>
						<duration>277</duration>
						<metadata>
							<storage>QuickTime</storage>
							<key>com.apple.finalcutstudio.media.uuid</key>
							<size>36</size>
							<type>UTF8</type>
							<value>385EAB8C-A1F3-42C3-A5D4-09E606FEE1E4</value>
						</metadata>
						<metadata>
							<storage>QuickTime</storage>
							<key>com.apple.finalcutstudio.media.history.uuid</key>
							<size>36</size>
							<type>UTF8</type>
							<value>5BF80F82-4511-41A7-A5D5-7C67BCFD2E52</value>
						</metadata>
						<timecode>
							<rate>
								<timebase>25</timebase>
							</rate>
							<string>00:01:33:16</string>
							<frame>2341</frame>
							<displayformat>NDF</displayformat>
							<source>source</source>
							<reel>
								<name>AnthonyAgar</name>
							</reel>
						</timecode>
						<media>
							<video>
								<duration>277</duration>
								<samplecharacteristics>
									<width>1280</width>
									<height>720</height>
								</samplecharacteristics>
							</video>
							<audio>
								<samplecharacteristics>
									<samplerate>48000</samplerate>
									<depth>16</depth>
								</samplecharacteristics>
								<channelcount>2</channelcount>
								<layout>stereo</layout>
								<audiochannel>
									<sourcechannel>1</sourcechannel>
									<channellabel>left</channellabel>
								</audiochannel>
								<audiochannel>
									<sourcechannel>2</sourcechannel>
									<channellabel>right</channellabel>
								</audiochannel>
							</audio>
						</media>
					</file>
					<sourcetrack>
						<mediatype>video</mediatype>
					</sourcetrack>
					<fielddominance>none</fielddominance>
					<itemhistory>
						<uuid>80A27D9E-824C-48B2-BE5F-C9F4794830B4</uuid>
						<uuid>62D19C9C-DF83-4A9B-BA54-4E7D18A6E5DA</uuid>
					</itemhistory>
				</clipitem>
				<clipitem id="AntonyAgar022Subclipd">
					<name>AntonyAgar022Subclipd</name>
					<duration>158</duration>
					<rate>
						<ntsc>FALSE</ntsc>
						<timebase>25</timebase>
					</rate>
					<in>0</in>
					<out>158</out>
					<start>86326</start>
					<end>86484</end>
					<pixelaspectratio>Square</pixelaspectratio>
					<anamorphic>FALSE</anamorphic>
					<alphatype>none</alphatype>
					<logginginfo>
						<scene/>
						<shottake/>
						<lognote/>
						<good>FALSE</good>
					</logginginfo>
					<labels>
						<label2/>
					</labels>
					<comments>
						<mastercomment1/>
						<mastercomment2/>
						<mastercomment3/>
						<mastercomment4/>
					</comments>
					<file id="AntonyAgar022Subclipd1">
						<name>AntonyAgar022Subclipd</name>
						<pathurl>file://localhost/Volumes/Michael's%20Passport/woodbdrigenov2011media/AntonyAgar022Subclipd</pathurl>
						<rate>
							<timebase>25</timebase>
						</rate>
						<duration>158</duration>
						<metadata>
							<storage>QuickTime</storage>
							<key>com.apple.finalcutstudio.media.uuid</key>
							<size>36</size>
							<type>UTF8</type>
							<value>39890197-0492-4E82-95D3-C05A5AA59617</value>
						</metadata>
						<metadata>
							<storage>QuickTime</storage>
							<key>com.apple.finalcutstudio.media.history.uuid</key>
							<size>36</size>
							<type>UTF8</type>
							<value>5BF80F82-4511-41A7-A5D5-7C67BCFD2E52</value>
						</metadata>
						<timecode>
							<rate>
								<timebase>25</timebase>
							</rate>
							<string>00:01:51:04</string>
							<frame>2779</frame>
							<displayformat>NDF</displayformat>
							<source>source</source>
							<reel>
								<name>AnthonyAgar</name>
							</reel>
						</timecode>
						<media>
							<video>
								<duration>158</duration>
								<samplecharacteristics>
									<width>1280</width>
									<height>720</height>
								</samplecharacteristics>
							</video>
							<audio>
								<samplecharacteristics>
									<samplerate>48000</samplerate>
									<depth>16</depth>
								</samplecharacteristics>
								<channelcount>2</channelcount>
								<layout>stereo</layout>
								<audiochannel>
									<sourcechannel>1</sourcechannel>
									<channellabel>left</channellabel>
								</audiochannel>
								<audiochannel>
									<sourcechannel>2</sourcechannel>
									<channellabel>right</channellabel>
								</audiochannel>
							</audio>
						</media>
					</file>
					<sourcetrack>
						<mediatype>video</mediatype>
					</sourcetrack>
					<fielddominance>none</fielddominance>
					<itemhistory>
						<uuid>16DB5758-EADC-464F-9159-B6FDD796DE45</uuid>
						<uuid>17E7B26D-4829-413C-A5B2-19F8F57DB7AE</uuid>
					</itemhistory>
				</clipitem>
				<clipitem id="AntonyAgar022Subclipe">
					<name>AntonyAgar022Subclipe</name>
					<duration>339</duration>
					<rate>
						<ntsc>FALSE</ntsc>
						<timebase>25</timebase>
					</rate>
					<in>0</in>
					<out>338</out>
					<start>86730</start>
					<end>87068</end>
					<pixelaspectratio>Square</pixelaspectratio>
					<anamorphic>FALSE</anamorphic>
					<alphatype>none</alphatype>
					<logginginfo>
						<scene/>
						<shottake/>
						<lognote/>
						<good>FALSE</good>
					</logginginfo>
					<labels>
						<label2/>
					</labels>
					<comments>
						<mastercomment1/>
						<mastercomment2/>
						<mastercomment3/>
						<mastercomment4/>
					</comments>
					<file id="AntonyAgar022Subclipe1">
						<name>AntonyAgar022Subclipe</name>
						<pathurl>file://localhost/Volumes/Michael's%20Passport/woodbdrigenov2011media/AntonyAgar022Subclipe</pathurl>
						<rate>
							<timebase>25</timebase>
						</rate>
						<duration>339</duration>
						<metadata>
							<storage>QuickTime</storage>
							<key>com.apple.finalcutstudio.media.uuid</key>
							<size>36</size>
							<type>UTF8</type>
							<value>2A3EC46F-44A2-4D22-B6FB-81EB7CB2745F</value>
						</metadata>
						<metadata>
							<storage>QuickTime</storage>
							<key>com.apple.finalcutstudio.media.history.uuid</key>
							<size>36</size>
							<type>UTF8</type>
							<value>5BF80F82-4511-41A7-A5D5-7C67BCFD2E52</value>
						</metadata>
						<timecode>
							<rate>
								<timebase>25</timebase>
							</rate>
							<string>00:02:07:08</string>
							<frame>3183</frame>
							<displayformat>NDF</displayformat>
							<source>source</source>
							<reel>
								<name>AnthonyAgar</name>
							</reel>
						</timecode>
						<media>
							<video>
								<duration>339</duration>
								<samplecharacteristics>
									<width>1280</width>
									<height>720</height>
								</samplecharacteristics>
							</video>
							<audio>
								<samplecharacteristics>
									<samplerate>48000</samplerate>
									<depth>16</depth>
								</samplecharacteristics>
								<channelcount>2</channelcount>
								<layout>stereo</layout>
								<audiochannel>
									<sourcechannel>1</sourcechannel>
									<channellabel>left</channellabel>
								</audiochannel>
								<audiochannel>
									<sourcechannel>2</sourcechannel>
									<channellabel>right</channellabel>
								</audiochannel>
							</audio>
						</media>
					</file>
					<sourcetrack>
						<mediatype>video</mediatype>
					</sourcetrack>
					<fielddominance>none</fielddominance>
					<itemhistory>
						<uuid>103A5D9F-F640-4509-89D2-D408DBA72238</uuid>
						<uuid>7B333DFF-6E02-4AD0-82B2-B8111101B6F3</uuid>
					</itemhistory>
				</clipitem>
				<clipitem id="AntonyAgar022Subclipf">
					<name>AntonyAgar022Subclipf</name>
					<duration>1798</duration>
					<rate>
						<ntsc>FALSE</ntsc>
						<timebase>25</timebase>
					</rate>
					<in>0</in>
					<out>1798</out>
					<start>88385</start>
					<end>90183</end>
					<pixelaspectratio>Square</pixelaspectratio>
					<anamorphic>FALSE</anamorphic>
					<alphatype>none</alphatype>
					<logginginfo>
						<scene/>
						<shottake/>
						<lognote/>
						<good>FALSE</good>
					</logginginfo>
					<labels>
						<label2/>
					</labels>
					<comments>
						<mastercomment1/>
						<mastercomment2/>
						<mastercomment3/>
						<mastercomment4/>
					</comments>
					<file id="AntonyAgar022Subclipf1">
						<name>AntonyAgar022Subclipf</name>
						<pathurl>file://localhost/Volumes/Michael's%20Passport/woodbdrigenov2011media/AntonyAgar022Subclipf</pathurl>
						<rate>
							<timebase>25</timebase>
						</rate>
						<duration>1798</duration>
						<metadata>
							<storage>QuickTime</storage>
							<key>com.apple.finalcutstudio.media.uuid</key>
							<size>36</size>
							<type>UTF8</type>
							<value>F3EF5CBB-8B47-4D7E-9FC9-8E8478ABAE33</value>
						</metadata>
						<metadata>
							<storage>QuickTime</storage>
							<key>com.apple.finalcutstudio.media.history.uuid</key>
							<size>36</size>
							<type>UTF8</type>
							<value>5BF80F82-4511-41A7-A5D5-7C67BCFD2E52</value>
						</metadata>
						<timecode>
							<rate>
								<timebase>25</timebase>
							</rate>
							<string>00:03:13:13</string>
							<frame>4838</frame>
							<displayformat>NDF</displayformat>
							<source>source</source>
							<reel>
								<name>AnthonyAgar</name>
							</reel>
						</timecode>
						<media>
							<video>
								<duration>1798</duration>
								<samplecharacteristics>
									<width>1280</width>
									<height>720</height>
								</samplecharacteristics>
							</video>
							<audio>
								<samplecharacteristics>
									<samplerate>48000</samplerate>
									<depth>16</depth>
								</samplecharacteristics>
								<channelcount>2</channelcount>
								<layout>stereo</layout>
								<audiochannel>
									<sourcechannel>1</sourcechannel>
									<channellabel>left</channellabel>
								</audiochannel>
								<audiochannel>
									<sourcechannel>2</sourcechannel>
									<channellabel>right</channellabel>
								</audiochannel>
							</audio>
						</media>
					</file>
					<sourcetrack>
						<mediatype>video</mediatype>
					</sourcetrack>
					<fielddominance>none</fielddominance>
					<itemhistory>
						<uuid>7B89573B-DBA6-4840-8247-600A8C91E38C</uuid>
						<uuid>73CAA90D-77D9-4E4C-858B-FA1DE0A40E8A</uuid>
					</itemhistory>
				</clipitem>
				<clipitem id="AntonyAgar023a">
					<name>AntonyAgar023a</name>
					<duration>2794</duration>
					<rate>
						<ntsc>FALSE</ntsc>
						<timebase>25</timebase>
					</rate>
					<in>0</in>
					<out>2794</out>
					<start>91200</start>
					<end>93994</end>
					<pixelaspectratio>Square</pixelaspectratio>
					<anamorphic>FALSE</anamorphic>
					<alphatype>none</alphatype>
					<logginginfo>
						<scene/>
						<shottake/>
						<lognote/>
						<good>FALSE</good>
					</logginginfo>
					<labels>
						<label2/>
					</labels>
					<comments>
						<mastercomment1/>
						<mastercomment2/>
						<mastercomment3/>
						<mastercomment4/>
					</comments>
					<file id="AntonyAgar023a1">
						<name>AntonyAgar023a</name>
						<pathurl>file://localhost/Volumes/Michael's%20Passport/woodbdrigenov2011media/AntonyAgar023a</pathurl>
						<rate>
							<timebase>25</timebase>
						</rate>
						<duration>2794</duration>
						<metadata>
							<storage>QuickTime</storage>
							<key>com.apple.finalcutstudio.media.uuid</key>
							<size>36</size>
							<type>UTF8</type>
							<value>D12D9A75-009B-42EB-B49E-A84A54B49F23</value>
						</metadata>
						<metadata>
							<storage>QuickTime</storage>
							<key>com.apple.finalcutstudio.media.history.uuid</key>
							<size>36</size>
							<type>UTF8</type>
							<value>0EC1D68A-D0F5-412C-AD91-EC310C276453</value>
						</metadata>
						<timecode>
							<rate>
								<timebase>25</timebase>
							</rate>
							<string>00:00:04:10</string>
							<frame>110</frame>
							<displayformat>NDF</displayformat>
							<source>source</source>
							<reel>
								<name>AnthonyAgar</name>
							</reel>
						</timecode>
						<media>
							<video>
								<duration>2794</duration>
								<samplecharacteristics>
									<width>1280</width>
									<height>720</height>
								</samplecharacteristics>
							</video>
							<audio>
								<samplecharacteristics>
									<samplerate>48000</samplerate>
									<depth>16</depth>
								</samplecharacteristics>
								<channelcount>2</channelcount>
								<layout>stereo</layout>
								<audiochannel>
									<sourcechannel>1</sourcechannel>
									<channellabel>left</channellabel>
								</audiochannel>
								<audiochannel>
									<sourcechannel>2</sourcechannel>
									<channellabel>right</channellabel>
								</audiochannel>
							</audio>
						</media>
					</file>
					<sourcetrack>
						<mediatype>video</mediatype>
					</sourcetrack>
					<fielddominance>none</fielddominance>
					<itemhistory>
						<uuid>A4697CD9-7AC5-47BD-8E53-EAA325C6CD29</uuid>
						<uuid>DE78B20D-EE6C-4752-A5CF-28FD57C089C6</uuid>
					</itemhistory>
				</clipitem>
				<clipitem id="AntonyAgar024Subclipa">
					<name>AntonyAgar024Subclipa</name>
					<duration>797</duration>
					<rate>
						<ntsc>FALSE</ntsc>
						<timebase>25</timebase>
					</rate>
					<in>0</in>
					<out>796</out>
					<start>94546</start>
					<end>95342</end>
					<pixelaspectratio>Square</pixelaspectratio>
					<anamorphic>FALSE</anamorphic>
					<alphatype>none</alphatype>
					<logginginfo>
						<scene/>
						<shottake/>
						<lognote/>
						<good>FALSE</good>
					</logginginfo>
					<labels>
						<label2/>
					</labels>
					<comments>
						<mastercomment1/>
						<mastercomment2/>
						<mastercomment3/>
						<mastercomment4/>
					</comments>
					<file id="AntonyAgar024Subclipa1">
						<name>AntonyAgar024Subclipa</name>
						<pathurl>file://localhost/Volumes/Michael's%20Passport/woodbdrigenov2011media/AntonyAgar024Subclipa</pathurl>
						<rate>
							<timebase>25</timebase>
						</rate>
						<duration>797</duration>
						<metadata>
							<storage>QuickTime</storage>
							<key>com.apple.finalcutstudio.media.uuid</key>
							<size>36</size>
							<type>UTF8</type>
							<value>2005EB97-1672-4893-9FC7-479E51EFFBE7</value>
						</metadata>
						<metadata>
							<storage>QuickTime</storage>
							<key>com.apple.finalcutstudio.media.history.uuid</key>
							<size>36</size>
							<type>UTF8</type>
							<value>D027F83F-BA05-464E-92E2-27392294707A</value>
						</metadata>
						<timecode>
							<rate>
								<timebase>25</timebase>
							</rate>
							<string>00:00:00:00</string>
							<frame>0</frame>
							<displayformat>NDF</displayformat>
							<source>source</source>
							<reel>
								<name>AnthonyAgar</name>
							</reel>
						</timecode>
						<media>
							<video>
								<duration>797</duration>
								<samplecharacteristics>
									<width>1280</width>
									<height>720</height>
								</samplecharacteristics>
							</video>
							<audio>
								<samplecharacteristics>
									<samplerate>48000</samplerate>
									<depth>16</depth>
								</samplecharacteristics>
								<channelcount>2</channelcount>
								<layout>stereo</layout>
								<audiochannel>
									<sourcechannel>1</sourcechannel>
									<channellabel>left</channellabel>
								</audiochannel>
								<audiochannel>
									<sourcechannel>2</sourcechannel>
									<channellabel>right</channellabel>
								</audiochannel>
							</audio>
						</media>
					</file>
					<sourcetrack>
						<mediatype>video</mediatype>
					</sourcetrack>
					<fielddominance>none</fielddominance>
					<itemhistory>
						<uuid>530852CC-574D-4F22-93AE-459344611832</uuid>
						<uuid>2A6A7C9F-6F45-4498-9CED-1019CB425169</uuid>
					</itemhistory>
				</clipitem>
				<clipitem id="AntonyAgar024Subclipb">
					<name>AntonyAgar024Subclipb</name>
					<duration>1518</duration>
					<rate>
						<ntsc>FALSE</ntsc>
						<timebase>25</timebase>
					</rate>
					<in>0</in>
					<out>1517</out>
					<start>95393</start>
					<end>96910</end>
					<pixelaspectratio>Square</pixelaspectratio>
					<anamorphic>FALSE</anamorphic>
					<alphatype>none</alphatype>
					<logginginfo>
						<scene/>
						<shottake/>
						<lognote/>
						<good>FALSE</good>
					</logginginfo>
					<labels>
						<label2/>
					</labels>
					<comments>
						<mastercomment1/>
						<mastercomment2/>
						<mastercomment3/>
						<mastercomment4/>
					</comments>
					<file id="AntonyAgar024Subclipb1">
						<name>AntonyAgar024Subclipb</name>
						<pathurl>file://localhost/Volumes/Michael's%20Passport/woodbdrigenov2011media/AntonyAgar024Subclipb</pathurl>
						<rate>
							<timebase>25</timebase>
						</rate>
						<duration>1518</duration>
						<metadata>
							<storage>QuickTime</storage>
							<key>com.apple.finalcutstudio.media.uuid</key>
							<size>36</size>
							<type>UTF8</type>
							<value>2809C656-0C2B-429D-AED8-B3E6F7C15136</value>
						</metadata>
						<metadata>
							<storage>QuickTime</storage>
							<key>com.apple.finalcutstudio.media.history.uuid</key>
							<size>36</size>
							<type>UTF8</type>
							<value>D027F83F-BA05-464E-92E2-27392294707A</value>
						</metadata>
						<timecode>
							<rate>
								<timebase>25</timebase>
							</rate>
							<string>00:00:33:22</string>
							<frame>847</frame>
							<displayformat>NDF</displayformat>
							<source>source</source>
							<reel>
								<name>AnthonyAgar</name>
							</reel>
						</timecode>
						<media>
							<video>
								<duration>1518</duration>
								<samplecharacteristics>
									<width>1280</width>
									<height>720</height>
								</samplecharacteristics>
							</video>
							<audio>
								<samplecharacteristics>
									<samplerate>48000</samplerate>
									<depth>16</depth>
								</samplecharacteristics>
								<channelcount>2</channelcount>
								<layout>stereo</layout>
								<audiochannel>
									<sourcechannel>1</sourcechannel>
									<channellabel>left</channellabel>
								</audiochannel>
								<audiochannel>
									<sourcechannel>2</sourcechannel>
									<channellabel>right</channellabel>
								</audiochannel>
							</audio>
						</media>
					</file>
					<sourcetrack>
						<mediatype>video</mediatype>
					</sourcetrack>
					<fielddominance>none</fielddominance>
					<itemhistory>
						<uuid>F525B60B-BD1B-4510-9861-6EC4D959D08C</uuid>
						<uuid>41B7667C-63BA-4D65-9044-2916FD520BC0</uuid>
					</itemhistory>
				</clipitem>
				<clipitem id="AntonyAgar024Subclipc">
					<name>AntonyAgar024Subclipc</name>
					<duration>2297</duration>
					<rate>
						<ntsc>FALSE</ntsc>
						<timebase>25</timebase>
					</rate>
					<in>0</in>
					<out>2296</out>
					<start>96938</start>
					<end>99234</end>
					<pixelaspectratio>Square</pixelaspectratio>
					<anamorphic>FALSE</anamorphic>
					<alphatype>none</alphatype>
					<logginginfo>
						<scene/>
						<shottake/>
						<lognote/>
						<good>FALSE</good>
					</logginginfo>
					<labels>
						<label2/>
					</labels>
					<comments>
						<mastercomment1/>
						<mastercomment2/>
						<mastercomment3/>
						<mastercomment4/>
					</comments>
					<file id="AntonyAgar024Subclipc1">
						<name>AntonyAgar024Subclipc</name>
						<pathurl>file://localhost/Volumes/Michael's%20Passport/woodbdrigenov2011media/AntonyAgar024Subclipc</pathurl>
						<rate>
							<timebase>25</timebase>
						</rate>
						<duration>2297</duration>
						<metadata>
							<storage>QuickTime</storage>
							<key>com.apple.finalcutstudio.media.uuid</key>
							<size>36</size>
							<type>UTF8</type>
							<value>E96DB0AF-B5EA-4C37-95BA-7462AFCB12FD</value>
						</metadata>
						<metadata>
							<storage>QuickTime</storage>
							<key>com.apple.finalcutstudio.media.history.uuid</key>
							<size>36</size>
							<type>UTF8</type>
							<value>D027F83F-BA05-464E-92E2-27392294707A</value>
						</metadata>
						<timecode>
							<rate>
								<timebase>25</timebase>
							</rate>
							<string>00:01:35:17</string>
							<frame>2392</frame>
							<displayformat>NDF</displayformat>
							<source>source</source>
							<reel>
								<name>AnthonyAgar</name>
							</reel>
						</timecode>
						<media>
							<video>
								<duration>2297</duration>
								<samplecharacteristics>
									<width>1280</width>
									<height>720</height>
								</samplecharacteristics>
							</video>
							<audio>
								<samplecharacteristics>
									<samplerate>48000</samplerate>
									<depth>16</depth>
								</samplecharacteristics>
								<channelcount>2</channelcount>
								<layout>stereo</layout>
								<audiochannel>
									<sourcechannel>1</sourcechannel>
									<channellabel>left</channellabel>
								</audiochannel>
								<audiochannel>
									<sourcechannel>2</sourcechannel>
									<channellabel>right</channellabel>
								</audiochannel>
							</audio>
						</media>
					</file>
					<sourcetrack>
						<mediatype>video</mediatype>
					</sourcetrack>
					<fielddominance>none</fielddominance>
					<itemhistory>
						<uuid>7B395394-E4AE-4826-A631-87C7B10D3459</uuid>
						<uuid>BE67FA35-51F9-49A2-89D4-39174FB51E9F</uuid>
					</itemhistory>
				</clipitem>
				<clipitem id="AntonyAgar025Subclipa">
					<name>AntonyAgar025Subclipa</name>
					<duration>330</duration>
					<rate>
						<ntsc>FALSE</ntsc>
						<timebase>25</timebase>
					</rate>
					<in>0</in>
					<out>329</out>
					<start>100696</start>
					<end>101025</end>
					<pixelaspectratio>Square</pixelaspectratio>
					<anamorphic>FALSE</anamorphic>
					<alphatype>none</alphatype>
					<logginginfo>
						<scene/>
						<shottake/>
						<lognote/>
						<good>FALSE</good>
					</logginginfo>
					<labels>
						<label2/>
					</labels>
					<comments>
						<mastercomment1/>
						<mastercomment2/>
						<mastercomment3/>
						<mastercomment4/>
					</comments>
					<file id="AntonyAgar025Subclipa1">
						<name>AntonyAgar025Subclipa</name>
						<pathurl>file://localhost/Volumes/Michael's%20Passport/woodbdrigenov2011media/AntonyAgar025Subclipa</pathurl>
						<rate>
							<timebase>25</timebase>
						</rate>
						<duration>330</duration>
						<metadata>
							<storage>QuickTime</storage>
							<key>com.apple.finalcutstudio.media.uuid</key>
							<size>36</size>
							<type>UTF8</type>
							<value>1582BBEF-CBED-4ECB-942F-7B0D93327562</value>
						</metadata>
						<metadata>
							<storage>QuickTime</storage>
							<key>com.apple.finalcutstudio.media.history.uuid</key>
							<size>36</size>
							<type>UTF8</type>
							<value>E6323D41-5D29-4FCE-8344-3C414A028C4B</value>
						</metadata>
						<timecode>
							<rate>
								<timebase>25</timebase>
							</rate>
							<string>00:00:00:00</string>
							<frame>0</frame>
							<displayformat>NDF</displayformat>
							<source>source</source>
							<reel>
								<name>AnthonyAgar</name>
							</reel>
						</timecode>
						<media>
							<video>
								<duration>330</duration>
								<samplecharacteristics>
									<width>1280</width>
									<height>720</height>
								</samplecharacteristics>
							</video>
							<audio>
								<samplecharacteristics>
									<samplerate>48000</samplerate>
									<depth>16</depth>
								</samplecharacteristics>
								<channelcount>2</channelcount>
								<layout>stereo</layout>
								<audiochannel>
									<sourcechannel>1</sourcechannel>
									<channellabel>left</channellabel>
								</audiochannel>
								<audiochannel>
									<sourcechannel>2</sourcechannel>
									<channellabel>right</channellabel>
								</audiochannel>
							</audio>
						</media>
					</file>
					<sourcetrack>
						<mediatype>video</mediatype>
					</sourcetrack>
					<fielddominance>none</fielddominance>
					<itemhistory>
						<uuid>98310FDF-6C0E-4662-B8F4-85B660FA31CA</uuid>
						<uuid>FE8BB244-FC70-4E40-B3D2-C3A0E7EB8349</uuid>
					</itemhistory>
				</clipitem>
				<clipitem id="AntonyAgar025Subclipb">
					<name>AntonyAgar025Subclipb</name>
					<duration>1186</duration>
					<rate>
						<ntsc>FALSE</ntsc>
						<timebase>25</timebase>
					</rate>
					<in>0</in>
					<out>1185</out>
					<start>101151</start>
					<end>102336</end>
					<pixelaspectratio>Square</pixelaspectratio>
					<anamorphic>FALSE</anamorphic>
					<alphatype>none</alphatype>
					<logginginfo>
						<scene/>
						<shottake/>
						<lognote/>
						<good>FALSE</good>
					</logginginfo>
					<labels>
						<label2/>
					</labels>
					<comments>
						<mastercomment1/>
						<mastercomment2/>
						<mastercomment3/>
						<mastercomment4/>
					</comments>
					<file id="AntonyAgar025Subclipb1">
						<name>AntonyAgar025Subclipb</name>
						<pathurl>file://localhost/Volumes/Michael's%20Passport/woodbdrigenov2011media/AntonyAgar025Subclipb</pathurl>
						<rate>
							<timebase>25</timebase>
						</rate>
						<duration>1186</duration>
						<metadata>
							<storage>QuickTime</storage>
							<key>com.apple.finalcutstudio.media.uuid</key>
							<size>36</size>
							<type>UTF8</type>
							<value>08519280-83A0-487F-B3BC-06DEF51D4045</value>
						</metadata>
						<metadata>
							<storage>QuickTime</storage>
							<key>com.apple.finalcutstudio.media.history.uuid</key>
							<size>36</size>
							<type>UTF8</type>
							<value>E6323D41-5D29-4FCE-8344-3C414A028C4B</value>
						</metadata>
						<timecode>
							<rate>
								<timebase>25</timebase>
							</rate>
							<string>00:00:18:06</string>
							<frame>456</frame>
							<displayformat>NDF</displayformat>
							<source>source</source>
							<reel>
								<name>AnthonyAgar</name>
							</reel>
						</timecode>
						<media>
							<video>
								<duration>1186</duration>
								<samplecharacteristics>
									<width>1280</width>
									<height>720</height>
								</samplecharacteristics>
							</video>
							<audio>
								<samplecharacteristics>
									<samplerate>48000</samplerate>
									<depth>16</depth>
								</samplecharacteristics>
								<channelcount>2</channelcount>
								<layout>stereo</layout>
								<audiochannel>
									<sourcechannel>1</sourcechannel>
									<channellabel>left</channellabel>
								</audiochannel>
								<audiochannel>
									<sourcechannel>2</sourcechannel>
									<channellabel>right</channellabel>
								</audiochannel>
							</audio>
						</media>
					</file>
					<sourcetrack>
						<mediatype>video</mediatype>
					</sourcetrack>
					<fielddominance>none</fielddominance>
					<itemhistory>
						<uuid>2051F026-7F26-4494-A443-97DF99D9C0AA</uuid>
						<uuid>A2C33E9E-8CB3-4585-9983-1592430D502E</uuid>
					</itemhistory>
				</clipitem>
				<clipitem id="AntonyAgar025Subclipc">
					<name>AntonyAgar025Subclipc</name>
					<duration>4490</duration>
					<rate>
						<ntsc>FALSE</ntsc>
						<timebase>25</timebase>
					</rate>
					<in>0</in>
					<out>4489</out>
					<start>102336</start>
					<end>106825</end>
					<pixelaspectratio>Square</pixelaspectratio>
					<anamorphic>FALSE</anamorphic>
					<alphatype>none</alphatype>
					<logginginfo>
						<scene/>
						<shottake/>
						<lognote/>
						<good>FALSE</good>
					</logginginfo>
					<labels>
						<label2/>
					</labels>
					<comments>
						<mastercomment1/>
						<mastercomment2/>
						<mastercomment3/>
						<mastercomment4/>
					</comments>
					<file id="AntonyAgar025Subclipc1">
						<name>AntonyAgar025Subclipc</name>
						<pathurl>file://localhost/Volumes/Michael's%20Passport/woodbdrigenov2011media/AntonyAgar025Subclipc</pathurl>
						<rate>
							<timebase>25</timebase>
						</rate>
						<duration>4490</duration>
						<metadata>
							<storage>QuickTime</storage>
							<key>com.apple.finalcutstudio.media.uuid</key>
							<size>36</size>
							<type>UTF8</type>
							<value>53206120-991D-4768-8E42-651E25227684</value>
						</metadata>
						<metadata>
							<storage>QuickTime</storage>
							<key>com.apple.finalcutstudio.media.history.uuid</key>
							<size>36</size>
							<type>UTF8</type>
							<value>E6323D41-5D29-4FCE-8344-3C414A028C4B</value>
						</metadata>
						<timecode>
							<rate>
								<timebase>25</timebase>
							</rate>
							<string>00:01:05:16</string>
							<frame>1641</frame>
							<displayformat>NDF</displayformat>
							<source>source</source>
							<reel>
								<name>AnthonyAgar</name>
							</reel>
						</timecode>
						<media>
							<video>
								<duration>4490</duration>
								<samplecharacteristics>
									<width>1280</width>
									<height>720</height>
								</samplecharacteristics>
							</video>
							<audio>
								<samplecharacteristics>
									<samplerate>48000</samplerate>
									<depth>16</depth>
								</samplecharacteristics>
								<channelcount>2</channelcount>
								<layout>stereo</layout>
								<audiochannel>
									<sourcechannel>1</sourcechannel>
									<channellabel>left</channellabel>
								</audiochannel>
								<audiochannel>
									<sourcechannel>2</sourcechannel>
									<channellabel>right</channellabel>
								</audiochannel>
							</audio>
						</media>
					</file>
					<sourcetrack>
						<mediatype>video</mediatype>
					</sourcetrack>
					<fielddominance>none</fielddominance>
					<itemhistory>
						<uuid>0514BCF7-DB4A-4EF2-8685-9782B4D447BF</uuid>
						<uuid>56413164-02CD-4181-B9C9-B36A591EB4BC</uuid>
					</itemhistory>
				</clipitem>
				<clipitem id="AntonyAgar025Subclipd">
					<name>AntonyAgar025Subclipd</name>
					<duration>517</duration>
					<rate>
						<ntsc>FALSE</ntsc>
						<timebase>25</timebase>
					</rate>
					<in>0</in>
					<out>516</out>
					<start>106903</start>
					<end>107419</end>
					<pixelaspectratio>Square</pixelaspectratio>
					<anamorphic>FALSE</anamorphic>
					<alphatype>none</alphatype>
					<logginginfo>
						<scene/>
						<shottake/>
						<lognote/>
						<good>FALSE</good>
					</logginginfo>
					<labels>
						<label2/>
					</labels>
					<comments>
						<mastercomment1/>
						<mastercomment2/>
						<mastercomment3/>
						<mastercomment4/>
					</comments>
					<file id="AntonyAgar025Subclipd1">
						<name>AntonyAgar025Subclipd</name>
						<pathurl>file://localhost/Volumes/Michael's%20Passport/woodbdrigenov2011media/AntonyAgar025Subclipd</pathurl>
						<rate>
							<timebase>25</timebase>
						</rate>
						<duration>517</duration>
						<metadata>
							<storage>QuickTime</storage>
							<key>com.apple.finalcutstudio.media.uuid</key>
							<size>36</size>
							<type>UTF8</type>
							<value>49D7D567-2497-43F4-953F-BA696B0521D1</value>
						</metadata>
						<metadata>
							<storage>QuickTime</storage>
							<key>com.apple.finalcutstudio.media.history.uuid</key>
							<size>36</size>
							<type>UTF8</type>
							<value>E6323D41-5D29-4FCE-8344-3C414A028C4B</value>
						</metadata>
						<timecode>
							<rate>
								<timebase>25</timebase>
							</rate>
							<string>00:04:08:06</string>
							<frame>6206</frame>
							<displayformat>NDF</displayformat>
							<source>source</source>
							<reel>
								<name>AnthonyAgar</name>
							</reel>
						</timecode>
						<media>
							<video>
								<duration>517</duration>
								<samplecharacteristics>
									<width>1280</width>
									<height>720</height>
								</samplecharacteristics>
							</video>
							<audio>
								<samplecharacteristics>
									<samplerate>48000</samplerate>
									<depth>16</depth>
								</samplecharacteristics>
								<channelcount>2</channelcount>
								<layout>stereo</layout>
								<audiochannel>
									<sourcechannel>1</sourcechannel>
									<channellabel>left</channellabel>
								</audiochannel>
								<audiochannel>
									<sourcechannel>2</sourcechannel>
									<channellabel>right</channellabel>
								</audiochannel>
							</audio>
						</media>
					</file>
					<sourcetrack>
						<mediatype>video</mediatype>
					</sourcetrack>
					<fielddominance>none</fielddominance>
					<itemhistory>
						<uuid>B468EB13-F0B5-4654-ABA9-6E91FE086AFB</uuid>
						<uuid>3C627F0E-6457-4718-ADDD-ECBBC7BDF91F</uuid>
					</itemhistory>
				</clipitem>
				<clipitem id="AntonyAgar026Subclipa">
					<name>AntonyAgar026Subclipa</name>
					<duration>140</duration>
					<rate>
						<ntsc>FALSE</ntsc>
						<timebase>25</timebase>
					</rate>
					<in>0</in>
					<out>140</out>
					<start>109994</start>
					<end>110134</end>
					<pixelaspectratio>Square</pixelaspectratio>
					<anamorphic>FALSE</anamorphic>
					<alphatype>none</alphatype>
					<logginginfo>
						<scene/>
						<shottake/>
						<lognote/>
						<good>FALSE</good>
					</logginginfo>
					<labels>
						<label2/>
					</labels>
					<comments>
						<mastercomment1/>
						<mastercomment2/>
						<mastercomment3/>
						<mastercomment4/>
					</comments>
					<file id="AntonyAgar026Subclipa1">
						<name>AntonyAgar026Subclipa</name>
						<pathurl>file://localhost/Volumes/Michael's%20Passport/woodbdrigenov2011media/AntonyAgar026Subclipa</pathurl>
						<rate>
							<timebase>25</timebase>
						</rate>
						<duration>140</duration>
						<metadata>
							<storage>QuickTime</storage>
							<key>com.apple.finalcutstudio.media.uuid</key>
							<size>36</size>
							<type>UTF8</type>
							<value>259DE7E8-E069-4D4B-8193-4DC196227F2B</value>
						</metadata>
						<metadata>
							<storage>QuickTime</storage>
							<key>com.apple.finalcutstudio.media.history.uuid</key>
							<size>36</size>
							<type>UTF8</type>
							<value>4012588A-392E-4FEA-BA38-0161B1781A8E</value>
						</metadata>
						<timecode>
							<rate>
								<timebase>25</timebase>
							</rate>
							<string>00:00:00:00</string>
							<frame>0</frame>
							<displayformat>NDF</displayformat>
							<source>source</source>
							<reel>
								<name>AnthonyAgar</name>
							</reel>
						</timecode>
						<media>
							<video>
								<duration>140</duration>
								<samplecharacteristics>
									<width>1280</width>
									<height>720</height>
								</samplecharacteristics>
							</video>
							<audio>
								<samplecharacteristics>
									<samplerate>48000</samplerate>
									<depth>16</depth>
								</samplecharacteristics>
								<channelcount>2</channelcount>
								<layout>stereo</layout>
								<audiochannel>
									<sourcechannel>1</sourcechannel>
									<channellabel>left</channellabel>
								</audiochannel>
								<audiochannel>
									<sourcechannel>2</sourcechannel>
									<channellabel>right</channellabel>
								</audiochannel>
							</audio>
						</media>
					</file>
					<sourcetrack>
						<mediatype>video</mediatype>
					</sourcetrack>
					<fielddominance>none</fielddominance>
					<itemhistory>
						<uuid>BB215BFE-DBEB-4527-BC47-FB2530DFC4B4</uuid>
						<uuid>8E469A3D-504F-4CAB-AC0D-2C95EFD22D08</uuid>
					</itemhistory>
				</clipitem>
				<clipitem id="AntonyAgar026Subclipb">
					<name>AntonyAgar026Subclipb</name>
					<duration>374</duration>
					<rate>
						<ntsc>FALSE</ntsc>
						<timebase>25</timebase>
					</rate>
					<in>0</in>
					<out>373</out>
					<start>110179</start>
					<end>110552</end>
					<pixelaspectratio>Square</pixelaspectratio>
					<anamorphic>FALSE</anamorphic>
					<alphatype>none</alphatype>
					<logginginfo>
						<scene/>
						<shottake/>
						<lognote/>
						<good>FALSE</good>
					</logginginfo>
					<labels>
						<label2/>
					</labels>
					<comments>
						<mastercomment1/>
						<mastercomment2/>
						<mastercomment3/>
						<mastercomment4/>
					</comments>
					<file id="AntonyAgar026Subclipb1">
						<name>AntonyAgar026Subclipb</name>
						<pathurl>file://localhost/Volumes/Michael's%20Passport/woodbdrigenov2011media/AntonyAgar026Subclipb</pathurl>
						<rate>
							<timebase>25</timebase>
						</rate>
						<duration>374</duration>
						<metadata>
							<storage>QuickTime</storage>
							<key>com.apple.finalcutstudio.media.uuid</key>
							<size>36</size>
							<type>UTF8</type>
							<value>EFC57411-BEA7-4DD7-A252-42722254CB02</value>
						</metadata>
						<metadata>
							<storage>QuickTime</storage>
							<key>com.apple.finalcutstudio.media.history.uuid</key>
							<size>36</size>
							<type>UTF8</type>
							<value>4012588A-392E-4FEA-BA38-0161B1781A8E</value>
						</metadata>
						<timecode>
							<rate>
								<timebase>25</timebase>
							</rate>
							<string>00:00:07:10</string>
							<frame>185</frame>
							<displayformat>NDF</displayformat>
							<source>source</source>
							<reel>
								<name>AnthonyAgar</name>
							</reel>
						</timecode>
						<media>
							<video>
								<duration>374</duration>
								<samplecharacteristics>
									<width>1280</width>
									<height>720</height>
								</samplecharacteristics>
							</video>
							<audio>
								<samplecharacteristics>
									<samplerate>48000</samplerate>
									<depth>16</depth>
								</samplecharacteristics>
								<channelcount>2</channelcount>
								<layout>stereo</layout>
								<audiochannel>
									<sourcechannel>1</sourcechannel>
									<channellabel>left</channellabel>
								</audiochannel>
								<audiochannel>
									<sourcechannel>2</sourcechannel>
									<channellabel>right</channellabel>
								</audiochannel>
							</audio>
						</media>
					</file>
					<sourcetrack>
						<mediatype>video</mediatype>
					</sourcetrack>
					<fielddominance>none</fielddominance>
					<itemhistory>
						<uuid>2ECB6596-C685-43C1-A3EE-91EB94C2A9F8</uuid>
						<uuid>AC9A5C87-C131-4219-8B06-53EF971AB8F6</uuid>
					</itemhistory>
				</clipitem>
				<clipitem id="AntonyAgar026Subclipc">
					<name>AntonyAgar026Subclipc</name>
					<duration>162</duration>
					<rate>
						<ntsc>FALSE</ntsc>
						<timebase>25</timebase>
					</rate>
					<in>0</in>
					<out>162</out>
					<start>110552</start>
					<end>110714</end>
					<pixelaspectratio>Square</pixelaspectratio>
					<anamorphic>FALSE</anamorphic>
					<alphatype>none</alphatype>
					<logginginfo>
						<scene/>
						<shottake/>
						<lognote/>
						<good>FALSE</good>
					</logginginfo>
					<labels>
						<label2/>
					</labels>
					<comments>
						<mastercomment1/>
						<mastercomment2/>
						<mastercomment3/>
						<mastercomment4/>
					</comments>
					<file id="AntonyAgar026Subclipc1">
						<name>AntonyAgar026Subclipc</name>
						<pathurl>file://localhost/Volumes/Michael's%20Passport/woodbdrigenov2011media/AntonyAgar026Subclipc</pathurl>
						<rate>
							<timebase>25</timebase>
						</rate>
						<duration>162</duration>
						<metadata>
							<storage>QuickTime</storage>
							<key>com.apple.finalcutstudio.media.uuid</key>
							<size>36</size>
							<type>UTF8</type>
							<value>81744890-6DC4-41EE-B708-FC82238A5FD0</value>
						</metadata>
						<metadata>
							<storage>QuickTime</storage>
							<key>com.apple.finalcutstudio.media.history.uuid</key>
							<size>36</size>
							<type>UTF8</type>
							<value>4012588A-392E-4FEA-BA38-0161B1781A8E</value>
						</metadata>
						<timecode>
							<rate>
								<timebase>25</timebase>
							</rate>
							<string>00:00:22:08</string>
							<frame>558</frame>
							<displayformat>NDF</displayformat>
							<source>source</source>
							<reel>
								<name>AnthonyAgar</name>
							</reel>
						</timecode>
						<media>
							<video>
								<duration>162</duration>
								<samplecharacteristics>
									<width>1280</width>
									<height>720</height>
								</samplecharacteristics>
							</video>
							<audio>
								<samplecharacteristics>
									<samplerate>48000</samplerate>
									<depth>16</depth>
								</samplecharacteristics>
								<channelcount>2</channelcount>
								<layout>stereo</layout>
								<audiochannel>
									<sourcechannel>1</sourcechannel>
									<channellabel>left</channellabel>
								</audiochannel>
								<audiochannel>
									<sourcechannel>2</sourcechannel>
									<channellabel>right</channellabel>
								</audiochannel>
							</audio>
						</media>
					</file>
					<sourcetrack>
						<mediatype>video</mediatype>
					</sourcetrack>
					<fielddominance>none</fielddominance>
					<itemhistory>
						<uuid>E85F5BE7-975A-481E-83AC-912505E45644</uuid>
						<uuid>A49E9E21-E668-479B-8810-759E2478DF51</uuid>
					</itemhistory>
				</clipitem>
				<clipitem id="AntonyAgar026Subclipd">
					<name>AntonyAgar026Subclipd</name>
					<duration>342</duration>
					<rate>
						<ntsc>FALSE</ntsc>
						<timebase>25</timebase>
					</rate>
					<in>0</in>
					<out>342</out>
					<start>110905</start>
					<end>111247</end>
					<pixelaspectratio>Square</pixelaspectratio>
					<anamorphic>FALSE</anamorphic>
					<alphatype>none</alphatype>
					<logginginfo>
						<scene/>
						<shottake/>
						<lognote/>
						<good>FALSE</good>
					</logginginfo>
					<labels>
						<label2/>
					</labels>
					<comments>
						<mastercomment1/>
						<mastercomment2/>
						<mastercomment3/>
						<mastercomment4/>
					</comments>
					<file id="AntonyAgar026Subclipd1">
						<name>AntonyAgar026Subclipd</name>
						<pathurl>file://localhost/Volumes/Michael's%20Passport/woodbdrigenov2011media/AntonyAgar026Subclipd</pathurl>
						<rate>
							<timebase>25</timebase>
						</rate>
						<duration>342</duration>
						<metadata>
							<storage>QuickTime</storage>
							<key>com.apple.finalcutstudio.media.uuid</key>
							<size>36</size>
							<type>UTF8</type>
							<value>667618A2-E15C-4589-822C-CC79CDA10CA0</value>
						</metadata>
						<metadata>
							<storage>QuickTime</storage>
							<key>com.apple.finalcutstudio.media.history.uuid</key>
							<size>36</size>
							<type>UTF8</type>
							<value>4012588A-392E-4FEA-BA38-0161B1781A8E</value>
						</metadata>
						<timecode>
							<rate>
								<timebase>25</timebase>
							</rate>
							<string>00:00:36:11</string>
							<frame>911</frame>
							<displayformat>NDF</displayformat>
							<source>source</source>
							<reel>
								<name>AnthonyAgar</name>
							</reel>
						</timecode>
						<media>
							<video>
								<duration>342</duration>
								<samplecharacteristics>
									<width>1280</width>
									<height>720</height>
								</samplecharacteristics>
							</video>
							<audio>
								<samplecharacteristics>
									<samplerate>48000</samplerate>
									<depth>16</depth>
								</samplecharacteristics>
								<channelcount>2</channelcount>
								<layout>stereo</layout>
								<audiochannel>
									<sourcechannel>1</sourcechannel>
									<channellabel>left</channellabel>
								</audiochannel>
								<audiochannel>
									<sourcechannel>2</sourcechannel>
									<channellabel>right</channellabel>
								</audiochannel>
							</audio>
						</media>
					</file>
					<sourcetrack>
						<mediatype>video</mediatype>
					</sourcetrack>
					<fielddominance>none</fielddominance>
					<itemhistory>
						<uuid>216EA30A-E7A7-4F4A-8CF0-199CF8F0EFC3</uuid>
						<uuid>6DBA25E5-D544-48C4-8420-43F8F47A0BA3</uuid>
					</itemhistory>
				</clipitem>
				<clipitem id="AntonyAgar026Subclipe">
					<name>AntonyAgar026Subclipe</name>
					<duration>173</duration>
					<rate>
						<ntsc>FALSE</ntsc>
						<timebase>25</timebase>
					</rate>
					<in>0</in>
					<out>173</out>
					<start>111705</start>
					<end>111878</end>
					<pixelaspectratio>Square</pixelaspectratio>
					<anamorphic>FALSE</anamorphic>
					<alphatype>none</alphatype>
					<logginginfo>
						<scene/>
						<shottake/>
						<lognote/>
						<good>FALSE</good>
					</logginginfo>
					<labels>
						<label2/>
					</labels>
					<comments>
						<mastercomment1/>
						<mastercomment2/>
						<mastercomment3/>
						<mastercomment4/>
					</comments>
					<file id="AntonyAgar026Subclipe1">
						<name>AntonyAgar026Subclipe</name>
						<pathurl>file://localhost/Volumes/Michael's%20Passport/woodbdrigenov2011media/AntonyAgar026Subclipe</pathurl>
						<rate>
							<timebase>25</timebase>
						</rate>
						<duration>173</duration>
						<metadata>
							<storage>QuickTime</storage>
							<key>com.apple.finalcutstudio.media.uuid</key>
							<size>36</size>
							<type>UTF8</type>
							<value>9521D904-E022-4249-AA44-2B751E27B8E6</value>
						</metadata>
						<metadata>
							<storage>QuickTime</storage>
							<key>com.apple.finalcutstudio.media.history.uuid</key>
							<size>36</size>
							<type>UTF8</type>
							<value>4012588A-392E-4FEA-BA38-0161B1781A8E</value>
						</metadata>
						<timecode>
							<rate>
								<timebase>25</timebase>
							</rate>
							<string>00:01:08:11</string>
							<frame>1711</frame>
							<displayformat>NDF</displayformat>
							<source>source</source>
							<reel>
								<name>AnthonyAgar</name>
							</reel>
						</timecode>
						<media>
							<video>
								<duration>173</duration>
								<samplecharacteristics>
									<width>1280</width>
									<height>720</height>
								</samplecharacteristics>
							</video>
							<audio>
								<samplecharacteristics>
									<samplerate>48000</samplerate>
									<depth>16</depth>
								</samplecharacteristics>
								<channelcount>2</channelcount>
								<layout>stereo</layout>
								<audiochannel>
									<sourcechannel>1</sourcechannel>
									<channellabel>left</channellabel>
								</audiochannel>
								<audiochannel>
									<sourcechannel>2</sourcechannel>
									<channellabel>right</channellabel>
								</audiochannel>
							</audio>
						</media>
					</file>
					<sourcetrack>
						<mediatype>video</mediatype>
					</sourcetrack>
					<fielddominance>none</fielddominance>
					<itemhistory>
						<uuid>F3ADB039-6195-47C7-ADE9-8FAAA30CBEC1</uuid>
						<uuid>60CF9E38-B9E1-4A8A-8EEF-3A3F010ABCC5</uuid>
					</itemhistory>
				</clipitem>
				<clipitem id="AntonyAgar027Subclipa">
					<name>AntonyAgar027Subclipa</name>
					<duration>398</duration>
					<rate>
						<ntsc>FALSE</ntsc>
						<timebase>25</timebase>
					</rate>
					<in>0</in>
					<out>398</out>
					<start>126272</start>
					<end>126670</end>
					<pixelaspectratio>Square</pixelaspectratio>
					<anamorphic>FALSE</anamorphic>
					<alphatype>none</alphatype>
					<logginginfo>
						<scene/>
						<shottake/>
						<lognote/>
						<good>FALSE</good>
					</logginginfo>
					<labels>
						<label2/>
					</labels>
					<comments>
						<mastercomment1/>
						<mastercomment2/>
						<mastercomment3/>
						<mastercomment4/>
					</comments>
					<file id="AntonyAgar027Subclipa1">
						<name>AntonyAgar027Subclipa</name>
						<pathurl>file://localhost/Volumes/Michael's%20Passport/woodbdrigenov2011media/AntonyAgar027Subclipa</pathurl>
						<rate>
							<timebase>25</timebase>
						</rate>
						<duration>398</duration>
						<metadata>
							<storage>QuickTime</storage>
							<key>com.apple.finalcutstudio.media.uuid</key>
							<size>36</size>
							<type>UTF8</type>
							<value>472C7704-2778-4DE0-852B-FC42DE67BF4D</value>
						</metadata>
						<metadata>
							<storage>QuickTime</storage>
							<key>com.apple.finalcutstudio.media.history.uuid</key>
							<size>36</size>
							<type>UTF8</type>
							<value>62894363-06DF-40BA-BEE3-81A3EDFF34B5</value>
						</metadata>
						<timecode>
							<rate>
								<timebase>25</timebase>
							</rate>
							<string>00:00:00:00</string>
							<frame>0</frame>
							<displayformat>NDF</displayformat>
							<source>source</source>
							<reel>
								<name>AnthonyAgar</name>
							</reel>
						</timecode>
						<media>
							<video>
								<duration>398</duration>
								<samplecharacteristics>
									<width>1280</width>
									<height>720</height>
								</samplecharacteristics>
							</video>
							<audio>
								<samplecharacteristics>
									<samplerate>48000</samplerate>
									<depth>16</depth>
								</samplecharacteristics>
								<channelcount>2</channelcount>
								<layout>stereo</layout>
								<audiochannel>
									<sourcechannel>1</sourcechannel>
									<channellabel>left</channellabel>
								</audiochannel>
								<audiochannel>
									<sourcechannel>2</sourcechannel>
									<channellabel>right</channellabel>
								</audiochannel>
							</audio>
						</media>
					</file>
					<sourcetrack>
						<mediatype>video</mediatype>
					</sourcetrack>
					<fielddominance>none</fielddominance>
					<itemhistory>
						<uuid>4BEE4D70-9459-46AE-AC8A-0C29E014FE9A</uuid>
						<uuid>B56459CC-3ED7-406D-93CD-7197EF566241</uuid>
					</itemhistory>
				</clipitem>
				<clipitem id="AntonyAgar027Subclipb">
					<name>AntonyAgar027Subclipb</name>
					<duration>403</duration>
					<rate>
						<ntsc>FALSE</ntsc>
						<timebase>25</timebase>
					</rate>
					<in>0</in>
					<out>403</out>
					<start>126962</start>
					<end>127365</end>
					<pixelaspectratio>Square</pixelaspectratio>
					<anamorphic>FALSE</anamorphic>
					<alphatype>none</alphatype>
					<logginginfo>
						<scene/>
						<shottake/>
						<lognote/>
						<good>FALSE</good>
					</logginginfo>
					<labels>
						<label2/>
					</labels>
					<comments>
						<mastercomment1/>
						<mastercomment2/>
						<mastercomment3/>
						<mastercomment4/>
					</comments>
					<file id="AntonyAgar027Subclipb1">
						<name>AntonyAgar027Subclipb</name>
						<pathurl>file://localhost/Volumes/Michael's%20Passport/woodbdrigenov2011media/AntonyAgar027Subclipb</pathurl>
						<rate>
							<timebase>25</timebase>
						</rate>
						<duration>403</duration>
						<metadata>
							<storage>QuickTime</storage>
							<key>com.apple.finalcutstudio.media.uuid</key>
							<size>36</size>
							<type>UTF8</type>
							<value>98A93346-FDB0-43E2-A7E1-7BD47129B54C</value>
						</metadata>
						<metadata>
							<storage>QuickTime</storage>
							<key>com.apple.finalcutstudio.media.history.uuid</key>
							<size>36</size>
							<type>UTF8</type>
							<value>62894363-06DF-40BA-BEE3-81A3EDFF34B5</value>
						</metadata>
						<timecode>
							<rate>
								<timebase>25</timebase>
							</rate>
							<string>00:00:27:15</string>
							<frame>690</frame>
							<displayformat>NDF</displayformat>
							<source>source</source>
							<reel>
								<name>AnthonyAgar</name>
							</reel>
						</timecode>
						<media>
							<video>
								<duration>403</duration>
								<samplecharacteristics>
									<width>1280</width>
									<height>720</height>
								</samplecharacteristics>
							</video>
							<audio>
								<samplecharacteristics>
									<samplerate>48000</samplerate>
									<depth>16</depth>
								</samplecharacteristics>
								<channelcount>2</channelcount>
								<layout>stereo</layout>
								<audiochannel>
									<sourcechannel>1</sourcechannel>
									<channellabel>left</channellabel>
								</audiochannel>
								<audiochannel>
									<sourcechannel>2</sourcechannel>
									<channellabel>right</channellabel>
								</audiochannel>
							</audio>
						</media>
					</file>
					<sourcetrack>
						<mediatype>video</mediatype>
					</sourcetrack>
					<fielddominance>none</fielddominance>
					<itemhistory>
						<uuid>0E657ED4-05B8-4208-8FBD-9F5A8D6BF445</uuid>
						<uuid>AE7034F7-F55F-4C44-92A5-28B4F1CDA972</uuid>
					</itemhistory>
				</clipitem>
				<clipitem id="AntonyAgar027Subclipc">
					<name>AntonyAgar027Subclipc</name>
					<duration>730</duration>
					<rate>
						<ntsc>FALSE</ntsc>
						<timebase>25</timebase>
					</rate>
					<in>0</in>
					<out>730</out>
					<start>127402</start>
					<end>128132</end>
					<pixelaspectratio>Square</pixelaspectratio>
					<anamorphic>FALSE</anamorphic>
					<alphatype>none</alphatype>
					<logginginfo>
						<scene/>
						<shottake/>
						<lognote/>
						<good>FALSE</good>
					</logginginfo>
					<labels>
						<label2/>
					</labels>
					<comments>
						<mastercomment1/>
						<mastercomment2/>
						<mastercomment3/>
						<mastercomment4/>
					</comments>
					<file id="AntonyAgar027Subclipc1">
						<name>AntonyAgar027Subclipc</name>
						<pathurl>file://localhost/Volumes/Michael's%20Passport/woodbdrigenov2011media/AntonyAgar027Subclipc</pathurl>
						<rate>
							<timebase>25</timebase>
						</rate>
						<duration>730</duration>
						<metadata>
							<storage>QuickTime</storage>
							<key>com.apple.finalcutstudio.media.uuid</key>
							<size>36</size>
							<type>UTF8</type>
							<value>7DEE11DD-2ED3-4509-9468-C71A55C39839</value>
						</metadata>
						<metadata>
							<storage>QuickTime</storage>
							<key>com.apple.finalcutstudio.media.history.uuid</key>
							<size>36</size>
							<type>UTF8</type>
							<value>62894363-06DF-40BA-BEE3-81A3EDFF34B5</value>
						</metadata>
						<timecode>
							<rate>
								<timebase>25</timebase>
							</rate>
							<string>00:00:45:05</string>
							<frame>1130</frame>
							<displayformat>NDF</displayformat>
							<source>source</source>
							<reel>
								<name>AnthonyAgar</name>
							</reel>
						</timecode>
						<media>
							<video>
								<duration>730</duration>
								<samplecharacteristics>
									<width>1280</width>
									<height>720</height>
								</samplecharacteristics>
							</video>
							<audio>
								<samplecharacteristics>
									<samplerate>48000</samplerate>
									<depth>16</depth>
								</samplecharacteristics>
								<channelcount>2</channelcount>
								<layout>stereo</layout>
								<audiochannel>
									<sourcechannel>1</sourcechannel>
									<channellabel>left</channellabel>
								</audiochannel>
								<audiochannel>
									<sourcechannel>2</sourcechannel>
									<channellabel>right</channellabel>
								</audiochannel>
							</audio>
						</media>
					</file>
					<sourcetrack>
						<mediatype>video</mediatype>
					</sourcetrack>
					<fielddominance>none</fielddominance>
					<itemhistory>
						<uuid>B19F5380-4318-4CAD-8601-586B9A1DA1C3</uuid>
						<uuid>597E576C-F3CC-4137-A2DF-0D4FD80252E5</uuid>
					</itemhistory>
				</clipitem>
				<clipitem id="AntonyAgar027Subclipd">
					<name>AntonyAgar027Subclipd</name>
					<duration>690</duration>
					<rate>
						<ntsc>FALSE</ntsc>
						<timebase>25</timebase>
					</rate>
					<in>0</in>
					<out>689</out>
					<start>128254</start>
					<end>128943</end>
					<pixelaspectratio>Square</pixelaspectratio>
					<anamorphic>FALSE</anamorphic>
					<alphatype>none</alphatype>
					<logginginfo>
						<scene/>
						<shottake/>
						<lognote/>
						<good>FALSE</good>
					</logginginfo>
					<labels>
						<label2/>
					</labels>
					<comments>
						<mastercomment1/>
						<mastercomment2/>
						<mastercomment3/>
						<mastercomment4/>
					</comments>
					<file id="AntonyAgar027Subclipd1">
						<name>AntonyAgar027Subclipd</name>
						<pathurl>file://localhost/Volumes/Michael's%20Passport/woodbdrigenov2011media/AntonyAgar027Subclipd</pathurl>
						<rate>
							<timebase>25</timebase>
						</rate>
						<duration>690</duration>
						<metadata>
							<storage>QuickTime</storage>
							<key>com.apple.finalcutstudio.media.uuid</key>
							<size>36</size>
							<type>UTF8</type>
							<value>A739B3DB-8DC0-4E74-8587-EDA11BB60164</value>
						</metadata>
						<metadata>
							<storage>QuickTime</storage>
							<key>com.apple.finalcutstudio.media.history.uuid</key>
							<size>36</size>
							<type>UTF8</type>
							<value>62894363-06DF-40BA-BEE3-81A3EDFF34B5</value>
						</metadata>
						<timecode>
							<rate>
								<timebase>25</timebase>
							</rate>
							<string>00:01:19:06</string>
							<frame>1981</frame>
							<displayformat>NDF</displayformat>
							<source>source</source>
							<reel>
								<name>AnthonyAgar</name>
							</reel>
						</timecode>
						<media>
							<video>
								<duration>690</duration>
								<samplecharacteristics>
									<width>1280</width>
									<height>720</height>
								</samplecharacteristics>
							</video>
							<audio>
								<samplecharacteristics>
									<samplerate>48000</samplerate>
									<depth>16</depth>
								</samplecharacteristics>
								<channelcount>2</channelcount>
								<layout>stereo</layout>
								<audiochannel>
									<sourcechannel>1</sourcechannel>
									<channellabel>left</channellabel>
								</audiochannel>
								<audiochannel>
									<sourcechannel>2</sourcechannel>
									<channellabel>right</channellabel>
								</audiochannel>
							</audio>
						</media>
					</file>
					<sourcetrack>
						<mediatype>video</mediatype>
					</sourcetrack>
					<fielddominance>none</fielddominance>
					<itemhistory>
						<uuid>58B7FE41-B4A8-4F8E-9694-466775C7B441</uuid>
						<uuid>0CD125BD-228C-463E-862D-15B4FCB4CCA2</uuid>
					</itemhistory>
				</clipitem>
				<clipitem id="AntonyAgar027Subclipe">
					<name>AntonyAgar027Subclipe</name>
					<duration>450</duration>
					<rate>
						<ntsc>FALSE</ntsc>
						<timebase>25</timebase>
					</rate>
					<in>0</in>
					<out>450</out>
					<start>129020</start>
					<end>129470</end>
					<pixelaspectratio>Square</pixelaspectratio>
					<anamorphic>FALSE</anamorphic>
					<alphatype>none</alphatype>
					<logginginfo>
						<scene/>
						<shottake/>
						<lognote/>
						<good>FALSE</good>
					</logginginfo>
					<labels>
						<label2/>
					</labels>
					<comments>
						<mastercomment1/>
						<mastercomment2/>
						<mastercomment3/>
						<mastercomment4/>
					</comments>
					<file id="AntonyAgar027Subclipe1">
						<name>AntonyAgar027Subclipe</name>
						<pathurl>file://localhost/Volumes/Michael's%20Passport/woodbdrigenov2011media/AntonyAgar027Subclipe</pathurl>
						<rate>
							<timebase>25</timebase>
						</rate>
						<duration>450</duration>
						<metadata>
							<storage>QuickTime</storage>
							<key>com.apple.finalcutstudio.media.uuid</key>
							<size>36</size>
							<type>UTF8</type>
							<value>D0E5CA94-490F-488C-AFD6-40A195FFDD4B</value>
						</metadata>
						<metadata>
							<storage>QuickTime</storage>
							<key>com.apple.finalcutstudio.media.history.uuid</key>
							<size>36</size>
							<type>UTF8</type>
							<value>62894363-06DF-40BA-BEE3-81A3EDFF34B5</value>
						</metadata>
						<timecode>
							<rate>
								<timebase>25</timebase>
							</rate>
							<string>00:01:49:22</string>
							<frame>2747</frame>
							<displayformat>NDF</displayformat>
							<source>source</source>
							<reel>
								<name>AnthonyAgar</name>
							</reel>
						</timecode>
						<media>
							<video>
								<duration>450</duration>
								<samplecharacteristics>
									<width>1280</width>
									<height>720</height>
								</samplecharacteristics>
							</video>
							<audio>
								<samplecharacteristics>
									<samplerate>48000</samplerate>
									<depth>16</depth>
								</samplecharacteristics>
								<channelcount>2</channelcount>
								<layout>stereo</layout>
								<audiochannel>
									<sourcechannel>1</sourcechannel>
									<channellabel>left</channellabel>
								</audiochannel>
								<audiochannel>
									<sourcechannel>2</sourcechannel>
									<channellabel>right</channellabel>
								</audiochannel>
							</audio>
						</media>
					</file>
					<sourcetrack>
						<mediatype>video</mediatype>
					</sourcetrack>
					<fielddominance>none</fielddominance>
					<itemhistory>
						<uuid>FEEBFEF3-FE3B-44A7-BB02-AF37F370BE1B</uuid>
						<uuid>64B1115D-4BDE-4E63-A26F-35F6357D1017</uuid>
					</itemhistory>
				</clipitem>
				<clipitem id="AntonyAgar027Subclipf">
					<name>AntonyAgar027Subclipf</name>
					<duration>215</duration>
					<rate>
						<ntsc>FALSE</ntsc>
						<timebase>25</timebase>
					</rate>
					<in>0</in>
					<out>214</out>
					<start>129513</start>
					<end>129727</end>
					<pixelaspectratio>Square</pixelaspectratio>
					<anamorphic>FALSE</anamorphic>
					<alphatype>none</alphatype>
					<logginginfo>
						<scene/>
						<shottake/>
						<lognote/>
						<good>FALSE</good>
					</logginginfo>
					<labels>
						<label2/>
					</labels>
					<comments>
						<mastercomment1/>
						<mastercomment2/>
						<mastercomment3/>
						<mastercomment4/>
					</comments>
					<file id="AntonyAgar027Subclipf1">
						<name>AntonyAgar027Subclipf</name>
						<pathurl>file://localhost/Volumes/Michael's%20Passport/woodbdrigenov2011media/AntonyAgar027Subclipf</pathurl>
						<rate>
							<timebase>25</timebase>
						</rate>
						<duration>215</duration>
						<metadata>
							<storage>QuickTime</storage>
							<key>com.apple.finalcutstudio.media.uuid</key>
							<size>36</size>
							<type>UTF8</type>
							<value>01955D17-0E4F-41D4-9C71-675207EFB115</value>
						</metadata>
						<metadata>
							<storage>QuickTime</storage>
							<key>com.apple.finalcutstudio.media.history.uuid</key>
							<size>36</size>
							<type>UTF8</type>
							<value>62894363-06DF-40BA-BEE3-81A3EDFF34B5</value>
						</metadata>
						<timecode>
							<rate>
								<timebase>25</timebase>
							</rate>
							<string>00:02:09:16</string>
							<frame>3241</frame>
							<displayformat>NDF</displayformat>
							<source>source</source>
							<reel>
								<name>AnthonyAgar</name>
							</reel>
						</timecode>
						<media>
							<video>
								<duration>215</duration>
								<samplecharacteristics>
									<width>1280</width>
									<height>720</height>
								</samplecharacteristics>
							</video>
							<audio>
								<samplecharacteristics>
									<samplerate>48000</samplerate>
									<depth>16</depth>
								</samplecharacteristics>
								<channelcount>2</channelcount>
								<layout>stereo</layout>
								<audiochannel>
									<sourcechannel>1</sourcechannel>
									<channellabel>left</channellabel>
								</audiochannel>
								<audiochannel>
									<sourcechannel>2</sourcechannel>
									<channellabel>right</channellabel>
								</audiochannel>
							</audio>
						</media>
					</file>
					<sourcetrack>
						<mediatype>video</mediatype>
					</sourcetrack>
					<fielddominance>none</fielddominance>
					<itemhistory>
						<uuid>444A8803-5351-41B2-B150-151A274A4A65</uuid>
						<uuid>6CEE2D5D-B738-458E-B073-29B6BE243E43</uuid>
					</itemhistory>
				</clipitem>
				<enabled>TRUE</enabled>
				<locked>FALSE</locked>
			</track>
			<track>
				<clipitem id="GoldsboroughOllieGrandad001Subclipa">
					<name>GoldsboroughOllieGrandad001Subclipa</name>
					<duration>116</duration>
					<rate>
						<ntsc>FALSE</ntsc>
						<timebase>25</timebase>
					</rate>
					<in>0</in>
					<out>116</out>
					<start>10107</start>
					<end>10223</end>
					<pixelaspectratio>Square</pixelaspectratio>
					<anamorphic>FALSE</anamorphic>
					<alphatype>none</alphatype>
					<logginginfo>
						<scene/>
						<shottake/>
						<lognote/>
						<good>FALSE</good>
					</logginginfo>
					<labels>
						<label2/>
					</labels>
					<comments>
						<mastercomment1/>
						<mastercomment2/>
						<mastercomment3/>
						<mastercomment4/>
					</comments>
					<file id="GoldsboroughOllieGrandad001Subclipa1">
						<name>GoldsboroughOllieGrandad001Subclipa</name>
						<pathurl>file://localhost/Volumes/Michael's%20Passport/woodbdrigenov2011media/GoldsboroughOllieGrandad001Subclipa</pathurl>
						<rate>
							<timebase>25</timebase>
						</rate>
						<duration>116</duration>
						<metadata>
							<storage>QuickTime</storage>
							<key>com.apple.finalcutstudio.media.uuid</key>
							<size>36</size>
							<type>UTF8</type>
							<value>C643DCC8-1E6A-4A16-89D1-7751A42EA006</value>
						</metadata>
						<metadata>
							<storage>QuickTime</storage>
							<key>com.apple.finalcutstudio.media.history.uuid</key>
							<size>36</size>
							<type>UTF8</type>
							<value>6279B1EF-8C9E-4D4D-BF54-097FEC230E14</value>
						</metadata>
						<timecode>
							<rate>
								<timebase>25</timebase>
							</rate>
							<string>00:00:00:00</string>
							<frame>0</frame>
							<displayformat>NDF</displayformat>
							<source>source</source>
							<reel>
								<name>Goldsbrough Ollie Grandad</name>
							</reel>
						</timecode>
						<media>
							<video>
								<duration>116</duration>
								<samplecharacteristics>
									<width>1280</width>
									<height>720</height>
								</samplecharacteristics>
							</video>
							<audio>
								<samplecharacteristics>
									<samplerate>48000</samplerate>
									<depth>16</depth>
								</samplecharacteristics>
								<channelcount>2</channelcount>
								<layout>stereo</layout>
								<audiochannel>
									<sourcechannel>1</sourcechannel>
									<channellabel>left</channellabel>
								</audiochannel>
								<audiochannel>
									<sourcechannel>2</sourcechannel>
									<channellabel>right</channellabel>
								</audiochannel>
							</audio>
						</media>
					</file>
					<sourcetrack>
						<mediatype>video</mediatype>
					</sourcetrack>
					<link>
						<linkclipref>GoldsboroughOllieGrandad001Subclipa</linkclipref>
						<mediatype>video</mediatype>
						<trackindex>9</trackindex>
						<clipindex>1</clipindex>
					</link>
					<link>
						<linkclipref>GoldsboroughOllieGrandad001Subclipa2</linkclipref>
						<mediatype>audio</mediatype>
						<trackindex>15</trackindex>
						<clipindex>1</clipindex>
						<groupindex>1</groupindex>
					</link>
					<link>
						<linkclipref>GoldsboroughOllieGrandad001Subclipa3</linkclipref>
						<mediatype>audio</mediatype>
						<trackindex>16</trackindex>
						<clipindex>1</clipindex>
						<groupindex>1</groupindex>
					</link>
					<fielddominance>none</fielddominance>
					<itemhistory>
						<uuid>CB67FFEB-426C-4244-9BC3-8C35D7F31533</uuid>
						<uuid>40BD1BFC-2BC2-4276-952D-DEF6AFC8BD7E</uuid>
					</itemhistory>
				</clipitem>
				<clipitem id="GoldsboroughOllieGrandad001Subclipb">
					<name>GoldsboroughOllieGrandad001Subclipb</name>
					<duration>208</duration>
					<rate>
						<ntsc>FALSE</ntsc>
						<timebase>25</timebase>
					</rate>
					<in>0</in>
					<out>208</out>
					<start>10223</start>
					<end>10431</end>
					<pixelaspectratio>Square</pixelaspectratio>
					<anamorphic>FALSE</anamorphic>
					<alphatype>none</alphatype>
					<logginginfo>
						<scene/>
						<shottake/>
						<lognote/>
						<good>FALSE</good>
					</logginginfo>
					<labels>
						<label2/>
					</labels>
					<comments>
						<mastercomment1/>
						<mastercomment2/>
						<mastercomment3/>
						<mastercomment4/>
					</comments>
					<file id="GoldsboroughOllieGrandad001Subclipb1">
						<name>GoldsboroughOllieGrandad001Subclipb</name>
						<pathurl>file://localhost/Volumes/Michael's%20Passport/woodbdrigenov2011media/GoldsboroughOllieGrandad001Subclipb</pathurl>
						<rate>
							<timebase>25</timebase>
						</rate>
						<duration>208</duration>
						<metadata>
							<storage>QuickTime</storage>
							<key>com.apple.finalcutstudio.media.uuid</key>
							<size>36</size>
							<type>UTF8</type>
							<value>126FF173-B010-48BA-B133-7148C0456243</value>
						</metadata>
						<metadata>
							<storage>QuickTime</storage>
							<key>com.apple.finalcutstudio.media.history.uuid</key>
							<size>36</size>
							<type>UTF8</type>
							<value>6279B1EF-8C9E-4D4D-BF54-097FEC230E14</value>
						</metadata>
						<timecode>
							<rate>
								<timebase>25</timebase>
							</rate>
							<string>00:00:07:21</string>
							<frame>196</frame>
							<displayformat>NDF</displayformat>
							<source>source</source>
							<reel>
								<name>Goldsbrough Ollie Grandad</name>
							</reel>
						</timecode>
						<media>
							<video>
								<duration>208</duration>
								<samplecharacteristics>
									<width>1280</width>
									<height>720</height>
								</samplecharacteristics>
							</video>
							<audio>
								<samplecharacteristics>
									<samplerate>48000</samplerate>
									<depth>16</depth>
								</samplecharacteristics>
								<channelcount>2</channelcount>
								<layout>stereo</layout>
								<audiochannel>
									<sourcechannel>1</sourcechannel>
									<channellabel>left</channellabel>
								</audiochannel>
								<audiochannel>
									<sourcechannel>2</sourcechannel>
									<channellabel>right</channellabel>
								</audiochannel>
							</audio>
						</media>
					</file>
					<sourcetrack>
						<mediatype>video</mediatype>
					</sourcetrack>
					<link>
						<linkclipref>GoldsboroughOllieGrandad001Subclipb</linkclipref>
						<mediatype>video</mediatype>
						<trackindex>9</trackindex>
						<clipindex>2</clipindex>
					</link>
					<link>
						<linkclipref>GoldsboroughOllieGrandad001Subclipb2</linkclipref>
						<mediatype>audio</mediatype>
						<trackindex>15</trackindex>
						<clipindex>2</clipindex>
						<groupindex>1</groupindex>
					</link>
					<link>
						<linkclipref>GoldsboroughOllieGrandad001Subclipb3</linkclipref>
						<mediatype>audio</mediatype>
						<trackindex>16</trackindex>
						<clipindex>2</clipindex>
						<groupindex>1</groupindex>
					</link>
					<fielddominance>none</fielddominance>
					<itemhistory>
						<uuid>B2E3B57A-EEA2-4E02-A005-42F1C1B6FF72</uuid>
						<uuid>58895DF6-3FF5-4A97-8937-F24CDF11BD96</uuid>
					</itemhistory>
				</clipitem>
				<clipitem id="GoldsboroughOllieGrandad001Subclipc">
					<name>GoldsboroughOllieGrandad001Subclipc</name>
					<duration>247</duration>
					<rate>
						<ntsc>FALSE</ntsc>
						<timebase>25</timebase>
					</rate>
					<in>0</in>
					<out>247</out>
					<start>10431</start>
					<end>10678</end>
					<pixelaspectratio>Square</pixelaspectratio>
					<anamorphic>FALSE</anamorphic>
					<alphatype>none</alphatype>
					<logginginfo>
						<scene/>
						<shottake/>
						<lognote/>
						<good>FALSE</good>
					</logginginfo>
					<labels>
						<label2/>
					</labels>
					<comments>
						<mastercomment1/>
						<mastercomment2/>
						<mastercomment3/>
						<mastercomment4/>
					</comments>
					<file id="GoldsboroughOllieGrandad001Subclipc1">
						<name>GoldsboroughOllieGrandad001Subclipc</name>
						<pathurl>file://localhost/Volumes/Michael's%20Passport/woodbdrigenov2011media/GoldsboroughOllieGrandad001Subclipc</pathurl>
						<rate>
							<timebase>25</timebase>
						</rate>
						<duration>247</duration>
						<metadata>
							<storage>QuickTime</storage>
							<key>com.apple.finalcutstudio.media.uuid</key>
							<size>36</size>
							<type>UTF8</type>
							<value>6521D80A-4123-4155-920E-3B818579A847</value>
						</metadata>
						<metadata>
							<storage>QuickTime</storage>
							<key>com.apple.finalcutstudio.media.history.uuid</key>
							<size>36</size>
							<type>UTF8</type>
							<value>6279B1EF-8C9E-4D4D-BF54-097FEC230E14</value>
						</metadata>
						<timecode>
							<rate>
								<timebase>25</timebase>
							</rate>
							<string>00:00:29:20</string>
							<frame>745</frame>
							<displayformat>NDF</displayformat>
							<source>source</source>
							<reel>
								<name>Goldsbrough Ollie Grandad</name>
							</reel>
						</timecode>
						<media>
							<video>
								<duration>247</duration>
								<samplecharacteristics>
									<width>1280</width>
									<height>720</height>
								</samplecharacteristics>
							</video>
							<audio>
								<samplecharacteristics>
									<samplerate>48000</samplerate>
									<depth>16</depth>
								</samplecharacteristics>
								<channelcount>2</channelcount>
								<layout>stereo</layout>
								<audiochannel>
									<sourcechannel>1</sourcechannel>
									<channellabel>left</channellabel>
								</audiochannel>
								<audiochannel>
									<sourcechannel>2</sourcechannel>
									<channellabel>right</channellabel>
								</audiochannel>
							</audio>
						</media>
					</file>
					<sourcetrack>
						<mediatype>video</mediatype>
					</sourcetrack>
					<link>
						<linkclipref>GoldsboroughOllieGrandad001Subclipc</linkclipref>
						<mediatype>video</mediatype>
						<trackindex>9</trackindex>
						<clipindex>3</clipindex>
					</link>
					<link>
						<linkclipref>GoldsboroughOllieGrandad001Subclipc2</linkclipref>
						<mediatype>audio</mediatype>
						<trackindex>15</trackindex>
						<clipindex>3</clipindex>
						<groupindex>1</groupindex>
					</link>
					<link>
						<linkclipref>GoldsboroughOllieGrandad001Subclipc3</linkclipref>
						<mediatype>audio</mediatype>
						<trackindex>16</trackindex>
						<clipindex>3</clipindex>
						<groupindex>1</groupindex>
					</link>
					<fielddominance>none</fielddominance>
					<itemhistory>
						<uuid>9A1D8F15-2DFE-4EBA-8425-F2C189C0546F</uuid>
						<uuid>0E4A4CD8-D89F-4B8D-BFF1-E68002CD65D6</uuid>
					</itemhistory>
				</clipitem>
				<clipitem id="GoldsboroughOllieGrandad002Subclipa">
					<name>GoldsboroughOllieGrandad002Subclipa</name>
					<duration>190</duration>
					<rate>
						<ntsc>FALSE</ntsc>
						<timebase>25</timebase>
					</rate>
					<in>0</in>
					<out>190</out>
					<start>10678</start>
					<end>10868</end>
					<pixelaspectratio>Square</pixelaspectratio>
					<anamorphic>FALSE</anamorphic>
					<alphatype>none</alphatype>
					<logginginfo>
						<scene/>
						<shottake/>
						<lognote/>
						<good>FALSE</good>
					</logginginfo>
					<labels>
						<label2/>
					</labels>
					<comments>
						<mastercomment1/>
						<mastercomment2/>
						<mastercomment3/>
						<mastercomment4/>
					</comments>
					<file id="GoldsboroughOllieGrandad002Subclipa1">
						<name>GoldsboroughOllieGrandad002Subclipa</name>
						<pathurl>file://localhost/Volumes/Michael's%20Passport/woodbdrigenov2011media/GoldsboroughOllieGrandad002Subclipa</pathurl>
						<rate>
							<timebase>25</timebase>
						</rate>
						<duration>190</duration>
						<metadata>
							<storage>QuickTime</storage>
							<key>com.apple.finalcutstudio.media.uuid</key>
							<size>36</size>
							<type>UTF8</type>
							<value>AF60DC36-3A7C-4115-BEEF-63931E4D14D9</value>
						</metadata>
						<metadata>
							<storage>QuickTime</storage>
							<key>com.apple.finalcutstudio.media.history.uuid</key>
							<size>36</size>
							<type>UTF8</type>
							<value>F4DC8EEE-CBD6-48F8-9559-D3B514035AA4</value>
						</metadata>
						<timecode>
							<rate>
								<timebase>25</timebase>
							</rate>
							<string>00:00:16:05</string>
							<frame>405</frame>
							<displayformat>NDF</displayformat>
							<source>source</source>
							<reel>
								<name>Goldsbrough Ollie Grandad</name>
							</reel>
						</timecode>
						<media>
							<video>
								<duration>190</duration>
								<samplecharacteristics>
									<width>1280</width>
									<height>720</height>
								</samplecharacteristics>
							</video>
							<audio>
								<samplecharacteristics>
									<samplerate>48000</samplerate>
									<depth>16</depth>
								</samplecharacteristics>
								<channelcount>2</channelcount>
								<layout>stereo</layout>
								<audiochannel>
									<sourcechannel>1</sourcechannel>
									<channellabel>left</channellabel>
								</audiochannel>
								<audiochannel>
									<sourcechannel>2</sourcechannel>
									<channellabel>right</channellabel>
								</audiochannel>
							</audio>
						</media>
					</file>
					<sourcetrack>
						<mediatype>video</mediatype>
					</sourcetrack>
					<link>
						<linkclipref>GoldsboroughOllieGrandad002Subclipa</linkclipref>
						<mediatype>video</mediatype>
						<trackindex>9</trackindex>
						<clipindex>4</clipindex>
					</link>
					<link>
						<linkclipref>GoldsboroughOllieGrandad002Subclipa2</linkclipref>
						<mediatype>audio</mediatype>
						<trackindex>15</trackindex>
						<clipindex>4</clipindex>
						<groupindex>1</groupindex>
					</link>
					<link>
						<linkclipref>GoldsboroughOllieGrandad002Subclipa3</linkclipref>
						<mediatype>audio</mediatype>
						<trackindex>16</trackindex>
						<clipindex>4</clipindex>
						<groupindex>1</groupindex>
					</link>
					<fielddominance>none</fielddominance>
					<itemhistory>
						<uuid>82310D49-090A-4137-B54C-8514D4BC0F3B</uuid>
						<uuid>3C1F1D52-7B73-43E5-B615-55E783C14E03</uuid>
					</itemhistory>
				</clipitem>
				<clipitem id="GoldsboroughOllieGrandad003 ">
					<name>GoldsboroughOllieGrandad003</name>
					<duration>416</duration>
					<rate>
						<ntsc>FALSE</ntsc>
						<timebase>25</timebase>
					</rate>
					<in>0</in>
					<out>416</out>
					<start>10868</start>
					<end>11284</end>
					<pixelaspectratio>Square</pixelaspectratio>
					<anamorphic>FALSE</anamorphic>
					<alphatype>none</alphatype>
					<logginginfo>
						<scene/>
						<shottake/>
						<lognote/>
						<good>FALSE</good>
					</logginginfo>
					<labels>
						<label2/>
					</labels>
					<comments>
						<mastercomment1/>
						<mastercomment2/>
						<mastercomment3/>
						<mastercomment4/>
					</comments>
					<file id="GoldsboroughOllieGrandad003 1">
						<name>GoldsboroughOllieGrandad003</name>
						<pathurl>file://localhost/Volumes/Michael's%20Passport/woodbdrigenov2011media/GoldsboroughOllieGrandad003</pathurl>
						<rate>
							<timebase>25</timebase>
						</rate>
						<duration>416</duration>
						<metadata>
							<storage>QuickTime</storage>
							<key>com.apple.finalcutstudio.media.uuid</key>
							<size>36</size>
							<type>UTF8</type>
							<value>CD4FF556-C9BA-444A-BCED-34D70968AE4C</value>
						</metadata>
						<metadata>
							<storage>QuickTime</storage>
							<key>com.apple.finalcutstudio.media.history.uuid</key>
							<size>36</size>
							<type>UTF8</type>
							<value>30CF3862-39C7-4112-B229-E8F0DC5470E9</value>
						</metadata>
						<timecode>
							<rate>
								<timebase>25</timebase>
							</rate>
							<string>00:00:00:00</string>
							<frame>0</frame>
							<displayformat>NDF</displayformat>
							<source>source</source>
							<reel>
								<name>Goldsbrough Ollie Grandad</name>
							</reel>
						</timecode>
						<media>
							<video>
								<duration>416</duration>
								<samplecharacteristics>
									<width>1280</width>
									<height>720</height>
								</samplecharacteristics>
							</video>
							<audio>
								<samplecharacteristics>
									<samplerate>48000</samplerate>
									<depth>16</depth>
								</samplecharacteristics>
								<channelcount>2</channelcount>
								<layout>stereo</layout>
								<audiochannel>
									<sourcechannel>1</sourcechannel>
									<channellabel>left</channellabel>
								</audiochannel>
								<audiochannel>
									<sourcechannel>2</sourcechannel>
									<channellabel>right</channellabel>
								</audiochannel>
							</audio>
						</media>
					</file>
					<sourcetrack>
						<mediatype>video</mediatype>
					</sourcetrack>
					<link>
						<linkclipref>GoldsboroughOllieGrandad003 </linkclipref>
						<mediatype>video</mediatype>
						<trackindex>9</trackindex>
						<clipindex>5</clipindex>
					</link>
					<link>
						<linkclipref>GoldsboroughOllieGrandad003 2</linkclipref>
						<mediatype>audio</mediatype>
						<trackindex>15</trackindex>
						<clipindex>5</clipindex>
						<groupindex>1</groupindex>
					</link>
					<link>
						<linkclipref>GoldsboroughOllieGrandad003 3</linkclipref>
						<mediatype>audio</mediatype>
						<trackindex>16</trackindex>
						<clipindex>5</clipindex>
						<groupindex>1</groupindex>
					</link>
					<fielddominance>none</fielddominance>
					<itemhistory>
						<uuid>2040A199-4D87-4D47-8D4C-CD61692D2AD2</uuid>
						<uuid>4A63C1C7-1E52-489F-AE55-4A7E908CF20D</uuid>
					</itemhistory>
				</clipitem>
				<clipitem id="GoldsboroughOllieGrandad004Subclipa">
					<name>GoldsboroughOllieGrandad004Subclipa</name>
					<duration>112</duration>
					<rate>
						<ntsc>FALSE</ntsc>
						<timebase>25</timebase>
					</rate>
					<in>0</in>
					<out>112</out>
					<start>11284</start>
					<end>11396</end>
					<pixelaspectratio>Square</pixelaspectratio>
					<anamorphic>FALSE</anamorphic>
					<alphatype>none</alphatype>
					<logginginfo>
						<scene/>
						<shottake/>
						<lognote/>
						<good>FALSE</good>
					</logginginfo>
					<labels>
						<label2/>
					</labels>
					<comments>
						<mastercomment1/>
						<mastercomment2/>
						<mastercomment3/>
						<mastercomment4/>
					</comments>
					<file id="GoldsboroughOllieGrandad004Subclipa1">
						<name>GoldsboroughOllieGrandad004Subclipa</name>
						<pathurl>file://localhost/Volumes/Michael's%20Passport/woodbdrigenov2011media/GoldsboroughOllieGrandad004Subclipa</pathurl>
						<rate>
							<timebase>25</timebase>
						</rate>
						<duration>112</duration>
						<metadata>
							<storage>QuickTime</storage>
							<key>com.apple.finalcutstudio.media.uuid</key>
							<size>36</size>
							<type>UTF8</type>
							<value>10BCBBC4-41BA-4449-9BF2-6281B12971E8</value>
						</metadata>
						<metadata>
							<storage>QuickTime</storage>
							<key>com.apple.finalcutstudio.media.history.uuid</key>
							<size>36</size>
							<type>UTF8</type>
							<value>54F9A627-9B19-4C77-B49A-B1DB01CE9822</value>
						</metadata>
						<timecode>
							<rate>
								<timebase>25</timebase>
							</rate>
							<string>00:00:08:10</string>
							<frame>210</frame>
							<displayformat>NDF</displayformat>
							<source>source</source>
							<reel>
								<name>Goldsbrough Ollie Grandad</name>
							</reel>
						</timecode>
						<media>
							<video>
								<duration>112</duration>
								<samplecharacteristics>
									<width>1280</width>
									<height>720</height>
								</samplecharacteristics>
							</video>
							<audio>
								<samplecharacteristics>
									<samplerate>48000</samplerate>
									<depth>16</depth>
								</samplecharacteristics>
								<channelcount>2</channelcount>
								<layout>stereo</layout>
								<audiochannel>
									<sourcechannel>1</sourcechannel>
									<channellabel>left</channellabel>
								</audiochannel>
								<audiochannel>
									<sourcechannel>2</sourcechannel>
									<channellabel>right</channellabel>
								</audiochannel>
							</audio>
						</media>
					</file>
					<sourcetrack>
						<mediatype>video</mediatype>
					</sourcetrack>
					<link>
						<linkclipref>GoldsboroughOllieGrandad004Subclipa</linkclipref>
						<mediatype>video</mediatype>
						<trackindex>9</trackindex>
						<clipindex>6</clipindex>
					</link>
					<link>
						<linkclipref>GoldsboroughOllieGrandad004Subclipa2</linkclipref>
						<mediatype>audio</mediatype>
						<trackindex>15</trackindex>
						<clipindex>6</clipindex>
						<groupindex>1</groupindex>
					</link>
					<link>
						<linkclipref>GoldsboroughOllieGrandad004Subclipa3</linkclipref>
						<mediatype>audio</mediatype>
						<trackindex>16</trackindex>
						<clipindex>6</clipindex>
						<groupindex>1</groupindex>
					</link>
					<fielddominance>none</fielddominance>
					<itemhistory>
						<uuid>1624D31F-792D-443E-A379-6D9436927DD6</uuid>
						<uuid>BF7D9DFF-C5E8-434B-B26D-1827D101BF0B</uuid>
					</itemhistory>
				</clipitem>
				<clipitem id="GoldsboroughOllieGrandad004Subclipb">
					<name>GoldsboroughOllieGrandad004Subclipb</name>
					<duration>1427</duration>
					<rate>
						<ntsc>FALSE</ntsc>
						<timebase>25</timebase>
					</rate>
					<in>0</in>
					<out>1426</out>
					<start>18485</start>
					<end>19911</end>
					<pixelaspectratio>Square</pixelaspectratio>
					<enabled>TRUE</enabled>
					<anamorphic>FALSE</anamorphic>
					<alphatype>none</alphatype>
					<logginginfo>
						<scene/>
						<shottake/>
						<lognote/>
						<good>FALSE</good>
					</logginginfo>
					<labels>
						<label2/>
					</labels>
					<comments>
						<mastercomment1/>
						<mastercomment2/>
						<mastercomment3/>
						<mastercomment4/>
					</comments>
					<file id="GoldsboroughOllieGrandad004Subclipb1">
						<name>GoldsboroughOllieGrandad004Subclipb</name>
						<pathurl>file://localhost/Volumes/Michael's%20Passport/woodbdrigenov2011media/GoldsboroughOllieGrandad004Subclipb</pathurl>
						<rate>
							<timebase>25</timebase>
						</rate>
						<duration>1427</duration>
						<metadata>
							<storage>QuickTime</storage>
							<key>com.apple.finalcutstudio.media.uuid</key>
							<size>36</size>
							<type>UTF8</type>
							<value>A9BB387B-A80F-41F9-856A-38EE4DD6A406</value>
						</metadata>
						<metadata>
							<storage>QuickTime</storage>
							<key>com.apple.finalcutstudio.media.history.uuid</key>
							<size>36</size>
							<type>UTF8</type>
							<value>54F9A627-9B19-4C77-B49A-B1DB01CE9822</value>
						</metadata>
						<timecode>
							<rate>
								<timebase>25</timebase>
							</rate>
							<string>00:00:21:09</string>
							<frame>534</frame>
							<displayformat>NDF</displayformat>
							<source>source</source>
							<reel>
								<name>Goldsbrough Ollie Grandad</name>
							</reel>
						</timecode>
						<media>
							<video>
								<duration>1427</duration>
								<samplecharacteristics>
									<width>1280</width>
									<height>720</height>
								</samplecharacteristics>
							</video>
							<audio>
								<samplecharacteristics>
									<samplerate>48000</samplerate>
									<depth>16</depth>
								</samplecharacteristics>
								<channelcount>2</channelcount>
								<layout>stereo</layout>
								<audiochannel>
									<sourcechannel>1</sourcechannel>
									<channellabel>left</channellabel>
								</audiochannel>
								<audiochannel>
									<sourcechannel>2</sourcechannel>
									<channellabel>right</channellabel>
								</audiochannel>
							</audio>
						</media>
					</file>
					<sourcetrack>
						<mediatype>video</mediatype>
					</sourcetrack>
					<fielddominance>none</fielddominance>
					<itemhistory>
						<uuid>4CF71DED-1682-429F-B39C-33A661A77043</uuid>
						<uuid>370D1045-DBB5-4CEA-AC3F-C3E6B14506BC</uuid>
					</itemhistory>
				</clipitem>
				<clipitem id="GoldsboroughOllieGrandad004Subclipc">
					<name>GoldsboroughOllieGrandad004Subclipc</name>
					<duration>503</duration>
					<rate>
						<ntsc>FALSE</ntsc>
						<timebase>25</timebase>
					</rate>
					<in>0</in>
					<out>503</out>
					<start>20047</start>
					<end>20550</end>
					<pixelaspectratio>Square</pixelaspectratio>
					<anamorphic>FALSE</anamorphic>
					<alphatype>none</alphatype>
					<logginginfo>
						<scene/>
						<shottake/>
						<lognote/>
						<good>FALSE</good>
					</logginginfo>
					<labels>
						<label2/>
					</labels>
					<comments>
						<mastercomment1/>
						<mastercomment2/>
						<mastercomment3/>
						<mastercomment4/>
					</comments>
					<file id="GoldsboroughOllieGrandad004Subclipc1">
						<name>GoldsboroughOllieGrandad004Subclipc</name>
						<pathurl>file://localhost/Volumes/Michael's%20Passport/woodbdrigenov2011media/GoldsboroughOllieGrandad004Subclipc</pathurl>
						<rate>
							<timebase>25</timebase>
						</rate>
						<duration>503</duration>
						<metadata>
							<storage>QuickTime</storage>
							<key>com.apple.finalcutstudio.media.uuid</key>
							<size>36</size>
							<type>UTF8</type>
							<value>9005E39F-19BC-4FC5-9C4E-F7027BFDCBB3</value>
						</metadata>
						<metadata>
							<storage>QuickTime</storage>
							<key>com.apple.finalcutstudio.media.history.uuid</key>
							<size>36</size>
							<type>UTF8</type>
							<value>54F9A627-9B19-4C77-B49A-B1DB01CE9822</value>
						</metadata>
						<timecode>
							<rate>
								<timebase>25</timebase>
							</rate>
							<string>00:01:23:22</string>
							<frame>2097</frame>
							<displayformat>NDF</displayformat>
							<source>source</source>
							<reel>
								<name>Goldsbrough Ollie Grandad</name>
							</reel>
						</timecode>
						<media>
							<video>
								<duration>503</duration>
								<samplecharacteristics>
									<width>1280</width>
									<height>720</height>
								</samplecharacteristics>
							</video>
							<audio>
								<samplecharacteristics>
									<samplerate>48000</samplerate>
									<depth>16</depth>
								</samplecharacteristics>
								<channelcount>2</channelcount>
								<layout>stereo</layout>
								<audiochannel>
									<sourcechannel>1</sourcechannel>
									<channellabel>left</channellabel>
								</audiochannel>
								<audiochannel>
									<sourcechannel>2</sourcechannel>
									<channellabel>right</channellabel>
								</audiochannel>
							</audio>
						</media>
					</file>
					<sourcetrack>
						<mediatype>video</mediatype>
					</sourcetrack>
					<fielddominance>none</fielddominance>
					<itemhistory>
						<uuid>E55EAF91-EC4A-4DC4-9B49-62154DC538E5</uuid>
						<uuid>C75791FB-6D71-4B86-8A38-952344B79B7F</uuid>
					</itemhistory>
				</clipitem>
				<clipitem id="GoldsboroughOllieGrandad005Subclipa">
					<name>GoldsboroughOllieGrandad005Subclipa</name>
					<duration>696</duration>
					<rate>
						<ntsc>FALSE</ntsc>
						<timebase>25</timebase>
					</rate>
					<in>0</in>
					<out>695</out>
					<start>23902</start>
					<end>24597</end>
					<pixelaspectratio>Square</pixelaspectratio>
					<anamorphic>FALSE</anamorphic>
					<alphatype>none</alphatype>
					<logginginfo>
						<scene/>
						<shottake/>
						<lognote/>
						<good>FALSE</good>
					</logginginfo>
					<labels>
						<label2/>
					</labels>
					<comments>
						<mastercomment1/>
						<mastercomment2/>
						<mastercomment3/>
						<mastercomment4/>
					</comments>
					<file id="GoldsboroughOllieGrandad005Subclipa1">
						<name>GoldsboroughOllieGrandad005Subclipa</name>
						<pathurl>file://localhost/Volumes/Michael's%20Passport/woodbdrigenov2011media/GoldsboroughOllieGrandad005Subclipa</pathurl>
						<rate>
							<timebase>25</timebase>
						</rate>
						<duration>696</duration>
						<metadata>
							<storage>QuickTime</storage>
							<key>com.apple.finalcutstudio.media.uuid</key>
							<size>36</size>
							<type>UTF8</type>
							<value>17AB0ED3-6A72-4B38-B786-D18344F65360</value>
						</metadata>
						<metadata>
							<storage>QuickTime</storage>
							<key>com.apple.finalcutstudio.media.history.uuid</key>
							<size>36</size>
							<type>UTF8</type>
							<value>45AA6A14-C6C4-4C22-B3C6-B2C23CF0FB86</value>
						</metadata>
						<timecode>
							<rate>
								<timebase>25</timebase>
							</rate>
							<string>00:00:00:00</string>
							<frame>0</frame>
							<displayformat>NDF</displayformat>
							<source>source</source>
							<reel>
								<name>Goldsbrough Ollie Grandad</name>
							</reel>
						</timecode>
						<media>
							<video>
								<duration>696</duration>
								<samplecharacteristics>
									<width>1280</width>
									<height>720</height>
								</samplecharacteristics>
							</video>
							<audio>
								<samplecharacteristics>
									<samplerate>48000</samplerate>
									<depth>16</depth>
								</samplecharacteristics>
								<channelcount>2</channelcount>
								<layout>stereo</layout>
								<audiochannel>
									<sourcechannel>1</sourcechannel>
									<channellabel>left</channellabel>
								</audiochannel>
								<audiochannel>
									<sourcechannel>2</sourcechannel>
									<channellabel>right</channellabel>
								</audiochannel>
							</audio>
						</media>
					</file>
					<sourcetrack>
						<mediatype>video</mediatype>
					</sourcetrack>
					<fielddominance>none</fielddominance>
					<itemhistory>
						<uuid>A8AC283C-2ECF-4FFA-BB3F-71BE5C0A77EB</uuid>
						<uuid>A5AC7D4F-1AF4-442F-B251-5F782EC2DD6F</uuid>
					</itemhistory>
				</clipitem>
				<clipitem id="GoldsboroughOllieGrandad005Subclipb">
					<name>GoldsboroughOllieGrandad005Subclipb</name>
					<duration>121</duration>
					<rate>
						<ntsc>FALSE</ntsc>
						<timebase>25</timebase>
					</rate>
					<in>0</in>
					<out>121</out>
					<start>24999</start>
					<end>25120</end>
					<pixelaspectratio>Square</pixelaspectratio>
					<anamorphic>FALSE</anamorphic>
					<alphatype>none</alphatype>
					<logginginfo>
						<scene/>
						<shottake/>
						<lognote/>
						<good>FALSE</good>
					</logginginfo>
					<labels>
						<label2/>
					</labels>
					<comments>
						<mastercomment1/>
						<mastercomment2/>
						<mastercomment3/>
						<mastercomment4/>
					</comments>
					<file id="GoldsboroughOllieGrandad005Subclipb1">
						<name>GoldsboroughOllieGrandad005Subclipb</name>
						<pathurl>file://localhost/Volumes/Michael's%20Passport/woodbdrigenov2011media/GoldsboroughOllieGrandad005Subclipb</pathurl>
						<rate>
							<timebase>25</timebase>
						</rate>
						<duration>121</duration>
						<metadata>
							<storage>QuickTime</storage>
							<key>com.apple.finalcutstudio.media.uuid</key>
							<size>36</size>
							<type>UTF8</type>
							<value>8169A5D2-BF9D-406B-AB39-2C5C1B1952F0</value>
						</metadata>
						<metadata>
							<storage>QuickTime</storage>
							<key>com.apple.finalcutstudio.media.history.uuid</key>
							<size>36</size>
							<type>UTF8</type>
							<value>45AA6A14-C6C4-4C22-B3C6-B2C23CF0FB86</value>
						</metadata>
						<timecode>
							<rate>
								<timebase>25</timebase>
							</rate>
							<string>00:00:43:22</string>
							<frame>1097</frame>
							<displayformat>NDF</displayformat>
							<source>source</source>
							<reel>
								<name>Goldsbrough Ollie Grandad</name>
							</reel>
						</timecode>
						<media>
							<video>
								<duration>121</duration>
								<samplecharacteristics>
									<width>1280</width>
									<height>720</height>
								</samplecharacteristics>
							</video>
							<audio>
								<samplecharacteristics>
									<samplerate>48000</samplerate>
									<depth>16</depth>
								</samplecharacteristics>
								<channelcount>2</channelcount>
								<layout>stereo</layout>
								<audiochannel>
									<sourcechannel>1</sourcechannel>
									<channellabel>left</channellabel>
								</audiochannel>
								<audiochannel>
									<sourcechannel>2</sourcechannel>
									<channellabel>right</channellabel>
								</audiochannel>
							</audio>
						</media>
					</file>
					<sourcetrack>
						<mediatype>video</mediatype>
					</sourcetrack>
					<fielddominance>none</fielddominance>
					<itemhistory>
						<uuid>8D314283-BBB3-45D4-85B6-9882499883DA</uuid>
						<uuid>050D4699-9CCB-4ABC-A625-ECF4719B73A7</uuid>
					</itemhistory>
				</clipitem>
				<clipitem id="GoldsboroughOllieGrandad005Subclipc">
					<name>GoldsboroughOllieGrandad005Subclipc</name>
					<duration>168</duration>
					<rate>
						<ntsc>FALSE</ntsc>
						<timebase>25</timebase>
					</rate>
					<in>0</in>
					<out>167</out>
					<start>25232</start>
					<end>25399</end>
					<pixelaspectratio>Square</pixelaspectratio>
					<anamorphic>FALSE</anamorphic>
					<alphatype>none</alphatype>
					<logginginfo>
						<scene/>
						<shottake/>
						<lognote/>
						<good>FALSE</good>
					</logginginfo>
					<labels>
						<label2/>
					</labels>
					<comments>
						<mastercomment1/>
						<mastercomment2/>
						<mastercomment3/>
						<mastercomment4/>
					</comments>
					<file id="GoldsboroughOllieGrandad005Subclipc1">
						<name>GoldsboroughOllieGrandad005Subclipc</name>
						<pathurl>file://localhost/Volumes/Michael's%20Passport/woodbdrigenov2011media/GoldsboroughOllieGrandad005Subclipc</pathurl>
						<rate>
							<timebase>25</timebase>
						</rate>
						<duration>168</duration>
						<metadata>
							<storage>QuickTime</storage>
							<key>com.apple.finalcutstudio.media.uuid</key>
							<size>36</size>
							<type>UTF8</type>
							<value>7A6A5E2F-B2E9-4715-A24B-DBEC656E90D0</value>
						</metadata>
						<metadata>
							<storage>QuickTime</storage>
							<key>com.apple.finalcutstudio.media.history.uuid</key>
							<size>36</size>
							<type>UTF8</type>
							<value>45AA6A14-C6C4-4C22-B3C6-B2C23CF0FB86</value>
						</metadata>
						<timecode>
							<rate>
								<timebase>25</timebase>
							</rate>
							<string>00:00:53:05</string>
							<frame>1330</frame>
							<displayformat>NDF</displayformat>
							<source>source</source>
							<reel>
								<name>Goldsbrough Ollie Grandad</name>
							</reel>
						</timecode>
						<media>
							<video>
								<duration>168</duration>
								<samplecharacteristics>
									<width>1280</width>
									<height>720</height>
								</samplecharacteristics>
							</video>
							<audio>
								<samplecharacteristics>
									<samplerate>48000</samplerate>
									<depth>16</depth>
								</samplecharacteristics>
								<channelcount>2</channelcount>
								<layout>stereo</layout>
								<audiochannel>
									<sourcechannel>1</sourcechannel>
									<channellabel>left</channellabel>
								</audiochannel>
								<audiochannel>
									<sourcechannel>2</sourcechannel>
									<channellabel>right</channellabel>
								</audiochannel>
							</audio>
						</media>
					</file>
					<sourcetrack>
						<mediatype>video</mediatype>
					</sourcetrack>
					<fielddominance>none</fielddominance>
					<itemhistory>
						<uuid>75830A36-DD7E-45E9-BC1E-422E6D604F85</uuid>
						<uuid>8B420339-5714-414C-B73B-1E2B7AD316FB</uuid>
					</itemhistory>
				</clipitem>
				<clipitem id="GoldsboroughOllieGrandad005Subclipd">
					<name>GoldsboroughOllieGrandad005Subclipd</name>
					<duration>251</duration>
					<rate>
						<ntsc>FALSE</ntsc>
						<timebase>25</timebase>
					</rate>
					<in>0</in>
					<out>250</out>
					<start>25445</start>
					<end>25695</end>
					<pixelaspectratio>Square</pixelaspectratio>
					<anamorphic>FALSE</anamorphic>
					<alphatype>none</alphatype>
					<logginginfo>
						<scene/>
						<shottake/>
						<lognote/>
						<good>FALSE</good>
					</logginginfo>
					<labels>
						<label2/>
					</labels>
					<comments>
						<mastercomment1/>
						<mastercomment2/>
						<mastercomment3/>
						<mastercomment4/>
					</comments>
					<file id="GoldsboroughOllieGrandad005Subclipd1">
						<name>GoldsboroughOllieGrandad005Subclipd</name>
						<pathurl>file://localhost/Volumes/Michael's%20Passport/woodbdrigenov2011media/GoldsboroughOllieGrandad005Subclipd</pathurl>
						<rate>
							<timebase>25</timebase>
						</rate>
						<duration>251</duration>
						<metadata>
							<storage>QuickTime</storage>
							<key>com.apple.finalcutstudio.media.uuid</key>
							<size>36</size>
							<type>UTF8</type>
							<value>8517CFE0-0B22-40CC-91CA-723FA769A732</value>
						</metadata>
						<metadata>
							<storage>QuickTime</storage>
							<key>com.apple.finalcutstudio.media.history.uuid</key>
							<size>36</size>
							<type>UTF8</type>
							<value>45AA6A14-C6C4-4C22-B3C6-B2C23CF0FB86</value>
						</metadata>
						<timecode>
							<rate>
								<timebase>25</timebase>
							</rate>
							<string>00:01:01:18</string>
							<frame>1543</frame>
							<displayformat>NDF</displayformat>
							<source>source</source>
							<reel>
								<name>Goldsbrough Ollie Grandad</name>
							</reel>
						</timecode>
						<media>
							<video>
								<duration>251</duration>
								<samplecharacteristics>
									<width>1280</width>
									<height>720</height>
								</samplecharacteristics>
							</video>
							<audio>
								<samplecharacteristics>
									<samplerate>48000</samplerate>
									<depth>16</depth>
								</samplecharacteristics>
								<channelcount>2</channelcount>
								<layout>stereo</layout>
								<audiochannel>
									<sourcechannel>1</sourcechannel>
									<channellabel>left</channellabel>
								</audiochannel>
								<audiochannel>
									<sourcechannel>2</sourcechannel>
									<channellabel>right</channellabel>
								</audiochannel>
							</audio>
						</media>
					</file>
					<sourcetrack>
						<mediatype>video</mediatype>
					</sourcetrack>
					<fielddominance>none</fielddominance>
					<itemhistory>
						<uuid>08AB8C18-8D76-4FD5-92BC-8FE026A3E7B1</uuid>
						<uuid>D38E394D-741F-4B51-9B64-F140B38310CA</uuid>
					</itemhistory>
				</clipitem>
				<clipitem id="GoldsboroughOllieGrandad006Subclipa">
					<name>GoldsboroughOllieGrandad006Subclipa</name>
					<duration>133</duration>
					<rate>
						<ntsc>FALSE</ntsc>
						<timebase>25</timebase>
					</rate>
					<in>0</in>
					<out>132</out>
					<start>28968</start>
					<end>29100</end>
					<pixelaspectratio>Square</pixelaspectratio>
					<anamorphic>FALSE</anamorphic>
					<alphatype>none</alphatype>
					<logginginfo>
						<scene/>
						<shottake/>
						<lognote/>
						<good>FALSE</good>
					</logginginfo>
					<labels>
						<label2/>
					</labels>
					<comments>
						<mastercomment1/>
						<mastercomment2/>
						<mastercomment3/>
						<mastercomment4/>
					</comments>
					<file id="GoldsboroughOllieGrandad006Subclipa1">
						<name>GoldsboroughOllieGrandad006Subclipa</name>
						<pathurl>file://localhost/Volumes/Michael's%20Passport/woodbdrigenov2011media/GoldsboroughOllieGrandad006Subclipa</pathurl>
						<rate>
							<timebase>25</timebase>
						</rate>
						<duration>133</duration>
						<metadata>
							<storage>QuickTime</storage>
							<key>com.apple.finalcutstudio.media.uuid</key>
							<size>36</size>
							<type>UTF8</type>
							<value>E1BBD09C-F3D1-4DEC-A80A-8E3C478FEF3C</value>
						</metadata>
						<metadata>
							<storage>QuickTime</storage>
							<key>com.apple.finalcutstudio.media.history.uuid</key>
							<size>36</size>
							<type>UTF8</type>
							<value>D72EFDDB-A482-4E84-A6A2-78912F5C6C4A</value>
						</metadata>
						<timecode>
							<rate>
								<timebase>25</timebase>
							</rate>
							<string>00:00:00:00</string>
							<frame>0</frame>
							<displayformat>NDF</displayformat>
							<source>source</source>
							<reel>
								<name>Goldsbrough Ollie Grandad</name>
							</reel>
						</timecode>
						<media>
							<video>
								<duration>133</duration>
								<samplecharacteristics>
									<width>1280</width>
									<height>720</height>
								</samplecharacteristics>
							</video>
							<audio>
								<samplecharacteristics>
									<samplerate>48000</samplerate>
									<depth>16</depth>
								</samplecharacteristics>
								<channelcount>2</channelcount>
								<layout>stereo</layout>
								<audiochannel>
									<sourcechannel>1</sourcechannel>
									<channellabel>left</channellabel>
								</audiochannel>
								<audiochannel>
									<sourcechannel>2</sourcechannel>
									<channellabel>right</channellabel>
								</audiochannel>
							</audio>
						</media>
					</file>
					<sourcetrack>
						<mediatype>video</mediatype>
					</sourcetrack>
					<fielddominance>none</fielddominance>
					<itemhistory>
						<uuid>CA3E0B69-3BF6-4DA2-B308-32153095B174</uuid>
						<uuid>C1A74AB0-78DC-4174-B72A-DF262913AAB4</uuid>
					</itemhistory>
				</clipitem>
				<clipitem id="GoldsboroughOllieGrandad006Subclipb">
					<name>GoldsboroughOllieGrandad006Subclipb</name>
					<duration>669</duration>
					<rate>
						<ntsc>FALSE</ntsc>
						<timebase>25</timebase>
					</rate>
					<in>0</in>
					<out>669</out>
					<start>29148</start>
					<end>29817</end>
					<pixelaspectratio>Square</pixelaspectratio>
					<anamorphic>FALSE</anamorphic>
					<alphatype>none</alphatype>
					<logginginfo>
						<scene/>
						<shottake/>
						<lognote/>
						<good>FALSE</good>
					</logginginfo>
					<labels>
						<label2/>
					</labels>
					<comments>
						<mastercomment1/>
						<mastercomment2/>
						<mastercomment3/>
						<mastercomment4/>
					</comments>
					<file id="GoldsboroughOllieGrandad006Subclipb1">
						<name>GoldsboroughOllieGrandad006Subclipb</name>
						<pathurl>file://localhost/Volumes/Michael's%20Passport/woodbdrigenov2011media/GoldsboroughOllieGrandad006Subclipb</pathurl>
						<rate>
							<timebase>25</timebase>
						</rate>
						<duration>669</duration>
						<metadata>
							<storage>QuickTime</storage>
							<key>com.apple.finalcutstudio.media.uuid</key>
							<size>36</size>
							<type>UTF8</type>
							<value>B994CED9-9813-48DB-9D08-49981B88B9C4</value>
						</metadata>
						<metadata>
							<storage>QuickTime</storage>
							<key>com.apple.finalcutstudio.media.history.uuid</key>
							<size>36</size>
							<type>UTF8</type>
							<value>D72EFDDB-A482-4E84-A6A2-78912F5C6C4A</value>
						</metadata>
						<timecode>
							<rate>
								<timebase>25</timebase>
							</rate>
							<string>00:00:07:06</string>
							<frame>181</frame>
							<displayformat>NDF</displayformat>
							<source>source</source>
							<reel>
								<name>Goldsbrough Ollie Grandad</name>
							</reel>
						</timecode>
						<media>
							<video>
								<duration>669</duration>
								<samplecharacteristics>
									<width>1280</width>
									<height>720</height>
								</samplecharacteristics>
							</video>
							<audio>
								<samplecharacteristics>
									<samplerate>48000</samplerate>
									<depth>16</depth>
								</samplecharacteristics>
								<channelcount>2</channelcount>
								<layout>stereo</layout>
								<audiochannel>
									<sourcechannel>1</sourcechannel>
									<channellabel>left</channellabel>
								</audiochannel>
								<audiochannel>
									<sourcechannel>2</sourcechannel>
									<channellabel>right</channellabel>
								</audiochannel>
							</audio>
						</media>
					</file>
					<sourcetrack>
						<mediatype>video</mediatype>
					</sourcetrack>
					<fielddominance>none</fielddominance>
					<itemhistory>
						<uuid>AC410C44-A0F6-49C5-9497-6D3355B15113</uuid>
						<uuid>9AEBD826-C67A-4D14-87A8-AC0038F9C51F</uuid>
					</itemhistory>
				</clipitem>
				<clipitem id="GoldsboroughOllieGrandad006Subclipd">
					<name>GoldsboroughOllieGrandad006Subclipd</name>
					<duration>712</duration>
					<rate>
						<ntsc>FALSE</ntsc>
						<timebase>25</timebase>
					</rate>
					<in>0</in>
					<out>712</out>
					<start>30197</start>
					<end>30909</end>
					<pixelaspectratio>Square</pixelaspectratio>
					<anamorphic>FALSE</anamorphic>
					<alphatype>none</alphatype>
					<logginginfo>
						<scene/>
						<shottake/>
						<lognote/>
						<good>FALSE</good>
					</logginginfo>
					<labels>
						<label>Good Take</label>
						<label2/>
					</labels>
					<comments>
						<mastercomment1/>
						<mastercomment2/>
						<mastercomment3/>
						<mastercomment4/>
					</comments>
					<file id="GoldsboroughOllieGrandad006Subclipd1">
						<name>GoldsboroughOllieGrandad006Subclipd</name>
						<pathurl>file://localhost/Volumes/Michael's%20Passport/woodbdrigenov2011media/GoldsboroughOllieGrandad006Subclipd</pathurl>
						<rate>
							<timebase>25</timebase>
						</rate>
						<duration>712</duration>
						<metadata>
							<storage>QuickTime</storage>
							<key>com.apple.finalcutstudio.media.uuid</key>
							<size>36</size>
							<type>UTF8</type>
							<value>152FED02-1BF9-490D-B477-F0F0D0B0DBD2</value>
						</metadata>
						<metadata>
							<storage>QuickTime</storage>
							<key>com.apple.finalcutstudio.media.history.uuid</key>
							<size>36</size>
							<type>UTF8</type>
							<value>D72EFDDB-A482-4E84-A6A2-78912F5C6C4A</value>
						</metadata>
						<timecode>
							<rate>
								<timebase>25</timebase>
							</rate>
							<string>00:00:49:03</string>
							<frame>1228</frame>
							<displayformat>NDF</displayformat>
							<source>source</source>
							<reel>
								<name>Goldsbrough Ollie Grandad</name>
							</reel>
						</timecode>
						<media>
							<video>
								<duration>712</duration>
								<samplecharacteristics>
									<width>1280</width>
									<height>720</height>
								</samplecharacteristics>
							</video>
							<audio>
								<samplecharacteristics>
									<samplerate>48000</samplerate>
									<depth>16</depth>
								</samplecharacteristics>
								<channelcount>2</channelcount>
								<layout>stereo</layout>
								<audiochannel>
									<sourcechannel>1</sourcechannel>
									<channellabel>left</channellabel>
								</audiochannel>
								<audiochannel>
									<sourcechannel>2</sourcechannel>
									<channellabel>right</channellabel>
								</audiochannel>
							</audio>
						</media>
					</file>
					<sourcetrack>
						<mediatype>video</mediatype>
					</sourcetrack>
					<fielddominance>none</fielddominance>
					<itemhistory>
						<uuid>DAC08965-3E41-4D8E-847C-C9A1072E749F</uuid>
						<uuid>878AC558-1EE1-4A4A-B209-DEC2FCDE02B9</uuid>
					</itemhistory>
				</clipitem>
				<clipitem id="GoldsboroughOllieGrandad006Subclipe">
					<name>GoldsboroughOllieGrandad006Subclipe</name>
					<duration>221</duration>
					<rate>
						<ntsc>FALSE</ntsc>
						<timebase>25</timebase>
					</rate>
					<in>0</in>
					<out>220</out>
					<start>31045</start>
					<end>31265</end>
					<pixelaspectratio>Square</pixelaspectratio>
					<anamorphic>FALSE</anamorphic>
					<alphatype>none</alphatype>
					<logginginfo>
						<scene/>
						<shottake/>
						<lognote/>
						<good>FALSE</good>
					</logginginfo>
					<labels>
						<label>Good Take</label>
						<label2/>
					</labels>
					<comments>
						<mastercomment1/>
						<mastercomment2/>
						<mastercomment3/>
						<mastercomment4/>
					</comments>
					<file id="GoldsboroughOllieGrandad006Subclipe1">
						<name>GoldsboroughOllieGrandad006Subclipe</name>
						<pathurl>file://localhost/Volumes/Michael's%20Passport/woodbdrigenov2011media/GoldsboroughOllieGrandad006Subclipe</pathurl>
						<rate>
							<timebase>25</timebase>
						</rate>
						<duration>221</duration>
						<metadata>
							<storage>QuickTime</storage>
							<key>com.apple.finalcutstudio.media.uuid</key>
							<size>36</size>
							<type>UTF8</type>
							<value>0AE14BE2-3A3B-44B3-BDF3-AF0334F5343F</value>
						</metadata>
						<metadata>
							<storage>QuickTime</storage>
							<key>com.apple.finalcutstudio.media.history.uuid</key>
							<size>36</size>
							<type>UTF8</type>
							<value>D72EFDDB-A482-4E84-A6A2-78912F5C6C4A</value>
						</metadata>
						<timecode>
							<rate>
								<timebase>25</timebase>
							</rate>
							<string>00:01:23:01</string>
							<frame>2076</frame>
							<displayformat>NDF</displayformat>
							<source>source</source>
							<reel>
								<name>Goldsbrough Ollie Grandad</name>
							</reel>
						</timecode>
						<media>
							<video>
								<duration>221</duration>
								<samplecharacteristics>
									<width>1280</width>
									<height>720</height>
								</samplecharacteristics>
							</video>
							<audio>
								<samplecharacteristics>
									<samplerate>48000</samplerate>
									<depth>16</depth>
								</samplecharacteristics>
								<channelcount>2</channelcount>
								<layout>stereo</layout>
								<audiochannel>
									<sourcechannel>1</sourcechannel>
									<channellabel>left</channellabel>
								</audiochannel>
								<audiochannel>
									<sourcechannel>2</sourcechannel>
									<channellabel>right</channellabel>
								</audiochannel>
							</audio>
						</media>
					</file>
					<sourcetrack>
						<mediatype>video</mediatype>
					</sourcetrack>
					<fielddominance>none</fielddominance>
					<itemhistory>
						<uuid>2DC578A9-1FB5-41F4-8AC1-2F735D0103AB</uuid>
						<uuid>A3149217-9373-413A-9FDC-779883DC35FD</uuid>
					</itemhistory>
				</clipitem>
				<clipitem id="GoldsboroughOllieGrandad006Subclipf">
					<name>GoldsboroughOllieGrandad006Subclipf</name>
					<duration>337</duration>
					<rate>
						<ntsc>FALSE</ntsc>
						<timebase>25</timebase>
					</rate>
					<in>0</in>
					<out>337</out>
					<start>31401</start>
					<end>31738</end>
					<pixelaspectratio>Square</pixelaspectratio>
					<anamorphic>FALSE</anamorphic>
					<alphatype>none</alphatype>
					<logginginfo>
						<scene/>
						<shottake/>
						<lognote/>
						<good>FALSE</good>
					</logginginfo>
					<labels>
						<label>Good Take</label>
						<label2/>
					</labels>
					<comments>
						<mastercomment1/>
						<mastercomment2/>
						<mastercomment3/>
						<mastercomment4/>
					</comments>
					<file id="GoldsboroughOllieGrandad006Subclipf1">
						<name>GoldsboroughOllieGrandad006Subclipf</name>
						<pathurl>file://localhost/Volumes/Michael's%20Passport/woodbdrigenov2011media/GoldsboroughOllieGrandad006Subclipf</pathurl>
						<rate>
							<timebase>25</timebase>
						</rate>
						<duration>337</duration>
						<metadata>
							<storage>QuickTime</storage>
							<key>com.apple.finalcutstudio.media.uuid</key>
							<size>36</size>
							<type>UTF8</type>
							<value>67BA1F25-8870-4361-AE8F-B7C29B72BB27</value>
						</metadata>
						<metadata>
							<storage>QuickTime</storage>
							<key>com.apple.finalcutstudio.media.history.uuid</key>
							<size>36</size>
							<type>UTF8</type>
							<value>D72EFDDB-A482-4E84-A6A2-78912F5C6C4A</value>
						</metadata>
						<timecode>
							<rate>
								<timebase>25</timebase>
							</rate>
							<string>00:01:37:07</string>
							<frame>2432</frame>
							<displayformat>NDF</displayformat>
							<source>source</source>
							<reel>
								<name>Goldsbrough Ollie Grandad</name>
							</reel>
						</timecode>
						<media>
							<video>
								<duration>337</duration>
								<samplecharacteristics>
									<width>1280</width>
									<height>720</height>
								</samplecharacteristics>
							</video>
							<audio>
								<samplecharacteristics>
									<samplerate>48000</samplerate>
									<depth>16</depth>
								</samplecharacteristics>
								<channelcount>2</channelcount>
								<layout>stereo</layout>
								<audiochannel>
									<sourcechannel>1</sourcechannel>
									<channellabel>left</channellabel>
								</audiochannel>
								<audiochannel>
									<sourcechannel>2</sourcechannel>
									<channellabel>right</channellabel>
								</audiochannel>
							</audio>
						</media>
					</file>
					<sourcetrack>
						<mediatype>video</mediatype>
					</sourcetrack>
					<fielddominance>none</fielddominance>
					<itemhistory>
						<uuid>5EE4A981-15BE-4674-B77D-B04DE38CF550</uuid>
						<uuid>D1B07074-02BD-417D-9127-E34082F24288</uuid>
					</itemhistory>
				</clipitem>
				<clipitem id="GoldsboroughOllieGrandad006Subclipf2">
					<name>GoldsboroughOllieGrandad006Subclipf</name>
					<duration>115</duration>
					<rate>
						<ntsc>FALSE</ntsc>
						<timebase>25</timebase>
					</rate>
					<in>0</in>
					<out>115</out>
					<start>32120</start>
					<end>32235</end>
					<pixelaspectratio>Square</pixelaspectratio>
					<anamorphic>FALSE</anamorphic>
					<alphatype>none</alphatype>
					<logginginfo>
						<scene/>
						<shottake/>
						<lognote/>
						<good>FALSE</good>
					</logginginfo>
					<labels>
						<label2/>
					</labels>
					<comments>
						<mastercomment1/>
						<mastercomment2/>
						<mastercomment3/>
						<mastercomment4/>
					</comments>
					<file id="GoldsboroughOllieGrandad006Subclipc">
						<name>GoldsboroughOllieGrandad006Subclipc</name>
						<pathurl>file://localhost/Volumes/Michael's%20Passport/woodbdrigenov2011media/GoldsboroughOllieGrandad006Subclipc</pathurl>
						<rate>
							<timebase>25</timebase>
						</rate>
						<duration>115</duration>
						<metadata>
							<storage>QuickTime</storage>
							<key>com.apple.finalcutstudio.media.uuid</key>
							<size>36</size>
							<type>UTF8</type>
							<value>EA22F108-D406-4AC0-A1BA-4D432585BF44</value>
						</metadata>
						<metadata>
							<storage>QuickTime</storage>
							<key>com.apple.finalcutstudio.media.history.uuid</key>
							<size>36</size>
							<type>UTF8</type>
							<value>D72EFDDB-A482-4E84-A6A2-78912F5C6C4A</value>
						</metadata>
						<timecode>
							<rate>
								<timebase>25</timebase>
							</rate>
							<string>00:00:39:19</string>
							<frame>994</frame>
							<displayformat>NDF</displayformat>
							<source>source</source>
							<reel>
								<name>Goldsbrough Ollie Grandad</name>
							</reel>
						</timecode>
						<media>
							<video>
								<duration>115</duration>
								<samplecharacteristics>
									<width>1280</width>
									<height>720</height>
								</samplecharacteristics>
							</video>
							<audio>
								<samplecharacteristics>
									<samplerate>48000</samplerate>
									<depth>16</depth>
								</samplecharacteristics>
								<channelcount>2</channelcount>
								<layout>stereo</layout>
								<audiochannel>
									<sourcechannel>1</sourcechannel>
									<channellabel>left</channellabel>
								</audiochannel>
								<audiochannel>
									<sourcechannel>2</sourcechannel>
									<channellabel>right</channellabel>
								</audiochannel>
							</audio>
						</media>
					</file>
					<sourcetrack>
						<mediatype>video</mediatype>
					</sourcetrack>
					<fielddominance>none</fielddominance>
					<itemhistory>
						<uuid>D5CC8C47-A2B6-498C-9FFF-B0D7BB69EE8D</uuid>
						<uuid>ADDC7565-B75C-470B-A941-DE6EFF234BED</uuid>
					</itemhistory>
				</clipitem>
				<clipitem id="GoldsboroughOllieGrandad007Subclipa">
					<name>GoldsboroughOllieGrandad007Subclipa</name>
					<duration>153</duration>
					<rate>
						<ntsc>FALSE</ntsc>
						<timebase>25</timebase>
					</rate>
					<in>0</in>
					<out>153</out>
					<start>33523</start>
					<end>33676</end>
					<pixelaspectratio>Square</pixelaspectratio>
					<anamorphic>FALSE</anamorphic>
					<alphatype>none</alphatype>
					<logginginfo>
						<scene/>
						<shottake/>
						<lognote/>
						<good>FALSE</good>
					</logginginfo>
					<labels>
						<label2/>
					</labels>
					<comments>
						<mastercomment1/>
						<mastercomment2/>
						<mastercomment3/>
						<mastercomment4/>
					</comments>
					<file id="GoldsboroughOllieGrandad007Subclipa1">
						<name>GoldsboroughOllieGrandad007Subclipa</name>
						<pathurl>file://localhost/Volumes/Michael's%20Passport/woodbdrigenov2011media/GoldsboroughOllieGrandad007Subclipa</pathurl>
						<rate>
							<timebase>25</timebase>
						</rate>
						<duration>153</duration>
						<metadata>
							<storage>QuickTime</storage>
							<key>com.apple.finalcutstudio.media.uuid</key>
							<size>36</size>
							<type>UTF8</type>
							<value>D9874768-017D-44BA-B2F9-201D9D49A2B2</value>
						</metadata>
						<metadata>
							<storage>QuickTime</storage>
							<key>com.apple.finalcutstudio.media.history.uuid</key>
							<size>36</size>
							<type>UTF8</type>
							<value>38643C2C-67D3-4D6B-9B5F-A321FBFA6D77</value>
						</metadata>
						<timecode>
							<rate>
								<timebase>25</timebase>
							</rate>
							<string>00:00:00:00</string>
							<frame>0</frame>
							<displayformat>NDF</displayformat>
							<source>source</source>
							<reel>
								<name>Goldsbrough Ollie Grandad</name>
							</reel>
						</timecode>
						<media>
							<video>
								<duration>153</duration>
								<samplecharacteristics>
									<width>1280</width>
									<height>720</height>
								</samplecharacteristics>
							</video>
							<audio>
								<samplecharacteristics>
									<samplerate>48000</samplerate>
									<depth>16</depth>
								</samplecharacteristics>
								<channelcount>2</channelcount>
								<layout>stereo</layout>
								<audiochannel>
									<sourcechannel>1</sourcechannel>
									<channellabel>left</channellabel>
								</audiochannel>
								<audiochannel>
									<sourcechannel>2</sourcechannel>
									<channellabel>right</channellabel>
								</audiochannel>
							</audio>
						</media>
					</file>
					<sourcetrack>
						<mediatype>video</mediatype>
					</sourcetrack>
					<fielddominance>none</fielddominance>
					<itemhistory>
						<uuid>A56F4294-17AF-40FD-970F-F79D63E4490C</uuid>
						<uuid>C26C90D3-4BA5-47F8-9EEB-25CBE7F2C07B</uuid>
					</itemhistory>
				</clipitem>
				<clipitem id="GoldsboroughOllieGrandad007Subclipb">
					<name>GoldsboroughOllieGrandad007Subclipb</name>
					<duration>177</duration>
					<rate>
						<ntsc>FALSE</ntsc>
						<timebase>25</timebase>
					</rate>
					<in>0</in>
					<out>176</out>
					<start>33815</start>
					<end>33991</end>
					<pixelaspectratio>Square</pixelaspectratio>
					<anamorphic>FALSE</anamorphic>
					<alphatype>none</alphatype>
					<logginginfo>
						<scene/>
						<shottake/>
						<lognote/>
						<good>FALSE</good>
					</logginginfo>
					<labels>
						<label2/>
					</labels>
					<comments>
						<mastercomment1/>
						<mastercomment2/>
						<mastercomment3/>
						<mastercomment4/>
					</comments>
					<file id="GoldsboroughOllieGrandad007Subclipb1">
						<name>GoldsboroughOllieGrandad007Subclipb</name>
						<pathurl>file://localhost/Volumes/Michael's%20Passport/woodbdrigenov2011media/GoldsboroughOllieGrandad007Subclipb</pathurl>
						<rate>
							<timebase>25</timebase>
						</rate>
						<duration>177</duration>
						<metadata>
							<storage>QuickTime</storage>
							<key>com.apple.finalcutstudio.media.uuid</key>
							<size>36</size>
							<type>UTF8</type>
							<value>3F391C6B-2806-47BA-A703-835646B19353</value>
						</metadata>
						<metadata>
							<storage>QuickTime</storage>
							<key>com.apple.finalcutstudio.media.history.uuid</key>
							<size>36</size>
							<type>UTF8</type>
							<value>38643C2C-67D3-4D6B-9B5F-A321FBFA6D77</value>
						</metadata>
						<timecode>
							<rate>
								<timebase>25</timebase>
							</rate>
							<string>00:00:11:16</string>
							<frame>291</frame>
							<displayformat>NDF</displayformat>
							<source>source</source>
							<reel>
								<name>Goldsbrough Ollie Grandad</name>
							</reel>
						</timecode>
						<media>
							<video>
								<duration>177</duration>
								<samplecharacteristics>
									<width>1280</width>
									<height>720</height>
								</samplecharacteristics>
							</video>
							<audio>
								<samplecharacteristics>
									<samplerate>48000</samplerate>
									<depth>16</depth>
								</samplecharacteristics>
								<channelcount>2</channelcount>
								<layout>stereo</layout>
								<audiochannel>
									<sourcechannel>1</sourcechannel>
									<channellabel>left</channellabel>
								</audiochannel>
								<audiochannel>
									<sourcechannel>2</sourcechannel>
									<channellabel>right</channellabel>
								</audiochannel>
							</audio>
						</media>
					</file>
					<sourcetrack>
						<mediatype>video</mediatype>
					</sourcetrack>
					<fielddominance>none</fielddominance>
					<itemhistory>
						<uuid>64D8858B-4D9A-4013-9C7A-1C71C3085246</uuid>
						<uuid>40299C59-7670-4C90-9D83-5A497C00E8F1</uuid>
					</itemhistory>
				</clipitem>
				<clipitem id="GoldsboroughOllieGrandad008Subclipa">
					<name>GoldsboroughOllieGrandad008Subclipa</name>
					<duration>94</duration>
					<rate>
						<ntsc>FALSE</ntsc>
						<timebase>25</timebase>
					</rate>
					<in>0</in>
					<out>93</out>
					<start>45655</start>
					<end>45748</end>
					<pixelaspectratio>Square</pixelaspectratio>
					<anamorphic>FALSE</anamorphic>
					<alphatype>none</alphatype>
					<logginginfo>
						<scene/>
						<shottake/>
						<lognote/>
						<good>FALSE</good>
					</logginginfo>
					<labels>
						<label2/>
					</labels>
					<comments>
						<mastercomment1/>
						<mastercomment2/>
						<mastercomment3/>
						<mastercomment4/>
					</comments>
					<file id="GoldsboroughOllieGrandad008Subclipa1">
						<name>GoldsboroughOllieGrandad008Subclipa</name>
						<pathurl>file://localhost/Volumes/Michael's%20Passport/woodbdrigenov2011media/GoldsboroughOllieGrandad008Subclipa</pathurl>
						<rate>
							<timebase>25</timebase>
						</rate>
						<duration>94</duration>
						<metadata>
							<storage>QuickTime</storage>
							<key>com.apple.finalcutstudio.media.uuid</key>
							<size>36</size>
							<type>UTF8</type>
							<value>AB724428-BDBA-4D58-9D8C-FC17BD751B9E</value>
						</metadata>
						<metadata>
							<storage>QuickTime</storage>
							<key>com.apple.finalcutstudio.media.history.uuid</key>
							<size>36</size>
							<type>UTF8</type>
							<value>188DE391-A0A1-4955-B829-B383BC6B272A</value>
						</metadata>
						<timecode>
							<rate>
								<timebase>25</timebase>
							</rate>
							<string>00:00:17:21</string>
							<frame>446</frame>
							<displayformat>NDF</displayformat>
							<source>source</source>
							<reel>
								<name>Goldsbrough Ollie Grandad</name>
							</reel>
						</timecode>
						<media>
							<video>
								<duration>94</duration>
								<samplecharacteristics>
									<width>1280</width>
									<height>720</height>
								</samplecharacteristics>
							</video>
							<audio>
								<samplecharacteristics>
									<samplerate>48000</samplerate>
									<depth>16</depth>
								</samplecharacteristics>
								<channelcount>2</channelcount>
								<layout>stereo</layout>
								<audiochannel>
									<sourcechannel>1</sourcechannel>
									<channellabel>left</channellabel>
								</audiochannel>
								<audiochannel>
									<sourcechannel>2</sourcechannel>
									<channellabel>right</channellabel>
								</audiochannel>
							</audio>
						</media>
					</file>
					<sourcetrack>
						<mediatype>video</mediatype>
					</sourcetrack>
					<fielddominance>none</fielddominance>
					<itemhistory>
						<uuid>E35F0BE9-866A-4CD9-84D2-80F606C7D4C0</uuid>
						<uuid>418D505A-0F74-4905-9A27-221EC1CBD2A1</uuid>
					</itemhistory>
				</clipitem>
				<clipitem id="GoldsboroughOllieGrandad008Subclipb">
					<name>GoldsboroughOllieGrandad008Subclipb</name>
					<duration>93</duration>
					<rate>
						<ntsc>FALSE</ntsc>
						<timebase>25</timebase>
					</rate>
					<in>0</in>
					<out>92</out>
					<start>45958</start>
					<end>46050</end>
					<pixelaspectratio>Square</pixelaspectratio>
					<anamorphic>FALSE</anamorphic>
					<alphatype>none</alphatype>
					<logginginfo>
						<scene/>
						<shottake/>
						<lognote/>
						<good>FALSE</good>
					</logginginfo>
					<labels>
						<label2/>
					</labels>
					<comments>
						<mastercomment1/>
						<mastercomment2/>
						<mastercomment3/>
						<mastercomment4/>
					</comments>
					<file id="GoldsboroughOllieGrandad008Subclipb1">
						<name>GoldsboroughOllieGrandad008Subclipb</name>
						<pathurl>file://localhost/Volumes/Michael's%20Passport/woodbdrigenov2011media/GoldsboroughOllieGrandad008Subclipb</pathurl>
						<rate>
							<timebase>25</timebase>
						</rate>
						<duration>93</duration>
						<metadata>
							<storage>QuickTime</storage>
							<key>com.apple.finalcutstudio.media.uuid</key>
							<size>36</size>
							<type>UTF8</type>
							<value>FB033FEB-5805-4234-BAB2-906EDA8B4EC2</value>
						</metadata>
						<metadata>
							<storage>QuickTime</storage>
							<key>com.apple.finalcutstudio.media.history.uuid</key>
							<size>36</size>
							<type>UTF8</type>
							<value>188DE391-A0A1-4955-B829-B383BC6B272A</value>
						</metadata>
						<timecode>
							<rate>
								<timebase>25</timebase>
							</rate>
							<string>00:00:29:24</string>
							<frame>749</frame>
							<displayformat>NDF</displayformat>
							<source>source</source>
							<reel>
								<name>Goldsbrough Ollie Grandad</name>
							</reel>
						</timecode>
						<media>
							<video>
								<duration>93</duration>
								<samplecharacteristics>
									<width>1280</width>
									<height>720</height>
								</samplecharacteristics>
							</video>
							<audio>
								<samplecharacteristics>
									<samplerate>48000</samplerate>
									<depth>16</depth>
								</samplecharacteristics>
								<channelcount>2</channelcount>
								<layout>stereo</layout>
								<audiochannel>
									<sourcechannel>1</sourcechannel>
									<channellabel>left</channellabel>
								</audiochannel>
								<audiochannel>
									<sourcechannel>2</sourcechannel>
									<channellabel>right</channellabel>
								</audiochannel>
							</audio>
						</media>
					</file>
					<sourcetrack>
						<mediatype>video</mediatype>
					</sourcetrack>
					<fielddominance>none</fielddominance>
					<itemhistory>
						<uuid>F1E119CE-34B8-40B5-88F2-D2C447B075A4</uuid>
						<uuid>C4DA1348-4146-4297-85E1-D5D43E68C6E8</uuid>
					</itemhistory>
				</clipitem>
				<clipitem id="GoldsboroughOllieGrandad008Subclipc">
					<name>GoldsboroughOllieGrandad008Subclipc</name>
					<duration>188</duration>
					<rate>
						<ntsc>FALSE</ntsc>
						<timebase>25</timebase>
					</rate>
					<in>0</in>
					<out>187</out>
					<start>46543</start>
					<end>46730</end>
					<pixelaspectratio>Square</pixelaspectratio>
					<anamorphic>FALSE</anamorphic>
					<alphatype>none</alphatype>
					<logginginfo>
						<scene/>
						<shottake/>
						<lognote/>
						<good>FALSE</good>
					</logginginfo>
					<labels>
						<label2/>
					</labels>
					<comments>
						<mastercomment1/>
						<mastercomment2/>
						<mastercomment3/>
						<mastercomment4/>
					</comments>
					<file id="GoldsboroughOllieGrandad008Subclipc1">
						<name>GoldsboroughOllieGrandad008Subclipc</name>
						<pathurl>file://localhost/Volumes/Michael's%20Passport/woodbdrigenov2011media/GoldsboroughOllieGrandad008Subclipc</pathurl>
						<rate>
							<timebase>25</timebase>
						</rate>
						<duration>188</duration>
						<metadata>
							<storage>QuickTime</storage>
							<key>com.apple.finalcutstudio.media.uuid</key>
							<size>36</size>
							<type>UTF8</type>
							<value>27F7E7FE-2D83-46A0-A2E8-E7795FCDA297</value>
						</metadata>
						<metadata>
							<storage>QuickTime</storage>
							<key>com.apple.finalcutstudio.media.history.uuid</key>
							<size>36</size>
							<type>UTF8</type>
							<value>188DE391-A0A1-4955-B829-B383BC6B272A</value>
						</metadata>
						<timecode>
							<rate>
								<timebase>25</timebase>
							</rate>
							<string>00:00:53:09</string>
							<frame>1334</frame>
							<displayformat>NDF</displayformat>
							<source>source</source>
							<reel>
								<name>Goldsbrough Ollie Grandad</name>
							</reel>
						</timecode>
						<media>
							<video>
								<duration>188</duration>
								<samplecharacteristics>
									<width>1280</width>
									<height>720</height>
								</samplecharacteristics>
							</video>
							<audio>
								<samplecharacteristics>
									<samplerate>48000</samplerate>
									<depth>16</depth>
								</samplecharacteristics>
								<channelcount>2</channelcount>
								<layout>stereo</layout>
								<audiochannel>
									<sourcechannel>1</sourcechannel>
									<channellabel>left</channellabel>
								</audiochannel>
								<audiochannel>
									<sourcechannel>2</sourcechannel>
									<channellabel>right</channellabel>
								</audiochannel>
							</audio>
						</media>
					</file>
					<sourcetrack>
						<mediatype>video</mediatype>
					</sourcetrack>
					<fielddominance>none</fielddominance>
					<itemhistory>
						<uuid>4DCA78E4-460C-4B39-9E82-ED945D7BC95E</uuid>
						<uuid>36BE684F-8768-40F3-8EDC-813EDB8575A8</uuid>
					</itemhistory>
				</clipitem>
				<clipitem id="GoldsboroughOllieGrandad008Subclipd">
					<name>GoldsboroughOllieGrandad008Subclipd</name>
					<duration>658</duration>
					<rate>
						<ntsc>FALSE</ntsc>
						<timebase>25</timebase>
					</rate>
					<in>0</in>
					<out>657</out>
					<start>47241</start>
					<end>47898</end>
					<pixelaspectratio>Square</pixelaspectratio>
					<anamorphic>FALSE</anamorphic>
					<alphatype>none</alphatype>
					<logginginfo>
						<scene/>
						<shottake/>
						<lognote/>
						<good>FALSE</good>
					</logginginfo>
					<labels>
						<label2/>
					</labels>
					<comments>
						<mastercomment1/>
						<mastercomment2/>
						<mastercomment3/>
						<mastercomment4/>
					</comments>
					<file id="GoldsboroughOllieGrandad008Subclipd1">
						<name>GoldsboroughOllieGrandad008Subclipd</name>
						<pathurl>file://localhost/Volumes/Michael's%20Passport/woodbdrigenov2011media/GoldsboroughOllieGrandad008Subclipd</pathurl>
						<rate>
							<timebase>25</timebase>
						</rate>
						<duration>658</duration>
						<metadata>
							<storage>QuickTime</storage>
							<key>com.apple.finalcutstudio.media.uuid</key>
							<size>36</size>
							<type>UTF8</type>
							<value>F833626C-4538-44BC-8308-297B8A2B4C5B</value>
						</metadata>
						<metadata>
							<storage>QuickTime</storage>
							<key>com.apple.finalcutstudio.media.history.uuid</key>
							<size>36</size>
							<type>UTF8</type>
							<value>188DE391-A0A1-4955-B829-B383BC6B272A</value>
						</metadata>
						<timecode>
							<rate>
								<timebase>25</timebase>
							</rate>
							<string>00:01:21:06</string>
							<frame>2031</frame>
							<displayformat>NDF</displayformat>
							<source>source</source>
							<reel>
								<name>Goldsbrough Ollie Grandad</name>
							</reel>
						</timecode>
						<media>
							<video>
								<duration>658</duration>
								<samplecharacteristics>
									<width>1280</width>
									<height>720</height>
								</samplecharacteristics>
							</video>
							<audio>
								<samplecharacteristics>
									<samplerate>48000</samplerate>
									<depth>16</depth>
								</samplecharacteristics>
								<channelcount>2</channelcount>
								<layout>stereo</layout>
								<audiochannel>
									<sourcechannel>1</sourcechannel>
									<channellabel>left</channellabel>
								</audiochannel>
								<audiochannel>
									<sourcechannel>2</sourcechannel>
									<channellabel>right</channellabel>
								</audiochannel>
							</audio>
						</media>
					</file>
					<sourcetrack>
						<mediatype>video</mediatype>
					</sourcetrack>
					<fielddominance>none</fielddominance>
					<itemhistory>
						<uuid>1E1D155F-F593-4330-A5CC-9909473DC574</uuid>
						<uuid>16816EB1-4121-41F4-A430-EE18753EE72E</uuid>
					</itemhistory>
				</clipitem>
				<clipitem id="GoldsboroughOllieGrandad008Subclipe">
					<name>GoldsboroughOllieGrandad008Subclipe</name>
					<duration>175</duration>
					<rate>
						<ntsc>FALSE</ntsc>
						<timebase>25</timebase>
					</rate>
					<in>0</in>
					<out>174</out>
					<start>48193</start>
					<end>48367</end>
					<pixelaspectratio>Square</pixelaspectratio>
					<anamorphic>FALSE</anamorphic>
					<alphatype>none</alphatype>
					<logginginfo>
						<scene/>
						<shottake/>
						<lognote/>
						<good>FALSE</good>
					</logginginfo>
					<labels>
						<label2/>
					</labels>
					<comments>
						<mastercomment1/>
						<mastercomment2/>
						<mastercomment3/>
						<mastercomment4/>
					</comments>
					<file id="GoldsboroughOllieGrandad008Subclipe1">
						<name>GoldsboroughOllieGrandad008Subclipe</name>
						<pathurl>file://localhost/Volumes/Michael's%20Passport/woodbdrigenov2011media/GoldsboroughOllieGrandad008Subclipe</pathurl>
						<rate>
							<timebase>25</timebase>
						</rate>
						<duration>175</duration>
						<metadata>
							<storage>QuickTime</storage>
							<key>com.apple.finalcutstudio.media.uuid</key>
							<size>36</size>
							<type>UTF8</type>
							<value>E34A13AD-6CC8-45DC-8EB2-BCF38174F4AE</value>
						</metadata>
						<metadata>
							<storage>QuickTime</storage>
							<key>com.apple.finalcutstudio.media.history.uuid</key>
							<size>36</size>
							<type>UTF8</type>
							<value>188DE391-A0A1-4955-B829-B383BC6B272A</value>
						</metadata>
						<timecode>
							<rate>
								<timebase>25</timebase>
							</rate>
							<string>00:01:59:08</string>
							<frame>2983</frame>
							<displayformat>NDF</displayformat>
							<source>source</source>
							<reel>
								<name>Goldsbrough Ollie Grandad</name>
							</reel>
						</timecode>
						<media>
							<video>
								<duration>175</duration>
								<samplecharacteristics>
									<width>1280</width>
									<height>720</height>
								</samplecharacteristics>
							</video>
							<audio>
								<samplecharacteristics>
									<samplerate>48000</samplerate>
									<depth>16</depth>
								</samplecharacteristics>
								<channelcount>2</channelcount>
								<layout>stereo</layout>
								<audiochannel>
									<sourcechannel>1</sourcechannel>
									<channellabel>left</channellabel>
								</audiochannel>
								<audiochannel>
									<sourcechannel>2</sourcechannel>
									<channellabel>right</channellabel>
								</audiochannel>
							</audio>
						</media>
					</file>
					<sourcetrack>
						<mediatype>video</mediatype>
					</sourcetrack>
					<fielddominance>none</fielddominance>
					<itemhistory>
						<uuid>DD856F13-CAA2-4DBA-A27E-2E25FF31D65C</uuid>
						<uuid>83D7496F-4BC8-4DCF-88D8-05D3592A8172</uuid>
					</itemhistory>
				</clipitem>
				<clipitem id="GoldsboroughOllieGrandad008Subclipf">
					<name>GoldsboroughOllieGrandad008Subclipf</name>
					<duration>291</duration>
					<rate>
						<ntsc>FALSE</ntsc>
						<timebase>25</timebase>
					</rate>
					<in>0</in>
					<out>290</out>
					<start>48541</start>
					<end>48831</end>
					<pixelaspectratio>Square</pixelaspectratio>
					<anamorphic>FALSE</anamorphic>
					<alphatype>none</alphatype>
					<logginginfo>
						<scene/>
						<shottake/>
						<lognote/>
						<good>FALSE</good>
					</logginginfo>
					<labels>
						<label2/>
					</labels>
					<comments>
						<mastercomment1/>
						<mastercomment2/>
						<mastercomment3/>
						<mastercomment4/>
					</comments>
					<file id="GoldsboroughOllieGrandad008Subclipf1">
						<name>GoldsboroughOllieGrandad008Subclipf</name>
						<pathurl>file://localhost/Volumes/Michael's%20Passport/woodbdrigenov2011media/GoldsboroughOllieGrandad008Subclipf</pathurl>
						<rate>
							<timebase>25</timebase>
						</rate>
						<duration>291</duration>
						<metadata>
							<storage>QuickTime</storage>
							<key>com.apple.finalcutstudio.media.uuid</key>
							<size>36</size>
							<type>UTF8</type>
							<value>FC7DFC96-9561-4A0D-910C-F6E4C3440476</value>
						</metadata>
						<metadata>
							<storage>QuickTime</storage>
							<key>com.apple.finalcutstudio.media.history.uuid</key>
							<size>36</size>
							<type>UTF8</type>
							<value>188DE391-A0A1-4955-B829-B383BC6B272A</value>
						</metadata>
						<timecode>
							<rate>
								<timebase>25</timebase>
							</rate>
							<string>00:02:13:06</string>
							<frame>3331</frame>
							<displayformat>NDF</displayformat>
							<source>source</source>
							<reel>
								<name>Goldsbrough Ollie Grandad</name>
							</reel>
						</timecode>
						<media>
							<video>
								<duration>291</duration>
								<samplecharacteristics>
									<width>1280</width>
									<height>720</height>
								</samplecharacteristics>
							</video>
							<audio>
								<samplecharacteristics>
									<samplerate>48000</samplerate>
									<depth>16</depth>
								</samplecharacteristics>
								<channelcount>2</channelcount>
								<layout>stereo</layout>
								<audiochannel>
									<sourcechannel>1</sourcechannel>
									<channellabel>left</channellabel>
								</audiochannel>
								<audiochannel>
									<sourcechannel>2</sourcechannel>
									<channellabel>right</channellabel>
								</audiochannel>
							</audio>
						</media>
					</file>
					<sourcetrack>
						<mediatype>video</mediatype>
					</sourcetrack>
					<fielddominance>none</fielddominance>
					<itemhistory>
						<uuid>850C6994-D83C-4CCD-AD10-4D823B52F1BF</uuid>
						<uuid>84BACC1D-4CD6-49C2-862A-B458ABA6F01F</uuid>
					</itemhistory>
				</clipitem>
				<clipitem id="GoldsboroughOllieGrandad008Subclipg">
					<name>GoldsboroughOllieGrandad008Subclipg</name>
					<duration>169</duration>
					<rate>
						<ntsc>FALSE</ntsc>
						<timebase>25</timebase>
					</rate>
					<in>0</in>
					<out>169</out>
					<start>49033</start>
					<end>49202</end>
					<pixelaspectratio>Square</pixelaspectratio>
					<anamorphic>FALSE</anamorphic>
					<alphatype>none</alphatype>
					<logginginfo>
						<scene/>
						<shottake/>
						<lognote/>
						<good>FALSE</good>
					</logginginfo>
					<labels>
						<label2/>
					</labels>
					<comments>
						<mastercomment1/>
						<mastercomment2/>
						<mastercomment3/>
						<mastercomment4/>
					</comments>
					<file id="GoldsboroughOllieGrandad008Subclipg1">
						<name>GoldsboroughOllieGrandad008Subclipg</name>
						<pathurl>file://localhost/Volumes/Michael's%20Passport/woodbdrigenov2011media/GoldsboroughOllieGrandad008Subclipg</pathurl>
						<rate>
							<timebase>25</timebase>
						</rate>
						<duration>169</duration>
						<metadata>
							<storage>QuickTime</storage>
							<key>com.apple.finalcutstudio.media.uuid</key>
							<size>36</size>
							<type>UTF8</type>
							<value>347FCED1-3D49-4000-9B61-5710AB1BACA9</value>
						</metadata>
						<metadata>
							<storage>QuickTime</storage>
							<key>com.apple.finalcutstudio.media.history.uuid</key>
							<size>36</size>
							<type>UTF8</type>
							<value>188DE391-A0A1-4955-B829-B383BC6B272A</value>
						</metadata>
						<timecode>
							<rate>
								<timebase>25</timebase>
							</rate>
							<string>00:02:32:23</string>
							<frame>3823</frame>
							<displayformat>NDF</displayformat>
							<source>source</source>
							<reel>
								<name>Goldsbrough Ollie Grandad</name>
							</reel>
						</timecode>
						<media>
							<video>
								<duration>169</duration>
								<samplecharacteristics>
									<width>1280</width>
									<height>720</height>
								</samplecharacteristics>
							</video>
							<audio>
								<samplecharacteristics>
									<samplerate>48000</samplerate>
									<depth>16</depth>
								</samplecharacteristics>
								<channelcount>2</channelcount>
								<layout>stereo</layout>
								<audiochannel>
									<sourcechannel>1</sourcechannel>
									<channellabel>left</channellabel>
								</audiochannel>
								<audiochannel>
									<sourcechannel>2</sourcechannel>
									<channellabel>right</channellabel>
								</audiochannel>
							</audio>
						</media>
					</file>
					<sourcetrack>
						<mediatype>video</mediatype>
					</sourcetrack>
					<fielddominance>none</fielddominance>
					<itemhistory>
						<uuid>0EBAEE71-484A-4382-9BC3-4123D0DA8EB9</uuid>
						<uuid>E7483BF0-5E5D-452B-9154-46C3D88D5FC2</uuid>
					</itemhistory>
				</clipitem>
				<clipitem id="GoldsboroughOllieGrandad008Subcliph">
					<name>GoldsboroughOllieGrandad008Subcliph</name>
					<duration>410</duration>
					<rate>
						<ntsc>FALSE</ntsc>
						<timebase>25</timebase>
					</rate>
					<in>0</in>
					<out>409</out>
					<start>49393</start>
					<end>49802</end>
					<pixelaspectratio>Square</pixelaspectratio>
					<anamorphic>FALSE</anamorphic>
					<alphatype>none</alphatype>
					<logginginfo>
						<scene/>
						<shottake/>
						<lognote/>
						<good>FALSE</good>
					</logginginfo>
					<labels>
						<label2/>
					</labels>
					<comments>
						<mastercomment1/>
						<mastercomment2/>
						<mastercomment3/>
						<mastercomment4/>
					</comments>
					<file id="GoldsboroughOllieGrandad008Subcliph1">
						<name>GoldsboroughOllieGrandad008Subcliph</name>
						<pathurl>file://localhost/Volumes/Michael's%20Passport/woodbdrigenov2011media/GoldsboroughOllieGrandad008Subcliph</pathurl>
						<rate>
							<timebase>25</timebase>
						</rate>
						<duration>410</duration>
						<metadata>
							<storage>QuickTime</storage>
							<key>com.apple.finalcutstudio.media.uuid</key>
							<size>36</size>
							<type>UTF8</type>
							<value>77F8AE35-CD75-4037-8727-F8D70E5EF6CD</value>
						</metadata>
						<metadata>
							<storage>QuickTime</storage>
							<key>com.apple.finalcutstudio.media.history.uuid</key>
							<size>36</size>
							<type>UTF8</type>
							<value>188DE391-A0A1-4955-B829-B383BC6B272A</value>
						</metadata>
						<timecode>
							<rate>
								<timebase>25</timebase>
							</rate>
							<string>00:02:47:08</string>
							<frame>4183</frame>
							<displayformat>NDF</displayformat>
							<source>source</source>
							<reel>
								<name>Goldsbrough Ollie Grandad</name>
							</reel>
						</timecode>
						<media>
							<video>
								<duration>410</duration>
								<samplecharacteristics>
									<width>1280</width>
									<height>720</height>
								</samplecharacteristics>
							</video>
							<audio>
								<samplecharacteristics>
									<samplerate>48000</samplerate>
									<depth>16</depth>
								</samplecharacteristics>
								<channelcount>2</channelcount>
								<layout>stereo</layout>
								<audiochannel>
									<sourcechannel>1</sourcechannel>
									<channellabel>left</channellabel>
								</audiochannel>
								<audiochannel>
									<sourcechannel>2</sourcechannel>
									<channellabel>right</channellabel>
								</audiochannel>
							</audio>
						</media>
					</file>
					<sourcetrack>
						<mediatype>video</mediatype>
					</sourcetrack>
					<fielddominance>none</fielddominance>
					<itemhistory>
						<uuid>9FB83F89-F8E4-4E8B-8613-8721CD75F5CC</uuid>
						<uuid>69A6988C-F86A-44F4-B841-60839601A717</uuid>
					</itemhistory>
				</clipitem>
				<clipitem id="GoldsboroughOllieGrandad008Subclipi">
					<name>GoldsboroughOllieGrandad008Subclipi</name>
					<duration>259</duration>
					<rate>
						<ntsc>FALSE</ntsc>
						<timebase>25</timebase>
					</rate>
					<in>0</in>
					<out>259</out>
					<start>49875</start>
					<end>50134</end>
					<pixelaspectratio>Square</pixelaspectratio>
					<anamorphic>FALSE</anamorphic>
					<alphatype>none</alphatype>
					<logginginfo>
						<scene/>
						<shottake/>
						<lognote/>
						<good>FALSE</good>
					</logginginfo>
					<labels>
						<label2/>
					</labels>
					<comments>
						<mastercomment1/>
						<mastercomment2/>
						<mastercomment3/>
						<mastercomment4/>
					</comments>
					<file id="GoldsboroughOllieGrandad008Subclipi1">
						<name>GoldsboroughOllieGrandad008Subclipi</name>
						<pathurl>file://localhost/Volumes/Michael's%20Passport/woodbdrigenov2011media/GoldsboroughOllieGrandad008Subclipi</pathurl>
						<rate>
							<timebase>25</timebase>
						</rate>
						<duration>259</duration>
						<metadata>
							<storage>QuickTime</storage>
							<key>com.apple.finalcutstudio.media.uuid</key>
							<size>36</size>
							<type>UTF8</type>
							<value>04E07EE9-DF12-4A13-83B2-9EB4CA18DAE3</value>
						</metadata>
						<metadata>
							<storage>QuickTime</storage>
							<key>com.apple.finalcutstudio.media.history.uuid</key>
							<size>36</size>
							<type>UTF8</type>
							<value>188DE391-A0A1-4955-B829-B383BC6B272A</value>
						</metadata>
						<timecode>
							<rate>
								<timebase>25</timebase>
							</rate>
							<string>00:03:06:15</string>
							<frame>4665</frame>
							<displayformat>NDF</displayformat>
							<source>source</source>
							<reel>
								<name>Goldsbrough Ollie Grandad</name>
							</reel>
						</timecode>
						<media>
							<video>
								<duration>259</duration>
								<samplecharacteristics>
									<width>1280</width>
									<height>720</height>
								</samplecharacteristics>
							</video>
							<audio>
								<samplecharacteristics>
									<samplerate>48000</samplerate>
									<depth>16</depth>
								</samplecharacteristics>
								<channelcount>2</channelcount>
								<layout>stereo</layout>
								<audiochannel>
									<sourcechannel>1</sourcechannel>
									<channellabel>left</channellabel>
								</audiochannel>
								<audiochannel>
									<sourcechannel>2</sourcechannel>
									<channellabel>right</channellabel>
								</audiochannel>
							</audio>
						</media>
					</file>
					<sourcetrack>
						<mediatype>video</mediatype>
					</sourcetrack>
					<fielddominance>none</fielddominance>
					<itemhistory>
						<uuid>60C18A1A-E916-420F-BC95-AC0218E2764C</uuid>
						<uuid>DD91EBA9-1274-45AB-8BB4-0B07E3FA196B</uuid>
					</itemhistory>
				</clipitem>
				<clipitem id="GoldsboroughOllieGrandad008Subclipj">
					<name>GoldsboroughOllieGrandad008Subclipj</name>
					<duration>344</duration>
					<rate>
						<ntsc>FALSE</ntsc>
						<timebase>25</timebase>
					</rate>
					<in>0</in>
					<out>343</out>
					<start>50214</start>
					<end>50557</end>
					<pixelaspectratio>Square</pixelaspectratio>
					<anamorphic>FALSE</anamorphic>
					<alphatype>none</alphatype>
					<logginginfo>
						<scene/>
						<shottake/>
						<lognote/>
						<good>FALSE</good>
					</logginginfo>
					<labels>
						<label2/>
					</labels>
					<comments>
						<mastercomment1/>
						<mastercomment2/>
						<mastercomment3/>
						<mastercomment4/>
					</comments>
					<file id="GoldsboroughOllieGrandad008Subclipj1">
						<name>GoldsboroughOllieGrandad008Subclipj</name>
						<pathurl>file://localhost/Volumes/Michael's%20Passport/woodbdrigenov2011media/GoldsboroughOllieGrandad008Subclipj</pathurl>
						<rate>
							<timebase>25</timebase>
						</rate>
						<duration>344</duration>
						<metadata>
							<storage>QuickTime</storage>
							<key>com.apple.finalcutstudio.media.uuid</key>
							<size>36</size>
							<type>UTF8</type>
							<value>7FC80ABF-F6EB-4EA4-AB45-C042D4A96DFB</value>
						</metadata>
						<metadata>
							<storage>QuickTime</storage>
							<key>com.apple.finalcutstudio.media.history.uuid</key>
							<size>36</size>
							<type>UTF8</type>
							<value>188DE391-A0A1-4955-B829-B383BC6B272A</value>
						</metadata>
						<timecode>
							<rate>
								<timebase>25</timebase>
							</rate>
							<string>00:03:20:04</string>
							<frame>5004</frame>
							<displayformat>NDF</displayformat>
							<source>source</source>
							<reel>
								<name>Goldsbrough Ollie Grandad</name>
							</reel>
						</timecode>
						<media>
							<video>
								<duration>344</duration>
								<samplecharacteristics>
									<width>1280</width>
									<height>720</height>
								</samplecharacteristics>
							</video>
							<audio>
								<samplecharacteristics>
									<samplerate>48000</samplerate>
									<depth>16</depth>
								</samplecharacteristics>
								<channelcount>2</channelcount>
								<layout>stereo</layout>
								<audiochannel>
									<sourcechannel>1</sourcechannel>
									<channellabel>left</channellabel>
								</audiochannel>
								<audiochannel>
									<sourcechannel>2</sourcechannel>
									<channellabel>right</channellabel>
								</audiochannel>
							</audio>
						</media>
					</file>
					<sourcetrack>
						<mediatype>video</mediatype>
					</sourcetrack>
					<fielddominance>none</fielddominance>
					<itemhistory>
						<uuid>B9241C31-9BE7-469E-A422-FEA0F39ECD6D</uuid>
						<uuid>CD6D0909-74C1-46C9-8DDC-307F82A7F167</uuid>
					</itemhistory>
				</clipitem>
				<clipitem id="GoldsboroughOllieGrandad008Subclipk">
					<name>GoldsboroughOllieGrandad008Subclipk</name>
					<duration>1190</duration>
					<rate>
						<ntsc>FALSE</ntsc>
						<timebase>25</timebase>
					</rate>
					<in>0</in>
					<out>1189</out>
					<start>50728</start>
					<end>51917</end>
					<pixelaspectratio>Square</pixelaspectratio>
					<anamorphic>FALSE</anamorphic>
					<alphatype>none</alphatype>
					<logginginfo>
						<scene/>
						<shottake/>
						<lognote/>
						<good>FALSE</good>
					</logginginfo>
					<labels>
						<label2/>
					</labels>
					<comments>
						<mastercomment1/>
						<mastercomment2/>
						<mastercomment3/>
						<mastercomment4/>
					</comments>
					<file id="GoldsboroughOllieGrandad008Subclipk1">
						<name>GoldsboroughOllieGrandad008Subclipk</name>
						<pathurl>file://localhost/Volumes/Michael's%20Passport/woodbdrigenov2011media/GoldsboroughOllieGrandad008Subclipk</pathurl>
						<rate>
							<timebase>25</timebase>
						</rate>
						<duration>1190</duration>
						<metadata>
							<storage>QuickTime</storage>
							<key>com.apple.finalcutstudio.media.uuid</key>
							<size>36</size>
							<type>UTF8</type>
							<value>0329F5F7-CCF4-4A24-9120-3C0A101B9302</value>
						</metadata>
						<metadata>
							<storage>QuickTime</storage>
							<key>com.apple.finalcutstudio.media.history.uuid</key>
							<size>36</size>
							<type>UTF8</type>
							<value>188DE391-A0A1-4955-B829-B383BC6B272A</value>
						</metadata>
						<timecode>
							<rate>
								<timebase>25</timebase>
							</rate>
							<string>00:03:40:18</string>
							<frame>5518</frame>
							<displayformat>NDF</displayformat>
							<source>source</source>
							<reel>
								<name>Goldsbrough Ollie Grandad</name>
							</reel>
						</timecode>
						<media>
							<video>
								<duration>1190</duration>
								<samplecharacteristics>
									<width>1280</width>
									<height>720</height>
								</samplecharacteristics>
							</video>
							<audio>
								<samplecharacteristics>
									<samplerate>48000</samplerate>
									<depth>16</depth>
								</samplecharacteristics>
								<channelcount>2</channelcount>
								<layout>stereo</layout>
								<audiochannel>
									<sourcechannel>1</sourcechannel>
									<channellabel>left</channellabel>
								</audiochannel>
								<audiochannel>
									<sourcechannel>2</sourcechannel>
									<channellabel>right</channellabel>
								</audiochannel>
							</audio>
						</media>
					</file>
					<sourcetrack>
						<mediatype>video</mediatype>
					</sourcetrack>
					<fielddominance>none</fielddominance>
					<itemhistory>
						<uuid>4B9F2F28-CE2E-4F89-B21D-F0FD3786A632</uuid>
						<uuid>CCC4C8E5-604D-45CF-884C-5B27E3951A18</uuid>
					</itemhistory>
				</clipitem>
				<clipitem id="GoldsboroughOllieGrandad009Subclipa">
					<name>GoldsboroughOllieGrandad009Subclipa</name>
					<duration>439</duration>
					<rate>
						<ntsc>FALSE</ntsc>
						<timebase>25</timebase>
					</rate>
					<in>0</in>
					<out>438</out>
					<start>54942</start>
					<end>55380</end>
					<pixelaspectratio>Square</pixelaspectratio>
					<anamorphic>FALSE</anamorphic>
					<alphatype>none</alphatype>
					<logginginfo>
						<scene/>
						<shottake/>
						<lognote/>
						<good>FALSE</good>
					</logginginfo>
					<labels>
						<label2/>
					</labels>
					<comments>
						<mastercomment1/>
						<mastercomment2/>
						<mastercomment3/>
						<mastercomment4/>
					</comments>
					<file id="GoldsboroughOllieGrandad009Subclipa1">
						<name>GoldsboroughOllieGrandad009Subclipa</name>
						<pathurl>file://localhost/Volumes/Michael's%20Passport/woodbdrigenov2011media/GoldsboroughOllieGrandad009Subclipa</pathurl>
						<rate>
							<timebase>25</timebase>
						</rate>
						<duration>439</duration>
						<metadata>
							<storage>QuickTime</storage>
							<key>com.apple.finalcutstudio.media.uuid</key>
							<size>36</size>
							<type>UTF8</type>
							<value>D513D7DB-1B4D-4803-BD36-EF0BCDD238F7</value>
						</metadata>
						<metadata>
							<storage>QuickTime</storage>
							<key>com.apple.finalcutstudio.media.history.uuid</key>
							<size>36</size>
							<type>UTF8</type>
							<value>58BAF759-1972-4CDB-8E6D-965EA08621D1</value>
						</metadata>
						<timecode>
							<rate>
								<timebase>25</timebase>
							</rate>
							<string>00:00:00:00</string>
							<frame>0</frame>
							<displayformat>NDF</displayformat>
							<source>source</source>
							<reel>
								<name>Goldsbrough Ollie Grandad</name>
							</reel>
						</timecode>
						<media>
							<video>
								<duration>439</duration>
								<samplecharacteristics>
									<width>1280</width>
									<height>720</height>
								</samplecharacteristics>
							</video>
							<audio>
								<samplecharacteristics>
									<samplerate>48000</samplerate>
									<depth>16</depth>
								</samplecharacteristics>
								<channelcount>2</channelcount>
								<layout>stereo</layout>
								<audiochannel>
									<sourcechannel>1</sourcechannel>
									<channellabel>left</channellabel>
								</audiochannel>
								<audiochannel>
									<sourcechannel>2</sourcechannel>
									<channellabel>right</channellabel>
								</audiochannel>
							</audio>
						</media>
					</file>
					<sourcetrack>
						<mediatype>video</mediatype>
					</sourcetrack>
					<fielddominance>none</fielddominance>
					<itemhistory>
						<uuid>9214F660-8CBA-4BD8-969D-6036B14B071E</uuid>
						<uuid>949231A4-FAC1-476C-8BA9-B612D8D4ABE2</uuid>
					</itemhistory>
				</clipitem>
				<clipitem id="GoldsboroughOllieGrandad009Subclipb">
					<name>GoldsboroughOllieGrandad009Subclipb</name>
					<duration>937</duration>
					<rate>
						<ntsc>FALSE</ntsc>
						<timebase>25</timebase>
					</rate>
					<in>0</in>
					<out>937</out>
					<start>55448</start>
					<end>56385</end>
					<pixelaspectratio>Square</pixelaspectratio>
					<anamorphic>FALSE</anamorphic>
					<alphatype>none</alphatype>
					<logginginfo>
						<scene/>
						<shottake/>
						<lognote/>
						<good>FALSE</good>
					</logginginfo>
					<labels>
						<label2/>
					</labels>
					<comments>
						<mastercomment1/>
						<mastercomment2/>
						<mastercomment3/>
						<mastercomment4/>
					</comments>
					<file id="GoldsboroughOllieGrandad009Subclipb1">
						<name>GoldsboroughOllieGrandad009Subclipb</name>
						<pathurl>file://localhost/Volumes/Michael's%20Passport/woodbdrigenov2011media/GoldsboroughOllieGrandad009Subclipb</pathurl>
						<rate>
							<timebase>25</timebase>
						</rate>
						<duration>937</duration>
						<metadata>
							<storage>QuickTime</storage>
							<key>com.apple.finalcutstudio.media.uuid</key>
							<size>36</size>
							<type>UTF8</type>
							<value>9A19AEF2-F568-446E-8ACE-51D7966602AB</value>
						</metadata>
						<metadata>
							<storage>QuickTime</storage>
							<key>com.apple.finalcutstudio.media.history.uuid</key>
							<size>36</size>
							<type>UTF8</type>
							<value>58BAF759-1972-4CDB-8E6D-965EA08621D1</value>
						</metadata>
						<timecode>
							<rate>
								<timebase>25</timebase>
							</rate>
							<string>00:00:20:06</string>
							<frame>506</frame>
							<displayformat>NDF</displayformat>
							<source>source</source>
							<reel>
								<name>Goldsbrough Ollie Grandad</name>
							</reel>
						</timecode>
						<media>
							<video>
								<duration>937</duration>
								<samplecharacteristics>
									<width>1280</width>
									<height>720</height>
								</samplecharacteristics>
							</video>
							<audio>
								<samplecharacteristics>
									<samplerate>48000</samplerate>
									<depth>16</depth>
								</samplecharacteristics>
								<channelcount>2</channelcount>
								<layout>stereo</layout>
								<audiochannel>
									<sourcechannel>1</sourcechannel>
									<channellabel>left</channellabel>
								</audiochannel>
								<audiochannel>
									<sourcechannel>2</sourcechannel>
									<channellabel>right</channellabel>
								</audiochannel>
							</audio>
						</media>
					</file>
					<sourcetrack>
						<mediatype>video</mediatype>
					</sourcetrack>
					<fielddominance>none</fielddominance>
					<itemhistory>
						<uuid>03D76FE8-74EC-4258-8806-7E3F1734AC8E</uuid>
						<uuid>76037FBA-3D6D-470D-B6A1-3DA7CAB02D65</uuid>
					</itemhistory>
				</clipitem>
				<clipitem id="GoldsboroughOllieGrandad015Subclipa">
					<name>GoldsboroughOllieGrandad015Subclipa</name>
					<duration>43</duration>
					<rate>
						<ntsc>FALSE</ntsc>
						<timebase>25</timebase>
					</rate>
					<in>0</in>
					<out>43</out>
					<start>58809</start>
					<end>58852</end>
					<pixelaspectratio>Square</pixelaspectratio>
					<anamorphic>FALSE</anamorphic>
					<alphatype>none</alphatype>
					<logginginfo>
						<scene/>
						<shottake/>
						<lognote/>
						<good>FALSE</good>
					</logginginfo>
					<labels>
						<label2/>
					</labels>
					<comments>
						<mastercomment1/>
						<mastercomment2/>
						<mastercomment3/>
						<mastercomment4/>
					</comments>
					<file id="GoldsboroughOllieGrandad015Subclipa1">
						<name>GoldsboroughOllieGrandad015Subclipa</name>
						<pathurl>file://localhost/Volumes/Michael's%20Passport/woodbdrigenov2011media/GoldsboroughOllieGrandad015Subclipa</pathurl>
						<rate>
							<timebase>25</timebase>
						</rate>
						<duration>43</duration>
						<metadata>
							<storage>QuickTime</storage>
							<key>com.apple.finalcutstudio.media.uuid</key>
							<size>36</size>
							<type>UTF8</type>
							<value>D4C582DC-305B-441C-9055-C7A353656A46</value>
						</metadata>
						<metadata>
							<storage>QuickTime</storage>
							<key>com.apple.finalcutstudio.media.history.uuid</key>
							<size>36</size>
							<type>UTF8</type>
							<value>C93FA0A5-3920-4548-AC5A-42B04C1B03A9</value>
						</metadata>
						<timecode>
							<rate>
								<timebase>25</timebase>
							</rate>
							<string>00:00:00:00</string>
							<frame>0</frame>
							<displayformat>NDF</displayformat>
							<source>source</source>
							<reel>
								<name>Goldsbrough Ollie Grandad</name>
							</reel>
						</timecode>
						<media>
							<video>
								<duration>43</duration>
								<samplecharacteristics>
									<width>1280</width>
									<height>720</height>
								</samplecharacteristics>
							</video>
							<audio>
								<samplecharacteristics>
									<samplerate>48000</samplerate>
									<depth>16</depth>
								</samplecharacteristics>
								<channelcount>2</channelcount>
								<layout>stereo</layout>
								<audiochannel>
									<sourcechannel>1</sourcechannel>
									<channellabel>left</channellabel>
								</audiochannel>
								<audiochannel>
									<sourcechannel>2</sourcechannel>
									<channellabel>right</channellabel>
								</audiochannel>
							</audio>
						</media>
					</file>
					<sourcetrack>
						<mediatype>video</mediatype>
					</sourcetrack>
					<fielddominance>none</fielddominance>
					<itemhistory>
						<uuid>71BB50A2-2D5E-43A8-97B3-E58076A1C3D5</uuid>
						<uuid>D1CC8609-7539-47A8-A8A9-D8D512D123C4</uuid>
					</itemhistory>
				</clipitem>
				<clipitem id="GoldsboroughOllieGrandad010Subclipa">
					<name>GoldsboroughOllieGrandad010Subclipa</name>
					<duration>153</duration>
					<rate>
						<ntsc>FALSE</ntsc>
						<timebase>25</timebase>
					</rate>
					<in>0</in>
					<out>152</out>
					<start>59015</start>
					<end>59167</end>
					<pixelaspectratio>Square</pixelaspectratio>
					<anamorphic>FALSE</anamorphic>
					<alphatype>none</alphatype>
					<logginginfo>
						<scene/>
						<shottake/>
						<lognote/>
						<good>FALSE</good>
					</logginginfo>
					<labels>
						<label2/>
					</labels>
					<comments>
						<mastercomment1/>
						<mastercomment2/>
						<mastercomment3/>
						<mastercomment4/>
					</comments>
					<file id="GoldsboroughOllieGrandad010Subclipa1">
						<name>GoldsboroughOllieGrandad010Subclipa</name>
						<pathurl>file://localhost/Volumes/Michael's%20Passport/woodbdrigenov2011media/GoldsboroughOllieGrandad010Subclipa</pathurl>
						<rate>
							<timebase>25</timebase>
						</rate>
						<duration>153</duration>
						<metadata>
							<storage>QuickTime</storage>
							<key>com.apple.finalcutstudio.media.uuid</key>
							<size>36</size>
							<type>UTF8</type>
							<value>A72F74F4-DE1D-43A8-AEF3-728B7D93B080</value>
						</metadata>
						<metadata>
							<storage>QuickTime</storage>
							<key>com.apple.finalcutstudio.media.history.uuid</key>
							<size>36</size>
							<type>UTF8</type>
							<value>11F670FD-4D71-4724-A955-6D3049ED4365</value>
						</metadata>
						<timecode>
							<rate>
								<timebase>25</timebase>
							</rate>
							<string>00:00:00:00</string>
							<frame>0</frame>
							<displayformat>NDF</displayformat>
							<source>source</source>
							<reel>
								<name>Goldsbrough Ollie Grandad</name>
							</reel>
						</timecode>
						<media>
							<video>
								<duration>153</duration>
								<samplecharacteristics>
									<width>1280</width>
									<height>720</height>
								</samplecharacteristics>
							</video>
							<audio>
								<samplecharacteristics>
									<samplerate>48000</samplerate>
									<depth>16</depth>
								</samplecharacteristics>
								<channelcount>2</channelcount>
								<layout>stereo</layout>
								<audiochannel>
									<sourcechannel>1</sourcechannel>
									<channellabel>left</channellabel>
								</audiochannel>
								<audiochannel>
									<sourcechannel>2</sourcechannel>
									<channellabel>right</channellabel>
								</audiochannel>
							</audio>
						</media>
					</file>
					<sourcetrack>
						<mediatype>video</mediatype>
					</sourcetrack>
					<fielddominance>none</fielddominance>
					<itemhistory>
						<uuid>CD048950-AFB5-4D31-95BC-D7F91EFD37E8</uuid>
						<uuid>32240788-381E-45E1-A05A-3991BE1C5360</uuid>
					</itemhistory>
				</clipitem>
				<clipitem id="GoldsboroughOllieGrandad010Subclipb">
					<name>GoldsboroughOllieGrandad010Subclipb</name>
					<duration>315</duration>
					<rate>
						<ntsc>FALSE</ntsc>
						<timebase>25</timebase>
					</rate>
					<in>0</in>
					<out>314</out>
					<start>59268</start>
					<end>59582</end>
					<pixelaspectratio>Square</pixelaspectratio>
					<anamorphic>FALSE</anamorphic>
					<alphatype>none</alphatype>
					<logginginfo>
						<scene/>
						<shottake/>
						<lognote/>
						<good>FALSE</good>
					</logginginfo>
					<labels>
						<label2/>
					</labels>
					<comments>
						<mastercomment1/>
						<mastercomment2/>
						<mastercomment3/>
						<mastercomment4/>
					</comments>
					<file id="GoldsboroughOllieGrandad010Subclipb1">
						<name>GoldsboroughOllieGrandad010Subclipb</name>
						<pathurl>file://localhost/Volumes/Michael's%20Passport/woodbdrigenov2011media/GoldsboroughOllieGrandad010Subclipb</pathurl>
						<rate>
							<timebase>25</timebase>
						</rate>
						<duration>315</duration>
						<metadata>
							<storage>QuickTime</storage>
							<key>com.apple.finalcutstudio.media.uuid</key>
							<size>36</size>
							<type>UTF8</type>
							<value>EF4005A7-2FA0-4ECF-8849-896EC6504C0B</value>
						</metadata>
						<metadata>
							<storage>QuickTime</storage>
							<key>com.apple.finalcutstudio.media.history.uuid</key>
							<size>36</size>
							<type>UTF8</type>
							<value>11F670FD-4D71-4724-A955-6D3049ED4365</value>
						</metadata>
						<timecode>
							<rate>
								<timebase>25</timebase>
							</rate>
							<string>00:00:10:03</string>
							<frame>253</frame>
							<displayformat>NDF</displayformat>
							<source>source</source>
							<reel>
								<name>Goldsbrough Ollie Grandad</name>
							</reel>
						</timecode>
						<media>
							<video>
								<duration>315</duration>
								<samplecharacteristics>
									<width>1280</width>
									<height>720</height>
								</samplecharacteristics>
							</video>
							<audio>
								<samplecharacteristics>
									<samplerate>48000</samplerate>
									<depth>16</depth>
								</samplecharacteristics>
								<channelcount>2</channelcount>
								<layout>stereo</layout>
								<audiochannel>
									<sourcechannel>1</sourcechannel>
									<channellabel>left</channellabel>
								</audiochannel>
								<audiochannel>
									<sourcechannel>2</sourcechannel>
									<channellabel>right</channellabel>
								</audiochannel>
							</audio>
						</media>
					</file>
					<sourcetrack>
						<mediatype>video</mediatype>
					</sourcetrack>
					<fielddominance>none</fielddominance>
					<itemhistory>
						<uuid>FE958765-000D-45CF-AB12-4D621C82B63D</uuid>
						<uuid>864C8B48-ADA1-41A7-BEDB-8FC88558C6F6</uuid>
					</itemhistory>
				</clipitem>
				<clipitem id="GoldsboroughOllieGrandad010Subclipc">
					<name>GoldsboroughOllieGrandad010Subclipc</name>
					<duration>258</duration>
					<rate>
						<ntsc>FALSE</ntsc>
						<timebase>25</timebase>
					</rate>
					<in>0</in>
					<out>257</out>
					<start>59663</start>
					<end>59920</end>
					<pixelaspectratio>Square</pixelaspectratio>
					<anamorphic>FALSE</anamorphic>
					<alphatype>none</alphatype>
					<logginginfo>
						<scene/>
						<shottake/>
						<lognote/>
						<good>FALSE</good>
					</logginginfo>
					<labels>
						<label2/>
					</labels>
					<comments>
						<mastercomment1/>
						<mastercomment2/>
						<mastercomment3/>
						<mastercomment4/>
					</comments>
					<file id="GoldsboroughOllieGrandad010Subclipc1">
						<name>GoldsboroughOllieGrandad010Subclipc</name>
						<pathurl>file://localhost/Volumes/Michael's%20Passport/woodbdrigenov2011media/GoldsboroughOllieGrandad010Subclipc</pathurl>
						<rate>
							<timebase>25</timebase>
						</rate>
						<duration>258</duration>
						<metadata>
							<storage>QuickTime</storage>
							<key>com.apple.finalcutstudio.media.uuid</key>
							<size>36</size>
							<type>UTF8</type>
							<value>7180BE25-3A31-4256-AA34-B18857380DAD</value>
						</metadata>
						<metadata>
							<storage>QuickTime</storage>
							<key>com.apple.finalcutstudio.media.history.uuid</key>
							<size>36</size>
							<type>UTF8</type>
							<value>11F670FD-4D71-4724-A955-6D3049ED4365</value>
						</metadata>
						<timecode>
							<rate>
								<timebase>25</timebase>
							</rate>
							<string>00:00:25:24</string>
							<frame>649</frame>
							<displayformat>NDF</displayformat>
							<source>source</source>
							<reel>
								<name>Goldsbrough Ollie Grandad</name>
							</reel>
						</timecode>
						<media>
							<video>
								<duration>258</duration>
								<samplecharacteristics>
									<width>1280</width>
									<height>720</height>
								</samplecharacteristics>
							</video>
							<audio>
								<samplecharacteristics>
									<samplerate>48000</samplerate>
									<depth>16</depth>
								</samplecharacteristics>
								<channelcount>2</channelcount>
								<layout>stereo</layout>
								<audiochannel>
									<sourcechannel>1</sourcechannel>
									<channellabel>left</channellabel>
								</audiochannel>
								<audiochannel>
									<sourcechannel>2</sourcechannel>
									<channellabel>right</channellabel>
								</audiochannel>
							</audio>
						</media>
					</file>
					<sourcetrack>
						<mediatype>video</mediatype>
					</sourcetrack>
					<fielddominance>none</fielddominance>
					<itemhistory>
						<uuid>DF9442D9-512D-4783-8442-2CB0178C83F8</uuid>
						<uuid>ED19D56A-2505-4CBE-89F1-D0456ADE497D</uuid>
					</itemhistory>
				</clipitem>
				<clipitem id="GoldsboroughOllieGrandad010Subclipd">
					<name>GoldsboroughOllieGrandad010Subclipd</name>
					<duration>108</duration>
					<rate>
						<ntsc>FALSE</ntsc>
						<timebase>25</timebase>
					</rate>
					<in>0</in>
					<out>107</out>
					<start>59920</start>
					<end>60027</end>
					<pixelaspectratio>Square</pixelaspectratio>
					<anamorphic>FALSE</anamorphic>
					<alphatype>none</alphatype>
					<logginginfo>
						<scene/>
						<shottake/>
						<lognote/>
						<good>FALSE</good>
					</logginginfo>
					<labels>
						<label2/>
					</labels>
					<comments>
						<mastercomment1/>
						<mastercomment2/>
						<mastercomment3/>
						<mastercomment4/>
					</comments>
					<file id="GoldsboroughOllieGrandad010Subclipd1">
						<name>GoldsboroughOllieGrandad010Subclipd</name>
						<pathurl>file://localhost/Volumes/Michael's%20Passport/woodbdrigenov2011media/GoldsboroughOllieGrandad010Subclipd</pathurl>
						<rate>
							<timebase>25</timebase>
						</rate>
						<duration>108</duration>
						<metadata>
							<storage>QuickTime</storage>
							<key>com.apple.finalcutstudio.media.uuid</key>
							<size>36</size>
							<type>UTF8</type>
							<value>F96EB591-2C89-4224-8790-5C7A4B7F8385</value>
						</metadata>
						<metadata>
							<storage>QuickTime</storage>
							<key>com.apple.finalcutstudio.media.history.uuid</key>
							<size>36</size>
							<type>UTF8</type>
							<value>11F670FD-4D71-4724-A955-6D3049ED4365</value>
						</metadata>
						<timecode>
							<rate>
								<timebase>25</timebase>
							</rate>
							<string>00:00:36:06</string>
							<frame>906</frame>
							<displayformat>NDF</displayformat>
							<source>source</source>
							<reel>
								<name>Goldsbrough Ollie Grandad</name>
							</reel>
						</timecode>
						<media>
							<video>
								<duration>108</duration>
								<samplecharacteristics>
									<width>1280</width>
									<height>720</height>
								</samplecharacteristics>
							</video>
							<audio>
								<samplecharacteristics>
									<samplerate>48000</samplerate>
									<depth>16</depth>
								</samplecharacteristics>
								<channelcount>2</channelcount>
								<layout>stereo</layout>
								<audiochannel>
									<sourcechannel>1</sourcechannel>
									<channellabel>left</channellabel>
								</audiochannel>
								<audiochannel>
									<sourcechannel>2</sourcechannel>
									<channellabel>right</channellabel>
								</audiochannel>
							</audio>
						</media>
					</file>
					<sourcetrack>
						<mediatype>video</mediatype>
					</sourcetrack>
					<fielddominance>none</fielddominance>
					<itemhistory>
						<uuid>99F9DD87-3E27-4476-BF6F-2CAB59E1B369</uuid>
						<uuid>4B36030A-A484-4DB5-8693-CF25400FF7FF</uuid>
					</itemhistory>
				</clipitem>
				<clipitem id="GoldsboroughOllieGrandad011Subclipa">
					<name>GoldsboroughOllieGrandad011Subclipa</name>
					<duration>125</duration>
					<rate>
						<ntsc>FALSE</ntsc>
						<timebase>25</timebase>
					</rate>
					<in>0</in>
					<out>125</out>
					<start>61506</start>
					<end>61631</end>
					<pixelaspectratio>Square</pixelaspectratio>
					<anamorphic>FALSE</anamorphic>
					<alphatype>none</alphatype>
					<logginginfo>
						<scene/>
						<shottake/>
						<lognote/>
						<good>FALSE</good>
					</logginginfo>
					<labels>
						<label2/>
					</labels>
					<comments>
						<mastercomment1/>
						<mastercomment2/>
						<mastercomment3/>
						<mastercomment4/>
					</comments>
					<file id="GoldsboroughOllieGrandad011Subclipa1">
						<name>GoldsboroughOllieGrandad011Subclipa</name>
						<pathurl>file://localhost/Volumes/Michael's%20Passport/woodbdrigenov2011media/GoldsboroughOllieGrandad011Subclipa</pathurl>
						<rate>
							<timebase>25</timebase>
						</rate>
						<duration>125</duration>
						<metadata>
							<storage>QuickTime</storage>
							<key>com.apple.finalcutstudio.media.uuid</key>
							<size>36</size>
							<type>UTF8</type>
							<value>66DD6ADA-4F6D-42D4-84D0-45EAE1DEE830</value>
						</metadata>
						<metadata>
							<storage>QuickTime</storage>
							<key>com.apple.finalcutstudio.media.history.uuid</key>
							<size>36</size>
							<type>UTF8</type>
							<value>34C7BEFF-C5E9-4070-BF9D-272C3455122A</value>
						</metadata>
						<timecode>
							<rate>
								<timebase>25</timebase>
							</rate>
							<string>00:00:00:00</string>
							<frame>0</frame>
							<displayformat>NDF</displayformat>
							<source>source</source>
							<reel>
								<name>Goldsbrough Ollie Grandad</name>
							</reel>
						</timecode>
						<media>
							<video>
								<duration>125</duration>
								<samplecharacteristics>
									<width>1280</width>
									<height>720</height>
								</samplecharacteristics>
							</video>
							<audio>
								<samplecharacteristics>
									<samplerate>48000</samplerate>
									<depth>16</depth>
								</samplecharacteristics>
								<channelcount>2</channelcount>
								<layout>stereo</layout>
								<audiochannel>
									<sourcechannel>1</sourcechannel>
									<channellabel>left</channellabel>
								</audiochannel>
								<audiochannel>
									<sourcechannel>2</sourcechannel>
									<channellabel>right</channellabel>
								</audiochannel>
							</audio>
						</media>
					</file>
					<sourcetrack>
						<mediatype>video</mediatype>
					</sourcetrack>
					<fielddominance>none</fielddominance>
					<itemhistory>
						<uuid>77A399E3-3637-46FF-AAD1-974162ADCEDB</uuid>
						<uuid>61F98B26-7C87-491F-8272-94085FD1B1AD</uuid>
					</itemhistory>
				</clipitem>
				<clipitem id="GoldsboroughOllieGrandad011Subclipb">
					<name>GoldsboroughOllieGrandad011Subclipb</name>
					<duration>165</duration>
					<rate>
						<ntsc>FALSE</ntsc>
						<timebase>25</timebase>
					</rate>
					<in>0</in>
					<out>165</out>
					<start>61709</start>
					<end>61874</end>
					<pixelaspectratio>Square</pixelaspectratio>
					<anamorphic>FALSE</anamorphic>
					<alphatype>none</alphatype>
					<logginginfo>
						<scene/>
						<shottake/>
						<lognote/>
						<good>FALSE</good>
					</logginginfo>
					<labels>
						<label2/>
					</labels>
					<comments>
						<mastercomment1/>
						<mastercomment2/>
						<mastercomment3/>
						<mastercomment4/>
					</comments>
					<file id="GoldsboroughOllieGrandad011Subclipb1">
						<name>GoldsboroughOllieGrandad011Subclipb</name>
						<pathurl>file://localhost/Volumes/Michael's%20Passport/woodbdrigenov2011media/GoldsboroughOllieGrandad011Subclipb</pathurl>
						<rate>
							<timebase>25</timebase>
						</rate>
						<duration>165</duration>
						<metadata>
							<storage>QuickTime</storage>
							<key>com.apple.finalcutstudio.media.uuid</key>
							<size>36</size>
							<type>UTF8</type>
							<value>9FB90143-1902-4BC0-9F23-D9EBC3D92414</value>
						</metadata>
						<metadata>
							<storage>QuickTime</storage>
							<key>com.apple.finalcutstudio.media.history.uuid</key>
							<size>36</size>
							<type>UTF8</type>
							<value>34C7BEFF-C5E9-4070-BF9D-272C3455122A</value>
						</metadata>
						<timecode>
							<rate>
								<timebase>25</timebase>
							</rate>
							<string>00:00:08:03</string>
							<frame>203</frame>
							<displayformat>NDF</displayformat>
							<source>source</source>
							<reel>
								<name>Goldsbrough Ollie Grandad</name>
							</reel>
						</timecode>
						<media>
							<video>
								<duration>165</duration>
								<samplecharacteristics>
									<width>1280</width>
									<height>720</height>
								</samplecharacteristics>
							</video>
							<audio>
								<samplecharacteristics>
									<samplerate>48000</samplerate>
									<depth>16</depth>
								</samplecharacteristics>
								<channelcount>2</channelcount>
								<layout>stereo</layout>
								<audiochannel>
									<sourcechannel>1</sourcechannel>
									<channellabel>left</channellabel>
								</audiochannel>
								<audiochannel>
									<sourcechannel>2</sourcechannel>
									<channellabel>right</channellabel>
								</audiochannel>
							</audio>
						</media>
					</file>
					<sourcetrack>
						<mediatype>video</mediatype>
					</sourcetrack>
					<fielddominance>none</fielddominance>
					<itemhistory>
						<uuid>0519CD0E-8DBF-433A-8E86-58EDC407137A</uuid>
						<uuid>9C3849D5-EA11-48FE-8500-37508E9CC462</uuid>
					</itemhistory>
				</clipitem>
				<clipitem id="GoldsboroughOllieGrandad011Subclipc">
					<name>GoldsboroughOllieGrandad011Subclipc</name>
					<duration>309</duration>
					<rate>
						<ntsc>FALSE</ntsc>
						<timebase>25</timebase>
					</rate>
					<in>0</in>
					<out>309</out>
					<start>62070</start>
					<end>62379</end>
					<pixelaspectratio>Square</pixelaspectratio>
					<anamorphic>FALSE</anamorphic>
					<alphatype>none</alphatype>
					<logginginfo>
						<scene/>
						<shottake/>
						<lognote/>
						<good>FALSE</good>
					</logginginfo>
					<labels>
						<label2/>
					</labels>
					<comments>
						<mastercomment1/>
						<mastercomment2/>
						<mastercomment3/>
						<mastercomment4/>
					</comments>
					<file id="GoldsboroughOllieGrandad011Subclipc1">
						<name>GoldsboroughOllieGrandad011Subclipc</name>
						<pathurl>file://localhost/Volumes/Michael's%20Passport/woodbdrigenov2011media/GoldsboroughOllieGrandad011Subclipc</pathurl>
						<rate>
							<timebase>25</timebase>
						</rate>
						<duration>309</duration>
						<metadata>
							<storage>QuickTime</storage>
							<key>com.apple.finalcutstudio.media.uuid</key>
							<size>36</size>
							<type>UTF8</type>
							<value>1BB25618-F221-4BA3-800D-BFB0B9F47AD7</value>
						</metadata>
						<metadata>
							<storage>QuickTime</storage>
							<key>com.apple.finalcutstudio.media.history.uuid</key>
							<size>36</size>
							<type>UTF8</type>
							<value>34C7BEFF-C5E9-4070-BF9D-272C3455122A</value>
						</metadata>
						<timecode>
							<rate>
								<timebase>25</timebase>
							</rate>
							<string>00:00:22:14</string>
							<frame>564</frame>
							<displayformat>NDF</displayformat>
							<source>source</source>
							<reel>
								<name>Goldsbrough Ollie Grandad</name>
							</reel>
						</timecode>
						<media>
							<video>
								<duration>309</duration>
								<samplecharacteristics>
									<width>1280</width>
									<height>720</height>
								</samplecharacteristics>
							</video>
							<audio>
								<samplecharacteristics>
									<samplerate>48000</samplerate>
									<depth>16</depth>
								</samplecharacteristics>
								<channelcount>2</channelcount>
								<layout>stereo</layout>
								<audiochannel>
									<sourcechannel>1</sourcechannel>
									<channellabel>left</channellabel>
								</audiochannel>
								<audiochannel>
									<sourcechannel>2</sourcechannel>
									<channellabel>right</channellabel>
								</audiochannel>
							</audio>
						</media>
					</file>
					<sourcetrack>
						<mediatype>video</mediatype>
					</sourcetrack>
					<fielddominance>none</fielddominance>
					<itemhistory>
						<uuid>29B160F0-9870-41DB-9E38-9227D5B23D02</uuid>
						<uuid>E3E1272D-F086-4271-9FDA-D2D9D3F31C9B</uuid>
					</itemhistory>
				</clipitem>
				<clipitem id="GoldsboroughOllieGrandad011Subclipd">
					<name>GoldsboroughOllieGrandad011Subclipd</name>
					<duration>275</duration>
					<rate>
						<ntsc>FALSE</ntsc>
						<timebase>25</timebase>
					</rate>
					<in>0</in>
					<out>274</out>
					<start>62671</start>
					<end>62945</end>
					<pixelaspectratio>Square</pixelaspectratio>
					<anamorphic>FALSE</anamorphic>
					<alphatype>none</alphatype>
					<logginginfo>
						<scene/>
						<shottake/>
						<lognote/>
						<good>FALSE</good>
					</logginginfo>
					<labels>
						<label2/>
					</labels>
					<comments>
						<mastercomment1/>
						<mastercomment2/>
						<mastercomment3/>
						<mastercomment4/>
					</comments>
					<file id="GoldsboroughOllieGrandad011Subclipd1">
						<name>GoldsboroughOllieGrandad011Subclipd</name>
						<pathurl>file://localhost/Volumes/Michael's%20Passport/woodbdrigenov2011media/GoldsboroughOllieGrandad011Subclipd</pathurl>
						<rate>
							<timebase>25</timebase>
						</rate>
						<duration>275</duration>
						<metadata>
							<storage>QuickTime</storage>
							<key>com.apple.finalcutstudio.media.uuid</key>
							<size>36</size>
							<type>UTF8</type>
							<value>676AC0B8-0160-45B3-81C2-741962BAD096</value>
						</metadata>
						<metadata>
							<storage>QuickTime</storage>
							<key>com.apple.finalcutstudio.media.history.uuid</key>
							<size>36</size>
							<type>UTF8</type>
							<value>34C7BEFF-C5E9-4070-BF9D-272C3455122A</value>
						</metadata>
						<timecode>
							<rate>
								<timebase>25</timebase>
							</rate>
							<string>00:00:46:15</string>
							<frame>1165</frame>
							<displayformat>NDF</displayformat>
							<source>source</source>
							<reel>
								<name>Goldsbrough Ollie Grandad</name>
							</reel>
						</timecode>
						<media>
							<video>
								<duration>275</duration>
								<samplecharacteristics>
									<width>1280</width>
									<height>720</height>
								</samplecharacteristics>
							</video>
							<audio>
								<samplecharacteristics>
									<samplerate>48000</samplerate>
									<depth>16</depth>
								</samplecharacteristics>
								<channelcount>2</channelcount>
								<layout>stereo</layout>
								<audiochannel>
									<sourcechannel>1</sourcechannel>
									<channellabel>left</channellabel>
								</audiochannel>
								<audiochannel>
									<sourcechannel>2</sourcechannel>
									<channellabel>right</channellabel>
								</audiochannel>
							</audio>
						</media>
					</file>
					<sourcetrack>
						<mediatype>video</mediatype>
					</sourcetrack>
					<fielddominance>none</fielddominance>
					<itemhistory>
						<uuid>4F8B5974-EFBC-4DCA-AA4A-2D8A565AB8B8</uuid>
						<uuid>087AA88D-32EB-49B9-897C-CD97D3944162</uuid>
					</itemhistory>
				</clipitem>
				<clipitem id="GoldsboroughOllieGrandad011Subclipe">
					<name>GoldsboroughOllieGrandad011Subclipe</name>
					<duration>132</duration>
					<rate>
						<ntsc>FALSE</ntsc>
						<timebase>25</timebase>
					</rate>
					<in>0</in>
					<out>132</out>
					<start>62988</start>
					<end>63120</end>
					<pixelaspectratio>Square</pixelaspectratio>
					<anamorphic>FALSE</anamorphic>
					<alphatype>none</alphatype>
					<logginginfo>
						<scene/>
						<shottake/>
						<lognote/>
						<good>FALSE</good>
					</logginginfo>
					<labels>
						<label2/>
					</labels>
					<comments>
						<mastercomment1/>
						<mastercomment2/>
						<mastercomment3/>
						<mastercomment4/>
					</comments>
					<file id="GoldsboroughOllieGrandad011Subclipe1">
						<name>GoldsboroughOllieGrandad011Subclipe</name>
						<pathurl>file://localhost/Volumes/Michael's%20Passport/woodbdrigenov2011media/GoldsboroughOllieGrandad011Subclipe</pathurl>
						<rate>
							<timebase>25</timebase>
						</rate>
						<duration>132</duration>
						<metadata>
							<storage>QuickTime</storage>
							<key>com.apple.finalcutstudio.media.uuid</key>
							<size>36</size>
							<type>UTF8</type>
							<value>E706D4DD-DBFD-45D5-B848-2FE76FAE7A77</value>
						</metadata>
						<metadata>
							<storage>QuickTime</storage>
							<key>com.apple.finalcutstudio.media.history.uuid</key>
							<size>36</size>
							<type>UTF8</type>
							<value>34C7BEFF-C5E9-4070-BF9D-272C3455122A</value>
						</metadata>
						<timecode>
							<rate>
								<timebase>25</timebase>
							</rate>
							<string>00:00:59:07</string>
							<frame>1482</frame>
							<displayformat>NDF</displayformat>
							<source>source</source>
							<reel>
								<name>Goldsbrough Ollie Grandad</name>
							</reel>
						</timecode>
						<media>
							<video>
								<duration>132</duration>
								<samplecharacteristics>
									<width>1280</width>
									<height>720</height>
								</samplecharacteristics>
							</video>
							<audio>
								<samplecharacteristics>
									<samplerate>48000</samplerate>
									<depth>16</depth>
								</samplecharacteristics>
								<channelcount>2</channelcount>
								<layout>stereo</layout>
								<audiochannel>
									<sourcechannel>1</sourcechannel>
									<channellabel>left</channellabel>
								</audiochannel>
								<audiochannel>
									<sourcechannel>2</sourcechannel>
									<channellabel>right</channellabel>
								</audiochannel>
							</audio>
						</media>
					</file>
					<sourcetrack>
						<mediatype>video</mediatype>
					</sourcetrack>
					<fielddominance>none</fielddominance>
					<itemhistory>
						<uuid>2EC73039-75AF-422D-86BD-6B480B8377E1</uuid>
						<uuid>9A331120-B7B7-4193-81F4-01339C6EFE05</uuid>
					</itemhistory>
				</clipitem>
				<clipitem id="GoldsboroughOllieGrandad011Subclipf">
					<name>GoldsboroughOllieGrandad011Subclipf</name>
					<duration>190</duration>
					<rate>
						<ntsc>FALSE</ntsc>
						<timebase>25</timebase>
					</rate>
					<in>0</in>
					<out>190</out>
					<start>63191</start>
					<end>63381</end>
					<pixelaspectratio>Square</pixelaspectratio>
					<anamorphic>FALSE</anamorphic>
					<alphatype>none</alphatype>
					<logginginfo>
						<scene/>
						<shottake/>
						<lognote/>
						<good>FALSE</good>
					</logginginfo>
					<labels>
						<label2/>
					</labels>
					<comments>
						<mastercomment1/>
						<mastercomment2/>
						<mastercomment3/>
						<mastercomment4/>
					</comments>
					<file id="GoldsboroughOllieGrandad011Subclipf1">
						<name>GoldsboroughOllieGrandad011Subclipf</name>
						<pathurl>file://localhost/Volumes/Michael's%20Passport/woodbdrigenov2011media/GoldsboroughOllieGrandad011Subclipf</pathurl>
						<rate>
							<timebase>25</timebase>
						</rate>
						<duration>190</duration>
						<metadata>
							<storage>QuickTime</storage>
							<key>com.apple.finalcutstudio.media.uuid</key>
							<size>36</size>
							<type>UTF8</type>
							<value>2A7716F9-700F-44BE-94F5-11576239D290</value>
						</metadata>
						<metadata>
							<storage>QuickTime</storage>
							<key>com.apple.finalcutstudio.media.history.uuid</key>
							<size>36</size>
							<type>UTF8</type>
							<value>34C7BEFF-C5E9-4070-BF9D-272C3455122A</value>
						</metadata>
						<timecode>
							<rate>
								<timebase>25</timebase>
							</rate>
							<string>00:01:07:10</string>
							<frame>1685</frame>
							<displayformat>NDF</displayformat>
							<source>source</source>
							<reel>
								<name>Goldsbrough Ollie Grandad</name>
							</reel>
						</timecode>
						<media>
							<video>
								<duration>190</duration>
								<samplecharacteristics>
									<width>1280</width>
									<height>720</height>
								</samplecharacteristics>
							</video>
							<audio>
								<samplecharacteristics>
									<samplerate>48000</samplerate>
									<depth>16</depth>
								</samplecharacteristics>
								<channelcount>2</channelcount>
								<layout>stereo</layout>
								<audiochannel>
									<sourcechannel>1</sourcechannel>
									<channellabel>left</channellabel>
								</audiochannel>
								<audiochannel>
									<sourcechannel>2</sourcechannel>
									<channellabel>right</channellabel>
								</audiochannel>
							</audio>
						</media>
					</file>
					<sourcetrack>
						<mediatype>video</mediatype>
					</sourcetrack>
					<fielddominance>none</fielddominance>
					<itemhistory>
						<uuid>14CEF4C0-2252-4062-A9A3-805AA23D3692</uuid>
						<uuid>92A1CE51-DC0A-4B5E-94D7-EB1B3CB59293</uuid>
					</itemhistory>
				</clipitem>
				<clipitem id="GoldsboroughOllieGrandad011Subclipg">
					<name>GoldsboroughOllieGrandad011Subclipg</name>
					<duration>243</duration>
					<rate>
						<ntsc>FALSE</ntsc>
						<timebase>25</timebase>
					</rate>
					<in>0</in>
					<out>243</out>
					<start>63590</start>
					<end>63833</end>
					<pixelaspectratio>Square</pixelaspectratio>
					<anamorphic>FALSE</anamorphic>
					<alphatype>none</alphatype>
					<logginginfo>
						<scene/>
						<shottake/>
						<lognote/>
						<good>FALSE</good>
					</logginginfo>
					<labels>
						<label2/>
					</labels>
					<comments>
						<mastercomment1/>
						<mastercomment2/>
						<mastercomment3/>
						<mastercomment4/>
					</comments>
					<file id="GoldsboroughOllieGrandad011Subclipg1">
						<name>GoldsboroughOllieGrandad011Subclipg</name>
						<pathurl>file://localhost/Volumes/Michael's%20Passport/woodbdrigenov2011media/GoldsboroughOllieGrandad011Subclipg</pathurl>
						<rate>
							<timebase>25</timebase>
						</rate>
						<duration>243</duration>
						<metadata>
							<storage>QuickTime</storage>
							<key>com.apple.finalcutstudio.media.uuid</key>
							<size>36</size>
							<type>UTF8</type>
							<value>48BB42E2-94C4-45CB-96F9-700FF5B30909</value>
						</metadata>
						<metadata>
							<storage>QuickTime</storage>
							<key>com.apple.finalcutstudio.media.history.uuid</key>
							<size>36</size>
							<type>UTF8</type>
							<value>34C7BEFF-C5E9-4070-BF9D-272C3455122A</value>
						</metadata>
						<timecode>
							<rate>
								<timebase>25</timebase>
							</rate>
							<string>00:01:23:09</string>
							<frame>2084</frame>
							<displayformat>NDF</displayformat>
							<source>source</source>
							<reel>
								<name>Goldsbrough Ollie Grandad</name>
							</reel>
						</timecode>
						<media>
							<video>
								<duration>243</duration>
								<samplecharacteristics>
									<width>1280</width>
									<height>720</height>
								</samplecharacteristics>
							</video>
							<audio>
								<samplecharacteristics>
									<samplerate>48000</samplerate>
									<depth>16</depth>
								</samplecharacteristics>
								<channelcount>2</channelcount>
								<layout>stereo</layout>
								<audiochannel>
									<sourcechannel>1</sourcechannel>
									<channellabel>left</channellabel>
								</audiochannel>
								<audiochannel>
									<sourcechannel>2</sourcechannel>
									<channellabel>right</channellabel>
								</audiochannel>
							</audio>
						</media>
					</file>
					<sourcetrack>
						<mediatype>video</mediatype>
					</sourcetrack>
					<fielddominance>none</fielddominance>
					<itemhistory>
						<uuid>8744FF1E-59BD-41CD-952C-0FCE28250B53</uuid>
						<uuid>A783A5AD-D36C-4CB4-BE8F-255C0D4ECB61</uuid>
					</itemhistory>
				</clipitem>
				<clipitem id="GoldsboroughOllieGrandad012Subclipa">
					<name>GoldsboroughOllieGrandad012Subclipa</name>
					<duration>352</duration>
					<rate>
						<ntsc>FALSE</ntsc>
						<timebase>25</timebase>
					</rate>
					<in>0</in>
					<out>352</out>
					<start>66535</start>
					<end>66887</end>
					<pixelaspectratio>Square</pixelaspectratio>
					<anamorphic>FALSE</anamorphic>
					<alphatype>none</alphatype>
					<logginginfo>
						<scene/>
						<shottake/>
						<lognote/>
						<good>FALSE</good>
					</logginginfo>
					<labels>
						<label2/>
					</labels>
					<comments>
						<mastercomment1/>
						<mastercomment2/>
						<mastercomment3/>
						<mastercomment4/>
					</comments>
					<file id="GoldsboroughOllieGrandad012Subclipa1">
						<name>GoldsboroughOllieGrandad012Subclipa</name>
						<pathurl>file://localhost/Volumes/Michael's%20Passport/woodbdrigenov2011media/GoldsboroughOllieGrandad012Subclipa</pathurl>
						<rate>
							<timebase>25</timebase>
						</rate>
						<duration>352</duration>
						<metadata>
							<storage>QuickTime</storage>
							<key>com.apple.finalcutstudio.media.uuid</key>
							<size>36</size>
							<type>UTF8</type>
							<value>26412C91-38F6-49DC-B6B7-1AACD99A6F29</value>
						</metadata>
						<metadata>
							<storage>QuickTime</storage>
							<key>com.apple.finalcutstudio.media.history.uuid</key>
							<size>36</size>
							<type>UTF8</type>
							<value>E1CA5801-17CD-4290-A9C0-3BB4545437A7</value>
						</metadata>
						<timecode>
							<rate>
								<timebase>25</timebase>
							</rate>
							<string>00:00:07:11</string>
							<frame>186</frame>
							<displayformat>NDF</displayformat>
							<source>source</source>
							<reel>
								<name>Goldsbrough Ollie Grandad</name>
							</reel>
						</timecode>
						<media>
							<video>
								<duration>352</duration>
								<samplecharacteristics>
									<width>1280</width>
									<height>720</height>
								</samplecharacteristics>
							</video>
							<audio>
								<samplecharacteristics>
									<samplerate>48000</samplerate>
									<depth>16</depth>
								</samplecharacteristics>
								<channelcount>2</channelcount>
								<layout>stereo</layout>
								<audiochannel>
									<sourcechannel>1</sourcechannel>
									<channellabel>left</channellabel>
								</audiochannel>
								<audiochannel>
									<sourcechannel>2</sourcechannel>
									<channellabel>right</channellabel>
								</audiochannel>
							</audio>
						</media>
					</file>
					<sourcetrack>
						<mediatype>video</mediatype>
					</sourcetrack>
					<fielddominance>none</fielddominance>
					<itemhistory>
						<uuid>3CC4E052-98D0-4FD1-B454-68783C186D04</uuid>
						<uuid>9AF90CB1-16E2-4945-8D65-F70F0271BCA3</uuid>
					</itemhistory>
				</clipitem>
				<clipitem id="GoldsboroughOllieGrandad012Subclipb">
					<name>GoldsboroughOllieGrandad012Subclipb</name>
					<duration>180</duration>
					<rate>
						<ntsc>FALSE</ntsc>
						<timebase>25</timebase>
					</rate>
					<in>0</in>
					<out>180</out>
					<start>66975</start>
					<end>67155</end>
					<pixelaspectratio>Square</pixelaspectratio>
					<anamorphic>FALSE</anamorphic>
					<alphatype>none</alphatype>
					<logginginfo>
						<scene/>
						<shottake/>
						<lognote/>
						<good>FALSE</good>
					</logginginfo>
					<labels>
						<label2/>
					</labels>
					<comments>
						<mastercomment1/>
						<mastercomment2/>
						<mastercomment3/>
						<mastercomment4/>
					</comments>
					<file id="GoldsboroughOllieGrandad012Subclipb1">
						<name>GoldsboroughOllieGrandad012Subclipb</name>
						<pathurl>file://localhost/Volumes/Michael's%20Passport/woodbdrigenov2011media/GoldsboroughOllieGrandad012Subclipb</pathurl>
						<rate>
							<timebase>25</timebase>
						</rate>
						<duration>180</duration>
						<metadata>
							<storage>QuickTime</storage>
							<key>com.apple.finalcutstudio.media.uuid</key>
							<size>36</size>
							<type>UTF8</type>
							<value>0EEB1F99-CF10-47C9-B1EA-E5DCAC7E52DA</value>
						</metadata>
						<metadata>
							<storage>QuickTime</storage>
							<key>com.apple.finalcutstudio.media.history.uuid</key>
							<size>36</size>
							<type>UTF8</type>
							<value>E1CA5801-17CD-4290-A9C0-3BB4545437A7</value>
						</metadata>
						<timecode>
							<rate>
								<timebase>25</timebase>
							</rate>
							<string>00:00:25:01</string>
							<frame>626</frame>
							<displayformat>NDF</displayformat>
							<source>source</source>
							<reel>
								<name>Goldsbrough Ollie Grandad</name>
							</reel>
						</timecode>
						<media>
							<video>
								<duration>180</duration>
								<samplecharacteristics>
									<width>1280</width>
									<height>720</height>
								</samplecharacteristics>
							</video>
							<audio>
								<samplecharacteristics>
									<samplerate>48000</samplerate>
									<depth>16</depth>
								</samplecharacteristics>
								<channelcount>2</channelcount>
								<layout>stereo</layout>
								<audiochannel>
									<sourcechannel>1</sourcechannel>
									<channellabel>left</channellabel>
								</audiochannel>
								<audiochannel>
									<sourcechannel>2</sourcechannel>
									<channellabel>right</channellabel>
								</audiochannel>
							</audio>
						</media>
					</file>
					<sourcetrack>
						<mediatype>video</mediatype>
					</sourcetrack>
					<fielddominance>none</fielddominance>
					<itemhistory>
						<uuid>39D06547-2868-48F0-830C-21E3F7E59884</uuid>
						<uuid>CC862F6C-D273-4099-9BD7-394BBA238F9C</uuid>
					</itemhistory>
				</clipitem>
				<clipitem id="GoldsboroughOllieGrandad012Subclipc">
					<name>GoldsboroughOllieGrandad012Subclipc</name>
					<duration>197</duration>
					<rate>
						<ntsc>FALSE</ntsc>
						<timebase>25</timebase>
					</rate>
					<in>0</in>
					<out>197</out>
					<start>67292</start>
					<end>67489</end>
					<pixelaspectratio>Square</pixelaspectratio>
					<anamorphic>FALSE</anamorphic>
					<alphatype>none</alphatype>
					<logginginfo>
						<scene/>
						<shottake/>
						<lognote/>
						<good>FALSE</good>
					</logginginfo>
					<labels>
						<label2/>
					</labels>
					<comments>
						<mastercomment1/>
						<mastercomment2/>
						<mastercomment3/>
						<mastercomment4/>
					</comments>
					<file id="GoldsboroughOllieGrandad012Subclipc1">
						<name>GoldsboroughOllieGrandad012Subclipc</name>
						<pathurl>file://localhost/Volumes/Michael's%20Passport/woodbdrigenov2011media/GoldsboroughOllieGrandad012Subclipc</pathurl>
						<rate>
							<timebase>25</timebase>
						</rate>
						<duration>197</duration>
						<metadata>
							<storage>QuickTime</storage>
							<key>com.apple.finalcutstudio.media.uuid</key>
							<size>36</size>
							<type>UTF8</type>
							<value>0E92E43D-5F2C-4DDE-ABE1-07716695CB7D</value>
						</metadata>
						<metadata>
							<storage>QuickTime</storage>
							<key>com.apple.finalcutstudio.media.history.uuid</key>
							<size>36</size>
							<type>UTF8</type>
							<value>E1CA5801-17CD-4290-A9C0-3BB4545437A7</value>
						</metadata>
						<timecode>
							<rate>
								<timebase>25</timebase>
							</rate>
							<string>00:00:37:18</string>
							<frame>943</frame>
							<displayformat>NDF</displayformat>
							<source>source</source>
							<reel>
								<name>Goldsbrough Ollie Grandad</name>
							</reel>
						</timecode>
						<media>
							<video>
								<duration>197</duration>
								<samplecharacteristics>
									<width>1280</width>
									<height>720</height>
								</samplecharacteristics>
							</video>
							<audio>
								<samplecharacteristics>
									<samplerate>48000</samplerate>
									<depth>16</depth>
								</samplecharacteristics>
								<channelcount>2</channelcount>
								<layout>stereo</layout>
								<audiochannel>
									<sourcechannel>1</sourcechannel>
									<channellabel>left</channellabel>
								</audiochannel>
								<audiochannel>
									<sourcechannel>2</sourcechannel>
									<channellabel>right</channellabel>
								</audiochannel>
							</audio>
						</media>
					</file>
					<sourcetrack>
						<mediatype>video</mediatype>
					</sourcetrack>
					<fielddominance>none</fielddominance>
					<itemhistory>
						<uuid>6B5597BA-477B-498F-A62C-AA180ECAF027</uuid>
						<uuid>2E094806-E387-4AEE-B6A9-3EEDF4EA9AA9</uuid>
					</itemhistory>
				</clipitem>
				<clipitem id="GoldsboroughOllieGrandad012Subclipd">
					<name>GoldsboroughOllieGrandad012Subclipd</name>
					<duration>479</duration>
					<rate>
						<ntsc>FALSE</ntsc>
						<timebase>25</timebase>
					</rate>
					<in>0</in>
					<out>479</out>
					<start>67599</start>
					<end>68078</end>
					<pixelaspectratio>Square</pixelaspectratio>
					<anamorphic>FALSE</anamorphic>
					<alphatype>none</alphatype>
					<logginginfo>
						<scene/>
						<shottake/>
						<lognote/>
						<good>FALSE</good>
					</logginginfo>
					<labels>
						<label2/>
					</labels>
					<comments>
						<mastercomment1/>
						<mastercomment2/>
						<mastercomment3/>
						<mastercomment4/>
					</comments>
					<file id="GoldsboroughOllieGrandad012Subclipd1">
						<name>GoldsboroughOllieGrandad012Subclipd</name>
						<pathurl>file://localhost/Volumes/Michael's%20Passport/woodbdrigenov2011media/GoldsboroughOllieGrandad012Subclipd</pathurl>
						<rate>
							<timebase>25</timebase>
						</rate>
						<duration>479</duration>
						<metadata>
							<storage>QuickTime</storage>
							<key>com.apple.finalcutstudio.media.uuid</key>
							<size>36</size>
							<type>UTF8</type>
							<value>080000BF-6F29-4349-824D-C0B9D86D1C70</value>
						</metadata>
						<metadata>
							<storage>QuickTime</storage>
							<key>com.apple.finalcutstudio.media.history.uuid</key>
							<size>36</size>
							<type>UTF8</type>
							<value>E1CA5801-17CD-4290-A9C0-3BB4545437A7</value>
						</metadata>
						<timecode>
							<rate>
								<timebase>25</timebase>
							</rate>
							<string>00:00:50:00</string>
							<frame>1250</frame>
							<displayformat>NDF</displayformat>
							<source>source</source>
							<reel>
								<name>Goldsbrough Ollie Grandad</name>
							</reel>
						</timecode>
						<media>
							<video>
								<duration>479</duration>
								<samplecharacteristics>
									<width>1280</width>
									<height>720</height>
								</samplecharacteristics>
							</video>
							<audio>
								<samplecharacteristics>
									<samplerate>48000</samplerate>
									<depth>16</depth>
								</samplecharacteristics>
								<channelcount>2</channelcount>
								<layout>stereo</layout>
								<audiochannel>
									<sourcechannel>1</sourcechannel>
									<channellabel>left</channellabel>
								</audiochannel>
								<audiochannel>
									<sourcechannel>2</sourcechannel>
									<channellabel>right</channellabel>
								</audiochannel>
							</audio>
						</media>
					</file>
					<sourcetrack>
						<mediatype>video</mediatype>
					</sourcetrack>
					<fielddominance>none</fielddominance>
					<itemhistory>
						<uuid>64F22F4C-A491-4064-A20D-D5384BA2B529</uuid>
						<uuid>C5E58C8B-E3E0-45E0-8BBE-ACBC201E1406</uuid>
					</itemhistory>
				</clipitem>
				<clipitem id="GoldsboroughOllieGrandad013Subclipa">
					<name>GoldsboroughOllieGrandad013Subclipa</name>
					<duration>119</duration>
					<rate>
						<ntsc>FALSE</ntsc>
						<timebase>25</timebase>
					</rate>
					<in>0</in>
					<out>118</out>
					<start>69483</start>
					<end>69601</end>
					<pixelaspectratio>Square</pixelaspectratio>
					<anamorphic>FALSE</anamorphic>
					<alphatype>none</alphatype>
					<logginginfo>
						<scene/>
						<shottake/>
						<lognote/>
						<good>FALSE</good>
					</logginginfo>
					<labels>
						<label2/>
					</labels>
					<comments>
						<mastercomment1/>
						<mastercomment2/>
						<mastercomment3/>
						<mastercomment4/>
					</comments>
					<file id="GoldsboroughOllieGrandad013Subclipa1">
						<name>GoldsboroughOllieGrandad013Subclipa</name>
						<pathurl>file://localhost/Volumes/Michael's%20Passport/woodbdrigenov2011media/GoldsboroughOllieGrandad013Subclipa</pathurl>
						<rate>
							<timebase>25</timebase>
						</rate>
						<duration>119</duration>
						<metadata>
							<storage>QuickTime</storage>
							<key>com.apple.finalcutstudio.media.uuid</key>
							<size>36</size>
							<type>UTF8</type>
							<value>2CED1DF1-AA13-460F-A9CB-0B7007E0AD23</value>
						</metadata>
						<metadata>
							<storage>QuickTime</storage>
							<key>com.apple.finalcutstudio.media.history.uuid</key>
							<size>36</size>
							<type>UTF8</type>
							<value>D2DB360C-64E8-4AD9-A7BC-C153E154731D</value>
						</metadata>
						<timecode>
							<rate>
								<timebase>25</timebase>
							</rate>
							<string>00:00:00:00</string>
							<frame>0</frame>
							<displayformat>NDF</displayformat>
							<source>source</source>
							<reel>
								<name>Goldsbrough Ollie Grandad</name>
							</reel>
						</timecode>
						<media>
							<video>
								<duration>119</duration>
								<samplecharacteristics>
									<width>1280</width>
									<height>720</height>
								</samplecharacteristics>
							</video>
							<audio>
								<samplecharacteristics>
									<samplerate>48000</samplerate>
									<depth>16</depth>
								</samplecharacteristics>
								<channelcount>2</channelcount>
								<layout>stereo</layout>
								<audiochannel>
									<sourcechannel>1</sourcechannel>
									<channellabel>left</channellabel>
								</audiochannel>
								<audiochannel>
									<sourcechannel>2</sourcechannel>
									<channellabel>right</channellabel>
								</audiochannel>
							</audio>
						</media>
					</file>
					<sourcetrack>
						<mediatype>video</mediatype>
					</sourcetrack>
					<fielddominance>none</fielddominance>
					<itemhistory>
						<uuid>4FD72DA9-6928-4F4B-919F-F116010770AA</uuid>
						<uuid>86267992-B404-43FE-B672-6BC2FDC851DE</uuid>
					</itemhistory>
				</clipitem>
				<clipitem id="GoldsboroughOllieGrandad013Subclipb">
					<name>GoldsboroughOllieGrandad013Subclipb</name>
					<duration>430</duration>
					<rate>
						<ntsc>FALSE</ntsc>
						<timebase>25</timebase>
					</rate>
					<in>0</in>
					<out>429</out>
					<start>69794</start>
					<end>70223</end>
					<pixelaspectratio>Square</pixelaspectratio>
					<anamorphic>FALSE</anamorphic>
					<alphatype>none</alphatype>
					<logginginfo>
						<scene/>
						<shottake/>
						<lognote/>
						<good>FALSE</good>
					</logginginfo>
					<labels>
						<label2/>
					</labels>
					<comments>
						<mastercomment1/>
						<mastercomment2/>
						<mastercomment3/>
						<mastercomment4/>
					</comments>
					<file id="GoldsboroughOllieGrandad013Subclipb1">
						<name>GoldsboroughOllieGrandad013Subclipb</name>
						<pathurl>file://localhost/Volumes/Michael's%20Passport/woodbdrigenov2011media/GoldsboroughOllieGrandad013Subclipb</pathurl>
						<rate>
							<timebase>25</timebase>
						</rate>
						<duration>430</duration>
						<metadata>
							<storage>QuickTime</storage>
							<key>com.apple.finalcutstudio.media.uuid</key>
							<size>36</size>
							<type>UTF8</type>
							<value>E76BE858-AF10-4A5D-A3A9-DBC6C347B511</value>
						</metadata>
						<metadata>
							<storage>QuickTime</storage>
							<key>com.apple.finalcutstudio.media.history.uuid</key>
							<size>36</size>
							<type>UTF8</type>
							<value>D2DB360C-64E8-4AD9-A7BC-C153E154731D</value>
						</metadata>
						<timecode>
							<rate>
								<timebase>25</timebase>
							</rate>
							<string>00:00:12:11</string>
							<frame>311</frame>
							<displayformat>NDF</displayformat>
							<source>source</source>
							<reel>
								<name>Goldsbrough Ollie Grandad</name>
							</reel>
						</timecode>
						<media>
							<video>
								<duration>430</duration>
								<samplecharacteristics>
									<width>1280</width>
									<height>720</height>
								</samplecharacteristics>
							</video>
							<audio>
								<samplecharacteristics>
									<samplerate>48000</samplerate>
									<depth>16</depth>
								</samplecharacteristics>
								<channelcount>2</channelcount>
								<layout>stereo</layout>
								<audiochannel>
									<sourcechannel>1</sourcechannel>
									<channellabel>left</channellabel>
								</audiochannel>
								<audiochannel>
									<sourcechannel>2</sourcechannel>
									<channellabel>right</channellabel>
								</audiochannel>
							</audio>
						</media>
					</file>
					<sourcetrack>
						<mediatype>video</mediatype>
					</sourcetrack>
					<fielddominance>none</fielddominance>
					<itemhistory>
						<uuid>6F22D6B0-3DEC-4ABC-ACDD-9E4FD0D229EF</uuid>
						<uuid>1952098C-CA8A-4E97-A6C1-5F7A07005651</uuid>
					</itemhistory>
				</clipitem>
				<clipitem id="GoldsboroughOllieGrandad013Subclipc">
					<name>GoldsboroughOllieGrandad013Subclipc</name>
					<duration>1205</duration>
					<rate>
						<ntsc>FALSE</ntsc>
						<timebase>25</timebase>
					</rate>
					<in>0</in>
					<out>1204</out>
					<start>70300</start>
					<end>71504</end>
					<pixelaspectratio>Square</pixelaspectratio>
					<anamorphic>FALSE</anamorphic>
					<alphatype>none</alphatype>
					<logginginfo>
						<scene/>
						<shottake/>
						<lognote/>
						<good>FALSE</good>
					</logginginfo>
					<labels>
						<label2/>
					</labels>
					<comments>
						<mastercomment1/>
						<mastercomment2/>
						<mastercomment3/>
						<mastercomment4/>
					</comments>
					<file id="GoldsboroughOllieGrandad013Subclipc1">
						<name>GoldsboroughOllieGrandad013Subclipc</name>
						<pathurl>file://localhost/Volumes/Michael's%20Passport/woodbdrigenov2011media/GoldsboroughOllieGrandad013Subclipc</pathurl>
						<rate>
							<timebase>25</timebase>
						</rate>
						<duration>1205</duration>
						<metadata>
							<storage>QuickTime</storage>
							<key>com.apple.finalcutstudio.media.uuid</key>
							<size>36</size>
							<type>UTF8</type>
							<value>FC3C0704-D72E-472B-A1A8-EF03C9639732</value>
						</metadata>
						<metadata>
							<storage>QuickTime</storage>
							<key>com.apple.finalcutstudio.media.history.uuid</key>
							<size>36</size>
							<type>UTF8</type>
							<value>D2DB360C-64E8-4AD9-A7BC-C153E154731D</value>
						</metadata>
						<timecode>
							<rate>
								<timebase>25</timebase>
							</rate>
							<string>00:00:32:17</string>
							<frame>817</frame>
							<displayformat>NDF</displayformat>
							<source>source</source>
							<reel>
								<name>Goldsbrough Ollie Grandad</name>
							</reel>
						</timecode>
						<media>
							<video>
								<duration>1205</duration>
								<samplecharacteristics>
									<width>1280</width>
									<height>720</height>
								</samplecharacteristics>
							</video>
							<audio>
								<samplecharacteristics>
									<samplerate>48000</samplerate>
									<depth>16</depth>
								</samplecharacteristics>
								<channelcount>2</channelcount>
								<layout>stereo</layout>
								<audiochannel>
									<sourcechannel>1</sourcechannel>
									<channellabel>left</channellabel>
								</audiochannel>
								<audiochannel>
									<sourcechannel>2</sourcechannel>
									<channellabel>right</channellabel>
								</audiochannel>
							</audio>
						</media>
					</file>
					<sourcetrack>
						<mediatype>video</mediatype>
					</sourcetrack>
					<fielddominance>none</fielddominance>
					<itemhistory>
						<uuid>A491F8B9-D451-49E6-A8E7-B7837799B4CB</uuid>
						<uuid>EBB1C983-6683-4CF9-AD42-F8216334A159</uuid>
					</itemhistory>
				</clipitem>
				<clipitem id="GoldsboroughOllieGrandad013Subclipd">
					<name>GoldsboroughOllieGrandad013Subclipd</name>
					<duration>183</duration>
					<rate>
						<ntsc>FALSE</ntsc>
						<timebase>25</timebase>
					</rate>
					<in>0</in>
					<out>182</out>
					<start>71718</start>
					<end>71900</end>
					<pixelaspectratio>Square</pixelaspectratio>
					<anamorphic>FALSE</anamorphic>
					<alphatype>none</alphatype>
					<logginginfo>
						<scene/>
						<shottake/>
						<lognote/>
						<good>FALSE</good>
					</logginginfo>
					<labels>
						<label2/>
					</labels>
					<comments>
						<mastercomment1/>
						<mastercomment2/>
						<mastercomment3/>
						<mastercomment4/>
					</comments>
					<file id="GoldsboroughOllieGrandad013Subclipd1">
						<name>GoldsboroughOllieGrandad013Subclipd</name>
						<pathurl>file://localhost/Volumes/Michael's%20Passport/woodbdrigenov2011media/GoldsboroughOllieGrandad013Subclipd</pathurl>
						<rate>
							<timebase>25</timebase>
						</rate>
						<duration>183</duration>
						<metadata>
							<storage>QuickTime</storage>
							<key>com.apple.finalcutstudio.media.uuid</key>
							<size>36</size>
							<type>UTF8</type>
							<value>05600DC0-55F2-4306-9DA8-EB9C11B402A6</value>
						</metadata>
						<metadata>
							<storage>QuickTime</storage>
							<key>com.apple.finalcutstudio.media.history.uuid</key>
							<size>36</size>
							<type>UTF8</type>
							<value>D2DB360C-64E8-4AD9-A7BC-C153E154731D</value>
						</metadata>
						<timecode>
							<rate>
								<timebase>25</timebase>
							</rate>
							<string>00:01:29:10</string>
							<frame>2235</frame>
							<displayformat>NDF</displayformat>
							<source>source</source>
							<reel>
								<name>Goldsbrough Ollie Grandad</name>
							</reel>
						</timecode>
						<media>
							<video>
								<duration>183</duration>
								<samplecharacteristics>
									<width>1280</width>
									<height>720</height>
								</samplecharacteristics>
							</video>
							<audio>
								<samplecharacteristics>
									<samplerate>48000</samplerate>
									<depth>16</depth>
								</samplecharacteristics>
								<channelcount>2</channelcount>
								<layout>stereo</layout>
								<audiochannel>
									<sourcechannel>1</sourcechannel>
									<channellabel>left</channellabel>
								</audiochannel>
								<audiochannel>
									<sourcechannel>2</sourcechannel>
									<channellabel>right</channellabel>
								</audiochannel>
							</audio>
						</media>
					</file>
					<sourcetrack>
						<mediatype>video</mediatype>
					</sourcetrack>
					<fielddominance>none</fielddominance>
					<itemhistory>
						<uuid>298AFBB0-6F77-4743-85B9-4F6A8AADA88A</uuid>
						<uuid>710011A8-34CF-4369-9443-C736A1EF6A3A</uuid>
					</itemhistory>
				</clipitem>
				<clipitem id="GoldsboroughOllieGrandad013Subclipe">
					<name>GoldsboroughOllieGrandad013Subclipe</name>
					<duration>1458</duration>
					<rate>
						<ntsc>FALSE</ntsc>
						<timebase>25</timebase>
					</rate>
					<in>0</in>
					<out>1457</out>
					<start>72158</start>
					<end>73615</end>
					<pixelaspectratio>Square</pixelaspectratio>
					<anamorphic>FALSE</anamorphic>
					<alphatype>none</alphatype>
					<logginginfo>
						<scene/>
						<shottake/>
						<lognote/>
						<good>FALSE</good>
					</logginginfo>
					<labels>
						<label2/>
					</labels>
					<comments>
						<mastercomment1/>
						<mastercomment2/>
						<mastercomment3/>
						<mastercomment4/>
					</comments>
					<file id="GoldsboroughOllieGrandad013Subclipe1">
						<name>GoldsboroughOllieGrandad013Subclipe</name>
						<pathurl>file://localhost/Volumes/Michael's%20Passport/woodbdrigenov2011media/GoldsboroughOllieGrandad013Subclipe</pathurl>
						<rate>
							<timebase>25</timebase>
						</rate>
						<duration>1458</duration>
						<metadata>
							<storage>QuickTime</storage>
							<key>com.apple.finalcutstudio.media.uuid</key>
							<size>36</size>
							<type>UTF8</type>
							<value>B89CB1EA-1369-4A64-9AE5-4B6D1450EC6C</value>
						</metadata>
						<metadata>
							<storage>QuickTime</storage>
							<key>com.apple.finalcutstudio.media.history.uuid</key>
							<size>36</size>
							<type>UTF8</type>
							<value>D2DB360C-64E8-4AD9-A7BC-C153E154731D</value>
						</metadata>
						<timecode>
							<rate>
								<timebase>25</timebase>
							</rate>
							<string>00:01:47:00</string>
							<frame>2675</frame>
							<displayformat>NDF</displayformat>
							<source>source</source>
							<reel>
								<name>Goldsbrough Ollie Grandad</name>
							</reel>
						</timecode>
						<media>
							<video>
								<duration>1458</duration>
								<samplecharacteristics>
									<width>1280</width>
									<height>720</height>
								</samplecharacteristics>
							</video>
							<audio>
								<samplecharacteristics>
									<samplerate>48000</samplerate>
									<depth>16</depth>
								</samplecharacteristics>
								<channelcount>2</channelcount>
								<layout>stereo</layout>
								<audiochannel>
									<sourcechannel>1</sourcechannel>
									<channellabel>left</channellabel>
								</audiochannel>
								<audiochannel>
									<sourcechannel>2</sourcechannel>
									<channellabel>right</channellabel>
								</audiochannel>
							</audio>
						</media>
					</file>
					<sourcetrack>
						<mediatype>video</mediatype>
					</sourcetrack>
					<fielddominance>none</fielddominance>
					<itemhistory>
						<uuid>BA92AA64-CA0F-4FAA-AB08-50DF4EC71997</uuid>
						<uuid>61177265-483A-4C02-B331-3FCF84927969</uuid>
					</itemhistory>
				</clipitem>
				<clipitem id="GoldsboroughOllieGrandad013Subclipf">
					<name>GoldsboroughOllieGrandad013Subclipf</name>
					<duration>747</duration>
					<rate>
						<ntsc>FALSE</ntsc>
						<timebase>25</timebase>
					</rate>
					<in>0</in>
					<out>746</out>
					<start>73819</start>
					<end>74565</end>
					<pixelaspectratio>Square</pixelaspectratio>
					<anamorphic>FALSE</anamorphic>
					<alphatype>none</alphatype>
					<logginginfo>
						<scene/>
						<shottake/>
						<lognote/>
						<good>FALSE</good>
					</logginginfo>
					<labels>
						<label2/>
					</labels>
					<comments>
						<mastercomment1/>
						<mastercomment2/>
						<mastercomment3/>
						<mastercomment4/>
					</comments>
					<file id="GoldsboroughOllieGrandad013Subclipf1">
						<name>GoldsboroughOllieGrandad013Subclipf</name>
						<pathurl>file://localhost/Volumes/Michael's%20Passport/woodbdrigenov2011media/GoldsboroughOllieGrandad013Subclipf</pathurl>
						<rate>
							<timebase>25</timebase>
						</rate>
						<duration>747</duration>
						<metadata>
							<storage>QuickTime</storage>
							<key>com.apple.finalcutstudio.media.uuid</key>
							<size>36</size>
							<type>UTF8</type>
							<value>F570C707-53C0-4FA7-A6E3-866EFF971882</value>
						</metadata>
						<metadata>
							<storage>QuickTime</storage>
							<key>com.apple.finalcutstudio.media.history.uuid</key>
							<size>36</size>
							<type>UTF8</type>
							<value>D2DB360C-64E8-4AD9-A7BC-C153E154731D</value>
						</metadata>
						<timecode>
							<rate>
								<timebase>25</timebase>
							</rate>
							<string>00:02:53:11</string>
							<frame>4336</frame>
							<displayformat>NDF</displayformat>
							<source>source</source>
							<reel>
								<name>Goldsbrough Ollie Grandad</name>
							</reel>
						</timecode>
						<media>
							<video>
								<duration>747</duration>
								<samplecharacteristics>
									<width>1280</width>
									<height>720</height>
								</samplecharacteristics>
							</video>
							<audio>
								<samplecharacteristics>
									<samplerate>48000</samplerate>
									<depth>16</depth>
								</samplecharacteristics>
								<channelcount>2</channelcount>
								<layout>stereo</layout>
								<audiochannel>
									<sourcechannel>1</sourcechannel>
									<channellabel>left</channellabel>
								</audiochannel>
								<audiochannel>
									<sourcechannel>2</sourcechannel>
									<channellabel>right</channellabel>
								</audiochannel>
							</audio>
						</media>
					</file>
					<sourcetrack>
						<mediatype>video</mediatype>
					</sourcetrack>
					<fielddominance>none</fielddominance>
					<itemhistory>
						<uuid>5FC391DD-DAAC-4ED6-BCE1-1376D4E662F9</uuid>
						<uuid>8FCE0B06-D34B-415A-A85C-7D7E91D16C3B</uuid>
					</itemhistory>
				</clipitem>
				<clipitem id="GoldsboroughOllieGrandad014Subclipa">
					<name>GoldsboroughOllieGrandad014Subclipa</name>
					<duration>563</duration>
					<rate>
						<ntsc>FALSE</ntsc>
						<timebase>25</timebase>
					</rate>
					<in>0</in>
					<out>562</out>
					<start>82218</start>
					<end>82780</end>
					<pixelaspectratio>Square</pixelaspectratio>
					<anamorphic>FALSE</anamorphic>
					<alphatype>none</alphatype>
					<logginginfo>
						<scene/>
						<shottake/>
						<lognote/>
						<good>FALSE</good>
					</logginginfo>
					<labels>
						<label2/>
					</labels>
					<comments>
						<mastercomment1/>
						<mastercomment2/>
						<mastercomment3/>
						<mastercomment4/>
					</comments>
					<file id="GoldsboroughOllieGrandad014Subclipa1">
						<name>GoldsboroughOllieGrandad014Subclipa</name>
						<pathurl>file://localhost/Volumes/Michael's%20Passport/woodbdrigenov2011media/GoldsboroughOllieGrandad014Subclipa</pathurl>
						<rate>
							<timebase>25</timebase>
						</rate>
						<duration>563</duration>
						<metadata>
							<storage>QuickTime</storage>
							<key>com.apple.finalcutstudio.media.uuid</key>
							<size>36</size>
							<type>UTF8</type>
							<value>540C542D-A2AA-406B-ADDC-A69D8EA2167C</value>
						</metadata>
						<metadata>
							<storage>QuickTime</storage>
							<key>com.apple.finalcutstudio.media.history.uuid</key>
							<size>36</size>
							<type>UTF8</type>
							<value>B957F21A-5BC6-4641-90E8-290E2A849B89</value>
						</metadata>
						<timecode>
							<rate>
								<timebase>25</timebase>
							</rate>
							<string>00:00:00:00</string>
							<frame>0</frame>
							<displayformat>NDF</displayformat>
							<source>source</source>
							<reel>
								<name>Goldsbrough Ollie Grandad</name>
							</reel>
						</timecode>
						<media>
							<video>
								<duration>563</duration>
								<samplecharacteristics>
									<width>1280</width>
									<height>720</height>
								</samplecharacteristics>
							</video>
							<audio>
								<samplecharacteristics>
									<samplerate>48000</samplerate>
									<depth>16</depth>
								</samplecharacteristics>
								<channelcount>2</channelcount>
								<layout>stereo</layout>
								<audiochannel>
									<sourcechannel>1</sourcechannel>
									<channellabel>left</channellabel>
								</audiochannel>
								<audiochannel>
									<sourcechannel>2</sourcechannel>
									<channellabel>right</channellabel>
								</audiochannel>
							</audio>
						</media>
					</file>
					<sourcetrack>
						<mediatype>video</mediatype>
					</sourcetrack>
					<fielddominance>none</fielddominance>
					<itemhistory>
						<uuid>9FC3CBBF-1D5C-4E8B-A2C7-32D9898369CE</uuid>
						<uuid>51B6A4C7-DA57-4701-876D-3FD8FFFE88B6</uuid>
					</itemhistory>
				</clipitem>
				<clipitem id="GoldsboroughOllieGrandad014Subclipb">
					<name>GoldsboroughOllieGrandad014Subclipb</name>
					<duration>1821</duration>
					<rate>
						<ntsc>FALSE</ntsc>
						<timebase>25</timebase>
					</rate>
					<in>0</in>
					<out>1820</out>
					<start>82780</start>
					<end>84600</end>
					<pixelaspectratio>Square</pixelaspectratio>
					<anamorphic>FALSE</anamorphic>
					<alphatype>none</alphatype>
					<logginginfo>
						<scene/>
						<shottake/>
						<lognote/>
						<good>FALSE</good>
					</logginginfo>
					<labels>
						<label2/>
					</labels>
					<comments>
						<mastercomment1/>
						<mastercomment2/>
						<mastercomment3/>
						<mastercomment4/>
					</comments>
					<file id="GoldsboroughOllieGrandad014Subclipb1">
						<name>GoldsboroughOllieGrandad014Subclipb</name>
						<pathurl>file://localhost/Volumes/Michael's%20Passport/woodbdrigenov2011media/GoldsboroughOllieGrandad014Subclipb</pathurl>
						<rate>
							<timebase>25</timebase>
						</rate>
						<duration>1821</duration>
						<metadata>
							<storage>QuickTime</storage>
							<key>com.apple.finalcutstudio.media.uuid</key>
							<size>36</size>
							<type>UTF8</type>
							<value>86D28E63-1C4D-4A7D-8DB2-594593FCC169</value>
						</metadata>
						<metadata>
							<storage>QuickTime</storage>
							<key>com.apple.finalcutstudio.media.history.uuid</key>
							<size>36</size>
							<type>UTF8</type>
							<value>B957F21A-5BC6-4641-90E8-290E2A849B89</value>
						</metadata>
						<timecode>
							<rate>
								<timebase>25</timebase>
							</rate>
							<string>00:00:22:12</string>
							<frame>562</frame>
							<displayformat>NDF</displayformat>
							<source>source</source>
							<reel>
								<name>Goldsbrough Ollie Grandad</name>
							</reel>
						</timecode>
						<media>
							<video>
								<duration>1821</duration>
								<samplecharacteristics>
									<width>1280</width>
									<height>720</height>
								</samplecharacteristics>
							</video>
							<audio>
								<samplecharacteristics>
									<samplerate>48000</samplerate>
									<depth>16</depth>
								</samplecharacteristics>
								<channelcount>2</channelcount>
								<layout>stereo</layout>
								<audiochannel>
									<sourcechannel>1</sourcechannel>
									<channellabel>left</channellabel>
								</audiochannel>
								<audiochannel>
									<sourcechannel>2</sourcechannel>
									<channellabel>right</channellabel>
								</audiochannel>
							</audio>
						</media>
					</file>
					<sourcetrack>
						<mediatype>video</mediatype>
					</sourcetrack>
					<fielddominance>none</fielddominance>
					<itemhistory>
						<uuid>3DCBFFB6-5BEC-439D-991D-59CD4558E56B</uuid>
						<uuid>7A073CE6-B099-41B0-AD74-1128B1F83A00</uuid>
					</itemhistory>
				</clipitem>
				<clipitem id="GoldsboroughOllieGrandad014Subclipc">
					<name>GoldsboroughOllieGrandad014Subclipc</name>
					<duration>942</duration>
					<rate>
						<ntsc>FALSE</ntsc>
						<timebase>25</timebase>
					</rate>
					<in>0</in>
					<out>941</out>
					<start>84765</start>
					<end>85706</end>
					<pixelaspectratio>Square</pixelaspectratio>
					<anamorphic>FALSE</anamorphic>
					<alphatype>none</alphatype>
					<logginginfo>
						<scene/>
						<shottake/>
						<lognote/>
						<good>FALSE</good>
					</logginginfo>
					<labels>
						<label2/>
					</labels>
					<comments>
						<mastercomment1/>
						<mastercomment2/>
						<mastercomment3/>
						<mastercomment4/>
					</comments>
					<file id="GoldsboroughOllieGrandad014Subclipc1">
						<name>GoldsboroughOllieGrandad014Subclipc</name>
						<pathurl>file://localhost/Volumes/Michael's%20Passport/woodbdrigenov2011media/GoldsboroughOllieGrandad014Subclipc</pathurl>
						<rate>
							<timebase>25</timebase>
						</rate>
						<duration>942</duration>
						<metadata>
							<storage>QuickTime</storage>
							<key>com.apple.finalcutstudio.media.uuid</key>
							<size>36</size>
							<type>UTF8</type>
							<value>92B2AF40-99A8-46E9-85BC-D3AAF892181A</value>
						</metadata>
						<metadata>
							<storage>QuickTime</storage>
							<key>com.apple.finalcutstudio.media.history.uuid</key>
							<size>36</size>
							<type>UTF8</type>
							<value>B957F21A-5BC6-4641-90E8-290E2A849B89</value>
						</metadata>
						<timecode>
							<rate>
								<timebase>25</timebase>
							</rate>
							<string>00:01:41:22</string>
							<frame>2547</frame>
							<displayformat>NDF</displayformat>
							<source>source</source>
							<reel>
								<name>Goldsbrough Ollie Grandad</name>
							</reel>
						</timecode>
						<media>
							<video>
								<duration>942</duration>
								<samplecharacteristics>
									<width>1280</width>
									<height>720</height>
								</samplecharacteristics>
							</video>
							<audio>
								<samplecharacteristics>
									<samplerate>48000</samplerate>
									<depth>16</depth>
								</samplecharacteristics>
								<channelcount>2</channelcount>
								<layout>stereo</layout>
								<audiochannel>
									<sourcechannel>1</sourcechannel>
									<channellabel>left</channellabel>
								</audiochannel>
								<audiochannel>
									<sourcechannel>2</sourcechannel>
									<channellabel>right</channellabel>
								</audiochannel>
							</audio>
						</media>
					</file>
					<sourcetrack>
						<mediatype>video</mediatype>
					</sourcetrack>
					<fielddominance>none</fielddominance>
					<itemhistory>
						<uuid>2E78328F-CDE4-44E1-A949-FE2EB530F5CC</uuid>
						<uuid>871E3A42-AB61-4508-9F12-B4984F5F6318</uuid>
					</itemhistory>
				</clipitem>
				<clipitem id="GoldsboroughOllieGrandad014Subclipd">
					<name>GoldsboroughOllieGrandad014Subclipd</name>
					<duration>1484</duration>
					<rate>
						<ntsc>FALSE</ntsc>
						<timebase>25</timebase>
					</rate>
					<in>0</in>
					<out>1484</out>
					<start>85849</start>
					<end>87333</end>
					<pixelaspectratio>Square</pixelaspectratio>
					<anamorphic>FALSE</anamorphic>
					<alphatype>none</alphatype>
					<logginginfo>
						<scene/>
						<shottake/>
						<lognote/>
						<good>FALSE</good>
					</logginginfo>
					<labels>
						<label2/>
					</labels>
					<comments>
						<mastercomment1/>
						<mastercomment2/>
						<mastercomment3/>
						<mastercomment4/>
					</comments>
					<file id="GoldsboroughOllieGrandad014Subclipd1">
						<name>GoldsboroughOllieGrandad014Subclipd</name>
						<pathurl>file://localhost/Volumes/Michael's%20Passport/woodbdrigenov2011media/GoldsboroughOllieGrandad014Subclipd</pathurl>
						<rate>
							<timebase>25</timebase>
						</rate>
						<duration>1484</duration>
						<metadata>
							<storage>QuickTime</storage>
							<key>com.apple.finalcutstudio.media.uuid</key>
							<size>36</size>
							<type>UTF8</type>
							<value>42466A4B-EEFB-4950-AAC5-428FC75BDEBC</value>
						</metadata>
						<metadata>
							<storage>QuickTime</storage>
							<key>com.apple.finalcutstudio.media.history.uuid</key>
							<size>36</size>
							<type>UTF8</type>
							<value>B957F21A-5BC6-4641-90E8-290E2A849B89</value>
						</metadata>
						<timecode>
							<rate>
								<timebase>25</timebase>
							</rate>
							<string>00:02:25:06</string>
							<frame>3631</frame>
							<displayformat>NDF</displayformat>
							<source>source</source>
							<reel>
								<name>Goldsbrough Ollie Grandad</name>
							</reel>
						</timecode>
						<media>
							<video>
								<duration>1484</duration>
								<samplecharacteristics>
									<width>1280</width>
									<height>720</height>
								</samplecharacteristics>
							</video>
							<audio>
								<samplecharacteristics>
									<samplerate>48000</samplerate>
									<depth>16</depth>
								</samplecharacteristics>
								<channelcount>2</channelcount>
								<layout>stereo</layout>
								<audiochannel>
									<sourcechannel>1</sourcechannel>
									<channellabel>left</channellabel>
								</audiochannel>
								<audiochannel>
									<sourcechannel>2</sourcechannel>
									<channellabel>right</channellabel>
								</audiochannel>
							</audio>
						</media>
					</file>
					<sourcetrack>
						<mediatype>video</mediatype>
					</sourcetrack>
					<fielddominance>none</fielddominance>
					<itemhistory>
						<uuid>71838611-A177-4AE7-84DB-B455EBAE82F0</uuid>
						<uuid>7B9CE765-7BF7-4CD9-94C5-69936BCC25BD</uuid>
					</itemhistory>
				</clipitem>
				<clipitem id="GoldsboroughOllieGrandad015Subclipa2">
					<name>GoldsboroughOllieGrandad015Subclipa</name>
					<duration>2551</duration>
					<rate>
						<ntsc>FALSE</ntsc>
						<timebase>25</timebase>
					</rate>
					<in>0</in>
					<out>2551</out>
					<start>87532</start>
					<end>90083</end>
					<pixelaspectratio>Square</pixelaspectratio>
					<anamorphic>FALSE</anamorphic>
					<alphatype>none</alphatype>
					<logginginfo>
						<scene/>
						<shottake/>
						<lognote/>
						<good>FALSE</good>
					</logginginfo>
					<labels>
						<label2/>
					</labels>
					<comments>
						<mastercomment1/>
						<mastercomment2/>
						<mastercomment3/>
						<mastercomment4/>
					</comments>
					<file id="GoldsboroughOllieGrandad014Subclipe">
						<name>GoldsboroughOllieGrandad014Subclipe</name>
						<pathurl>file://localhost/Volumes/Michael's%20Passport/woodbdrigenov2011media/GoldsboroughOllieGrandad014Subclipe</pathurl>
						<rate>
							<timebase>25</timebase>
						</rate>
						<duration>2551</duration>
						<metadata>
							<storage>QuickTime</storage>
							<key>com.apple.finalcutstudio.media.uuid</key>
							<size>36</size>
							<type>UTF8</type>
							<value>F4AE9A3F-3AD3-41C0-AE63-6EB619F7297D</value>
						</metadata>
						<metadata>
							<storage>QuickTime</storage>
							<key>com.apple.finalcutstudio.media.history.uuid</key>
							<size>36</size>
							<type>UTF8</type>
							<value>B957F21A-5BC6-4641-90E8-290E2A849B89</value>
						</metadata>
						<timecode>
							<rate>
								<timebase>25</timebase>
							</rate>
							<string>00:03:32:14</string>
							<frame>5314</frame>
							<displayformat>NDF</displayformat>
							<source>source</source>
							<reel>
								<name>Goldsbrough Ollie Grandad</name>
							</reel>
						</timecode>
						<media>
							<video>
								<duration>2551</duration>
								<samplecharacteristics>
									<width>1280</width>
									<height>720</height>
								</samplecharacteristics>
							</video>
							<audio>
								<samplecharacteristics>
									<samplerate>48000</samplerate>
									<depth>16</depth>
								</samplecharacteristics>
								<channelcount>2</channelcount>
								<layout>stereo</layout>
								<audiochannel>
									<sourcechannel>1</sourcechannel>
									<channellabel>left</channellabel>
								</audiochannel>
								<audiochannel>
									<sourcechannel>2</sourcechannel>
									<channellabel>right</channellabel>
								</audiochannel>
							</audio>
						</media>
					</file>
					<sourcetrack>
						<mediatype>video</mediatype>
					</sourcetrack>
					<fielddominance>none</fielddominance>
					<itemhistory>
						<uuid>D851C051-DFA2-40E8-9E6F-4E83F4A2A0F1</uuid>
						<uuid>48FFB6A2-1D5E-4616-84F8-6DDD2553D1F1</uuid>
					</itemhistory>
				</clipitem>
				<clipitem id="GoldsboroughOllieGrandad015Subclipb">
					<name>GoldsboroughOllieGrandad015Subclipb</name>
					<duration>163</duration>
					<rate>
						<ntsc>FALSE</ntsc>
						<timebase>25</timebase>
					</rate>
					<in>0</in>
					<out>162</out>
					<start>91435</start>
					<end>91597</end>
					<pixelaspectratio>Square</pixelaspectratio>
					<anamorphic>FALSE</anamorphic>
					<alphatype>none</alphatype>
					<logginginfo>
						<scene/>
						<shottake/>
						<lognote/>
						<good>FALSE</good>
					</logginginfo>
					<labels>
						<label2/>
					</labels>
					<comments>
						<mastercomment1/>
						<mastercomment2/>
						<mastercomment3/>
						<mastercomment4/>
					</comments>
					<file id="GoldsboroughOllieGrandad015Subclipb1">
						<name>GoldsboroughOllieGrandad015Subclipb</name>
						<pathurl>file://localhost/Volumes/Michael's%20Passport/woodbdrigenov2011media/GoldsboroughOllieGrandad015Subclipb</pathurl>
						<rate>
							<timebase>25</timebase>
						</rate>
						<duration>163</duration>
						<metadata>
							<storage>QuickTime</storage>
							<key>com.apple.finalcutstudio.media.uuid</key>
							<size>36</size>
							<type>UTF8</type>
							<value>FF341BAB-05C4-42BE-B4B2-D4879026F6DC</value>
						</metadata>
						<metadata>
							<storage>QuickTime</storage>
							<key>com.apple.finalcutstudio.media.history.uuid</key>
							<size>36</size>
							<type>UTF8</type>
							<value>C93FA0A5-3920-4548-AC5A-42B04C1B03A9</value>
						</metadata>
						<timecode>
							<rate>
								<timebase>25</timebase>
							</rate>
							<string>00:00:06:02</string>
							<frame>152</frame>
							<displayformat>NDF</displayformat>
							<source>source</source>
							<reel>
								<name>Goldsbrough Ollie Grandad</name>
							</reel>
						</timecode>
						<media>
							<video>
								<duration>163</duration>
								<samplecharacteristics>
									<width>1280</width>
									<height>720</height>
								</samplecharacteristics>
							</video>
							<audio>
								<samplecharacteristics>
									<samplerate>48000</samplerate>
									<depth>16</depth>
								</samplecharacteristics>
								<channelcount>2</channelcount>
								<layout>stereo</layout>
								<audiochannel>
									<sourcechannel>1</sourcechannel>
									<channellabel>left</channellabel>
								</audiochannel>
								<audiochannel>
									<sourcechannel>2</sourcechannel>
									<channellabel>right</channellabel>
								</audiochannel>
							</audio>
						</media>
					</file>
					<sourcetrack>
						<mediatype>video</mediatype>
					</sourcetrack>
					<fielddominance>none</fielddominance>
					<itemhistory>
						<uuid>0E8BCB97-9145-4907-AE35-51A321F72085</uuid>
						<uuid>210AEDD2-5805-4570-9FE2-9EDB0A4D29B3</uuid>
					</itemhistory>
				</clipitem>
				<clipitem id="GoldsboroughOllieGrandad015Subclipc">
					<name>GoldsboroughOllieGrandad015Subclipc</name>
					<duration>88</duration>
					<rate>
						<ntsc>FALSE</ntsc>
						<timebase>25</timebase>
					</rate>
					<in>0</in>
					<out>87</out>
					<start>91728</start>
					<end>91815</end>
					<pixelaspectratio>Square</pixelaspectratio>
					<anamorphic>FALSE</anamorphic>
					<alphatype>none</alphatype>
					<logginginfo>
						<scene/>
						<shottake/>
						<lognote/>
						<good>FALSE</good>
					</logginginfo>
					<labels>
						<label2/>
					</labels>
					<comments>
						<mastercomment1/>
						<mastercomment2/>
						<mastercomment3/>
						<mastercomment4/>
					</comments>
					<file id="GoldsboroughOllieGrandad015Subclipc1">
						<name>GoldsboroughOllieGrandad015Subclipc</name>
						<pathurl>file://localhost/Volumes/Michael's%20Passport/woodbdrigenov2011media/GoldsboroughOllieGrandad015Subclipc</pathurl>
						<rate>
							<timebase>25</timebase>
						</rate>
						<duration>88</duration>
						<metadata>
							<storage>QuickTime</storage>
							<key>com.apple.finalcutstudio.media.uuid</key>
							<size>36</size>
							<type>UTF8</type>
							<value>B7468684-B184-4477-B899-5229EC366117</value>
						</metadata>
						<metadata>
							<storage>QuickTime</storage>
							<key>com.apple.finalcutstudio.media.history.uuid</key>
							<size>36</size>
							<type>UTF8</type>
							<value>C93FA0A5-3920-4548-AC5A-42B04C1B03A9</value>
						</metadata>
						<timecode>
							<rate>
								<timebase>25</timebase>
							</rate>
							<string>00:00:17:20</string>
							<frame>445</frame>
							<displayformat>NDF</displayformat>
							<source>source</source>
							<reel>
								<name>Goldsbrough Ollie Grandad</name>
							</reel>
						</timecode>
						<media>
							<video>
								<duration>88</duration>
								<samplecharacteristics>
									<width>1280</width>
									<height>720</height>
								</samplecharacteristics>
							</video>
							<audio>
								<samplecharacteristics>
									<samplerate>48000</samplerate>
									<depth>16</depth>
								</samplecharacteristics>
								<channelcount>2</channelcount>
								<layout>stereo</layout>
								<audiochannel>
									<sourcechannel>1</sourcechannel>
									<channellabel>left</channellabel>
								</audiochannel>
								<audiochannel>
									<sourcechannel>2</sourcechannel>
									<channellabel>right</channellabel>
								</audiochannel>
							</audio>
						</media>
					</file>
					<sourcetrack>
						<mediatype>video</mediatype>
					</sourcetrack>
					<fielddominance>none</fielddominance>
					<itemhistory>
						<uuid>219C48AC-3F00-4C83-A008-0A6C87F0C7EB</uuid>
						<uuid>08C7232F-7471-47D6-AAC8-B88F67165C40</uuid>
					</itemhistory>
				</clipitem>
				<clipitem id="GoldsboroughOllieGrandad016 ">
					<name>GoldsboroughOllieGrandad016</name>
					<duration>546</duration>
					<rate>
						<ntsc>FALSE</ntsc>
						<timebase>25</timebase>
					</rate>
					<in>0</in>
					<out>546</out>
					<start>95107</start>
					<end>95653</end>
					<pixelaspectratio>Square</pixelaspectratio>
					<anamorphic>FALSE</anamorphic>
					<alphatype>none</alphatype>
					<logginginfo>
						<scene/>
						<shottake/>
						<lognote/>
						<good>FALSE</good>
					</logginginfo>
					<labels>
						<label2/>
					</labels>
					<comments>
						<mastercomment1/>
						<mastercomment2/>
						<mastercomment3/>
						<mastercomment4/>
					</comments>
					<file id="GoldsboroughOllieGrandad016 1">
						<name>GoldsboroughOllieGrandad016</name>
						<pathurl>file://localhost/Volumes/Michael's%20Passport/woodbdrigenov2011media/GoldsboroughOllieGrandad016</pathurl>
						<rate>
							<timebase>25</timebase>
						</rate>
						<duration>546</duration>
						<metadata>
							<storage>QuickTime</storage>
							<key>com.apple.finalcutstudio.media.uuid</key>
							<size>36</size>
							<type>UTF8</type>
							<value>A8E14D6E-56DA-43D0-B38C-BA6E333E25D9</value>
						</metadata>
						<metadata>
							<storage>QuickTime</storage>
							<key>com.apple.finalcutstudio.media.history.uuid</key>
							<size>36</size>
							<type>UTF8</type>
							<value>63F11507-6D4E-4FFF-A9E0-1916BA781A05</value>
						</metadata>
						<timecode>
							<rate>
								<timebase>25</timebase>
							</rate>
							<string>00:00:00:00</string>
							<frame>0</frame>
							<displayformat>NDF</displayformat>
							<source>source</source>
							<reel>
								<name>Goldsbrough Ollie Grandad</name>
							</reel>
						</timecode>
						<media>
							<video>
								<duration>546</duration>
								<samplecharacteristics>
									<width>1280</width>
									<height>720</height>
								</samplecharacteristics>
							</video>
							<audio>
								<samplecharacteristics>
									<samplerate>48000</samplerate>
									<depth>16</depth>
								</samplecharacteristics>
								<channelcount>2</channelcount>
								<layout>stereo</layout>
								<audiochannel>
									<sourcechannel>1</sourcechannel>
									<channellabel>left</channellabel>
								</audiochannel>
								<audiochannel>
									<sourcechannel>2</sourcechannel>
									<channellabel>right</channellabel>
								</audiochannel>
							</audio>
						</media>
					</file>
					<sourcetrack>
						<mediatype>video</mediatype>
					</sourcetrack>
					<fielddominance>none</fielddominance>
					<itemhistory>
						<uuid>B30763B7-9DAD-4A17-8338-CF6B3DC50070</uuid>
						<uuid>07A0C05B-5A3C-4859-98B2-AB800B84B9EE</uuid>
					</itemhistory>
				</clipitem>
				<clipitem id="GoldsboroughOllieGrandad017Subclipa">
					<name>GoldsboroughOllieGrandad017Subclipa</name>
					<duration>606</duration>
					<rate>
						<ntsc>FALSE</ntsc>
						<timebase>25</timebase>
					</rate>
					<in>0</in>
					<out>605</out>
					<start>100186</start>
					<end>100791</end>
					<pixelaspectratio>Square</pixelaspectratio>
					<anamorphic>FALSE</anamorphic>
					<alphatype>none</alphatype>
					<logginginfo>
						<scene/>
						<shottake/>
						<lognote/>
						<good>FALSE</good>
					</logginginfo>
					<labels>
						<label2/>
					</labels>
					<comments>
						<mastercomment1/>
						<mastercomment2/>
						<mastercomment3/>
						<mastercomment4/>
					</comments>
					<file id="GoldsboroughOllieGrandad017Subclipa1">
						<name>GoldsboroughOllieGrandad017Subclipa</name>
						<pathurl>file://localhost/Volumes/Michael's%20Passport/woodbdrigenov2011media/GoldsboroughOllieGrandad017Subclipa</pathurl>
						<rate>
							<timebase>25</timebase>
						</rate>
						<duration>606</duration>
						<metadata>
							<storage>QuickTime</storage>
							<key>com.apple.finalcutstudio.media.uuid</key>
							<size>36</size>
							<type>UTF8</type>
							<value>C6D38405-9AC3-4854-A6E3-8A681C851D59</value>
						</metadata>
						<metadata>
							<storage>QuickTime</storage>
							<key>com.apple.finalcutstudio.media.history.uuid</key>
							<size>36</size>
							<type>UTF8</type>
							<value>2AA808FA-1D95-46D2-B141-83DD1A78B76D</value>
						</metadata>
						<timecode>
							<rate>
								<timebase>25</timebase>
							</rate>
							<string>00:00:00:00</string>
							<frame>0</frame>
							<displayformat>NDF</displayformat>
							<source>source</source>
							<reel>
								<name>Goldsbrough Ollie Grandad</name>
							</reel>
						</timecode>
						<media>
							<video>
								<duration>606</duration>
								<samplecharacteristics>
									<width>1280</width>
									<height>720</height>
								</samplecharacteristics>
							</video>
							<audio>
								<samplecharacteristics>
									<samplerate>48000</samplerate>
									<depth>16</depth>
								</samplecharacteristics>
								<channelcount>2</channelcount>
								<layout>stereo</layout>
								<audiochannel>
									<sourcechannel>1</sourcechannel>
									<channellabel>left</channellabel>
								</audiochannel>
								<audiochannel>
									<sourcechannel>2</sourcechannel>
									<channellabel>right</channellabel>
								</audiochannel>
							</audio>
						</media>
					</file>
					<sourcetrack>
						<mediatype>video</mediatype>
					</sourcetrack>
					<fielddominance>none</fielddominance>
					<itemhistory>
						<uuid>F29B79DF-643D-498C-B15E-68705C743154</uuid>
						<uuid>21AF25C2-1DFA-47A7-A5DE-1C63FB126BEA</uuid>
					</itemhistory>
				</clipitem>
				<clipitem id="GoldsboroughOllieGrandad017Subclipb">
					<name>GoldsboroughOllieGrandad017Subclipb</name>
					<duration>2417</duration>
					<rate>
						<ntsc>FALSE</ntsc>
						<timebase>25</timebase>
					</rate>
					<in>0</in>
					<out>2416</out>
					<start>100929</start>
					<end>103345</end>
					<pixelaspectratio>Square</pixelaspectratio>
					<anamorphic>FALSE</anamorphic>
					<alphatype>none</alphatype>
					<logginginfo>
						<scene/>
						<shottake/>
						<lognote/>
						<good>FALSE</good>
					</logginginfo>
					<labels>
						<label2/>
					</labels>
					<comments>
						<mastercomment1/>
						<mastercomment2/>
						<mastercomment3/>
						<mastercomment4/>
					</comments>
					<file id="GoldsboroughOllieGrandad017Subclipb1">
						<name>GoldsboroughOllieGrandad017Subclipb</name>
						<pathurl>file://localhost/Volumes/Michael's%20Passport/woodbdrigenov2011media/GoldsboroughOllieGrandad017Subclipb</pathurl>
						<rate>
							<timebase>25</timebase>
						</rate>
						<duration>2417</duration>
						<metadata>
							<storage>QuickTime</storage>
							<key>com.apple.finalcutstudio.media.uuid</key>
							<size>36</size>
							<type>UTF8</type>
							<value>2370B209-2BDC-49CC-8F29-CFDCFC2B3484</value>
						</metadata>
						<metadata>
							<storage>QuickTime</storage>
							<key>com.apple.finalcutstudio.media.history.uuid</key>
							<size>36</size>
							<type>UTF8</type>
							<value>2AA808FA-1D95-46D2-B141-83DD1A78B76D</value>
						</metadata>
						<timecode>
							<rate>
								<timebase>25</timebase>
							</rate>
							<string>00:00:29:17</string>
							<frame>742</frame>
							<displayformat>NDF</displayformat>
							<source>source</source>
							<reel>
								<name>Goldsbrough Ollie Grandad</name>
							</reel>
						</timecode>
						<media>
							<video>
								<duration>2417</duration>
								<samplecharacteristics>
									<width>1280</width>
									<height>720</height>
								</samplecharacteristics>
							</video>
							<audio>
								<samplecharacteristics>
									<samplerate>48000</samplerate>
									<depth>16</depth>
								</samplecharacteristics>
								<channelcount>2</channelcount>
								<layout>stereo</layout>
								<audiochannel>
									<sourcechannel>1</sourcechannel>
									<channellabel>left</channellabel>
								</audiochannel>
								<audiochannel>
									<sourcechannel>2</sourcechannel>
									<channellabel>right</channellabel>
								</audiochannel>
							</audio>
						</media>
					</file>
					<sourcetrack>
						<mediatype>video</mediatype>
					</sourcetrack>
					<fielddominance>none</fielddominance>
					<itemhistory>
						<uuid>2817CA72-D674-473D-BA1E-DA24516132B0</uuid>
						<uuid>F31CF762-ED69-4E27-9F64-3891DA105602</uuid>
					</itemhistory>
				</clipitem>
				<clipitem id="GoldsboroughOllieGrandad018 ">
					<name>GoldsboroughOllieGrandad018</name>
					<duration>1079</duration>
					<rate>
						<ntsc>FALSE</ntsc>
						<timebase>25</timebase>
					</rate>
					<in>0</in>
					<out>227</out>
					<start>104597</start>
					<end>104824</end>
					<pixelaspectratio>Square</pixelaspectratio>
					<anamorphic>FALSE</anamorphic>
					<alphatype>none</alphatype>
					<logginginfo>
						<scene/>
						<shottake/>
						<lognote/>
						<good>FALSE</good>
					</logginginfo>
					<labels>
						<label2/>
					</labels>
					<comments>
						<mastercomment1/>
						<mastercomment2/>
						<mastercomment3/>
						<mastercomment4/>
					</comments>
					<file id="GoldsboroughOllieGrandad018 1">
						<name>GoldsboroughOllieGrandad018</name>
						<pathurl>file://localhost/Volumes/Michael's%20Passport/woodbdrigenov2011media/GoldsboroughOllieGrandad018</pathurl>
						<rate>
							<timebase>25</timebase>
						</rate>
						<duration>1079</duration>
						<metadata>
							<storage>QuickTime</storage>
							<key>com.apple.finalcutstudio.media.uuid</key>
							<size>36</size>
							<type>UTF8</type>
							<value>2729B4B0-0090-4D5C-A86C-FCAB0FA5D751</value>
						</metadata>
						<metadata>
							<storage>QuickTime</storage>
							<key>com.apple.finalcutstudio.media.history.uuid</key>
							<size>36</size>
							<type>UTF8</type>
							<value>56E3F43C-585F-40AA-998A-0A1CF801346D</value>
						</metadata>
						<timecode>
							<rate>
								<timebase>25</timebase>
							</rate>
							<string>00:00:00:00</string>
							<frame>0</frame>
							<displayformat>NDF</displayformat>
							<source>source</source>
							<reel>
								<name>Goldsbrough Ollie Grandad</name>
							</reel>
						</timecode>
						<media>
							<video>
								<duration>1079</duration>
								<samplecharacteristics>
									<width>1280</width>
									<height>720</height>
								</samplecharacteristics>
							</video>
							<audio>
								<samplecharacteristics>
									<samplerate>48000</samplerate>
									<depth>16</depth>
								</samplecharacteristics>
								<channelcount>2</channelcount>
								<layout>stereo</layout>
								<audiochannel>
									<sourcechannel>1</sourcechannel>
									<channellabel>left</channellabel>
								</audiochannel>
								<audiochannel>
									<sourcechannel>2</sourcechannel>
									<channellabel>right</channellabel>
								</audiochannel>
							</audio>
						</media>
					</file>
					<sourcetrack>
						<mediatype>video</mediatype>
					</sourcetrack>
					<fielddominance>none</fielddominance>
					<itemhistory>
						<uuid>24ACB017-E42C-4368-BD70-1E17F9ED9EC4</uuid>
						<uuid>62D8870B-C7DD-488D-85C3-8AE16327F1E5</uuid>
					</itemhistory>
				</clipitem>
				<clipitem id="AndrewLord008SubclipJ">
					<name>AndrewLord008SubclipJ</name>
					<duration>2083</duration>
					<rate>
						<ntsc>FALSE</ntsc>
						<timebase>25</timebase>
					</rate>
					<in>0</in>
					<out>2082</out>
					<start>104824</start>
					<end>106906</end>
					<pixelaspectratio>Square</pixelaspectratio>
					<anamorphic>FALSE</anamorphic>
					<alphatype>none</alphatype>
					<logginginfo>
						<scene/>
						<shottake/>
						<lognote/>
						<good>FALSE</good>
					</logginginfo>
					<labels>
						<label2/>
					</labels>
					<comments>
						<mastercomment1/>
						<mastercomment2/>
						<mastercomment3/>
						<mastercomment4/>
					</comments>
					<file id="AndrewLord008SubclipJ1">
						<name>AndrewLord008SubclipJ</name>
						<pathurl>file://localhost/Volumes/Michael's%20Passport/woodbdrigenov2011media/AndrewLord008SubclipJ</pathurl>
						<rate>
							<timebase>25</timebase>
						</rate>
						<duration>2083</duration>
						<metadata>
							<storage>QuickTime</storage>
							<key>com.apple.finalcutstudio.media.uuid</key>
							<size>36</size>
							<type>UTF8</type>
							<value>95506447-BB39-4370-BF00-EAAFC6025417</value>
						</metadata>
						<media>
							<video>
								<duration>2083</duration>
								<samplecharacteristics>
									<width>1280</width>
									<height>720</height>
								</samplecharacteristics>
							</video>
							<audio>
								<samplecharacteristics>
									<samplerate>48000</samplerate>
									<depth>16</depth>
								</samplecharacteristics>
								<channelcount>2</channelcount>
								<layout>stereo</layout>
								<audiochannel>
									<sourcechannel>1</sourcechannel>
									<channellabel>left</channellabel>
								</audiochannel>
								<audiochannel>
									<sourcechannel>2</sourcechannel>
									<channellabel>right</channellabel>
								</audiochannel>
							</audio>
						</media>
					</file>
					<sourcetrack>
						<mediatype>video</mediatype>
					</sourcetrack>
					<fielddominance>none</fielddominance>
					<itemhistory>
						<uuid>A8FD3513-38CC-4A53-BDDE-D90AF0577D4F</uuid>
						<uuid>510C6049-3FBC-465B-A4D8-D02A59F1CED6</uuid>
					</itemhistory>
				</clipitem>
				<clipitem id="GoldsboroughOllieGrandad019Subclipa">
					<name>GoldsboroughOllieGrandad019Subclipa</name>
					<duration>252</duration>
					<rate>
						<ntsc>FALSE</ntsc>
						<timebase>25</timebase>
					</rate>
					<in>0</in>
					<out>252</out>
					<start>108623</start>
					<end>108875</end>
					<pixelaspectratio>Square</pixelaspectratio>
					<anamorphic>FALSE</anamorphic>
					<alphatype>none</alphatype>
					<logginginfo>
						<scene/>
						<shottake/>
						<lognote/>
						<good>FALSE</good>
					</logginginfo>
					<labels>
						<label2/>
					</labels>
					<comments>
						<mastercomment1/>
						<mastercomment2/>
						<mastercomment3/>
						<mastercomment4/>
					</comments>
					<file id="GoldsboroughOllieGrandad019Subclipa1">
						<name>GoldsboroughOllieGrandad019Subclipa</name>
						<pathurl>file://localhost/Volumes/Michael's%20Passport/woodbdrigenov2011media/GoldsboroughOllieGrandad019Subclipa</pathurl>
						<rate>
							<timebase>25</timebase>
						</rate>
						<duration>252</duration>
						<metadata>
							<storage>QuickTime</storage>
							<key>com.apple.finalcutstudio.media.uuid</key>
							<size>36</size>
							<type>UTF8</type>
							<value>99C4EBB0-C099-45F0-934C-5BB3DC476507</value>
						</metadata>
						<metadata>
							<storage>QuickTime</storage>
							<key>com.apple.finalcutstudio.media.history.uuid</key>
							<size>36</size>
							<type>UTF8</type>
							<value>5CD58AA1-DDBD-4932-839A-2373FE29552B</value>
						</metadata>
						<timecode>
							<rate>
								<timebase>25</timebase>
							</rate>
							<string>00:00:00:00</string>
							<frame>0</frame>
							<displayformat>NDF</displayformat>
							<source>source</source>
							<reel>
								<name>Goldsbrough Ollie Grandad</name>
							</reel>
						</timecode>
						<media>
							<video>
								<duration>252</duration>
								<samplecharacteristics>
									<width>1280</width>
									<height>720</height>
								</samplecharacteristics>
							</video>
							<audio>
								<samplecharacteristics>
									<samplerate>48000</samplerate>
									<depth>16</depth>
								</samplecharacteristics>
								<channelcount>2</channelcount>
								<layout>stereo</layout>
								<audiochannel>
									<sourcechannel>1</sourcechannel>
									<channellabel>left</channellabel>
								</audiochannel>
								<audiochannel>
									<sourcechannel>2</sourcechannel>
									<channellabel>right</channellabel>
								</audiochannel>
							</audio>
						</media>
					</file>
					<sourcetrack>
						<mediatype>video</mediatype>
					</sourcetrack>
					<fielddominance>none</fielddominance>
					<itemhistory>
						<uuid>D01E1BF6-2C15-434B-95AC-3577A335BBDC</uuid>
						<uuid>DC60FC58-5CC0-4E0E-BCB6-57C62AC5B595</uuid>
					</itemhistory>
				</clipitem>
				<clipitem id="GoldsboroughOllieGrandad019Subclipb">
					<name>GoldsboroughOllieGrandad019Subclipb</name>
					<duration>558</duration>
					<rate>
						<ntsc>FALSE</ntsc>
						<timebase>25</timebase>
					</rate>
					<in>0</in>
					<out>558</out>
					<start>109105</start>
					<end>109663</end>
					<pixelaspectratio>Square</pixelaspectratio>
					<anamorphic>FALSE</anamorphic>
					<alphatype>none</alphatype>
					<logginginfo>
						<scene/>
						<shottake/>
						<lognote/>
						<good>FALSE</good>
					</logginginfo>
					<labels>
						<label2/>
					</labels>
					<comments>
						<mastercomment1/>
						<mastercomment2/>
						<mastercomment3/>
						<mastercomment4/>
					</comments>
					<file id="GoldsboroughOllieGrandad019Subclipb1">
						<name>GoldsboroughOllieGrandad019Subclipb</name>
						<pathurl>file://localhost/Volumes/Michael's%20Passport/woodbdrigenov2011media/GoldsboroughOllieGrandad019Subclipb</pathurl>
						<rate>
							<timebase>25</timebase>
						</rate>
						<duration>558</duration>
						<metadata>
							<storage>QuickTime</storage>
							<key>com.apple.finalcutstudio.media.uuid</key>
							<size>36</size>
							<type>UTF8</type>
							<value>BCE510AF-6F0D-4CA0-8BAF-573490D85005</value>
						</metadata>
						<metadata>
							<storage>QuickTime</storage>
							<key>com.apple.finalcutstudio.media.history.uuid</key>
							<size>36</size>
							<type>UTF8</type>
							<value>5CD58AA1-DDBD-4932-839A-2373FE29552B</value>
						</metadata>
						<timecode>
							<rate>
								<timebase>25</timebase>
							</rate>
							<string>00:00:19:09</string>
							<frame>484</frame>
							<displayformat>NDF</displayformat>
							<source>source</source>
							<reel>
								<name>Goldsbrough Ollie Grandad</name>
							</reel>
						</timecode>
						<media>
							<video>
								<duration>558</duration>
								<samplecharacteristics>
									<width>1280</width>
									<height>720</height>
								</samplecharacteristics>
							</video>
							<audio>
								<samplecharacteristics>
									<samplerate>48000</samplerate>
									<depth>16</depth>
								</samplecharacteristics>
								<channelcount>2</channelcount>
								<layout>stereo</layout>
								<audiochannel>
									<sourcechannel>1</sourcechannel>
									<channellabel>left</channellabel>
								</audiochannel>
								<audiochannel>
									<sourcechannel>2</sourcechannel>
									<channellabel>right</channellabel>
								</audiochannel>
							</audio>
						</media>
					</file>
					<sourcetrack>
						<mediatype>video</mediatype>
					</sourcetrack>
					<fielddominance>none</fielddominance>
					<itemhistory>
						<uuid>4090D54E-B19B-4ABD-944D-1ECBC9780916</uuid>
						<uuid>B8E98605-388C-438E-B210-AFE8E21A3B17</uuid>
					</itemhistory>
				</clipitem>
				<clipitem id="GoldsboroughOllieGrandad019Subclipc">
					<name>GoldsboroughOllieGrandad019Subclipc</name>
					<duration>474</duration>
					<rate>
						<ntsc>FALSE</ntsc>
						<timebase>25</timebase>
					</rate>
					<in>0</in>
					<out>474</out>
					<start>109663</start>
					<end>110137</end>
					<pixelaspectratio>Square</pixelaspectratio>
					<anamorphic>FALSE</anamorphic>
					<alphatype>none</alphatype>
					<logginginfo>
						<scene/>
						<shottake/>
						<lognote/>
						<good>FALSE</good>
					</logginginfo>
					<labels>
						<label2/>
					</labels>
					<comments>
						<mastercomment1/>
						<mastercomment2/>
						<mastercomment3/>
						<mastercomment4/>
					</comments>
					<file id="GoldsboroughOllieGrandad019Subclipc1">
						<name>GoldsboroughOllieGrandad019Subclipc</name>
						<pathurl>file://localhost/Volumes/Michael's%20Passport/woodbdrigenov2011media/GoldsboroughOllieGrandad019Subclipc</pathurl>
						<rate>
							<timebase>25</timebase>
						</rate>
						<duration>474</duration>
						<metadata>
							<storage>QuickTime</storage>
							<key>com.apple.finalcutstudio.media.uuid</key>
							<size>36</size>
							<type>UTF8</type>
							<value>3D92DF05-568C-4E85-BC4A-B27C095F1499</value>
						</metadata>
						<metadata>
							<storage>QuickTime</storage>
							<key>com.apple.finalcutstudio.media.history.uuid</key>
							<size>36</size>
							<type>UTF8</type>
							<value>5CD58AA1-DDBD-4932-839A-2373FE29552B</value>
						</metadata>
						<timecode>
							<rate>
								<timebase>25</timebase>
							</rate>
							<string>00:00:41:17</string>
							<frame>1042</frame>
							<displayformat>NDF</displayformat>
							<source>source</source>
							<reel>
								<name>Goldsbrough Ollie Grandad</name>
							</reel>
						</timecode>
						<media>
							<video>
								<duration>474</duration>
								<samplecharacteristics>
									<width>1280</width>
									<height>720</height>
								</samplecharacteristics>
							</video>
							<audio>
								<samplecharacteristics>
									<samplerate>48000</samplerate>
									<depth>16</depth>
								</samplecharacteristics>
								<channelcount>2</channelcount>
								<layout>stereo</layout>
								<audiochannel>
									<sourcechannel>1</sourcechannel>
									<channellabel>left</channellabel>
								</audiochannel>
								<audiochannel>
									<sourcechannel>2</sourcechannel>
									<channellabel>right</channellabel>
								</audiochannel>
							</audio>
						</media>
					</file>
					<sourcetrack>
						<mediatype>video</mediatype>
					</sourcetrack>
					<fielddominance>none</fielddominance>
					<itemhistory>
						<uuid>4090E027-2561-4A61-962C-15311C4A9DCE</uuid>
						<uuid>14B39488-C947-41EB-93DB-90374F971AF0</uuid>
					</itemhistory>
				</clipitem>
				<clipitem id="GoldsboroughOllieGrandad019Subclipc2">
					<name>GoldsboroughOllieGrandad019Subclipc</name>
					<duration>1055</duration>
					<rate>
						<ntsc>FALSE</ntsc>
						<timebase>25</timebase>
					</rate>
					<in>0</in>
					<out>1055</out>
					<start>110340</start>
					<end>111395</end>
					<pixelaspectratio>Square</pixelaspectratio>
					<anamorphic>FALSE</anamorphic>
					<alphatype>none</alphatype>
					<logginginfo>
						<scene/>
						<shottake/>
						<lognote/>
						<good>FALSE</good>
					</logginginfo>
					<labels>
						<label2/>
					</labels>
					<comments>
						<mastercomment1/>
						<mastercomment2/>
						<mastercomment3/>
						<mastercomment4/>
					</comments>
					<file id="GoldsboroughOllieGrandad019Subclipaa">
						<name>GoldsboroughOllieGrandad019Subclipaa</name>
						<pathurl>file://localhost/Volumes/Michael's%20Passport/woodbdrigenov2011media/GoldsboroughOllieGrandad019Subclipaa</pathurl>
						<rate>
							<timebase>25</timebase>
						</rate>
						<duration>1055</duration>
						<metadata>
							<storage>QuickTime</storage>
							<key>com.apple.finalcutstudio.media.uuid</key>
							<size>36</size>
							<type>UTF8</type>
							<value>A5EF03AD-6429-43C4-B233-6546EED20C4C</value>
						</metadata>
						<metadata>
							<storage>QuickTime</storage>
							<key>com.apple.finalcutstudio.media.history.uuid</key>
							<size>36</size>
							<type>UTF8</type>
							<value>5CD58AA1-DDBD-4932-839A-2373FE29552B</value>
						</metadata>
						<timecode>
							<rate>
								<timebase>25</timebase>
							</rate>
							<string>00:01:08:19</string>
							<frame>1719</frame>
							<displayformat>NDF</displayformat>
							<source>source</source>
							<reel>
								<name>Goldsbrough Ollie Grandad</name>
							</reel>
						</timecode>
						<media>
							<video>
								<duration>1055</duration>
								<samplecharacteristics>
									<width>1280</width>
									<height>720</height>
								</samplecharacteristics>
							</video>
							<audio>
								<samplecharacteristics>
									<samplerate>48000</samplerate>
									<depth>16</depth>
								</samplecharacteristics>
								<channelcount>2</channelcount>
								<layout>stereo</layout>
								<audiochannel>
									<sourcechannel>1</sourcechannel>
									<channellabel>left</channellabel>
								</audiochannel>
								<audiochannel>
									<sourcechannel>2</sourcechannel>
									<channellabel>right</channellabel>
								</audiochannel>
							</audio>
						</media>
					</file>
					<sourcetrack>
						<mediatype>video</mediatype>
					</sourcetrack>
					<fielddominance>none</fielddominance>
					<itemhistory>
						<uuid>B989A56C-81DB-4CA6-8699-4B127BEBF17C</uuid>
						<uuid>18DA7897-5860-4278-8CE2-02FD4B11015B</uuid>
					</itemhistory>
				</clipitem>
				<clipitem id="GoldsboroughOllieGrandad019Subclipd">
					<name>GoldsboroughOllieGrandad019Subclipd</name>
					<duration>489</duration>
					<rate>
						<ntsc>FALSE</ntsc>
						<timebase>25</timebase>
					</rate>
					<in>0</in>
					<out>489</out>
					<start>111395</start>
					<end>111884</end>
					<pixelaspectratio>Square</pixelaspectratio>
					<anamorphic>FALSE</anamorphic>
					<alphatype>none</alphatype>
					<logginginfo>
						<scene/>
						<shottake/>
						<lognote/>
						<good>FALSE</good>
					</logginginfo>
					<labels>
						<label2/>
					</labels>
					<comments>
						<mastercomment1/>
						<mastercomment2/>
						<mastercomment3/>
						<mastercomment4/>
					</comments>
					<file id="GoldsboroughOllieGrandad019Subclipd1">
						<name>GoldsboroughOllieGrandad019Subclipd</name>
						<pathurl>file://localhost/Volumes/Michael's%20Passport/woodbdrigenov2011media/GoldsboroughOllieGrandad019Subclipd</pathurl>
						<rate>
							<timebase>25</timebase>
						</rate>
						<duration>489</duration>
						<metadata>
							<storage>QuickTime</storage>
							<key>com.apple.finalcutstudio.media.uuid</key>
							<size>36</size>
							<type>UTF8</type>
							<value>C3E953E0-B027-4DE5-9508-B1EFEA11115D</value>
						</metadata>
						<metadata>
							<storage>QuickTime</storage>
							<key>com.apple.finalcutstudio.media.history.uuid</key>
							<size>36</size>
							<type>UTF8</type>
							<value>5CD58AA1-DDBD-4932-839A-2373FE29552B</value>
						</metadata>
						<timecode>
							<rate>
								<timebase>25</timebase>
							</rate>
							<string>00:01:50:24</string>
							<frame>2774</frame>
							<displayformat>NDF</displayformat>
							<source>source</source>
							<reel>
								<name>Goldsbrough Ollie Grandad</name>
							</reel>
						</timecode>
						<media>
							<video>
								<duration>489</duration>
								<samplecharacteristics>
									<width>1280</width>
									<height>720</height>
								</samplecharacteristics>
							</video>
							<audio>
								<samplecharacteristics>
									<samplerate>48000</samplerate>
									<depth>16</depth>
								</samplecharacteristics>
								<channelcount>2</channelcount>
								<layout>stereo</layout>
								<audiochannel>
									<sourcechannel>1</sourcechannel>
									<channellabel>left</channellabel>
								</audiochannel>
								<audiochannel>
									<sourcechannel>2</sourcechannel>
									<channellabel>right</channellabel>
								</audiochannel>
							</audio>
						</media>
					</file>
					<sourcetrack>
						<mediatype>video</mediatype>
					</sourcetrack>
					<fielddominance>none</fielddominance>
					<itemhistory>
						<uuid>4B76F339-6206-44FA-B9B6-D02526B25794</uuid>
						<uuid>B90F1D28-0873-4337-A42D-01C5A24B286B</uuid>
					</itemhistory>
				</clipitem>
				<clipitem id="GoldsboroughOllieGrandad021 ">
					<name>GoldsboroughOllieGrandad021</name>
					<duration>1274</duration>
					<rate>
						<ntsc>FALSE</ntsc>
						<timebase>25</timebase>
					</rate>
					<in>0</in>
					<out>1273</out>
					<start>120868</start>
					<end>122141</end>
					<pixelaspectratio>Square</pixelaspectratio>
					<anamorphic>FALSE</anamorphic>
					<alphatype>none</alphatype>
					<logginginfo>
						<scene/>
						<shottake/>
						<lognote/>
						<good>FALSE</good>
					</logginginfo>
					<labels>
						<label2/>
					</labels>
					<comments>
						<mastercomment1/>
						<mastercomment2/>
						<mastercomment3/>
						<mastercomment4/>
					</comments>
					<file id="GoldsboroughOllieGrandad021 1">
						<name>GoldsboroughOllieGrandad021</name>
						<pathurl>file://localhost/Volumes/Michael's%20Passport/woodbdrigenov2011media/GoldsboroughOllieGrandad021</pathurl>
						<rate>
							<timebase>25</timebase>
						</rate>
						<duration>1274</duration>
						<metadata>
							<storage>QuickTime</storage>
							<key>com.apple.finalcutstudio.media.uuid</key>
							<size>36</size>
							<type>UTF8</type>
							<value>D628BB4C-61FD-43FA-B513-F71B78C4F25F</value>
						</metadata>
						<metadata>
							<storage>QuickTime</storage>
							<key>com.apple.finalcutstudio.media.history.uuid</key>
							<size>36</size>
							<type>UTF8</type>
							<value>01407FB6-7868-41A9-8942-E354CFB480B2</value>
						</metadata>
						<timecode>
							<rate>
								<timebase>25</timebase>
							</rate>
							<string>00:00:00:00</string>
							<frame>0</frame>
							<displayformat>NDF</displayformat>
							<source>source</source>
							<reel>
								<name>Goldsbrough Ollie Grandad</name>
							</reel>
						</timecode>
						<media>
							<video>
								<duration>1274</duration>
								<samplecharacteristics>
									<width>1280</width>
									<height>720</height>
								</samplecharacteristics>
							</video>
							<audio>
								<samplecharacteristics>
									<samplerate>48000</samplerate>
									<depth>16</depth>
								</samplecharacteristics>
								<channelcount>2</channelcount>
								<layout>stereo</layout>
								<audiochannel>
									<sourcechannel>1</sourcechannel>
									<channellabel>left</channellabel>
								</audiochannel>
								<audiochannel>
									<sourcechannel>2</sourcechannel>
									<channellabel>right</channellabel>
								</audiochannel>
							</audio>
						</media>
					</file>
					<sourcetrack>
						<mediatype>video</mediatype>
					</sourcetrack>
					<fielddominance>none</fielddominance>
					<itemhistory>
						<uuid>3BE14586-99C3-4F81-BC80-3D7158D37F19</uuid>
						<uuid>CF5CCBAB-7334-41FD-9E64-3BC82AB6599D</uuid>
					</itemhistory>
				</clipitem>
				<clipitem id="GoldsboroughOllieGrandad022Subclipa">
					<name>GoldsboroughOllieGrandad022Subclipa</name>
					<duration>466</duration>
					<rate>
						<ntsc>FALSE</ntsc>
						<timebase>25</timebase>
					</rate>
					<in>0</in>
					<out>465</out>
					<start>124302</start>
					<end>124767</end>
					<pixelaspectratio>Square</pixelaspectratio>
					<anamorphic>FALSE</anamorphic>
					<alphatype>none</alphatype>
					<logginginfo>
						<scene/>
						<shottake/>
						<lognote/>
						<good>FALSE</good>
					</logginginfo>
					<labels>
						<label2/>
					</labels>
					<comments>
						<mastercomment1/>
						<mastercomment2/>
						<mastercomment3/>
						<mastercomment4/>
					</comments>
					<file id="GoldsboroughOllieGrandad022Subclipa1">
						<name>GoldsboroughOllieGrandad022Subclipa</name>
						<pathurl>file://localhost/Volumes/Michael's%20Passport/woodbdrigenov2011media/GoldsboroughOllieGrandad022Subclipa</pathurl>
						<rate>
							<timebase>25</timebase>
						</rate>
						<duration>466</duration>
						<metadata>
							<storage>QuickTime</storage>
							<key>com.apple.finalcutstudio.media.uuid</key>
							<size>36</size>
							<type>UTF8</type>
							<value>B048721E-DF0D-4750-96DF-96BDB93429B9</value>
						</metadata>
						<metadata>
							<storage>QuickTime</storage>
							<key>com.apple.finalcutstudio.media.history.uuid</key>
							<size>36</size>
							<type>UTF8</type>
							<value>C16597D5-BEB5-43B6-9A11-6E1915258469</value>
						</metadata>
						<timecode>
							<rate>
								<timebase>25</timebase>
							</rate>
							<string>00:00:00:00</string>
							<frame>0</frame>
							<displayformat>NDF</displayformat>
							<source>source</source>
							<reel>
								<name>Goldsbrough Ollie Grandad</name>
							</reel>
						</timecode>
						<media>
							<video>
								<duration>466</duration>
								<samplecharacteristics>
									<width>1280</width>
									<height>720</height>
								</samplecharacteristics>
							</video>
							<audio>
								<samplecharacteristics>
									<samplerate>48000</samplerate>
									<depth>16</depth>
								</samplecharacteristics>
								<channelcount>2</channelcount>
								<layout>stereo</layout>
								<audiochannel>
									<sourcechannel>1</sourcechannel>
									<channellabel>left</channellabel>
								</audiochannel>
								<audiochannel>
									<sourcechannel>2</sourcechannel>
									<channellabel>right</channellabel>
								</audiochannel>
							</audio>
						</media>
					</file>
					<sourcetrack>
						<mediatype>video</mediatype>
					</sourcetrack>
					<fielddominance>none</fielddominance>
					<itemhistory>
						<uuid>C2E658DF-129B-41E5-B658-ED9BD222911A</uuid>
						<uuid>291F5E0C-D29A-4896-89D8-E18A9503359D</uuid>
					</itemhistory>
				</clipitem>
				<clipitem id="GoldsboroughOllieGrandad022Subclipb">
					<name>GoldsboroughOllieGrandad022Subclipb</name>
					<duration>381</duration>
					<rate>
						<ntsc>FALSE</ntsc>
						<timebase>25</timebase>
					</rate>
					<in>0</in>
					<out>380</out>
					<start>124857</start>
					<end>125237</end>
					<pixelaspectratio>Square</pixelaspectratio>
					<anamorphic>FALSE</anamorphic>
					<alphatype>none</alphatype>
					<logginginfo>
						<scene/>
						<shottake/>
						<lognote/>
						<good>FALSE</good>
					</logginginfo>
					<labels>
						<label2/>
					</labels>
					<comments>
						<mastercomment1/>
						<mastercomment2/>
						<mastercomment3/>
						<mastercomment4/>
					</comments>
					<file id="GoldsboroughOllieGrandad022Subclipb1">
						<name>GoldsboroughOllieGrandad022Subclipb</name>
						<pathurl>file://localhost/Volumes/Michael's%20Passport/woodbdrigenov2011media/GoldsboroughOllieGrandad022Subclipb</pathurl>
						<rate>
							<timebase>25</timebase>
						</rate>
						<duration>381</duration>
						<metadata>
							<storage>QuickTime</storage>
							<key>com.apple.finalcutstudio.media.uuid</key>
							<size>36</size>
							<type>UTF8</type>
							<value>C5446B5D-18A3-4308-8EB1-1F07BD9E6476</value>
						</metadata>
						<metadata>
							<storage>QuickTime</storage>
							<key>com.apple.finalcutstudio.media.history.uuid</key>
							<size>36</size>
							<type>UTF8</type>
							<value>C16597D5-BEB5-43B6-9A11-6E1915258469</value>
						</metadata>
						<timecode>
							<rate>
								<timebase>25</timebase>
							</rate>
							<string>00:00:22:05</string>
							<frame>555</frame>
							<displayformat>NDF</displayformat>
							<source>source</source>
							<reel>
								<name>Goldsbrough Ollie Grandad</name>
							</reel>
						</timecode>
						<media>
							<video>
								<duration>381</duration>
								<samplecharacteristics>
									<width>1280</width>
									<height>720</height>
								</samplecharacteristics>
							</video>
							<audio>
								<samplecharacteristics>
									<samplerate>48000</samplerate>
									<depth>16</depth>
								</samplecharacteristics>
								<channelcount>2</channelcount>
								<layout>stereo</layout>
								<audiochannel>
									<sourcechannel>1</sourcechannel>
									<channellabel>left</channellabel>
								</audiochannel>
								<audiochannel>
									<sourcechannel>2</sourcechannel>
									<channellabel>right</channellabel>
								</audiochannel>
							</audio>
						</media>
					</file>
					<sourcetrack>
						<mediatype>video</mediatype>
					</sourcetrack>
					<fielddominance>none</fielddominance>
					<itemhistory>
						<uuid>7E9B947B-09EA-4AC8-B1FA-4CD128E7D6E3</uuid>
						<uuid>C8F609B5-23B6-48EC-98BA-358CCA82D89A</uuid>
					</itemhistory>
				</clipitem>
				<clipitem id="GoldsboroughOllieGrandad023Subclipa">
					<name>GoldsboroughOllieGrandad023Subclipa</name>
					<duration>636</duration>
					<rate>
						<ntsc>FALSE</ntsc>
						<timebase>25</timebase>
					</rate>
					<in>0</in>
					<out>634</out>
					<start>126467</start>
					<end>127101</end>
					<pixelaspectratio>Square</pixelaspectratio>
					<anamorphic>FALSE</anamorphic>
					<alphatype>none</alphatype>
					<logginginfo>
						<scene/>
						<shottake/>
						<lognote/>
						<good>FALSE</good>
					</logginginfo>
					<labels>
						<label2/>
					</labels>
					<comments>
						<mastercomment1/>
						<mastercomment2/>
						<mastercomment3/>
						<mastercomment4/>
					</comments>
					<file id="GoldsboroughOllieGrandad023Subclipa1">
						<name>GoldsboroughOllieGrandad023Subclipa</name>
						<pathurl>file://localhost/Volumes/Michael's%20Passport/woodbdrigenov2011media/GoldsboroughOllieGrandad023Subclipa</pathurl>
						<rate>
							<timebase>25</timebase>
						</rate>
						<duration>636</duration>
						<metadata>
							<storage>QuickTime</storage>
							<key>com.apple.finalcutstudio.media.uuid</key>
							<size>36</size>
							<type>UTF8</type>
							<value>E125BDF4-BB25-429F-8AF7-C868BCBEC25C</value>
						</metadata>
						<metadata>
							<storage>QuickTime</storage>
							<key>com.apple.finalcutstudio.media.history.uuid</key>
							<size>36</size>
							<type>UTF8</type>
							<value>9E31BAE2-ACF2-4590-ACD0-3B4C684DDAEF</value>
						</metadata>
						<timecode>
							<rate>
								<timebase>25</timebase>
							</rate>
							<string>00:00:00:00</string>
							<frame>0</frame>
							<displayformat>NDF</displayformat>
							<source>source</source>
							<reel>
								<name>Goldsbrough Ollie Grandad</name>
							</reel>
						</timecode>
						<media>
							<video>
								<duration>636</duration>
								<samplecharacteristics>
									<width>1280</width>
									<height>720</height>
								</samplecharacteristics>
							</video>
							<audio>
								<samplecharacteristics>
									<samplerate>48000</samplerate>
									<depth>16</depth>
								</samplecharacteristics>
								<channelcount>2</channelcount>
								<layout>stereo</layout>
								<audiochannel>
									<sourcechannel>1</sourcechannel>
									<channellabel>left</channellabel>
								</audiochannel>
								<audiochannel>
									<sourcechannel>2</sourcechannel>
									<channellabel>right</channellabel>
								</audiochannel>
							</audio>
						</media>
					</file>
					<sourcetrack>
						<mediatype>video</mediatype>
					</sourcetrack>
					<fielddominance>none</fielddominance>
					<itemhistory>
						<uuid>026F1BE3-3864-409B-9A34-1929554F3420</uuid>
						<uuid>CEDFDB2A-C4E1-485A-98E1-548F0DB19CF8</uuid>
					</itemhistory>
				</clipitem>
				<clipitem id="GoldsboroughOllieGrandad023Subclipb">
					<name>GoldsboroughOllieGrandad023Subclipb</name>
					<duration>263</duration>
					<rate>
						<ntsc>FALSE</ntsc>
						<timebase>25</timebase>
					</rate>
					<in>0</in>
					<out>262</out>
					<start>127101</start>
					<end>127363</end>
					<pixelaspectratio>Square</pixelaspectratio>
					<anamorphic>FALSE</anamorphic>
					<alphatype>none</alphatype>
					<logginginfo>
						<scene/>
						<shottake/>
						<lognote/>
						<good>FALSE</good>
					</logginginfo>
					<labels>
						<label2/>
					</labels>
					<comments>
						<mastercomment1/>
						<mastercomment2/>
						<mastercomment3/>
						<mastercomment4/>
					</comments>
					<file id="GoldsboroughOllieGrandad023Subclipb1">
						<name>GoldsboroughOllieGrandad023Subclipb</name>
						<pathurl>file://localhost/Volumes/Michael's%20Passport/woodbdrigenov2011media/GoldsboroughOllieGrandad023Subclipb</pathurl>
						<rate>
							<timebase>25</timebase>
						</rate>
						<duration>263</duration>
						<metadata>
							<storage>QuickTime</storage>
							<key>com.apple.finalcutstudio.media.uuid</key>
							<size>36</size>
							<type>UTF8</type>
							<value>D1BD03BA-B6A8-452D-B1AC-A3F8808BCE25</value>
						</metadata>
						<metadata>
							<storage>QuickTime</storage>
							<key>com.apple.finalcutstudio.media.history.uuid</key>
							<size>36</size>
							<type>UTF8</type>
							<value>9E31BAE2-ACF2-4590-ACD0-3B4C684DDAEF</value>
						</metadata>
						<timecode>
							<rate>
								<timebase>25</timebase>
							</rate>
							<string>00:00:25:10</string>
							<frame>635</frame>
							<displayformat>NDF</displayformat>
							<source>source</source>
							<reel>
								<name>Goldsbrough Ollie Grandad</name>
							</reel>
						</timecode>
						<media>
							<video>
								<duration>263</duration>
								<samplecharacteristics>
									<width>1280</width>
									<height>720</height>
								</samplecharacteristics>
							</video>
							<audio>
								<samplecharacteristics>
									<samplerate>48000</samplerate>
									<depth>16</depth>
								</samplecharacteristics>
								<channelcount>2</channelcount>
								<layout>stereo</layout>
								<audiochannel>
									<sourcechannel>1</sourcechannel>
									<channellabel>left</channellabel>
								</audiochannel>
								<audiochannel>
									<sourcechannel>2</sourcechannel>
									<channellabel>right</channellabel>
								</audiochannel>
							</audio>
						</media>
					</file>
					<sourcetrack>
						<mediatype>video</mediatype>
					</sourcetrack>
					<fielddominance>none</fielddominance>
					<itemhistory>
						<uuid>06EEB040-9C10-400D-8CD3-9BFAFF2D7365</uuid>
						<uuid>69535DAF-958D-4E4C-A1C0-E9F3D11F3696</uuid>
					</itemhistory>
				</clipitem>
				<clipitem id="GoldsboroughOllieGrandad023Subclipc">
					<name>GoldsboroughOllieGrandad023Subclipc</name>
					<duration>292</duration>
					<rate>
						<ntsc>FALSE</ntsc>
						<timebase>25</timebase>
					</rate>
					<in>0</in>
					<out>291</out>
					<start>127474</start>
					<end>127765</end>
					<pixelaspectratio>Square</pixelaspectratio>
					<anamorphic>FALSE</anamorphic>
					<alphatype>none</alphatype>
					<logginginfo>
						<scene/>
						<shottake/>
						<lognote/>
						<good>FALSE</good>
					</logginginfo>
					<labels>
						<label2/>
					</labels>
					<comments>
						<mastercomment1/>
						<mastercomment2/>
						<mastercomment3/>
						<mastercomment4/>
					</comments>
					<file id="GoldsboroughOllieGrandad023Subclipc1">
						<name>GoldsboroughOllieGrandad023Subclipc</name>
						<pathurl>file://localhost/Volumes/Michael's%20Passport/woodbdrigenov2011media/GoldsboroughOllieGrandad023Subclipc</pathurl>
						<rate>
							<timebase>25</timebase>
						</rate>
						<duration>292</duration>
						<metadata>
							<storage>QuickTime</storage>
							<key>com.apple.finalcutstudio.media.uuid</key>
							<size>36</size>
							<type>UTF8</type>
							<value>629FBFB0-26F6-4829-A046-1848E97A81B6</value>
						</metadata>
						<metadata>
							<storage>QuickTime</storage>
							<key>com.apple.finalcutstudio.media.history.uuid</key>
							<size>36</size>
							<type>UTF8</type>
							<value>9E31BAE2-ACF2-4590-ACD0-3B4C684DDAEF</value>
						</metadata>
						<timecode>
							<rate>
								<timebase>25</timebase>
							</rate>
							<string>00:00:40:08</string>
							<frame>1008</frame>
							<displayformat>NDF</displayformat>
							<source>source</source>
							<reel>
								<name>Goldsbrough Ollie Grandad</name>
							</reel>
						</timecode>
						<media>
							<video>
								<duration>292</duration>
								<samplecharacteristics>
									<width>1280</width>
									<height>720</height>
								</samplecharacteristics>
							</video>
							<audio>
								<samplecharacteristics>
									<samplerate>48000</samplerate>
									<depth>16</depth>
								</samplecharacteristics>
								<channelcount>2</channelcount>
								<layout>stereo</layout>
								<audiochannel>
									<sourcechannel>1</sourcechannel>
									<channellabel>left</channellabel>
								</audiochannel>
								<audiochannel>
									<sourcechannel>2</sourcechannel>
									<channellabel>right</channellabel>
								</audiochannel>
							</audio>
						</media>
					</file>
					<sourcetrack>
						<mediatype>video</mediatype>
					</sourcetrack>
					<fielddominance>none</fielddominance>
					<itemhistory>
						<uuid>E0640568-392C-4394-81C1-7C1416335A83</uuid>
						<uuid>04E33813-AD36-48ED-8CEB-BA13C086B200</uuid>
					</itemhistory>
				</clipitem>
				<enabled>TRUE</enabled>
				<locked>FALSE</locked>
			</track>
			<track>
				<clipitem id="IanKegel002 ">
					<name>IanKegel002</name>
					<duration>122</duration>
					<rate>
						<ntsc>FALSE</ntsc>
						<timebase>25</timebase>
					</rate>
					<in>0</in>
					<out>122</out>
					<start>11396</start>
					<end>11518</end>
					<pixelaspectratio>Square</pixelaspectratio>
					<anamorphic>FALSE</anamorphic>
					<alphatype>none</alphatype>
					<logginginfo>
						<scene/>
						<shottake/>
						<lognote/>
						<good>FALSE</good>
					</logginginfo>
					<labels>
						<label2/>
					</labels>
					<comments>
						<mastercomment1/>
						<mastercomment2/>
						<mastercomment3/>
						<mastercomment4/>
					</comments>
					<file id="IanKegel002 1">
						<name>IanKegel002</name>
						<pathurl>file://localhost/Volumes/Michael's%20Passport/woodbdrigenov2011media/IanKegel002</pathurl>
						<rate>
							<timebase>25</timebase>
						</rate>
						<duration>122</duration>
						<metadata>
							<storage>QuickTime</storage>
							<key>com.apple.finalcutstudio.media.uuid</key>
							<size>36</size>
							<type>UTF8</type>
							<value>594E1506-D484-4525-AF00-857D48243A81</value>
						</metadata>
						<metadata>
							<storage>QuickTime</storage>
							<key>com.apple.finalcutstudio.media.history.uuid</key>
							<size>36</size>
							<type>UTF8</type>
							<value>8510FF9B-243D-4B99-8343-3D998B1DA8D6</value>
						</metadata>
						<timecode>
							<rate>
								<timebase>25</timebase>
							</rate>
							<string>00:00:00:00</string>
							<frame>0</frame>
							<displayformat>NDF</displayformat>
							<source>source</source>
						</timecode>
						<media>
							<video>
								<duration>122</duration>
								<samplecharacteristics>
									<width>1280</width>
									<height>720</height>
								</samplecharacteristics>
							</video>
							<audio>
								<samplecharacteristics>
									<samplerate>48000</samplerate>
									<depth>16</depth>
								</samplecharacteristics>
								<channelcount>1</channelcount>
								<layout>mono</layout>
								<audiochannel>
									<sourcechannel>1</sourcechannel>
									<channellabel>discrete</channellabel>
								</audiochannel>
							</audio>
							<audio>
								<samplecharacteristics>
									<samplerate>48000</samplerate>
									<depth>16</depth>
								</samplecharacteristics>
								<channelcount>1</channelcount>
								<layout>mono</layout>
								<audiochannel>
									<sourcechannel>2</sourcechannel>
									<channellabel>discrete</channellabel>
								</audiochannel>
							</audio>
						</media>
					</file>
					<sourcetrack>
						<mediatype>video</mediatype>
					</sourcetrack>
					<link>
						<linkclipref>IanKegel002 </linkclipref>
						<mediatype>video</mediatype>
						<trackindex>10</trackindex>
						<clipindex>1</clipindex>
					</link>
					<link>
						<linkclipref>IanKegel002 2</linkclipref>
						<mediatype>audio</mediatype>
						<trackindex>19</trackindex>
						<clipindex>1</clipindex>
					</link>
					<link>
						<linkclipref>IanKegel002 3</linkclipref>
						<mediatype>audio</mediatype>
						<trackindex>20</trackindex>
						<clipindex>1</clipindex>
					</link>
					<fielddominance>none</fielddominance>
					<itemhistory>
						<uuid>49955979-0452-4499-85E0-67FC6F0A05AA</uuid>
						<uuid>0A4CD854-A588-4B33-98B2-C494247BB34A</uuid>
					</itemhistory>
				</clipitem>
				<clipitem id="IanKegel003Subclipa">
					<name>IanKegel003Subclipa</name>
					<duration>293</duration>
					<rate>
						<ntsc>FALSE</ntsc>
						<timebase>25</timebase>
					</rate>
					<in>0</in>
					<out>292</out>
					<start>19466</start>
					<end>19758</end>
					<pixelaspectratio>Square</pixelaspectratio>
					<anamorphic>FALSE</anamorphic>
					<alphatype>none</alphatype>
					<logginginfo>
						<scene/>
						<shottake/>
						<lognote/>
						<good>FALSE</good>
					</logginginfo>
					<labels>
						<label2/>
					</labels>
					<comments>
						<mastercomment1/>
						<mastercomment2/>
						<mastercomment3/>
						<mastercomment4/>
					</comments>
					<file id="IanKegel003Subclipa1">
						<name>IanKegel003Subclipa</name>
						<pathurl>file://localhost/Volumes/Michael's%20Passport/woodbdrigenov2011media/IanKegel003Subclipa</pathurl>
						<rate>
							<timebase>25</timebase>
						</rate>
						<duration>293</duration>
						<metadata>
							<storage>QuickTime</storage>
							<key>com.apple.proapps.reel</key>
							<size>13</size>
							<type>UTF8</type>
							<value>demo iPhone 2</value>
						</metadata>
						<metadata>
							<storage>QuickTime</storage>
							<key>com.apple.proapps.dataSize</key>
							<size>8</size>
							<type>float64</type>
							<value>2.11574e+07</value>
						</metadata>
						<metadata>
							<storage>QuickTime</storage>
							<key>com.apple.proapps.pulldown</key>
							<size>4</size>
							<type>signed</type>
							<value>1</value>
						</metadata>
						<metadata>
							<storage>QuickTime</storage>
							<key>com.apple.proapps.shootingRate</key>
							<size>8</size>
							<type>float64</type>
							<value>24</value>
						</metadata>
						<metadata>
							<storage>QuickTime</storage>
							<key>com.apple.quicktime.make</key>
							<size>5</size>
							<type>UTF8</type>
							<value>Apple</value>
						</metadata>
						<metadata>
							<storage>QuickTime</storage>
							<key>com.apple.proapps.displayFormat</key>
							<size>4</size>
							<type>UTF8</type>
							<value>NTSC</value>
						</metadata>
						<metadata>
							<storage>QuickTime</storage>
							<key>com.apple.quicktime.creationdate</key>
							<size>24</size>
							<type>UTF8</type>
							<value>2011-11-04T19:31:33+0000</value>
						</metadata>
						<metadata>
							<storage>QuickTime</storage>
							<key>com.apple.proapps.mediaRate</key>
							<size>8</size>
							<type>float64</type>
							<value>24</value>
						</metadata>
						<metadata>
							<storage>QuickTime</storage>
							<key>com.apple.finalcutstudio.media.history.uuid</key>
							<size>36</size>
							<type>UTF8</type>
							<value>1D4025CD-86B6-49CB-86EB-1385263F0374</value>
						</metadata>
						<metadata>
							<storage>QuickTime</storage>
							<key>com.apple.quicktime.software</key>
							<size>24</size>
							<type>UTF8</type>
							<value>Mac OS X 10.6.8 (10K549)</value>
						</metadata>
						<metadata>
							<storage>QuickTime</storage>
							<key>com.apple.proapps.videoBitrate</key>
							<size>4</size>
							<type>signed</type>
							<value>0</value>
						</metadata>
						<metadata>
							<storage>QuickTime</storage>
							<key>com.apple.proapps.timecodeFormat</key>
							<size>4</size>
							<type>signed</type>
							<value>1</value>
						</metadata>
						<metadata>
							<storage>QuickTime</storage>
							<key>com.apple.proapps.isGood</key>
							<size>4</size>
							<type>signed</type>
							<value>0</value>
						</metadata>
						<metadata>
							<storage>QuickTime</storage>
							<key>com.apple.proapps.ingestDate.description</key>
							<size>25</size>
							<type>UTF8</type>
							<value>2011-11-04 21:15:46 +0000</value>
						</metadata>
						<metadata>
							<storage>QuickTime</storage>
							<key>com.apple.proapps.bitsPerSample</key>
							<size>4</size>
							<type>signed</type>
							<value>0</value>
						</metadata>
						<metadata>
							<storage>QuickTime</storage>
							<key>com.apple.proapps.originalFormat</key>
							<size>4</size>
							<type>UTF8</type>
							<value>NTSC</value>
						</metadata>
						<metadata>
							<storage>QuickTime</storage>
							<key>com.apple.proapps.clipFileName</key>
							<size>8</size>
							<type>UTF8</type>
							<value>IMG_0004</value>
						</metadata>
						<metadata>
							<storage>QuickTime</storage>
							<key>com.apple.proapps.RADSDKVersion</key>
							<size>3</size>
							<type>UTF8</type>
							<value>3.1</value>
						</metadata>
						<metadata>
							<storage>QuickTime</storage>
							<key>com.apple.finalcutstudio.media.uuid</key>
							<size>36</size>
							<type>UTF8</type>
							<value>2E5E28AC-1387-4F9F-A249-71F0E5F4FF89</value>
						</metadata>
						<metadata>
							<storage>QuickTime</storage>
							<key>com.apple.quicktime.model</key>
							<size>13</size>
							<type>UTF8</type>
							<value>MacBookAir3,1</value>
						</metadata>
						<metadata>
							<storage>QuickTime</storage>
							<key>com.apple.proapps.numberOfAudioChannels</key>
							<size>4</size>
							<type>signed</type>
							<value>1</value>
						</metadata>
						<metadata>
							<storage>QuickTime</storage>
							<key>com.apple.proapps.clipID</key>
							<size>90</size>
							<type>UTF8</type>
							<value>6765914c8a0dd6e649882dd6e34d3e4ffa903035_/DCIM/100APPLE/IMG_0004.MOV_19849076_IMG_0004.MOV</value>
						</metadata>
						<timecode>
							<rate>
								<timebase>24</timebase>
							</rate>
							<string>00:00:02:11</string>
							<frame>59</frame>
							<displayformat>NDF</displayformat>
							<source>source</source>
						</timecode>
						<media>
							<video>
								<duration>293</duration>
								<samplecharacteristics>
									<width>1280</width>
									<height>720</height>
								</samplecharacteristics>
							</video>
							<audio>
								<samplecharacteristics>
									<samplerate>48000</samplerate>
									<depth>16</depth>
								</samplecharacteristics>
								<channelcount>1</channelcount>
								<layout>mono</layout>
								<audiochannel>
									<sourcechannel>1</sourcechannel>
									<channellabel>discrete</channellabel>
								</audiochannel>
							</audio>
							<audio>
								<samplecharacteristics>
									<samplerate>48000</samplerate>
									<depth>16</depth>
								</samplecharacteristics>
								<channelcount>1</channelcount>
								<layout>mono</layout>
								<audiochannel>
									<sourcechannel>2</sourcechannel>
									<channellabel>discrete</channellabel>
								</audiochannel>
							</audio>
						</media>
					</file>
					<sourcetrack>
						<mediatype>video</mediatype>
					</sourcetrack>
					<fielddominance>none</fielddominance>
					<itemhistory>
						<uuid>66366FE5-22BB-4385-8B91-CD7C9700A477</uuid>
						<uuid>C0E09BCB-1E7A-4708-B67A-094E13DB22A2</uuid>
					</itemhistory>
				</clipitem>
				<clipitem id="IanKegel004 ">
					<name>IanKegel004</name>
					<duration>3675</duration>
					<rate>
						<ntsc>FALSE</ntsc>
						<timebase>25</timebase>
					</rate>
					<in>0</in>
					<out>3674</out>
					<start>24681</start>
					<end>28355</end>
					<pixelaspectratio>Square</pixelaspectratio>
					<anamorphic>FALSE</anamorphic>
					<alphatype>none</alphatype>
					<logginginfo>
						<scene/>
						<shottake/>
						<lognote/>
						<good>FALSE</good>
					</logginginfo>
					<labels>
						<label2/>
					</labels>
					<comments>
						<mastercomment1/>
						<mastercomment2/>
						<mastercomment3/>
						<mastercomment4/>
					</comments>
					<file id="IanKegel004 1">
						<name>IanKegel004</name>
						<pathurl>file://localhost/Volumes/Michael's%20Passport/woodbdrigenov2011media/IanKegel004</pathurl>
						<rate>
							<timebase>25</timebase>
						</rate>
						<duration>3675</duration>
						<metadata>
							<storage>QuickTime</storage>
							<key>com.apple.proapps.reel</key>
							<size>13</size>
							<type>UTF8</type>
							<value>demo iPhone 2</value>
						</metadata>
						<metadata>
							<storage>QuickTime</storage>
							<key>com.apple.proapps.dataSize</key>
							<size>8</size>
							<type>float64</type>
							<value>2.17816e+08</value>
						</metadata>
						<metadata>
							<storage>QuickTime</storage>
							<key>com.apple.proapps.pulldown</key>
							<size>4</size>
							<type>signed</type>
							<value>1</value>
						</metadata>
						<metadata>
							<storage>QuickTime</storage>
							<key>com.apple.proapps.shootingRate</key>
							<size>8</size>
							<type>float64</type>
							<value>24</value>
						</metadata>
						<metadata>
							<storage>QuickTime</storage>
							<key>com.apple.quicktime.make</key>
							<size>5</size>
							<type>UTF8</type>
							<value>Apple</value>
						</metadata>
						<metadata>
							<storage>QuickTime</storage>
							<key>com.apple.proapps.displayFormat</key>
							<size>4</size>
							<type>UTF8</type>
							<value>NTSC</value>
						</metadata>
						<metadata>
							<storage>QuickTime</storage>
							<key>com.apple.quicktime.creationdate</key>
							<size>24</size>
							<type>UTF8</type>
							<value>2011-11-04T19:37:22+0000</value>
						</metadata>
						<metadata>
							<storage>QuickTime</storage>
							<key>com.apple.proapps.mediaRate</key>
							<size>8</size>
							<type>float64</type>
							<value>24</value>
						</metadata>
						<metadata>
							<storage>QuickTime</storage>
							<key>com.apple.finalcutstudio.media.history.uuid</key>
							<size>36</size>
							<type>UTF8</type>
							<value>CCC54D98-E035-4B17-8B75-B524B1CA0CD8</value>
						</metadata>
						<metadata>
							<storage>QuickTime</storage>
							<key>com.apple.quicktime.software</key>
							<size>24</size>
							<type>UTF8</type>
							<value>Mac OS X 10.6.8 (10K549)</value>
						</metadata>
						<metadata>
							<storage>QuickTime</storage>
							<key>com.apple.proapps.videoBitrate</key>
							<size>4</size>
							<type>signed</type>
							<value>0</value>
						</metadata>
						<metadata>
							<storage>QuickTime</storage>
							<key>com.apple.proapps.timecodeFormat</key>
							<size>4</size>
							<type>signed</type>
							<value>1</value>
						</metadata>
						<metadata>
							<storage>QuickTime</storage>
							<key>com.apple.proapps.isGood</key>
							<size>4</size>
							<type>signed</type>
							<value>0</value>
						</metadata>
						<metadata>
							<storage>QuickTime</storage>
							<key>com.apple.proapps.ingestDate.description</key>
							<size>25</size>
							<type>UTF8</type>
							<value>2011-11-04 21:15:50 +0000</value>
						</metadata>
						<metadata>
							<storage>QuickTime</storage>
							<key>com.apple.proapps.bitsPerSample</key>
							<size>4</size>
							<type>signed</type>
							<value>0</value>
						</metadata>
						<metadata>
							<storage>QuickTime</storage>
							<key>com.apple.proapps.originalFormat</key>
							<size>4</size>
							<type>UTF8</type>
							<value>NTSC</value>
						</metadata>
						<metadata>
							<storage>QuickTime</storage>
							<key>com.apple.proapps.clipFileName</key>
							<size>8</size>
							<type>UTF8</type>
							<value>IMG_0005</value>
						</metadata>
						<metadata>
							<storage>QuickTime</storage>
							<key>com.apple.proapps.RADSDKVersion</key>
							<size>3</size>
							<type>UTF8</type>
							<value>3.1</value>
						</metadata>
						<metadata>
							<storage>QuickTime</storage>
							<key>com.apple.finalcutstudio.media.uuid</key>
							<size>36</size>
							<type>UTF8</type>
							<value>592B9ADC-AD99-48FA-8661-D36DDABBC560</value>
						</metadata>
						<metadata>
							<storage>QuickTime</storage>
							<key>com.apple.quicktime.model</key>
							<size>13</size>
							<type>UTF8</type>
							<value>MacBookAir3,1</value>
						</metadata>
						<metadata>
							<storage>QuickTime</storage>
							<key>com.apple.proapps.numberOfAudioChannels</key>
							<size>4</size>
							<type>signed</type>
							<value>1</value>
						</metadata>
						<metadata>
							<storage>QuickTime</storage>
							<key>com.apple.proapps.clipID</key>
							<size>91</size>
							<type>UTF8</type>
							<value>6765914c8a0dd6e649882dd6e34d3e4ffa903035_/DCIM/100APPLE/IMG_0005.MOV_204244301_IMG_0005.MOV</value>
						</metadata>
						<timecode>
							<rate>
								<timebase>24</timebase>
							</rate>
							<string>00:00:00:00</string>
							<frame>0</frame>
							<displayformat>NDF</displayformat>
							<source>source</source>
						</timecode>
						<media>
							<video>
								<duration>3675</duration>
								<samplecharacteristics>
									<width>1280</width>
									<height>720</height>
								</samplecharacteristics>
							</video>
							<audio>
								<samplecharacteristics>
									<samplerate>48000</samplerate>
									<depth>16</depth>
								</samplecharacteristics>
								<channelcount>1</channelcount>
								<layout>mono</layout>
								<audiochannel>
									<sourcechannel>1</sourcechannel>
									<channellabel>discrete</channellabel>
								</audiochannel>
							</audio>
							<audio>
								<samplecharacteristics>
									<samplerate>48000</samplerate>
									<depth>16</depth>
								</samplecharacteristics>
								<channelcount>1</channelcount>
								<layout>mono</layout>
								<audiochannel>
									<sourcechannel>2</sourcechannel>
									<channellabel>discrete</channellabel>
								</audiochannel>
							</audio>
						</media>
					</file>
					<sourcetrack>
						<mediatype>video</mediatype>
					</sourcetrack>
					<fielddominance>none</fielddominance>
					<itemhistory>
						<uuid>DB4BE527-192E-479E-9C4C-E2AC4C118B19</uuid>
						<uuid>E4E94164-541F-4C6D-AFC4-28AF5848F5F5</uuid>
					</itemhistory>
				</clipitem>
				<clipitem id="IanKegel005 ">
					<name>IanKegel005</name>
					<duration>971</duration>
					<rate>
						<ntsc>FALSE</ntsc>
						<timebase>25</timebase>
					</rate>
					<in>0</in>
					<out>970</out>
					<start>38291</start>
					<end>39261</end>
					<pixelaspectratio>Square</pixelaspectratio>
					<anamorphic>FALSE</anamorphic>
					<alphatype>none</alphatype>
					<logginginfo>
						<scene/>
						<shottake/>
						<lognote/>
						<good>FALSE</good>
					</logginginfo>
					<labels>
						<label2/>
					</labels>
					<comments>
						<mastercomment1/>
						<mastercomment2/>
						<mastercomment3/>
						<mastercomment4/>
					</comments>
					<file id="IanKegel005 1">
						<name>IanKegel005</name>
						<pathurl>file://localhost/Volumes/Michael's%20Passport/woodbdrigenov2011media/IanKegel005</pathurl>
						<rate>
							<timebase>25</timebase>
						</rate>
						<duration>971</duration>
						<metadata>
							<storage>QuickTime</storage>
							<key>com.apple.finalcutstudio.media.uuid</key>
							<size>36</size>
							<type>UTF8</type>
							<value>3F825626-E0ED-4A36-8AAB-4627F3B903F2</value>
						</metadata>
						<metadata>
							<storage>QuickTime</storage>
							<key>com.apple.finalcutstudio.media.history.uuid</key>
							<size>36</size>
							<type>UTF8</type>
							<value>94B461F4-82AA-4464-9F61-4B8A6ACE8579</value>
						</metadata>
						<timecode>
							<rate>
								<timebase>25</timebase>
							</rate>
							<string>00:00:00:00</string>
							<frame>0</frame>
							<displayformat>NDF</displayformat>
							<source>source</source>
						</timecode>
						<media>
							<video>
								<duration>971</duration>
								<samplecharacteristics>
									<width>1280</width>
									<height>720</height>
								</samplecharacteristics>
							</video>
							<audio>
								<samplecharacteristics>
									<samplerate>48000</samplerate>
									<depth>16</depth>
								</samplecharacteristics>
								<channelcount>1</channelcount>
								<layout>mono</layout>
								<audiochannel>
									<sourcechannel>1</sourcechannel>
									<channellabel>discrete</channellabel>
								</audiochannel>
							</audio>
							<audio>
								<samplecharacteristics>
									<samplerate>48000</samplerate>
									<depth>16</depth>
								</samplecharacteristics>
								<channelcount>1</channelcount>
								<layout>mono</layout>
								<audiochannel>
									<sourcechannel>2</sourcechannel>
									<channellabel>discrete</channellabel>
								</audiochannel>
							</audio>
						</media>
					</file>
					<sourcetrack>
						<mediatype>video</mediatype>
					</sourcetrack>
					<fielddominance>none</fielddominance>
					<itemhistory>
						<uuid>8FBA336A-5295-47BF-BC59-96A5A246ADCA</uuid>
						<uuid>1DAEF99E-7480-4410-80B8-B96926051BEA</uuid>
					</itemhistory>
				</clipitem>
				<clipitem id="IanKegel006 ">
					<name>IanKegel006</name>
					<duration>4636</duration>
					<rate>
						<ntsc>FALSE</ntsc>
						<timebase>25</timebase>
					</rate>
					<in>0</in>
					<out>4636</out>
					<start>46938</start>
					<end>51574</end>
					<pixelaspectratio>Square</pixelaspectratio>
					<anamorphic>FALSE</anamorphic>
					<alphatype>none</alphatype>
					<logginginfo>
						<scene/>
						<shottake/>
						<lognote/>
						<good>FALSE</good>
					</logginginfo>
					<labels>
						<label2/>
					</labels>
					<comments>
						<mastercomment1/>
						<mastercomment2/>
						<mastercomment3/>
						<mastercomment4/>
					</comments>
					<file id="IanKegel006 1">
						<name>IanKegel006</name>
						<pathurl>file://localhost/Volumes/Michael's%20Passport/woodbdrigenov2011media/IanKegel006</pathurl>
						<rate>
							<timebase>25</timebase>
						</rate>
						<duration>4636</duration>
						<metadata>
							<storage>QuickTime</storage>
							<key>com.apple.proapps.reel</key>
							<size>13</size>
							<type>UTF8</type>
							<value>demo iPhone 2</value>
						</metadata>
						<metadata>
							<storage>QuickTime</storage>
							<key>com.apple.proapps.dataSize</key>
							<size>8</size>
							<type>float64</type>
							<value>2.74253e+08</value>
						</metadata>
						<metadata>
							<storage>QuickTime</storage>
							<key>com.apple.proapps.pulldown</key>
							<size>4</size>
							<type>signed</type>
							<value>1</value>
						</metadata>
						<metadata>
							<storage>QuickTime</storage>
							<key>com.apple.proapps.shootingRate</key>
							<size>8</size>
							<type>float64</type>
							<value>24</value>
						</metadata>
						<metadata>
							<storage>QuickTime</storage>
							<key>com.apple.quicktime.make</key>
							<size>5</size>
							<type>UTF8</type>
							<value>Apple</value>
						</metadata>
						<metadata>
							<storage>QuickTime</storage>
							<key>com.apple.proapps.displayFormat</key>
							<size>4</size>
							<type>UTF8</type>
							<value>NTSC</value>
						</metadata>
						<metadata>
							<storage>QuickTime</storage>
							<key>com.apple.quicktime.creationdate</key>
							<size>24</size>
							<type>UTF8</type>
							<value>2011-11-04T19:52:53+0000</value>
						</metadata>
						<metadata>
							<storage>QuickTime</storage>
							<key>com.apple.proapps.mediaRate</key>
							<size>8</size>
							<type>float64</type>
							<value>24</value>
						</metadata>
						<metadata>
							<storage>QuickTime</storage>
							<key>com.apple.finalcutstudio.media.history.uuid</key>
							<size>36</size>
							<type>UTF8</type>
							<value>176013C5-CE5F-45CA-B975-ADF1E3D99A3F</value>
						</metadata>
						<metadata>
							<storage>QuickTime</storage>
							<key>com.apple.quicktime.software</key>
							<size>24</size>
							<type>UTF8</type>
							<value>Mac OS X 10.6.8 (10K549)</value>
						</metadata>
						<metadata>
							<storage>QuickTime</storage>
							<key>com.apple.proapps.videoBitrate</key>
							<size>4</size>
							<type>signed</type>
							<value>0</value>
						</metadata>
						<metadata>
							<storage>QuickTime</storage>
							<key>com.apple.proapps.timecodeFormat</key>
							<size>4</size>
							<type>signed</type>
							<value>1</value>
						</metadata>
						<metadata>
							<storage>QuickTime</storage>
							<key>com.apple.proapps.isGood</key>
							<size>4</size>
							<type>signed</type>
							<value>0</value>
						</metadata>
						<metadata>
							<storage>QuickTime</storage>
							<key>com.apple.proapps.ingestDate.description</key>
							<size>25</size>
							<type>UTF8</type>
							<value>2011-11-04 21:16:42 +0000</value>
						</metadata>
						<metadata>
							<storage>QuickTime</storage>
							<key>com.apple.proapps.bitsPerSample</key>
							<size>4</size>
							<type>signed</type>
							<value>0</value>
						</metadata>
						<metadata>
							<storage>QuickTime</storage>
							<key>com.apple.proapps.originalFormat</key>
							<size>4</size>
							<type>UTF8</type>
							<value>NTSC</value>
						</metadata>
						<metadata>
							<storage>QuickTime</storage>
							<key>com.apple.proapps.clipFileName</key>
							<size>8</size>
							<type>UTF8</type>
							<value>IMG_0007</value>
						</metadata>
						<metadata>
							<storage>QuickTime</storage>
							<key>com.apple.proapps.RADSDKVersion</key>
							<size>3</size>
							<type>UTF8</type>
							<value>3.1</value>
						</metadata>
						<metadata>
							<storage>QuickTime</storage>
							<key>com.apple.finalcutstudio.media.uuid</key>
							<size>36</size>
							<type>UTF8</type>
							<value>36753FAB-7467-487C-9089-854EA31F8D1C</value>
						</metadata>
						<metadata>
							<storage>QuickTime</storage>
							<key>com.apple.quicktime.model</key>
							<size>13</size>
							<type>UTF8</type>
							<value>MacBookAir3,1</value>
						</metadata>
						<metadata>
							<storage>QuickTime</storage>
							<key>com.apple.proapps.numberOfAudioChannels</key>
							<size>4</size>
							<type>signed</type>
							<value>1</value>
						</metadata>
						<metadata>
							<storage>QuickTime</storage>
							<key>com.apple.proapps.clipID</key>
							<size>91</size>
							<type>UTF8</type>
							<value>6765914c8a0dd6e649882dd6e34d3e4ffa903035_/DCIM/100APPLE/IMG_0007.MOV_257204633_IMG_0007.MOV</value>
						</metadata>
						<timecode>
							<rate>
								<timebase>24</timebase>
							</rate>
							<string>00:00:00:00</string>
							<frame>0</frame>
							<displayformat>NDF</displayformat>
							<source>source</source>
						</timecode>
						<media>
							<video>
								<duration>4636</duration>
								<samplecharacteristics>
									<width>1280</width>
									<height>720</height>
								</samplecharacteristics>
							</video>
							<audio>
								<samplecharacteristics>
									<samplerate>48000</samplerate>
									<depth>16</depth>
								</samplecharacteristics>
								<channelcount>1</channelcount>
								<layout>mono</layout>
								<audiochannel>
									<sourcechannel>1</sourcechannel>
									<channellabel>discrete</channellabel>
								</audiochannel>
							</audio>
							<audio>
								<samplecharacteristics>
									<samplerate>48000</samplerate>
									<depth>16</depth>
								</samplecharacteristics>
								<channelcount>1</channelcount>
								<layout>mono</layout>
								<audiochannel>
									<sourcechannel>2</sourcechannel>
									<channellabel>discrete</channellabel>
								</audiochannel>
							</audio>
						</media>
					</file>
					<sourcetrack>
						<mediatype>video</mediatype>
					</sourcetrack>
					<fielddominance>none</fielddominance>
					<itemhistory>
						<uuid>F4B9336B-BEEE-43DD-AD97-FE159B05EC3A</uuid>
						<uuid>B8F4CC26-FB07-454E-8A3A-C25DF5B01F0A</uuid>
					</itemhistory>
				</clipitem>
				<clipitem id="IanKegel007 ">
					<name>IanKegel007</name>
					<duration>768</duration>
					<rate>
						<ntsc>FALSE</ntsc>
						<timebase>25</timebase>
					</rate>
					<in>0</in>
					<out>767</out>
					<start>67342</start>
					<end>68109</end>
					<pixelaspectratio>Square</pixelaspectratio>
					<anamorphic>FALSE</anamorphic>
					<alphatype>none</alphatype>
					<logginginfo>
						<scene/>
						<shottake/>
						<lognote/>
						<good>FALSE</good>
					</logginginfo>
					<labels>
						<label2/>
					</labels>
					<comments>
						<mastercomment1/>
						<mastercomment2/>
						<mastercomment3/>
						<mastercomment4/>
					</comments>
					<file id="IanKegel007 1">
						<name>IanKegel007</name>
						<pathurl>file://localhost/Volumes/Michael's%20Passport/woodbdrigenov2011media/IanKegel007</pathurl>
						<rate>
							<timebase>25</timebase>
						</rate>
						<duration>768</duration>
						<metadata>
							<storage>QuickTime</storage>
							<key>com.apple.finalcutstudio.media.uuid</key>
							<size>36</size>
							<type>UTF8</type>
							<value>EDB9EA60-79D3-4E27-BE38-3D6602C97452</value>
						</metadata>
						<metadata>
							<storage>QuickTime</storage>
							<key>com.apple.finalcutstudio.media.history.uuid</key>
							<size>36</size>
							<type>UTF8</type>
							<value>9C4FF0CB-8888-4CA2-BDBE-2DD7DD2E9B66</value>
						</metadata>
						<timecode>
							<rate>
								<timebase>25</timebase>
							</rate>
							<string>00:00:00:01</string>
							<frame>1</frame>
							<displayformat>NDF</displayformat>
							<source>source</source>
						</timecode>
						<media>
							<video>
								<duration>768</duration>
								<samplecharacteristics>
									<width>1280</width>
									<height>720</height>
								</samplecharacteristics>
							</video>
							<audio>
								<samplecharacteristics>
									<samplerate>48000</samplerate>
									<depth>16</depth>
								</samplecharacteristics>
								<channelcount>1</channelcount>
								<layout>mono</layout>
								<audiochannel>
									<sourcechannel>1</sourcechannel>
									<channellabel>discrete</channellabel>
								</audiochannel>
							</audio>
							<audio>
								<samplecharacteristics>
									<samplerate>48000</samplerate>
									<depth>16</depth>
								</samplecharacteristics>
								<channelcount>1</channelcount>
								<layout>mono</layout>
								<audiochannel>
									<sourcechannel>2</sourcechannel>
									<channellabel>discrete</channellabel>
								</audiochannel>
							</audio>
						</media>
					</file>
					<sourcetrack>
						<mediatype>video</mediatype>
					</sourcetrack>
					<fielddominance>none</fielddominance>
					<itemhistory>
						<uuid>AA98B84A-8F02-4EF8-B8E1-D1C91AA8DE2D</uuid>
						<uuid>36233E37-2F4C-4108-B067-ECFDAC7F5A3F</uuid>
					</itemhistory>
				</clipitem>
				<clipitem id="IanKegel008 ">
					<name>IanKegel008</name>
					<duration>4310</duration>
					<rate>
						<ntsc>FALSE</ntsc>
						<timebase>25</timebase>
					</rate>
					<in>0</in>
					<out>4309</out>
					<start>70103</start>
					<end>74412</end>
					<pixelaspectratio>Square</pixelaspectratio>
					<anamorphic>FALSE</anamorphic>
					<alphatype>none</alphatype>
					<logginginfo>
						<scene/>
						<shottake/>
						<lognote/>
						<good>FALSE</good>
					</logginginfo>
					<labels>
						<label2/>
					</labels>
					<comments>
						<mastercomment1/>
						<mastercomment2/>
						<mastercomment3/>
						<mastercomment4/>
					</comments>
					<file id="IanKegel008 1">
						<name>IanKegel008</name>
						<pathurl>file://localhost/Volumes/Michael's%20Passport/woodbdrigenov2011media/IanKegel008</pathurl>
						<rate>
							<timebase>25</timebase>
						</rate>
						<duration>4310</duration>
						<metadata>
							<storage>QuickTime</storage>
							<key>com.apple.proapps.reel</key>
							<size>13</size>
							<type>UTF8</type>
							<value>demo iPhone 2</value>
						</metadata>
						<metadata>
							<storage>QuickTime</storage>
							<key>com.apple.proapps.dataSize</key>
							<size>8</size>
							<type>float64</type>
							<value>2.51486e+08</value>
						</metadata>
						<metadata>
							<storage>QuickTime</storage>
							<key>com.apple.proapps.pulldown</key>
							<size>4</size>
							<type>signed</type>
							<value>1</value>
						</metadata>
						<metadata>
							<storage>QuickTime</storage>
							<key>com.apple.proapps.shootingRate</key>
							<size>8</size>
							<type>float64</type>
							<value>24</value>
						</metadata>
						<metadata>
							<storage>QuickTime</storage>
							<key>com.apple.quicktime.make</key>
							<size>5</size>
							<type>UTF8</type>
							<value>Apple</value>
						</metadata>
						<metadata>
							<storage>QuickTime</storage>
							<key>com.apple.proapps.displayFormat</key>
							<size>4</size>
							<type>UTF8</type>
							<value>NTSC</value>
						</metadata>
						<metadata>
							<storage>QuickTime</storage>
							<key>com.apple.quicktime.creationdate</key>
							<size>24</size>
							<type>UTF8</type>
							<value>2011-11-04T20:08:05+0000</value>
						</metadata>
						<metadata>
							<storage>QuickTime</storage>
							<key>com.apple.proapps.mediaRate</key>
							<size>8</size>
							<type>float64</type>
							<value>24</value>
						</metadata>
						<metadata>
							<storage>QuickTime</storage>
							<key>com.apple.finalcutstudio.media.history.uuid</key>
							<size>36</size>
							<type>UTF8</type>
							<value>4EF073C3-1EDB-48F8-87DF-A9B8E7D854A5</value>
						</metadata>
						<metadata>
							<storage>QuickTime</storage>
							<key>com.apple.quicktime.software</key>
							<size>24</size>
							<type>UTF8</type>
							<value>Mac OS X 10.6.8 (10K549)</value>
						</metadata>
						<metadata>
							<storage>QuickTime</storage>
							<key>com.apple.proapps.videoBitrate</key>
							<size>4</size>
							<type>signed</type>
							<value>0</value>
						</metadata>
						<metadata>
							<storage>QuickTime</storage>
							<key>com.apple.proapps.timecodeFormat</key>
							<size>4</size>
							<type>signed</type>
							<value>1</value>
						</metadata>
						<metadata>
							<storage>QuickTime</storage>
							<key>com.apple.proapps.isGood</key>
							<size>4</size>
							<type>signed</type>
							<value>0</value>
						</metadata>
						<metadata>
							<storage>QuickTime</storage>
							<key>com.apple.proapps.ingestDate.description</key>
							<size>25</size>
							<type>UTF8</type>
							<value>2011-11-04 21:17:36 +0000</value>
						</metadata>
						<metadata>
							<storage>QuickTime</storage>
							<key>com.apple.proapps.bitsPerSample</key>
							<size>4</size>
							<type>signed</type>
							<value>0</value>
						</metadata>
						<metadata>
							<storage>QuickTime</storage>
							<key>com.apple.proapps.originalFormat</key>
							<size>4</size>
							<type>UTF8</type>
							<value>NTSC</value>
						</metadata>
						<metadata>
							<storage>QuickTime</storage>
							<key>com.apple.proapps.clipFileName</key>
							<size>8</size>
							<type>UTF8</type>
							<value>IMG_0009</value>
						</metadata>
						<metadata>
							<storage>QuickTime</storage>
							<key>com.apple.proapps.RADSDKVersion</key>
							<size>3</size>
							<type>UTF8</type>
							<value>3.1</value>
						</metadata>
						<metadata>
							<storage>QuickTime</storage>
							<key>com.apple.finalcutstudio.media.uuid</key>
							<size>36</size>
							<type>UTF8</type>
							<value>49111E1D-50E4-4C92-8F29-00F2824FBD30</value>
						</metadata>
						<metadata>
							<storage>QuickTime</storage>
							<key>com.apple.quicktime.model</key>
							<size>13</size>
							<type>UTF8</type>
							<value>MacBookAir3,1</value>
						</metadata>
						<metadata>
							<storage>QuickTime</storage>
							<key>com.apple.proapps.numberOfAudioChannels</key>
							<size>4</size>
							<type>signed</type>
							<value>1</value>
						</metadata>
						<metadata>
							<storage>QuickTime</storage>
							<key>com.apple.proapps.clipID</key>
							<size>91</size>
							<type>UTF8</type>
							<value>6765914c8a0dd6e649882dd6e34d3e4ffa903035_/DCIM/100APPLE/IMG_0009.MOV_235639811_IMG_0009.MOV</value>
						</metadata>
						<timecode>
							<rate>
								<timebase>24</timebase>
							</rate>
							<string>00:00:00:00</string>
							<frame>0</frame>
							<displayformat>NDF</displayformat>
							<source>source</source>
						</timecode>
						<media>
							<video>
								<duration>4310</duration>
								<samplecharacteristics>
									<width>1280</width>
									<height>720</height>
								</samplecharacteristics>
							</video>
							<audio>
								<samplecharacteristics>
									<samplerate>48000</samplerate>
									<depth>16</depth>
								</samplecharacteristics>
								<channelcount>1</channelcount>
								<layout>mono</layout>
								<audiochannel>
									<sourcechannel>1</sourcechannel>
									<channellabel>discrete</channellabel>
								</audiochannel>
							</audio>
							<audio>
								<samplecharacteristics>
									<samplerate>48000</samplerate>
									<depth>16</depth>
								</samplecharacteristics>
								<channelcount>1</channelcount>
								<layout>mono</layout>
								<audiochannel>
									<sourcechannel>2</sourcechannel>
									<channellabel>discrete</channellabel>
								</audiochannel>
							</audio>
						</media>
					</file>
					<sourcetrack>
						<mediatype>video</mediatype>
					</sourcetrack>
					<fielddominance>none</fielddominance>
					<itemhistory>
						<uuid>84AA915E-8752-41E1-BD07-A711B443FA59</uuid>
						<uuid>ABD5DD6B-932A-4008-88D9-436EBB4F3D15</uuid>
					</itemhistory>
				</clipitem>
				<clipitem id="IanKegel009 ">
					<name>IanKegel009</name>
					<duration>2682</duration>
					<rate>
						<ntsc>FALSE</ntsc>
						<timebase>25</timebase>
					</rate>
					<in>0</in>
					<out>2682</out>
					<start>84157</start>
					<end>86839</end>
					<pixelaspectratio>Square</pixelaspectratio>
					<anamorphic>FALSE</anamorphic>
					<alphatype>none</alphatype>
					<logginginfo>
						<scene/>
						<shottake/>
						<lognote/>
						<good>FALSE</good>
					</logginginfo>
					<labels>
						<label2/>
					</labels>
					<comments>
						<mastercomment1/>
						<mastercomment2/>
						<mastercomment3/>
						<mastercomment4/>
					</comments>
					<file id="IanKegel009 1">
						<name>IanKegel009</name>
						<pathurl>file://localhost/Volumes/Michael's%20Passport/woodbdrigenov2011media/IanKegel009</pathurl>
						<rate>
							<timebase>25</timebase>
						</rate>
						<duration>2682</duration>
						<metadata>
							<storage>QuickTime</storage>
							<key>com.apple.proapps.reel</key>
							<size>13</size>
							<type>UTF8</type>
							<value>demo iPhone 2</value>
						</metadata>
						<metadata>
							<storage>QuickTime</storage>
							<key>com.apple.proapps.dataSize</key>
							<size>8</size>
							<type>float64</type>
							<value>1.59066e+08</value>
						</metadata>
						<metadata>
							<storage>QuickTime</storage>
							<key>com.apple.proapps.pulldown</key>
							<size>4</size>
							<type>signed</type>
							<value>1</value>
						</metadata>
						<metadata>
							<storage>QuickTime</storage>
							<key>com.apple.proapps.shootingRate</key>
							<size>8</size>
							<type>float64</type>
							<value>24</value>
						</metadata>
						<metadata>
							<storage>QuickTime</storage>
							<key>com.apple.quicktime.make</key>
							<size>5</size>
							<type>UTF8</type>
							<value>Apple</value>
						</metadata>
						<metadata>
							<storage>QuickTime</storage>
							<key>com.apple.proapps.displayFormat</key>
							<size>4</size>
							<type>UTF8</type>
							<value>NTSC</value>
						</metadata>
						<metadata>
							<storage>QuickTime</storage>
							<key>com.apple.quicktime.creationdate</key>
							<size>24</size>
							<type>UTF8</type>
							<value>2011-11-04T20:16:20+0000</value>
						</metadata>
						<metadata>
							<storage>QuickTime</storage>
							<key>com.apple.proapps.mediaRate</key>
							<size>8</size>
							<type>float64</type>
							<value>24</value>
						</metadata>
						<metadata>
							<storage>QuickTime</storage>
							<key>com.apple.finalcutstudio.media.history.uuid</key>
							<size>36</size>
							<type>UTF8</type>
							<value>2D1A5011-EAD5-4641-9A09-119BD67E6079</value>
						</metadata>
						<metadata>
							<storage>QuickTime</storage>
							<key>com.apple.quicktime.software</key>
							<size>24</size>
							<type>UTF8</type>
							<value>Mac OS X 10.6.8 (10K549)</value>
						</metadata>
						<metadata>
							<storage>QuickTime</storage>
							<key>com.apple.proapps.videoBitrate</key>
							<size>4</size>
							<type>signed</type>
							<value>0</value>
						</metadata>
						<metadata>
							<storage>QuickTime</storage>
							<key>com.apple.proapps.timecodeFormat</key>
							<size>4</size>
							<type>signed</type>
							<value>1</value>
						</metadata>
						<metadata>
							<storage>QuickTime</storage>
							<key>com.apple.proapps.isGood</key>
							<size>4</size>
							<type>signed</type>
							<value>0</value>
						</metadata>
						<metadata>
							<storage>QuickTime</storage>
							<key>com.apple.proapps.ingestDate.description</key>
							<size>25</size>
							<type>UTF8</type>
							<value>2011-11-04 21:18:20 +0000</value>
						</metadata>
						<metadata>
							<storage>QuickTime</storage>
							<key>com.apple.proapps.bitsPerSample</key>
							<size>4</size>
							<type>signed</type>
							<value>0</value>
						</metadata>
						<metadata>
							<storage>QuickTime</storage>
							<key>com.apple.proapps.originalFormat</key>
							<size>4</size>
							<type>UTF8</type>
							<value>NTSC</value>
						</metadata>
						<metadata>
							<storage>QuickTime</storage>
							<key>com.apple.proapps.clipFileName</key>
							<size>8</size>
							<type>UTF8</type>
							<value>IMG_0010</value>
						</metadata>
						<metadata>
							<storage>QuickTime</storage>
							<key>com.apple.proapps.RADSDKVersion</key>
							<size>3</size>
							<type>UTF8</type>
							<value>3.1</value>
						</metadata>
						<metadata>
							<storage>QuickTime</storage>
							<key>com.apple.finalcutstudio.media.uuid</key>
							<size>36</size>
							<type>UTF8</type>
							<value>BDF60843-0F44-44B1-A34B-05E52EDC7E54</value>
						</metadata>
						<metadata>
							<storage>QuickTime</storage>
							<key>com.apple.quicktime.model</key>
							<size>13</size>
							<type>UTF8</type>
							<value>MacBookAir3,1</value>
						</metadata>
						<metadata>
							<storage>QuickTime</storage>
							<key>com.apple.proapps.numberOfAudioChannels</key>
							<size>4</size>
							<type>signed</type>
							<value>1</value>
						</metadata>
						<metadata>
							<storage>QuickTime</storage>
							<key>com.apple.proapps.clipID</key>
							<size>91</size>
							<type>UTF8</type>
							<value>6765914c8a0dd6e649882dd6e34d3e4ffa903035_/DCIM/100APPLE/IMG_0010.MOV_149213239_IMG_0010.MOV</value>
						</metadata>
						<timecode>
							<rate>
								<timebase>24</timebase>
							</rate>
							<string>00:00:00:00</string>
							<frame>0</frame>
							<displayformat>NDF</displayformat>
							<source>source</source>
						</timecode>
						<media>
							<video>
								<duration>2682</duration>
								<samplecharacteristics>
									<width>1280</width>
									<height>720</height>
								</samplecharacteristics>
							</video>
							<audio>
								<samplecharacteristics>
									<samplerate>48000</samplerate>
									<depth>16</depth>
								</samplecharacteristics>
								<channelcount>1</channelcount>
								<layout>mono</layout>
								<audiochannel>
									<sourcechannel>1</sourcechannel>
									<channellabel>discrete</channellabel>
								</audiochannel>
							</audio>
							<audio>
								<samplecharacteristics>
									<samplerate>48000</samplerate>
									<depth>16</depth>
								</samplecharacteristics>
								<channelcount>1</channelcount>
								<layout>mono</layout>
								<audiochannel>
									<sourcechannel>2</sourcechannel>
									<channellabel>discrete</channellabel>
								</audiochannel>
							</audio>
						</media>
					</file>
					<sourcetrack>
						<mediatype>video</mediatype>
					</sourcetrack>
					<fielddominance>none</fielddominance>
					<itemhistory>
						<uuid>7017B713-3589-41AA-B198-37FA84045C04</uuid>
						<uuid>AD1D19FC-061E-4A9D-AA9A-2D44D5A96B3D</uuid>
					</itemhistory>
				</clipitem>
				<clipitem id="IanKegel010 ">
					<name>IanKegel010</name>
					<duration>1366</duration>
					<rate>
						<ntsc>FALSE</ntsc>
						<timebase>25</timebase>
					</rate>
					<in>0</in>
					<out>1365</out>
					<start>105436</start>
					<end>106801</end>
					<pixelaspectratio>Square</pixelaspectratio>
					<anamorphic>FALSE</anamorphic>
					<alphatype>none</alphatype>
					<logginginfo>
						<scene/>
						<shottake/>
						<lognote/>
						<good>FALSE</good>
					</logginginfo>
					<labels>
						<label2/>
					</labels>
					<comments>
						<mastercomment1/>
						<mastercomment2/>
						<mastercomment3/>
						<mastercomment4/>
					</comments>
					<file id="IanKegel010 1">
						<name>IanKegel010</name>
						<pathurl>file://localhost/Volumes/Michael's%20Passport/woodbdrigenov2011media/IanKegel010</pathurl>
						<rate>
							<timebase>25</timebase>
						</rate>
						<duration>1366</duration>
						<metadata>
							<storage>QuickTime</storage>
							<key>com.apple.proapps.reel</key>
							<size>13</size>
							<type>UTF8</type>
							<value>demo iPhone 2</value>
						</metadata>
						<metadata>
							<storage>QuickTime</storage>
							<key>com.apple.proapps.dataSize</key>
							<size>8</size>
							<type>float64</type>
							<value>7.83849e+07</value>
						</metadata>
						<metadata>
							<storage>QuickTime</storage>
							<key>com.apple.proapps.pulldown</key>
							<size>4</size>
							<type>signed</type>
							<value>1</value>
						</metadata>
						<metadata>
							<storage>QuickTime</storage>
							<key>com.apple.proapps.shootingRate</key>
							<size>8</size>
							<type>float64</type>
							<value>24</value>
						</metadata>
						<metadata>
							<storage>QuickTime</storage>
							<key>com.apple.quicktime.make</key>
							<size>5</size>
							<type>UTF8</type>
							<value>Apple</value>
						</metadata>
						<metadata>
							<storage>QuickTime</storage>
							<key>com.apple.proapps.displayFormat</key>
							<size>4</size>
							<type>UTF8</type>
							<value>NTSC</value>
						</metadata>
						<metadata>
							<storage>QuickTime</storage>
							<key>com.apple.quicktime.creationdate</key>
							<size>24</size>
							<type>UTF8</type>
							<value>2011-11-04T20:29:33+0000</value>
						</metadata>
						<metadata>
							<storage>QuickTime</storage>
							<key>com.apple.proapps.mediaRate</key>
							<size>8</size>
							<type>float64</type>
							<value>24</value>
						</metadata>
						<metadata>
							<storage>QuickTime</storage>
							<key>com.apple.finalcutstudio.media.history.uuid</key>
							<size>36</size>
							<type>UTF8</type>
							<value>C2F65387-26AE-44E0-9DF5-90FCE0C3F224</value>
						</metadata>
						<metadata>
							<storage>QuickTime</storage>
							<key>com.apple.quicktime.software</key>
							<size>24</size>
							<type>UTF8</type>
							<value>Mac OS X 10.6.8 (10K549)</value>
						</metadata>
						<metadata>
							<storage>QuickTime</storage>
							<key>com.apple.proapps.videoBitrate</key>
							<size>4</size>
							<type>signed</type>
							<value>0</value>
						</metadata>
						<metadata>
							<storage>QuickTime</storage>
							<key>com.apple.proapps.timecodeFormat</key>
							<size>4</size>
							<type>signed</type>
							<value>1</value>
						</metadata>
						<metadata>
							<storage>QuickTime</storage>
							<key>com.apple.proapps.isGood</key>
							<size>4</size>
							<type>signed</type>
							<value>0</value>
						</metadata>
						<metadata>
							<storage>QuickTime</storage>
							<key>com.apple.proapps.ingestDate.description</key>
							<size>25</size>
							<type>UTF8</type>
							<value>2011-11-04 21:18:48 +0000</value>
						</metadata>
						<metadata>
							<storage>QuickTime</storage>
							<key>com.apple.proapps.bitsPerSample</key>
							<size>4</size>
							<type>signed</type>
							<value>0</value>
						</metadata>
						<metadata>
							<storage>QuickTime</storage>
							<key>com.apple.proapps.originalFormat</key>
							<size>4</size>
							<type>UTF8</type>
							<value>NTSC</value>
						</metadata>
						<metadata>
							<storage>QuickTime</storage>
							<key>com.apple.proapps.clipFileName</key>
							<size>8</size>
							<type>UTF8</type>
							<value>IMG_0011</value>
						</metadata>
						<metadata>
							<storage>QuickTime</storage>
							<key>com.apple.proapps.RADSDKVersion</key>
							<size>3</size>
							<type>UTF8</type>
							<value>3.1</value>
						</metadata>
						<metadata>
							<storage>QuickTime</storage>
							<key>com.apple.finalcutstudio.media.uuid</key>
							<size>36</size>
							<type>UTF8</type>
							<value>901E5C70-A954-4832-BF16-590B040D84D3</value>
						</metadata>
						<metadata>
							<storage>QuickTime</storage>
							<key>com.apple.quicktime.model</key>
							<size>13</size>
							<type>UTF8</type>
							<value>MacBookAir3,1</value>
						</metadata>
						<metadata>
							<storage>QuickTime</storage>
							<key>com.apple.proapps.numberOfAudioChannels</key>
							<size>4</size>
							<type>signed</type>
							<value>1</value>
						</metadata>
						<metadata>
							<storage>QuickTime</storage>
							<key>com.apple.proapps.clipID</key>
							<size>90</size>
							<type>UTF8</type>
							<value>6765914c8a0dd6e649882dd6e34d3e4ffa903035_/DCIM/100APPLE/IMG_0011.MOV_73412600_IMG_0011.MOV</value>
						</metadata>
						<timecode>
							<rate>
								<timebase>24</timebase>
							</rate>
							<string>00:00:00:00</string>
							<frame>0</frame>
							<displayformat>NDF</displayformat>
							<source>source</source>
						</timecode>
						<media>
							<video>
								<duration>1366</duration>
								<samplecharacteristics>
									<width>1280</width>
									<height>720</height>
								</samplecharacteristics>
							</video>
							<audio>
								<samplecharacteristics>
									<samplerate>48000</samplerate>
									<depth>16</depth>
								</samplecharacteristics>
								<channelcount>1</channelcount>
								<layout>mono</layout>
								<audiochannel>
									<sourcechannel>1</sourcechannel>
									<channellabel>discrete</channellabel>
								</audiochannel>
							</audio>
							<audio>
								<samplecharacteristics>
									<samplerate>48000</samplerate>
									<depth>16</depth>
								</samplecharacteristics>
								<channelcount>1</channelcount>
								<layout>mono</layout>
								<audiochannel>
									<sourcechannel>2</sourcechannel>
									<channellabel>discrete</channellabel>
								</audiochannel>
							</audio>
						</media>
					</file>
					<sourcetrack>
						<mediatype>video</mediatype>
					</sourcetrack>
					<fielddominance>none</fielddominance>
					<itemhistory>
						<uuid>049F5DBC-AED5-482B-A738-A96D3AA5AB55</uuid>
						<uuid>676D75DB-FBAD-4498-BF0E-DAC1EC53E0E8</uuid>
					</itemhistory>
				</clipitem>
				<clipitem id="IanKegel011 ">
					<name>IanKegel011</name>
					<duration>3398</duration>
					<rate>
						<ntsc>FALSE</ntsc>
						<timebase>25</timebase>
					</rate>
					<in>0</in>
					<out>3397</out>
					<start>119519</start>
					<end>122916</end>
					<pixelaspectratio>Square</pixelaspectratio>
					<anamorphic>FALSE</anamorphic>
					<alphatype>none</alphatype>
					<logginginfo>
						<scene/>
						<shottake/>
						<lognote/>
						<good>FALSE</good>
					</logginginfo>
					<labels>
						<label2/>
					</labels>
					<comments>
						<mastercomment1/>
						<mastercomment2/>
						<mastercomment3/>
						<mastercomment4/>
					</comments>
					<file id="IanKegel011 1">
						<name>IanKegel011</name>
						<pathurl>file://localhost/Volumes/Michael's%20Passport/woodbdrigenov2011media/IanKegel011</pathurl>
						<rate>
							<timebase>25</timebase>
						</rate>
						<duration>3398</duration>
						<metadata>
							<storage>QuickTime</storage>
							<key>com.apple.proapps.reel</key>
							<size>13</size>
							<type>UTF8</type>
							<value>demo iPhone 2</value>
						</metadata>
						<metadata>
							<storage>QuickTime</storage>
							<key>com.apple.proapps.dataSize</key>
							<size>8</size>
							<type>float64</type>
							<value>2.01302e+08</value>
						</metadata>
						<metadata>
							<storage>QuickTime</storage>
							<key>com.apple.proapps.pulldown</key>
							<size>4</size>
							<type>signed</type>
							<value>1</value>
						</metadata>
						<metadata>
							<storage>QuickTime</storage>
							<key>com.apple.proapps.shootingRate</key>
							<size>8</size>
							<type>float64</type>
							<value>24</value>
						</metadata>
						<metadata>
							<storage>QuickTime</storage>
							<key>com.apple.quicktime.make</key>
							<size>5</size>
							<type>UTF8</type>
							<value>Apple</value>
						</metadata>
						<metadata>
							<storage>QuickTime</storage>
							<key>com.apple.proapps.displayFormat</key>
							<size>4</size>
							<type>UTF8</type>
							<value>NTSC</value>
						</metadata>
						<metadata>
							<storage>QuickTime</storage>
							<key>com.apple.quicktime.creationdate</key>
							<size>24</size>
							<type>UTF8</type>
							<value>2011-11-04T20:40:24+0000</value>
						</metadata>
						<metadata>
							<storage>QuickTime</storage>
							<key>com.apple.proapps.mediaRate</key>
							<size>8</size>
							<type>float64</type>
							<value>24</value>
						</metadata>
						<metadata>
							<storage>QuickTime</storage>
							<key>com.apple.finalcutstudio.media.history.uuid</key>
							<size>36</size>
							<type>UTF8</type>
							<value>3B9D1628-F307-49E1-AC1E-290166A175CD</value>
						</metadata>
						<metadata>
							<storage>QuickTime</storage>
							<key>com.apple.quicktime.software</key>
							<size>24</size>
							<type>UTF8</type>
							<value>Mac OS X 10.6.8 (10K549)</value>
						</metadata>
						<metadata>
							<storage>QuickTime</storage>
							<key>com.apple.proapps.videoBitrate</key>
							<size>4</size>
							<type>signed</type>
							<value>0</value>
						</metadata>
						<metadata>
							<storage>QuickTime</storage>
							<key>com.apple.proapps.timecodeFormat</key>
							<size>4</size>
							<type>signed</type>
							<value>1</value>
						</metadata>
						<metadata>
							<storage>QuickTime</storage>
							<key>com.apple.proapps.isGood</key>
							<size>4</size>
							<type>signed</type>
							<value>0</value>
						</metadata>
						<metadata>
							<storage>QuickTime</storage>
							<key>com.apple.proapps.ingestDate.description</key>
							<size>25</size>
							<type>UTF8</type>
							<value>2011-11-04 21:19:01 +0000</value>
						</metadata>
						<metadata>
							<storage>QuickTime</storage>
							<key>com.apple.proapps.bitsPerSample</key>
							<size>4</size>
							<type>signed</type>
							<value>0</value>
						</metadata>
						<metadata>
							<storage>QuickTime</storage>
							<key>com.apple.proapps.originalFormat</key>
							<size>4</size>
							<type>UTF8</type>
							<value>NTSC</value>
						</metadata>
						<metadata>
							<storage>QuickTime</storage>
							<key>com.apple.proapps.clipFileName</key>
							<size>8</size>
							<type>UTF8</type>
							<value>IMG_0012</value>
						</metadata>
						<metadata>
							<storage>QuickTime</storage>
							<key>com.apple.proapps.RADSDKVersion</key>
							<size>3</size>
							<type>UTF8</type>
							<value>3.1</value>
						</metadata>
						<metadata>
							<storage>QuickTime</storage>
							<key>com.apple.finalcutstudio.media.uuid</key>
							<size>36</size>
							<type>UTF8</type>
							<value>3D9E172B-1286-449A-BF0D-248378E6AF4E</value>
						</metadata>
						<metadata>
							<storage>QuickTime</storage>
							<key>com.apple.quicktime.model</key>
							<size>13</size>
							<type>UTF8</type>
							<value>MacBookAir3,1</value>
						</metadata>
						<metadata>
							<storage>QuickTime</storage>
							<key>com.apple.proapps.numberOfAudioChannels</key>
							<size>4</size>
							<type>signed</type>
							<value>1</value>
						</metadata>
						<metadata>
							<storage>QuickTime</storage>
							<key>com.apple.proapps.clipID</key>
							<size>91</size>
							<type>UTF8</type>
							<value>6765914c8a0dd6e649882dd6e34d3e4ffa903035_/DCIM/100APPLE/IMG_0012.MOV_188817619_IMG_0012.MOV</value>
						</metadata>
						<timecode>
							<rate>
								<timebase>24</timebase>
							</rate>
							<string>00:00:00:00</string>
							<frame>0</frame>
							<displayformat>NDF</displayformat>
							<source>source</source>
						</timecode>
						<media>
							<video>
								<duration>3398</duration>
								<samplecharacteristics>
									<width>1280</width>
									<height>720</height>
								</samplecharacteristics>
							</video>
							<audio>
								<samplecharacteristics>
									<samplerate>48000</samplerate>
									<depth>16</depth>
								</samplecharacteristics>
								<channelcount>1</channelcount>
								<layout>mono</layout>
								<audiochannel>
									<sourcechannel>1</sourcechannel>
									<channellabel>discrete</channellabel>
								</audiochannel>
							</audio>
							<audio>
								<samplecharacteristics>
									<samplerate>48000</samplerate>
									<depth>16</depth>
								</samplecharacteristics>
								<channelcount>1</channelcount>
								<layout>mono</layout>
								<audiochannel>
									<sourcechannel>2</sourcechannel>
									<channellabel>discrete</channellabel>
								</audiochannel>
							</audio>
						</media>
					</file>
					<sourcetrack>
						<mediatype>video</mediatype>
					</sourcetrack>
					<fielddominance>none</fielddominance>
					<itemhistory>
						<uuid>7CB0CA00-FE69-47AE-85A2-D8AA650218AD</uuid>
						<uuid>8F2ECFFB-30F4-48BF-BC5F-5C563EFEC328</uuid>
					</itemhistory>
				</clipitem>
				<clipitem id="IanKegel012 ">
					<name>IanKegel012</name>
					<duration>2734</duration>
					<rate>
						<ntsc>FALSE</ntsc>
						<timebase>25</timebase>
					</rate>
					<in>0</in>
					<out>2733</out>
					<start>126844</start>
					<end>129577</end>
					<pixelaspectratio>Square</pixelaspectratio>
					<anamorphic>FALSE</anamorphic>
					<alphatype>none</alphatype>
					<logginginfo>
						<scene/>
						<shottake/>
						<lognote/>
						<good>FALSE</good>
					</logginginfo>
					<labels>
						<label2/>
					</labels>
					<comments>
						<mastercomment1/>
						<mastercomment2/>
						<mastercomment3/>
						<mastercomment4/>
					</comments>
					<file id="IanKegel012 1">
						<name>IanKegel012</name>
						<pathurl>file://localhost/Volumes/Michael's%20Passport/woodbdrigenov2011media/IanKegel012</pathurl>
						<rate>
							<timebase>25</timebase>
						</rate>
						<duration>2734</duration>
						<metadata>
							<storage>QuickTime</storage>
							<key>com.apple.proapps.reel</key>
							<size>13</size>
							<type>UTF8</type>
							<value>demo iPhone 2</value>
						</metadata>
						<metadata>
							<storage>QuickTime</storage>
							<key>com.apple.proapps.dataSize</key>
							<size>8</size>
							<type>float64</type>
							<value>1.61929e+08</value>
						</metadata>
						<metadata>
							<storage>QuickTime</storage>
							<key>com.apple.proapps.pulldown</key>
							<size>4</size>
							<type>signed</type>
							<value>1</value>
						</metadata>
						<metadata>
							<storage>QuickTime</storage>
							<key>com.apple.proapps.shootingRate</key>
							<size>8</size>
							<type>float64</type>
							<value>24</value>
						</metadata>
						<metadata>
							<storage>QuickTime</storage>
							<key>com.apple.quicktime.make</key>
							<size>5</size>
							<type>UTF8</type>
							<value>Apple</value>
						</metadata>
						<metadata>
							<storage>QuickTime</storage>
							<key>com.apple.proapps.displayFormat</key>
							<size>4</size>
							<type>UTF8</type>
							<value>NTSC</value>
						</metadata>
						<metadata>
							<storage>QuickTime</storage>
							<key>com.apple.quicktime.creationdate</key>
							<size>24</size>
							<type>UTF8</type>
							<value>2011-11-04T20:44:49+0000</value>
						</metadata>
						<metadata>
							<storage>QuickTime</storage>
							<key>com.apple.proapps.mediaRate</key>
							<size>8</size>
							<type>float64</type>
							<value>24</value>
						</metadata>
						<metadata>
							<storage>QuickTime</storage>
							<key>com.apple.finalcutstudio.media.history.uuid</key>
							<size>36</size>
							<type>UTF8</type>
							<value>2C537D24-0AED-4FCE-AED3-50FD4EF5D7FF</value>
						</metadata>
						<metadata>
							<storage>QuickTime</storage>
							<key>com.apple.quicktime.software</key>
							<size>24</size>
							<type>UTF8</type>
							<value>Mac OS X 10.6.8 (10K549)</value>
						</metadata>
						<metadata>
							<storage>QuickTime</storage>
							<key>com.apple.proapps.videoBitrate</key>
							<size>4</size>
							<type>signed</type>
							<value>0</value>
						</metadata>
						<metadata>
							<storage>QuickTime</storage>
							<key>com.apple.proapps.timecodeFormat</key>
							<size>4</size>
							<type>signed</type>
							<value>1</value>
						</metadata>
						<metadata>
							<storage>QuickTime</storage>
							<key>com.apple.proapps.isGood</key>
							<size>4</size>
							<type>signed</type>
							<value>0</value>
						</metadata>
						<metadata>
							<storage>QuickTime</storage>
							<key>com.apple.proapps.ingestDate.description</key>
							<size>25</size>
							<type>UTF8</type>
							<value>2011-11-04 21:19:35 +0000</value>
						</metadata>
						<metadata>
							<storage>QuickTime</storage>
							<key>com.apple.proapps.bitsPerSample</key>
							<size>4</size>
							<type>signed</type>
							<value>0</value>
						</metadata>
						<metadata>
							<storage>QuickTime</storage>
							<key>com.apple.proapps.originalFormat</key>
							<size>4</size>
							<type>UTF8</type>
							<value>NTSC</value>
						</metadata>
						<metadata>
							<storage>QuickTime</storage>
							<key>com.apple.proapps.clipFileName</key>
							<size>8</size>
							<type>UTF8</type>
							<value>IMG_0013</value>
						</metadata>
						<metadata>
							<storage>QuickTime</storage>
							<key>com.apple.proapps.RADSDKVersion</key>
							<size>3</size>
							<type>UTF8</type>
							<value>3.1</value>
						</metadata>
						<metadata>
							<storage>QuickTime</storage>
							<key>com.apple.finalcutstudio.media.uuid</key>
							<size>36</size>
							<type>UTF8</type>
							<value>6992F2E1-42F7-4CA9-9691-0B3DF50AA120</value>
						</metadata>
						<metadata>
							<storage>QuickTime</storage>
							<key>com.apple.quicktime.model</key>
							<size>13</size>
							<type>UTF8</type>
							<value>MacBookAir3,1</value>
						</metadata>
						<metadata>
							<storage>QuickTime</storage>
							<key>com.apple.proapps.numberOfAudioChannels</key>
							<size>4</size>
							<type>signed</type>
							<value>1</value>
						</metadata>
						<metadata>
							<storage>QuickTime</storage>
							<key>com.apple.proapps.clipID</key>
							<size>91</size>
							<type>UTF8</type>
							<value>6765914c8a0dd6e649882dd6e34d3e4ffa903035_/DCIM/100APPLE/IMG_0013.MOV_151884781_IMG_0013.MOV</value>
						</metadata>
						<timecode>
							<rate>
								<timebase>24</timebase>
							</rate>
							<string>00:00:00:00</string>
							<frame>0</frame>
							<displayformat>NDF</displayformat>
							<source>source</source>
						</timecode>
						<media>
							<video>
								<duration>2734</duration>
								<samplecharacteristics>
									<width>1280</width>
									<height>720</height>
								</samplecharacteristics>
							</video>
							<audio>
								<samplecharacteristics>
									<samplerate>48000</samplerate>
									<depth>16</depth>
								</samplecharacteristics>
								<channelcount>1</channelcount>
								<layout>mono</layout>
								<audiochannel>
									<sourcechannel>1</sourcechannel>
									<channellabel>discrete</channellabel>
								</audiochannel>
							</audio>
							<audio>
								<samplecharacteristics>
									<samplerate>48000</samplerate>
									<depth>16</depth>
								</samplecharacteristics>
								<channelcount>1</channelcount>
								<layout>mono</layout>
								<audiochannel>
									<sourcechannel>2</sourcechannel>
									<channellabel>discrete</channellabel>
								</audiochannel>
							</audio>
						</media>
					</file>
					<sourcetrack>
						<mediatype>video</mediatype>
					</sourcetrack>
					<fielddominance>none</fielddominance>
					<itemhistory>
						<uuid>88A90BDA-7017-4164-A8A8-12EABBFBD54E</uuid>
						<uuid>E74B3307-80FD-41F1-936C-733E5192C4DB</uuid>
					</itemhistory>
				</clipitem>
				<enabled>TRUE</enabled>
				<locked>FALSE</locked>
			</track>
			<track>
				<clipitem id="iphone005 ">
					<name>iphone005</name>
					<duration>500</duration>
					<rate>
						<ntsc>FALSE</ntsc>
						<timebase>25</timebase>
					</rate>
					<in>0</in>
					<out>500</out>
					<start>622</start>
					<end>1122</end>
					<pixelaspectratio>Square</pixelaspectratio>
					<enabled>TRUE</enabled>
					<anamorphic>FALSE</anamorphic>
					<alphatype>none</alphatype>
					<logginginfo>
						<scene/>
						<shottake/>
						<lognote/>
						<good>FALSE</good>
					</logginginfo>
					<labels>
						<label2/>
					</labels>
					<comments>
						<mastercomment1/>
						<mastercomment2/>
						<mastercomment3/>
						<mastercomment4/>
					</comments>
					<file id="iphone005 1">
						<name>iphone005</name>
						<pathurl>file://localhost/Volumes/Michael's%20Passport/woodbdrigenov2011media/iphone005</pathurl>
						<rate>
							<timebase>25</timebase>
						</rate>
						<duration>500</duration>
						<metadata>
							<storage>QuickTime</storage>
							<key>com.apple.finalcutstudio.media.uuid</key>
							<size>36</size>
							<type>UTF8</type>
							<value>AD8A6849-D7EA-4668-8604-B44BFF6A99CD</value>
						</metadata>
						<metadata>
							<storage>QuickTime</storage>
							<key>com.apple.finalcutstudio.media.history.uuid</key>
							<size>36</size>
							<type>UTF8</type>
							<value>9137D25F-416D-4B49-B8EA-DD2FDA1B676A</value>
						</metadata>
						<timecode>
							<rate>
								<timebase>25</timebase>
							</rate>
							<string>00:00:00:00</string>
							<frame>0</frame>
							<displayformat>NDF</displayformat>
							<source>source</source>
						</timecode>
						<media>
							<video>
								<duration>500</duration>
								<samplecharacteristics>
									<width>1280</width>
									<height>720</height>
								</samplecharacteristics>
							</video>
							<audio>
								<samplecharacteristics>
									<samplerate>48000</samplerate>
									<depth>16</depth>
								</samplecharacteristics>
								<channelcount>1</channelcount>
								<layout>mono</layout>
								<audiochannel>
									<sourcechannel>1</sourcechannel>
									<channellabel>discrete</channellabel>
								</audiochannel>
							</audio>
							<audio>
								<samplecharacteristics>
									<samplerate>48000</samplerate>
									<depth>16</depth>
								</samplecharacteristics>
								<channelcount>1</channelcount>
								<layout>mono</layout>
								<audiochannel>
									<sourcechannel>2</sourcechannel>
									<channellabel>discrete</channellabel>
								</audiochannel>
							</audio>
						</media>
					</file>
					<sourcetrack>
						<mediatype>video</mediatype>
					</sourcetrack>
					<link>
						<linkclipref>iphone005 </linkclipref>
						<mediatype>video</mediatype>
						<trackindex>11</trackindex>
						<clipindex>1</clipindex>
					</link>
					<link>
						<linkclipref>iphone005 2</linkclipref>
						<mediatype>audio</mediatype>
						<trackindex>21</trackindex>
						<clipindex>1</clipindex>
					</link>
					<link>
						<linkclipref>iphone005 3</linkclipref>
						<mediatype>audio</mediatype>
						<trackindex>22</trackindex>
						<clipindex>1</clipindex>
					</link>
					<fielddominance>none</fielddominance>
					<itemhistory>
						<uuid>F5B3C5BC-9CD7-47B5-8B27-53D5BDF0247F</uuid>
						<uuid>C5E1BFE8-F181-4569-A419-FE9CD48F6845</uuid>
					</itemhistory>
				</clipitem>
				<clipitem id="iphone007 ">
					<name>iphone007</name>
					<duration>1325</duration>
					<rate>
						<ntsc>FALSE</ntsc>
						<timebase>25</timebase>
					</rate>
					<in>0</in>
					<out>1325</out>
					<start>1122</start>
					<end>2447</end>
					<pixelaspectratio>Square</pixelaspectratio>
					<enabled>TRUE</enabled>
					<anamorphic>FALSE</anamorphic>
					<alphatype>none</alphatype>
					<logginginfo>
						<scene/>
						<shottake/>
						<lognote/>
						<good>FALSE</good>
					</logginginfo>
					<labels>
						<label2/>
					</labels>
					<comments>
						<mastercomment1/>
						<mastercomment2/>
						<mastercomment3/>
						<mastercomment4/>
					</comments>
					<file id="iphone007 1">
						<name>iphone007</name>
						<pathurl>file://localhost/Volumes/Michael's%20Passport/woodbdrigenov2011media/iphone007</pathurl>
						<rate>
							<timebase>25</timebase>
						</rate>
						<duration>1325</duration>
						<metadata>
							<storage>QuickTime</storage>
							<key>com.apple.finalcutstudio.media.uuid</key>
							<size>36</size>
							<type>UTF8</type>
							<value>EF6645A8-4F9F-44DB-BEE7-5A4CD1E280EA</value>
						</metadata>
						<metadata>
							<storage>QuickTime</storage>
							<key>com.apple.finalcutstudio.media.history.uuid</key>
							<size>36</size>
							<type>UTF8</type>
							<value>5D4EA844-2919-4403-AF49-B4B3C86DD472</value>
						</metadata>
						<timecode>
							<rate>
								<timebase>25</timebase>
							</rate>
							<string>00:00:00:00</string>
							<frame>0</frame>
							<displayformat>NDF</displayformat>
							<source>source</source>
						</timecode>
						<media>
							<video>
								<duration>1325</duration>
								<samplecharacteristics>
									<width>1280</width>
									<height>720</height>
								</samplecharacteristics>
							</video>
							<audio>
								<samplecharacteristics>
									<samplerate>48000</samplerate>
									<depth>16</depth>
								</samplecharacteristics>
								<channelcount>1</channelcount>
								<layout>mono</layout>
								<audiochannel>
									<sourcechannel>1</sourcechannel>
									<channellabel>discrete</channellabel>
								</audiochannel>
							</audio>
							<audio>
								<samplecharacteristics>
									<samplerate>48000</samplerate>
									<depth>16</depth>
								</samplecharacteristics>
								<channelcount>1</channelcount>
								<layout>mono</layout>
								<audiochannel>
									<sourcechannel>2</sourcechannel>
									<channellabel>discrete</channellabel>
								</audiochannel>
							</audio>
						</media>
					</file>
					<sourcetrack>
						<mediatype>video</mediatype>
					</sourcetrack>
					<link>
						<linkclipref>iphone007 </linkclipref>
						<mediatype>video</mediatype>
						<trackindex>11</trackindex>
						<clipindex>2</clipindex>
					</link>
					<link>
						<linkclipref>iphone007 2</linkclipref>
						<mediatype>audio</mediatype>
						<trackindex>21</trackindex>
						<clipindex>2</clipindex>
					</link>
					<link>
						<linkclipref>iphone007 3</linkclipref>
						<mediatype>audio</mediatype>
						<trackindex>22</trackindex>
						<clipindex>2</clipindex>
					</link>
					<fielddominance>none</fielddominance>
					<itemhistory>
						<uuid>11BC12A3-F679-411A-A88A-694A32BE687F</uuid>
						<uuid>5A0EFA38-8923-4D94-A779-C09B329A3358</uuid>
					</itemhistory>
				</clipitem>
				<clipitem id="iphone008 ">
					<name>iphone008</name>
					<duration>163</duration>
					<rate>
						<ntsc>FALSE</ntsc>
						<timebase>25</timebase>
					</rate>
					<in>0</in>
					<out>163</out>
					<start>2447</start>
					<end>2610</end>
					<pixelaspectratio>Square</pixelaspectratio>
					<enabled>TRUE</enabled>
					<anamorphic>FALSE</anamorphic>
					<alphatype>none</alphatype>
					<logginginfo>
						<scene/>
						<shottake/>
						<lognote/>
						<good>FALSE</good>
					</logginginfo>
					<labels>
						<label2/>
					</labels>
					<comments>
						<mastercomment1/>
						<mastercomment2/>
						<mastercomment3/>
						<mastercomment4/>
					</comments>
					<file id="iphone008 1">
						<name>iphone008</name>
						<pathurl>file://localhost/Volumes/Michael's%20Passport/woodbdrigenov2011media/iphone008</pathurl>
						<rate>
							<timebase>25</timebase>
						</rate>
						<duration>163</duration>
						<metadata>
							<storage>QuickTime</storage>
							<key>com.apple.finalcutstudio.media.uuid</key>
							<size>36</size>
							<type>UTF8</type>
							<value>3778F22F-FF47-4E9B-B58E-0E1745AE586A</value>
						</metadata>
						<metadata>
							<storage>QuickTime</storage>
							<key>com.apple.finalcutstudio.media.history.uuid</key>
							<size>36</size>
							<type>UTF8</type>
							<value>AC018F71-667B-44CD-AB3C-6B6E2DFB6EAC</value>
						</metadata>
						<timecode>
							<rate>
								<timebase>25</timebase>
							</rate>
							<string>00:00:00:00</string>
							<frame>0</frame>
							<displayformat>NDF</displayformat>
							<source>source</source>
						</timecode>
						<media>
							<video>
								<duration>163</duration>
								<samplecharacteristics>
									<width>1280</width>
									<height>720</height>
								</samplecharacteristics>
							</video>
							<audio>
								<samplecharacteristics>
									<samplerate>48000</samplerate>
									<depth>16</depth>
								</samplecharacteristics>
								<channelcount>1</channelcount>
								<layout>mono</layout>
								<audiochannel>
									<sourcechannel>1</sourcechannel>
									<channellabel>discrete</channellabel>
								</audiochannel>
							</audio>
							<audio>
								<samplecharacteristics>
									<samplerate>48000</samplerate>
									<depth>16</depth>
								</samplecharacteristics>
								<channelcount>1</channelcount>
								<layout>mono</layout>
								<audiochannel>
									<sourcechannel>2</sourcechannel>
									<channellabel>discrete</channellabel>
								</audiochannel>
							</audio>
						</media>
					</file>
					<sourcetrack>
						<mediatype>video</mediatype>
					</sourcetrack>
					<link>
						<linkclipref>iphone008 </linkclipref>
						<mediatype>video</mediatype>
						<trackindex>11</trackindex>
						<clipindex>3</clipindex>
					</link>
					<link>
						<linkclipref>iphone008 2</linkclipref>
						<mediatype>audio</mediatype>
						<trackindex>21</trackindex>
						<clipindex>3</clipindex>
					</link>
					<link>
						<linkclipref>iphone008 3</linkclipref>
						<mediatype>audio</mediatype>
						<trackindex>22</trackindex>
						<clipindex>3</clipindex>
					</link>
					<fielddominance>none</fielddominance>
					<itemhistory>
						<uuid>8214F505-F0A7-4EE2-A87B-3F673637EA96</uuid>
						<uuid>6F4EE2D1-10B7-477B-A420-5931B48B5CF7</uuid>
					</itemhistory>
				</clipitem>
				<clipitem id="iphone011 ">
					<name>iphone011</name>
					<duration>767</duration>
					<rate>
						<ntsc>FALSE</ntsc>
						<timebase>25</timebase>
					</rate>
					<in>0</in>
					<out>767</out>
					<start>11909</start>
					<end>12676</end>
					<pixelaspectratio>Square</pixelaspectratio>
					<enabled>TRUE</enabled>
					<anamorphic>FALSE</anamorphic>
					<alphatype>none</alphatype>
					<logginginfo>
						<scene/>
						<shottake/>
						<lognote/>
						<good>FALSE</good>
					</logginginfo>
					<labels>
						<label2/>
					</labels>
					<comments>
						<mastercomment1/>
						<mastercomment2/>
						<mastercomment3/>
						<mastercomment4/>
					</comments>
					<file id="iphone011 1">
						<name>iphone011</name>
						<pathurl>file://localhost/Volumes/Michael's%20Passport/woodbdrigenov2011media/iphone011</pathurl>
						<rate>
							<timebase>25</timebase>
						</rate>
						<duration>767</duration>
						<metadata>
							<storage>QuickTime</storage>
							<key>com.apple.proapps.reel</key>
							<size>14</size>
							<type>UTF8</type>
							<value>Peter H  BTID </value>
						</metadata>
						<metadata>
							<storage>QuickTime</storage>
							<key>com.apple.proapps.dataSize</key>
							<size>8</size>
							<type>float64</type>
							<value>4.7862e+07</value>
						</metadata>
						<metadata>
							<storage>QuickTime</storage>
							<key>com.apple.proapps.pulldown</key>
							<size>4</size>
							<type>signed</type>
							<value>1</value>
						</metadata>
						<metadata>
							<storage>QuickTime</storage>
							<key>com.apple.proapps.shootingRate</key>
							<size>8</size>
							<type>float64</type>
							<value>25</value>
						</metadata>
						<metadata>
							<storage>QuickTime</storage>
							<key>com.apple.quicktime.make</key>
							<size>5</size>
							<type>UTF8</type>
							<value>Apple</value>
						</metadata>
						<metadata>
							<storage>QuickTime</storage>
							<key>com.apple.proapps.displayFormat</key>
							<size>4</size>
							<type>UTF8</type>
							<value>NTSC</value>
						</metadata>
						<metadata>
							<storage>QuickTime</storage>
							<key>com.apple.quicktime.creationdate</key>
							<size>24</size>
							<type>UTF8</type>
							<value>2011-11-04T19:25:12+0000</value>
						</metadata>
						<metadata>
							<storage>QuickTime</storage>
							<key>com.apple.proapps.mediaRate</key>
							<size>8</size>
							<type>float64</type>
							<value>25</value>
						</metadata>
						<metadata>
							<storage>QuickTime</storage>
							<key>com.apple.finalcutstudio.media.history.uuid</key>
							<size>36</size>
							<type>UTF8</type>
							<value>B86BED2A-1E67-421E-A50A-8C7ED270849D</value>
						</metadata>
						<metadata>
							<storage>QuickTime</storage>
							<key>com.apple.quicktime.software</key>
							<size>24</size>
							<type>UTF8</type>
							<value>Mac OS X 10.6.8 (10K549)</value>
						</metadata>
						<metadata>
							<storage>QuickTime</storage>
							<key>com.apple.proapps.videoBitrate</key>
							<size>4</size>
							<type>signed</type>
							<value>0</value>
						</metadata>
						<metadata>
							<storage>QuickTime</storage>
							<key>com.apple.proapps.timecodeFormat</key>
							<size>4</size>
							<type>signed</type>
							<value>2</value>
						</metadata>
						<metadata>
							<storage>QuickTime</storage>
							<key>com.apple.proapps.isGood</key>
							<size>4</size>
							<type>signed</type>
							<value>0</value>
						</metadata>
						<metadata>
							<storage>QuickTime</storage>
							<key>com.apple.proapps.ingestDate.description</key>
							<size>25</size>
							<type>UTF8</type>
							<value>2011-11-04 21:28:55 +0000</value>
						</metadata>
						<metadata>
							<storage>QuickTime</storage>
							<key>com.apple.proapps.bitsPerSample</key>
							<size>4</size>
							<type>signed</type>
							<value>0</value>
						</metadata>
						<metadata>
							<storage>QuickTime</storage>
							<key>com.apple.proapps.originalFormat</key>
							<size>4</size>
							<type>UTF8</type>
							<value>NTSC</value>
						</metadata>
						<metadata>
							<storage>QuickTime</storage>
							<key>com.apple.proapps.clipFileName</key>
							<size>8</size>
							<type>UTF8</type>
							<value>IMG_0022</value>
						</metadata>
						<metadata>
							<storage>QuickTime</storage>
							<key>com.apple.proapps.RADSDKVersion</key>
							<size>3</size>
							<type>UTF8</type>
							<value>3.1</value>
						</metadata>
						<metadata>
							<storage>QuickTime</storage>
							<key>com.apple.finalcutstudio.media.uuid</key>
							<size>36</size>
							<type>UTF8</type>
							<value>1D7C3E73-1056-43D4-AD05-149A6B07635A</value>
						</metadata>
						<metadata>
							<storage>QuickTime</storage>
							<key>com.apple.quicktime.model</key>
							<size>13</size>
							<type>UTF8</type>
							<value>MacBookAir3,1</value>
						</metadata>
						<metadata>
							<storage>QuickTime</storage>
							<key>com.apple.proapps.numberOfAudioChannels</key>
							<size>4</size>
							<type>signed</type>
							<value>1</value>
						</metadata>
						<metadata>
							<storage>QuickTime</storage>
							<key>com.apple.proapps.clipID</key>
							<size>90</size>
							<type>UTF8</type>
							<value>3557ac8802757634d608aed60ba58d694581cbb7_/DCIM/100APPLE/IMG_0022.MOV_45032521_IMG_0022.MOV</value>
						</metadata>
						<timecode>
							<rate>
								<timebase>25</timebase>
							</rate>
							<string>00:00:01:10</string>
							<frame>35</frame>
							<displayformat>NDF</displayformat>
							<source>source</source>
						</timecode>
						<media>
							<video>
								<duration>767</duration>
								<samplecharacteristics>
									<width>1280</width>
									<height>720</height>
								</samplecharacteristics>
							</video>
							<audio>
								<samplecharacteristics>
									<samplerate>48000</samplerate>
									<depth>16</depth>
								</samplecharacteristics>
								<channelcount>1</channelcount>
								<layout>mono</layout>
								<audiochannel>
									<sourcechannel>1</sourcechannel>
									<channellabel>discrete</channellabel>
								</audiochannel>
							</audio>
							<audio>
								<samplecharacteristics>
									<samplerate>48000</samplerate>
									<depth>16</depth>
								</samplecharacteristics>
								<channelcount>1</channelcount>
								<layout>mono</layout>
								<audiochannel>
									<sourcechannel>2</sourcechannel>
									<channellabel>discrete</channellabel>
								</audiochannel>
							</audio>
						</media>
					</file>
					<sourcetrack>
						<mediatype>video</mediatype>
					</sourcetrack>
					<link>
						<linkclipref>iphone011 </linkclipref>
						<mediatype>video</mediatype>
						<trackindex>11</trackindex>
						<clipindex>4</clipindex>
					</link>
					<link>
						<linkclipref>iphone011 2</linkclipref>
						<mediatype>audio</mediatype>
						<trackindex>21</trackindex>
						<clipindex>5</clipindex>
					</link>
					<link>
						<linkclipref>iphone011 3</linkclipref>
						<mediatype>audio</mediatype>
						<trackindex>22</trackindex>
						<clipindex>5</clipindex>
					</link>
					<fielddominance>none</fielddominance>
					<itemhistory>
						<uuid>160F96DC-1450-499D-A41F-79BEB4640E32</uuid>
						<uuid>555EAC09-448A-4A3B-A6BB-0C02BFF7F885</uuid>
					</itemhistory>
				</clipitem>
				<clipitem id="iphone013 ">
					<name>iphone013</name>
					<duration>1838</duration>
					<rate>
						<ntsc>FALSE</ntsc>
						<timebase>25</timebase>
					</rate>
					<in>0</in>
					<out>1838</out>
					<start>18708</start>
					<end>20546</end>
					<pixelaspectratio>Square</pixelaspectratio>
					<anamorphic>FALSE</anamorphic>
					<alphatype>none</alphatype>
					<logginginfo>
						<scene/>
						<shottake/>
						<lognote/>
						<good>FALSE</good>
					</logginginfo>
					<labels>
						<label2/>
					</labels>
					<comments>
						<mastercomment1/>
						<mastercomment2/>
						<mastercomment3/>
						<mastercomment4/>
					</comments>
					<file id="iphone013 1">
						<name>iphone013</name>
						<pathurl>file://localhost/Volumes/Michael's%20Passport/woodbdrigenov2011media/iphone013</pathurl>
						<rate>
							<timebase>25</timebase>
						</rate>
						<duration>1838</duration>
						<metadata>
							<storage>QuickTime</storage>
							<key>com.apple.proapps.reel</key>
							<size>14</size>
							<type>UTF8</type>
							<value>Peter H  BTID </value>
						</metadata>
						<metadata>
							<storage>QuickTime</storage>
							<key>com.apple.proapps.dataSize</key>
							<size>8</size>
							<type>float64</type>
							<value>1.13624e+08</value>
						</metadata>
						<metadata>
							<storage>QuickTime</storage>
							<key>com.apple.proapps.pulldown</key>
							<size>4</size>
							<type>signed</type>
							<value>1</value>
						</metadata>
						<metadata>
							<storage>QuickTime</storage>
							<key>com.apple.proapps.shootingRate</key>
							<size>8</size>
							<type>float64</type>
							<value>24</value>
						</metadata>
						<metadata>
							<storage>QuickTime</storage>
							<key>com.apple.quicktime.make</key>
							<size>5</size>
							<type>UTF8</type>
							<value>Apple</value>
						</metadata>
						<metadata>
							<storage>QuickTime</storage>
							<key>com.apple.proapps.displayFormat</key>
							<size>4</size>
							<type>UTF8</type>
							<value>NTSC</value>
						</metadata>
						<metadata>
							<storage>QuickTime</storage>
							<key>com.apple.quicktime.creationdate</key>
							<size>24</size>
							<type>UTF8</type>
							<value>2011-11-04T19:31:23+0000</value>
						</metadata>
						<metadata>
							<storage>QuickTime</storage>
							<key>com.apple.proapps.mediaRate</key>
							<size>8</size>
							<type>float64</type>
							<value>24</value>
						</metadata>
						<metadata>
							<storage>QuickTime</storage>
							<key>com.apple.finalcutstudio.media.history.uuid</key>
							<size>36</size>
							<type>UTF8</type>
							<value>46683FBE-4ADA-4FAC-9421-509EC3DC38A7</value>
						</metadata>
						<metadata>
							<storage>QuickTime</storage>
							<key>com.apple.quicktime.software</key>
							<size>24</size>
							<type>UTF8</type>
							<value>Mac OS X 10.6.8 (10K549)</value>
						</metadata>
						<metadata>
							<storage>QuickTime</storage>
							<key>com.apple.proapps.videoBitrate</key>
							<size>4</size>
							<type>signed</type>
							<value>0</value>
						</metadata>
						<metadata>
							<storage>QuickTime</storage>
							<key>com.apple.proapps.timecodeFormat</key>
							<size>4</size>
							<type>signed</type>
							<value>1</value>
						</metadata>
						<metadata>
							<storage>QuickTime</storage>
							<key>com.apple.proapps.isGood</key>
							<size>4</size>
							<type>signed</type>
							<value>0</value>
						</metadata>
						<metadata>
							<storage>QuickTime</storage>
							<key>com.apple.proapps.ingestDate.description</key>
							<size>25</size>
							<type>UTF8</type>
							<value>2011-11-04 21:29:03 +0000</value>
						</metadata>
						<metadata>
							<storage>QuickTime</storage>
							<key>com.apple.proapps.bitsPerSample</key>
							<size>4</size>
							<type>signed</type>
							<value>0</value>
						</metadata>
						<metadata>
							<storage>QuickTime</storage>
							<key>com.apple.proapps.originalFormat</key>
							<size>4</size>
							<type>UTF8</type>
							<value>NTSC</value>
						</metadata>
						<metadata>
							<storage>QuickTime</storage>
							<key>com.apple.proapps.clipFileName</key>
							<size>8</size>
							<type>UTF8</type>
							<value>IMG_0023</value>
						</metadata>
						<metadata>
							<storage>QuickTime</storage>
							<key>com.apple.proapps.RADSDKVersion</key>
							<size>3</size>
							<type>UTF8</type>
							<value>3.1</value>
						</metadata>
						<metadata>
							<storage>QuickTime</storage>
							<key>com.apple.finalcutstudio.media.uuid</key>
							<size>36</size>
							<type>UTF8</type>
							<value>29AEC8C8-03C8-4ED8-BFE5-7213CC54E1EB</value>
						</metadata>
						<metadata>
							<storage>QuickTime</storage>
							<key>com.apple.quicktime.model</key>
							<size>13</size>
							<type>UTF8</type>
							<value>MacBookAir3,1</value>
						</metadata>
						<metadata>
							<storage>QuickTime</storage>
							<key>com.apple.proapps.numberOfAudioChannels</key>
							<size>4</size>
							<type>signed</type>
							<value>1</value>
						</metadata>
						<metadata>
							<storage>QuickTime</storage>
							<key>com.apple.proapps.clipID</key>
							<size>91</size>
							<type>UTF8</type>
							<value>3557ac8802757634d608aed60ba58d694581cbb7_/DCIM/100APPLE/IMG_0023.MOV_106572004_IMG_0023.MOV</value>
						</metadata>
						<timecode>
							<rate>
								<timebase>24</timebase>
							</rate>
							<string>00:00:03:07</string>
							<frame>79</frame>
							<displayformat>NDF</displayformat>
							<source>source</source>
						</timecode>
						<media>
							<video>
								<duration>1838</duration>
								<samplecharacteristics>
									<width>1280</width>
									<height>720</height>
								</samplecharacteristics>
							</video>
							<audio>
								<samplecharacteristics>
									<samplerate>48000</samplerate>
									<depth>16</depth>
								</samplecharacteristics>
								<channelcount>1</channelcount>
								<layout>mono</layout>
								<audiochannel>
									<sourcechannel>1</sourcechannel>
									<channellabel>discrete</channellabel>
								</audiochannel>
							</audio>
							<audio>
								<samplecharacteristics>
									<samplerate>48000</samplerate>
									<depth>16</depth>
								</samplecharacteristics>
								<channelcount>1</channelcount>
								<layout>mono</layout>
								<audiochannel>
									<sourcechannel>2</sourcechannel>
									<channellabel>discrete</channellabel>
								</audiochannel>
							</audio>
						</media>
					</file>
					<sourcetrack>
						<mediatype>video</mediatype>
					</sourcetrack>
					<fielddominance>none</fielddominance>
					<itemhistory>
						<uuid>0AB92978-878B-450B-9B99-3A3D45DF01C8</uuid>
						<uuid>D44912E1-2BF3-47FC-99CF-1FBF74D1673B</uuid>
					</itemhistory>
				</clipitem>
				<clipitem id="iphone018Subclipa">
					<name>iphone018Subclipa</name>
					<duration>6743</duration>
					<rate>
						<ntsc>FALSE</ntsc>
						<timebase>25</timebase>
					</rate>
					<in>0</in>
					<out>6742</out>
					<start>45206</start>
					<end>51948</end>
					<pixelaspectratio>Square</pixelaspectratio>
					<anamorphic>FALSE</anamorphic>
					<alphatype>none</alphatype>
					<logginginfo>
						<scene/>
						<shottake/>
						<lognote/>
						<good>FALSE</good>
					</logginginfo>
					<labels>
						<label2/>
					</labels>
					<comments>
						<mastercomment1/>
						<mastercomment2/>
						<mastercomment3/>
						<mastercomment4/>
					</comments>
					<file id="iphone018Subclipa1">
						<name>iphone018Subclipa</name>
						<pathurl>file://localhost/Volumes/Michael's%20Passport/woodbdrigenov2011media/iphone018Subclipa</pathurl>
						<rate>
							<timebase>25</timebase>
						</rate>
						<duration>6743</duration>
						<metadata>
							<storage>QuickTime</storage>
							<key>com.apple.proapps.reel</key>
							<size>14</size>
							<type>UTF8</type>
							<value>Peter H  BTID </value>
						</metadata>
						<metadata>
							<storage>QuickTime</storage>
							<key>com.apple.proapps.dataSize</key>
							<size>8</size>
							<type>float64</type>
							<value>4.14322e+08</value>
						</metadata>
						<metadata>
							<storage>QuickTime</storage>
							<key>com.apple.proapps.pulldown</key>
							<size>4</size>
							<type>signed</type>
							<value>1</value>
						</metadata>
						<metadata>
							<storage>QuickTime</storage>
							<key>com.apple.proapps.shootingRate</key>
							<size>8</size>
							<type>float64</type>
							<value>30</value>
						</metadata>
						<metadata>
							<storage>QuickTime</storage>
							<key>com.apple.quicktime.make</key>
							<size>5</size>
							<type>UTF8</type>
							<value>Apple</value>
						</metadata>
						<metadata>
							<storage>QuickTime</storage>
							<key>com.apple.proapps.displayFormat</key>
							<size>4</size>
							<type>UTF8</type>
							<value>NTSC</value>
						</metadata>
						<metadata>
							<storage>QuickTime</storage>
							<key>com.apple.quicktime.creationdate</key>
							<size>24</size>
							<type>UTF8</type>
							<value>2011-11-04T19:52:27+0000</value>
						</metadata>
						<metadata>
							<storage>QuickTime</storage>
							<key>com.apple.proapps.mediaRate</key>
							<size>8</size>
							<type>float64</type>
							<value>30</value>
						</metadata>
						<metadata>
							<storage>QuickTime</storage>
							<key>com.apple.finalcutstudio.media.history.uuid</key>
							<size>36</size>
							<type>UTF8</type>
							<value>978DC6AA-DF22-4335-A78A-D1DA5F8200AA</value>
						</metadata>
						<metadata>
							<storage>QuickTime</storage>
							<key>com.apple.quicktime.software</key>
							<size>24</size>
							<type>UTF8</type>
							<value>Mac OS X 10.6.8 (10K549)</value>
						</metadata>
						<metadata>
							<storage>QuickTime</storage>
							<key>com.apple.proapps.videoBitrate</key>
							<size>4</size>
							<type>signed</type>
							<value>0</value>
						</metadata>
						<metadata>
							<storage>QuickTime</storage>
							<key>com.apple.proapps.timecodeFormat</key>
							<size>4</size>
							<type>signed</type>
							<value>2</value>
						</metadata>
						<metadata>
							<storage>QuickTime</storage>
							<key>com.apple.proapps.isGood</key>
							<size>4</size>
							<type>signed</type>
							<value>0</value>
						</metadata>
						<metadata>
							<storage>QuickTime</storage>
							<key>com.apple.proapps.ingestDate.description</key>
							<size>25</size>
							<type>UTF8</type>
							<value>2011-11-04 21:29:21 +0000</value>
						</metadata>
						<metadata>
							<storage>QuickTime</storage>
							<key>com.apple.proapps.bitsPerSample</key>
							<size>4</size>
							<type>signed</type>
							<value>0</value>
						</metadata>
						<metadata>
							<storage>QuickTime</storage>
							<key>com.apple.proapps.originalFormat</key>
							<size>4</size>
							<type>UTF8</type>
							<value>NTSC</value>
						</metadata>
						<metadata>
							<storage>QuickTime</storage>
							<key>com.apple.proapps.clipFileName</key>
							<size>8</size>
							<type>UTF8</type>
							<value>IMG_0025</value>
						</metadata>
						<metadata>
							<storage>QuickTime</storage>
							<key>com.apple.proapps.RADSDKVersion</key>
							<size>3</size>
							<type>UTF8</type>
							<value>3.1</value>
						</metadata>
						<metadata>
							<storage>QuickTime</storage>
							<key>com.apple.finalcutstudio.media.uuid</key>
							<size>36</size>
							<type>UTF8</type>
							<value>0F2747B7-CFEA-4DF6-AD57-C1C6E14EEE0F</value>
						</metadata>
						<metadata>
							<storage>QuickTime</storage>
							<key>com.apple.quicktime.model</key>
							<size>13</size>
							<type>UTF8</type>
							<value>MacBookAir3,1</value>
						</metadata>
						<metadata>
							<storage>QuickTime</storage>
							<key>com.apple.proapps.numberOfAudioChannels</key>
							<size>4</size>
							<type>signed</type>
							<value>1</value>
						</metadata>
						<metadata>
							<storage>QuickTime</storage>
							<key>com.apple.proapps.clipID</key>
							<size>91</size>
							<type>UTF8</type>
							<value>3557ac8802757634d608aed60ba58d694581cbb7_/DCIM/100APPLE/IMG_0025.MOV_393124663_IMG_0025.MOV</value>
						</metadata>
						<timecode>
							<rate>
								<timebase>30</timebase>
							</rate>
							<string>00:00:15:00</string>
							<frame>450</frame>
							<displayformat>NDF</displayformat>
							<source>source</source>
						</timecode>
						<media>
							<video>
								<duration>6743</duration>
								<samplecharacteristics>
									<width>1280</width>
									<height>720</height>
								</samplecharacteristics>
							</video>
							<audio>
								<samplecharacteristics>
									<samplerate>48000</samplerate>
									<depth>16</depth>
								</samplecharacteristics>
								<channelcount>1</channelcount>
								<layout>mono</layout>
								<audiochannel>
									<sourcechannel>1</sourcechannel>
									<channellabel>discrete</channellabel>
								</audiochannel>
							</audio>
							<audio>
								<samplecharacteristics>
									<samplerate>48000</samplerate>
									<depth>16</depth>
								</samplecharacteristics>
								<channelcount>1</channelcount>
								<layout>mono</layout>
								<audiochannel>
									<sourcechannel>2</sourcechannel>
									<channellabel>discrete</channellabel>
								</audiochannel>
							</audio>
						</media>
					</file>
					<sourcetrack>
						<mediatype>video</mediatype>
					</sourcetrack>
					<fielddominance>none</fielddominance>
					<itemhistory>
						<uuid>9864715B-52A7-4FB2-B00C-5798F41FADCE</uuid>
						<uuid>7D3B837F-2BB4-4B5A-B5F9-D4053040684D</uuid>
					</itemhistory>
				</clipitem>
				<clipitem id="iphone023Subclipa">
					<name>iphone023Subclipa</name>
					<duration>7213</duration>
					<rate>
						<ntsc>FALSE</ntsc>
						<timebase>25</timebase>
					</rate>
					<in>0</in>
					<out>7213</out>
					<start>82664</start>
					<end>89877</end>
					<pixelaspectratio>Square</pixelaspectratio>
					<anamorphic>FALSE</anamorphic>
					<alphatype>none</alphatype>
					<logginginfo>
						<scene/>
						<shottake/>
						<lognote/>
						<good>FALSE</good>
					</logginginfo>
					<labels>
						<label2/>
					</labels>
					<comments>
						<mastercomment1/>
						<mastercomment2/>
						<mastercomment3/>
						<mastercomment4/>
					</comments>
					<file id="iphone023Subclipa1">
						<name>iphone023Subclipa</name>
						<pathurl>file://localhost/Volumes/Michael's%20Passport/woodbdrigenov2011media/iphone023Subclipa</pathurl>
						<rate>
							<timebase>25</timebase>
						</rate>
						<duration>7213</duration>
						<metadata>
							<storage>QuickTime</storage>
							<key>com.apple.proapps.reel</key>
							<size>14</size>
							<type>UTF8</type>
							<value>Peter H  BTID </value>
						</metadata>
						<metadata>
							<storage>QuickTime</storage>
							<key>com.apple.proapps.dataSize</key>
							<size>8</size>
							<type>float64</type>
							<value>4.55108e+08</value>
						</metadata>
						<metadata>
							<storage>QuickTime</storage>
							<key>com.apple.proapps.pulldown</key>
							<size>4</size>
							<type>signed</type>
							<value>1</value>
						</metadata>
						<metadata>
							<storage>QuickTime</storage>
							<key>com.apple.proapps.shootingRate</key>
							<size>8</size>
							<type>float64</type>
							<value>30</value>
						</metadata>
						<metadata>
							<storage>QuickTime</storage>
							<key>com.apple.quicktime.make</key>
							<size>5</size>
							<type>UTF8</type>
							<value>Apple</value>
						</metadata>
						<metadata>
							<storage>QuickTime</storage>
							<key>com.apple.proapps.displayFormat</key>
							<size>4</size>
							<type>UTF8</type>
							<value>NTSC</value>
						</metadata>
						<metadata>
							<storage>QuickTime</storage>
							<key>com.apple.quicktime.creationdate</key>
							<size>24</size>
							<type>UTF8</type>
							<value>2011-11-04T20:17:46+0000</value>
						</metadata>
						<metadata>
							<storage>QuickTime</storage>
							<key>com.apple.proapps.mediaRate</key>
							<size>8</size>
							<type>float64</type>
							<value>30</value>
						</metadata>
						<metadata>
							<storage>QuickTime</storage>
							<key>com.apple.finalcutstudio.media.history.uuid</key>
							<size>36</size>
							<type>UTF8</type>
							<value>109D5DFB-87E0-4203-8392-E5BAA9526FEB</value>
						</metadata>
						<metadata>
							<storage>QuickTime</storage>
							<key>com.apple.quicktime.software</key>
							<size>24</size>
							<type>UTF8</type>
							<value>Mac OS X 10.6.8 (10K549)</value>
						</metadata>
						<metadata>
							<storage>QuickTime</storage>
							<key>com.apple.proapps.videoBitrate</key>
							<size>4</size>
							<type>signed</type>
							<value>0</value>
						</metadata>
						<metadata>
							<storage>QuickTime</storage>
							<key>com.apple.proapps.timecodeFormat</key>
							<size>4</size>
							<type>signed</type>
							<value>2</value>
						</metadata>
						<metadata>
							<storage>QuickTime</storage>
							<key>com.apple.proapps.isGood</key>
							<size>4</size>
							<type>signed</type>
							<value>0</value>
						</metadata>
						<metadata>
							<storage>QuickTime</storage>
							<key>com.apple.proapps.ingestDate.description</key>
							<size>25</size>
							<type>UTF8</type>
							<value>2011-11-04 21:30:26 +0000</value>
						</metadata>
						<metadata>
							<storage>QuickTime</storage>
							<key>com.apple.proapps.bitsPerSample</key>
							<size>4</size>
							<type>signed</type>
							<value>0</value>
						</metadata>
						<metadata>
							<storage>QuickTime</storage>
							<key>com.apple.proapps.originalFormat</key>
							<size>4</size>
							<type>UTF8</type>
							<value>NTSC</value>
						</metadata>
						<metadata>
							<storage>QuickTime</storage>
							<key>com.apple.proapps.clipFileName</key>
							<size>8</size>
							<type>UTF8</type>
							<value>IMG_0026</value>
						</metadata>
						<metadata>
							<storage>QuickTime</storage>
							<key>com.apple.proapps.RADSDKVersion</key>
							<size>3</size>
							<type>UTF8</type>
							<value>3.1</value>
						</metadata>
						<metadata>
							<storage>QuickTime</storage>
							<key>com.apple.finalcutstudio.media.uuid</key>
							<size>36</size>
							<type>UTF8</type>
							<value>B92FD17B-ACBF-47A8-A701-809451DA5C7A</value>
						</metadata>
						<metadata>
							<storage>QuickTime</storage>
							<key>com.apple.quicktime.model</key>
							<size>13</size>
							<type>UTF8</type>
							<value>MacBookAir3,1</value>
						</metadata>
						<metadata>
							<storage>QuickTime</storage>
							<key>com.apple.proapps.numberOfAudioChannels</key>
							<size>4</size>
							<type>signed</type>
							<value>1</value>
						</metadata>
						<metadata>
							<storage>QuickTime</storage>
							<key>com.apple.proapps.clipID</key>
							<size>91</size>
							<type>UTF8</type>
							<value>3557ac8802757634d608aed60ba58d694581cbb7_/DCIM/100APPLE/IMG_0026.MOV_432052214_IMG_0026.MOV</value>
						</metadata>
						<timecode>
							<rate>
								<timebase>30</timebase>
							</rate>
							<string>00:00:23:19</string>
							<frame>709</frame>
							<displayformat>NDF</displayformat>
							<source>source</source>
						</timecode>
						<media>
							<video>
								<duration>7213</duration>
								<samplecharacteristics>
									<width>1280</width>
									<height>720</height>
								</samplecharacteristics>
							</video>
							<audio>
								<samplecharacteristics>
									<samplerate>48000</samplerate>
									<depth>16</depth>
								</samplecharacteristics>
								<channelcount>1</channelcount>
								<layout>mono</layout>
								<audiochannel>
									<sourcechannel>1</sourcechannel>
									<channellabel>discrete</channellabel>
								</audiochannel>
							</audio>
							<audio>
								<samplecharacteristics>
									<samplerate>48000</samplerate>
									<depth>16</depth>
								</samplecharacteristics>
								<channelcount>1</channelcount>
								<layout>mono</layout>
								<audiochannel>
									<sourcechannel>2</sourcechannel>
									<channellabel>discrete</channellabel>
								</audiochannel>
							</audio>
						</media>
					</file>
					<sourcetrack>
						<mediatype>video</mediatype>
					</sourcetrack>
					<fielddominance>none</fielddominance>
					<itemhistory>
						<uuid>FEBAD692-D913-4A7D-A8D2-36CC54E7D404</uuid>
						<uuid>07394629-158A-426A-97DA-EB4A8C54A334</uuid>
					</itemhistory>
				</clipitem>
				<enabled>FALSE</enabled>
				<locked>FALSE</locked>
			</track>
			<track>
				<clipitem id="JonWills026 ">
					<name>JonWills026</name>
					<duration>372</duration>
					<rate>
						<ntsc>FALSE</ntsc>
						<timebase>25</timebase>
					</rate>
					<in>0</in>
					<out>372</out>
					<start>11537</start>
					<end>11909</end>
					<pixelaspectratio>Square</pixelaspectratio>
					<enabled>TRUE</enabled>
					<anamorphic>FALSE</anamorphic>
					<alphatype>none</alphatype>
					<logginginfo>
						<scene/>
						<shottake/>
						<lognote/>
						<good>FALSE</good>
					</logginginfo>
					<labels>
						<label2/>
					</labels>
					<comments>
						<mastercomment1/>
						<mastercomment2/>
						<mastercomment3/>
						<mastercomment4/>
					</comments>
					<file id="JonWills026 1">
						<name>JonWills026</name>
						<pathurl>file://localhost/Volumes/Michael's%20Passport/woodbdrigenov2011media/JonWills026</pathurl>
						<rate>
							<timebase>25</timebase>
						</rate>
						<duration>372</duration>
						<metadata>
							<storage>QuickTime</storage>
							<key>com.apple.finalcutstudio.media.uuid</key>
							<size>36</size>
							<type>UTF8</type>
							<value>F943CE96-A099-4C7F-8E33-503ECDAC669A</value>
						</metadata>
						<metadata>
							<storage>QuickTime</storage>
							<key>com.apple.finalcutstudio.media.history.uuid</key>
							<size>36</size>
							<type>UTF8</type>
							<value>EE396BD0-7169-41EC-AE53-3AD1C2483D06</value>
						</metadata>
						<timecode>
							<rate>
								<timebase>25</timebase>
							</rate>
							<string>00:00:00:00</string>
							<frame>0</frame>
							<displayformat>NDF</displayformat>
							<source>source</source>
							<reel>
								<name>JonWills</name>
							</reel>
						</timecode>
						<media>
							<video>
								<duration>372</duration>
								<samplecharacteristics>
									<width>1280</width>
									<height>720</height>
								</samplecharacteristics>
							</video>
							<audio>
								<samplecharacteristics>
									<samplerate>48000</samplerate>
									<depth>16</depth>
								</samplecharacteristics>
								<channelcount>2</channelcount>
								<layout>stereo</layout>
								<audiochannel>
									<sourcechannel>1</sourcechannel>
									<channellabel>left</channellabel>
								</audiochannel>
								<audiochannel>
									<sourcechannel>2</sourcechannel>
									<channellabel>right</channellabel>
								</audiochannel>
							</audio>
						</media>
					</file>
					<sourcetrack>
						<mediatype>video</mediatype>
					</sourcetrack>
					<link>
						<linkclipref>JonWills026 </linkclipref>
						<mediatype>video</mediatype>
						<trackindex>12</trackindex>
						<clipindex>1</clipindex>
					</link>
					<link>
						<linkclipref>JonWills026 2</linkclipref>
						<mediatype>audio</mediatype>
						<trackindex>23</trackindex>
						<clipindex>1</clipindex>
						<groupindex>1</groupindex>
					</link>
					<link>
						<linkclipref>JonWills026 3</linkclipref>
						<mediatype>audio</mediatype>
						<trackindex>24</trackindex>
						<clipindex>1</clipindex>
						<groupindex>1</groupindex>
					</link>
					<fielddominance>none</fielddominance>
					<itemhistory>
						<uuid>F609DA58-3DB6-4448-AFB5-424014C847A4</uuid>
						<uuid>B564C8AA-0118-4531-8EF9-C794FAB3C243</uuid>
					</itemhistory>
				</clipitem>
				<clipitem id="JonWills027 ">
					<name>JonWills027</name>
					<duration>336</duration>
					<rate>
						<ntsc>FALSE</ntsc>
						<timebase>25</timebase>
					</rate>
					<in>0</in>
					<out>335</out>
					<start>15172</start>
					<end>15507</end>
					<pixelaspectratio>Square</pixelaspectratio>
					<enabled>TRUE</enabled>
					<anamorphic>FALSE</anamorphic>
					<alphatype>none</alphatype>
					<logginginfo>
						<scene/>
						<shottake/>
						<lognote/>
						<good>FALSE</good>
					</logginginfo>
					<labels>
						<label2/>
					</labels>
					<comments>
						<mastercomment1/>
						<mastercomment2/>
						<mastercomment3/>
						<mastercomment4/>
					</comments>
					<file id="JonWills027 1">
						<name>JonWills027</name>
						<pathurl>file://localhost/Volumes/Michael's%20Passport/woodbdrigenov2011media/JonWills027</pathurl>
						<rate>
							<timebase>25</timebase>
						</rate>
						<duration>336</duration>
						<metadata>
							<storage>QuickTime</storage>
							<key>com.apple.finalcutstudio.media.uuid</key>
							<size>36</size>
							<type>UTF8</type>
							<value>92FC94F5-0DD8-4BEB-9797-9925FF1C36D4</value>
						</metadata>
						<metadata>
							<storage>QuickTime</storage>
							<key>com.apple.finalcutstudio.media.history.uuid</key>
							<size>36</size>
							<type>UTF8</type>
							<value>AC758EF0-973A-47B2-8022-1661A2233D83</value>
						</metadata>
						<timecode>
							<rate>
								<timebase>25</timebase>
							</rate>
							<string>00:00:00:00</string>
							<frame>0</frame>
							<displayformat>NDF</displayformat>
							<source>source</source>
							<reel>
								<name>JonWills</name>
							</reel>
						</timecode>
						<media>
							<video>
								<duration>336</duration>
								<samplecharacteristics>
									<width>1280</width>
									<height>720</height>
								</samplecharacteristics>
							</video>
							<audio>
								<samplecharacteristics>
									<samplerate>48000</samplerate>
									<depth>16</depth>
								</samplecharacteristics>
								<channelcount>2</channelcount>
								<layout>stereo</layout>
								<audiochannel>
									<sourcechannel>1</sourcechannel>
									<channellabel>left</channellabel>
								</audiochannel>
								<audiochannel>
									<sourcechannel>2</sourcechannel>
									<channellabel>right</channellabel>
								</audiochannel>
							</audio>
						</media>
					</file>
					<sourcetrack>
						<mediatype>video</mediatype>
					</sourcetrack>
					<fielddominance>none</fielddominance>
					<itemhistory>
						<uuid>ABACBBAF-57E0-4524-8114-39E84721FFC9</uuid>
						<uuid>594C43ED-7B53-4E20-B9F0-9AA6AD2842FC</uuid>
					</itemhistory>
				</clipitem>
				<clipitem id="JonWills028Subclipa">
					<name>JonWills028Subclipa</name>
					<duration>843</duration>
					<rate>
						<ntsc>FALSE</ntsc>
						<timebase>25</timebase>
					</rate>
					<in>0</in>
					<out>843</out>
					<start>18479</start>
					<end>19322</end>
					<pixelaspectratio>Square</pixelaspectratio>
					<anamorphic>FALSE</anamorphic>
					<alphatype>none</alphatype>
					<logginginfo>
						<scene/>
						<shottake/>
						<lognote/>
						<good>FALSE</good>
					</logginginfo>
					<labels>
						<label2/>
					</labels>
					<comments>
						<mastercomment1/>
						<mastercomment2/>
						<mastercomment3/>
						<mastercomment4/>
					</comments>
					<file id="JonWills028Subclipa1">
						<name>JonWills028Subclipa</name>
						<pathurl>file://localhost/Volumes/Michael's%20Passport/woodbdrigenov2011media/JonWills028Subclipa</pathurl>
						<rate>
							<timebase>25</timebase>
						</rate>
						<duration>843</duration>
						<metadata>
							<storage>QuickTime</storage>
							<key>com.apple.finalcutstudio.media.uuid</key>
							<size>36</size>
							<type>UTF8</type>
							<value>79F699B7-D766-4971-9DB9-B4B58FBD9DFE</value>
						</metadata>
						<metadata>
							<storage>QuickTime</storage>
							<key>com.apple.finalcutstudio.media.history.uuid</key>
							<size>36</size>
							<type>UTF8</type>
							<value>3FFE7695-3230-4FC7-AD3D-415750C24DF6</value>
						</metadata>
						<timecode>
							<rate>
								<timebase>25</timebase>
							</rate>
							<string>00:00:00:00</string>
							<frame>0</frame>
							<displayformat>NDF</displayformat>
							<source>source</source>
							<reel>
								<name>JonWills</name>
							</reel>
						</timecode>
						<media>
							<video>
								<duration>843</duration>
								<samplecharacteristics>
									<width>1280</width>
									<height>720</height>
								</samplecharacteristics>
							</video>
							<audio>
								<samplecharacteristics>
									<samplerate>48000</samplerate>
									<depth>16</depth>
								</samplecharacteristics>
								<channelcount>2</channelcount>
								<layout>stereo</layout>
								<audiochannel>
									<sourcechannel>1</sourcechannel>
									<channellabel>left</channellabel>
								</audiochannel>
								<audiochannel>
									<sourcechannel>2</sourcechannel>
									<channellabel>right</channellabel>
								</audiochannel>
							</audio>
						</media>
					</file>
					<sourcetrack>
						<mediatype>video</mediatype>
					</sourcetrack>
					<fielddominance>none</fielddominance>
					<itemhistory>
						<uuid>81F99C9B-8E91-4F94-B95E-962BDD3626E1</uuid>
						<uuid>E1C0DC14-4E87-433F-A4EA-2172CE8E1F46</uuid>
					</itemhistory>
				</clipitem>
				<clipitem id="JonWills028Subclipb">
					<name>JonWills028Subclipb</name>
					<duration>1317</duration>
					<rate>
						<ntsc>FALSE</ntsc>
						<timebase>25</timebase>
					</rate>
					<in>0</in>
					<out>1316</out>
					<start>19322</start>
					<end>20638</end>
					<pixelaspectratio>Square</pixelaspectratio>
					<anamorphic>FALSE</anamorphic>
					<alphatype>none</alphatype>
					<logginginfo>
						<scene/>
						<shottake/>
						<lognote/>
						<good>FALSE</good>
					</logginginfo>
					<labels>
						<label2/>
					</labels>
					<comments>
						<mastercomment1/>
						<mastercomment2/>
						<mastercomment3/>
						<mastercomment4/>
					</comments>
					<file id="JonWills028Subclipb1">
						<name>JonWills028Subclipb</name>
						<pathurl>file://localhost/Volumes/Michael's%20Passport/woodbdrigenov2011media/JonWills028Subclipb</pathurl>
						<rate>
							<timebase>25</timebase>
						</rate>
						<duration>1317</duration>
						<metadata>
							<storage>QuickTime</storage>
							<key>com.apple.finalcutstudio.media.uuid</key>
							<size>36</size>
							<type>UTF8</type>
							<value>5C33C7F4-B79D-43B4-957D-72A7E289F39E</value>
						</metadata>
						<metadata>
							<storage>QuickTime</storage>
							<key>com.apple.finalcutstudio.media.history.uuid</key>
							<size>36</size>
							<type>UTF8</type>
							<value>3FFE7695-3230-4FC7-AD3D-415750C24DF6</value>
						</metadata>
						<timecode>
							<rate>
								<timebase>25</timebase>
							</rate>
							<string>00:00:33:18</string>
							<frame>843</frame>
							<displayformat>NDF</displayformat>
							<source>source</source>
							<reel>
								<name>JonWills</name>
							</reel>
						</timecode>
						<media>
							<video>
								<duration>1317</duration>
								<samplecharacteristics>
									<width>1280</width>
									<height>720</height>
								</samplecharacteristics>
							</video>
							<audio>
								<samplecharacteristics>
									<samplerate>48000</samplerate>
									<depth>16</depth>
								</samplecharacteristics>
								<channelcount>2</channelcount>
								<layout>stereo</layout>
								<audiochannel>
									<sourcechannel>1</sourcechannel>
									<channellabel>left</channellabel>
								</audiochannel>
								<audiochannel>
									<sourcechannel>2</sourcechannel>
									<channellabel>right</channellabel>
								</audiochannel>
							</audio>
						</media>
					</file>
					<sourcetrack>
						<mediatype>video</mediatype>
					</sourcetrack>
					<fielddominance>none</fielddominance>
					<itemhistory>
						<uuid>56810D1E-F3F8-4819-AFCF-340C4C5BA713</uuid>
						<uuid>6E22867C-42EB-4363-AA20-D21B5DB1D826</uuid>
					</itemhistory>
				</clipitem>
				<clipitem id="JonWills029 ">
					<name>JonWills029</name>
					<duration>2592</duration>
					<rate>
						<ntsc>FALSE</ntsc>
						<timebase>25</timebase>
					</rate>
					<in>0</in>
					<out>2592</out>
					<start>20953</start>
					<end>23545</end>
					<pixelaspectratio>Square</pixelaspectratio>
					<anamorphic>FALSE</anamorphic>
					<alphatype>none</alphatype>
					<logginginfo>
						<scene/>
						<shottake/>
						<lognote/>
						<good>FALSE</good>
					</logginginfo>
					<labels>
						<label2/>
					</labels>
					<comments>
						<mastercomment1/>
						<mastercomment2/>
						<mastercomment3/>
						<mastercomment4/>
					</comments>
					<file id="JonWills029 1">
						<name>JonWills029</name>
						<pathurl>file://localhost/Volumes/Michael's%20Passport/woodbdrigenov2011media/JonWills029</pathurl>
						<rate>
							<timebase>25</timebase>
						</rate>
						<duration>2592</duration>
						<metadata>
							<storage>QuickTime</storage>
							<key>com.apple.finalcutstudio.media.uuid</key>
							<size>36</size>
							<type>UTF8</type>
							<value>27ADC6A8-45A9-4078-A386-5F5DC0E139D4</value>
						</metadata>
						<metadata>
							<storage>QuickTime</storage>
							<key>com.apple.finalcutstudio.media.history.uuid</key>
							<size>36</size>
							<type>UTF8</type>
							<value>68B15C2F-B7AC-42CA-B6FC-06348290E7C5</value>
						</metadata>
						<timecode>
							<rate>
								<timebase>25</timebase>
							</rate>
							<string>00:00:00:00</string>
							<frame>0</frame>
							<displayformat>NDF</displayformat>
							<source>source</source>
							<reel>
								<name>JonWills</name>
							</reel>
						</timecode>
						<media>
							<video>
								<duration>2592</duration>
								<samplecharacteristics>
									<width>1280</width>
									<height>720</height>
								</samplecharacteristics>
							</video>
							<audio>
								<samplecharacteristics>
									<samplerate>48000</samplerate>
									<depth>16</depth>
								</samplecharacteristics>
								<channelcount>2</channelcount>
								<layout>stereo</layout>
								<audiochannel>
									<sourcechannel>1</sourcechannel>
									<channellabel>left</channellabel>
								</audiochannel>
								<audiochannel>
									<sourcechannel>2</sourcechannel>
									<channellabel>right</channellabel>
								</audiochannel>
							</audio>
						</media>
					</file>
					<sourcetrack>
						<mediatype>video</mediatype>
					</sourcetrack>
					<fielddominance>none</fielddominance>
					<itemhistory>
						<uuid>24608AA4-12ED-43C0-8999-B34B552498C7</uuid>
						<uuid>AE0CB454-C5CF-435E-8D9E-E2AAB1A0CF2C</uuid>
					</itemhistory>
				</clipitem>
				<clipitem id="JonWills030 ">
					<name>JonWills030</name>
					<duration>1860</duration>
					<rate>
						<ntsc>FALSE</ntsc>
						<timebase>25</timebase>
					</rate>
					<in>0</in>
					<out>1860</out>
					<start>23906</start>
					<end>25766</end>
					<pixelaspectratio>Square</pixelaspectratio>
					<anamorphic>FALSE</anamorphic>
					<alphatype>none</alphatype>
					<logginginfo>
						<scene/>
						<shottake/>
						<lognote/>
						<good>FALSE</good>
					</logginginfo>
					<labels>
						<label2/>
					</labels>
					<comments>
						<mastercomment1/>
						<mastercomment2/>
						<mastercomment3/>
						<mastercomment4/>
					</comments>
					<file id="JonWills030 1">
						<name>JonWills030</name>
						<pathurl>file://localhost/Volumes/Michael's%20Passport/woodbdrigenov2011media/JonWills030</pathurl>
						<rate>
							<timebase>25</timebase>
						</rate>
						<duration>1860</duration>
						<metadata>
							<storage>QuickTime</storage>
							<key>com.apple.finalcutstudio.media.uuid</key>
							<size>36</size>
							<type>UTF8</type>
							<value>DB0F246F-449C-428B-AD81-0A85AF64CDD0</value>
						</metadata>
						<metadata>
							<storage>QuickTime</storage>
							<key>com.apple.finalcutstudio.media.history.uuid</key>
							<size>36</size>
							<type>UTF8</type>
							<value>7DABAE99-F825-4F19-9626-5D47740AE426</value>
						</metadata>
						<timecode>
							<rate>
								<timebase>25</timebase>
							</rate>
							<string>00:00:00:00</string>
							<frame>0</frame>
							<displayformat>NDF</displayformat>
							<source>source</source>
							<reel>
								<name>JonWills</name>
							</reel>
						</timecode>
						<media>
							<video>
								<duration>1860</duration>
								<samplecharacteristics>
									<width>1280</width>
									<height>720</height>
								</samplecharacteristics>
							</video>
							<audio>
								<samplecharacteristics>
									<samplerate>48000</samplerate>
									<depth>16</depth>
								</samplecharacteristics>
								<channelcount>2</channelcount>
								<layout>stereo</layout>
								<audiochannel>
									<sourcechannel>1</sourcechannel>
									<channellabel>left</channellabel>
								</audiochannel>
								<audiochannel>
									<sourcechannel>2</sourcechannel>
									<channellabel>right</channellabel>
								</audiochannel>
							</audio>
						</media>
					</file>
					<sourcetrack>
						<mediatype>video</mediatype>
					</sourcetrack>
					<fielddominance>none</fielddominance>
					<itemhistory>
						<uuid>58A4599E-8777-450B-BECE-704E55CB3077</uuid>
						<uuid>49081493-8144-4295-9169-9931F831954A</uuid>
					</itemhistory>
				</clipitem>
				<clipitem id="JonWills031Subclipa">
					<name>JonWills031Subclipa</name>
					<duration>639</duration>
					<rate>
						<ntsc>FALSE</ntsc>
						<timebase>25</timebase>
					</rate>
					<in>0</in>
					<out>638</out>
					<start>25875</start>
					<end>26513</end>
					<pixelaspectratio>Square</pixelaspectratio>
					<anamorphic>FALSE</anamorphic>
					<alphatype>none</alphatype>
					<logginginfo>
						<scene/>
						<shottake/>
						<lognote/>
						<good>FALSE</good>
					</logginginfo>
					<labels>
						<label2/>
					</labels>
					<comments>
						<mastercomment1/>
						<mastercomment2/>
						<mastercomment3/>
						<mastercomment4/>
					</comments>
					<file id="JonWills031Subclipa1">
						<name>JonWills031Subclipa</name>
						<pathurl>file://localhost/Volumes/Michael's%20Passport/woodbdrigenov2011media/JonWills031Subclipa</pathurl>
						<rate>
							<timebase>25</timebase>
						</rate>
						<duration>639</duration>
						<metadata>
							<storage>QuickTime</storage>
							<key>com.apple.finalcutstudio.media.uuid</key>
							<size>36</size>
							<type>UTF8</type>
							<value>3A667248-183F-4538-A656-64CA50A4B8AE</value>
						</metadata>
						<metadata>
							<storage>QuickTime</storage>
							<key>com.apple.finalcutstudio.media.history.uuid</key>
							<size>36</size>
							<type>UTF8</type>
							<value>58D17C55-98A7-4377-9CDB-AF2EF9EA225E</value>
						</metadata>
						<timecode>
							<rate>
								<timebase>25</timebase>
							</rate>
							<string>00:00:00:00</string>
							<frame>0</frame>
							<displayformat>NDF</displayformat>
							<source>source</source>
							<reel>
								<name>JonWills</name>
							</reel>
						</timecode>
						<media>
							<video>
								<duration>639</duration>
								<samplecharacteristics>
									<width>1280</width>
									<height>720</height>
								</samplecharacteristics>
							</video>
							<audio>
								<samplecharacteristics>
									<samplerate>48000</samplerate>
									<depth>16</depth>
								</samplecharacteristics>
								<channelcount>2</channelcount>
								<layout>stereo</layout>
								<audiochannel>
									<sourcechannel>1</sourcechannel>
									<channellabel>left</channellabel>
								</audiochannel>
								<audiochannel>
									<sourcechannel>2</sourcechannel>
									<channellabel>right</channellabel>
								</audiochannel>
							</audio>
						</media>
					</file>
					<sourcetrack>
						<mediatype>video</mediatype>
					</sourcetrack>
					<fielddominance>none</fielddominance>
					<itemhistory>
						<uuid>DB7E8A0C-0F42-4EFA-A05C-5D4A0D6CFC25</uuid>
						<uuid>85240DCB-85F9-46ED-A95B-946EED1D7517</uuid>
					</itemhistory>
				</clipitem>
				<clipitem id="JonWills032 ">
					<name>JonWills032</name>
					<duration>924</duration>
					<rate>
						<ntsc>FALSE</ntsc>
						<timebase>25</timebase>
					</rate>
					<in>0</in>
					<out>923</out>
					<start>26709</start>
					<end>27632</end>
					<pixelaspectratio>Square</pixelaspectratio>
					<anamorphic>FALSE</anamorphic>
					<alphatype>none</alphatype>
					<logginginfo>
						<scene/>
						<shottake/>
						<lognote/>
						<good>FALSE</good>
					</logginginfo>
					<labels>
						<label2/>
					</labels>
					<comments>
						<mastercomment1/>
						<mastercomment2/>
						<mastercomment3/>
						<mastercomment4/>
					</comments>
					<file id="JonWills032 1">
						<name>JonWills032</name>
						<pathurl>file://localhost/Volumes/Michael's%20Passport/woodbdrigenov2011media/JonWills032</pathurl>
						<rate>
							<timebase>25</timebase>
						</rate>
						<duration>924</duration>
						<metadata>
							<storage>QuickTime</storage>
							<key>com.apple.finalcutstudio.media.uuid</key>
							<size>36</size>
							<type>UTF8</type>
							<value>20D96E6F-634B-429C-B7BD-02328BD8904E</value>
						</metadata>
						<metadata>
							<storage>QuickTime</storage>
							<key>com.apple.finalcutstudio.media.history.uuid</key>
							<size>36</size>
							<type>UTF8</type>
							<value>C24038BC-D6A1-45EC-B57C-362A78BD7D11</value>
						</metadata>
						<timecode>
							<rate>
								<timebase>25</timebase>
							</rate>
							<string>00:00:00:00</string>
							<frame>0</frame>
							<displayformat>NDF</displayformat>
							<source>source</source>
							<reel>
								<name>JonWills</name>
							</reel>
						</timecode>
						<media>
							<video>
								<duration>924</duration>
								<samplecharacteristics>
									<width>1280</width>
									<height>720</height>
								</samplecharacteristics>
							</video>
							<audio>
								<samplecharacteristics>
									<samplerate>48000</samplerate>
									<depth>16</depth>
								</samplecharacteristics>
								<channelcount>2</channelcount>
								<layout>stereo</layout>
								<audiochannel>
									<sourcechannel>1</sourcechannel>
									<channellabel>left</channellabel>
								</audiochannel>
								<audiochannel>
									<sourcechannel>2</sourcechannel>
									<channellabel>right</channellabel>
								</audiochannel>
							</audio>
						</media>
					</file>
					<sourcetrack>
						<mediatype>video</mediatype>
					</sourcetrack>
					<fielddominance>none</fielddominance>
					<itemhistory>
						<uuid>7D1FC597-5182-4C5F-AD80-AB634FFACF5B</uuid>
						<uuid>B6964BFD-0505-437D-98EB-8051A9DD2361</uuid>
					</itemhistory>
				</clipitem>
				<clipitem id="JonWills033 ">
					<name>JonWills033</name>
					<duration>948</duration>
					<rate>
						<ntsc>FALSE</ntsc>
						<timebase>25</timebase>
					</rate>
					<in>0</in>
					<out>948</out>
					<start>27741</start>
					<end>28689</end>
					<pixelaspectratio>Square</pixelaspectratio>
					<anamorphic>FALSE</anamorphic>
					<alphatype>none</alphatype>
					<logginginfo>
						<scene/>
						<shottake/>
						<lognote/>
						<good>FALSE</good>
					</logginginfo>
					<labels>
						<label2/>
					</labels>
					<comments>
						<mastercomment1/>
						<mastercomment2/>
						<mastercomment3/>
						<mastercomment4/>
					</comments>
					<file id="JonWills033 1">
						<name>JonWills033</name>
						<pathurl>file://localhost/Volumes/Michael's%20Passport/woodbdrigenov2011media/JonWills033</pathurl>
						<rate>
							<timebase>25</timebase>
						</rate>
						<duration>948</duration>
						<metadata>
							<storage>QuickTime</storage>
							<key>com.apple.finalcutstudio.media.uuid</key>
							<size>36</size>
							<type>UTF8</type>
							<value>255C5F6C-8CBE-4A09-B155-F1C406934B09</value>
						</metadata>
						<metadata>
							<storage>QuickTime</storage>
							<key>com.apple.finalcutstudio.media.history.uuid</key>
							<size>36</size>
							<type>UTF8</type>
							<value>77CF5545-34B8-4600-8BD5-06865A3C7167</value>
						</metadata>
						<timecode>
							<rate>
								<timebase>25</timebase>
							</rate>
							<string>00:00:00:00</string>
							<frame>0</frame>
							<displayformat>NDF</displayformat>
							<source>source</source>
							<reel>
								<name>JonWills</name>
							</reel>
						</timecode>
						<media>
							<video>
								<duration>948</duration>
								<samplecharacteristics>
									<width>1280</width>
									<height>720</height>
								</samplecharacteristics>
							</video>
							<audio>
								<samplecharacteristics>
									<samplerate>48000</samplerate>
									<depth>16</depth>
								</samplecharacteristics>
								<channelcount>2</channelcount>
								<layout>stereo</layout>
								<audiochannel>
									<sourcechannel>1</sourcechannel>
									<channellabel>left</channellabel>
								</audiochannel>
								<audiochannel>
									<sourcechannel>2</sourcechannel>
									<channellabel>right</channellabel>
								</audiochannel>
							</audio>
						</media>
					</file>
					<sourcetrack>
						<mediatype>video</mediatype>
					</sourcetrack>
					<fielddominance>none</fielddominance>
					<itemhistory>
						<uuid>83C4FB5D-E95A-4E97-83FE-9CCDB06321BA</uuid>
						<uuid>95D7B35F-E3EE-40CD-A00F-D8A1CEDFB841</uuid>
					</itemhistory>
				</clipitem>
				<clipitem id="JonWills034Subclipa">
					<name>JonWills034Subclipa</name>
					<duration>1618</duration>
					<rate>
						<ntsc>FALSE</ntsc>
						<timebase>25</timebase>
					</rate>
					<in>0</in>
					<out>1618</out>
					<start>29648</start>
					<end>31266</end>
					<pixelaspectratio>Square</pixelaspectratio>
					<anamorphic>FALSE</anamorphic>
					<alphatype>none</alphatype>
					<logginginfo>
						<scene/>
						<shottake/>
						<lognote/>
						<good>FALSE</good>
					</logginginfo>
					<labels>
						<label2/>
					</labels>
					<comments>
						<mastercomment1/>
						<mastercomment2/>
						<mastercomment3/>
						<mastercomment4/>
					</comments>
					<file id="JonWills034Subclipa1">
						<name>JonWills034Subclipa</name>
						<pathurl>file://localhost/Volumes/Michael's%20Passport/woodbdrigenov2011media/JonWills034Subclipa</pathurl>
						<rate>
							<timebase>25</timebase>
						</rate>
						<duration>1618</duration>
						<metadata>
							<storage>QuickTime</storage>
							<key>com.apple.finalcutstudio.media.uuid</key>
							<size>36</size>
							<type>UTF8</type>
							<value>A02C5B5E-97E3-4F92-B34B-60E59F43FD33</value>
						</metadata>
						<metadata>
							<storage>QuickTime</storage>
							<key>com.apple.finalcutstudio.media.history.uuid</key>
							<size>36</size>
							<type>UTF8</type>
							<value>8903212F-B101-4762-878B-756EB4BB37C3</value>
						</metadata>
						<timecode>
							<rate>
								<timebase>25</timebase>
							</rate>
							<string>00:00:00:00</string>
							<frame>0</frame>
							<displayformat>NDF</displayformat>
							<source>source</source>
							<reel>
								<name>JonWills</name>
							</reel>
						</timecode>
						<media>
							<video>
								<duration>1618</duration>
								<samplecharacteristics>
									<width>1280</width>
									<height>720</height>
								</samplecharacteristics>
							</video>
							<audio>
								<samplecharacteristics>
									<samplerate>48000</samplerate>
									<depth>16</depth>
								</samplecharacteristics>
								<channelcount>2</channelcount>
								<layout>stereo</layout>
								<audiochannel>
									<sourcechannel>1</sourcechannel>
									<channellabel>left</channellabel>
								</audiochannel>
								<audiochannel>
									<sourcechannel>2</sourcechannel>
									<channellabel>right</channellabel>
								</audiochannel>
							</audio>
						</media>
					</file>
					<sourcetrack>
						<mediatype>video</mediatype>
					</sourcetrack>
					<fielddominance>none</fielddominance>
					<itemhistory>
						<uuid>23ADF037-81E9-4FBC-BEE1-8CE43B4E1380</uuid>
						<uuid>2947C27E-C7F4-4320-93A4-1D97F098663C</uuid>
					</itemhistory>
				</clipitem>
				<clipitem id="JonWills034Subclipb">
					<name>JonWills034Subclipb</name>
					<duration>391</duration>
					<rate>
						<ntsc>FALSE</ntsc>
						<timebase>25</timebase>
					</rate>
					<in>0</in>
					<out>390</out>
					<start>31268</start>
					<end>31658</end>
					<pixelaspectratio>Square</pixelaspectratio>
					<anamorphic>FALSE</anamorphic>
					<alphatype>none</alphatype>
					<logginginfo>
						<scene/>
						<shottake/>
						<lognote/>
						<good>FALSE</good>
					</logginginfo>
					<labels>
						<label2/>
					</labels>
					<comments>
						<mastercomment1/>
						<mastercomment2/>
						<mastercomment3/>
						<mastercomment4/>
					</comments>
					<file id="JonWills034Subclipb1">
						<name>JonWills034Subclipb</name>
						<pathurl>file://localhost/Volumes/Michael's%20Passport/woodbdrigenov2011media/JonWills034Subclipb</pathurl>
						<rate>
							<timebase>25</timebase>
						</rate>
						<duration>391</duration>
						<metadata>
							<storage>QuickTime</storage>
							<key>com.apple.finalcutstudio.media.uuid</key>
							<size>36</size>
							<type>UTF8</type>
							<value>70DA6694-2AB8-4BD0-BB8D-8B7E0507DA67</value>
						</metadata>
						<metadata>
							<storage>QuickTime</storage>
							<key>com.apple.finalcutstudio.media.history.uuid</key>
							<size>36</size>
							<type>UTF8</type>
							<value>8903212F-B101-4762-878B-756EB4BB37C3</value>
						</metadata>
						<timecode>
							<rate>
								<timebase>25</timebase>
							</rate>
							<string>00:01:04:18</string>
							<frame>1618</frame>
							<displayformat>NDF</displayformat>
							<source>source</source>
							<reel>
								<name>JonWills</name>
							</reel>
						</timecode>
						<media>
							<video>
								<duration>391</duration>
								<samplecharacteristics>
									<width>1280</width>
									<height>720</height>
								</samplecharacteristics>
							</video>
							<audio>
								<samplecharacteristics>
									<samplerate>48000</samplerate>
									<depth>16</depth>
								</samplecharacteristics>
								<channelcount>2</channelcount>
								<layout>stereo</layout>
								<audiochannel>
									<sourcechannel>1</sourcechannel>
									<channellabel>left</channellabel>
								</audiochannel>
								<audiochannel>
									<sourcechannel>2</sourcechannel>
									<channellabel>right</channellabel>
								</audiochannel>
							</audio>
						</media>
					</file>
					<sourcetrack>
						<mediatype>video</mediatype>
					</sourcetrack>
					<fielddominance>none</fielddominance>
					<itemhistory>
						<uuid>A7172761-FB3B-49FB-BF90-695BF5DE4CAF</uuid>
						<uuid>F247DE3F-3F0A-4841-B40A-44089D571834</uuid>
					</itemhistory>
				</clipitem>
				<clipitem id="JonWills034Subclipc">
					<name>JonWills034Subclipc</name>
					<duration>928</duration>
					<rate>
						<ntsc>FALSE</ntsc>
						<timebase>25</timebase>
					</rate>
					<in>0</in>
					<out>928</out>
					<start>31710</start>
					<end>32638</end>
					<pixelaspectratio>Square</pixelaspectratio>
					<anamorphic>FALSE</anamorphic>
					<alphatype>none</alphatype>
					<logginginfo>
						<scene/>
						<shottake/>
						<lognote/>
						<good>FALSE</good>
					</logginginfo>
					<labels>
						<label2/>
					</labels>
					<comments>
						<mastercomment1/>
						<mastercomment2/>
						<mastercomment3/>
						<mastercomment4/>
					</comments>
					<file id="JonWills034Subclipc1">
						<name>JonWills034Subclipc</name>
						<pathurl>file://localhost/Volumes/Michael's%20Passport/woodbdrigenov2011media/JonWills034Subclipc</pathurl>
						<rate>
							<timebase>25</timebase>
						</rate>
						<duration>928</duration>
						<metadata>
							<storage>QuickTime</storage>
							<key>com.apple.finalcutstudio.media.uuid</key>
							<size>36</size>
							<type>UTF8</type>
							<value>DC7384DD-870A-4CA5-8D5D-5B72C393A574</value>
						</metadata>
						<metadata>
							<storage>QuickTime</storage>
							<key>com.apple.finalcutstudio.media.history.uuid</key>
							<size>36</size>
							<type>UTF8</type>
							<value>8903212F-B101-4762-878B-756EB4BB37C3</value>
						</metadata>
						<timecode>
							<rate>
								<timebase>25</timebase>
							</rate>
							<string>00:01:22:10</string>
							<frame>2060</frame>
							<displayformat>NDF</displayformat>
							<source>source</source>
							<reel>
								<name>JonWills</name>
							</reel>
						</timecode>
						<media>
							<video>
								<duration>928</duration>
								<samplecharacteristics>
									<width>1280</width>
									<height>720</height>
								</samplecharacteristics>
							</video>
							<audio>
								<samplecharacteristics>
									<samplerate>48000</samplerate>
									<depth>16</depth>
								</samplecharacteristics>
								<channelcount>2</channelcount>
								<layout>stereo</layout>
								<audiochannel>
									<sourcechannel>1</sourcechannel>
									<channellabel>left</channellabel>
								</audiochannel>
								<audiochannel>
									<sourcechannel>2</sourcechannel>
									<channellabel>right</channellabel>
								</audiochannel>
							</audio>
						</media>
					</file>
					<sourcetrack>
						<mediatype>video</mediatype>
					</sourcetrack>
					<fielddominance>none</fielddominance>
					<itemhistory>
						<uuid>7933EF39-2576-474F-926E-259F24BDF320</uuid>
						<uuid>1D35E883-26A7-4CAB-B996-3821AF1832B0</uuid>
					</itemhistory>
				</clipitem>
				<clipitem id="JonWills035Subclipa">
					<name>JonWills035Subclipa</name>
					<duration>639</duration>
					<rate>
						<ntsc>FALSE</ntsc>
						<timebase>25</timebase>
					</rate>
					<in>0</in>
					<out>638</out>
					<start>32720</start>
					<end>33358</end>
					<pixelaspectratio>Square</pixelaspectratio>
					<anamorphic>FALSE</anamorphic>
					<alphatype>none</alphatype>
					<logginginfo>
						<scene/>
						<shottake/>
						<lognote/>
						<good>FALSE</good>
					</logginginfo>
					<labels>
						<label2/>
					</labels>
					<comments>
						<mastercomment1/>
						<mastercomment2/>
						<mastercomment3/>
						<mastercomment4/>
					</comments>
					<file id="JonWills035Subclipa1">
						<name>JonWills035Subclipa</name>
						<pathurl>file://localhost/Volumes/Michael's%20Passport/woodbdrigenov2011media/JonWills035Subclipa</pathurl>
						<rate>
							<timebase>25</timebase>
						</rate>
						<duration>639</duration>
						<metadata>
							<storage>QuickTime</storage>
							<key>com.apple.finalcutstudio.media.uuid</key>
							<size>36</size>
							<type>UTF8</type>
							<value>91CA8149-2DB6-428A-A986-8A0FE9B77451</value>
						</metadata>
						<metadata>
							<storage>QuickTime</storage>
							<key>com.apple.finalcutstudio.media.history.uuid</key>
							<size>36</size>
							<type>UTF8</type>
							<value>1D5E996F-C00C-4254-92B9-CE5477237DD9</value>
						</metadata>
						<timecode>
							<rate>
								<timebase>25</timebase>
							</rate>
							<string>00:00:00:00</string>
							<frame>0</frame>
							<displayformat>NDF</displayformat>
							<source>source</source>
							<reel>
								<name>JonWills</name>
							</reel>
						</timecode>
						<media>
							<video>
								<duration>639</duration>
								<samplecharacteristics>
									<width>1280</width>
									<height>720</height>
								</samplecharacteristics>
							</video>
							<audio>
								<samplecharacteristics>
									<samplerate>48000</samplerate>
									<depth>16</depth>
								</samplecharacteristics>
								<channelcount>2</channelcount>
								<layout>stereo</layout>
								<audiochannel>
									<sourcechannel>1</sourcechannel>
									<channellabel>left</channellabel>
								</audiochannel>
								<audiochannel>
									<sourcechannel>2</sourcechannel>
									<channellabel>right</channellabel>
								</audiochannel>
							</audio>
						</media>
					</file>
					<sourcetrack>
						<mediatype>video</mediatype>
					</sourcetrack>
					<fielddominance>none</fielddominance>
					<itemhistory>
						<uuid>B8D74788-4ABB-40B5-A0B3-2B196CAC8729</uuid>
						<uuid>DAEC6D7C-E7B0-49B4-B929-EE8A3FDC7492</uuid>
					</itemhistory>
				</clipitem>
				<clipitem id="JonWills035Subclipb">
					<name>JonWills035Subclipb</name>
					<duration>227</duration>
					<rate>
						<ntsc>FALSE</ntsc>
						<timebase>25</timebase>
					</rate>
					<in>0</in>
					<out>227</out>
					<start>33393</start>
					<end>33620</end>
					<pixelaspectratio>Square</pixelaspectratio>
					<anamorphic>FALSE</anamorphic>
					<alphatype>none</alphatype>
					<logginginfo>
						<scene/>
						<shottake/>
						<lognote/>
						<good>FALSE</good>
					</logginginfo>
					<labels>
						<label2/>
					</labels>
					<comments>
						<mastercomment1/>
						<mastercomment2/>
						<mastercomment3/>
						<mastercomment4/>
					</comments>
					<file id="JonWills035Subclipb1">
						<name>JonWills035Subclipb</name>
						<pathurl>file://localhost/Volumes/Michael's%20Passport/woodbdrigenov2011media/JonWills035Subclipb</pathurl>
						<rate>
							<timebase>25</timebase>
						</rate>
						<duration>227</duration>
						<metadata>
							<storage>QuickTime</storage>
							<key>com.apple.finalcutstudio.media.uuid</key>
							<size>36</size>
							<type>UTF8</type>
							<value>F927DA6C-795D-4201-963D-FEC64F3B5299</value>
						</metadata>
						<metadata>
							<storage>QuickTime</storage>
							<key>com.apple.finalcutstudio.media.history.uuid</key>
							<size>36</size>
							<type>UTF8</type>
							<value>1D5E996F-C00C-4254-92B9-CE5477237DD9</value>
						</metadata>
						<timecode>
							<rate>
								<timebase>25</timebase>
							</rate>
							<string>00:00:26:23</string>
							<frame>673</frame>
							<displayformat>NDF</displayformat>
							<source>source</source>
							<reel>
								<name>JonWills</name>
							</reel>
						</timecode>
						<media>
							<video>
								<duration>227</duration>
								<samplecharacteristics>
									<width>1280</width>
									<height>720</height>
								</samplecharacteristics>
							</video>
							<audio>
								<samplecharacteristics>
									<samplerate>48000</samplerate>
									<depth>16</depth>
								</samplecharacteristics>
								<channelcount>2</channelcount>
								<layout>stereo</layout>
								<audiochannel>
									<sourcechannel>1</sourcechannel>
									<channellabel>left</channellabel>
								</audiochannel>
								<audiochannel>
									<sourcechannel>2</sourcechannel>
									<channellabel>right</channellabel>
								</audiochannel>
							</audio>
						</media>
					</file>
					<sourcetrack>
						<mediatype>video</mediatype>
					</sourcetrack>
					<fielddominance>none</fielddominance>
					<itemhistory>
						<uuid>92D2A246-8361-4160-BEEA-17C8543E2F23</uuid>
						<uuid>A350478E-A7E7-401B-8029-925BCC731DB4</uuid>
					</itemhistory>
				</clipitem>
				<clipitem id="JonWills036 ">
					<name>JonWills036</name>
					<duration>240</duration>
					<rate>
						<ntsc>FALSE</ntsc>
						<timebase>25</timebase>
					</rate>
					<in>0</in>
					<out>240</out>
					<start>33794</start>
					<end>34034</end>
					<pixelaspectratio>Square</pixelaspectratio>
					<anamorphic>FALSE</anamorphic>
					<alphatype>none</alphatype>
					<logginginfo>
						<scene/>
						<shottake/>
						<lognote/>
						<good>FALSE</good>
					</logginginfo>
					<labels>
						<label2/>
					</labels>
					<comments>
						<mastercomment1/>
						<mastercomment2/>
						<mastercomment3/>
						<mastercomment4/>
					</comments>
					<file id="JonWills036 1">
						<name>JonWills036</name>
						<pathurl>file://localhost/Volumes/Michael's%20Passport/woodbdrigenov2011media/JonWills036</pathurl>
						<rate>
							<timebase>25</timebase>
						</rate>
						<duration>240</duration>
						<metadata>
							<storage>QuickTime</storage>
							<key>com.apple.finalcutstudio.media.uuid</key>
							<size>36</size>
							<type>UTF8</type>
							<value>5D984E6F-0313-4943-95DA-21742451BA53</value>
						</metadata>
						<metadata>
							<storage>QuickTime</storage>
							<key>com.apple.finalcutstudio.media.history.uuid</key>
							<size>36</size>
							<type>UTF8</type>
							<value>98305AA5-7584-4107-96F6-E98BDFDDFF06</value>
						</metadata>
						<timecode>
							<rate>
								<timebase>25</timebase>
							</rate>
							<string>00:00:00:00</string>
							<frame>0</frame>
							<displayformat>NDF</displayformat>
							<source>source</source>
							<reel>
								<name>JonWills</name>
							</reel>
						</timecode>
						<media>
							<video>
								<duration>240</duration>
								<samplecharacteristics>
									<width>1280</width>
									<height>720</height>
								</samplecharacteristics>
							</video>
							<audio>
								<samplecharacteristics>
									<samplerate>48000</samplerate>
									<depth>16</depth>
								</samplecharacteristics>
								<channelcount>2</channelcount>
								<layout>stereo</layout>
								<audiochannel>
									<sourcechannel>1</sourcechannel>
									<channellabel>left</channellabel>
								</audiochannel>
								<audiochannel>
									<sourcechannel>2</sourcechannel>
									<channellabel>right</channellabel>
								</audiochannel>
							</audio>
						</media>
					</file>
					<sourcetrack>
						<mediatype>video</mediatype>
					</sourcetrack>
					<fielddominance>none</fielddominance>
					<itemhistory>
						<uuid>9EAA7149-42B1-4BCB-BE43-F1D03F09A508</uuid>
						<uuid>558A6355-31D5-450B-86C0-33C28E924156</uuid>
					</itemhistory>
				</clipitem>
				<clipitem id="JonWills037Subclipa">
					<name>JonWills037Subclipa</name>
					<duration>978</duration>
					<rate>
						<ntsc>FALSE</ntsc>
						<timebase>25</timebase>
					</rate>
					<in>0</in>
					<out>977</out>
					<start>34255</start>
					<end>35232</end>
					<pixelaspectratio>Square</pixelaspectratio>
					<anamorphic>FALSE</anamorphic>
					<alphatype>none</alphatype>
					<logginginfo>
						<scene/>
						<shottake/>
						<lognote/>
						<good>FALSE</good>
					</logginginfo>
					<labels>
						<label2/>
					</labels>
					<comments>
						<mastercomment1/>
						<mastercomment2/>
						<mastercomment3/>
						<mastercomment4/>
					</comments>
					<file id="JonWills037Subclipa1">
						<name>JonWills037Subclipa</name>
						<pathurl>file://localhost/Volumes/Michael's%20Passport/woodbdrigenov2011media/JonWills037Subclipa</pathurl>
						<rate>
							<timebase>25</timebase>
						</rate>
						<duration>978</duration>
						<metadata>
							<storage>QuickTime</storage>
							<key>com.apple.finalcutstudio.media.uuid</key>
							<size>36</size>
							<type>UTF8</type>
							<value>6FD4A2E6-A368-4D10-B236-6DDD0DC26AF1</value>
						</metadata>
						<metadata>
							<storage>QuickTime</storage>
							<key>com.apple.finalcutstudio.media.history.uuid</key>
							<size>36</size>
							<type>UTF8</type>
							<value>6D1E8D24-D307-4421-99E7-140F27DDBA66</value>
						</metadata>
						<timecode>
							<rate>
								<timebase>25</timebase>
							</rate>
							<string>00:00:00:00</string>
							<frame>0</frame>
							<displayformat>NDF</displayformat>
							<source>source</source>
							<reel>
								<name>JonWills</name>
							</reel>
						</timecode>
						<media>
							<video>
								<duration>978</duration>
								<samplecharacteristics>
									<width>1280</width>
									<height>720</height>
								</samplecharacteristics>
							</video>
							<audio>
								<samplecharacteristics>
									<samplerate>48000</samplerate>
									<depth>16</depth>
								</samplecharacteristics>
								<channelcount>2</channelcount>
								<layout>stereo</layout>
								<audiochannel>
									<sourcechannel>1</sourcechannel>
									<channellabel>left</channellabel>
								</audiochannel>
								<audiochannel>
									<sourcechannel>2</sourcechannel>
									<channellabel>right</channellabel>
								</audiochannel>
							</audio>
						</media>
					</file>
					<sourcetrack>
						<mediatype>video</mediatype>
					</sourcetrack>
					<fielddominance>none</fielddominance>
					<itemhistory>
						<uuid>3ED63AE6-BF7D-4826-BBDE-291EEEF9C181</uuid>
						<uuid>1783404A-810C-4A37-8496-C50F7C3F733D</uuid>
					</itemhistory>
				</clipitem>
				<clipitem id="JonWills037Subclipb">
					<name>JonWills037Subclipb</name>
					<duration>1573</duration>
					<rate>
						<ntsc>FALSE</ntsc>
						<timebase>25</timebase>
					</rate>
					<in>0</in>
					<out>1572</out>
					<start>35322</start>
					<end>36894</end>
					<pixelaspectratio>Square</pixelaspectratio>
					<anamorphic>FALSE</anamorphic>
					<alphatype>none</alphatype>
					<logginginfo>
						<scene/>
						<shottake/>
						<lognote/>
						<good>FALSE</good>
					</logginginfo>
					<labels>
						<label2/>
					</labels>
					<comments>
						<mastercomment1/>
						<mastercomment2/>
						<mastercomment3/>
						<mastercomment4/>
					</comments>
					<file id="JonWills037Subclipb1">
						<name>JonWills037Subclipb</name>
						<pathurl>file://localhost/Volumes/Michael's%20Passport/woodbdrigenov2011media/JonWills037Subclipb</pathurl>
						<rate>
							<timebase>25</timebase>
						</rate>
						<duration>1573</duration>
						<metadata>
							<storage>QuickTime</storage>
							<key>com.apple.finalcutstudio.media.uuid</key>
							<size>36</size>
							<type>UTF8</type>
							<value>E7EFD42B-F7F7-4F9A-8B8A-45AAC48C43B5</value>
						</metadata>
						<metadata>
							<storage>QuickTime</storage>
							<key>com.apple.finalcutstudio.media.history.uuid</key>
							<size>36</size>
							<type>UTF8</type>
							<value>6D1E8D24-D307-4421-99E7-140F27DDBA66</value>
						</metadata>
						<timecode>
							<rate>
								<timebase>25</timebase>
							</rate>
							<string>00:00:42:17</string>
							<frame>1067</frame>
							<displayformat>NDF</displayformat>
							<source>source</source>
							<reel>
								<name>JonWills</name>
							</reel>
						</timecode>
						<media>
							<video>
								<duration>1573</duration>
								<samplecharacteristics>
									<width>1280</width>
									<height>720</height>
								</samplecharacteristics>
							</video>
							<audio>
								<samplecharacteristics>
									<samplerate>48000</samplerate>
									<depth>16</depth>
								</samplecharacteristics>
								<channelcount>2</channelcount>
								<layout>stereo</layout>
								<audiochannel>
									<sourcechannel>1</sourcechannel>
									<channellabel>left</channellabel>
								</audiochannel>
								<audiochannel>
									<sourcechannel>2</sourcechannel>
									<channellabel>right</channellabel>
								</audiochannel>
							</audio>
						</media>
					</file>
					<sourcetrack>
						<mediatype>video</mediatype>
					</sourcetrack>
					<fielddominance>none</fielddominance>
					<itemhistory>
						<uuid>F5795ABD-4869-482D-8275-D36A7AF240D8</uuid>
						<uuid>24F20AD4-F354-4B18-97DE-B3CB3A874330</uuid>
					</itemhistory>
				</clipitem>
				<clipitem id="JonWills038 ">
					<name>JonWills038</name>
					<duration>348</duration>
					<rate>
						<ntsc>FALSE</ntsc>
						<timebase>25</timebase>
					</rate>
					<in>0</in>
					<out>348</out>
					<start>37095</start>
					<end>37443</end>
					<pixelaspectratio>Square</pixelaspectratio>
					<anamorphic>FALSE</anamorphic>
					<alphatype>none</alphatype>
					<logginginfo>
						<scene/>
						<shottake/>
						<lognote/>
						<good>FALSE</good>
					</logginginfo>
					<labels>
						<label2/>
					</labels>
					<comments>
						<mastercomment1/>
						<mastercomment2/>
						<mastercomment3/>
						<mastercomment4/>
					</comments>
					<file id="JonWills038 1">
						<name>JonWills038</name>
						<pathurl>file://localhost/Volumes/Michael's%20Passport/woodbdrigenov2011media/JonWills038</pathurl>
						<rate>
							<timebase>25</timebase>
						</rate>
						<duration>348</duration>
						<metadata>
							<storage>QuickTime</storage>
							<key>com.apple.finalcutstudio.media.uuid</key>
							<size>36</size>
							<type>UTF8</type>
							<value>ACB87AC2-1CBB-4A57-A0FE-44F78F74C468</value>
						</metadata>
						<metadata>
							<storage>QuickTime</storage>
							<key>com.apple.finalcutstudio.media.history.uuid</key>
							<size>36</size>
							<type>UTF8</type>
							<value>BB949334-8380-49AB-AE4C-92D4F00655B5</value>
						</metadata>
						<timecode>
							<rate>
								<timebase>25</timebase>
							</rate>
							<string>00:00:00:00</string>
							<frame>0</frame>
							<displayformat>NDF</displayformat>
							<source>source</source>
							<reel>
								<name>JonWills</name>
							</reel>
						</timecode>
						<media>
							<video>
								<duration>348</duration>
								<samplecharacteristics>
									<width>1280</width>
									<height>720</height>
								</samplecharacteristics>
							</video>
							<audio>
								<samplecharacteristics>
									<samplerate>48000</samplerate>
									<depth>16</depth>
								</samplecharacteristics>
								<channelcount>2</channelcount>
								<layout>stereo</layout>
								<audiochannel>
									<sourcechannel>1</sourcechannel>
									<channellabel>left</channellabel>
								</audiochannel>
								<audiochannel>
									<sourcechannel>2</sourcechannel>
									<channellabel>right</channellabel>
								</audiochannel>
							</audio>
						</media>
					</file>
					<sourcetrack>
						<mediatype>video</mediatype>
					</sourcetrack>
					<fielddominance>none</fielddominance>
					<itemhistory>
						<uuid>F238F4BE-2FE5-4722-8DB6-59E7F84758D4</uuid>
						<uuid>E1831CE9-2F64-42B8-81CF-A2B28E22EF9D</uuid>
					</itemhistory>
				</clipitem>
				<clipitem id="JonWills039 ">
					<name>JonWills039</name>
					<duration>1068</duration>
					<rate>
						<ntsc>FALSE</ntsc>
						<timebase>25</timebase>
					</rate>
					<in>0</in>
					<out>1067</out>
					<start>37613</start>
					<end>38680</end>
					<pixelaspectratio>Square</pixelaspectratio>
					<anamorphic>FALSE</anamorphic>
					<alphatype>none</alphatype>
					<logginginfo>
						<scene/>
						<shottake/>
						<lognote/>
						<good>FALSE</good>
					</logginginfo>
					<labels>
						<label2/>
					</labels>
					<comments>
						<mastercomment1/>
						<mastercomment2/>
						<mastercomment3/>
						<mastercomment4/>
					</comments>
					<file id="JonWills039 1">
						<name>JonWills039</name>
						<pathurl>file://localhost/Volumes/Michael's%20Passport/woodbdrigenov2011media/JonWills039</pathurl>
						<rate>
							<timebase>25</timebase>
						</rate>
						<duration>1068</duration>
						<metadata>
							<storage>QuickTime</storage>
							<key>com.apple.finalcutstudio.media.uuid</key>
							<size>36</size>
							<type>UTF8</type>
							<value>8B7F7652-E15F-48CF-BDD5-21A4752934F1</value>
						</metadata>
						<metadata>
							<storage>QuickTime</storage>
							<key>com.apple.finalcutstudio.media.history.uuid</key>
							<size>36</size>
							<type>UTF8</type>
							<value>7EFE3C5A-1F71-4BF3-BEB9-D0A3EFFAEBDB</value>
						</metadata>
						<timecode>
							<rate>
								<timebase>25</timebase>
							</rate>
							<string>00:00:00:00</string>
							<frame>0</frame>
							<displayformat>NDF</displayformat>
							<source>source</source>
							<reel>
								<name>JonWills</name>
							</reel>
						</timecode>
						<media>
							<video>
								<duration>1068</duration>
								<samplecharacteristics>
									<width>1280</width>
									<height>720</height>
								</samplecharacteristics>
							</video>
							<audio>
								<samplecharacteristics>
									<samplerate>48000</samplerate>
									<depth>16</depth>
								</samplecharacteristics>
								<channelcount>2</channelcount>
								<layout>stereo</layout>
								<audiochannel>
									<sourcechannel>1</sourcechannel>
									<channellabel>left</channellabel>
								</audiochannel>
								<audiochannel>
									<sourcechannel>2</sourcechannel>
									<channellabel>right</channellabel>
								</audiochannel>
							</audio>
						</media>
					</file>
					<sourcetrack>
						<mediatype>video</mediatype>
					</sourcetrack>
					<fielddominance>none</fielddominance>
					<itemhistory>
						<uuid>16D917F5-5DAC-45A8-B8E9-D7D7CFADAF03</uuid>
						<uuid>90C2E016-F270-4169-9AB3-AE5F32BF4812</uuid>
					</itemhistory>
				</clipitem>
				<clipitem id="JonWills040Subclipa">
					<name>JonWills040Subclipa</name>
					<duration>505</duration>
					<rate>
						<ntsc>FALSE</ntsc>
						<timebase>25</timebase>
					</rate>
					<in>0</in>
					<out>504</out>
					<start>38982</start>
					<end>39486</end>
					<pixelaspectratio>Square</pixelaspectratio>
					<anamorphic>FALSE</anamorphic>
					<alphatype>none</alphatype>
					<logginginfo>
						<scene/>
						<shottake/>
						<lognote/>
						<good>FALSE</good>
					</logginginfo>
					<labels>
						<label2/>
					</labels>
					<comments>
						<mastercomment1/>
						<mastercomment2/>
						<mastercomment3/>
						<mastercomment4/>
					</comments>
					<file id="JonWills040Subclipa1">
						<name>JonWills040Subclipa</name>
						<pathurl>file://localhost/Volumes/Michael's%20Passport/woodbdrigenov2011media/JonWills040Subclipa</pathurl>
						<rate>
							<timebase>25</timebase>
						</rate>
						<duration>505</duration>
						<metadata>
							<storage>QuickTime</storage>
							<key>com.apple.finalcutstudio.media.uuid</key>
							<size>36</size>
							<type>UTF8</type>
							<value>C8074201-FF59-43F3-9B62-2C59556B7612</value>
						</metadata>
						<metadata>
							<storage>QuickTime</storage>
							<key>com.apple.finalcutstudio.media.history.uuid</key>
							<size>36</size>
							<type>UTF8</type>
							<value>CA955123-674D-45A5-97EE-04D4194547C4</value>
						</metadata>
						<timecode>
							<rate>
								<timebase>25</timebase>
							</rate>
							<string>00:00:00:00</string>
							<frame>0</frame>
							<displayformat>NDF</displayformat>
							<source>source</source>
							<reel>
								<name>JonWills</name>
							</reel>
						</timecode>
						<media>
							<video>
								<duration>505</duration>
								<samplecharacteristics>
									<width>1280</width>
									<height>720</height>
								</samplecharacteristics>
							</video>
							<audio>
								<samplecharacteristics>
									<samplerate>48000</samplerate>
									<depth>16</depth>
								</samplecharacteristics>
								<channelcount>2</channelcount>
								<layout>stereo</layout>
								<audiochannel>
									<sourcechannel>1</sourcechannel>
									<channellabel>left</channellabel>
								</audiochannel>
								<audiochannel>
									<sourcechannel>2</sourcechannel>
									<channellabel>right</channellabel>
								</audiochannel>
							</audio>
						</media>
					</file>
					<sourcetrack>
						<mediatype>video</mediatype>
					</sourcetrack>
					<fielddominance>none</fielddominance>
					<itemhistory>
						<uuid>6B98BCD7-AB8E-42EE-9EDD-0514B7F3FA32</uuid>
						<uuid>54359E7A-0C8C-4433-A936-454A0C72A0D8</uuid>
					</itemhistory>
				</clipitem>
				<clipitem id="JonWills040Subclipb">
					<name>JonWills040Subclipb</name>
					<duration>995</duration>
					<rate>
						<ntsc>FALSE</ntsc>
						<timebase>25</timebase>
					</rate>
					<in>0</in>
					<out>995</out>
					<start>39487</start>
					<end>40482</end>
					<pixelaspectratio>Square</pixelaspectratio>
					<anamorphic>FALSE</anamorphic>
					<alphatype>none</alphatype>
					<logginginfo>
						<scene/>
						<shottake/>
						<lognote/>
						<good>FALSE</good>
					</logginginfo>
					<labels>
						<label2/>
					</labels>
					<comments>
						<mastercomment1/>
						<mastercomment2/>
						<mastercomment3/>
						<mastercomment4/>
					</comments>
					<file id="JonWills040Subclipb1">
						<name>JonWills040Subclipb</name>
						<pathurl>file://localhost/Volumes/Michael's%20Passport/woodbdrigenov2011media/JonWills040Subclipb</pathurl>
						<rate>
							<timebase>25</timebase>
						</rate>
						<duration>995</duration>
						<metadata>
							<storage>QuickTime</storage>
							<key>com.apple.finalcutstudio.media.uuid</key>
							<size>36</size>
							<type>UTF8</type>
							<value>AD47718D-93B5-4810-921B-0727C68EB8DE</value>
						</metadata>
						<metadata>
							<storage>QuickTime</storage>
							<key>com.apple.finalcutstudio.media.history.uuid</key>
							<size>36</size>
							<type>UTF8</type>
							<value>CA955123-674D-45A5-97EE-04D4194547C4</value>
						</metadata>
						<timecode>
							<rate>
								<timebase>25</timebase>
							</rate>
							<string>00:00:20:05</string>
							<frame>505</frame>
							<displayformat>NDF</displayformat>
							<source>source</source>
							<reel>
								<name>JonWills</name>
							</reel>
						</timecode>
						<media>
							<video>
								<duration>995</duration>
								<samplecharacteristics>
									<width>1280</width>
									<height>720</height>
								</samplecharacteristics>
							</video>
							<audio>
								<samplecharacteristics>
									<samplerate>48000</samplerate>
									<depth>16</depth>
								</samplecharacteristics>
								<channelcount>2</channelcount>
								<layout>stereo</layout>
								<audiochannel>
									<sourcechannel>1</sourcechannel>
									<channellabel>left</channellabel>
								</audiochannel>
								<audiochannel>
									<sourcechannel>2</sourcechannel>
									<channellabel>right</channellabel>
								</audiochannel>
							</audio>
						</media>
					</file>
					<sourcetrack>
						<mediatype>video</mediatype>
					</sourcetrack>
					<fielddominance>none</fielddominance>
					<itemhistory>
						<uuid>16D30BEF-7381-4EBE-A2AD-07C18FE712A7</uuid>
						<uuid>9D96BD39-F9DE-46DA-9119-16BA3D49F978</uuid>
					</itemhistory>
				</clipitem>
				<clipitem id="JonWills042Subclipa">
					<name>JonWills042Subclipa</name>
					<duration>630</duration>
					<rate>
						<ntsc>FALSE</ntsc>
						<timebase>25</timebase>
					</rate>
					<in>0</in>
					<out>630</out>
					<start>41041</start>
					<end>41671</end>
					<pixelaspectratio>Square</pixelaspectratio>
					<anamorphic>FALSE</anamorphic>
					<alphatype>none</alphatype>
					<logginginfo>
						<scene/>
						<shottake/>
						<lognote/>
						<good>FALSE</good>
					</logginginfo>
					<labels>
						<label2/>
					</labels>
					<comments>
						<mastercomment1/>
						<mastercomment2/>
						<mastercomment3/>
						<mastercomment4/>
					</comments>
					<file id="JonWills042Subclipa1">
						<name>JonWills042Subclipa</name>
						<pathurl>file://localhost/Volumes/Michael's%20Passport/woodbdrigenov2011media/JonWills042Subclipa</pathurl>
						<rate>
							<timebase>25</timebase>
						</rate>
						<duration>630</duration>
						<metadata>
							<storage>QuickTime</storage>
							<key>com.apple.finalcutstudio.media.uuid</key>
							<size>36</size>
							<type>UTF8</type>
							<value>618B1CB7-7AA9-4B52-B2AB-49AFB42BEE8F</value>
						</metadata>
						<metadata>
							<storage>QuickTime</storage>
							<key>com.apple.finalcutstudio.media.history.uuid</key>
							<size>36</size>
							<type>UTF8</type>
							<value>A1D97F65-0B45-46E3-BD61-FB4FB922C9E0</value>
						</metadata>
						<timecode>
							<rate>
								<timebase>25</timebase>
							</rate>
							<string>00:00:00:00</string>
							<frame>0</frame>
							<displayformat>NDF</displayformat>
							<source>source</source>
							<reel>
								<name>JonWills</name>
							</reel>
						</timecode>
						<media>
							<video>
								<duration>630</duration>
								<samplecharacteristics>
									<width>1280</width>
									<height>720</height>
								</samplecharacteristics>
							</video>
							<audio>
								<samplecharacteristics>
									<samplerate>48000</samplerate>
									<depth>16</depth>
								</samplecharacteristics>
								<channelcount>2</channelcount>
								<layout>stereo</layout>
								<audiochannel>
									<sourcechannel>1</sourcechannel>
									<channellabel>left</channellabel>
								</audiochannel>
								<audiochannel>
									<sourcechannel>2</sourcechannel>
									<channellabel>right</channellabel>
								</audiochannel>
							</audio>
						</media>
					</file>
					<sourcetrack>
						<mediatype>video</mediatype>
					</sourcetrack>
					<fielddominance>none</fielddominance>
					<itemhistory>
						<uuid>15FF6D56-A833-47B3-8D70-8108239A1DC5</uuid>
						<uuid>14071404-385B-4DAB-89F4-2919EB640345</uuid>
					</itemhistory>
				</clipitem>
				<clipitem id="JonWills042Subclipb">
					<name>JonWills042Subclipb</name>
					<duration>706</duration>
					<rate>
						<ntsc>FALSE</ntsc>
						<timebase>25</timebase>
					</rate>
					<in>0</in>
					<out>706</out>
					<start>41723</start>
					<end>42429</end>
					<pixelaspectratio>Square</pixelaspectratio>
					<anamorphic>FALSE</anamorphic>
					<alphatype>none</alphatype>
					<logginginfo>
						<scene/>
						<shottake/>
						<lognote/>
						<good>FALSE</good>
					</logginginfo>
					<labels>
						<label2/>
					</labels>
					<comments>
						<mastercomment1/>
						<mastercomment2/>
						<mastercomment3/>
						<mastercomment4/>
					</comments>
					<file id="JonWills042Subclipb1">
						<name>JonWills042Subclipb</name>
						<pathurl>file://localhost/Volumes/Michael's%20Passport/woodbdrigenov2011media/JonWills042Subclipb</pathurl>
						<rate>
							<timebase>25</timebase>
						</rate>
						<duration>706</duration>
						<metadata>
							<storage>QuickTime</storage>
							<key>com.apple.finalcutstudio.media.uuid</key>
							<size>36</size>
							<type>UTF8</type>
							<value>2FC696A6-811A-4EA7-B562-5526F15FE507</value>
						</metadata>
						<metadata>
							<storage>QuickTime</storage>
							<key>com.apple.finalcutstudio.media.history.uuid</key>
							<size>36</size>
							<type>UTF8</type>
							<value>A1D97F65-0B45-46E3-BD61-FB4FB922C9E0</value>
						</metadata>
						<timecode>
							<rate>
								<timebase>25</timebase>
							</rate>
							<string>00:00:27:07</string>
							<frame>682</frame>
							<displayformat>NDF</displayformat>
							<source>source</source>
							<reel>
								<name>JonWills</name>
							</reel>
						</timecode>
						<media>
							<video>
								<duration>706</duration>
								<samplecharacteristics>
									<width>1280</width>
									<height>720</height>
								</samplecharacteristics>
							</video>
							<audio>
								<samplecharacteristics>
									<samplerate>48000</samplerate>
									<depth>16</depth>
								</samplecharacteristics>
								<channelcount>2</channelcount>
								<layout>stereo</layout>
								<audiochannel>
									<sourcechannel>1</sourcechannel>
									<channellabel>left</channellabel>
								</audiochannel>
								<audiochannel>
									<sourcechannel>2</sourcechannel>
									<channellabel>right</channellabel>
								</audiochannel>
							</audio>
						</media>
					</file>
					<sourcetrack>
						<mediatype>video</mediatype>
					</sourcetrack>
					<fielddominance>none</fielddominance>
					<itemhistory>
						<uuid>C465021F-5AC9-45E7-876C-8BB574AF4A62</uuid>
						<uuid>C16EA379-69E1-4415-A07E-814618AC1EA1</uuid>
					</itemhistory>
				</clipitem>
				<clipitem id="JonWills042Subclipc">
					<name>JonWills042Subclipc</name>
					<duration>958</duration>
					<rate>
						<ntsc>FALSE</ntsc>
						<timebase>25</timebase>
					</rate>
					<in>0</in>
					<out>958</out>
					<start>42580</start>
					<end>43538</end>
					<pixelaspectratio>Square</pixelaspectratio>
					<anamorphic>FALSE</anamorphic>
					<alphatype>none</alphatype>
					<logginginfo>
						<scene/>
						<shottake/>
						<lognote/>
						<good>FALSE</good>
					</logginginfo>
					<labels>
						<label2/>
					</labels>
					<comments>
						<mastercomment1/>
						<mastercomment2/>
						<mastercomment3/>
						<mastercomment4/>
					</comments>
					<file id="JonWills042Subclipc1">
						<name>JonWills042Subclipc</name>
						<pathurl>file://localhost/Volumes/Michael's%20Passport/woodbdrigenov2011media/JonWills042Subclipc</pathurl>
						<rate>
							<timebase>25</timebase>
						</rate>
						<duration>958</duration>
						<metadata>
							<storage>QuickTime</storage>
							<key>com.apple.finalcutstudio.media.uuid</key>
							<size>36</size>
							<type>UTF8</type>
							<value>603BAF11-0CC6-4454-97B4-0F5796B38BE2</value>
						</metadata>
						<metadata>
							<storage>QuickTime</storage>
							<key>com.apple.finalcutstudio.media.history.uuid</key>
							<size>36</size>
							<type>UTF8</type>
							<value>A1D97F65-0B45-46E3-BD61-FB4FB922C9E0</value>
						</metadata>
						<timecode>
							<rate>
								<timebase>25</timebase>
							</rate>
							<string>00:01:01:14</string>
							<frame>1539</frame>
							<displayformat>NDF</displayformat>
							<source>source</source>
							<reel>
								<name>JonWills</name>
							</reel>
						</timecode>
						<media>
							<video>
								<duration>958</duration>
								<samplecharacteristics>
									<width>1280</width>
									<height>720</height>
								</samplecharacteristics>
							</video>
							<audio>
								<samplecharacteristics>
									<samplerate>48000</samplerate>
									<depth>16</depth>
								</samplecharacteristics>
								<channelcount>2</channelcount>
								<layout>stereo</layout>
								<audiochannel>
									<sourcechannel>1</sourcechannel>
									<channellabel>left</channellabel>
								</audiochannel>
								<audiochannel>
									<sourcechannel>2</sourcechannel>
									<channellabel>right</channellabel>
								</audiochannel>
							</audio>
						</media>
					</file>
					<sourcetrack>
						<mediatype>video</mediatype>
					</sourcetrack>
					<fielddominance>none</fielddominance>
					<itemhistory>
						<uuid>2716B740-94A7-4C12-804A-A8E7B7C09EBC</uuid>
						<uuid>2DF1E7FC-33FD-4E30-8DE5-17EBFCB1C8C8</uuid>
					</itemhistory>
				</clipitem>
				<clipitem id="JonWills042Subclipd">
					<name>JonWills042Subclipd</name>
					<duration>888</duration>
					<rate>
						<ntsc>FALSE</ntsc>
						<timebase>25</timebase>
					</rate>
					<in>0</in>
					<out>887</out>
					<start>43789</start>
					<end>44676</end>
					<pixelaspectratio>Square</pixelaspectratio>
					<anamorphic>FALSE</anamorphic>
					<alphatype>none</alphatype>
					<logginginfo>
						<scene/>
						<shottake/>
						<lognote/>
						<good>FALSE</good>
					</logginginfo>
					<labels>
						<label2/>
					</labels>
					<comments>
						<mastercomment1/>
						<mastercomment2/>
						<mastercomment3/>
						<mastercomment4/>
					</comments>
					<file id="JonWills042Subclipd1">
						<name>JonWills042Subclipd</name>
						<pathurl>file://localhost/Volumes/Michael's%20Passport/woodbdrigenov2011media/JonWills042Subclipd</pathurl>
						<rate>
							<timebase>25</timebase>
						</rate>
						<duration>888</duration>
						<metadata>
							<storage>QuickTime</storage>
							<key>com.apple.finalcutstudio.media.uuid</key>
							<size>36</size>
							<type>UTF8</type>
							<value>136D5279-99C3-4193-9811-7EE4F7416BB9</value>
						</metadata>
						<metadata>
							<storage>QuickTime</storage>
							<key>com.apple.finalcutstudio.media.history.uuid</key>
							<size>36</size>
							<type>UTF8</type>
							<value>A1D97F65-0B45-46E3-BD61-FB4FB922C9E0</value>
						</metadata>
						<timecode>
							<rate>
								<timebase>25</timebase>
							</rate>
							<string>00:01:49:23</string>
							<frame>2748</frame>
							<displayformat>NDF</displayformat>
							<source>source</source>
							<reel>
								<name>JonWills</name>
							</reel>
						</timecode>
						<media>
							<video>
								<duration>888</duration>
								<samplecharacteristics>
									<width>1280</width>
									<height>720</height>
								</samplecharacteristics>
							</video>
							<audio>
								<samplecharacteristics>
									<samplerate>48000</samplerate>
									<depth>16</depth>
								</samplecharacteristics>
								<channelcount>2</channelcount>
								<layout>stereo</layout>
								<audiochannel>
									<sourcechannel>1</sourcechannel>
									<channellabel>left</channellabel>
								</audiochannel>
								<audiochannel>
									<sourcechannel>2</sourcechannel>
									<channellabel>right</channellabel>
								</audiochannel>
							</audio>
						</media>
					</file>
					<sourcetrack>
						<mediatype>video</mediatype>
					</sourcetrack>
					<fielddominance>none</fielddominance>
					<itemhistory>
						<uuid>E78D6116-88FE-4F25-B94B-FAE5F93BD30F</uuid>
						<uuid>999DBEB2-B3A2-4F59-807F-F1816464D998</uuid>
					</itemhistory>
				</clipitem>
				<clipitem id="JonWills043Subclipa">
					<name>JonWills043Subclipa</name>
					<duration>544</duration>
					<rate>
						<ntsc>FALSE</ntsc>
						<timebase>25</timebase>
					</rate>
					<in>0</in>
					<out>544</out>
					<start>45315</start>
					<end>45859</end>
					<pixelaspectratio>Square</pixelaspectratio>
					<anamorphic>FALSE</anamorphic>
					<alphatype>none</alphatype>
					<logginginfo>
						<scene/>
						<shottake/>
						<lognote/>
						<good>FALSE</good>
					</logginginfo>
					<labels>
						<label2/>
					</labels>
					<comments>
						<mastercomment1/>
						<mastercomment2/>
						<mastercomment3/>
						<mastercomment4/>
					</comments>
					<file id="JonWills043Subclipa1">
						<name>JonWills043Subclipa</name>
						<pathurl>file://localhost/Volumes/Michael's%20Passport/woodbdrigenov2011media/JonWills043Subclipa</pathurl>
						<rate>
							<timebase>25</timebase>
						</rate>
						<duration>544</duration>
						<metadata>
							<storage>QuickTime</storage>
							<key>com.apple.finalcutstudio.media.uuid</key>
							<size>36</size>
							<type>UTF8</type>
							<value>623D462D-E86E-40E8-A42E-80309F27E496</value>
						</metadata>
						<metadata>
							<storage>QuickTime</storage>
							<key>com.apple.finalcutstudio.media.history.uuid</key>
							<size>36</size>
							<type>UTF8</type>
							<value>F91005F2-059D-4C96-A399-16ED466A898F</value>
						</metadata>
						<timecode>
							<rate>
								<timebase>25</timebase>
							</rate>
							<string>00:00:00:00</string>
							<frame>0</frame>
							<displayformat>NDF</displayformat>
							<source>source</source>
							<reel>
								<name>JonWills</name>
							</reel>
						</timecode>
						<media>
							<video>
								<duration>544</duration>
								<samplecharacteristics>
									<width>1280</width>
									<height>720</height>
								</samplecharacteristics>
							</video>
							<audio>
								<samplecharacteristics>
									<samplerate>48000</samplerate>
									<depth>16</depth>
								</samplecharacteristics>
								<channelcount>2</channelcount>
								<layout>stereo</layout>
								<audiochannel>
									<sourcechannel>1</sourcechannel>
									<channellabel>left</channellabel>
								</audiochannel>
								<audiochannel>
									<sourcechannel>2</sourcechannel>
									<channellabel>right</channellabel>
								</audiochannel>
							</audio>
						</media>
					</file>
					<sourcetrack>
						<mediatype>video</mediatype>
					</sourcetrack>
					<fielddominance>none</fielddominance>
					<itemhistory>
						<uuid>0AEDF33F-3880-462C-AA34-4CF49F9DA195</uuid>
						<uuid>60EF43E2-D312-4946-A170-6C60930B993E</uuid>
					</itemhistory>
				</clipitem>
				<clipitem id="JonWills043Subclipb">
					<name>JonWills043Subclipb</name>
					<duration>440</duration>
					<rate>
						<ntsc>FALSE</ntsc>
						<timebase>25</timebase>
					</rate>
					<in>0</in>
					<out>439</out>
					<start>45982</start>
					<end>46421</end>
					<pixelaspectratio>Square</pixelaspectratio>
					<anamorphic>FALSE</anamorphic>
					<alphatype>none</alphatype>
					<logginginfo>
						<scene/>
						<shottake/>
						<lognote/>
						<good>FALSE</good>
					</logginginfo>
					<labels>
						<label2/>
					</labels>
					<comments>
						<mastercomment1/>
						<mastercomment2/>
						<mastercomment3/>
						<mastercomment4/>
					</comments>
					<file id="JonWills043Subclipb1">
						<name>JonWills043Subclipb</name>
						<pathurl>file://localhost/Volumes/Michael's%20Passport/woodbdrigenov2011media/JonWills043Subclipb</pathurl>
						<rate>
							<timebase>25</timebase>
						</rate>
						<duration>440</duration>
						<metadata>
							<storage>QuickTime</storage>
							<key>com.apple.finalcutstudio.media.uuid</key>
							<size>36</size>
							<type>UTF8</type>
							<value>652073FC-AE18-4325-AADD-7EBCD7165B83</value>
						</metadata>
						<metadata>
							<storage>QuickTime</storage>
							<key>com.apple.finalcutstudio.media.history.uuid</key>
							<size>36</size>
							<type>UTF8</type>
							<value>F91005F2-059D-4C96-A399-16ED466A898F</value>
						</metadata>
						<timecode>
							<rate>
								<timebase>25</timebase>
							</rate>
							<string>00:00:26:17</string>
							<frame>667</frame>
							<displayformat>NDF</displayformat>
							<source>source</source>
							<reel>
								<name>JonWills</name>
							</reel>
						</timecode>
						<media>
							<video>
								<duration>440</duration>
								<samplecharacteristics>
									<width>1280</width>
									<height>720</height>
								</samplecharacteristics>
							</video>
							<audio>
								<samplecharacteristics>
									<samplerate>48000</samplerate>
									<depth>16</depth>
								</samplecharacteristics>
								<channelcount>2</channelcount>
								<layout>stereo</layout>
								<audiochannel>
									<sourcechannel>1</sourcechannel>
									<channellabel>left</channellabel>
								</audiochannel>
								<audiochannel>
									<sourcechannel>2</sourcechannel>
									<channellabel>right</channellabel>
								</audiochannel>
							</audio>
						</media>
					</file>
					<sourcetrack>
						<mediatype>video</mediatype>
					</sourcetrack>
					<fielddominance>none</fielddominance>
					<itemhistory>
						<uuid>7E62BC92-3A00-4C28-8263-AE3772490BBC</uuid>
						<uuid>A4BC0459-5698-4AED-AA35-E5053CA35D8D</uuid>
					</itemhistory>
				</clipitem>
				<clipitem id="JonWills043Subclipc">
					<name>JonWills043Subclipc</name>
					<duration>166</duration>
					<rate>
						<ntsc>FALSE</ntsc>
						<timebase>25</timebase>
					</rate>
					<in>0</in>
					<out>165</out>
					<start>46525</start>
					<end>46690</end>
					<pixelaspectratio>Square</pixelaspectratio>
					<anamorphic>FALSE</anamorphic>
					<alphatype>none</alphatype>
					<logginginfo>
						<scene/>
						<shottake/>
						<lognote/>
						<good>FALSE</good>
					</logginginfo>
					<labels>
						<label2/>
					</labels>
					<comments>
						<mastercomment1/>
						<mastercomment2/>
						<mastercomment3/>
						<mastercomment4/>
					</comments>
					<file id="JonWills043Subclipc1">
						<name>JonWills043Subclipc</name>
						<pathurl>file://localhost/Volumes/Michael's%20Passport/woodbdrigenov2011media/JonWills043Subclipc</pathurl>
						<rate>
							<timebase>25</timebase>
						</rate>
						<duration>166</duration>
						<metadata>
							<storage>QuickTime</storage>
							<key>com.apple.finalcutstudio.media.uuid</key>
							<size>36</size>
							<type>UTF8</type>
							<value>32CD0973-01C4-4B9D-BE89-146EE8187D1C</value>
						</metadata>
						<metadata>
							<storage>QuickTime</storage>
							<key>com.apple.finalcutstudio.media.history.uuid</key>
							<size>36</size>
							<type>UTF8</type>
							<value>F91005F2-059D-4C96-A399-16ED466A898F</value>
						</metadata>
						<timecode>
							<rate>
								<timebase>25</timebase>
							</rate>
							<string>00:00:48:09</string>
							<frame>1209</frame>
							<displayformat>NDF</displayformat>
							<source>source</source>
							<reel>
								<name>JonWills</name>
							</reel>
						</timecode>
						<media>
							<video>
								<duration>166</duration>
								<samplecharacteristics>
									<width>1280</width>
									<height>720</height>
								</samplecharacteristics>
							</video>
							<audio>
								<samplecharacteristics>
									<samplerate>48000</samplerate>
									<depth>16</depth>
								</samplecharacteristics>
								<channelcount>2</channelcount>
								<layout>stereo</layout>
								<audiochannel>
									<sourcechannel>1</sourcechannel>
									<channellabel>left</channellabel>
								</audiochannel>
								<audiochannel>
									<sourcechannel>2</sourcechannel>
									<channellabel>right</channellabel>
								</audiochannel>
							</audio>
						</media>
					</file>
					<sourcetrack>
						<mediatype>video</mediatype>
					</sourcetrack>
					<fielddominance>none</fielddominance>
					<itemhistory>
						<uuid>1A3DD640-3784-46BE-933E-CBB6FD1AFCA9</uuid>
						<uuid>0DD63CB2-A5BA-4DD8-9F8F-889FD5D99290</uuid>
					</itemhistory>
				</clipitem>
				<clipitem id="JonWills043Subclipd">
					<name>JonWills043Subclipd</name>
					<duration>499</duration>
					<rate>
						<ntsc>FALSE</ntsc>
						<timebase>25</timebase>
					</rate>
					<in>0</in>
					<out>499</out>
					<start>46762</start>
					<end>47261</end>
					<pixelaspectratio>Square</pixelaspectratio>
					<anamorphic>FALSE</anamorphic>
					<alphatype>none</alphatype>
					<logginginfo>
						<scene/>
						<shottake/>
						<lognote/>
						<good>FALSE</good>
					</logginginfo>
					<labels>
						<label2/>
					</labels>
					<comments>
						<mastercomment1/>
						<mastercomment2/>
						<mastercomment3/>
						<mastercomment4/>
					</comments>
					<file id="JonWills043Subclipd1">
						<name>JonWills043Subclipd</name>
						<pathurl>file://localhost/Volumes/Michael's%20Passport/woodbdrigenov2011media/JonWills043Subclipd</pathurl>
						<rate>
							<timebase>25</timebase>
						</rate>
						<duration>499</duration>
						<metadata>
							<storage>QuickTime</storage>
							<key>com.apple.finalcutstudio.media.uuid</key>
							<size>36</size>
							<type>UTF8</type>
							<value>D2497A76-1353-4458-BAA5-63B3FD6FC377</value>
						</metadata>
						<metadata>
							<storage>QuickTime</storage>
							<key>com.apple.finalcutstudio.media.history.uuid</key>
							<size>36</size>
							<type>UTF8</type>
							<value>F91005F2-059D-4C96-A399-16ED466A898F</value>
						</metadata>
						<timecode>
							<rate>
								<timebase>25</timebase>
							</rate>
							<string>00:00:57:21</string>
							<frame>1446</frame>
							<displayformat>NDF</displayformat>
							<source>source</source>
							<reel>
								<name>JonWills</name>
							</reel>
						</timecode>
						<media>
							<video>
								<duration>499</duration>
								<samplecharacteristics>
									<width>1280</width>
									<height>720</height>
								</samplecharacteristics>
							</video>
							<audio>
								<samplecharacteristics>
									<samplerate>48000</samplerate>
									<depth>16</depth>
								</samplecharacteristics>
								<channelcount>2</channelcount>
								<layout>stereo</layout>
								<audiochannel>
									<sourcechannel>1</sourcechannel>
									<channellabel>left</channellabel>
								</audiochannel>
								<audiochannel>
									<sourcechannel>2</sourcechannel>
									<channellabel>right</channellabel>
								</audiochannel>
							</audio>
						</media>
					</file>
					<sourcetrack>
						<mediatype>video</mediatype>
					</sourcetrack>
					<fielddominance>none</fielddominance>
					<itemhistory>
						<uuid>205F9EC2-808A-47D7-94D4-D58AAC57C4CB</uuid>
						<uuid>D75C5EEA-ADDB-4647-9F4F-44157C58EE44</uuid>
					</itemhistory>
				</clipitem>
				<clipitem id="JonWills043Subclipe">
					<name>JonWills043Subclipe</name>
					<duration>196</duration>
					<rate>
						<ntsc>FALSE</ntsc>
						<timebase>25</timebase>
					</rate>
					<in>0</in>
					<out>195</out>
					<start>47331</start>
					<end>47526</end>
					<pixelaspectratio>Square</pixelaspectratio>
					<anamorphic>FALSE</anamorphic>
					<alphatype>none</alphatype>
					<logginginfo>
						<scene/>
						<shottake/>
						<lognote/>
						<good>FALSE</good>
					</logginginfo>
					<labels>
						<label2/>
					</labels>
					<comments>
						<mastercomment1/>
						<mastercomment2/>
						<mastercomment3/>
						<mastercomment4/>
					</comments>
					<file id="JonWills043Subclipe1">
						<name>JonWills043Subclipe</name>
						<pathurl>file://localhost/Volumes/Michael's%20Passport/woodbdrigenov2011media/JonWills043Subclipe</pathurl>
						<rate>
							<timebase>25</timebase>
						</rate>
						<duration>196</duration>
						<metadata>
							<storage>QuickTime</storage>
							<key>com.apple.finalcutstudio.media.uuid</key>
							<size>36</size>
							<type>UTF8</type>
							<value>C9777C37-7563-40DF-995B-50EC6E6D1EB2</value>
						</metadata>
						<metadata>
							<storage>QuickTime</storage>
							<key>com.apple.finalcutstudio.media.history.uuid</key>
							<size>36</size>
							<type>UTF8</type>
							<value>F91005F2-059D-4C96-A399-16ED466A898F</value>
						</metadata>
						<timecode>
							<rate>
								<timebase>25</timebase>
							</rate>
							<string>00:01:20:15</string>
							<frame>2015</frame>
							<displayformat>NDF</displayformat>
							<source>source</source>
							<reel>
								<name>JonWills</name>
							</reel>
						</timecode>
						<media>
							<video>
								<duration>196</duration>
								<samplecharacteristics>
									<width>1280</width>
									<height>720</height>
								</samplecharacteristics>
							</video>
							<audio>
								<samplecharacteristics>
									<samplerate>48000</samplerate>
									<depth>16</depth>
								</samplecharacteristics>
								<channelcount>2</channelcount>
								<layout>stereo</layout>
								<audiochannel>
									<sourcechannel>1</sourcechannel>
									<channellabel>left</channellabel>
								</audiochannel>
								<audiochannel>
									<sourcechannel>2</sourcechannel>
									<channellabel>right</channellabel>
								</audiochannel>
							</audio>
						</media>
					</file>
					<sourcetrack>
						<mediatype>video</mediatype>
					</sourcetrack>
					<fielddominance>none</fielddominance>
					<itemhistory>
						<uuid>B96E6D30-EF36-40C1-9843-0D3B0272FB45</uuid>
						<uuid>0581A40D-D2FC-40AB-B5D5-0ED31A361B8C</uuid>
					</itemhistory>
				</clipitem>
				<clipitem id="JonWills043Subclipf">
					<name>JonWills043Subclipf</name>
					<duration>490</duration>
					<rate>
						<ntsc>FALSE</ntsc>
						<timebase>25</timebase>
					</rate>
					<in>0</in>
					<out>490</out>
					<start>47642</start>
					<end>48132</end>
					<pixelaspectratio>Square</pixelaspectratio>
					<anamorphic>FALSE</anamorphic>
					<alphatype>none</alphatype>
					<logginginfo>
						<scene/>
						<shottake/>
						<lognote/>
						<good>FALSE</good>
					</logginginfo>
					<labels>
						<label2/>
					</labels>
					<comments>
						<mastercomment1/>
						<mastercomment2/>
						<mastercomment3/>
						<mastercomment4/>
					</comments>
					<file id="JonWills043Subclipf1">
						<name>JonWills043Subclipf</name>
						<pathurl>file://localhost/Volumes/Michael's%20Passport/woodbdrigenov2011media/JonWills043Subclipf</pathurl>
						<rate>
							<timebase>25</timebase>
						</rate>
						<duration>490</duration>
						<metadata>
							<storage>QuickTime</storage>
							<key>com.apple.finalcutstudio.media.uuid</key>
							<size>36</size>
							<type>UTF8</type>
							<value>2FF57D5B-703F-4512-AE06-1120AC2C17EA</value>
						</metadata>
						<metadata>
							<storage>QuickTime</storage>
							<key>com.apple.finalcutstudio.media.history.uuid</key>
							<size>36</size>
							<type>UTF8</type>
							<value>F91005F2-059D-4C96-A399-16ED466A898F</value>
						</metadata>
						<timecode>
							<rate>
								<timebase>25</timebase>
							</rate>
							<string>00:01:33:01</string>
							<frame>2326</frame>
							<displayformat>NDF</displayformat>
							<source>source</source>
							<reel>
								<name>JonWills</name>
							</reel>
						</timecode>
						<media>
							<video>
								<duration>490</duration>
								<samplecharacteristics>
									<width>1280</width>
									<height>720</height>
								</samplecharacteristics>
							</video>
							<audio>
								<samplecharacteristics>
									<samplerate>48000</samplerate>
									<depth>16</depth>
								</samplecharacteristics>
								<channelcount>2</channelcount>
								<layout>stereo</layout>
								<audiochannel>
									<sourcechannel>1</sourcechannel>
									<channellabel>left</channellabel>
								</audiochannel>
								<audiochannel>
									<sourcechannel>2</sourcechannel>
									<channellabel>right</channellabel>
								</audiochannel>
							</audio>
						</media>
					</file>
					<sourcetrack>
						<mediatype>video</mediatype>
					</sourcetrack>
					<fielddominance>none</fielddominance>
					<itemhistory>
						<uuid>DA59B592-B966-4151-B6B9-6323A5B00A1A</uuid>
						<uuid>CAF957FE-EFEB-4950-8EDE-4EA3F553CA1E</uuid>
					</itemhistory>
				</clipitem>
				<clipitem id="JonWills043Subclipg">
					<name>JonWills043Subclipg</name>
					<duration>1045</duration>
					<rate>
						<ntsc>FALSE</ntsc>
						<timebase>25</timebase>
					</rate>
					<in>0</in>
					<out>1045</out>
					<start>48224</start>
					<end>49269</end>
					<pixelaspectratio>Square</pixelaspectratio>
					<anamorphic>FALSE</anamorphic>
					<alphatype>none</alphatype>
					<logginginfo>
						<scene/>
						<shottake/>
						<lognote/>
						<good>FALSE</good>
					</logginginfo>
					<labels>
						<label2/>
					</labels>
					<comments>
						<mastercomment1/>
						<mastercomment2/>
						<mastercomment3/>
						<mastercomment4/>
					</comments>
					<file id="JonWills043Subclipg1">
						<name>JonWills043Subclipg</name>
						<pathurl>file://localhost/Volumes/Michael's%20Passport/woodbdrigenov2011media/JonWills043Subclipg</pathurl>
						<rate>
							<timebase>25</timebase>
						</rate>
						<duration>1045</duration>
						<metadata>
							<storage>QuickTime</storage>
							<key>com.apple.finalcutstudio.media.uuid</key>
							<size>36</size>
							<type>UTF8</type>
							<value>6429AD2E-8A84-4248-89B1-70F785D41D49</value>
						</metadata>
						<metadata>
							<storage>QuickTime</storage>
							<key>com.apple.finalcutstudio.media.history.uuid</key>
							<size>36</size>
							<type>UTF8</type>
							<value>F91005F2-059D-4C96-A399-16ED466A898F</value>
						</metadata>
						<timecode>
							<rate>
								<timebase>25</timebase>
							</rate>
							<string>00:01:56:08</string>
							<frame>2908</frame>
							<displayformat>NDF</displayformat>
							<source>source</source>
							<reel>
								<name>JonWills</name>
							</reel>
						</timecode>
						<media>
							<video>
								<duration>1045</duration>
								<samplecharacteristics>
									<width>1280</width>
									<height>720</height>
								</samplecharacteristics>
							</video>
							<audio>
								<samplecharacteristics>
									<samplerate>48000</samplerate>
									<depth>16</depth>
								</samplecharacteristics>
								<channelcount>2</channelcount>
								<layout>stereo</layout>
								<audiochannel>
									<sourcechannel>1</sourcechannel>
									<channellabel>left</channellabel>
								</audiochannel>
								<audiochannel>
									<sourcechannel>2</sourcechannel>
									<channellabel>right</channellabel>
								</audiochannel>
							</audio>
						</media>
					</file>
					<sourcetrack>
						<mediatype>video</mediatype>
					</sourcetrack>
					<fielddominance>none</fielddominance>
					<itemhistory>
						<uuid>E4412D0B-28A7-4E7F-9F04-1821BC975663</uuid>
						<uuid>79F611F0-3413-478E-9652-9759FE919DD3</uuid>
					</itemhistory>
				</clipitem>
				<clipitem id="JonWills043Subcliph">
					<name>JonWills043Subcliph</name>
					<duration>1300</duration>
					<rate>
						<ntsc>FALSE</ntsc>
						<timebase>25</timebase>
					</rate>
					<in>0</in>
					<out>1300</out>
					<start>49335</start>
					<end>50635</end>
					<pixelaspectratio>Square</pixelaspectratio>
					<anamorphic>FALSE</anamorphic>
					<alphatype>none</alphatype>
					<logginginfo>
						<scene/>
						<shottake/>
						<lognote/>
						<good>FALSE</good>
					</logginginfo>
					<labels>
						<label2/>
					</labels>
					<comments>
						<mastercomment1/>
						<mastercomment2/>
						<mastercomment3/>
						<mastercomment4/>
					</comments>
					<file id="JonWills043Subcliph1">
						<name>JonWills043Subcliph</name>
						<pathurl>file://localhost/Volumes/Michael's%20Passport/woodbdrigenov2011media/JonWills043Subcliph</pathurl>
						<rate>
							<timebase>25</timebase>
						</rate>
						<duration>1300</duration>
						<metadata>
							<storage>QuickTime</storage>
							<key>com.apple.finalcutstudio.media.uuid</key>
							<size>36</size>
							<type>UTF8</type>
							<value>2D3B8681-4EDD-4614-8712-B9B671B99926</value>
						</metadata>
						<metadata>
							<storage>QuickTime</storage>
							<key>com.apple.finalcutstudio.media.history.uuid</key>
							<size>36</size>
							<type>UTF8</type>
							<value>F91005F2-059D-4C96-A399-16ED466A898F</value>
						</metadata>
						<timecode>
							<rate>
								<timebase>25</timebase>
							</rate>
							<string>00:02:40:19</string>
							<frame>4019</frame>
							<displayformat>NDF</displayformat>
							<source>source</source>
							<reel>
								<name>JonWills</name>
							</reel>
						</timecode>
						<media>
							<video>
								<duration>1300</duration>
								<samplecharacteristics>
									<width>1280</width>
									<height>720</height>
								</samplecharacteristics>
							</video>
							<audio>
								<samplecharacteristics>
									<samplerate>48000</samplerate>
									<depth>16</depth>
								</samplecharacteristics>
								<channelcount>2</channelcount>
								<layout>stereo</layout>
								<audiochannel>
									<sourcechannel>1</sourcechannel>
									<channellabel>left</channellabel>
								</audiochannel>
								<audiochannel>
									<sourcechannel>2</sourcechannel>
									<channellabel>right</channellabel>
								</audiochannel>
							</audio>
						</media>
					</file>
					<sourcetrack>
						<mediatype>video</mediatype>
					</sourcetrack>
					<fielddominance>none</fielddominance>
					<itemhistory>
						<uuid>3E6DADC8-6D0B-4BC0-9CDC-E4F062768D6B</uuid>
						<uuid>C2DB47F2-C228-43F5-A550-D8DC07922D07</uuid>
					</itemhistory>
				</clipitem>
				<clipitem id="JonWills043Subclipj">
					<name>JonWills043Subclipj</name>
					<duration>1338</duration>
					<rate>
						<ntsc>FALSE</ntsc>
						<timebase>25</timebase>
					</rate>
					<in>0</in>
					<out>1337</out>
					<start>50686</start>
					<end>52023</end>
					<pixelaspectratio>Square</pixelaspectratio>
					<anamorphic>FALSE</anamorphic>
					<alphatype>none</alphatype>
					<logginginfo>
						<scene/>
						<shottake/>
						<lognote/>
						<good>FALSE</good>
					</logginginfo>
					<labels>
						<label2/>
					</labels>
					<comments>
						<mastercomment1/>
						<mastercomment2/>
						<mastercomment3/>
						<mastercomment4/>
					</comments>
					<file id="JonWills043Subclipj1">
						<name>JonWills043Subclipj</name>
						<pathurl>file://localhost/Volumes/Michael's%20Passport/woodbdrigenov2011media/JonWills043Subclipj</pathurl>
						<rate>
							<timebase>25</timebase>
						</rate>
						<duration>1338</duration>
						<metadata>
							<storage>QuickTime</storage>
							<key>com.apple.finalcutstudio.media.uuid</key>
							<size>36</size>
							<type>UTF8</type>
							<value>1EE0A94C-D24A-4F40-9E8C-4F949DB1DC68</value>
						</metadata>
						<metadata>
							<storage>QuickTime</storage>
							<key>com.apple.finalcutstudio.media.history.uuid</key>
							<size>36</size>
							<type>UTF8</type>
							<value>F91005F2-059D-4C96-A399-16ED466A898F</value>
						</metadata>
						<timecode>
							<rate>
								<timebase>25</timebase>
							</rate>
							<string>00:03:34:20</string>
							<frame>5370</frame>
							<displayformat>NDF</displayformat>
							<source>source</source>
							<reel>
								<name>JonWills</name>
							</reel>
						</timecode>
						<media>
							<video>
								<duration>1338</duration>
								<samplecharacteristics>
									<width>1280</width>
									<height>720</height>
								</samplecharacteristics>
							</video>
							<audio>
								<samplecharacteristics>
									<samplerate>48000</samplerate>
									<depth>16</depth>
								</samplecharacteristics>
								<channelcount>2</channelcount>
								<layout>stereo</layout>
								<audiochannel>
									<sourcechannel>1</sourcechannel>
									<channellabel>left</channellabel>
								</audiochannel>
								<audiochannel>
									<sourcechannel>2</sourcechannel>
									<channellabel>right</channellabel>
								</audiochannel>
							</audio>
						</media>
					</file>
					<sourcetrack>
						<mediatype>video</mediatype>
					</sourcetrack>
					<fielddominance>none</fielddominance>
					<itemhistory>
						<uuid>117368C8-C4FC-4790-A73A-0DC0B5810676</uuid>
						<uuid>D66E036B-70ED-43CF-A685-0DE0202EE081</uuid>
					</itemhistory>
				</clipitem>
				<clipitem id="JonWills044 ">
					<name>JonWills044</name>
					<duration>2136</duration>
					<rate>
						<ntsc>FALSE</ntsc>
						<timebase>25</timebase>
					</rate>
					<in>0</in>
					<out>2136</out>
					<start>52662</start>
					<end>54798</end>
					<pixelaspectratio>Square</pixelaspectratio>
					<anamorphic>FALSE</anamorphic>
					<alphatype>none</alphatype>
					<logginginfo>
						<scene/>
						<shottake/>
						<lognote/>
						<good>FALSE</good>
					</logginginfo>
					<labels>
						<label2/>
					</labels>
					<comments>
						<mastercomment1/>
						<mastercomment2/>
						<mastercomment3/>
						<mastercomment4/>
					</comments>
					<file id="JonWills044 1">
						<name>JonWills044</name>
						<pathurl>file://localhost/Volumes/Michael's%20Passport/woodbdrigenov2011media/JonWills044</pathurl>
						<rate>
							<timebase>25</timebase>
						</rate>
						<duration>2136</duration>
						<metadata>
							<storage>QuickTime</storage>
							<key>com.apple.finalcutstudio.media.uuid</key>
							<size>36</size>
							<type>UTF8</type>
							<value>64540D52-0EFA-4C21-B4DD-7AB334F7174E</value>
						</metadata>
						<metadata>
							<storage>QuickTime</storage>
							<key>com.apple.finalcutstudio.media.history.uuid</key>
							<size>36</size>
							<type>UTF8</type>
							<value>B16ADBE1-9949-403A-A946-EC6B95C43909</value>
						</metadata>
						<timecode>
							<rate>
								<timebase>25</timebase>
							</rate>
							<string>00:00:00:00</string>
							<frame>0</frame>
							<displayformat>NDF</displayformat>
							<source>source</source>
							<reel>
								<name>JonWills</name>
							</reel>
						</timecode>
						<media>
							<video>
								<duration>2136</duration>
								<samplecharacteristics>
									<width>1280</width>
									<height>720</height>
								</samplecharacteristics>
							</video>
							<audio>
								<samplecharacteristics>
									<samplerate>48000</samplerate>
									<depth>16</depth>
								</samplecharacteristics>
								<channelcount>2</channelcount>
								<layout>stereo</layout>
								<audiochannel>
									<sourcechannel>1</sourcechannel>
									<channellabel>left</channellabel>
								</audiochannel>
								<audiochannel>
									<sourcechannel>2</sourcechannel>
									<channellabel>right</channellabel>
								</audiochannel>
							</audio>
						</media>
					</file>
					<sourcetrack>
						<mediatype>video</mediatype>
					</sourcetrack>
					<fielddominance>none</fielddominance>
					<itemhistory>
						<uuid>260DA7DE-4D94-4DE3-811D-989A4FCEDEBF</uuid>
						<uuid>7C602A94-8C4A-402C-A1F2-1C3208109F78</uuid>
					</itemhistory>
				</clipitem>
				<clipitem id="JonWills045Subclipa">
					<name>JonWills045Subclipa</name>
					<duration>2940</duration>
					<rate>
						<ntsc>FALSE</ntsc>
						<timebase>25</timebase>
					</rate>
					<in>0</in>
					<out>2940</out>
					<start>55006</start>
					<end>57946</end>
					<pixelaspectratio>Square</pixelaspectratio>
					<anamorphic>FALSE</anamorphic>
					<alphatype>none</alphatype>
					<logginginfo>
						<scene/>
						<shottake/>
						<lognote/>
						<good>FALSE</good>
					</logginginfo>
					<labels>
						<label2/>
					</labels>
					<comments>
						<mastercomment1/>
						<mastercomment2/>
						<mastercomment3/>
						<mastercomment4/>
					</comments>
					<file id="JonWills045Subclipa1">
						<name>JonWills045Subclipa</name>
						<pathurl>file://localhost/Volumes/Michael's%20Passport/woodbdrigenov2011media/JonWills045Subclipa</pathurl>
						<rate>
							<timebase>25</timebase>
						</rate>
						<duration>2940</duration>
						<metadata>
							<storage>QuickTime</storage>
							<key>com.apple.finalcutstudio.media.uuid</key>
							<size>36</size>
							<type>UTF8</type>
							<value>46AD432A-62F1-48FB-86D2-0048AC7AD530</value>
						</metadata>
						<metadata>
							<storage>QuickTime</storage>
							<key>com.apple.finalcutstudio.media.history.uuid</key>
							<size>36</size>
							<type>UTF8</type>
							<value>B923C452-0CA4-45C0-BCA1-327A9FBD7698</value>
						</metadata>
						<timecode>
							<rate>
								<timebase>25</timebase>
							</rate>
							<string>00:00:00:00</string>
							<frame>0</frame>
							<displayformat>NDF</displayformat>
							<source>source</source>
							<reel>
								<name>JonWills</name>
							</reel>
						</timecode>
						<media>
							<video>
								<duration>2940</duration>
								<samplecharacteristics>
									<width>1280</width>
									<height>720</height>
								</samplecharacteristics>
							</video>
							<audio>
								<samplecharacteristics>
									<samplerate>48000</samplerate>
									<depth>16</depth>
								</samplecharacteristics>
								<channelcount>2</channelcount>
								<layout>stereo</layout>
								<audiochannel>
									<sourcechannel>1</sourcechannel>
									<channellabel>left</channellabel>
								</audiochannel>
								<audiochannel>
									<sourcechannel>2</sourcechannel>
									<channellabel>right</channellabel>
								</audiochannel>
							</audio>
						</media>
					</file>
					<sourcetrack>
						<mediatype>video</mediatype>
					</sourcetrack>
					<fielddominance>none</fielddominance>
					<itemhistory>
						<uuid>5B6BDCDB-A5D9-44A5-B36E-225E99CCC18D</uuid>
						<uuid>89B0962F-EE47-4EB4-8AE9-3BE6D890C035</uuid>
					</itemhistory>
				</clipitem>
				<clipitem id="JonWills045Subclipb">
					<name>JonWills045Subclipb</name>
					<duration>987</duration>
					<rate>
						<ntsc>FALSE</ntsc>
						<timebase>25</timebase>
					</rate>
					<in>0</in>
					<out>986</out>
					<start>57946</start>
					<end>58932</end>
					<pixelaspectratio>Square</pixelaspectratio>
					<anamorphic>FALSE</anamorphic>
					<alphatype>none</alphatype>
					<logginginfo>
						<scene/>
						<shottake/>
						<lognote/>
						<good>FALSE</good>
					</logginginfo>
					<labels>
						<label2/>
					</labels>
					<comments>
						<mastercomment1/>
						<mastercomment2/>
						<mastercomment3/>
						<mastercomment4/>
					</comments>
					<file id="JonWills045Subclipb1">
						<name>JonWills045Subclipb</name>
						<pathurl>file://localhost/Volumes/Michael's%20Passport/woodbdrigenov2011media/JonWills045Subclipb</pathurl>
						<rate>
							<timebase>25</timebase>
						</rate>
						<duration>987</duration>
						<metadata>
							<storage>QuickTime</storage>
							<key>com.apple.finalcutstudio.media.uuid</key>
							<size>36</size>
							<type>UTF8</type>
							<value>ED3CACEB-A290-4E91-B305-38360D7CE6C2</value>
						</metadata>
						<metadata>
							<storage>QuickTime</storage>
							<key>com.apple.finalcutstudio.media.history.uuid</key>
							<size>36</size>
							<type>UTF8</type>
							<value>B923C452-0CA4-45C0-BCA1-327A9FBD7698</value>
						</metadata>
						<timecode>
							<rate>
								<timebase>25</timebase>
							</rate>
							<string>00:01:57:14</string>
							<frame>2939</frame>
							<displayformat>NDF</displayformat>
							<source>source</source>
							<reel>
								<name>JonWills</name>
							</reel>
						</timecode>
						<media>
							<video>
								<duration>987</duration>
								<samplecharacteristics>
									<width>1280</width>
									<height>720</height>
								</samplecharacteristics>
							</video>
							<audio>
								<samplecharacteristics>
									<samplerate>48000</samplerate>
									<depth>16</depth>
								</samplecharacteristics>
								<channelcount>2</channelcount>
								<layout>stereo</layout>
								<audiochannel>
									<sourcechannel>1</sourcechannel>
									<channellabel>left</channellabel>
								</audiochannel>
								<audiochannel>
									<sourcechannel>2</sourcechannel>
									<channellabel>right</channellabel>
								</audiochannel>
							</audio>
						</media>
					</file>
					<sourcetrack>
						<mediatype>video</mediatype>
					</sourcetrack>
					<fielddominance>none</fielddominance>
					<itemhistory>
						<uuid>1C43D889-DD39-436E-B95A-8927E3AA4C33</uuid>
						<uuid>911731A2-3E9A-49ED-B71F-095CED44C049</uuid>
					</itemhistory>
				</clipitem>
				<clipitem id="JonWills045Subclipc">
					<name>JonWills045Subclipc</name>
					<duration>2834</duration>
					<rate>
						<ntsc>FALSE</ntsc>
						<timebase>25</timebase>
					</rate>
					<in>0</in>
					<out>2834</out>
					<start>59094</start>
					<end>61928</end>
					<pixelaspectratio>Square</pixelaspectratio>
					<anamorphic>FALSE</anamorphic>
					<alphatype>none</alphatype>
					<logginginfo>
						<scene/>
						<shottake/>
						<lognote/>
						<good>FALSE</good>
					</logginginfo>
					<labels>
						<label2/>
					</labels>
					<comments>
						<mastercomment1/>
						<mastercomment2/>
						<mastercomment3/>
						<mastercomment4/>
					</comments>
					<file id="JonWills045Subclipc1">
						<name>JonWills045Subclipc</name>
						<pathurl>file://localhost/Volumes/Michael's%20Passport/woodbdrigenov2011media/JonWills045Subclipc</pathurl>
						<rate>
							<timebase>25</timebase>
						</rate>
						<duration>2834</duration>
						<metadata>
							<storage>QuickTime</storage>
							<key>com.apple.finalcutstudio.media.uuid</key>
							<size>36</size>
							<type>UTF8</type>
							<value>D4D69FCE-8C8D-4750-AA7C-F226F20783C3</value>
						</metadata>
						<metadata>
							<storage>QuickTime</storage>
							<key>com.apple.finalcutstudio.media.history.uuid</key>
							<size>36</size>
							<type>UTF8</type>
							<value>B923C452-0CA4-45C0-BCA1-327A9FBD7698</value>
						</metadata>
						<timecode>
							<rate>
								<timebase>25</timebase>
							</rate>
							<string>00:02:43:13</string>
							<frame>4088</frame>
							<displayformat>NDF</displayformat>
							<source>source</source>
							<reel>
								<name>JonWills</name>
							</reel>
						</timecode>
						<media>
							<video>
								<duration>2834</duration>
								<samplecharacteristics>
									<width>1280</width>
									<height>720</height>
								</samplecharacteristics>
							</video>
							<audio>
								<samplecharacteristics>
									<samplerate>48000</samplerate>
									<depth>16</depth>
								</samplecharacteristics>
								<channelcount>2</channelcount>
								<layout>stereo</layout>
								<audiochannel>
									<sourcechannel>1</sourcechannel>
									<channellabel>left</channellabel>
								</audiochannel>
								<audiochannel>
									<sourcechannel>2</sourcechannel>
									<channellabel>right</channellabel>
								</audiochannel>
							</audio>
						</media>
					</file>
					<sourcetrack>
						<mediatype>video</mediatype>
					</sourcetrack>
					<fielddominance>none</fielddominance>
					<itemhistory>
						<uuid>BFECDED6-DEF7-4AF2-B305-A76A0123150D</uuid>
						<uuid>FD720342-7B67-42BD-9D05-0E0A974A7B2E</uuid>
					</itemhistory>
				</clipitem>
				<clipitem id="JonWills045Subclipd">
					<name>JonWills045Subclipd</name>
					<duration>542</duration>
					<rate>
						<ntsc>FALSE</ntsc>
						<timebase>25</timebase>
					</rate>
					<in>0</in>
					<out>541</out>
					<start>61928</start>
					<end>62469</end>
					<pixelaspectratio>Square</pixelaspectratio>
					<anamorphic>FALSE</anamorphic>
					<alphatype>none</alphatype>
					<logginginfo>
						<scene/>
						<shottake/>
						<lognote/>
						<good>FALSE</good>
					</logginginfo>
					<labels>
						<label2/>
					</labels>
					<comments>
						<mastercomment1/>
						<mastercomment2/>
						<mastercomment3/>
						<mastercomment4/>
					</comments>
					<file id="JonWills045Subclipd1">
						<name>JonWills045Subclipd</name>
						<pathurl>file://localhost/Volumes/Michael's%20Passport/woodbdrigenov2011media/JonWills045Subclipd</pathurl>
						<rate>
							<timebase>25</timebase>
						</rate>
						<duration>542</duration>
						<metadata>
							<storage>QuickTime</storage>
							<key>com.apple.finalcutstudio.media.uuid</key>
							<size>36</size>
							<type>UTF8</type>
							<value>0F218F29-8245-4268-A825-87FEC7B7AF66</value>
						</metadata>
						<metadata>
							<storage>QuickTime</storage>
							<key>com.apple.finalcutstudio.media.history.uuid</key>
							<size>36</size>
							<type>UTF8</type>
							<value>B923C452-0CA4-45C0-BCA1-327A9FBD7698</value>
						</metadata>
						<timecode>
							<rate>
								<timebase>25</timebase>
							</rate>
							<string>00:04:36:22</string>
							<frame>6922</frame>
							<displayformat>NDF</displayformat>
							<source>source</source>
							<reel>
								<name>JonWills</name>
							</reel>
						</timecode>
						<media>
							<video>
								<duration>542</duration>
								<samplecharacteristics>
									<width>1280</width>
									<height>720</height>
								</samplecharacteristics>
							</video>
							<audio>
								<samplecharacteristics>
									<samplerate>48000</samplerate>
									<depth>16</depth>
								</samplecharacteristics>
								<channelcount>2</channelcount>
								<layout>stereo</layout>
								<audiochannel>
									<sourcechannel>1</sourcechannel>
									<channellabel>left</channellabel>
								</audiochannel>
								<audiochannel>
									<sourcechannel>2</sourcechannel>
									<channellabel>right</channellabel>
								</audiochannel>
							</audio>
						</media>
					</file>
					<sourcetrack>
						<mediatype>video</mediatype>
					</sourcetrack>
					<fielddominance>none</fielddominance>
					<itemhistory>
						<uuid>5B86F12C-77AD-482A-AD2A-5B4649E2F091</uuid>
						<uuid>10D1CEDC-9BCE-4662-BAB9-4CFAA0D601C3</uuid>
					</itemhistory>
				</clipitem>
				<clipitem id="JonWills045Subclipe">
					<name>JonWills045Subclipe</name>
					<duration>1051</duration>
					<rate>
						<ntsc>FALSE</ntsc>
						<timebase>25</timebase>
					</rate>
					<in>0</in>
					<out>1051</out>
					<start>62526</start>
					<end>63577</end>
					<pixelaspectratio>Square</pixelaspectratio>
					<anamorphic>FALSE</anamorphic>
					<alphatype>none</alphatype>
					<logginginfo>
						<scene/>
						<shottake/>
						<lognote/>
						<good>FALSE</good>
					</logginginfo>
					<labels>
						<label2/>
					</labels>
					<comments>
						<mastercomment1/>
						<mastercomment2/>
						<mastercomment3/>
						<mastercomment4/>
					</comments>
					<file id="JonWills045Subclipe1">
						<name>JonWills045Subclipe</name>
						<pathurl>file://localhost/Volumes/Michael's%20Passport/woodbdrigenov2011media/JonWills045Subclipe</pathurl>
						<rate>
							<timebase>25</timebase>
						</rate>
						<duration>1051</duration>
						<metadata>
							<storage>QuickTime</storage>
							<key>com.apple.finalcutstudio.media.uuid</key>
							<size>36</size>
							<type>UTF8</type>
							<value>0BE59D29-BA4E-45B6-98BD-FF6FDBD0A2A2</value>
						</metadata>
						<metadata>
							<storage>QuickTime</storage>
							<key>com.apple.finalcutstudio.media.history.uuid</key>
							<size>36</size>
							<type>UTF8</type>
							<value>B923C452-0CA4-45C0-BCA1-327A9FBD7698</value>
						</metadata>
						<timecode>
							<rate>
								<timebase>25</timebase>
							</rate>
							<string>00:05:00:20</string>
							<frame>7520</frame>
							<displayformat>NDF</displayformat>
							<source>source</source>
							<reel>
								<name>JonWills</name>
							</reel>
						</timecode>
						<media>
							<video>
								<duration>1051</duration>
								<samplecharacteristics>
									<width>1280</width>
									<height>720</height>
								</samplecharacteristics>
							</video>
							<audio>
								<samplecharacteristics>
									<samplerate>48000</samplerate>
									<depth>16</depth>
								</samplecharacteristics>
								<channelcount>2</channelcount>
								<layout>stereo</layout>
								<audiochannel>
									<sourcechannel>1</sourcechannel>
									<channellabel>left</channellabel>
								</audiochannel>
								<audiochannel>
									<sourcechannel>2</sourcechannel>
									<channellabel>right</channellabel>
								</audiochannel>
							</audio>
						</media>
					</file>
					<sourcetrack>
						<mediatype>video</mediatype>
					</sourcetrack>
					<fielddominance>none</fielddominance>
					<itemhistory>
						<uuid>FF88C82C-BD71-4E0F-A58C-B7750B118638</uuid>
						<uuid>B268E72B-D47F-4C24-A517-1A9A98334855</uuid>
					</itemhistory>
				</clipitem>
				<clipitem id="JonWills045Subclipf">
					<name>JonWills045Subclipf</name>
					<duration>1599</duration>
					<rate>
						<ntsc>FALSE</ntsc>
						<timebase>25</timebase>
					</rate>
					<in>0</in>
					<out>1598</out>
					<start>63721</start>
					<end>65319</end>
					<pixelaspectratio>Square</pixelaspectratio>
					<anamorphic>FALSE</anamorphic>
					<alphatype>none</alphatype>
					<logginginfo>
						<scene/>
						<shottake/>
						<lognote/>
						<good>FALSE</good>
					</logginginfo>
					<labels>
						<label2/>
					</labels>
					<comments>
						<mastercomment1/>
						<mastercomment2/>
						<mastercomment3/>
						<mastercomment4/>
					</comments>
					<file id="JonWills045Subclipf1">
						<name>JonWills045Subclipf</name>
						<pathurl>file://localhost/Volumes/Michael's%20Passport/woodbdrigenov2011media/JonWills045Subclipf</pathurl>
						<rate>
							<timebase>25</timebase>
						</rate>
						<duration>1599</duration>
						<metadata>
							<storage>QuickTime</storage>
							<key>com.apple.finalcutstudio.media.uuid</key>
							<size>36</size>
							<type>UTF8</type>
							<value>8C1FDD6B-5D11-4751-B7CB-C1CAA965CDF4</value>
						</metadata>
						<metadata>
							<storage>QuickTime</storage>
							<key>com.apple.finalcutstudio.media.history.uuid</key>
							<size>36</size>
							<type>UTF8</type>
							<value>B923C452-0CA4-45C0-BCA1-327A9FBD7698</value>
						</metadata>
						<timecode>
							<rate>
								<timebase>25</timebase>
							</rate>
							<string>00:05:48:15</string>
							<frame>8715</frame>
							<displayformat>NDF</displayformat>
							<source>source</source>
							<reel>
								<name>JonWills</name>
							</reel>
						</timecode>
						<media>
							<video>
								<duration>1599</duration>
								<samplecharacteristics>
									<width>1280</width>
									<height>720</height>
								</samplecharacteristics>
							</video>
							<audio>
								<samplecharacteristics>
									<samplerate>48000</samplerate>
									<depth>16</depth>
								</samplecharacteristics>
								<channelcount>2</channelcount>
								<layout>stereo</layout>
								<audiochannel>
									<sourcechannel>1</sourcechannel>
									<channellabel>left</channellabel>
								</audiochannel>
								<audiochannel>
									<sourcechannel>2</sourcechannel>
									<channellabel>right</channellabel>
								</audiochannel>
							</audio>
						</media>
					</file>
					<sourcetrack>
						<mediatype>video</mediatype>
					</sourcetrack>
					<fielddominance>none</fielddominance>
					<itemhistory>
						<uuid>8090CB9B-E194-427D-9DEC-BE333E82DAC7</uuid>
						<uuid>9240E552-79B7-4D42-84D4-4075C7C48F6D</uuid>
					</itemhistory>
				</clipitem>
				<clipitem id="JonWills045Subclipg">
					<name>JonWills045Subclipg</name>
					<duration>935</duration>
					<rate>
						<ntsc>FALSE</ntsc>
						<timebase>25</timebase>
					</rate>
					<in>0</in>
					<out>934</out>
					<start>65319</start>
					<end>66253</end>
					<pixelaspectratio>Square</pixelaspectratio>
					<anamorphic>FALSE</anamorphic>
					<alphatype>none</alphatype>
					<logginginfo>
						<scene/>
						<shottake/>
						<lognote/>
						<good>FALSE</good>
					</logginginfo>
					<labels>
						<label2/>
					</labels>
					<comments>
						<mastercomment1/>
						<mastercomment2/>
						<mastercomment3/>
						<mastercomment4/>
					</comments>
					<file id="JonWills045Subclipg1">
						<name>JonWills045Subclipg</name>
						<pathurl>file://localhost/Volumes/Michael's%20Passport/woodbdrigenov2011media/JonWills045Subclipg</pathurl>
						<rate>
							<timebase>25</timebase>
						</rate>
						<duration>935</duration>
						<metadata>
							<storage>QuickTime</storage>
							<key>com.apple.finalcutstudio.media.uuid</key>
							<size>36</size>
							<type>UTF8</type>
							<value>02D8B4C5-2C6C-49E2-8F2D-C5319FE9EA01</value>
						</metadata>
						<metadata>
							<storage>QuickTime</storage>
							<key>com.apple.finalcutstudio.media.history.uuid</key>
							<size>36</size>
							<type>UTF8</type>
							<value>B923C452-0CA4-45C0-BCA1-327A9FBD7698</value>
						</metadata>
						<timecode>
							<rate>
								<timebase>25</timebase>
							</rate>
							<string>00:06:52:13</string>
							<frame>10313</frame>
							<displayformat>NDF</displayformat>
							<source>source</source>
							<reel>
								<name>JonWills</name>
							</reel>
						</timecode>
						<media>
							<video>
								<duration>935</duration>
								<samplecharacteristics>
									<width>1280</width>
									<height>720</height>
								</samplecharacteristics>
							</video>
							<audio>
								<samplecharacteristics>
									<samplerate>48000</samplerate>
									<depth>16</depth>
								</samplecharacteristics>
								<channelcount>2</channelcount>
								<layout>stereo</layout>
								<audiochannel>
									<sourcechannel>1</sourcechannel>
									<channellabel>left</channellabel>
								</audiochannel>
								<audiochannel>
									<sourcechannel>2</sourcechannel>
									<channellabel>right</channellabel>
								</audiochannel>
							</audio>
						</media>
					</file>
					<sourcetrack>
						<mediatype>video</mediatype>
					</sourcetrack>
					<fielddominance>none</fielddominance>
					<itemhistory>
						<uuid>6F8EE83B-9143-4D55-B920-A162AB838AA3</uuid>
						<uuid>416F8ACF-0F55-4DF9-85BA-F8C9736565F7</uuid>
					</itemhistory>
				</clipitem>
				<clipitem id="JonWills045Subclip">
					<name>JonWills045Subclip</name>
					<duration>2149</duration>
					<rate>
						<ntsc>FALSE</ntsc>
						<timebase>25</timebase>
					</rate>
					<in>0</in>
					<out>2148</out>
					<start>66429</start>
					<end>68577</end>
					<pixelaspectratio>Square</pixelaspectratio>
					<anamorphic>FALSE</anamorphic>
					<alphatype>none</alphatype>
					<logginginfo>
						<scene/>
						<shottake/>
						<lognote/>
						<good>FALSE</good>
					</logginginfo>
					<labels>
						<label2/>
					</labels>
					<comments>
						<mastercomment1/>
						<mastercomment2/>
						<mastercomment3/>
						<mastercomment4/>
					</comments>
					<file id="JonWills045Subclip1">
						<name>JonWills045Subclip</name>
						<pathurl>file://localhost/Volumes/Michael's%20Passport/woodbdrigenov2011media/JonWills045Subclip</pathurl>
						<rate>
							<timebase>25</timebase>
						</rate>
						<duration>2149</duration>
						<metadata>
							<storage>QuickTime</storage>
							<key>com.apple.finalcutstudio.media.uuid</key>
							<size>36</size>
							<type>UTF8</type>
							<value>CBCE38C8-16B2-4F42-894A-FD2151FD8368</value>
						</metadata>
						<metadata>
							<storage>QuickTime</storage>
							<key>com.apple.finalcutstudio.media.history.uuid</key>
							<size>36</size>
							<type>UTF8</type>
							<value>B923C452-0CA4-45C0-BCA1-327A9FBD7698</value>
						</metadata>
						<timecode>
							<rate>
								<timebase>25</timebase>
							</rate>
							<string>00:07:36:23</string>
							<frame>11423</frame>
							<displayformat>NDF</displayformat>
							<source>source</source>
							<reel>
								<name>JonWills</name>
							</reel>
						</timecode>
						<media>
							<video>
								<duration>2149</duration>
								<samplecharacteristics>
									<width>1280</width>
									<height>720</height>
								</samplecharacteristics>
							</video>
							<audio>
								<samplecharacteristics>
									<samplerate>48000</samplerate>
									<depth>16</depth>
								</samplecharacteristics>
								<channelcount>2</channelcount>
								<layout>stereo</layout>
								<audiochannel>
									<sourcechannel>1</sourcechannel>
									<channellabel>left</channellabel>
								</audiochannel>
								<audiochannel>
									<sourcechannel>2</sourcechannel>
									<channellabel>right</channellabel>
								</audiochannel>
							</audio>
						</media>
					</file>
					<sourcetrack>
						<mediatype>video</mediatype>
					</sourcetrack>
					<fielddominance>none</fielddominance>
					<itemhistory>
						<uuid>5FBF036A-7E37-4AD7-A2B4-665BCB42EF28</uuid>
						<uuid>9872087E-40A1-4827-9EDD-F8731C5AC184</uuid>
					</itemhistory>
				</clipitem>
				<clipitem id="JonWills046Subclipa">
					<name>JonWills046Subclipa</name>
					<duration>1323</duration>
					<rate>
						<ntsc>FALSE</ntsc>
						<timebase>25</timebase>
					</rate>
					<in>0</in>
					<out>1322</out>
					<start>69450</start>
					<end>70772</end>
					<pixelaspectratio>Square</pixelaspectratio>
					<anamorphic>FALSE</anamorphic>
					<alphatype>none</alphatype>
					<logginginfo>
						<scene/>
						<shottake/>
						<lognote/>
						<good>FALSE</good>
					</logginginfo>
					<labels>
						<label2/>
					</labels>
					<comments>
						<mastercomment1/>
						<mastercomment2/>
						<mastercomment3/>
						<mastercomment4/>
					</comments>
					<file id="JonWills046Subclipa1">
						<name>JonWills046Subclipa</name>
						<pathurl>file://localhost/Volumes/Michael's%20Passport/woodbdrigenov2011media/JonWills046Subclipa</pathurl>
						<rate>
							<timebase>25</timebase>
						</rate>
						<duration>1323</duration>
						<metadata>
							<storage>QuickTime</storage>
							<key>com.apple.finalcutstudio.media.uuid</key>
							<size>36</size>
							<type>UTF8</type>
							<value>CA500FCE-6CA3-41AA-B3D5-2498EE26F15D</value>
						</metadata>
						<metadata>
							<storage>QuickTime</storage>
							<key>com.apple.finalcutstudio.media.history.uuid</key>
							<size>36</size>
							<type>UTF8</type>
							<value>E317FB46-381B-4B40-AB09-9C12C2BA5549</value>
						</metadata>
						<timecode>
							<rate>
								<timebase>25</timebase>
							</rate>
							<string>00:00:00:00</string>
							<frame>0</frame>
							<displayformat>NDF</displayformat>
							<source>source</source>
							<reel>
								<name>JonWills</name>
							</reel>
						</timecode>
						<media>
							<video>
								<duration>1323</duration>
								<samplecharacteristics>
									<width>1280</width>
									<height>720</height>
								</samplecharacteristics>
							</video>
							<audio>
								<samplecharacteristics>
									<samplerate>48000</samplerate>
									<depth>16</depth>
								</samplecharacteristics>
								<channelcount>2</channelcount>
								<layout>stereo</layout>
								<audiochannel>
									<sourcechannel>1</sourcechannel>
									<channellabel>left</channellabel>
								</audiochannel>
								<audiochannel>
									<sourcechannel>2</sourcechannel>
									<channellabel>right</channellabel>
								</audiochannel>
							</audio>
						</media>
					</file>
					<sourcetrack>
						<mediatype>video</mediatype>
					</sourcetrack>
					<fielddominance>none</fielddominance>
					<itemhistory>
						<uuid>23D3879C-003F-4464-8A66-88F795678869</uuid>
						<uuid>C73AE766-EB03-4BC3-A608-A76F557DB44B</uuid>
					</itemhistory>
				</clipitem>
				<clipitem id="JonWills046Subclipe">
					<name>JonWills046Subclipe</name>
					<duration>968</duration>
					<rate>
						<ntsc>FALSE</ntsc>
						<timebase>25</timebase>
					</rate>
					<in>0</in>
					<out>968</out>
					<start>70772</start>
					<end>71740</end>
					<pixelaspectratio>Square</pixelaspectratio>
					<anamorphic>FALSE</anamorphic>
					<alphatype>none</alphatype>
					<logginginfo>
						<scene/>
						<shottake/>
						<lognote/>
						<good>FALSE</good>
					</logginginfo>
					<labels>
						<label>Good Take</label>
						<label2/>
					</labels>
					<comments>
						<mastercomment1/>
						<mastercomment2/>
						<mastercomment3/>
						<mastercomment4/>
					</comments>
					<file id="JonWills046Subclipe1">
						<name>JonWills046Subclipe</name>
						<pathurl>file://localhost/Volumes/Michael's%20Passport/woodbdrigenov2011media/JonWills046Subclipe</pathurl>
						<rate>
							<timebase>25</timebase>
						</rate>
						<duration>968</duration>
						<metadata>
							<storage>QuickTime</storage>
							<key>com.apple.finalcutstudio.media.uuid</key>
							<size>36</size>
							<type>UTF8</type>
							<value>4F58F540-1CD5-49E2-899D-182FF043E301</value>
						</metadata>
						<metadata>
							<storage>QuickTime</storage>
							<key>com.apple.finalcutstudio.media.history.uuid</key>
							<size>36</size>
							<type>UTF8</type>
							<value>E317FB46-381B-4B40-AB09-9C12C2BA5549</value>
						</metadata>
						<timecode>
							<rate>
								<timebase>25</timebase>
							</rate>
							<string>00:00:52:22</string>
							<frame>1322</frame>
							<displayformat>NDF</displayformat>
							<source>source</source>
							<reel>
								<name>JonWills</name>
							</reel>
						</timecode>
						<media>
							<video>
								<duration>968</duration>
								<samplecharacteristics>
									<width>1280</width>
									<height>720</height>
								</samplecharacteristics>
							</video>
							<audio>
								<samplecharacteristics>
									<samplerate>48000</samplerate>
									<depth>16</depth>
								</samplecharacteristics>
								<channelcount>2</channelcount>
								<layout>stereo</layout>
								<audiochannel>
									<sourcechannel>1</sourcechannel>
									<channellabel>left</channellabel>
								</audiochannel>
								<audiochannel>
									<sourcechannel>2</sourcechannel>
									<channellabel>right</channellabel>
								</audiochannel>
							</audio>
						</media>
					</file>
					<sourcetrack>
						<mediatype>video</mediatype>
					</sourcetrack>
					<fielddominance>none</fielddominance>
					<itemhistory>
						<uuid>39BE4EEE-A228-4C8F-99B4-9C600333101A</uuid>
						<uuid>5D218A6F-ECB0-4399-A4E1-CE41F4BE0F5E</uuid>
					</itemhistory>
				</clipitem>
				<clipitem id="JonWills046Subclipb">
					<name>JonWills046Subclipb</name>
					<duration>633</duration>
					<rate>
						<ntsc>FALSE</ntsc>
						<timebase>25</timebase>
					</rate>
					<in>0</in>
					<out>633</out>
					<start>71866</start>
					<end>72499</end>
					<pixelaspectratio>Square</pixelaspectratio>
					<anamorphic>FALSE</anamorphic>
					<alphatype>none</alphatype>
					<logginginfo>
						<scene/>
						<shottake/>
						<lognote/>
						<good>FALSE</good>
					</logginginfo>
					<labels>
						<label2/>
					</labels>
					<comments>
						<mastercomment1/>
						<mastercomment2/>
						<mastercomment3/>
						<mastercomment4/>
					</comments>
					<file id="JonWills046Subclipb1">
						<name>JonWills046Subclipb</name>
						<pathurl>file://localhost/Volumes/Michael's%20Passport/woodbdrigenov2011media/JonWills046Subclipb</pathurl>
						<rate>
							<timebase>25</timebase>
						</rate>
						<duration>633</duration>
						<metadata>
							<storage>QuickTime</storage>
							<key>com.apple.finalcutstudio.media.uuid</key>
							<size>36</size>
							<type>UTF8</type>
							<value>396BE38C-888F-4D5F-AB18-BB49C7F3EEE4</value>
						</metadata>
						<metadata>
							<storage>QuickTime</storage>
							<key>com.apple.finalcutstudio.media.history.uuid</key>
							<size>36</size>
							<type>UTF8</type>
							<value>E317FB46-381B-4B40-AB09-9C12C2BA5549</value>
						</metadata>
						<timecode>
							<rate>
								<timebase>25</timebase>
							</rate>
							<string>00:01:36:16</string>
							<frame>2416</frame>
							<displayformat>NDF</displayformat>
							<source>source</source>
							<reel>
								<name>JonWills</name>
							</reel>
						</timecode>
						<media>
							<video>
								<duration>633</duration>
								<samplecharacteristics>
									<width>1280</width>
									<height>720</height>
								</samplecharacteristics>
							</video>
							<audio>
								<samplecharacteristics>
									<samplerate>48000</samplerate>
									<depth>16</depth>
								</samplecharacteristics>
								<channelcount>2</channelcount>
								<layout>stereo</layout>
								<audiochannel>
									<sourcechannel>1</sourcechannel>
									<channellabel>left</channellabel>
								</audiochannel>
								<audiochannel>
									<sourcechannel>2</sourcechannel>
									<channellabel>right</channellabel>
								</audiochannel>
							</audio>
						</media>
					</file>
					<sourcetrack>
						<mediatype>video</mediatype>
					</sourcetrack>
					<fielddominance>none</fielddominance>
					<itemhistory>
						<uuid>40DFF835-C787-4718-B214-23A209CBE428</uuid>
						<uuid>71B3F0E3-39F7-4464-B278-A55CE9D01FB3</uuid>
					</itemhistory>
				</clipitem>
				<clipitem id="JonWills046Subclipc">
					<name>JonWills046Subclipc</name>
					<duration>538</duration>
					<rate>
						<ntsc>FALSE</ntsc>
						<timebase>25</timebase>
					</rate>
					<in>0</in>
					<out>537</out>
					<start>72633</start>
					<end>73170</end>
					<pixelaspectratio>Square</pixelaspectratio>
					<anamorphic>FALSE</anamorphic>
					<alphatype>none</alphatype>
					<logginginfo>
						<scene/>
						<shottake/>
						<lognote/>
						<good>FALSE</good>
					</logginginfo>
					<labels>
						<label2/>
					</labels>
					<comments>
						<mastercomment1/>
						<mastercomment2/>
						<mastercomment3/>
						<mastercomment4/>
					</comments>
					<file id="JonWills046Subclipc1">
						<name>JonWills046Subclipc</name>
						<pathurl>file://localhost/Volumes/Michael's%20Passport/woodbdrigenov2011media/JonWills046Subclipc</pathurl>
						<rate>
							<timebase>25</timebase>
						</rate>
						<duration>538</duration>
						<metadata>
							<storage>QuickTime</storage>
							<key>com.apple.finalcutstudio.media.uuid</key>
							<size>36</size>
							<type>UTF8</type>
							<value>E683A963-8969-4738-8A1E-8E7B8B9D6688</value>
						</metadata>
						<metadata>
							<storage>QuickTime</storage>
							<key>com.apple.finalcutstudio.media.history.uuid</key>
							<size>36</size>
							<type>UTF8</type>
							<value>E317FB46-381B-4B40-AB09-9C12C2BA5549</value>
						</metadata>
						<timecode>
							<rate>
								<timebase>25</timebase>
							</rate>
							<string>00:02:07:08</string>
							<frame>3183</frame>
							<displayformat>NDF</displayformat>
							<source>source</source>
							<reel>
								<name>JonWills</name>
							</reel>
						</timecode>
						<media>
							<video>
								<duration>538</duration>
								<samplecharacteristics>
									<width>1280</width>
									<height>720</height>
								</samplecharacteristics>
							</video>
							<audio>
								<samplecharacteristics>
									<samplerate>48000</samplerate>
									<depth>16</depth>
								</samplecharacteristics>
								<channelcount>2</channelcount>
								<layout>stereo</layout>
								<audiochannel>
									<sourcechannel>1</sourcechannel>
									<channellabel>left</channellabel>
								</audiochannel>
								<audiochannel>
									<sourcechannel>2</sourcechannel>
									<channellabel>right</channellabel>
								</audiochannel>
							</audio>
						</media>
					</file>
					<sourcetrack>
						<mediatype>video</mediatype>
					</sourcetrack>
					<fielddominance>none</fielddominance>
					<itemhistory>
						<uuid>2DC4DD49-4F88-4415-9711-47CAA81C3742</uuid>
						<uuid>FAD02C92-DEF5-49DA-8E72-4AA1831F6296</uuid>
					</itemhistory>
				</clipitem>
				<clipitem id="JonWills046Subclipe2">
					<name>JonWills046Subclipe</name>
					<duration>1524</duration>
					<rate>
						<ntsc>FALSE</ntsc>
						<timebase>25</timebase>
					</rate>
					<in>0</in>
					<out>1524</out>
					<start>73230</start>
					<end>74754</end>
					<pixelaspectratio>Square</pixelaspectratio>
					<anamorphic>FALSE</anamorphic>
					<alphatype>none</alphatype>
					<logginginfo>
						<scene/>
						<shottake/>
						<lognote/>
						<good>FALSE</good>
					</logginginfo>
					<labels>
						<label2/>
					</labels>
					<comments>
						<mastercomment1/>
						<mastercomment2/>
						<mastercomment3/>
						<mastercomment4/>
					</comments>
					<file id="JonWills046Subclipd">
						<name>JonWills046Subclipd</name>
						<pathurl>file://localhost/Volumes/Michael's%20Passport/woodbdrigenov2011media/JonWills046Subclipd</pathurl>
						<rate>
							<timebase>25</timebase>
						</rate>
						<duration>1524</duration>
						<metadata>
							<storage>QuickTime</storage>
							<key>com.apple.finalcutstudio.media.uuid</key>
							<size>36</size>
							<type>UTF8</type>
							<value>5345A9B5-E670-4CEC-8919-9558CF5D6892</value>
						</metadata>
						<metadata>
							<storage>QuickTime</storage>
							<key>com.apple.finalcutstudio.media.history.uuid</key>
							<size>36</size>
							<type>UTF8</type>
							<value>E317FB46-381B-4B40-AB09-9C12C2BA5549</value>
						</metadata>
						<timecode>
							<rate>
								<timebase>25</timebase>
							</rate>
							<string>00:02:31:05</string>
							<frame>3780</frame>
							<displayformat>NDF</displayformat>
							<source>source</source>
							<reel>
								<name>JonWills</name>
							</reel>
						</timecode>
						<media>
							<video>
								<duration>1524</duration>
								<samplecharacteristics>
									<width>1280</width>
									<height>720</height>
								</samplecharacteristics>
							</video>
							<audio>
								<samplecharacteristics>
									<samplerate>48000</samplerate>
									<depth>16</depth>
								</samplecharacteristics>
								<channelcount>2</channelcount>
								<layout>stereo</layout>
								<audiochannel>
									<sourcechannel>1</sourcechannel>
									<channellabel>left</channellabel>
								</audiochannel>
								<audiochannel>
									<sourcechannel>2</sourcechannel>
									<channellabel>right</channellabel>
								</audiochannel>
							</audio>
						</media>
					</file>
					<sourcetrack>
						<mediatype>video</mediatype>
					</sourcetrack>
					<fielddominance>none</fielddominance>
					<itemhistory>
						<uuid>02D0FE59-378E-408A-B8DB-4591E6580CA0</uuid>
						<uuid>08629168-AEEB-4C44-9477-13BD6708D946</uuid>
					</itemhistory>
				</clipitem>
				<clipitem id="JonWills047 ">
					<name>JonWills047</name>
					<duration>660</duration>
					<rate>
						<ntsc>FALSE</ntsc>
						<timebase>25</timebase>
					</rate>
					<in>0</in>
					<out>659</out>
					<start>75598</start>
					<end>76257</end>
					<pixelaspectratio>Square</pixelaspectratio>
					<anamorphic>FALSE</anamorphic>
					<alphatype>none</alphatype>
					<logginginfo>
						<scene/>
						<shottake/>
						<lognote/>
						<good>FALSE</good>
					</logginginfo>
					<labels>
						<label2/>
					</labels>
					<comments>
						<mastercomment1/>
						<mastercomment2/>
						<mastercomment3/>
						<mastercomment4/>
					</comments>
					<file id="JonWills047 1">
						<name>JonWills047</name>
						<pathurl>file://localhost/Volumes/Michael's%20Passport/woodbdrigenov2011media/JonWills047</pathurl>
						<rate>
							<timebase>25</timebase>
						</rate>
						<duration>660</duration>
						<metadata>
							<storage>QuickTime</storage>
							<key>com.apple.finalcutstudio.media.uuid</key>
							<size>36</size>
							<type>UTF8</type>
							<value>D6AA7AE2-CCCC-4777-AC55-541F16A94DC0</value>
						</metadata>
						<metadata>
							<storage>QuickTime</storage>
							<key>com.apple.finalcutstudio.media.history.uuid</key>
							<size>36</size>
							<type>UTF8</type>
							<value>BF249503-67EC-4905-B1BF-DF29AEDACB4F</value>
						</metadata>
						<timecode>
							<rate>
								<timebase>25</timebase>
							</rate>
							<string>00:00:00:00</string>
							<frame>0</frame>
							<displayformat>NDF</displayformat>
							<source>source</source>
							<reel>
								<name>JonWills</name>
							</reel>
						</timecode>
						<media>
							<video>
								<duration>660</duration>
								<samplecharacteristics>
									<width>1280</width>
									<height>720</height>
								</samplecharacteristics>
							</video>
							<audio>
								<samplecharacteristics>
									<samplerate>48000</samplerate>
									<depth>16</depth>
								</samplecharacteristics>
								<channelcount>2</channelcount>
								<layout>stereo</layout>
								<audiochannel>
									<sourcechannel>1</sourcechannel>
									<channellabel>left</channellabel>
								</audiochannel>
								<audiochannel>
									<sourcechannel>2</sourcechannel>
									<channellabel>right</channellabel>
								</audiochannel>
							</audio>
						</media>
					</file>
					<sourcetrack>
						<mediatype>video</mediatype>
					</sourcetrack>
					<fielddominance>none</fielddominance>
					<itemhistory>
						<uuid>82CBDBBE-12FC-4590-807B-60D66B52E856</uuid>
						<uuid>74B561C9-E16D-4C36-9087-357CAE89DE9C</uuid>
					</itemhistory>
				</clipitem>
				<clipitem id="JonWills048Subclipa">
					<name>JonWills048Subclipa</name>
					<duration>680</duration>
					<rate>
						<ntsc>FALSE</ntsc>
						<timebase>25</timebase>
					</rate>
					<in>0</in>
					<out>680</out>
					<start>76335</start>
					<end>77015</end>
					<pixelaspectratio>Square</pixelaspectratio>
					<anamorphic>FALSE</anamorphic>
					<alphatype>none</alphatype>
					<logginginfo>
						<scene/>
						<shottake/>
						<lognote/>
						<good>FALSE</good>
					</logginginfo>
					<labels>
						<label2/>
					</labels>
					<comments>
						<mastercomment1/>
						<mastercomment2/>
						<mastercomment3/>
						<mastercomment4/>
					</comments>
					<file id="JonWills048Subclipa1">
						<name>JonWills048Subclipa</name>
						<pathurl>file://localhost/Volumes/Michael's%20Passport/woodbdrigenov2011media/JonWills048Subclipa</pathurl>
						<rate>
							<timebase>25</timebase>
						</rate>
						<duration>680</duration>
						<metadata>
							<storage>QuickTime</storage>
							<key>com.apple.finalcutstudio.media.uuid</key>
							<size>36</size>
							<type>UTF8</type>
							<value>6F173797-7D97-4FB4-AF39-70ED7985B52B</value>
						</metadata>
						<metadata>
							<storage>QuickTime</storage>
							<key>com.apple.finalcutstudio.media.history.uuid</key>
							<size>36</size>
							<type>UTF8</type>
							<value>BA4E7C9B-DA70-426F-A9F6-E309B70A43D8</value>
						</metadata>
						<timecode>
							<rate>
								<timebase>25</timebase>
							</rate>
							<string>00:00:00:00</string>
							<frame>0</frame>
							<displayformat>NDF</displayformat>
							<source>source</source>
							<reel>
								<name>JonWills</name>
							</reel>
						</timecode>
						<media>
							<video>
								<duration>680</duration>
								<samplecharacteristics>
									<width>1280</width>
									<height>720</height>
								</samplecharacteristics>
							</video>
							<audio>
								<samplecharacteristics>
									<samplerate>48000</samplerate>
									<depth>16</depth>
								</samplecharacteristics>
								<channelcount>2</channelcount>
								<layout>stereo</layout>
								<audiochannel>
									<sourcechannel>1</sourcechannel>
									<channellabel>left</channellabel>
								</audiochannel>
								<audiochannel>
									<sourcechannel>2</sourcechannel>
									<channellabel>right</channellabel>
								</audiochannel>
							</audio>
						</media>
					</file>
					<sourcetrack>
						<mediatype>video</mediatype>
					</sourcetrack>
					<fielddominance>none</fielddominance>
					<itemhistory>
						<uuid>12763806-E61F-4394-A506-96F53A9D2E6A</uuid>
						<uuid>1EB23A73-2376-4D42-8D9C-B72D89424A13</uuid>
					</itemhistory>
				</clipitem>
				<clipitem id="JonWills048Subclipb">
					<name>JonWills048Subclipb</name>
					<duration>617</duration>
					<rate>
						<ntsc>FALSE</ntsc>
						<timebase>25</timebase>
					</rate>
					<in>0</in>
					<out>616</out>
					<start>77064</start>
					<end>77680</end>
					<pixelaspectratio>Square</pixelaspectratio>
					<anamorphic>FALSE</anamorphic>
					<alphatype>none</alphatype>
					<logginginfo>
						<scene/>
						<shottake/>
						<lognote/>
						<good>FALSE</good>
					</logginginfo>
					<labels>
						<label2/>
					</labels>
					<comments>
						<mastercomment1/>
						<mastercomment2/>
						<mastercomment3/>
						<mastercomment4/>
					</comments>
					<file id="JonWills048Subclipb1">
						<name>JonWills048Subclipb</name>
						<pathurl>file://localhost/Volumes/Michael's%20Passport/woodbdrigenov2011media/JonWills048Subclipb</pathurl>
						<rate>
							<timebase>25</timebase>
						</rate>
						<duration>617</duration>
						<metadata>
							<storage>QuickTime</storage>
							<key>com.apple.finalcutstudio.media.uuid</key>
							<size>36</size>
							<type>UTF8</type>
							<value>AB48FBA6-595C-4142-84AA-0C33A3FB4E21</value>
						</metadata>
						<metadata>
							<storage>QuickTime</storage>
							<key>com.apple.finalcutstudio.media.history.uuid</key>
							<size>36</size>
							<type>UTF8</type>
							<value>BA4E7C9B-DA70-426F-A9F6-E309B70A43D8</value>
						</metadata>
						<timecode>
							<rate>
								<timebase>25</timebase>
							</rate>
							<string>00:00:29:04</string>
							<frame>729</frame>
							<displayformat>NDF</displayformat>
							<source>source</source>
							<reel>
								<name>JonWills</name>
							</reel>
						</timecode>
						<media>
							<video>
								<duration>617</duration>
								<samplecharacteristics>
									<width>1280</width>
									<height>720</height>
								</samplecharacteristics>
							</video>
							<audio>
								<samplecharacteristics>
									<samplerate>48000</samplerate>
									<depth>16</depth>
								</samplecharacteristics>
								<channelcount>2</channelcount>
								<layout>stereo</layout>
								<audiochannel>
									<sourcechannel>1</sourcechannel>
									<channellabel>left</channellabel>
								</audiochannel>
								<audiochannel>
									<sourcechannel>2</sourcechannel>
									<channellabel>right</channellabel>
								</audiochannel>
							</audio>
						</media>
					</file>
					<sourcetrack>
						<mediatype>video</mediatype>
					</sourcetrack>
					<fielddominance>none</fielddominance>
					<itemhistory>
						<uuid>45ABAFAA-DECF-4F02-9378-48DE254F7C8B</uuid>
						<uuid>E136255B-2DEC-4E96-BD14-6841BBF07CB8</uuid>
					</itemhistory>
				</clipitem>
				<clipitem id="JonWills048Subclipc">
					<name>JonWills048Subclipc</name>
					<duration>596</duration>
					<rate>
						<ntsc>FALSE</ntsc>
						<timebase>25</timebase>
					</rate>
					<in>0</in>
					<out>595</out>
					<start>77733</start>
					<end>78328</end>
					<pixelaspectratio>Square</pixelaspectratio>
					<anamorphic>FALSE</anamorphic>
					<alphatype>none</alphatype>
					<logginginfo>
						<scene/>
						<shottake/>
						<lognote/>
						<good>FALSE</good>
					</logginginfo>
					<labels>
						<label2/>
					</labels>
					<comments>
						<mastercomment1/>
						<mastercomment2/>
						<mastercomment3/>
						<mastercomment4/>
					</comments>
					<file id="JonWills048Subclipc1">
						<name>JonWills048Subclipc</name>
						<pathurl>file://localhost/Volumes/Michael's%20Passport/woodbdrigenov2011media/JonWills048Subclipc</pathurl>
						<rate>
							<timebase>25</timebase>
						</rate>
						<duration>596</duration>
						<metadata>
							<storage>QuickTime</storage>
							<key>com.apple.finalcutstudio.media.uuid</key>
							<size>36</size>
							<type>UTF8</type>
							<value>280BA0E7-602F-4196-8ADC-59A560AA01DC</value>
						</metadata>
						<metadata>
							<storage>QuickTime</storage>
							<key>com.apple.finalcutstudio.media.history.uuid</key>
							<size>36</size>
							<type>UTF8</type>
							<value>BA4E7C9B-DA70-426F-A9F6-E309B70A43D8</value>
						</metadata>
						<timecode>
							<rate>
								<timebase>25</timebase>
							</rate>
							<string>00:00:55:23</string>
							<frame>1398</frame>
							<displayformat>NDF</displayformat>
							<source>source</source>
							<reel>
								<name>JonWills</name>
							</reel>
						</timecode>
						<media>
							<video>
								<duration>596</duration>
								<samplecharacteristics>
									<width>1280</width>
									<height>720</height>
								</samplecharacteristics>
							</video>
							<audio>
								<samplecharacteristics>
									<samplerate>48000</samplerate>
									<depth>16</depth>
								</samplecharacteristics>
								<channelcount>2</channelcount>
								<layout>stereo</layout>
								<audiochannel>
									<sourcechannel>1</sourcechannel>
									<channellabel>left</channellabel>
								</audiochannel>
								<audiochannel>
									<sourcechannel>2</sourcechannel>
									<channellabel>right</channellabel>
								</audiochannel>
							</audio>
						</media>
					</file>
					<sourcetrack>
						<mediatype>video</mediatype>
					</sourcetrack>
					<fielddominance>none</fielddominance>
					<itemhistory>
						<uuid>055E3958-6641-4928-9381-C4C81AC0277C</uuid>
						<uuid>4D8AF4CC-CB50-4B2E-B8FF-B52CB3517BD0</uuid>
					</itemhistory>
				</clipitem>
				<clipitem id="JonWills048Subclipd">
					<name>JonWills048Subclipd</name>
					<duration>623</duration>
					<rate>
						<ntsc>FALSE</ntsc>
						<timebase>25</timebase>
					</rate>
					<in>0</in>
					<out>623</out>
					<start>78362</start>
					<end>78985</end>
					<pixelaspectratio>Square</pixelaspectratio>
					<anamorphic>FALSE</anamorphic>
					<alphatype>none</alphatype>
					<logginginfo>
						<scene/>
						<shottake/>
						<lognote/>
						<good>FALSE</good>
					</logginginfo>
					<labels>
						<label2/>
					</labels>
					<comments>
						<mastercomment1/>
						<mastercomment2/>
						<mastercomment3/>
						<mastercomment4/>
					</comments>
					<file id="JonWills048Subclipd1">
						<name>JonWills048Subclipd</name>
						<pathurl>file://localhost/Volumes/Michael's%20Passport/woodbdrigenov2011media/JonWills048Subclipd</pathurl>
						<rate>
							<timebase>25</timebase>
						</rate>
						<duration>623</duration>
						<metadata>
							<storage>QuickTime</storage>
							<key>com.apple.finalcutstudio.media.uuid</key>
							<size>36</size>
							<type>UTF8</type>
							<value>9C751621-8C65-4618-AE22-C81FBD4ADCCD</value>
						</metadata>
						<metadata>
							<storage>QuickTime</storage>
							<key>com.apple.finalcutstudio.media.history.uuid</key>
							<size>36</size>
							<type>UTF8</type>
							<value>BA4E7C9B-DA70-426F-A9F6-E309B70A43D8</value>
						</metadata>
						<timecode>
							<rate>
								<timebase>25</timebase>
							</rate>
							<string>00:01:21:02</string>
							<frame>2027</frame>
							<displayformat>NDF</displayformat>
							<source>source</source>
							<reel>
								<name>JonWills</name>
							</reel>
						</timecode>
						<media>
							<video>
								<duration>623</duration>
								<samplecharacteristics>
									<width>1280</width>
									<height>720</height>
								</samplecharacteristics>
							</video>
							<audio>
								<samplecharacteristics>
									<samplerate>48000</samplerate>
									<depth>16</depth>
								</samplecharacteristics>
								<channelcount>2</channelcount>
								<layout>stereo</layout>
								<audiochannel>
									<sourcechannel>1</sourcechannel>
									<channellabel>left</channellabel>
								</audiochannel>
								<audiochannel>
									<sourcechannel>2</sourcechannel>
									<channellabel>right</channellabel>
								</audiochannel>
							</audio>
						</media>
					</file>
					<sourcetrack>
						<mediatype>video</mediatype>
					</sourcetrack>
					<fielddominance>none</fielddominance>
					<itemhistory>
						<uuid>AD843678-39F1-4C9C-8820-27D563D92D64</uuid>
						<uuid>EE75A0C7-9B6D-4C49-8E82-F391225C60BD</uuid>
					</itemhistory>
				</clipitem>
				<clipitem id="JonWills048Subclipe">
					<name>JonWills048Subclipe</name>
					<duration>453</duration>
					<rate>
						<ntsc>FALSE</ntsc>
						<timebase>25</timebase>
					</rate>
					<in>0</in>
					<out>452</out>
					<start>79022</start>
					<end>79474</end>
					<pixelaspectratio>Square</pixelaspectratio>
					<anamorphic>FALSE</anamorphic>
					<alphatype>none</alphatype>
					<logginginfo>
						<scene/>
						<shottake/>
						<lognote/>
						<good>FALSE</good>
					</logginginfo>
					<labels>
						<label2/>
					</labels>
					<comments>
						<mastercomment1/>
						<mastercomment2/>
						<mastercomment3/>
						<mastercomment4/>
					</comments>
					<file id="JonWills048Subclipe1">
						<name>JonWills048Subclipe</name>
						<pathurl>file://localhost/Volumes/Michael's%20Passport/woodbdrigenov2011media/JonWills048Subclipe</pathurl>
						<rate>
							<timebase>25</timebase>
						</rate>
						<duration>453</duration>
						<metadata>
							<storage>QuickTime</storage>
							<key>com.apple.finalcutstudio.media.uuid</key>
							<size>36</size>
							<type>UTF8</type>
							<value>A750BFB4-D9F9-40E0-AC5F-88A2944F9A85</value>
						</metadata>
						<metadata>
							<storage>QuickTime</storage>
							<key>com.apple.finalcutstudio.media.history.uuid</key>
							<size>36</size>
							<type>UTF8</type>
							<value>BA4E7C9B-DA70-426F-A9F6-E309B70A43D8</value>
						</metadata>
						<timecode>
							<rate>
								<timebase>25</timebase>
							</rate>
							<string>00:01:47:12</string>
							<frame>2687</frame>
							<displayformat>NDF</displayformat>
							<source>source</source>
							<reel>
								<name>JonWills</name>
							</reel>
						</timecode>
						<media>
							<video>
								<duration>453</duration>
								<samplecharacteristics>
									<width>1280</width>
									<height>720</height>
								</samplecharacteristics>
							</video>
							<audio>
								<samplecharacteristics>
									<samplerate>48000</samplerate>
									<depth>16</depth>
								</samplecharacteristics>
								<channelcount>2</channelcount>
								<layout>stereo</layout>
								<audiochannel>
									<sourcechannel>1</sourcechannel>
									<channellabel>left</channellabel>
								</audiochannel>
								<audiochannel>
									<sourcechannel>2</sourcechannel>
									<channellabel>right</channellabel>
								</audiochannel>
							</audio>
						</media>
					</file>
					<sourcetrack>
						<mediatype>video</mediatype>
					</sourcetrack>
					<fielddominance>none</fielddominance>
					<itemhistory>
						<uuid>A2A36D98-497A-4DB2-B62F-167D8F4EBC5C</uuid>
						<uuid>BECC67D2-F008-42FA-8F8C-E6BA4DF0F4FF</uuid>
					</itemhistory>
				</clipitem>
				<clipitem id="JonWills048Subclipf">
					<name>JonWills048Subclipf</name>
					<duration>306</duration>
					<rate>
						<ntsc>FALSE</ntsc>
						<timebase>25</timebase>
					</rate>
					<in>0</in>
					<out>306</out>
					<start>79515</start>
					<end>79821</end>
					<pixelaspectratio>Square</pixelaspectratio>
					<anamorphic>FALSE</anamorphic>
					<alphatype>none</alphatype>
					<logginginfo>
						<scene/>
						<shottake/>
						<lognote/>
						<good>FALSE</good>
					</logginginfo>
					<labels>
						<label2/>
					</labels>
					<comments>
						<mastercomment1/>
						<mastercomment2/>
						<mastercomment3/>
						<mastercomment4/>
					</comments>
					<file id="JonWills048Subclipf1">
						<name>JonWills048Subclipf</name>
						<pathurl>file://localhost/Volumes/Michael's%20Passport/woodbdrigenov2011media/JonWills048Subclipf</pathurl>
						<rate>
							<timebase>25</timebase>
						</rate>
						<duration>306</duration>
						<metadata>
							<storage>QuickTime</storage>
							<key>com.apple.finalcutstudio.media.uuid</key>
							<size>36</size>
							<type>UTF8</type>
							<value>D66F563D-E136-4B0D-8F04-1AA0E8B47FEA</value>
						</metadata>
						<metadata>
							<storage>QuickTime</storage>
							<key>com.apple.finalcutstudio.media.history.uuid</key>
							<size>36</size>
							<type>UTF8</type>
							<value>BA4E7C9B-DA70-426F-A9F6-E309B70A43D8</value>
						</metadata>
						<timecode>
							<rate>
								<timebase>25</timebase>
							</rate>
							<string>00:02:07:05</string>
							<frame>3180</frame>
							<displayformat>NDF</displayformat>
							<source>source</source>
							<reel>
								<name>JonWills</name>
							</reel>
						</timecode>
						<media>
							<video>
								<duration>306</duration>
								<samplecharacteristics>
									<width>1280</width>
									<height>720</height>
								</samplecharacteristics>
							</video>
							<audio>
								<samplecharacteristics>
									<samplerate>48000</samplerate>
									<depth>16</depth>
								</samplecharacteristics>
								<channelcount>2</channelcount>
								<layout>stereo</layout>
								<audiochannel>
									<sourcechannel>1</sourcechannel>
									<channellabel>left</channellabel>
								</audiochannel>
								<audiochannel>
									<sourcechannel>2</sourcechannel>
									<channellabel>right</channellabel>
								</audiochannel>
							</audio>
						</media>
					</file>
					<sourcetrack>
						<mediatype>video</mediatype>
					</sourcetrack>
					<fielddominance>none</fielddominance>
					<itemhistory>
						<uuid>EAF97383-77DC-4079-AB21-7F90CF5988D3</uuid>
						<uuid>4000771B-87C6-465C-BC6A-A45020A72D10</uuid>
					</itemhistory>
				</clipitem>
				<clipitem id="JonWills048Subclipg">
					<name>JonWills048Subclipg</name>
					<duration>1569</duration>
					<rate>
						<ntsc>FALSE</ntsc>
						<timebase>25</timebase>
					</rate>
					<in>0</in>
					<out>1568</out>
					<start>79850</start>
					<end>81418</end>
					<pixelaspectratio>Square</pixelaspectratio>
					<anamorphic>FALSE</anamorphic>
					<alphatype>none</alphatype>
					<logginginfo>
						<scene/>
						<shottake/>
						<lognote/>
						<good>FALSE</good>
					</logginginfo>
					<labels>
						<label2/>
					</labels>
					<comments>
						<mastercomment1/>
						<mastercomment2/>
						<mastercomment3/>
						<mastercomment4/>
					</comments>
					<file id="JonWills048Subclipg1">
						<name>JonWills048Subclipg</name>
						<pathurl>file://localhost/Volumes/Michael's%20Passport/woodbdrigenov2011media/JonWills048Subclipg</pathurl>
						<rate>
							<timebase>25</timebase>
						</rate>
						<duration>1569</duration>
						<metadata>
							<storage>QuickTime</storage>
							<key>com.apple.finalcutstudio.media.uuid</key>
							<size>36</size>
							<type>UTF8</type>
							<value>0D8999CE-E4C5-4D8E-B05D-C24C6684280E</value>
						</metadata>
						<metadata>
							<storage>QuickTime</storage>
							<key>com.apple.finalcutstudio.media.history.uuid</key>
							<size>36</size>
							<type>UTF8</type>
							<value>BA4E7C9B-DA70-426F-A9F6-E309B70A43D8</value>
						</metadata>
						<timecode>
							<rate>
								<timebase>25</timebase>
							</rate>
							<string>00:02:20:15</string>
							<frame>3515</frame>
							<displayformat>NDF</displayformat>
							<source>source</source>
							<reel>
								<name>JonWills</name>
							</reel>
						</timecode>
						<media>
							<video>
								<duration>1569</duration>
								<samplecharacteristics>
									<width>1280</width>
									<height>720</height>
								</samplecharacteristics>
							</video>
							<audio>
								<samplecharacteristics>
									<samplerate>48000</samplerate>
									<depth>16</depth>
								</samplecharacteristics>
								<channelcount>2</channelcount>
								<layout>stereo</layout>
								<audiochannel>
									<sourcechannel>1</sourcechannel>
									<channellabel>left</channellabel>
								</audiochannel>
								<audiochannel>
									<sourcechannel>2</sourcechannel>
									<channellabel>right</channellabel>
								</audiochannel>
							</audio>
						</media>
					</file>
					<sourcetrack>
						<mediatype>video</mediatype>
					</sourcetrack>
					<fielddominance>none</fielddominance>
					<itemhistory>
						<uuid>B16B9152-1666-440C-8CCB-579B9039744D</uuid>
						<uuid>589FCDDF-75A2-4690-AC09-DA566E8D300C</uuid>
					</itemhistory>
				</clipitem>
				<clipitem id="JonWills048Subcliph">
					<name>JonWills048Subcliph</name>
					<duration>345</duration>
					<rate>
						<ntsc>FALSE</ntsc>
						<timebase>25</timebase>
					</rate>
					<in>0</in>
					<out>344</out>
					<start>81474</start>
					<end>81818</end>
					<pixelaspectratio>Square</pixelaspectratio>
					<anamorphic>FALSE</anamorphic>
					<alphatype>none</alphatype>
					<logginginfo>
						<scene/>
						<shottake/>
						<lognote/>
						<good>FALSE</good>
					</logginginfo>
					<labels>
						<label2/>
					</labels>
					<comments>
						<mastercomment1/>
						<mastercomment2/>
						<mastercomment3/>
						<mastercomment4/>
					</comments>
					<file id="JonWills048Subcliph1">
						<name>JonWills048Subcliph</name>
						<pathurl>file://localhost/Volumes/Michael's%20Passport/woodbdrigenov2011media/JonWills048Subcliph</pathurl>
						<rate>
							<timebase>25</timebase>
						</rate>
						<duration>345</duration>
						<metadata>
							<storage>QuickTime</storage>
							<key>com.apple.finalcutstudio.media.uuid</key>
							<size>36</size>
							<type>UTF8</type>
							<value>A1EE187D-063E-450D-91C5-C5081AE388F4</value>
						</metadata>
						<metadata>
							<storage>QuickTime</storage>
							<key>com.apple.finalcutstudio.media.history.uuid</key>
							<size>36</size>
							<type>UTF8</type>
							<value>BA4E7C9B-DA70-426F-A9F6-E309B70A43D8</value>
						</metadata>
						<timecode>
							<rate>
								<timebase>25</timebase>
							</rate>
							<string>00:03:25:14</string>
							<frame>5139</frame>
							<displayformat>NDF</displayformat>
							<source>source</source>
							<reel>
								<name>JonWills</name>
							</reel>
						</timecode>
						<media>
							<video>
								<duration>345</duration>
								<samplecharacteristics>
									<width>1280</width>
									<height>720</height>
								</samplecharacteristics>
							</video>
							<audio>
								<samplecharacteristics>
									<samplerate>48000</samplerate>
									<depth>16</depth>
								</samplecharacteristics>
								<channelcount>2</channelcount>
								<layout>stereo</layout>
								<audiochannel>
									<sourcechannel>1</sourcechannel>
									<channellabel>left</channellabel>
								</audiochannel>
								<audiochannel>
									<sourcechannel>2</sourcechannel>
									<channellabel>right</channellabel>
								</audiochannel>
							</audio>
						</media>
					</file>
					<sourcetrack>
						<mediatype>video</mediatype>
					</sourcetrack>
					<fielddominance>none</fielddominance>
					<itemhistory>
						<uuid>526C595C-1FFE-4A18-89F2-864C435A732A</uuid>
						<uuid>977FA6DF-B4FD-4459-8943-5355C2EF4D72</uuid>
					</itemhistory>
				</clipitem>
				<clipitem id="JonWills049Subclipa">
					<name>JonWills049Subclipa</name>
					<duration>398</duration>
					<rate>
						<ntsc>FALSE</ntsc>
						<timebase>25</timebase>
					</rate>
					<in>0</in>
					<out>397</out>
					<start>82214</start>
					<end>82611</end>
					<pixelaspectratio>Square</pixelaspectratio>
					<anamorphic>FALSE</anamorphic>
					<alphatype>none</alphatype>
					<logginginfo>
						<scene/>
						<shottake/>
						<lognote/>
						<good>FALSE</good>
					</logginginfo>
					<labels>
						<label2/>
					</labels>
					<comments>
						<mastercomment1/>
						<mastercomment2/>
						<mastercomment3/>
						<mastercomment4/>
					</comments>
					<file id="JonWills049Subclipa1">
						<name>JonWills049Subclipa</name>
						<pathurl>file://localhost/Volumes/Michael's%20Passport/woodbdrigenov2011media/JonWills049Subclipa</pathurl>
						<rate>
							<timebase>25</timebase>
						</rate>
						<duration>398</duration>
						<metadata>
							<storage>QuickTime</storage>
							<key>com.apple.finalcutstudio.media.uuid</key>
							<size>36</size>
							<type>UTF8</type>
							<value>6BC2974D-89C0-4E8F-A058-FB1C43A641AC</value>
						</metadata>
						<metadata>
							<storage>QuickTime</storage>
							<key>com.apple.finalcutstudio.media.history.uuid</key>
							<size>36</size>
							<type>UTF8</type>
							<value>D0EFDFBB-B145-4771-9C6B-419B0D2074B0</value>
						</metadata>
						<timecode>
							<rate>
								<timebase>25</timebase>
							</rate>
							<string>00:00:00:00</string>
							<frame>0</frame>
							<displayformat>NDF</displayformat>
							<source>source</source>
							<reel>
								<name>JonWills</name>
							</reel>
						</timecode>
						<media>
							<video>
								<duration>398</duration>
								<samplecharacteristics>
									<width>1280</width>
									<height>720</height>
								</samplecharacteristics>
							</video>
							<audio>
								<samplecharacteristics>
									<samplerate>48000</samplerate>
									<depth>16</depth>
								</samplecharacteristics>
								<channelcount>2</channelcount>
								<layout>stereo</layout>
								<audiochannel>
									<sourcechannel>1</sourcechannel>
									<channellabel>left</channellabel>
								</audiochannel>
								<audiochannel>
									<sourcechannel>2</sourcechannel>
									<channellabel>right</channellabel>
								</audiochannel>
							</audio>
						</media>
					</file>
					<sourcetrack>
						<mediatype>video</mediatype>
					</sourcetrack>
					<fielddominance>none</fielddominance>
					<itemhistory>
						<uuid>0EFEE436-664C-46B3-BFC3-522B68484FA5</uuid>
						<uuid>8531EEFF-7FD1-4D0B-BE6D-98CCF7A56DA9</uuid>
					</itemhistory>
				</clipitem>
				<clipitem id="JonWills049Subclipb">
					<name>JonWills049Subclipb</name>
					<duration>237</duration>
					<rate>
						<ntsc>FALSE</ntsc>
						<timebase>25</timebase>
					</rate>
					<in>0</in>
					<out>237</out>
					<start>82646</start>
					<end>82883</end>
					<pixelaspectratio>Square</pixelaspectratio>
					<anamorphic>FALSE</anamorphic>
					<alphatype>none</alphatype>
					<logginginfo>
						<scene/>
						<shottake/>
						<lognote/>
						<good>FALSE</good>
					</logginginfo>
					<labels>
						<label2/>
					</labels>
					<comments>
						<mastercomment1/>
						<mastercomment2/>
						<mastercomment3/>
						<mastercomment4/>
					</comments>
					<file id="JonWills049Subclipb1">
						<name>JonWills049Subclipb</name>
						<pathurl>file://localhost/Volumes/Michael's%20Passport/woodbdrigenov2011media/JonWills049Subclipb</pathurl>
						<rate>
							<timebase>25</timebase>
						</rate>
						<duration>237</duration>
						<metadata>
							<storage>QuickTime</storage>
							<key>com.apple.finalcutstudio.media.uuid</key>
							<size>36</size>
							<type>UTF8</type>
							<value>1193600B-8372-4299-AA51-55635560DA45</value>
						</metadata>
						<metadata>
							<storage>QuickTime</storage>
							<key>com.apple.finalcutstudio.media.history.uuid</key>
							<size>36</size>
							<type>UTF8</type>
							<value>D0EFDFBB-B145-4771-9C6B-419B0D2074B0</value>
						</metadata>
						<timecode>
							<rate>
								<timebase>25</timebase>
							</rate>
							<string>00:00:17:07</string>
							<frame>432</frame>
							<displayformat>NDF</displayformat>
							<source>source</source>
							<reel>
								<name>JonWills</name>
							</reel>
						</timecode>
						<media>
							<video>
								<duration>237</duration>
								<samplecharacteristics>
									<width>1280</width>
									<height>720</height>
								</samplecharacteristics>
							</video>
							<audio>
								<samplecharacteristics>
									<samplerate>48000</samplerate>
									<depth>16</depth>
								</samplecharacteristics>
								<channelcount>2</channelcount>
								<layout>stereo</layout>
								<audiochannel>
									<sourcechannel>1</sourcechannel>
									<channellabel>left</channellabel>
								</audiochannel>
								<audiochannel>
									<sourcechannel>2</sourcechannel>
									<channellabel>right</channellabel>
								</audiochannel>
							</audio>
						</media>
					</file>
					<sourcetrack>
						<mediatype>video</mediatype>
					</sourcetrack>
					<fielddominance>none</fielddominance>
					<itemhistory>
						<uuid>C9BD3948-D269-45DB-BC71-E30070EF141F</uuid>
						<uuid>3B958C47-E616-4E93-9369-F4306A1C2E69</uuid>
					</itemhistory>
				</clipitem>
				<clipitem id="JonWills049Subclipc">
					<name>JonWills049Subclipc</name>
					<duration>554</duration>
					<rate>
						<ntsc>FALSE</ntsc>
						<timebase>25</timebase>
					</rate>
					<in>0</in>
					<out>553</out>
					<start>82963</start>
					<end>83516</end>
					<pixelaspectratio>Square</pixelaspectratio>
					<anamorphic>FALSE</anamorphic>
					<alphatype>none</alphatype>
					<logginginfo>
						<scene/>
						<shottake/>
						<lognote/>
						<good>FALSE</good>
					</logginginfo>
					<labels>
						<label2/>
					</labels>
					<comments>
						<mastercomment1/>
						<mastercomment2/>
						<mastercomment3/>
						<mastercomment4/>
					</comments>
					<file id="JonWills049Subclipc1">
						<name>JonWills049Subclipc</name>
						<pathurl>file://localhost/Volumes/Michael's%20Passport/woodbdrigenov2011media/JonWills049Subclipc</pathurl>
						<rate>
							<timebase>25</timebase>
						</rate>
						<duration>554</duration>
						<metadata>
							<storage>QuickTime</storage>
							<key>com.apple.finalcutstudio.media.uuid</key>
							<size>36</size>
							<type>UTF8</type>
							<value>8D1B8935-2859-425E-8732-F5E05F4DC2EB</value>
						</metadata>
						<metadata>
							<storage>QuickTime</storage>
							<key>com.apple.finalcutstudio.media.history.uuid</key>
							<size>36</size>
							<type>UTF8</type>
							<value>D0EFDFBB-B145-4771-9C6B-419B0D2074B0</value>
						</metadata>
						<timecode>
							<rate>
								<timebase>25</timebase>
							</rate>
							<string>00:00:29:24</string>
							<frame>749</frame>
							<displayformat>NDF</displayformat>
							<source>source</source>
							<reel>
								<name>JonWills</name>
							</reel>
						</timecode>
						<media>
							<video>
								<duration>554</duration>
								<samplecharacteristics>
									<width>1280</width>
									<height>720</height>
								</samplecharacteristics>
							</video>
							<audio>
								<samplecharacteristics>
									<samplerate>48000</samplerate>
									<depth>16</depth>
								</samplecharacteristics>
								<channelcount>2</channelcount>
								<layout>stereo</layout>
								<audiochannel>
									<sourcechannel>1</sourcechannel>
									<channellabel>left</channellabel>
								</audiochannel>
								<audiochannel>
									<sourcechannel>2</sourcechannel>
									<channellabel>right</channellabel>
								</audiochannel>
							</audio>
						</media>
					</file>
					<sourcetrack>
						<mediatype>video</mediatype>
					</sourcetrack>
					<fielddominance>none</fielddominance>
					<itemhistory>
						<uuid>54A68B29-2D1B-40F6-83D0-7D57F9FBD937</uuid>
						<uuid>FF7A2C6F-63E5-4B9C-9D1B-7E517F18FD0E</uuid>
					</itemhistory>
				</clipitem>
				<clipitem id="JonWills049Subclipd">
					<name>JonWills049Subclipd</name>
					<duration>686</duration>
					<rate>
						<ntsc>FALSE</ntsc>
						<timebase>25</timebase>
					</rate>
					<in>0</in>
					<out>685</out>
					<start>83564</start>
					<end>84249</end>
					<pixelaspectratio>Square</pixelaspectratio>
					<anamorphic>FALSE</anamorphic>
					<alphatype>none</alphatype>
					<logginginfo>
						<scene/>
						<shottake/>
						<lognote/>
						<good>FALSE</good>
					</logginginfo>
					<labels>
						<label2/>
					</labels>
					<comments>
						<mastercomment1/>
						<mastercomment2/>
						<mastercomment3/>
						<mastercomment4/>
					</comments>
					<file id="JonWills049Subclipd1">
						<name>JonWills049Subclipd</name>
						<pathurl>file://localhost/Volumes/Michael's%20Passport/woodbdrigenov2011media/JonWills049Subclipd</pathurl>
						<rate>
							<timebase>25</timebase>
						</rate>
						<duration>686</duration>
						<metadata>
							<storage>QuickTime</storage>
							<key>com.apple.finalcutstudio.media.uuid</key>
							<size>36</size>
							<type>UTF8</type>
							<value>D8B8394D-4773-4A0C-9965-FEB2C41E1FF3</value>
						</metadata>
						<metadata>
							<storage>QuickTime</storage>
							<key>com.apple.finalcutstudio.media.history.uuid</key>
							<size>36</size>
							<type>UTF8</type>
							<value>D0EFDFBB-B145-4771-9C6B-419B0D2074B0</value>
						</metadata>
						<timecode>
							<rate>
								<timebase>25</timebase>
							</rate>
							<string>00:00:54:00</string>
							<frame>1350</frame>
							<displayformat>NDF</displayformat>
							<source>source</source>
							<reel>
								<name>JonWills</name>
							</reel>
						</timecode>
						<media>
							<video>
								<duration>686</duration>
								<samplecharacteristics>
									<width>1280</width>
									<height>720</height>
								</samplecharacteristics>
							</video>
							<audio>
								<samplecharacteristics>
									<samplerate>48000</samplerate>
									<depth>16</depth>
								</samplecharacteristics>
								<channelcount>2</channelcount>
								<layout>stereo</layout>
								<audiochannel>
									<sourcechannel>1</sourcechannel>
									<channellabel>left</channellabel>
								</audiochannel>
								<audiochannel>
									<sourcechannel>2</sourcechannel>
									<channellabel>right</channellabel>
								</audiochannel>
							</audio>
						</media>
					</file>
					<sourcetrack>
						<mediatype>video</mediatype>
					</sourcetrack>
					<fielddominance>none</fielddominance>
					<itemhistory>
						<uuid>D4B9E046-7146-4E4B-B7DA-FEB9CCE6B983</uuid>
						<uuid>8D7BCEFC-545F-4E37-ADB4-536F4F17C67A</uuid>
					</itemhistory>
				</clipitem>
				<clipitem id="JonWills049Subclipe">
					<name>JonWills049Subclipe</name>
					<duration>505</duration>
					<rate>
						<ntsc>FALSE</ntsc>
						<timebase>25</timebase>
					</rate>
					<in>0</in>
					<out>504</out>
					<start>84325</start>
					<end>84829</end>
					<pixelaspectratio>Square</pixelaspectratio>
					<anamorphic>FALSE</anamorphic>
					<alphatype>none</alphatype>
					<logginginfo>
						<scene/>
						<shottake/>
						<lognote/>
						<good>FALSE</good>
					</logginginfo>
					<labels>
						<label2/>
					</labels>
					<comments>
						<mastercomment1/>
						<mastercomment2/>
						<mastercomment3/>
						<mastercomment4/>
					</comments>
					<file id="JonWills049Subclipe1">
						<name>JonWills049Subclipe</name>
						<pathurl>file://localhost/Volumes/Michael's%20Passport/woodbdrigenov2011media/JonWills049Subclipe</pathurl>
						<rate>
							<timebase>25</timebase>
						</rate>
						<duration>505</duration>
						<metadata>
							<storage>QuickTime</storage>
							<key>com.apple.finalcutstudio.media.uuid</key>
							<size>36</size>
							<type>UTF8</type>
							<value>0528FB0D-7509-474C-99A9-49EC93BD5E86</value>
						</metadata>
						<metadata>
							<storage>QuickTime</storage>
							<key>com.apple.finalcutstudio.media.history.uuid</key>
							<size>36</size>
							<type>UTF8</type>
							<value>D0EFDFBB-B145-4771-9C6B-419B0D2074B0</value>
						</metadata>
						<timecode>
							<rate>
								<timebase>25</timebase>
							</rate>
							<string>00:01:24:11</string>
							<frame>2111</frame>
							<displayformat>NDF</displayformat>
							<source>source</source>
							<reel>
								<name>JonWills</name>
							</reel>
						</timecode>
						<media>
							<video>
								<duration>505</duration>
								<samplecharacteristics>
									<width>1280</width>
									<height>720</height>
								</samplecharacteristics>
							</video>
							<audio>
								<samplecharacteristics>
									<samplerate>48000</samplerate>
									<depth>16</depth>
								</samplecharacteristics>
								<channelcount>2</channelcount>
								<layout>stereo</layout>
								<audiochannel>
									<sourcechannel>1</sourcechannel>
									<channellabel>left</channellabel>
								</audiochannel>
								<audiochannel>
									<sourcechannel>2</sourcechannel>
									<channellabel>right</channellabel>
								</audiochannel>
							</audio>
						</media>
					</file>
					<sourcetrack>
						<mediatype>video</mediatype>
					</sourcetrack>
					<fielddominance>none</fielddominance>
					<itemhistory>
						<uuid>01EE87C7-FC83-4147-99C8-6920FF9F6D93</uuid>
						<uuid>DF20EE61-D368-44A5-9704-096CB75ACE79</uuid>
					</itemhistory>
				</clipitem>
				<clipitem id="JonWills049Subclipf">
					<name>JonWills049Subclipf</name>
					<duration>977</duration>
					<rate>
						<ntsc>FALSE</ntsc>
						<timebase>25</timebase>
					</rate>
					<in>0</in>
					<out>977</out>
					<start>85108</start>
					<end>86085</end>
					<pixelaspectratio>Square</pixelaspectratio>
					<anamorphic>FALSE</anamorphic>
					<alphatype>none</alphatype>
					<logginginfo>
						<scene/>
						<shottake/>
						<lognote/>
						<good>FALSE</good>
					</logginginfo>
					<labels>
						<label2/>
					</labels>
					<comments>
						<mastercomment1/>
						<mastercomment2/>
						<mastercomment3/>
						<mastercomment4/>
					</comments>
					<file id="JonWills049Subclipf1">
						<name>JonWills049Subclipf</name>
						<pathurl>file://localhost/Volumes/Michael's%20Passport/woodbdrigenov2011media/JonWills049Subclipf</pathurl>
						<rate>
							<timebase>25</timebase>
						</rate>
						<duration>977</duration>
						<metadata>
							<storage>QuickTime</storage>
							<key>com.apple.finalcutstudio.media.uuid</key>
							<size>36</size>
							<type>UTF8</type>
							<value>734AE570-679F-4488-B928-5792332D7B97</value>
						</metadata>
						<metadata>
							<storage>QuickTime</storage>
							<key>com.apple.finalcutstudio.media.history.uuid</key>
							<size>36</size>
							<type>UTF8</type>
							<value>D0EFDFBB-B145-4771-9C6B-419B0D2074B0</value>
						</metadata>
						<timecode>
							<rate>
								<timebase>25</timebase>
							</rate>
							<string>00:01:55:19</string>
							<frame>2894</frame>
							<displayformat>NDF</displayformat>
							<source>source</source>
							<reel>
								<name>JonWills</name>
							</reel>
						</timecode>
						<media>
							<video>
								<duration>977</duration>
								<samplecharacteristics>
									<width>1280</width>
									<height>720</height>
								</samplecharacteristics>
							</video>
							<audio>
								<samplecharacteristics>
									<samplerate>48000</samplerate>
									<depth>16</depth>
								</samplecharacteristics>
								<channelcount>2</channelcount>
								<layout>stereo</layout>
								<audiochannel>
									<sourcechannel>1</sourcechannel>
									<channellabel>left</channellabel>
								</audiochannel>
								<audiochannel>
									<sourcechannel>2</sourcechannel>
									<channellabel>right</channellabel>
								</audiochannel>
							</audio>
						</media>
					</file>
					<sourcetrack>
						<mediatype>video</mediatype>
					</sourcetrack>
					<fielddominance>none</fielddominance>
					<itemhistory>
						<uuid>091914CA-A91B-4F2A-BE2C-AAA5A7086F76</uuid>
						<uuid>70FE9F53-0891-4D2F-96F7-C67D07C27511</uuid>
					</itemhistory>
				</clipitem>
				<clipitem id="JonWills049Subclipg">
					<name>JonWills049Subclipg</name>
					<duration>774</duration>
					<rate>
						<ntsc>FALSE</ntsc>
						<timebase>25</timebase>
					</rate>
					<in>0</in>
					<out>773</out>
					<start>86152</start>
					<end>86925</end>
					<pixelaspectratio>Square</pixelaspectratio>
					<anamorphic>FALSE</anamorphic>
					<alphatype>none</alphatype>
					<logginginfo>
						<scene/>
						<shottake/>
						<lognote/>
						<good>FALSE</good>
					</logginginfo>
					<labels>
						<label2/>
					</labels>
					<comments>
						<mastercomment1/>
						<mastercomment2/>
						<mastercomment3/>
						<mastercomment4/>
					</comments>
					<file id="JonWills049Subclipg1">
						<name>JonWills049Subclipg</name>
						<pathurl>file://localhost/Volumes/Michael's%20Passport/woodbdrigenov2011media/JonWills049Subclipg</pathurl>
						<rate>
							<timebase>25</timebase>
						</rate>
						<duration>774</duration>
						<metadata>
							<storage>QuickTime</storage>
							<key>com.apple.finalcutstudio.media.uuid</key>
							<size>36</size>
							<type>UTF8</type>
							<value>9586C518-11D8-4547-A78C-6B3832B14F83</value>
						</metadata>
						<metadata>
							<storage>QuickTime</storage>
							<key>com.apple.finalcutstudio.media.history.uuid</key>
							<size>36</size>
							<type>UTF8</type>
							<value>D0EFDFBB-B145-4771-9C6B-419B0D2074B0</value>
						</metadata>
						<timecode>
							<rate>
								<timebase>25</timebase>
							</rate>
							<string>00:02:37:13</string>
							<frame>3938</frame>
							<displayformat>NDF</displayformat>
							<source>source</source>
							<reel>
								<name>JonWills</name>
							</reel>
						</timecode>
						<media>
							<video>
								<duration>774</duration>
								<samplecharacteristics>
									<width>1280</width>
									<height>720</height>
								</samplecharacteristics>
							</video>
							<audio>
								<samplecharacteristics>
									<samplerate>48000</samplerate>
									<depth>16</depth>
								</samplecharacteristics>
								<channelcount>2</channelcount>
								<layout>stereo</layout>
								<audiochannel>
									<sourcechannel>1</sourcechannel>
									<channellabel>left</channellabel>
								</audiochannel>
								<audiochannel>
									<sourcechannel>2</sourcechannel>
									<channellabel>right</channellabel>
								</audiochannel>
							</audio>
						</media>
					</file>
					<sourcetrack>
						<mediatype>video</mediatype>
					</sourcetrack>
					<fielddominance>none</fielddominance>
					<itemhistory>
						<uuid>F97D158C-C5C2-4CE5-BEF7-19EC53CB672E</uuid>
						<uuid>950AF64A-61D8-4FF5-B5EF-D6494E9D1645</uuid>
					</itemhistory>
				</clipitem>
				<clipitem id="JonWills049Subcliph">
					<name>JonWills049Subcliph</name>
					<duration>313</duration>
					<rate>
						<ntsc>FALSE</ntsc>
						<timebase>25</timebase>
					</rate>
					<in>0</in>
					<out>312</out>
					<start>87024</start>
					<end>87336</end>
					<pixelaspectratio>Square</pixelaspectratio>
					<anamorphic>FALSE</anamorphic>
					<alphatype>none</alphatype>
					<logginginfo>
						<scene/>
						<shottake/>
						<lognote/>
						<good>FALSE</good>
					</logginginfo>
					<labels>
						<label2/>
					</labels>
					<comments>
						<mastercomment1/>
						<mastercomment2/>
						<mastercomment3/>
						<mastercomment4/>
					</comments>
					<file id="JonWills049Subcliph1">
						<name>JonWills049Subcliph</name>
						<pathurl>file://localhost/Volumes/Michael's%20Passport/woodbdrigenov2011media/JonWills049Subcliph</pathurl>
						<rate>
							<timebase>25</timebase>
						</rate>
						<duration>313</duration>
						<metadata>
							<storage>QuickTime</storage>
							<key>com.apple.finalcutstudio.media.uuid</key>
							<size>36</size>
							<type>UTF8</type>
							<value>D9980BFD-5986-4DD3-85A3-D6018CB4307A</value>
						</metadata>
						<metadata>
							<storage>QuickTime</storage>
							<key>com.apple.finalcutstudio.media.history.uuid</key>
							<size>36</size>
							<type>UTF8</type>
							<value>D0EFDFBB-B145-4771-9C6B-419B0D2074B0</value>
						</metadata>
						<timecode>
							<rate>
								<timebase>25</timebase>
							</rate>
							<string>00:03:12:10</string>
							<frame>4810</frame>
							<displayformat>NDF</displayformat>
							<source>source</source>
							<reel>
								<name>JonWills</name>
							</reel>
						</timecode>
						<media>
							<video>
								<duration>313</duration>
								<samplecharacteristics>
									<width>1280</width>
									<height>720</height>
								</samplecharacteristics>
							</video>
							<audio>
								<samplecharacteristics>
									<samplerate>48000</samplerate>
									<depth>16</depth>
								</samplecharacteristics>
								<channelcount>2</channelcount>
								<layout>stereo</layout>
								<audiochannel>
									<sourcechannel>1</sourcechannel>
									<channellabel>left</channellabel>
								</audiochannel>
								<audiochannel>
									<sourcechannel>2</sourcechannel>
									<channellabel>right</channellabel>
								</audiochannel>
							</audio>
						</media>
					</file>
					<sourcetrack>
						<mediatype>video</mediatype>
					</sourcetrack>
					<fielddominance>none</fielddominance>
					<itemhistory>
						<uuid>05EC66AA-A66B-49FC-ADD2-8553337BF919</uuid>
						<uuid>B3A4E63C-E193-414B-B346-4EF805E7FD48</uuid>
					</itemhistory>
				</clipitem>
				<clipitem id="JonWills049Subclipi">
					<name>JonWills049Subclipi</name>
					<duration>699</duration>
					<rate>
						<ntsc>FALSE</ntsc>
						<timebase>25</timebase>
					</rate>
					<in>0</in>
					<out>699</out>
					<start>87464</start>
					<end>88163</end>
					<pixelaspectratio>Square</pixelaspectratio>
					<anamorphic>FALSE</anamorphic>
					<alphatype>none</alphatype>
					<logginginfo>
						<scene/>
						<shottake/>
						<lognote/>
						<good>FALSE</good>
					</logginginfo>
					<labels>
						<label2/>
					</labels>
					<comments>
						<mastercomment1/>
						<mastercomment2/>
						<mastercomment3/>
						<mastercomment4/>
					</comments>
					<file id="JonWills049Subclipi1">
						<name>JonWills049Subclipi</name>
						<pathurl>file://localhost/Volumes/Michael's%20Passport/woodbdrigenov2011media/JonWills049Subclipi</pathurl>
						<rate>
							<timebase>25</timebase>
						</rate>
						<duration>699</duration>
						<metadata>
							<storage>QuickTime</storage>
							<key>com.apple.finalcutstudio.media.uuid</key>
							<size>36</size>
							<type>UTF8</type>
							<value>8C5C9300-9C25-4152-AC35-0DAACD286BDD</value>
						</metadata>
						<metadata>
							<storage>QuickTime</storage>
							<key>com.apple.finalcutstudio.media.history.uuid</key>
							<size>36</size>
							<type>UTF8</type>
							<value>D0EFDFBB-B145-4771-9C6B-419B0D2074B0</value>
						</metadata>
						<timecode>
							<rate>
								<timebase>25</timebase>
							</rate>
							<string>00:03:30:00</string>
							<frame>5250</frame>
							<displayformat>NDF</displayformat>
							<source>source</source>
							<reel>
								<name>JonWills</name>
							</reel>
						</timecode>
						<media>
							<video>
								<duration>699</duration>
								<samplecharacteristics>
									<width>1280</width>
									<height>720</height>
								</samplecharacteristics>
							</video>
							<audio>
								<samplecharacteristics>
									<samplerate>48000</samplerate>
									<depth>16</depth>
								</samplecharacteristics>
								<channelcount>2</channelcount>
								<layout>stereo</layout>
								<audiochannel>
									<sourcechannel>1</sourcechannel>
									<channellabel>left</channellabel>
								</audiochannel>
								<audiochannel>
									<sourcechannel>2</sourcechannel>
									<channellabel>right</channellabel>
								</audiochannel>
							</audio>
						</media>
					</file>
					<sourcetrack>
						<mediatype>video</mediatype>
					</sourcetrack>
					<fielddominance>none</fielddominance>
					<itemhistory>
						<uuid>65A79A56-8AAF-480E-AF1E-6758A1B6E71D</uuid>
						<uuid>20DB1B61-700B-4B3F-9992-0CA87D68BD9E</uuid>
					</itemhistory>
				</clipitem>
				<clipitem id="JonWills049Subclipj">
					<name>JonWills049Subclipj</name>
					<duration>920</duration>
					<rate>
						<ntsc>FALSE</ntsc>
						<timebase>25</timebase>
					</rate>
					<in>0</in>
					<out>919</out>
					<start>88243</start>
					<end>89162</end>
					<pixelaspectratio>Square</pixelaspectratio>
					<anamorphic>FALSE</anamorphic>
					<alphatype>none</alphatype>
					<logginginfo>
						<scene/>
						<shottake/>
						<lognote/>
						<good>FALSE</good>
					</logginginfo>
					<labels>
						<label2/>
					</labels>
					<comments>
						<mastercomment1/>
						<mastercomment2/>
						<mastercomment3/>
						<mastercomment4/>
					</comments>
					<file id="JonWills049Subclipj1">
						<name>JonWills049Subclipj</name>
						<pathurl>file://localhost/Volumes/Michael's%20Passport/woodbdrigenov2011media/JonWills049Subclipj</pathurl>
						<rate>
							<timebase>25</timebase>
						</rate>
						<duration>920</duration>
						<metadata>
							<storage>QuickTime</storage>
							<key>com.apple.finalcutstudio.media.uuid</key>
							<size>36</size>
							<type>UTF8</type>
							<value>59AE76F7-3149-4BF5-B791-5E237A64804F</value>
						</metadata>
						<metadata>
							<storage>QuickTime</storage>
							<key>com.apple.finalcutstudio.media.history.uuid</key>
							<size>36</size>
							<type>UTF8</type>
							<value>D0EFDFBB-B145-4771-9C6B-419B0D2074B0</value>
						</metadata>
						<timecode>
							<rate>
								<timebase>25</timebase>
							</rate>
							<string>00:04:01:04</string>
							<frame>6029</frame>
							<displayformat>NDF</displayformat>
							<source>source</source>
							<reel>
								<name>JonWills</name>
							</reel>
						</timecode>
						<media>
							<video>
								<duration>920</duration>
								<samplecharacteristics>
									<width>1280</width>
									<height>720</height>
								</samplecharacteristics>
							</video>
							<audio>
								<samplecharacteristics>
									<samplerate>48000</samplerate>
									<depth>16</depth>
								</samplecharacteristics>
								<channelcount>2</channelcount>
								<layout>stereo</layout>
								<audiochannel>
									<sourcechannel>1</sourcechannel>
									<channellabel>left</channellabel>
								</audiochannel>
								<audiochannel>
									<sourcechannel>2</sourcechannel>
									<channellabel>right</channellabel>
								</audiochannel>
							</audio>
						</media>
					</file>
					<sourcetrack>
						<mediatype>video</mediatype>
					</sourcetrack>
					<fielddominance>none</fielddominance>
					<itemhistory>
						<uuid>344D04D2-5F70-493F-9C1B-548A61C6E877</uuid>
						<uuid>BB62B945-4DC1-4AEE-880B-72209D026C3E</uuid>
					</itemhistory>
				</clipitem>
				<clipitem id="JonWills049Subclipk">
					<name>JonWills049Subclipk</name>
					<duration>1106</duration>
					<rate>
						<ntsc>FALSE</ntsc>
						<timebase>25</timebase>
					</rate>
					<in>0</in>
					<out>1105</out>
					<start>89196</start>
					<end>90301</end>
					<pixelaspectratio>Square</pixelaspectratio>
					<anamorphic>FALSE</anamorphic>
					<alphatype>none</alphatype>
					<logginginfo>
						<scene/>
						<shottake/>
						<lognote/>
						<good>FALSE</good>
					</logginginfo>
					<labels>
						<label2/>
					</labels>
					<comments>
						<mastercomment1/>
						<mastercomment2/>
						<mastercomment3/>
						<mastercomment4/>
					</comments>
					<file id="JonWills049Subclipk1">
						<name>JonWills049Subclipk</name>
						<pathurl>file://localhost/Volumes/Michael's%20Passport/woodbdrigenov2011media/JonWills049Subclipk</pathurl>
						<rate>
							<timebase>25</timebase>
						</rate>
						<duration>1106</duration>
						<metadata>
							<storage>QuickTime</storage>
							<key>com.apple.finalcutstudio.media.uuid</key>
							<size>36</size>
							<type>UTF8</type>
							<value>E1D1A5ED-48CF-40C9-AD62-D41E367E75A1</value>
						</metadata>
						<metadata>
							<storage>QuickTime</storage>
							<key>com.apple.finalcutstudio.media.history.uuid</key>
							<size>36</size>
							<type>UTF8</type>
							<value>D0EFDFBB-B145-4771-9C6B-419B0D2074B0</value>
						</metadata>
						<timecode>
							<rate>
								<timebase>25</timebase>
							</rate>
							<string>00:04:39:07</string>
							<frame>6982</frame>
							<displayformat>NDF</displayformat>
							<source>source</source>
							<reel>
								<name>JonWills</name>
							</reel>
						</timecode>
						<media>
							<video>
								<duration>1106</duration>
								<samplecharacteristics>
									<width>1280</width>
									<height>720</height>
								</samplecharacteristics>
							</video>
							<audio>
								<samplecharacteristics>
									<samplerate>48000</samplerate>
									<depth>16</depth>
								</samplecharacteristics>
								<channelcount>2</channelcount>
								<layout>stereo</layout>
								<audiochannel>
									<sourcechannel>1</sourcechannel>
									<channellabel>left</channellabel>
								</audiochannel>
								<audiochannel>
									<sourcechannel>2</sourcechannel>
									<channellabel>right</channellabel>
								</audiochannel>
							</audio>
						</media>
					</file>
					<sourcetrack>
						<mediatype>video</mediatype>
					</sourcetrack>
					<fielddominance>none</fielddominance>
					<itemhistory>
						<uuid>29974862-C85E-4671-958D-2BEEA73A611D</uuid>
						<uuid>04018DA7-EB69-48A6-B7D2-44984A79189D</uuid>
					</itemhistory>
				</clipitem>
				<clipitem id="JonWills050Subclipa">
					<name>JonWills050Subclipa</name>
					<duration>391</duration>
					<rate>
						<ntsc>FALSE</ntsc>
						<timebase>25</timebase>
					</rate>
					<in>0</in>
					<out>390</out>
					<start>91027</start>
					<end>91417</end>
					<pixelaspectratio>Square</pixelaspectratio>
					<anamorphic>FALSE</anamorphic>
					<alphatype>none</alphatype>
					<logginginfo>
						<scene/>
						<shottake/>
						<lognote/>
						<good>FALSE</good>
					</logginginfo>
					<labels>
						<label2/>
					</labels>
					<comments>
						<mastercomment1/>
						<mastercomment2/>
						<mastercomment3/>
						<mastercomment4/>
					</comments>
					<file id="JonWills050Subclipa1">
						<name>JonWills050Subclipa</name>
						<pathurl>file://localhost/Volumes/Michael's%20Passport/woodbdrigenov2011media/JonWills050Subclipa</pathurl>
						<rate>
							<timebase>25</timebase>
						</rate>
						<duration>391</duration>
						<metadata>
							<storage>QuickTime</storage>
							<key>com.apple.finalcutstudio.media.uuid</key>
							<size>36</size>
							<type>UTF8</type>
							<value>C3C3106A-C954-4F2B-8008-C3B5351B43D1</value>
						</metadata>
						<metadata>
							<storage>QuickTime</storage>
							<key>com.apple.finalcutstudio.media.history.uuid</key>
							<size>36</size>
							<type>UTF8</type>
							<value>75A2E4FE-A993-4296-A693-72DEA713F0AF</value>
						</metadata>
						<timecode>
							<rate>
								<timebase>25</timebase>
							</rate>
							<string>00:00:00:00</string>
							<frame>0</frame>
							<displayformat>NDF</displayformat>
							<source>source</source>
							<reel>
								<name>JonWills</name>
							</reel>
						</timecode>
						<media>
							<video>
								<duration>391</duration>
								<samplecharacteristics>
									<width>1280</width>
									<height>720</height>
								</samplecharacteristics>
							</video>
							<audio>
								<samplecharacteristics>
									<samplerate>48000</samplerate>
									<depth>16</depth>
								</samplecharacteristics>
								<channelcount>2</channelcount>
								<layout>stereo</layout>
								<audiochannel>
									<sourcechannel>1</sourcechannel>
									<channellabel>left</channellabel>
								</audiochannel>
								<audiochannel>
									<sourcechannel>2</sourcechannel>
									<channellabel>right</channellabel>
								</audiochannel>
							</audio>
						</media>
					</file>
					<sourcetrack>
						<mediatype>video</mediatype>
					</sourcetrack>
					<fielddominance>none</fielddominance>
					<itemhistory>
						<uuid>722C3BA5-E055-40CB-84B3-3D0AEFB34B06</uuid>
						<uuid>42176331-DB04-482E-AFA0-503D4D0D2A71</uuid>
					</itemhistory>
				</clipitem>
				<clipitem id="JonWills050Subclipb">
					<name>JonWills050Subclipb</name>
					<duration>847</duration>
					<rate>
						<ntsc>FALSE</ntsc>
						<timebase>25</timebase>
					</rate>
					<in>0</in>
					<out>847</out>
					<start>91474</start>
					<end>92321</end>
					<pixelaspectratio>Square</pixelaspectratio>
					<anamorphic>FALSE</anamorphic>
					<alphatype>none</alphatype>
					<logginginfo>
						<scene/>
						<shottake/>
						<lognote/>
						<good>FALSE</good>
					</logginginfo>
					<labels>
						<label2/>
					</labels>
					<comments>
						<mastercomment1/>
						<mastercomment2/>
						<mastercomment3/>
						<mastercomment4/>
					</comments>
					<file id="JonWills050Subclipb1">
						<name>JonWills050Subclipb</name>
						<pathurl>file://localhost/Volumes/Michael's%20Passport/woodbdrigenov2011media/JonWills050Subclipb</pathurl>
						<rate>
							<timebase>25</timebase>
						</rate>
						<duration>847</duration>
						<metadata>
							<storage>QuickTime</storage>
							<key>com.apple.finalcutstudio.media.uuid</key>
							<size>36</size>
							<type>UTF8</type>
							<value>58147DA6-5001-4094-A63B-BC412734F3BB</value>
						</metadata>
						<metadata>
							<storage>QuickTime</storage>
							<key>com.apple.finalcutstudio.media.history.uuid</key>
							<size>36</size>
							<type>UTF8</type>
							<value>75A2E4FE-A993-4296-A693-72DEA713F0AF</value>
						</metadata>
						<timecode>
							<rate>
								<timebase>25</timebase>
							</rate>
							<string>00:00:17:22</string>
							<frame>447</frame>
							<displayformat>NDF</displayformat>
							<source>source</source>
							<reel>
								<name>JonWills</name>
							</reel>
						</timecode>
						<media>
							<video>
								<duration>847</duration>
								<samplecharacteristics>
									<width>1280</width>
									<height>720</height>
								</samplecharacteristics>
							</video>
							<audio>
								<samplecharacteristics>
									<samplerate>48000</samplerate>
									<depth>16</depth>
								</samplecharacteristics>
								<channelcount>2</channelcount>
								<layout>stereo</layout>
								<audiochannel>
									<sourcechannel>1</sourcechannel>
									<channellabel>left</channellabel>
								</audiochannel>
								<audiochannel>
									<sourcechannel>2</sourcechannel>
									<channellabel>right</channellabel>
								</audiochannel>
							</audio>
						</media>
					</file>
					<sourcetrack>
						<mediatype>video</mediatype>
					</sourcetrack>
					<fielddominance>none</fielddominance>
					<itemhistory>
						<uuid>8C109C9F-A4F0-44A0-A119-FA4DD455DC72</uuid>
						<uuid>3990A8D1-65A0-4EF2-B33E-4F7F06BE8173</uuid>
					</itemhistory>
				</clipitem>
				<clipitem id="JonWills050Subclipc">
					<name>JonWills050Subclipc</name>
					<duration>350</duration>
					<rate>
						<ntsc>FALSE</ntsc>
						<timebase>25</timebase>
					</rate>
					<in>0</in>
					<out>349</out>
					<start>92370</start>
					<end>92719</end>
					<pixelaspectratio>Square</pixelaspectratio>
					<anamorphic>FALSE</anamorphic>
					<alphatype>none</alphatype>
					<logginginfo>
						<scene/>
						<shottake/>
						<lognote/>
						<good>FALSE</good>
					</logginginfo>
					<labels>
						<label2/>
					</labels>
					<comments>
						<mastercomment1/>
						<mastercomment2/>
						<mastercomment3/>
						<mastercomment4/>
					</comments>
					<file id="JonWills050Subclipc1">
						<name>JonWills050Subclipc</name>
						<pathurl>file://localhost/Volumes/Michael's%20Passport/woodbdrigenov2011media/JonWills050Subclipc</pathurl>
						<rate>
							<timebase>25</timebase>
						</rate>
						<duration>350</duration>
						<metadata>
							<storage>QuickTime</storage>
							<key>com.apple.finalcutstudio.media.uuid</key>
							<size>36</size>
							<type>UTF8</type>
							<value>265B7E5C-594E-4A34-BC43-6EC0F3126C6F</value>
						</metadata>
						<metadata>
							<storage>QuickTime</storage>
							<key>com.apple.finalcutstudio.media.history.uuid</key>
							<size>36</size>
							<type>UTF8</type>
							<value>75A2E4FE-A993-4296-A693-72DEA713F0AF</value>
						</metadata>
						<timecode>
							<rate>
								<timebase>25</timebase>
							</rate>
							<string>00:00:53:18</string>
							<frame>1343</frame>
							<displayformat>NDF</displayformat>
							<source>source</source>
							<reel>
								<name>JonWills</name>
							</reel>
						</timecode>
						<media>
							<video>
								<duration>350</duration>
								<samplecharacteristics>
									<width>1280</width>
									<height>720</height>
								</samplecharacteristics>
							</video>
							<audio>
								<samplecharacteristics>
									<samplerate>48000</samplerate>
									<depth>16</depth>
								</samplecharacteristics>
								<channelcount>2</channelcount>
								<layout>stereo</layout>
								<audiochannel>
									<sourcechannel>1</sourcechannel>
									<channellabel>left</channellabel>
								</audiochannel>
								<audiochannel>
									<sourcechannel>2</sourcechannel>
									<channellabel>right</channellabel>
								</audiochannel>
							</audio>
						</media>
					</file>
					<sourcetrack>
						<mediatype>video</mediatype>
					</sourcetrack>
					<fielddominance>none</fielddominance>
					<itemhistory>
						<uuid>1C61AF0F-E89A-47D1-8A14-24DD0BBA5762</uuid>
						<uuid>76E670D8-CE65-491A-AB5E-E88C027B5A89</uuid>
					</itemhistory>
				</clipitem>
				<clipitem id="JonWills050Subclip">
					<name>JonWills050Subclip</name>
					<duration>1403</duration>
					<rate>
						<ntsc>FALSE</ntsc>
						<timebase>25</timebase>
					</rate>
					<in>0</in>
					<out>1402</out>
					<start>92768</start>
					<end>94170</end>
					<pixelaspectratio>Square</pixelaspectratio>
					<anamorphic>FALSE</anamorphic>
					<alphatype>none</alphatype>
					<logginginfo>
						<scene/>
						<shottake/>
						<lognote/>
						<good>FALSE</good>
					</logginginfo>
					<labels>
						<label2/>
					</labels>
					<comments>
						<mastercomment1/>
						<mastercomment2/>
						<mastercomment3/>
						<mastercomment4/>
					</comments>
					<file id="JonWills050Subclip1">
						<name>JonWills050Subclip</name>
						<pathurl>file://localhost/Volumes/Michael's%20Passport/woodbdrigenov2011media/JonWills050Subclip</pathurl>
						<rate>
							<timebase>25</timebase>
						</rate>
						<duration>1403</duration>
						<metadata>
							<storage>QuickTime</storage>
							<key>com.apple.finalcutstudio.media.uuid</key>
							<size>36</size>
							<type>UTF8</type>
							<value>DE52AA13-E4FE-41A3-9804-3BAD06DB2F5F</value>
						</metadata>
						<metadata>
							<storage>QuickTime</storage>
							<key>com.apple.finalcutstudio.media.history.uuid</key>
							<size>36</size>
							<type>UTF8</type>
							<value>75A2E4FE-A993-4296-A693-72DEA713F0AF</value>
						</metadata>
						<timecode>
							<rate>
								<timebase>25</timebase>
							</rate>
							<string>00:01:09:16</string>
							<frame>1741</frame>
							<displayformat>NDF</displayformat>
							<source>source</source>
							<reel>
								<name>JonWills</name>
							</reel>
						</timecode>
						<media>
							<video>
								<duration>1403</duration>
								<samplecharacteristics>
									<width>1280</width>
									<height>720</height>
								</samplecharacteristics>
							</video>
							<audio>
								<samplecharacteristics>
									<samplerate>48000</samplerate>
									<depth>16</depth>
								</samplecharacteristics>
								<channelcount>2</channelcount>
								<layout>stereo</layout>
								<audiochannel>
									<sourcechannel>1</sourcechannel>
									<channellabel>left</channellabel>
								</audiochannel>
								<audiochannel>
									<sourcechannel>2</sourcechannel>
									<channellabel>right</channellabel>
								</audiochannel>
							</audio>
						</media>
					</file>
					<sourcetrack>
						<mediatype>video</mediatype>
					</sourcetrack>
					<fielddominance>none</fielddominance>
					<itemhistory>
						<uuid>1B8294FF-DB92-4CB4-A309-A1133E9A7E66</uuid>
						<uuid>9253AF22-98FD-4F37-A95E-E3BC04DBE602</uuid>
					</itemhistory>
				</clipitem>
				<clipitem id="JonWills051Subclipa">
					<name>JonWills051Subclipa</name>
					<duration>1688</duration>
					<rate>
						<ntsc>FALSE</ntsc>
						<timebase>25</timebase>
					</rate>
					<in>0</in>
					<out>1687</out>
					<start>94959</start>
					<end>96646</end>
					<pixelaspectratio>Square</pixelaspectratio>
					<anamorphic>FALSE</anamorphic>
					<alphatype>none</alphatype>
					<logginginfo>
						<scene/>
						<shottake/>
						<lognote/>
						<good>FALSE</good>
					</logginginfo>
					<labels>
						<label2/>
					</labels>
					<comments>
						<mastercomment1/>
						<mastercomment2/>
						<mastercomment3/>
						<mastercomment4/>
					</comments>
					<file id="JonWills051Subclipa1">
						<name>JonWills051Subclipa</name>
						<pathurl>file://localhost/Volumes/Michael's%20Passport/woodbdrigenov2011media/JonWills051Subclipa</pathurl>
						<rate>
							<timebase>25</timebase>
						</rate>
						<duration>1688</duration>
						<metadata>
							<storage>QuickTime</storage>
							<key>com.apple.finalcutstudio.media.uuid</key>
							<size>36</size>
							<type>UTF8</type>
							<value>C254A501-20FA-48BF-A51E-26B621CF132A</value>
						</metadata>
						<metadata>
							<storage>QuickTime</storage>
							<key>com.apple.finalcutstudio.media.history.uuid</key>
							<size>36</size>
							<type>UTF8</type>
							<value>65221C77-9BD6-41A8-91C4-251B329EF7CE</value>
						</metadata>
						<timecode>
							<rate>
								<timebase>25</timebase>
							</rate>
							<string>00:00:00:00</string>
							<frame>0</frame>
							<displayformat>NDF</displayformat>
							<source>source</source>
							<reel>
								<name>JonWills</name>
							</reel>
						</timecode>
						<media>
							<video>
								<duration>1688</duration>
								<samplecharacteristics>
									<width>1280</width>
									<height>720</height>
								</samplecharacteristics>
							</video>
							<audio>
								<samplecharacteristics>
									<samplerate>48000</samplerate>
									<depth>16</depth>
								</samplecharacteristics>
								<channelcount>2</channelcount>
								<layout>stereo</layout>
								<audiochannel>
									<sourcechannel>1</sourcechannel>
									<channellabel>left</channellabel>
								</audiochannel>
								<audiochannel>
									<sourcechannel>2</sourcechannel>
									<channellabel>right</channellabel>
								</audiochannel>
							</audio>
						</media>
					</file>
					<sourcetrack>
						<mediatype>video</mediatype>
					</sourcetrack>
					<fielddominance>none</fielddominance>
					<itemhistory>
						<uuid>C975CE1B-A57A-49CF-9708-23AC632377D8</uuid>
						<uuid>DED0E754-6A1C-4774-86ED-9236346C3264</uuid>
					</itemhistory>
				</clipitem>
				<clipitem id="JonWills051Subclipb">
					<name>JonWills051Subclipb</name>
					<duration>717</duration>
					<rate>
						<ntsc>FALSE</ntsc>
						<timebase>25</timebase>
					</rate>
					<in>0</in>
					<out>717</out>
					<start>96694</start>
					<end>97411</end>
					<pixelaspectratio>Square</pixelaspectratio>
					<anamorphic>FALSE</anamorphic>
					<alphatype>none</alphatype>
					<logginginfo>
						<scene/>
						<shottake/>
						<lognote/>
						<good>FALSE</good>
					</logginginfo>
					<labels>
						<label2/>
					</labels>
					<comments>
						<mastercomment1/>
						<mastercomment2/>
						<mastercomment3/>
						<mastercomment4/>
					</comments>
					<file id="JonWills051Subclipb1">
						<name>JonWills051Subclipb</name>
						<pathurl>file://localhost/Volumes/Michael's%20Passport/woodbdrigenov2011media/JonWills051Subclipb</pathurl>
						<rate>
							<timebase>25</timebase>
						</rate>
						<duration>717</duration>
						<metadata>
							<storage>QuickTime</storage>
							<key>com.apple.finalcutstudio.media.uuid</key>
							<size>36</size>
							<type>UTF8</type>
							<value>870B4190-4654-4F42-89D7-4D79DD76C78B</value>
						</metadata>
						<metadata>
							<storage>QuickTime</storage>
							<key>com.apple.finalcutstudio.media.history.uuid</key>
							<size>36</size>
							<type>UTF8</type>
							<value>65221C77-9BD6-41A8-91C4-251B329EF7CE</value>
						</metadata>
						<timecode>
							<rate>
								<timebase>25</timebase>
							</rate>
							<string>00:01:09:10</string>
							<frame>1735</frame>
							<displayformat>NDF</displayformat>
							<source>source</source>
							<reel>
								<name>JonWills</name>
							</reel>
						</timecode>
						<media>
							<video>
								<duration>717</duration>
								<samplecharacteristics>
									<width>1280</width>
									<height>720</height>
								</samplecharacteristics>
							</video>
							<audio>
								<samplecharacteristics>
									<samplerate>48000</samplerate>
									<depth>16</depth>
								</samplecharacteristics>
								<channelcount>2</channelcount>
								<layout>stereo</layout>
								<audiochannel>
									<sourcechannel>1</sourcechannel>
									<channellabel>left</channellabel>
								</audiochannel>
								<audiochannel>
									<sourcechannel>2</sourcechannel>
									<channellabel>right</channellabel>
								</audiochannel>
							</audio>
						</media>
					</file>
					<sourcetrack>
						<mediatype>video</mediatype>
					</sourcetrack>
					<fielddominance>none</fielddominance>
					<itemhistory>
						<uuid>60B42B80-5C3F-4EBF-BD0E-94AFDBD15BA4</uuid>
						<uuid>1B435D47-2FD2-44A0-A4E4-1A5A2117F3BA</uuid>
					</itemhistory>
				</clipitem>
				<clipitem id="JonWills051Subclipc">
					<name>JonWills051Subclipc</name>
					<duration>1215</duration>
					<rate>
						<ntsc>FALSE</ntsc>
						<timebase>25</timebase>
					</rate>
					<in>0</in>
					<out>1215</out>
					<start>97482</start>
					<end>98697</end>
					<pixelaspectratio>Square</pixelaspectratio>
					<anamorphic>FALSE</anamorphic>
					<alphatype>none</alphatype>
					<logginginfo>
						<scene/>
						<shottake/>
						<lognote/>
						<good>FALSE</good>
					</logginginfo>
					<labels>
						<label2/>
					</labels>
					<comments>
						<mastercomment1/>
						<mastercomment2/>
						<mastercomment3/>
						<mastercomment4/>
					</comments>
					<file id="JonWills051Subclipc1">
						<name>JonWills051Subclipc</name>
						<pathurl>file://localhost/Volumes/Michael's%20Passport/woodbdrigenov2011media/JonWills051Subclipc</pathurl>
						<rate>
							<timebase>25</timebase>
						</rate>
						<duration>1215</duration>
						<metadata>
							<storage>QuickTime</storage>
							<key>com.apple.finalcutstudio.media.uuid</key>
							<size>36</size>
							<type>UTF8</type>
							<value>F952918C-5212-4555-91D0-A5D4D07FDE6E</value>
						</metadata>
						<metadata>
							<storage>QuickTime</storage>
							<key>com.apple.finalcutstudio.media.history.uuid</key>
							<size>36</size>
							<type>UTF8</type>
							<value>65221C77-9BD6-41A8-91C4-251B329EF7CE</value>
						</metadata>
						<timecode>
							<rate>
								<timebase>25</timebase>
							</rate>
							<string>00:01:40:23</string>
							<frame>2523</frame>
							<displayformat>NDF</displayformat>
							<source>source</source>
							<reel>
								<name>JonWills</name>
							</reel>
						</timecode>
						<media>
							<video>
								<duration>1215</duration>
								<samplecharacteristics>
									<width>1280</width>
									<height>720</height>
								</samplecharacteristics>
							</video>
							<audio>
								<samplecharacteristics>
									<samplerate>48000</samplerate>
									<depth>16</depth>
								</samplecharacteristics>
								<channelcount>2</channelcount>
								<layout>stereo</layout>
								<audiochannel>
									<sourcechannel>1</sourcechannel>
									<channellabel>left</channellabel>
								</audiochannel>
								<audiochannel>
									<sourcechannel>2</sourcechannel>
									<channellabel>right</channellabel>
								</audiochannel>
							</audio>
						</media>
					</file>
					<sourcetrack>
						<mediatype>video</mediatype>
					</sourcetrack>
					<fielddominance>none</fielddominance>
					<itemhistory>
						<uuid>046FB93C-1952-4D95-AF6F-B3C60F6859A0</uuid>
						<uuid>402EA17E-BA5F-4B6C-AFFA-D761D5A18FE9</uuid>
					</itemhistory>
				</clipitem>
				<clipitem id="JonWills051Subclipd">
					<name>JonWills051Subclipd</name>
					<duration>550</duration>
					<rate>
						<ntsc>FALSE</ntsc>
						<timebase>25</timebase>
					</rate>
					<in>0</in>
					<out>549</out>
					<start>98789</start>
					<end>99338</end>
					<pixelaspectratio>Square</pixelaspectratio>
					<anamorphic>FALSE</anamorphic>
					<alphatype>none</alphatype>
					<logginginfo>
						<scene/>
						<shottake/>
						<lognote/>
						<good>FALSE</good>
					</logginginfo>
					<labels>
						<label2/>
					</labels>
					<comments>
						<mastercomment1/>
						<mastercomment2/>
						<mastercomment3/>
						<mastercomment4/>
					</comments>
					<file id="JonWills051Subclipd1">
						<name>JonWills051Subclipd</name>
						<pathurl>file://localhost/Volumes/Michael's%20Passport/woodbdrigenov2011media/JonWills051Subclipd</pathurl>
						<rate>
							<timebase>25</timebase>
						</rate>
						<duration>550</duration>
						<metadata>
							<storage>QuickTime</storage>
							<key>com.apple.finalcutstudio.media.uuid</key>
							<size>36</size>
							<type>UTF8</type>
							<value>DC1D9F93-8DBD-44A5-AE76-1975E6218C0A</value>
						</metadata>
						<metadata>
							<storage>QuickTime</storage>
							<key>com.apple.finalcutstudio.media.history.uuid</key>
							<size>36</size>
							<type>UTF8</type>
							<value>65221C77-9BD6-41A8-91C4-251B329EF7CE</value>
						</metadata>
						<timecode>
							<rate>
								<timebase>25</timebase>
							</rate>
							<string>00:02:33:05</string>
							<frame>3830</frame>
							<displayformat>NDF</displayformat>
							<source>source</source>
							<reel>
								<name>JonWills</name>
							</reel>
						</timecode>
						<media>
							<video>
								<duration>550</duration>
								<samplecharacteristics>
									<width>1280</width>
									<height>720</height>
								</samplecharacteristics>
							</video>
							<audio>
								<samplecharacteristics>
									<samplerate>48000</samplerate>
									<depth>16</depth>
								</samplecharacteristics>
								<channelcount>2</channelcount>
								<layout>stereo</layout>
								<audiochannel>
									<sourcechannel>1</sourcechannel>
									<channellabel>left</channellabel>
								</audiochannel>
								<audiochannel>
									<sourcechannel>2</sourcechannel>
									<channellabel>right</channellabel>
								</audiochannel>
							</audio>
						</media>
					</file>
					<sourcetrack>
						<mediatype>video</mediatype>
					</sourcetrack>
					<fielddominance>none</fielddominance>
					<itemhistory>
						<uuid>EE0C1E14-F29B-4BCD-B1A7-F7BFBC39E7BE</uuid>
						<uuid>353B1C35-60FD-4D60-BADF-21DEA51110B8</uuid>
					</itemhistory>
				</clipitem>
				<clipitem id="JonWills052Subclipa">
					<name>JonWills052Subclipa</name>
					<duration>1040</duration>
					<rate>
						<ntsc>FALSE</ntsc>
						<timebase>25</timebase>
					</rate>
					<in>0</in>
					<out>1039</out>
					<start>100486</start>
					<end>101525</end>
					<pixelaspectratio>Square</pixelaspectratio>
					<anamorphic>FALSE</anamorphic>
					<alphatype>none</alphatype>
					<logginginfo>
						<scene/>
						<shottake/>
						<lognote/>
						<good>FALSE</good>
					</logginginfo>
					<labels>
						<label2/>
					</labels>
					<comments>
						<mastercomment1/>
						<mastercomment2/>
						<mastercomment3/>
						<mastercomment4/>
					</comments>
					<file id="JonWills052Subclipa1">
						<name>JonWills052Subclipa</name>
						<pathurl>file://localhost/Volumes/Michael's%20Passport/woodbdrigenov2011media/JonWills052Subclipa</pathurl>
						<rate>
							<timebase>25</timebase>
						</rate>
						<duration>1040</duration>
						<metadata>
							<storage>QuickTime</storage>
							<key>com.apple.finalcutstudio.media.uuid</key>
							<size>36</size>
							<type>UTF8</type>
							<value>5231B8E5-F60F-4D1A-9361-2F2DBB2601A4</value>
						</metadata>
						<metadata>
							<storage>QuickTime</storage>
							<key>com.apple.finalcutstudio.media.history.uuid</key>
							<size>36</size>
							<type>UTF8</type>
							<value>BEF1616D-53CB-462D-900E-2DBD620223F7</value>
						</metadata>
						<timecode>
							<rate>
								<timebase>25</timebase>
							</rate>
							<string>00:00:00:00</string>
							<frame>0</frame>
							<displayformat>NDF</displayformat>
							<source>source</source>
							<reel>
								<name>JonWills</name>
							</reel>
						</timecode>
						<media>
							<video>
								<duration>1040</duration>
								<samplecharacteristics>
									<width>1280</width>
									<height>720</height>
								</samplecharacteristics>
							</video>
							<audio>
								<samplecharacteristics>
									<samplerate>48000</samplerate>
									<depth>16</depth>
								</samplecharacteristics>
								<channelcount>2</channelcount>
								<layout>stereo</layout>
								<audiochannel>
									<sourcechannel>1</sourcechannel>
									<channellabel>left</channellabel>
								</audiochannel>
								<audiochannel>
									<sourcechannel>2</sourcechannel>
									<channellabel>right</channellabel>
								</audiochannel>
							</audio>
						</media>
					</file>
					<sourcetrack>
						<mediatype>video</mediatype>
					</sourcetrack>
					<fielddominance>none</fielddominance>
					<itemhistory>
						<uuid>A2B1D65E-1CC9-4607-ACCF-E5981EC7F1EF</uuid>
						<uuid>5E027624-F4DD-4703-AA20-E768C9C63F87</uuid>
					</itemhistory>
				</clipitem>
				<clipitem id="JonWills052Subclipb">
					<name>JonWills052Subclipb</name>
					<duration>1694</duration>
					<rate>
						<ntsc>FALSE</ntsc>
						<timebase>25</timebase>
					</rate>
					<in>0</in>
					<out>1694</out>
					<start>101590</start>
					<end>103284</end>
					<pixelaspectratio>Square</pixelaspectratio>
					<anamorphic>FALSE</anamorphic>
					<alphatype>none</alphatype>
					<logginginfo>
						<scene/>
						<shottake/>
						<lognote/>
						<good>FALSE</good>
					</logginginfo>
					<labels>
						<label2/>
					</labels>
					<comments>
						<mastercomment1/>
						<mastercomment2/>
						<mastercomment3/>
						<mastercomment4/>
					</comments>
					<file id="JonWills052Subclipb1">
						<name>JonWills052Subclipb</name>
						<pathurl>file://localhost/Volumes/Michael's%20Passport/woodbdrigenov2011media/JonWills052Subclipb</pathurl>
						<rate>
							<timebase>25</timebase>
						</rate>
						<duration>1694</duration>
						<metadata>
							<storage>QuickTime</storage>
							<key>com.apple.finalcutstudio.media.uuid</key>
							<size>36</size>
							<type>UTF8</type>
							<value>9ABB550A-32AA-4C88-AC72-0D01A0C97CEF</value>
						</metadata>
						<metadata>
							<storage>QuickTime</storage>
							<key>com.apple.finalcutstudio.media.history.uuid</key>
							<size>36</size>
							<type>UTF8</type>
							<value>BEF1616D-53CB-462D-900E-2DBD620223F7</value>
						</metadata>
						<timecode>
							<rate>
								<timebase>25</timebase>
							</rate>
							<string>00:00:44:04</string>
							<frame>1104</frame>
							<displayformat>NDF</displayformat>
							<source>source</source>
							<reel>
								<name>JonWills</name>
							</reel>
						</timecode>
						<media>
							<video>
								<duration>1694</duration>
								<samplecharacteristics>
									<width>1280</width>
									<height>720</height>
								</samplecharacteristics>
							</video>
							<audio>
								<samplecharacteristics>
									<samplerate>48000</samplerate>
									<depth>16</depth>
								</samplecharacteristics>
								<channelcount>2</channelcount>
								<layout>stereo</layout>
								<audiochannel>
									<sourcechannel>1</sourcechannel>
									<channellabel>left</channellabel>
								</audiochannel>
								<audiochannel>
									<sourcechannel>2</sourcechannel>
									<channellabel>right</channellabel>
								</audiochannel>
							</audio>
						</media>
					</file>
					<sourcetrack>
						<mediatype>video</mediatype>
					</sourcetrack>
					<fielddominance>none</fielddominance>
					<itemhistory>
						<uuid>06D2A018-C7A2-4DBA-B3BE-664B981B9F65</uuid>
						<uuid>EC4935BB-208E-4012-A2C3-C08ECBEE2483</uuid>
					</itemhistory>
				</clipitem>
				<clipitem id="JonWills052Subclipc">
					<name>JonWills052Subclipc</name>
					<duration>1308</duration>
					<rate>
						<ntsc>FALSE</ntsc>
						<timebase>25</timebase>
					</rate>
					<in>0</in>
					<out>1307</out>
					<start>103363</start>
					<end>104670</end>
					<pixelaspectratio>Square</pixelaspectratio>
					<anamorphic>FALSE</anamorphic>
					<alphatype>none</alphatype>
					<logginginfo>
						<scene/>
						<shottake/>
						<lognote/>
						<good>FALSE</good>
					</logginginfo>
					<labels>
						<label2/>
					</labels>
					<comments>
						<mastercomment1/>
						<mastercomment2/>
						<mastercomment3/>
						<mastercomment4/>
					</comments>
					<file id="JonWills052Subclipc1">
						<name>JonWills052Subclipc</name>
						<pathurl>file://localhost/Volumes/Michael's%20Passport/woodbdrigenov2011media/JonWills052Subclipc</pathurl>
						<rate>
							<timebase>25</timebase>
						</rate>
						<duration>1308</duration>
						<metadata>
							<storage>QuickTime</storage>
							<key>com.apple.finalcutstudio.media.uuid</key>
							<size>36</size>
							<type>UTF8</type>
							<value>9111B80D-F672-47F6-8C5D-9016C00BDC7F</value>
						</metadata>
						<metadata>
							<storage>QuickTime</storage>
							<key>com.apple.finalcutstudio.media.history.uuid</key>
							<size>36</size>
							<type>UTF8</type>
							<value>BEF1616D-53CB-462D-900E-2DBD620223F7</value>
						</metadata>
						<timecode>
							<rate>
								<timebase>25</timebase>
							</rate>
							<string>00:01:55:02</string>
							<frame>2877</frame>
							<displayformat>NDF</displayformat>
							<source>source</source>
							<reel>
								<name>JonWills</name>
							</reel>
						</timecode>
						<media>
							<video>
								<duration>1308</duration>
								<samplecharacteristics>
									<width>1280</width>
									<height>720</height>
								</samplecharacteristics>
							</video>
							<audio>
								<samplecharacteristics>
									<samplerate>48000</samplerate>
									<depth>16</depth>
								</samplecharacteristics>
								<channelcount>2</channelcount>
								<layout>stereo</layout>
								<audiochannel>
									<sourcechannel>1</sourcechannel>
									<channellabel>left</channellabel>
								</audiochannel>
								<audiochannel>
									<sourcechannel>2</sourcechannel>
									<channellabel>right</channellabel>
								</audiochannel>
							</audio>
						</media>
					</file>
					<sourcetrack>
						<mediatype>video</mediatype>
					</sourcetrack>
					<fielddominance>none</fielddominance>
					<itemhistory>
						<uuid>01611936-1C90-4ECF-82EF-EC419D36F4E1</uuid>
						<uuid>BE8FBA50-4FA4-422E-9D8A-CB81DB8E4BE1</uuid>
					</itemhistory>
				</clipitem>
				<clipitem id="JonWills052Subclipd">
					<name>JonWills052Subclipd</name>
					<duration>105</duration>
					<rate>
						<ntsc>FALSE</ntsc>
						<timebase>25</timebase>
					</rate>
					<in>0</in>
					<out>104</out>
					<start>104763</start>
					<end>104867</end>
					<pixelaspectratio>Square</pixelaspectratio>
					<anamorphic>FALSE</anamorphic>
					<alphatype>none</alphatype>
					<logginginfo>
						<scene/>
						<shottake/>
						<lognote/>
						<good>FALSE</good>
					</logginginfo>
					<labels>
						<label2/>
					</labels>
					<comments>
						<mastercomment1/>
						<mastercomment2/>
						<mastercomment3/>
						<mastercomment4/>
					</comments>
					<file id="JonWills052Subclipd1">
						<name>JonWills052Subclipd</name>
						<pathurl>file://localhost/Volumes/Michael's%20Passport/woodbdrigenov2011media/JonWills052Subclipd</pathurl>
						<rate>
							<timebase>25</timebase>
						</rate>
						<duration>105</duration>
						<metadata>
							<storage>QuickTime</storage>
							<key>com.apple.finalcutstudio.media.uuid</key>
							<size>36</size>
							<type>UTF8</type>
							<value>28B32F07-8CAF-4947-AD2E-603C873D7610</value>
						</metadata>
						<metadata>
							<storage>QuickTime</storage>
							<key>com.apple.finalcutstudio.media.history.uuid</key>
							<size>36</size>
							<type>UTF8</type>
							<value>BEF1616D-53CB-462D-900E-2DBD620223F7</value>
						</metadata>
						<timecode>
							<rate>
								<timebase>25</timebase>
							</rate>
							<string>00:02:51:02</string>
							<frame>4277</frame>
							<displayformat>NDF</displayformat>
							<source>source</source>
							<reel>
								<name>JonWills</name>
							</reel>
						</timecode>
						<media>
							<video>
								<duration>105</duration>
								<samplecharacteristics>
									<width>1280</width>
									<height>720</height>
								</samplecharacteristics>
							</video>
							<audio>
								<samplecharacteristics>
									<samplerate>48000</samplerate>
									<depth>16</depth>
								</samplecharacteristics>
								<channelcount>2</channelcount>
								<layout>stereo</layout>
								<audiochannel>
									<sourcechannel>1</sourcechannel>
									<channellabel>left</channellabel>
								</audiochannel>
								<audiochannel>
									<sourcechannel>2</sourcechannel>
									<channellabel>right</channellabel>
								</audiochannel>
							</audio>
						</media>
					</file>
					<sourcetrack>
						<mediatype>video</mediatype>
					</sourcetrack>
					<fielddominance>none</fielddominance>
					<itemhistory>
						<uuid>DE8B2EC9-F307-4D7D-B925-3493D119DB96</uuid>
						<uuid>E28F4E9D-754A-48B5-BA2D-1846CB63658F</uuid>
					</itemhistory>
				</clipitem>
				<clipitem id="JonWills052Subclipe">
					<name>JonWills052Subclipe</name>
					<duration>403</duration>
					<rate>
						<ntsc>FALSE</ntsc>
						<timebase>25</timebase>
					</rate>
					<in>0</in>
					<out>402</out>
					<start>104913</start>
					<end>105315</end>
					<pixelaspectratio>Square</pixelaspectratio>
					<anamorphic>FALSE</anamorphic>
					<alphatype>none</alphatype>
					<logginginfo>
						<scene/>
						<shottake/>
						<lognote/>
						<good>FALSE</good>
					</logginginfo>
					<labels>
						<label2/>
					</labels>
					<comments>
						<mastercomment1/>
						<mastercomment2/>
						<mastercomment3/>
						<mastercomment4/>
					</comments>
					<file id="JonWills052Subclipe1">
						<name>JonWills052Subclipe</name>
						<pathurl>file://localhost/Volumes/Michael's%20Passport/woodbdrigenov2011media/JonWills052Subclipe</pathurl>
						<rate>
							<timebase>25</timebase>
						</rate>
						<duration>403</duration>
						<metadata>
							<storage>QuickTime</storage>
							<key>com.apple.finalcutstudio.media.uuid</key>
							<size>36</size>
							<type>UTF8</type>
							<value>C6BC6667-2466-46D7-8382-3C394A71B872</value>
						</metadata>
						<metadata>
							<storage>QuickTime</storage>
							<key>com.apple.finalcutstudio.media.history.uuid</key>
							<size>36</size>
							<type>UTF8</type>
							<value>BEF1616D-53CB-462D-900E-2DBD620223F7</value>
						</metadata>
						<timecode>
							<rate>
								<timebase>25</timebase>
							</rate>
							<string>00:02:57:02</string>
							<frame>4427</frame>
							<displayformat>NDF</displayformat>
							<source>source</source>
							<reel>
								<name>JonWills</name>
							</reel>
						</timecode>
						<media>
							<video>
								<duration>403</duration>
								<samplecharacteristics>
									<width>1280</width>
									<height>720</height>
								</samplecharacteristics>
							</video>
							<audio>
								<samplecharacteristics>
									<samplerate>48000</samplerate>
									<depth>16</depth>
								</samplecharacteristics>
								<channelcount>2</channelcount>
								<layout>stereo</layout>
								<audiochannel>
									<sourcechannel>1</sourcechannel>
									<channellabel>left</channellabel>
								</audiochannel>
								<audiochannel>
									<sourcechannel>2</sourcechannel>
									<channellabel>right</channellabel>
								</audiochannel>
							</audio>
						</media>
					</file>
					<sourcetrack>
						<mediatype>video</mediatype>
					</sourcetrack>
					<fielddominance>none</fielddominance>
					<itemhistory>
						<uuid>56128301-9AF9-45ED-892A-10FB68653B1A</uuid>
						<uuid>5C35C300-F2F6-405F-8ACA-D4BD17D7E24F</uuid>
					</itemhistory>
				</clipitem>
				<clipitem id="JonWills052Subclipf">
					<name>JonWills052Subclipf</name>
					<duration>235</duration>
					<rate>
						<ntsc>FALSE</ntsc>
						<timebase>25</timebase>
					</rate>
					<in>0</in>
					<out>234</out>
					<start>105753</start>
					<end>105987</end>
					<pixelaspectratio>Square</pixelaspectratio>
					<anamorphic>FALSE</anamorphic>
					<alphatype>none</alphatype>
					<logginginfo>
						<scene/>
						<shottake/>
						<lognote/>
						<good>FALSE</good>
					</logginginfo>
					<labels>
						<label2/>
					</labels>
					<comments>
						<mastercomment1/>
						<mastercomment2/>
						<mastercomment3/>
						<mastercomment4/>
					</comments>
					<file id="JonWills052Subclipf1">
						<name>JonWills052Subclipf</name>
						<pathurl>file://localhost/Volumes/Michael's%20Passport/woodbdrigenov2011media/JonWills052Subclipf</pathurl>
						<rate>
							<timebase>25</timebase>
						</rate>
						<duration>235</duration>
						<metadata>
							<storage>QuickTime</storage>
							<key>com.apple.finalcutstudio.media.uuid</key>
							<size>36</size>
							<type>UTF8</type>
							<value>A15E7626-AB0D-4210-AE79-562E0C4D5D67</value>
						</metadata>
						<metadata>
							<storage>QuickTime</storage>
							<key>com.apple.finalcutstudio.media.history.uuid</key>
							<size>36</size>
							<type>UTF8</type>
							<value>BEF1616D-53CB-462D-900E-2DBD620223F7</value>
						</metadata>
						<timecode>
							<rate>
								<timebase>25</timebase>
							</rate>
							<string>00:03:30:17</string>
							<frame>5267</frame>
							<displayformat>NDF</displayformat>
							<source>source</source>
							<reel>
								<name>JonWills</name>
							</reel>
						</timecode>
						<media>
							<video>
								<duration>235</duration>
								<samplecharacteristics>
									<width>1280</width>
									<height>720</height>
								</samplecharacteristics>
							</video>
							<audio>
								<samplecharacteristics>
									<samplerate>48000</samplerate>
									<depth>16</depth>
								</samplecharacteristics>
								<channelcount>2</channelcount>
								<layout>stereo</layout>
								<audiochannel>
									<sourcechannel>1</sourcechannel>
									<channellabel>left</channellabel>
								</audiochannel>
								<audiochannel>
									<sourcechannel>2</sourcechannel>
									<channellabel>right</channellabel>
								</audiochannel>
							</audio>
						</media>
					</file>
					<sourcetrack>
						<mediatype>video</mediatype>
					</sourcetrack>
					<fielddominance>none</fielddominance>
					<itemhistory>
						<uuid>6EC8FFDD-11E1-4564-BED3-83A914125D0A</uuid>
						<uuid>A379E5C3-8D8C-4535-A2EC-094DAD9728ED</uuid>
					</itemhistory>
				</clipitem>
				<clipitem id="JonWills052Subclipg">
					<name>JonWills052Subclipg</name>
					<duration>940</duration>
					<rate>
						<ntsc>FALSE</ntsc>
						<timebase>25</timebase>
					</rate>
					<in>0</in>
					<out>939</out>
					<start>106147</start>
					<end>107086</end>
					<pixelaspectratio>Square</pixelaspectratio>
					<anamorphic>FALSE</anamorphic>
					<alphatype>none</alphatype>
					<logginginfo>
						<scene/>
						<shottake/>
						<lognote/>
						<good>FALSE</good>
					</logginginfo>
					<labels>
						<label2/>
					</labels>
					<comments>
						<mastercomment1/>
						<mastercomment2/>
						<mastercomment3/>
						<mastercomment4/>
					</comments>
					<file id="JonWills052Subclipg1">
						<name>JonWills052Subclipg</name>
						<pathurl>file://localhost/Volumes/Michael's%20Passport/woodbdrigenov2011media/JonWills052Subclipg</pathurl>
						<rate>
							<timebase>25</timebase>
						</rate>
						<duration>940</duration>
						<metadata>
							<storage>QuickTime</storage>
							<key>com.apple.finalcutstudio.media.uuid</key>
							<size>36</size>
							<type>UTF8</type>
							<value>F70CC1DF-9ACE-4A16-A191-DF7A05A025FB</value>
						</metadata>
						<metadata>
							<storage>QuickTime</storage>
							<key>com.apple.finalcutstudio.media.history.uuid</key>
							<size>36</size>
							<type>UTF8</type>
							<value>BEF1616D-53CB-462D-900E-2DBD620223F7</value>
						</metadata>
						<timecode>
							<rate>
								<timebase>25</timebase>
							</rate>
							<string>00:03:46:10</string>
							<frame>5660</frame>
							<displayformat>NDF</displayformat>
							<source>source</source>
							<reel>
								<name>JonWills</name>
							</reel>
						</timecode>
						<media>
							<video>
								<duration>940</duration>
								<samplecharacteristics>
									<width>1280</width>
									<height>720</height>
								</samplecharacteristics>
							</video>
							<audio>
								<samplecharacteristics>
									<samplerate>48000</samplerate>
									<depth>16</depth>
								</samplecharacteristics>
								<channelcount>2</channelcount>
								<layout>stereo</layout>
								<audiochannel>
									<sourcechannel>1</sourcechannel>
									<channellabel>left</channellabel>
								</audiochannel>
								<audiochannel>
									<sourcechannel>2</sourcechannel>
									<channellabel>right</channellabel>
								</audiochannel>
							</audio>
						</media>
					</file>
					<sourcetrack>
						<mediatype>video</mediatype>
					</sourcetrack>
					<fielddominance>none</fielddominance>
					<itemhistory>
						<uuid>25B4710E-994B-4707-AAE4-4E875E28E0A3</uuid>
						<uuid>F3755CAD-DEAB-4276-B9E9-D4146320A69F</uuid>
					</itemhistory>
				</clipitem>
				<clipitem id="JonWills053Subclipa">
					<name>JonWills053Subclipa</name>
					<duration>426</duration>
					<rate>
						<ntsc>FALSE</ntsc>
						<timebase>25</timebase>
					</rate>
					<in>0</in>
					<out>425</out>
					<start>107958</start>
					<end>108383</end>
					<pixelaspectratio>Square</pixelaspectratio>
					<anamorphic>FALSE</anamorphic>
					<alphatype>none</alphatype>
					<logginginfo>
						<scene/>
						<shottake/>
						<lognote/>
						<good>FALSE</good>
					</logginginfo>
					<labels>
						<label2/>
					</labels>
					<comments>
						<mastercomment1/>
						<mastercomment2/>
						<mastercomment3/>
						<mastercomment4/>
					</comments>
					<file id="JonWills053Subclipa1">
						<name>JonWills053Subclipa</name>
						<pathurl>file://localhost/Volumes/Michael's%20Passport/woodbdrigenov2011media/JonWills053Subclipa</pathurl>
						<rate>
							<timebase>25</timebase>
						</rate>
						<duration>426</duration>
						<metadata>
							<storage>QuickTime</storage>
							<key>com.apple.finalcutstudio.media.uuid</key>
							<size>36</size>
							<type>UTF8</type>
							<value>A4CAA8EE-C551-40C8-9EF8-A3913DCAA846</value>
						</metadata>
						<metadata>
							<storage>QuickTime</storage>
							<key>com.apple.finalcutstudio.media.history.uuid</key>
							<size>36</size>
							<type>UTF8</type>
							<value>C067EBCD-B0D7-423D-BEF9-8003D5D57C5B</value>
						</metadata>
						<timecode>
							<rate>
								<timebase>25</timebase>
							</rate>
							<string>00:00:00:00</string>
							<frame>0</frame>
							<displayformat>NDF</displayformat>
							<source>source</source>
							<reel>
								<name>JonWills</name>
							</reel>
						</timecode>
						<media>
							<video>
								<duration>426</duration>
								<samplecharacteristics>
									<width>1280</width>
									<height>720</height>
								</samplecharacteristics>
							</video>
							<audio>
								<samplecharacteristics>
									<samplerate>48000</samplerate>
									<depth>16</depth>
								</samplecharacteristics>
								<channelcount>2</channelcount>
								<layout>stereo</layout>
								<audiochannel>
									<sourcechannel>1</sourcechannel>
									<channellabel>left</channellabel>
								</audiochannel>
								<audiochannel>
									<sourcechannel>2</sourcechannel>
									<channellabel>right</channellabel>
								</audiochannel>
							</audio>
						</media>
					</file>
					<sourcetrack>
						<mediatype>video</mediatype>
					</sourcetrack>
					<fielddominance>none</fielddominance>
					<itemhistory>
						<uuid>2175E30F-8F51-451D-9E83-0236A152BC39</uuid>
						<uuid>B271EF30-F144-4FF9-896F-BF30FED92239</uuid>
					</itemhistory>
				</clipitem>
				<clipitem id="JonWills053Subclipb">
					<name>JonWills053Subclipb</name>
					<duration>551</duration>
					<rate>
						<ntsc>FALSE</ntsc>
						<timebase>25</timebase>
					</rate>
					<in>0</in>
					<out>551</out>
					<start>108563</start>
					<end>109114</end>
					<pixelaspectratio>Square</pixelaspectratio>
					<anamorphic>FALSE</anamorphic>
					<alphatype>none</alphatype>
					<logginginfo>
						<scene/>
						<shottake/>
						<lognote/>
						<good>FALSE</good>
					</logginginfo>
					<labels>
						<label2/>
					</labels>
					<comments>
						<mastercomment1/>
						<mastercomment2/>
						<mastercomment3/>
						<mastercomment4/>
					</comments>
					<file id="JonWills053Subclipb1">
						<name>JonWills053Subclipb</name>
						<pathurl>file://localhost/Volumes/Michael's%20Passport/woodbdrigenov2011media/JonWills053Subclipb</pathurl>
						<rate>
							<timebase>25</timebase>
						</rate>
						<duration>551</duration>
						<metadata>
							<storage>QuickTime</storage>
							<key>com.apple.finalcutstudio.media.uuid</key>
							<size>36</size>
							<type>UTF8</type>
							<value>DCE3CC06-12C6-40F2-BE85-CC97E4FE2311</value>
						</metadata>
						<metadata>
							<storage>QuickTime</storage>
							<key>com.apple.finalcutstudio.media.history.uuid</key>
							<size>36</size>
							<type>UTF8</type>
							<value>C067EBCD-B0D7-423D-BEF9-8003D5D57C5B</value>
						</metadata>
						<timecode>
							<rate>
								<timebase>25</timebase>
							</rate>
							<string>00:00:24:06</string>
							<frame>606</frame>
							<displayformat>NDF</displayformat>
							<source>source</source>
							<reel>
								<name>JonWills</name>
							</reel>
						</timecode>
						<media>
							<video>
								<duration>551</duration>
								<samplecharacteristics>
									<width>1280</width>
									<height>720</height>
								</samplecharacteristics>
							</video>
							<audio>
								<samplecharacteristics>
									<samplerate>48000</samplerate>
									<depth>16</depth>
								</samplecharacteristics>
								<channelcount>2</channelcount>
								<layout>stereo</layout>
								<audiochannel>
									<sourcechannel>1</sourcechannel>
									<channellabel>left</channellabel>
								</audiochannel>
								<audiochannel>
									<sourcechannel>2</sourcechannel>
									<channellabel>right</channellabel>
								</audiochannel>
							</audio>
						</media>
					</file>
					<sourcetrack>
						<mediatype>video</mediatype>
					</sourcetrack>
					<fielddominance>none</fielddominance>
					<itemhistory>
						<uuid>1D0E54C4-08EA-46D2-93C1-68D7819C6F06</uuid>
						<uuid>DA7A58E4-1792-455D-8CDB-6E06A9E9BF40</uuid>
					</itemhistory>
				</clipitem>
				<clipitem id="JonWills053Subclipc">
					<name>JonWills053Subclipc</name>
					<duration>597</duration>
					<rate>
						<ntsc>FALSE</ntsc>
						<timebase>25</timebase>
					</rate>
					<in>0</in>
					<out>596</out>
					<start>109163</start>
					<end>109759</end>
					<pixelaspectratio>Square</pixelaspectratio>
					<anamorphic>FALSE</anamorphic>
					<alphatype>none</alphatype>
					<logginginfo>
						<scene/>
						<shottake/>
						<lognote/>
						<good>FALSE</good>
					</logginginfo>
					<labels>
						<label2/>
					</labels>
					<comments>
						<mastercomment1/>
						<mastercomment2/>
						<mastercomment3/>
						<mastercomment4/>
					</comments>
					<file id="JonWills053Subclipc1">
						<name>JonWills053Subclipc</name>
						<pathurl>file://localhost/Volumes/Michael's%20Passport/woodbdrigenov2011media/JonWills053Subclipc</pathurl>
						<rate>
							<timebase>25</timebase>
						</rate>
						<duration>597</duration>
						<metadata>
							<storage>QuickTime</storage>
							<key>com.apple.finalcutstudio.media.uuid</key>
							<size>36</size>
							<type>UTF8</type>
							<value>36842CD1-4184-4AF9-8D9C-F27542805BCB</value>
						</metadata>
						<metadata>
							<storage>QuickTime</storage>
							<key>com.apple.finalcutstudio.media.history.uuid</key>
							<size>36</size>
							<type>UTF8</type>
							<value>C067EBCD-B0D7-423D-BEF9-8003D5D57C5B</value>
						</metadata>
						<timecode>
							<rate>
								<timebase>25</timebase>
							</rate>
							<string>00:00:48:06</string>
							<frame>1206</frame>
							<displayformat>NDF</displayformat>
							<source>source</source>
							<reel>
								<name>JonWills</name>
							</reel>
						</timecode>
						<media>
							<video>
								<duration>597</duration>
								<samplecharacteristics>
									<width>1280</width>
									<height>720</height>
								</samplecharacteristics>
							</video>
							<audio>
								<samplecharacteristics>
									<samplerate>48000</samplerate>
									<depth>16</depth>
								</samplecharacteristics>
								<channelcount>2</channelcount>
								<layout>stereo</layout>
								<audiochannel>
									<sourcechannel>1</sourcechannel>
									<channellabel>left</channellabel>
								</audiochannel>
								<audiochannel>
									<sourcechannel>2</sourcechannel>
									<channellabel>right</channellabel>
								</audiochannel>
							</audio>
						</media>
					</file>
					<sourcetrack>
						<mediatype>video</mediatype>
					</sourcetrack>
					<fielddominance>none</fielddominance>
					<itemhistory>
						<uuid>78DD06F3-1D70-4C3E-8BAA-814C10D1DE8E</uuid>
						<uuid>717F3D9C-1218-4FCB-A5D8-BAA2CF70E58D</uuid>
					</itemhistory>
				</clipitem>
				<clipitem id="JonWills053Subclipd">
					<name>JonWills053Subclipd</name>
					<duration>401</duration>
					<rate>
						<ntsc>FALSE</ntsc>
						<timebase>25</timebase>
					</rate>
					<in>0</in>
					<out>400</out>
					<start>109836</start>
					<end>110236</end>
					<pixelaspectratio>Square</pixelaspectratio>
					<anamorphic>FALSE</anamorphic>
					<alphatype>none</alphatype>
					<logginginfo>
						<scene/>
						<shottake/>
						<lognote/>
						<good>FALSE</good>
					</logginginfo>
					<labels>
						<label2/>
					</labels>
					<comments>
						<mastercomment1/>
						<mastercomment2/>
						<mastercomment3/>
						<mastercomment4/>
					</comments>
					<file id="JonWills053Subclipd1">
						<name>JonWills053Subclipd</name>
						<pathurl>file://localhost/Volumes/Michael's%20Passport/woodbdrigenov2011media/JonWills053Subclipd</pathurl>
						<rate>
							<timebase>25</timebase>
						</rate>
						<duration>401</duration>
						<metadata>
							<storage>QuickTime</storage>
							<key>com.apple.finalcutstudio.media.uuid</key>
							<size>36</size>
							<type>UTF8</type>
							<value>BBE9DE26-2622-405F-82A2-55857BE36AD9</value>
						</metadata>
						<metadata>
							<storage>QuickTime</storage>
							<key>com.apple.finalcutstudio.media.history.uuid</key>
							<size>36</size>
							<type>UTF8</type>
							<value>C067EBCD-B0D7-423D-BEF9-8003D5D57C5B</value>
						</metadata>
						<timecode>
							<rate>
								<timebase>25</timebase>
							</rate>
							<string>00:01:15:04</string>
							<frame>1879</frame>
							<displayformat>NDF</displayformat>
							<source>source</source>
							<reel>
								<name>JonWills</name>
							</reel>
						</timecode>
						<media>
							<video>
								<duration>401</duration>
								<samplecharacteristics>
									<width>1280</width>
									<height>720</height>
								</samplecharacteristics>
							</video>
							<audio>
								<samplecharacteristics>
									<samplerate>48000</samplerate>
									<depth>16</depth>
								</samplecharacteristics>
								<channelcount>2</channelcount>
								<layout>stereo</layout>
								<audiochannel>
									<sourcechannel>1</sourcechannel>
									<channellabel>left</channellabel>
								</audiochannel>
								<audiochannel>
									<sourcechannel>2</sourcechannel>
									<channellabel>right</channellabel>
								</audiochannel>
							</audio>
						</media>
					</file>
					<sourcetrack>
						<mediatype>video</mediatype>
					</sourcetrack>
					<fielddominance>none</fielddominance>
					<itemhistory>
						<uuid>DA82A2DC-C4F8-4BF5-8779-753E8F2783C9</uuid>
						<uuid>E854E00E-B9E0-4238-B265-8B1A26464E46</uuid>
					</itemhistory>
				</clipitem>
				<clipitem id="JonWills053Subclipe">
					<name>JonWills053Subclipe</name>
					<duration>1493</duration>
					<rate>
						<ntsc>FALSE</ntsc>
						<timebase>25</timebase>
					</rate>
					<in>0</in>
					<out>1492</out>
					<start>110688</start>
					<end>112180</end>
					<pixelaspectratio>Square</pixelaspectratio>
					<anamorphic>FALSE</anamorphic>
					<alphatype>none</alphatype>
					<logginginfo>
						<scene/>
						<shottake/>
						<lognote/>
						<good>FALSE</good>
					</logginginfo>
					<labels>
						<label2/>
					</labels>
					<comments>
						<mastercomment1/>
						<mastercomment2/>
						<mastercomment3/>
						<mastercomment4/>
					</comments>
					<file id="JonWills053Subclipe1">
						<name>JonWills053Subclipe</name>
						<pathurl>file://localhost/Volumes/Michael's%20Passport/woodbdrigenov2011media/JonWills053Subclipe</pathurl>
						<rate>
							<timebase>25</timebase>
						</rate>
						<duration>1493</duration>
						<metadata>
							<storage>QuickTime</storage>
							<key>com.apple.finalcutstudio.media.uuid</key>
							<size>36</size>
							<type>UTF8</type>
							<value>FFD69703-126E-464A-9721-F486ED25D89C</value>
						</metadata>
						<metadata>
							<storage>QuickTime</storage>
							<key>com.apple.finalcutstudio.media.history.uuid</key>
							<size>36</size>
							<type>UTF8</type>
							<value>C067EBCD-B0D7-423D-BEF9-8003D5D57C5B</value>
						</metadata>
						<timecode>
							<rate>
								<timebase>25</timebase>
							</rate>
							<string>00:01:49:06</string>
							<frame>2731</frame>
							<displayformat>NDF</displayformat>
							<source>source</source>
							<reel>
								<name>JonWills</name>
							</reel>
						</timecode>
						<media>
							<video>
								<duration>1493</duration>
								<samplecharacteristics>
									<width>1280</width>
									<height>720</height>
								</samplecharacteristics>
							</video>
							<audio>
								<samplecharacteristics>
									<samplerate>48000</samplerate>
									<depth>16</depth>
								</samplecharacteristics>
								<channelcount>2</channelcount>
								<layout>stereo</layout>
								<audiochannel>
									<sourcechannel>1</sourcechannel>
									<channellabel>left</channellabel>
								</audiochannel>
								<audiochannel>
									<sourcechannel>2</sourcechannel>
									<channellabel>right</channellabel>
								</audiochannel>
							</audio>
						</media>
					</file>
					<sourcetrack>
						<mediatype>video</mediatype>
					</sourcetrack>
					<fielddominance>none</fielddominance>
					<itemhistory>
						<uuid>FCBB6324-FC62-4360-888C-05776060BAD5</uuid>
						<uuid>8110453D-9E95-40A6-9FB9-E290C04C943E</uuid>
					</itemhistory>
				</clipitem>
				<clipitem id="JonWills054Subclipa">
					<name>JonWills054Subclipa</name>
					<duration>283</duration>
					<rate>
						<ntsc>FALSE</ntsc>
						<timebase>25</timebase>
					</rate>
					<in>0</in>
					<out>282</out>
					<start>112441</start>
					<end>112723</end>
					<pixelaspectratio>Square</pixelaspectratio>
					<anamorphic>FALSE</anamorphic>
					<alphatype>none</alphatype>
					<logginginfo>
						<scene/>
						<shottake/>
						<lognote/>
						<good>FALSE</good>
					</logginginfo>
					<labels>
						<label2/>
					</labels>
					<comments>
						<mastercomment1/>
						<mastercomment2/>
						<mastercomment3/>
						<mastercomment4/>
					</comments>
					<file id="JonWills054Subclipa1">
						<name>JonWills054Subclipa</name>
						<pathurl>file://localhost/Volumes/Michael's%20Passport/woodbdrigenov2011media/JonWills054Subclipa</pathurl>
						<rate>
							<timebase>25</timebase>
						</rate>
						<duration>283</duration>
						<metadata>
							<storage>QuickTime</storage>
							<key>com.apple.finalcutstudio.media.uuid</key>
							<size>36</size>
							<type>UTF8</type>
							<value>BC0049F1-DC2C-40D6-AC17-BAB58B3BB090</value>
						</metadata>
						<metadata>
							<storage>QuickTime</storage>
							<key>com.apple.finalcutstudio.media.history.uuid</key>
							<size>36</size>
							<type>UTF8</type>
							<value>D3BE130B-FF7B-4E18-B779-E42FBF21ADAF</value>
						</metadata>
						<timecode>
							<rate>
								<timebase>25</timebase>
							</rate>
							<string>00:00:00:00</string>
							<frame>0</frame>
							<displayformat>NDF</displayformat>
							<source>source</source>
							<reel>
								<name>JonWills</name>
							</reel>
						</timecode>
						<media>
							<video>
								<duration>283</duration>
								<samplecharacteristics>
									<width>1280</width>
									<height>720</height>
								</samplecharacteristics>
							</video>
							<audio>
								<samplecharacteristics>
									<samplerate>48000</samplerate>
									<depth>16</depth>
								</samplecharacteristics>
								<channelcount>2</channelcount>
								<layout>stereo</layout>
								<audiochannel>
									<sourcechannel>1</sourcechannel>
									<channellabel>left</channellabel>
								</audiochannel>
								<audiochannel>
									<sourcechannel>2</sourcechannel>
									<channellabel>right</channellabel>
								</audiochannel>
							</audio>
						</media>
					</file>
					<sourcetrack>
						<mediatype>video</mediatype>
					</sourcetrack>
					<fielddominance>none</fielddominance>
					<itemhistory>
						<uuid>E104A424-19F3-4CFC-B16A-E5219604C726</uuid>
						<uuid>EB54DC2C-4884-4D3E-B7FC-60E29052453E</uuid>
					</itemhistory>
				</clipitem>
				<clipitem id="JonWills054Subclipb">
					<name>JonWills054Subclipb</name>
					<duration>327</duration>
					<rate>
						<ntsc>FALSE</ntsc>
						<timebase>25</timebase>
					</rate>
					<in>0</in>
					<out>327</out>
					<start>112812</start>
					<end>113139</end>
					<pixelaspectratio>Square</pixelaspectratio>
					<anamorphic>FALSE</anamorphic>
					<alphatype>none</alphatype>
					<logginginfo>
						<scene/>
						<shottake/>
						<lognote/>
						<good>FALSE</good>
					</logginginfo>
					<labels>
						<label2/>
					</labels>
					<comments>
						<mastercomment1/>
						<mastercomment2/>
						<mastercomment3/>
						<mastercomment4/>
					</comments>
					<file id="JonWills054Subclipb1">
						<name>JonWills054Subclipb</name>
						<pathurl>file://localhost/Volumes/Michael's%20Passport/woodbdrigenov2011media/JonWills054Subclipb</pathurl>
						<rate>
							<timebase>25</timebase>
						</rate>
						<duration>327</duration>
						<metadata>
							<storage>QuickTime</storage>
							<key>com.apple.finalcutstudio.media.uuid</key>
							<size>36</size>
							<type>UTF8</type>
							<value>4D077926-BE64-471E-94B1-27106EF0725B</value>
						</metadata>
						<metadata>
							<storage>QuickTime</storage>
							<key>com.apple.finalcutstudio.media.history.uuid</key>
							<size>36</size>
							<type>UTF8</type>
							<value>D3BE130B-FF7B-4E18-B779-E42FBF21ADAF</value>
						</metadata>
						<timecode>
							<rate>
								<timebase>25</timebase>
							</rate>
							<string>00:00:14:21</string>
							<frame>371</frame>
							<displayformat>NDF</displayformat>
							<source>source</source>
							<reel>
								<name>JonWills</name>
							</reel>
						</timecode>
						<media>
							<video>
								<duration>327</duration>
								<samplecharacteristics>
									<width>1280</width>
									<height>720</height>
								</samplecharacteristics>
							</video>
							<audio>
								<samplecharacteristics>
									<samplerate>48000</samplerate>
									<depth>16</depth>
								</samplecharacteristics>
								<channelcount>2</channelcount>
								<layout>stereo</layout>
								<audiochannel>
									<sourcechannel>1</sourcechannel>
									<channellabel>left</channellabel>
								</audiochannel>
								<audiochannel>
									<sourcechannel>2</sourcechannel>
									<channellabel>right</channellabel>
								</audiochannel>
							</audio>
						</media>
					</file>
					<sourcetrack>
						<mediatype>video</mediatype>
					</sourcetrack>
					<fielddominance>none</fielddominance>
					<itemhistory>
						<uuid>07A7CBC8-1862-4692-9AF7-2E740D8EF9C9</uuid>
						<uuid>05C8AEA8-DF09-44CF-9ECB-563A72416AAF</uuid>
					</itemhistory>
				</clipitem>
				<clipitem id="JonWills054Subclipc">
					<name>JonWills054Subclipc</name>
					<duration>732</duration>
					<rate>
						<ntsc>FALSE</ntsc>
						<timebase>25</timebase>
					</rate>
					<in>0</in>
					<out>731</out>
					<start>113195</start>
					<end>113926</end>
					<pixelaspectratio>Square</pixelaspectratio>
					<anamorphic>FALSE</anamorphic>
					<alphatype>none</alphatype>
					<logginginfo>
						<scene/>
						<shottake/>
						<lognote/>
						<good>FALSE</good>
					</logginginfo>
					<labels>
						<label2/>
					</labels>
					<comments>
						<mastercomment1/>
						<mastercomment2/>
						<mastercomment3/>
						<mastercomment4/>
					</comments>
					<file id="JonWills054Subclipc1">
						<name>JonWills054Subclipc</name>
						<pathurl>file://localhost/Volumes/Michael's%20Passport/woodbdrigenov2011media/JonWills054Subclipc</pathurl>
						<rate>
							<timebase>25</timebase>
						</rate>
						<duration>732</duration>
						<metadata>
							<storage>QuickTime</storage>
							<key>com.apple.finalcutstudio.media.uuid</key>
							<size>36</size>
							<type>UTF8</type>
							<value>914987A6-7343-4AF8-80B1-92D3B4E8FF7E</value>
						</metadata>
						<metadata>
							<storage>QuickTime</storage>
							<key>com.apple.finalcutstudio.media.history.uuid</key>
							<size>36</size>
							<type>UTF8</type>
							<value>D3BE130B-FF7B-4E18-B779-E42FBF21ADAF</value>
						</metadata>
						<timecode>
							<rate>
								<timebase>25</timebase>
							</rate>
							<string>00:00:30:04</string>
							<frame>754</frame>
							<displayformat>NDF</displayformat>
							<source>source</source>
							<reel>
								<name>JonWills</name>
							</reel>
						</timecode>
						<media>
							<video>
								<duration>732</duration>
								<samplecharacteristics>
									<width>1280</width>
									<height>720</height>
								</samplecharacteristics>
							</video>
							<audio>
								<samplecharacteristics>
									<samplerate>48000</samplerate>
									<depth>16</depth>
								</samplecharacteristics>
								<channelcount>2</channelcount>
								<layout>stereo</layout>
								<audiochannel>
									<sourcechannel>1</sourcechannel>
									<channellabel>left</channellabel>
								</audiochannel>
								<audiochannel>
									<sourcechannel>2</sourcechannel>
									<channellabel>right</channellabel>
								</audiochannel>
							</audio>
						</media>
					</file>
					<sourcetrack>
						<mediatype>video</mediatype>
					</sourcetrack>
					<fielddominance>none</fielddominance>
					<itemhistory>
						<uuid>6147C91C-C03E-42D6-AE88-3DD507430870</uuid>
						<uuid>2E340DCC-B856-47A7-B2C1-F942C970A92B</uuid>
					</itemhistory>
				</clipitem>
				<clipitem id="JonWills054Subclipd">
					<name>JonWills054Subclipd</name>
					<duration>302</duration>
					<rate>
						<ntsc>FALSE</ntsc>
						<timebase>25</timebase>
					</rate>
					<in>0</in>
					<out>301</out>
					<start>114081</start>
					<end>114382</end>
					<pixelaspectratio>Square</pixelaspectratio>
					<anamorphic>FALSE</anamorphic>
					<alphatype>none</alphatype>
					<logginginfo>
						<scene/>
						<shottake/>
						<lognote/>
						<good>FALSE</good>
					</logginginfo>
					<labels>
						<label2/>
					</labels>
					<comments>
						<mastercomment1/>
						<mastercomment2/>
						<mastercomment3/>
						<mastercomment4/>
					</comments>
					<file id="JonWills054Subclipd1">
						<name>JonWills054Subclipd</name>
						<pathurl>file://localhost/Volumes/Michael's%20Passport/woodbdrigenov2011media/JonWills054Subclipd</pathurl>
						<rate>
							<timebase>25</timebase>
						</rate>
						<duration>302</duration>
						<metadata>
							<storage>QuickTime</storage>
							<key>com.apple.finalcutstudio.media.uuid</key>
							<size>36</size>
							<type>UTF8</type>
							<value>64EC945D-3920-483C-BEBD-3EAC6C4FB267</value>
						</metadata>
						<metadata>
							<storage>QuickTime</storage>
							<key>com.apple.finalcutstudio.media.history.uuid</key>
							<size>36</size>
							<type>UTF8</type>
							<value>D3BE130B-FF7B-4E18-B779-E42FBF21ADAF</value>
						</metadata>
						<timecode>
							<rate>
								<timebase>25</timebase>
							</rate>
							<string>00:01:05:15</string>
							<frame>1640</frame>
							<displayformat>NDF</displayformat>
							<source>source</source>
							<reel>
								<name>JonWills</name>
							</reel>
						</timecode>
						<media>
							<video>
								<duration>302</duration>
								<samplecharacteristics>
									<width>1280</width>
									<height>720</height>
								</samplecharacteristics>
							</video>
							<audio>
								<samplecharacteristics>
									<samplerate>48000</samplerate>
									<depth>16</depth>
								</samplecharacteristics>
								<channelcount>2</channelcount>
								<layout>stereo</layout>
								<audiochannel>
									<sourcechannel>1</sourcechannel>
									<channellabel>left</channellabel>
								</audiochannel>
								<audiochannel>
									<sourcechannel>2</sourcechannel>
									<channellabel>right</channellabel>
								</audiochannel>
							</audio>
						</media>
					</file>
					<sourcetrack>
						<mediatype>video</mediatype>
					</sourcetrack>
					<fielddominance>none</fielddominance>
					<itemhistory>
						<uuid>7A2742BD-85E8-4D0E-AF55-7F1ADFCAC16E</uuid>
						<uuid>65B2990E-4D1B-476A-B8DB-9DDCB47E2D4C</uuid>
					</itemhistory>
				</clipitem>
				<clipitem id="JonWills054Subclipe">
					<name>JonWills054Subclipe</name>
					<duration>756</duration>
					<rate>
						<ntsc>FALSE</ntsc>
						<timebase>25</timebase>
					</rate>
					<in>0</in>
					<out>755</out>
					<start>114455</start>
					<end>115210</end>
					<pixelaspectratio>Square</pixelaspectratio>
					<anamorphic>FALSE</anamorphic>
					<alphatype>none</alphatype>
					<logginginfo>
						<scene/>
						<shottake/>
						<lognote/>
						<good>FALSE</good>
					</logginginfo>
					<labels>
						<label2/>
					</labels>
					<comments>
						<mastercomment1/>
						<mastercomment2/>
						<mastercomment3/>
						<mastercomment4/>
					</comments>
					<file id="JonWills054Subclipe1">
						<name>JonWills054Subclipe</name>
						<pathurl>file://localhost/Volumes/Michael's%20Passport/woodbdrigenov2011media/JonWills054Subclipe</pathurl>
						<rate>
							<timebase>25</timebase>
						</rate>
						<duration>756</duration>
						<metadata>
							<storage>QuickTime</storage>
							<key>com.apple.finalcutstudio.media.uuid</key>
							<size>36</size>
							<type>UTF8</type>
							<value>689E0F92-53D9-4AA2-8C61-DEF00E02A2F4</value>
						</metadata>
						<metadata>
							<storage>QuickTime</storage>
							<key>com.apple.finalcutstudio.media.history.uuid</key>
							<size>36</size>
							<type>UTF8</type>
							<value>D3BE130B-FF7B-4E18-B779-E42FBF21ADAF</value>
						</metadata>
						<timecode>
							<rate>
								<timebase>25</timebase>
							</rate>
							<string>00:01:20:14</string>
							<frame>2014</frame>
							<displayformat>NDF</displayformat>
							<source>source</source>
							<reel>
								<name>JonWills</name>
							</reel>
						</timecode>
						<media>
							<video>
								<duration>756</duration>
								<samplecharacteristics>
									<width>1280</width>
									<height>720</height>
								</samplecharacteristics>
							</video>
							<audio>
								<samplecharacteristics>
									<samplerate>48000</samplerate>
									<depth>16</depth>
								</samplecharacteristics>
								<channelcount>2</channelcount>
								<layout>stereo</layout>
								<audiochannel>
									<sourcechannel>1</sourcechannel>
									<channellabel>left</channellabel>
								</audiochannel>
								<audiochannel>
									<sourcechannel>2</sourcechannel>
									<channellabel>right</channellabel>
								</audiochannel>
							</audio>
						</media>
					</file>
					<sourcetrack>
						<mediatype>video</mediatype>
					</sourcetrack>
					<fielddominance>none</fielddominance>
					<itemhistory>
						<uuid>8CEE3378-088D-467F-9FB1-76AF61A60D93</uuid>
						<uuid>15C877FB-0658-465D-BF07-46E9E1DD0D83</uuid>
					</itemhistory>
				</clipitem>
				<clipitem id="JonWills054Subclipf">
					<name>JonWills054Subclipf</name>
					<duration>714</duration>
					<rate>
						<ntsc>FALSE</ntsc>
						<timebase>25</timebase>
					</rate>
					<in>0</in>
					<out>713</out>
					<start>115210</start>
					<end>115923</end>
					<pixelaspectratio>Square</pixelaspectratio>
					<anamorphic>FALSE</anamorphic>
					<alphatype>none</alphatype>
					<logginginfo>
						<scene/>
						<shottake/>
						<lognote/>
						<good>FALSE</good>
					</logginginfo>
					<labels>
						<label2/>
					</labels>
					<comments>
						<mastercomment1/>
						<mastercomment2/>
						<mastercomment3/>
						<mastercomment4/>
					</comments>
					<file id="JonWills054Subclipf1">
						<name>JonWills054Subclipf</name>
						<pathurl>file://localhost/Volumes/Michael's%20Passport/woodbdrigenov2011media/JonWills054Subclipf</pathurl>
						<rate>
							<timebase>25</timebase>
						</rate>
						<duration>714</duration>
						<metadata>
							<storage>QuickTime</storage>
							<key>com.apple.finalcutstudio.media.uuid</key>
							<size>36</size>
							<type>UTF8</type>
							<value>C86ABCB4-9CEC-4E48-B211-E3FC066FFCBF</value>
						</metadata>
						<metadata>
							<storage>QuickTime</storage>
							<key>com.apple.finalcutstudio.media.history.uuid</key>
							<size>36</size>
							<type>UTF8</type>
							<value>D3BE130B-FF7B-4E18-B779-E42FBF21ADAF</value>
						</metadata>
						<timecode>
							<rate>
								<timebase>25</timebase>
							</rate>
							<string>00:01:50:19</string>
							<frame>2769</frame>
							<displayformat>NDF</displayformat>
							<source>source</source>
							<reel>
								<name>JonWills</name>
							</reel>
						</timecode>
						<media>
							<video>
								<duration>714</duration>
								<samplecharacteristics>
									<width>1280</width>
									<height>720</height>
								</samplecharacteristics>
							</video>
							<audio>
								<samplecharacteristics>
									<samplerate>48000</samplerate>
									<depth>16</depth>
								</samplecharacteristics>
								<channelcount>2</channelcount>
								<layout>stereo</layout>
								<audiochannel>
									<sourcechannel>1</sourcechannel>
									<channellabel>left</channellabel>
								</audiochannel>
								<audiochannel>
									<sourcechannel>2</sourcechannel>
									<channellabel>right</channellabel>
								</audiochannel>
							</audio>
						</media>
					</file>
					<sourcetrack>
						<mediatype>video</mediatype>
					</sourcetrack>
					<fielddominance>none</fielddominance>
					<itemhistory>
						<uuid>8BBA3224-8208-446A-83E2-09846A60D91D</uuid>
						<uuid>89EEAF6D-9751-421F-8D01-CFEC3328781E</uuid>
					</itemhistory>
				</clipitem>
				<clipitem id="JonWills054Subclipg">
					<name>JonWills054Subclipg</name>
					<duration>619</duration>
					<rate>
						<ntsc>FALSE</ntsc>
						<timebase>25</timebase>
					</rate>
					<in>0</in>
					<out>618</out>
					<start>116071</start>
					<end>116689</end>
					<pixelaspectratio>Square</pixelaspectratio>
					<anamorphic>FALSE</anamorphic>
					<alphatype>none</alphatype>
					<logginginfo>
						<scene/>
						<shottake/>
						<lognote/>
						<good>FALSE</good>
					</logginginfo>
					<labels>
						<label2/>
					</labels>
					<comments>
						<mastercomment1/>
						<mastercomment2/>
						<mastercomment3/>
						<mastercomment4/>
					</comments>
					<file id="JonWills054Subclipg1">
						<name>JonWills054Subclipg</name>
						<pathurl>file://localhost/Volumes/Michael's%20Passport/woodbdrigenov2011media/JonWills054Subclipg</pathurl>
						<rate>
							<timebase>25</timebase>
						</rate>
						<duration>619</duration>
						<metadata>
							<storage>QuickTime</storage>
							<key>com.apple.finalcutstudio.media.uuid</key>
							<size>36</size>
							<type>UTF8</type>
							<value>ACA70332-CF79-4038-B6F1-8E6ECA5BA38B</value>
						</metadata>
						<metadata>
							<storage>QuickTime</storage>
							<key>com.apple.finalcutstudio.media.history.uuid</key>
							<size>36</size>
							<type>UTF8</type>
							<value>D3BE130B-FF7B-4E18-B779-E42FBF21ADAF</value>
						</metadata>
						<timecode>
							<rate>
								<timebase>25</timebase>
							</rate>
							<string>00:02:25:05</string>
							<frame>3630</frame>
							<displayformat>NDF</displayformat>
							<source>source</source>
							<reel>
								<name>JonWills</name>
							</reel>
						</timecode>
						<media>
							<video>
								<duration>619</duration>
								<samplecharacteristics>
									<width>1280</width>
									<height>720</height>
								</samplecharacteristics>
							</video>
							<audio>
								<samplecharacteristics>
									<samplerate>48000</samplerate>
									<depth>16</depth>
								</samplecharacteristics>
								<channelcount>2</channelcount>
								<layout>stereo</layout>
								<audiochannel>
									<sourcechannel>1</sourcechannel>
									<channellabel>left</channellabel>
								</audiochannel>
								<audiochannel>
									<sourcechannel>2</sourcechannel>
									<channellabel>right</channellabel>
								</audiochannel>
							</audio>
						</media>
					</file>
					<sourcetrack>
						<mediatype>video</mediatype>
					</sourcetrack>
					<fielddominance>none</fielddominance>
					<itemhistory>
						<uuid>4C56E881-A003-4B06-9A0A-7ECC9394DD24</uuid>
						<uuid>27D05082-56CE-4B95-838D-B650C60B929C</uuid>
					</itemhistory>
				</clipitem>
				<clipitem id="JonWills054Subcliph">
					<name>JonWills054Subcliph</name>
					<duration>257</duration>
					<rate>
						<ntsc>FALSE</ntsc>
						<timebase>25</timebase>
					</rate>
					<in>0</in>
					<out>256</out>
					<start>116803</start>
					<end>117059</end>
					<pixelaspectratio>Square</pixelaspectratio>
					<anamorphic>FALSE</anamorphic>
					<alphatype>none</alphatype>
					<logginginfo>
						<scene/>
						<shottake/>
						<lognote/>
						<good>FALSE</good>
					</logginginfo>
					<labels>
						<label2/>
					</labels>
					<comments>
						<mastercomment1/>
						<mastercomment2/>
						<mastercomment3/>
						<mastercomment4/>
					</comments>
					<file id="JonWills054Subcliph1">
						<name>JonWills054Subcliph</name>
						<pathurl>file://localhost/Volumes/Michael's%20Passport/woodbdrigenov2011media/JonWills054Subcliph</pathurl>
						<rate>
							<timebase>25</timebase>
						</rate>
						<duration>257</duration>
						<metadata>
							<storage>QuickTime</storage>
							<key>com.apple.finalcutstudio.media.uuid</key>
							<size>36</size>
							<type>UTF8</type>
							<value>13F40040-A359-4D6A-AE9C-3EB4509E3EC2</value>
						</metadata>
						<metadata>
							<storage>QuickTime</storage>
							<key>com.apple.finalcutstudio.media.history.uuid</key>
							<size>36</size>
							<type>UTF8</type>
							<value>D3BE130B-FF7B-4E18-B779-E42FBF21ADAF</value>
						</metadata>
						<timecode>
							<rate>
								<timebase>25</timebase>
							</rate>
							<string>00:02:54:13</string>
							<frame>4363</frame>
							<displayformat>NDF</displayformat>
							<source>source</source>
							<reel>
								<name>JonWills</name>
							</reel>
						</timecode>
						<media>
							<video>
								<duration>257</duration>
								<samplecharacteristics>
									<width>1280</width>
									<height>720</height>
								</samplecharacteristics>
							</video>
							<audio>
								<samplecharacteristics>
									<samplerate>48000</samplerate>
									<depth>16</depth>
								</samplecharacteristics>
								<channelcount>2</channelcount>
								<layout>stereo</layout>
								<audiochannel>
									<sourcechannel>1</sourcechannel>
									<channellabel>left</channellabel>
								</audiochannel>
								<audiochannel>
									<sourcechannel>2</sourcechannel>
									<channellabel>right</channellabel>
								</audiochannel>
							</audio>
						</media>
					</file>
					<sourcetrack>
						<mediatype>video</mediatype>
					</sourcetrack>
					<fielddominance>none</fielddominance>
					<itemhistory>
						<uuid>4E2A6CD8-8DC7-44B5-A3EF-792EE8866B62</uuid>
						<uuid>8A567CFC-30AF-4A8E-B721-1988B0484FF2</uuid>
					</itemhistory>
				</clipitem>
				<clipitem id="JonWills055 ">
					<name>JonWills055</name>
					<duration>612</duration>
					<rate>
						<ntsc>FALSE</ntsc>
						<timebase>25</timebase>
					</rate>
					<in>0</in>
					<out>612</out>
					<start>117289</start>
					<end>117901</end>
					<pixelaspectratio>Square</pixelaspectratio>
					<anamorphic>FALSE</anamorphic>
					<alphatype>none</alphatype>
					<logginginfo>
						<scene/>
						<shottake/>
						<lognote/>
						<good>FALSE</good>
					</logginginfo>
					<labels>
						<label2/>
					</labels>
					<comments>
						<mastercomment1/>
						<mastercomment2/>
						<mastercomment3/>
						<mastercomment4/>
					</comments>
					<file id="JonWills055 1">
						<name>JonWills055</name>
						<pathurl>file://localhost/Volumes/Michael's%20Passport/woodbdrigenov2011media/JonWills055</pathurl>
						<rate>
							<timebase>25</timebase>
						</rate>
						<duration>612</duration>
						<metadata>
							<storage>QuickTime</storage>
							<key>com.apple.finalcutstudio.media.uuid</key>
							<size>36</size>
							<type>UTF8</type>
							<value>CF7FEBF3-A4BB-48BF-9429-36511A8A2C1D</value>
						</metadata>
						<metadata>
							<storage>QuickTime</storage>
							<key>com.apple.finalcutstudio.media.history.uuid</key>
							<size>36</size>
							<type>UTF8</type>
							<value>501B0EC5-DAA4-4158-8F91-4B43C8664073</value>
						</metadata>
						<timecode>
							<rate>
								<timebase>25</timebase>
							</rate>
							<string>00:00:00:00</string>
							<frame>0</frame>
							<displayformat>NDF</displayformat>
							<source>source</source>
							<reel>
								<name>JonWills</name>
							</reel>
						</timecode>
						<media>
							<video>
								<duration>612</duration>
								<samplecharacteristics>
									<width>1280</width>
									<height>720</height>
								</samplecharacteristics>
							</video>
							<audio>
								<samplecharacteristics>
									<samplerate>48000</samplerate>
									<depth>16</depth>
								</samplecharacteristics>
								<channelcount>2</channelcount>
								<layout>stereo</layout>
								<audiochannel>
									<sourcechannel>1</sourcechannel>
									<channellabel>left</channellabel>
								</audiochannel>
								<audiochannel>
									<sourcechannel>2</sourcechannel>
									<channellabel>right</channellabel>
								</audiochannel>
							</audio>
						</media>
					</file>
					<sourcetrack>
						<mediatype>video</mediatype>
					</sourcetrack>
					<fielddominance>none</fielddominance>
					<itemhistory>
						<uuid>A908A07C-E1BF-4BB3-8EFA-C24D250C1191</uuid>
						<uuid>48EF462E-D99C-4790-8EE3-6F3468700EC4</uuid>
					</itemhistory>
				</clipitem>
				<clipitem id="JonWills056Subclipa">
					<name>JonWills056Subclipa</name>
					<duration>1688</duration>
					<rate>
						<ntsc>FALSE</ntsc>
						<timebase>25</timebase>
					</rate>
					<in>0</in>
					<out>1687</out>
					<start>118784</start>
					<end>120471</end>
					<pixelaspectratio>Square</pixelaspectratio>
					<anamorphic>FALSE</anamorphic>
					<alphatype>none</alphatype>
					<logginginfo>
						<scene/>
						<shottake/>
						<lognote/>
						<good>FALSE</good>
					</logginginfo>
					<labels>
						<label2/>
					</labels>
					<comments>
						<mastercomment1/>
						<mastercomment2/>
						<mastercomment3/>
						<mastercomment4/>
					</comments>
					<file id="JonWills056Subclipa1">
						<name>JonWills056Subclipa</name>
						<pathurl>file://localhost/Volumes/Michael's%20Passport/woodbdrigenov2011media/JonWills056Subclipa</pathurl>
						<rate>
							<timebase>25</timebase>
						</rate>
						<duration>1688</duration>
						<metadata>
							<storage>QuickTime</storage>
							<key>com.apple.finalcutstudio.media.uuid</key>
							<size>36</size>
							<type>UTF8</type>
							<value>5ECECBBF-1BBC-4369-9744-BEC6DA9D5B5E</value>
						</metadata>
						<metadata>
							<storage>QuickTime</storage>
							<key>com.apple.finalcutstudio.media.history.uuid</key>
							<size>36</size>
							<type>UTF8</type>
							<value>91872D30-10E7-4B24-A99A-107DB0C1CB8B</value>
						</metadata>
						<timecode>
							<rate>
								<timebase>25</timebase>
							</rate>
							<string>00:00:00:00</string>
							<frame>0</frame>
							<displayformat>NDF</displayformat>
							<source>source</source>
							<reel>
								<name>JonWills</name>
							</reel>
						</timecode>
						<media>
							<video>
								<duration>1688</duration>
								<samplecharacteristics>
									<width>1280</width>
									<height>720</height>
								</samplecharacteristics>
							</video>
							<audio>
								<samplecharacteristics>
									<samplerate>48000</samplerate>
									<depth>16</depth>
								</samplecharacteristics>
								<channelcount>2</channelcount>
								<layout>stereo</layout>
								<audiochannel>
									<sourcechannel>1</sourcechannel>
									<channellabel>left</channellabel>
								</audiochannel>
								<audiochannel>
									<sourcechannel>2</sourcechannel>
									<channellabel>right</channellabel>
								</audiochannel>
							</audio>
						</media>
					</file>
					<sourcetrack>
						<mediatype>video</mediatype>
					</sourcetrack>
					<fielddominance>none</fielddominance>
					<itemhistory>
						<uuid>3BA43B1E-A787-4287-9617-3D87A6942C94</uuid>
						<uuid>2D4E7881-E38E-4564-8FE6-6B2BA47EADE3</uuid>
					</itemhistory>
				</clipitem>
				<clipitem id="JonWills056Subclipb">
					<name>JonWills056Subclipb</name>
					<duration>501</duration>
					<rate>
						<ntsc>FALSE</ntsc>
						<timebase>25</timebase>
					</rate>
					<in>0</in>
					<out>501</out>
					<start>120519</start>
					<end>121020</end>
					<pixelaspectratio>Square</pixelaspectratio>
					<anamorphic>FALSE</anamorphic>
					<alphatype>none</alphatype>
					<logginginfo>
						<scene/>
						<shottake/>
						<lognote/>
						<good>FALSE</good>
					</logginginfo>
					<labels>
						<label2/>
					</labels>
					<comments>
						<mastercomment1/>
						<mastercomment2/>
						<mastercomment3/>
						<mastercomment4/>
					</comments>
					<file id="JonWills056Subclipb1">
						<name>JonWills056Subclipb</name>
						<pathurl>file://localhost/Volumes/Michael's%20Passport/woodbdrigenov2011media/JonWills056Subclipb</pathurl>
						<rate>
							<timebase>25</timebase>
						</rate>
						<duration>501</duration>
						<metadata>
							<storage>QuickTime</storage>
							<key>com.apple.finalcutstudio.media.uuid</key>
							<size>36</size>
							<type>UTF8</type>
							<value>7125F712-DCAA-42E2-AB3A-5E90BA330F85</value>
						</metadata>
						<metadata>
							<storage>QuickTime</storage>
							<key>com.apple.finalcutstudio.media.history.uuid</key>
							<size>36</size>
							<type>UTF8</type>
							<value>91872D30-10E7-4B24-A99A-107DB0C1CB8B</value>
						</metadata>
						<timecode>
							<rate>
								<timebase>25</timebase>
							</rate>
							<string>00:01:09:10</string>
							<frame>1735</frame>
							<displayformat>NDF</displayformat>
							<source>source</source>
							<reel>
								<name>JonWills</name>
							</reel>
						</timecode>
						<media>
							<video>
								<duration>501</duration>
								<samplecharacteristics>
									<width>1280</width>
									<height>720</height>
								</samplecharacteristics>
							</video>
							<audio>
								<samplecharacteristics>
									<samplerate>48000</samplerate>
									<depth>16</depth>
								</samplecharacteristics>
								<channelcount>2</channelcount>
								<layout>stereo</layout>
								<audiochannel>
									<sourcechannel>1</sourcechannel>
									<channellabel>left</channellabel>
								</audiochannel>
								<audiochannel>
									<sourcechannel>2</sourcechannel>
									<channellabel>right</channellabel>
								</audiochannel>
							</audio>
						</media>
					</file>
					<sourcetrack>
						<mediatype>video</mediatype>
					</sourcetrack>
					<fielddominance>none</fielddominance>
					<itemhistory>
						<uuid>F86000BC-F2C4-46A6-A5A1-4AF8384F09B3</uuid>
						<uuid>F2ED5E66-6A34-4F10-9A35-EC8C0F795FC4</uuid>
					</itemhistory>
				</clipitem>
				<clipitem id="JonWills056Subclipc">
					<name>JonWills056Subclipc</name>
					<duration>794</duration>
					<rate>
						<ntsc>FALSE</ntsc>
						<timebase>25</timebase>
					</rate>
					<in>0</in>
					<out>793</out>
					<start>121116</start>
					<end>121909</end>
					<pixelaspectratio>Square</pixelaspectratio>
					<anamorphic>FALSE</anamorphic>
					<alphatype>none</alphatype>
					<logginginfo>
						<scene/>
						<shottake/>
						<lognote/>
						<good>FALSE</good>
					</logginginfo>
					<labels>
						<label2/>
					</labels>
					<comments>
						<mastercomment1/>
						<mastercomment2/>
						<mastercomment3/>
						<mastercomment4/>
					</comments>
					<file id="JonWills056Subclipc1">
						<name>JonWills056Subclipc</name>
						<pathurl>file://localhost/Volumes/Michael's%20Passport/woodbdrigenov2011media/JonWills056Subclipc</pathurl>
						<rate>
							<timebase>25</timebase>
						</rate>
						<duration>794</duration>
						<metadata>
							<storage>QuickTime</storage>
							<key>com.apple.finalcutstudio.media.uuid</key>
							<size>36</size>
							<type>UTF8</type>
							<value>0228170E-1394-4673-B510-2427608BCA11</value>
						</metadata>
						<metadata>
							<storage>QuickTime</storage>
							<key>com.apple.finalcutstudio.media.history.uuid</key>
							<size>36</size>
							<type>UTF8</type>
							<value>91872D30-10E7-4B24-A99A-107DB0C1CB8B</value>
						</metadata>
						<timecode>
							<rate>
								<timebase>25</timebase>
							</rate>
							<string>00:01:33:07</string>
							<frame>2332</frame>
							<displayformat>NDF</displayformat>
							<source>source</source>
							<reel>
								<name>JonWills</name>
							</reel>
						</timecode>
						<media>
							<video>
								<duration>794</duration>
								<samplecharacteristics>
									<width>1280</width>
									<height>720</height>
								</samplecharacteristics>
							</video>
							<audio>
								<samplecharacteristics>
									<samplerate>48000</samplerate>
									<depth>16</depth>
								</samplecharacteristics>
								<channelcount>2</channelcount>
								<layout>stereo</layout>
								<audiochannel>
									<sourcechannel>1</sourcechannel>
									<channellabel>left</channellabel>
								</audiochannel>
								<audiochannel>
									<sourcechannel>2</sourcechannel>
									<channellabel>right</channellabel>
								</audiochannel>
							</audio>
						</media>
					</file>
					<sourcetrack>
						<mediatype>video</mediatype>
					</sourcetrack>
					<fielddominance>none</fielddominance>
					<itemhistory>
						<uuid>8B103150-C36A-4CD1-99CB-4385A1DE2133</uuid>
						<uuid>7E10393F-7E77-460A-92EC-E7568D992892</uuid>
					</itemhistory>
				</clipitem>
				<clipitem id="JonWills056Subclipd">
					<name>JonWills056Subclipd</name>
					<duration>681</duration>
					<rate>
						<ntsc>FALSE</ntsc>
						<timebase>25</timebase>
					</rate>
					<in>0</in>
					<out>681</out>
					<start>121981</start>
					<end>122662</end>
					<pixelaspectratio>Square</pixelaspectratio>
					<anamorphic>FALSE</anamorphic>
					<alphatype>none</alphatype>
					<logginginfo>
						<scene/>
						<shottake/>
						<lognote/>
						<good>FALSE</good>
					</logginginfo>
					<labels>
						<label2/>
					</labels>
					<comments>
						<mastercomment1/>
						<mastercomment2/>
						<mastercomment3/>
						<mastercomment4/>
					</comments>
					<file id="JonWills056Subclipd1">
						<name>JonWills056Subclipd</name>
						<pathurl>file://localhost/Volumes/Michael's%20Passport/woodbdrigenov2011media/JonWills056Subclipd</pathurl>
						<rate>
							<timebase>25</timebase>
						</rate>
						<duration>681</duration>
						<metadata>
							<storage>QuickTime</storage>
							<key>com.apple.finalcutstudio.media.uuid</key>
							<size>36</size>
							<type>UTF8</type>
							<value>DF51C5D5-9267-4129-A36C-08F0FAE0E282</value>
						</metadata>
						<metadata>
							<storage>QuickTime</storage>
							<key>com.apple.finalcutstudio.media.history.uuid</key>
							<size>36</size>
							<type>UTF8</type>
							<value>91872D30-10E7-4B24-A99A-107DB0C1CB8B</value>
						</metadata>
						<timecode>
							<rate>
								<timebase>25</timebase>
							</rate>
							<string>00:02:07:22</string>
							<frame>3197</frame>
							<displayformat>NDF</displayformat>
							<source>source</source>
							<reel>
								<name>JonWills</name>
							</reel>
						</timecode>
						<media>
							<video>
								<duration>681</duration>
								<samplecharacteristics>
									<width>1280</width>
									<height>720</height>
								</samplecharacteristics>
							</video>
							<audio>
								<samplecharacteristics>
									<samplerate>48000</samplerate>
									<depth>16</depth>
								</samplecharacteristics>
								<channelcount>2</channelcount>
								<layout>stereo</layout>
								<audiochannel>
									<sourcechannel>1</sourcechannel>
									<channellabel>left</channellabel>
								</audiochannel>
								<audiochannel>
									<sourcechannel>2</sourcechannel>
									<channellabel>right</channellabel>
								</audiochannel>
							</audio>
						</media>
					</file>
					<sourcetrack>
						<mediatype>video</mediatype>
					</sourcetrack>
					<fielddominance>none</fielddominance>
					<itemhistory>
						<uuid>4E3047FC-40F9-4D69-BC44-FEC0A844FDDD</uuid>
						<uuid>3B5759F2-8003-44DF-A26A-C2D2757DB1DE</uuid>
					</itemhistory>
				</clipitem>
				<clipitem id="JonWills056Subclipe">
					<name>JonWills056Subclipe</name>
					<duration>1098</duration>
					<rate>
						<ntsc>FALSE</ntsc>
						<timebase>25</timebase>
					</rate>
					<in>0</in>
					<out>1097</out>
					<start>122685</start>
					<end>123782</end>
					<pixelaspectratio>Square</pixelaspectratio>
					<anamorphic>FALSE</anamorphic>
					<alphatype>none</alphatype>
					<logginginfo>
						<scene/>
						<shottake/>
						<lognote/>
						<good>FALSE</good>
					</logginginfo>
					<labels>
						<label2/>
					</labels>
					<comments>
						<mastercomment1/>
						<mastercomment2/>
						<mastercomment3/>
						<mastercomment4/>
					</comments>
					<file id="JonWills056Subclipe1">
						<name>JonWills056Subclipe</name>
						<pathurl>file://localhost/Volumes/Michael's%20Passport/woodbdrigenov2011media/JonWills056Subclipe</pathurl>
						<rate>
							<timebase>25</timebase>
						</rate>
						<duration>1098</duration>
						<metadata>
							<storage>QuickTime</storage>
							<key>com.apple.finalcutstudio.media.uuid</key>
							<size>36</size>
							<type>UTF8</type>
							<value>DD14CA5C-6348-4D69-986A-D5C2F1810970</value>
						</metadata>
						<metadata>
							<storage>QuickTime</storage>
							<key>com.apple.finalcutstudio.media.history.uuid</key>
							<size>36</size>
							<type>UTF8</type>
							<value>91872D30-10E7-4B24-A99A-107DB0C1CB8B</value>
						</metadata>
						<timecode>
							<rate>
								<timebase>25</timebase>
							</rate>
							<string>00:02:36:01</string>
							<frame>3901</frame>
							<displayformat>NDF</displayformat>
							<source>source</source>
							<reel>
								<name>JonWills</name>
							</reel>
						</timecode>
						<media>
							<video>
								<duration>1098</duration>
								<samplecharacteristics>
									<width>1280</width>
									<height>720</height>
								</samplecharacteristics>
							</video>
							<audio>
								<samplecharacteristics>
									<samplerate>48000</samplerate>
									<depth>16</depth>
								</samplecharacteristics>
								<channelcount>2</channelcount>
								<layout>stereo</layout>
								<audiochannel>
									<sourcechannel>1</sourcechannel>
									<channellabel>left</channellabel>
								</audiochannel>
								<audiochannel>
									<sourcechannel>2</sourcechannel>
									<channellabel>right</channellabel>
								</audiochannel>
							</audio>
						</media>
					</file>
					<sourcetrack>
						<mediatype>video</mediatype>
					</sourcetrack>
					<fielddominance>none</fielddominance>
					<itemhistory>
						<uuid>CEE71A4F-53F5-4EE7-84DE-0A938C54F564</uuid>
						<uuid>05046714-C984-4DB5-B1A7-C432E99090F3</uuid>
					</itemhistory>
				</clipitem>
				<clipitem id="JonWills056Subclipf">
					<name>JonWills056Subclipf</name>
					<duration>1534</duration>
					<rate>
						<ntsc>FALSE</ntsc>
						<timebase>25</timebase>
					</rate>
					<in>0</in>
					<out>1533</out>
					<start>124018</start>
					<end>125551</end>
					<pixelaspectratio>Square</pixelaspectratio>
					<anamorphic>FALSE</anamorphic>
					<alphatype>none</alphatype>
					<logginginfo>
						<scene/>
						<shottake/>
						<lognote/>
						<good>FALSE</good>
					</logginginfo>
					<labels>
						<label2/>
					</labels>
					<comments>
						<mastercomment1/>
						<mastercomment2/>
						<mastercomment3/>
						<mastercomment4/>
					</comments>
					<file id="JonWills056Subclipf1">
						<name>JonWills056Subclipf</name>
						<pathurl>file://localhost/Volumes/Michael's%20Passport/woodbdrigenov2011media/JonWills056Subclipf</pathurl>
						<rate>
							<timebase>25</timebase>
						</rate>
						<duration>1534</duration>
						<metadata>
							<storage>QuickTime</storage>
							<key>com.apple.finalcutstudio.media.uuid</key>
							<size>36</size>
							<type>UTF8</type>
							<value>83883940-1A7E-4ED0-A883-B80521DBC4D6</value>
						</metadata>
						<metadata>
							<storage>QuickTime</storage>
							<key>com.apple.finalcutstudio.media.history.uuid</key>
							<size>36</size>
							<type>UTF8</type>
							<value>91872D30-10E7-4B24-A99A-107DB0C1CB8B</value>
						</metadata>
						<timecode>
							<rate>
								<timebase>25</timebase>
							</rate>
							<string>00:03:29:09</string>
							<frame>5234</frame>
							<displayformat>NDF</displayformat>
							<source>source</source>
							<reel>
								<name>JonWills</name>
							</reel>
						</timecode>
						<media>
							<video>
								<duration>1534</duration>
								<samplecharacteristics>
									<width>1280</width>
									<height>720</height>
								</samplecharacteristics>
							</video>
							<audio>
								<samplecharacteristics>
									<samplerate>48000</samplerate>
									<depth>16</depth>
								</samplecharacteristics>
								<channelcount>2</channelcount>
								<layout>stereo</layout>
								<audiochannel>
									<sourcechannel>1</sourcechannel>
									<channellabel>left</channellabel>
								</audiochannel>
								<audiochannel>
									<sourcechannel>2</sourcechannel>
									<channellabel>right</channellabel>
								</audiochannel>
							</audio>
						</media>
					</file>
					<sourcetrack>
						<mediatype>video</mediatype>
					</sourcetrack>
					<fielddominance>none</fielddominance>
					<itemhistory>
						<uuid>E5592231-8DF7-4905-8568-27EAB61BC908</uuid>
						<uuid>8C510BE9-9DA9-4FA0-8FD3-95E05ADC133C</uuid>
					</itemhistory>
				</clipitem>
				<clipitem id="JonWills057 ">
					<name>JonWills057</name>
					<duration>900</duration>
					<rate>
						<ntsc>FALSE</ntsc>
						<timebase>25</timebase>
					</rate>
					<in>0</in>
					<out>899</out>
					<start>125890</start>
					<end>126789</end>
					<pixelaspectratio>Square</pixelaspectratio>
					<anamorphic>FALSE</anamorphic>
					<alphatype>none</alphatype>
					<logginginfo>
						<scene/>
						<shottake/>
						<lognote/>
						<good>FALSE</good>
					</logginginfo>
					<labels>
						<label2/>
					</labels>
					<comments>
						<mastercomment1/>
						<mastercomment2/>
						<mastercomment3/>
						<mastercomment4/>
					</comments>
					<file id="JonWills057 1">
						<name>JonWills057</name>
						<pathurl>file://localhost/Volumes/Michael's%20Passport/woodbdrigenov2011media/JonWills057</pathurl>
						<rate>
							<timebase>25</timebase>
						</rate>
						<duration>900</duration>
						<metadata>
							<storage>QuickTime</storage>
							<key>com.apple.finalcutstudio.media.uuid</key>
							<size>36</size>
							<type>UTF8</type>
							<value>D6D5C796-87EB-4BAB-B340-1D2E2AA3603B</value>
						</metadata>
						<metadata>
							<storage>QuickTime</storage>
							<key>com.apple.finalcutstudio.media.history.uuid</key>
							<size>36</size>
							<type>UTF8</type>
							<value>872180AC-C3E2-46A9-AFFB-EA2D87669131</value>
						</metadata>
						<timecode>
							<rate>
								<timebase>25</timebase>
							</rate>
							<string>00:00:00:00</string>
							<frame>0</frame>
							<displayformat>NDF</displayformat>
							<source>source</source>
							<reel>
								<name>JonWills</name>
							</reel>
						</timecode>
						<media>
							<video>
								<duration>900</duration>
								<samplecharacteristics>
									<width>1280</width>
									<height>720</height>
								</samplecharacteristics>
							</video>
							<audio>
								<samplecharacteristics>
									<samplerate>48000</samplerate>
									<depth>16</depth>
								</samplecharacteristics>
								<channelcount>2</channelcount>
								<layout>stereo</layout>
								<audiochannel>
									<sourcechannel>1</sourcechannel>
									<channellabel>left</channellabel>
								</audiochannel>
								<audiochannel>
									<sourcechannel>2</sourcechannel>
									<channellabel>right</channellabel>
								</audiochannel>
							</audio>
						</media>
					</file>
					<sourcetrack>
						<mediatype>video</mediatype>
					</sourcetrack>
					<fielddominance>none</fielddominance>
					<itemhistory>
						<uuid>20D6B46C-1775-40E9-A291-0876F657A0C4</uuid>
						<uuid>C5EF0D89-B1A0-4D21-9831-2B3D4FDCF901</uuid>
					</itemhistory>
				</clipitem>
				<clipitem id="JonWills058Subclipa">
					<name>JonWills058Subclipa</name>
					<duration>1542</duration>
					<rate>
						<ntsc>FALSE</ntsc>
						<timebase>25</timebase>
					</rate>
					<in>0</in>
					<out>1541</out>
					<start>126936</start>
					<end>128477</end>
					<pixelaspectratio>Square</pixelaspectratio>
					<anamorphic>FALSE</anamorphic>
					<alphatype>none</alphatype>
					<logginginfo>
						<scene/>
						<shottake/>
						<lognote/>
						<good>FALSE</good>
					</logginginfo>
					<labels>
						<label2/>
					</labels>
					<comments>
						<mastercomment1/>
						<mastercomment2/>
						<mastercomment3/>
						<mastercomment4/>
					</comments>
					<file id="JonWills058Subclipa1">
						<name>JonWills058Subclipa</name>
						<pathurl>file://localhost/Volumes/Michael's%20Passport/woodbdrigenov2011media/JonWills058Subclipa</pathurl>
						<rate>
							<timebase>25</timebase>
						</rate>
						<duration>1542</duration>
						<metadata>
							<storage>QuickTime</storage>
							<key>com.apple.finalcutstudio.media.uuid</key>
							<size>36</size>
							<type>UTF8</type>
							<value>43FCF98D-211F-48BA-8DA4-205FB4588DEC</value>
						</metadata>
						<metadata>
							<storage>QuickTime</storage>
							<key>com.apple.finalcutstudio.media.history.uuid</key>
							<size>36</size>
							<type>UTF8</type>
							<value>B20AC232-26C5-496B-835A-BDCE5A97F286</value>
						</metadata>
						<timecode>
							<rate>
								<timebase>25</timebase>
							</rate>
							<string>00:00:03:21</string>
							<frame>96</frame>
							<displayformat>NDF</displayformat>
							<source>source</source>
							<reel>
								<name>JonWills</name>
							</reel>
						</timecode>
						<media>
							<video>
								<duration>1542</duration>
								<samplecharacteristics>
									<width>1280</width>
									<height>720</height>
								</samplecharacteristics>
							</video>
							<audio>
								<samplecharacteristics>
									<samplerate>48000</samplerate>
									<depth>16</depth>
								</samplecharacteristics>
								<channelcount>2</channelcount>
								<layout>stereo</layout>
								<audiochannel>
									<sourcechannel>1</sourcechannel>
									<channellabel>left</channellabel>
								</audiochannel>
								<audiochannel>
									<sourcechannel>2</sourcechannel>
									<channellabel>right</channellabel>
								</audiochannel>
							</audio>
						</media>
					</file>
					<sourcetrack>
						<mediatype>video</mediatype>
					</sourcetrack>
					<fielddominance>none</fielddominance>
					<itemhistory>
						<uuid>8A61CE47-56D5-4E84-A0C8-C992CF2F7AA3</uuid>
						<uuid>6270FC57-3BB5-4ABB-BCD0-4EC19402136D</uuid>
					</itemhistory>
				</clipitem>
				<clipitem id="JonWills058Subclipb">
					<name>JonWills058Subclipb</name>
					<duration>227</duration>
					<rate>
						<ntsc>FALSE</ntsc>
						<timebase>25</timebase>
					</rate>
					<in>0</in>
					<out>227</out>
					<start>128574</start>
					<end>128801</end>
					<pixelaspectratio>Square</pixelaspectratio>
					<anamorphic>FALSE</anamorphic>
					<alphatype>none</alphatype>
					<logginginfo>
						<scene/>
						<shottake/>
						<lognote/>
						<good>FALSE</good>
					</logginginfo>
					<labels>
						<label2/>
					</labels>
					<comments>
						<mastercomment1/>
						<mastercomment2/>
						<mastercomment3/>
						<mastercomment4/>
					</comments>
					<file id="JonWills058Subclipb1">
						<name>JonWills058Subclipb</name>
						<pathurl>file://localhost/Volumes/Michael's%20Passport/woodbdrigenov2011media/JonWills058Subclipb</pathurl>
						<rate>
							<timebase>25</timebase>
						</rate>
						<duration>227</duration>
						<metadata>
							<storage>QuickTime</storage>
							<key>com.apple.finalcutstudio.media.uuid</key>
							<size>36</size>
							<type>UTF8</type>
							<value>24DD466B-0BEA-4C3E-8EA5-371CA0180562</value>
						</metadata>
						<metadata>
							<storage>QuickTime</storage>
							<key>com.apple.finalcutstudio.media.history.uuid</key>
							<size>36</size>
							<type>UTF8</type>
							<value>B20AC232-26C5-496B-835A-BDCE5A97F286</value>
						</metadata>
						<timecode>
							<rate>
								<timebase>25</timebase>
							</rate>
							<string>00:01:09:09</string>
							<frame>1734</frame>
							<displayformat>NDF</displayformat>
							<source>source</source>
							<reel>
								<name>JonWills</name>
							</reel>
						</timecode>
						<media>
							<video>
								<duration>227</duration>
								<samplecharacteristics>
									<width>1280</width>
									<height>720</height>
								</samplecharacteristics>
							</video>
							<audio>
								<samplecharacteristics>
									<samplerate>48000</samplerate>
									<depth>16</depth>
								</samplecharacteristics>
								<channelcount>2</channelcount>
								<layout>stereo</layout>
								<audiochannel>
									<sourcechannel>1</sourcechannel>
									<channellabel>left</channellabel>
								</audiochannel>
								<audiochannel>
									<sourcechannel>2</sourcechannel>
									<channellabel>right</channellabel>
								</audiochannel>
							</audio>
						</media>
					</file>
					<sourcetrack>
						<mediatype>video</mediatype>
					</sourcetrack>
					<fielddominance>none</fielddominance>
					<itemhistory>
						<uuid>91DDB6B6-73A1-4BD7-B1E3-05F578E1F763</uuid>
						<uuid>A5888871-5DEF-4B0D-83D9-14DD2590F218</uuid>
					</itemhistory>
				</clipitem>
				<clipitem id="JonWills058Subclipc">
					<name>JonWills058Subclipc</name>
					<duration>671</duration>
					<rate>
						<ntsc>FALSE</ntsc>
						<timebase>25</timebase>
					</rate>
					<in>0</in>
					<out>669</out>
					<start>128844</start>
					<end>129513</end>
					<pixelaspectratio>Square</pixelaspectratio>
					<anamorphic>FALSE</anamorphic>
					<alphatype>none</alphatype>
					<logginginfo>
						<scene/>
						<shottake/>
						<lognote/>
						<good>FALSE</good>
					</logginginfo>
					<labels>
						<label2/>
					</labels>
					<comments>
						<mastercomment1/>
						<mastercomment2/>
						<mastercomment3/>
						<mastercomment4/>
					</comments>
					<file id="JonWills058Subclipc1">
						<name>JonWills058Subclipc</name>
						<pathurl>file://localhost/Volumes/Michael's%20Passport/woodbdrigenov2011media/JonWills058Subclipc</pathurl>
						<rate>
							<timebase>25</timebase>
						</rate>
						<duration>671</duration>
						<metadata>
							<storage>QuickTime</storage>
							<key>com.apple.finalcutstudio.media.uuid</key>
							<size>36</size>
							<type>UTF8</type>
							<value>543D6A1F-834D-4F3D-8C4F-D834F090EAB7</value>
						</metadata>
						<metadata>
							<storage>QuickTime</storage>
							<key>com.apple.finalcutstudio.media.history.uuid</key>
							<size>36</size>
							<type>UTF8</type>
							<value>B20AC232-26C5-496B-835A-BDCE5A97F286</value>
						</metadata>
						<timecode>
							<rate>
								<timebase>25</timebase>
							</rate>
							<string>00:01:20:04</string>
							<frame>2004</frame>
							<displayformat>NDF</displayformat>
							<source>source</source>
							<reel>
								<name>JonWills</name>
							</reel>
						</timecode>
						<media>
							<video>
								<duration>671</duration>
								<samplecharacteristics>
									<width>1280</width>
									<height>720</height>
								</samplecharacteristics>
							</video>
							<audio>
								<samplecharacteristics>
									<samplerate>48000</samplerate>
									<depth>16</depth>
								</samplecharacteristics>
								<channelcount>2</channelcount>
								<layout>stereo</layout>
								<audiochannel>
									<sourcechannel>1</sourcechannel>
									<channellabel>left</channellabel>
								</audiochannel>
								<audiochannel>
									<sourcechannel>2</sourcechannel>
									<channellabel>right</channellabel>
								</audiochannel>
							</audio>
						</media>
					</file>
					<sourcetrack>
						<mediatype>video</mediatype>
					</sourcetrack>
					<fielddominance>none</fielddominance>
					<itemhistory>
						<uuid>07E0DDDB-F01E-48D8-9732-911D4A98A787</uuid>
						<uuid>89EBB24C-6CE8-441A-B327-948FD43DCB98</uuid>
					</itemhistory>
				</clipitem>
				<clipitem id="JonWills058Subclipd">
					<name>JonWills058Subclipd</name>
					<duration>794</duration>
					<rate>
						<ntsc>FALSE</ntsc>
						<timebase>25</timebase>
					</rate>
					<in>0</in>
					<out>793</out>
					<start>129513</start>
					<end>130306</end>
					<pixelaspectratio>Square</pixelaspectratio>
					<anamorphic>FALSE</anamorphic>
					<alphatype>none</alphatype>
					<logginginfo>
						<scene/>
						<shottake/>
						<lognote/>
						<good>FALSE</good>
					</logginginfo>
					<labels>
						<label2/>
					</labels>
					<comments>
						<mastercomment1/>
						<mastercomment2/>
						<mastercomment3/>
						<mastercomment4/>
					</comments>
					<file id="JonWills058Subclipd1">
						<name>JonWills058Subclipd</name>
						<pathurl>file://localhost/Volumes/Michael's%20Passport/woodbdrigenov2011media/JonWills058Subclipd</pathurl>
						<rate>
							<timebase>25</timebase>
						</rate>
						<duration>794</duration>
						<metadata>
							<storage>QuickTime</storage>
							<key>com.apple.finalcutstudio.media.uuid</key>
							<size>36</size>
							<type>UTF8</type>
							<value>E0FFA420-6A67-43FB-AF20-7AE26BE4A9A5</value>
						</metadata>
						<metadata>
							<storage>QuickTime</storage>
							<key>com.apple.finalcutstudio.media.history.uuid</key>
							<size>36</size>
							<type>UTF8</type>
							<value>B20AC232-26C5-496B-835A-BDCE5A97F286</value>
						</metadata>
						<timecode>
							<rate>
								<timebase>25</timebase>
							</rate>
							<string>00:01:46:24</string>
							<frame>2674</frame>
							<displayformat>NDF</displayformat>
							<source>source</source>
							<reel>
								<name>JonWills</name>
							</reel>
						</timecode>
						<media>
							<video>
								<duration>794</duration>
								<samplecharacteristics>
									<width>1280</width>
									<height>720</height>
								</samplecharacteristics>
							</video>
							<audio>
								<samplecharacteristics>
									<samplerate>48000</samplerate>
									<depth>16</depth>
								</samplecharacteristics>
								<channelcount>2</channelcount>
								<layout>stereo</layout>
								<audiochannel>
									<sourcechannel>1</sourcechannel>
									<channellabel>left</channellabel>
								</audiochannel>
								<audiochannel>
									<sourcechannel>2</sourcechannel>
									<channellabel>right</channellabel>
								</audiochannel>
							</audio>
						</media>
					</file>
					<sourcetrack>
						<mediatype>video</mediatype>
					</sourcetrack>
					<fielddominance>none</fielddominance>
					<itemhistory>
						<uuid>4E739B0A-1CDC-433C-8977-D237A24633C6</uuid>
						<uuid>6EE1D93E-7C2E-480C-8A89-15BAAB328391</uuid>
					</itemhistory>
				</clipitem>
				<enabled>TRUE</enabled>
				<locked>FALSE</locked>
			</track>
			<track>
				<enabled>TRUE</enabled>
				<locked>FALSE</locked>
			</track>
			<track>
				<clipitem id="AntonyAgar012Subclipa">
					<name>AntonyAgar012Subclipa</name>
					<duration>509</duration>
					<rate>
						<ntsc>FALSE</ntsc>
						<timebase>25</timebase>
					</rate>
					<in>0</in>
					<out>508</out>
					<start>46300</start>
					<end>46808</end>
					<pixelaspectratio>Square</pixelaspectratio>
					<enabled>TRUE</enabled>
					<anamorphic>FALSE</anamorphic>
					<alphatype>none</alphatype>
					<logginginfo>
						<scene/>
						<shottake/>
						<lognote/>
						<good>FALSE</good>
					</logginginfo>
					<labels>
						<label2/>
					</labels>
					<comments>
						<mastercomment1/>
						<mastercomment2/>
						<mastercomment3/>
						<mastercomment4/>
					</comments>
					<file id="AntonyAgar012Subclipa1">
						<name>AntonyAgar012Subclipa</name>
						<pathurl>file://localhost/Volumes/Michael's%20Passport/woodbdrigenov2011media/AntonyAgar012Subclipa</pathurl>
						<rate>
							<timebase>25</timebase>
						</rate>
						<duration>509</duration>
						<metadata>
							<storage>QuickTime</storage>
							<key>com.apple.finalcutstudio.media.uuid</key>
							<size>36</size>
							<type>UTF8</type>
							<value>90E1F1B8-C4C8-464B-840B-DB9C78270A04</value>
						</metadata>
						<metadata>
							<storage>QuickTime</storage>
							<key>com.apple.finalcutstudio.media.history.uuid</key>
							<size>36</size>
							<type>UTF8</type>
							<value>E9C6BB7C-3391-434A-9EE5-7743DC7EF3A5</value>
						</metadata>
						<timecode>
							<rate>
								<timebase>25</timebase>
							</rate>
							<string>00:00:33:19</string>
							<frame>844</frame>
							<displayformat>NDF</displayformat>
							<source>source</source>
							<reel>
								<name>AnthonyAgar</name>
							</reel>
						</timecode>
						<media>
							<video>
								<duration>509</duration>
								<samplecharacteristics>
									<width>1280</width>
									<height>720</height>
								</samplecharacteristics>
							</video>
							<audio>
								<samplecharacteristics>
									<samplerate>48000</samplerate>
									<depth>16</depth>
								</samplecharacteristics>
								<channelcount>2</channelcount>
								<layout>stereo</layout>
								<audiochannel>
									<sourcechannel>1</sourcechannel>
									<channellabel>left</channellabel>
								</audiochannel>
								<audiochannel>
									<sourcechannel>2</sourcechannel>
									<channellabel>right</channellabel>
								</audiochannel>
							</audio>
						</media>
					</file>
					<sourcetrack>
						<mediatype>video</mediatype>
					</sourcetrack>
					<fielddominance>none</fielddominance>
					<itemhistory>
						<uuid>E0A9E89C-AEC1-442A-9E73-44A2982B780F</uuid>
						<uuid>083B771B-B4D3-487B-9B97-53CBE4EC10D9</uuid>
					</itemhistory>
				</clipitem>
				<clipitem id="AndrewLord008Subclipd4">
					<name>AndrewLord008Subclipd</name>
					<duration>801</duration>
					<rate>
						<ntsc>FALSE</ntsc>
						<timebase>25</timebase>
					</rate>
					<in>0</in>
					<out>800</out>
					<start>100417</start>
					<end>101217</end>
					<pixelaspectratio>Square</pixelaspectratio>
					<enabled>TRUE</enabled>
					<anamorphic>FALSE</anamorphic>
					<alphatype>none</alphatype>
					<logginginfo>
						<scene/>
						<shottake/>
						<lognote/>
						<good>FALSE</good>
					</logginginfo>
					<labels>
						<label2/>
					</labels>
					<comments>
						<mastercomment1/>
						<mastercomment2/>
						<mastercomment3/>
						<mastercomment4/>
					</comments>
					<file id="AndrewLord008Subclipd1"/>
					<sourcetrack>
						<mediatype>video</mediatype>
					</sourcetrack>
					<fielddominance>none</fielddominance>
					<itemhistory>
						<uuid>0CBD876D-105F-45F8-9BF1-2A72FF6ECEC4</uuid>
						<uuid>F8B634A7-20B5-4E7A-A6D0-766E12D5B066</uuid>
					</itemhistory>
				</clipitem>
				<clipitem id="AndrewLord008Subclipe">
					<name>AndrewLord008Subclipe</name>
					<duration>352</duration>
					<rate>
						<ntsc>FALSE</ntsc>
						<timebase>25</timebase>
					</rate>
					<in>0</in>
					<out>351</out>
					<start>101243</start>
					<end>101594</end>
					<pixelaspectratio>Square</pixelaspectratio>
					<enabled>TRUE</enabled>
					<anamorphic>FALSE</anamorphic>
					<alphatype>none</alphatype>
					<logginginfo>
						<scene/>
						<shottake/>
						<lognote/>
						<good>FALSE</good>
					</logginginfo>
					<labels>
						<label2/>
					</labels>
					<comments>
						<mastercomment1/>
						<mastercomment2/>
						<mastercomment3/>
						<mastercomment4/>
					</comments>
					<file id="AndrewLord008Subclipe1">
						<name>AndrewLord008Subclipe</name>
						<pathurl>file://localhost/Volumes/Michael's%20Passport/woodbdrigenov2011media/AndrewLord008Subclipe</pathurl>
						<rate>
							<timebase>25</timebase>
						</rate>
						<duration>352</duration>
						<metadata>
							<storage>QuickTime</storage>
							<key>com.apple.finalcutstudio.media.uuid</key>
							<size>36</size>
							<type>UTF8</type>
							<value>4AE79DE7-F2E4-491F-9EBD-9B7E8B788030</value>
						</metadata>
						<media>
							<video>
								<duration>352</duration>
								<samplecharacteristics>
									<width>1280</width>
									<height>720</height>
								</samplecharacteristics>
							</video>
							<audio>
								<samplecharacteristics>
									<samplerate>48000</samplerate>
									<depth>16</depth>
								</samplecharacteristics>
								<channelcount>2</channelcount>
								<layout>stereo</layout>
								<audiochannel>
									<sourcechannel>1</sourcechannel>
									<channellabel>left</channellabel>
								</audiochannel>
								<audiochannel>
									<sourcechannel>2</sourcechannel>
									<channellabel>right</channellabel>
								</audiochannel>
							</audio>
						</media>
					</file>
					<sourcetrack>
						<mediatype>video</mediatype>
					</sourcetrack>
					<fielddominance>none</fielddominance>
					<itemhistory>
						<uuid>72FB0D3A-0E40-4397-BA90-F7F20002B29C</uuid>
						<uuid>34F81400-D3BD-4BFB-BA47-1E843C89C766</uuid>
					</itemhistory>
				</clipitem>
				<clipitem id="AndrewLord008Subclipg">
					<name>AndrewLord008Subclipg</name>
					<duration>1159</duration>
					<rate>
						<ntsc>FALSE</ntsc>
						<timebase>25</timebase>
					</rate>
					<in>0</in>
					<out>1158</out>
					<start>102281</start>
					<end>103439</end>
					<pixelaspectratio>Square</pixelaspectratio>
					<enabled>TRUE</enabled>
					<anamorphic>FALSE</anamorphic>
					<alphatype>none</alphatype>
					<logginginfo>
						<scene/>
						<shottake/>
						<lognote/>
						<good>FALSE</good>
					</logginginfo>
					<labels>
						<label2/>
					</labels>
					<comments>
						<mastercomment1/>
						<mastercomment2/>
						<mastercomment3/>
						<mastercomment4/>
					</comments>
					<file id="AndrewLord008Subclipg1">
						<name>AndrewLord008Subclipg</name>
						<pathurl>file://localhost/Volumes/Michael's%20Passport/woodbdrigenov2011media/AndrewLord008Subclipg</pathurl>
						<rate>
							<timebase>25</timebase>
						</rate>
						<duration>1159</duration>
						<metadata>
							<storage>QuickTime</storage>
							<key>com.apple.finalcutstudio.media.uuid</key>
							<size>36</size>
							<type>UTF8</type>
							<value>5ED62AF3-8AFC-4F5A-A2C8-5586AF6D1799</value>
						</metadata>
						<media>
							<video>
								<duration>1159</duration>
								<samplecharacteristics>
									<width>1280</width>
									<height>720</height>
								</samplecharacteristics>
							</video>
							<audio>
								<samplecharacteristics>
									<samplerate>48000</samplerate>
									<depth>16</depth>
								</samplecharacteristics>
								<channelcount>2</channelcount>
								<layout>stereo</layout>
								<audiochannel>
									<sourcechannel>1</sourcechannel>
									<channellabel>left</channellabel>
								</audiochannel>
								<audiochannel>
									<sourcechannel>2</sourcechannel>
									<channellabel>right</channellabel>
								</audiochannel>
							</audio>
						</media>
					</file>
					<sourcetrack>
						<mediatype>video</mediatype>
					</sourcetrack>
					<fielddominance>none</fielddominance>
					<itemhistory>
						<uuid>FEB8EFE3-BAAD-40A3-9EC0-76030F4B2545</uuid>
						<uuid>6743D7AA-9164-4EBF-83F1-51D6D2553114</uuid>
					</itemhistory>
				</clipitem>
				<enabled>TRUE</enabled>
				<locked>FALSE</locked>
			</track>
			<track>
				<clipitem id="AntonyAgar008Subclipc">
					<name>AntonyAgar008Subclipc</name>
					<duration>871</duration>
					<rate>
						<ntsc>FALSE</ntsc>
						<timebase>25</timebase>
					</rate>
					<in>0</in>
					<out>871</out>
					<start>10107</start>
					<end>10978</end>
					<pixelaspectratio>Square</pixelaspectratio>
					<enabled>TRUE</enabled>
					<anamorphic>FALSE</anamorphic>
					<alphatype>none</alphatype>
					<logginginfo>
						<scene/>
						<shottake/>
						<lognote/>
						<good>FALSE</good>
					</logginginfo>
					<labels>
						<label>Good Take</label>
						<label2/>
					</labels>
					<comments>
						<mastercomment1/>
						<mastercomment2/>
						<mastercomment3/>
						<mastercomment4/>
					</comments>
					<file id="AntonyAgar008Subclipc1">
						<name>AntonyAgar008Subclipc</name>
						<pathurl>file://localhost/Volumes/Michael's%20Passport/woodbdrigenov2011media/AntonyAgar008Subclipc</pathurl>
						<rate>
							<timebase>25</timebase>
						</rate>
						<duration>871</duration>
						<metadata>
							<storage>QuickTime</storage>
							<key>com.apple.finalcutstudio.media.uuid</key>
							<size>36</size>
							<type>UTF8</type>
							<value>655B531F-95C8-4803-86BB-7CC92190C2EF</value>
						</metadata>
						<metadata>
							<storage>QuickTime</storage>
							<key>com.apple.finalcutstudio.media.history.uuid</key>
							<size>36</size>
							<type>UTF8</type>
							<value>1D3B5FD1-94B6-4432-82F1-FEA02BF6AAB0</value>
						</metadata>
						<timecode>
							<rate>
								<timebase>25</timebase>
							</rate>
							<string>00:00:29:03</string>
							<frame>728</frame>
							<displayformat>NDF</displayformat>
							<source>source</source>
							<reel>
								<name>AnthonyAgar</name>
							</reel>
						</timecode>
						<media>
							<video>
								<duration>871</duration>
								<samplecharacteristics>
									<width>1280</width>
									<height>720</height>
								</samplecharacteristics>
							</video>
							<audio>
								<samplecharacteristics>
									<samplerate>48000</samplerate>
									<depth>16</depth>
								</samplecharacteristics>
								<channelcount>2</channelcount>
								<layout>stereo</layout>
								<audiochannel>
									<sourcechannel>1</sourcechannel>
									<channellabel>left</channellabel>
								</audiochannel>
								<audiochannel>
									<sourcechannel>2</sourcechannel>
									<channellabel>right</channellabel>
								</audiochannel>
							</audio>
						</media>
					</file>
					<sourcetrack>
						<mediatype>video</mediatype>
					</sourcetrack>
					<link>
						<linkclipref>AntonyAgar008Subclipc</linkclipref>
						<mediatype>video</mediatype>
						<trackindex>15</trackindex>
						<clipindex>1</clipindex>
					</link>
					<link>
						<linkclipref>AntonyAgar008Subclipc2</linkclipref>
						<mediatype>audio</mediatype>
						<trackindex>13</trackindex>
						<clipindex>1</clipindex>
						<groupindex>1</groupindex>
					</link>
					<link>
						<linkclipref>AntonyAgar008Subclipc3</linkclipref>
						<mediatype>audio</mediatype>
						<trackindex>14</trackindex>
						<clipindex>1</clipindex>
						<groupindex>1</groupindex>
					</link>
					<fielddominance>none</fielddominance>
					<itemhistory>
						<uuid>15101370-E996-4512-83EB-1E794BAD67CA</uuid>
						<uuid>B394979F-1759-448F-A0DB-212895815EEE</uuid>
					</itemhistory>
				</clipitem>
				<clipitem id="AntonyAgar008Subclipe">
					<name>AntonyAgar008Subclipe</name>
					<duration>142</duration>
					<rate>
						<ntsc>FALSE</ntsc>
						<timebase>25</timebase>
					</rate>
					<in>0</in>
					<out>142</out>
					<start>10978</start>
					<end>11120</end>
					<pixelaspectratio>Square</pixelaspectratio>
					<enabled>TRUE</enabled>
					<anamorphic>FALSE</anamorphic>
					<alphatype>none</alphatype>
					<logginginfo>
						<scene/>
						<shottake/>
						<lognote/>
						<good>FALSE</good>
					</logginginfo>
					<labels>
						<label>Good Take</label>
						<label2/>
					</labels>
					<comments>
						<mastercomment1/>
						<mastercomment2/>
						<mastercomment3/>
						<mastercomment4/>
					</comments>
					<file id="AntonyAgar008Subclipe1">
						<name>AntonyAgar008Subclipe</name>
						<pathurl>file://localhost/Volumes/Michael's%20Passport/woodbdrigenov2011media/AntonyAgar008Subclipe</pathurl>
						<rate>
							<timebase>25</timebase>
						</rate>
						<duration>142</duration>
						<metadata>
							<storage>QuickTime</storage>
							<key>com.apple.finalcutstudio.media.uuid</key>
							<size>36</size>
							<type>UTF8</type>
							<value>D429575C-AA81-4407-872A-DEA95D9BED1B</value>
						</metadata>
						<metadata>
							<storage>QuickTime</storage>
							<key>com.apple.finalcutstudio.media.history.uuid</key>
							<size>36</size>
							<type>UTF8</type>
							<value>1D3B5FD1-94B6-4432-82F1-FEA02BF6AAB0</value>
						</metadata>
						<timecode>
							<rate>
								<timebase>25</timebase>
							</rate>
							<string>00:01:14:00</string>
							<frame>1850</frame>
							<displayformat>NDF</displayformat>
							<source>source</source>
							<reel>
								<name>AnthonyAgar</name>
							</reel>
						</timecode>
						<media>
							<video>
								<duration>142</duration>
								<samplecharacteristics>
									<width>1280</width>
									<height>720</height>
								</samplecharacteristics>
							</video>
							<audio>
								<samplecharacteristics>
									<samplerate>48000</samplerate>
									<depth>16</depth>
								</samplecharacteristics>
								<channelcount>2</channelcount>
								<layout>stereo</layout>
								<audiochannel>
									<sourcechannel>1</sourcechannel>
									<channellabel>left</channellabel>
								</audiochannel>
								<audiochannel>
									<sourcechannel>2</sourcechannel>
									<channellabel>right</channellabel>
								</audiochannel>
							</audio>
						</media>
					</file>
					<sourcetrack>
						<mediatype>video</mediatype>
					</sourcetrack>
					<link>
						<linkclipref>AntonyAgar008Subclipe</linkclipref>
						<mediatype>video</mediatype>
						<trackindex>15</trackindex>
						<clipindex>2</clipindex>
					</link>
					<link>
						<linkclipref>AntonyAgar008Subclipe2</linkclipref>
						<mediatype>audio</mediatype>
						<trackindex>13</trackindex>
						<clipindex>2</clipindex>
						<groupindex>1</groupindex>
					</link>
					<link>
						<linkclipref>AntonyAgar008Subclipe3</linkclipref>
						<mediatype>audio</mediatype>
						<trackindex>14</trackindex>
						<clipindex>2</clipindex>
						<groupindex>1</groupindex>
					</link>
					<fielddominance>none</fielddominance>
					<itemhistory>
						<uuid>DC53A01F-3A5C-4243-ACF2-647B643B4694</uuid>
						<uuid>F5D0D2DE-80B9-43B6-9F3C-D9E08F84C91C</uuid>
					</itemhistory>
				</clipitem>
				<clipitem id="AntonyAgar008Subclipf">
					<name>AntonyAgar008Subclipf</name>
					<duration>155</duration>
					<rate>
						<ntsc>FALSE</ntsc>
						<timebase>25</timebase>
					</rate>
					<in>0</in>
					<out>155</out>
					<start>11120</start>
					<end>11275</end>
					<pixelaspectratio>Square</pixelaspectratio>
					<enabled>TRUE</enabled>
					<anamorphic>FALSE</anamorphic>
					<alphatype>none</alphatype>
					<logginginfo>
						<scene/>
						<shottake/>
						<lognote/>
						<good>FALSE</good>
					</logginginfo>
					<labels>
						<label>Good Take</label>
						<label2/>
					</labels>
					<comments>
						<mastercomment1/>
						<mastercomment2/>
						<mastercomment3/>
						<mastercomment4/>
					</comments>
					<file id="AntonyAgar008Subclipf1">
						<name>AntonyAgar008Subclipf</name>
						<pathurl>file://localhost/Volumes/Michael's%20Passport/woodbdrigenov2011media/AntonyAgar008Subclipf</pathurl>
						<rate>
							<timebase>25</timebase>
						</rate>
						<duration>155</duration>
						<metadata>
							<storage>QuickTime</storage>
							<key>com.apple.finalcutstudio.media.uuid</key>
							<size>36</size>
							<type>UTF8</type>
							<value>425B29BE-1183-4512-A21A-FEB0A4C92B48</value>
						</metadata>
						<metadata>
							<storage>QuickTime</storage>
							<key>com.apple.finalcutstudio.media.history.uuid</key>
							<size>36</size>
							<type>UTF8</type>
							<value>1D3B5FD1-94B6-4432-82F1-FEA02BF6AAB0</value>
						</metadata>
						<timecode>
							<rate>
								<timebase>25</timebase>
							</rate>
							<string>00:01:26:21</string>
							<frame>2171</frame>
							<displayformat>NDF</displayformat>
							<source>source</source>
							<reel>
								<name>AnthonyAgar</name>
							</reel>
						</timecode>
						<media>
							<video>
								<duration>155</duration>
								<samplecharacteristics>
									<width>1280</width>
									<height>720</height>
								</samplecharacteristics>
							</video>
							<audio>
								<samplecharacteristics>
									<samplerate>48000</samplerate>
									<depth>16</depth>
								</samplecharacteristics>
								<channelcount>2</channelcount>
								<layout>stereo</layout>
								<audiochannel>
									<sourcechannel>1</sourcechannel>
									<channellabel>left</channellabel>
								</audiochannel>
								<audiochannel>
									<sourcechannel>2</sourcechannel>
									<channellabel>right</channellabel>
								</audiochannel>
							</audio>
						</media>
					</file>
					<sourcetrack>
						<mediatype>video</mediatype>
					</sourcetrack>
					<link>
						<linkclipref>AntonyAgar008Subclipf</linkclipref>
						<mediatype>video</mediatype>
						<trackindex>15</trackindex>
						<clipindex>3</clipindex>
					</link>
					<link>
						<linkclipref>AntonyAgar008Subclipf2</linkclipref>
						<mediatype>audio</mediatype>
						<trackindex>13</trackindex>
						<clipindex>3</clipindex>
						<groupindex>1</groupindex>
					</link>
					<link>
						<linkclipref>AntonyAgar008Subclipf3</linkclipref>
						<mediatype>audio</mediatype>
						<trackindex>14</trackindex>
						<clipindex>3</clipindex>
						<groupindex>1</groupindex>
					</link>
					<fielddominance>none</fielddominance>
					<itemhistory>
						<uuid>529BA5F3-6978-461F-B0DC-62EEA30973D4</uuid>
						<uuid>CB6E850E-E19C-4BD1-AC19-97931489101C</uuid>
					</itemhistory>
				</clipitem>
				<clipitem id="AntonyAgar009Subclipa">
					<name>AntonyAgar009Subclipa</name>
					<duration>634</duration>
					<rate>
						<ntsc>FALSE</ntsc>
						<timebase>25</timebase>
					</rate>
					<in>0</in>
					<out>634</out>
					<start>11275</start>
					<end>11909</end>
					<pixelaspectratio>Square</pixelaspectratio>
					<enabled>TRUE</enabled>
					<anamorphic>FALSE</anamorphic>
					<alphatype>none</alphatype>
					<logginginfo>
						<scene/>
						<shottake/>
						<lognote/>
						<good>FALSE</good>
					</logginginfo>
					<labels>
						<label>Good Take</label>
						<label2/>
					</labels>
					<comments>
						<mastercomment1/>
						<mastercomment2/>
						<mastercomment3/>
						<mastercomment4/>
					</comments>
					<file id="AntonyAgar009Subclipa1">
						<name>AntonyAgar009Subclipa</name>
						<pathurl>file://localhost/Volumes/Michael's%20Passport/woodbdrigenov2011media/AntonyAgar009Subclipa</pathurl>
						<rate>
							<timebase>25</timebase>
						</rate>
						<duration>634</duration>
						<metadata>
							<storage>QuickTime</storage>
							<key>com.apple.finalcutstudio.media.uuid</key>
							<size>36</size>
							<type>UTF8</type>
							<value>E7029B69-F90A-4895-B5B3-A6860CE1FCF3</value>
						</metadata>
						<metadata>
							<storage>QuickTime</storage>
							<key>com.apple.finalcutstudio.media.history.uuid</key>
							<size>36</size>
							<type>UTF8</type>
							<value>B6B00DD3-B9FF-404E-A3C4-228FB683072A</value>
						</metadata>
						<timecode>
							<rate>
								<timebase>25</timebase>
							</rate>
							<string>00:00:04:13</string>
							<frame>113</frame>
							<displayformat>NDF</displayformat>
							<source>source</source>
							<reel>
								<name>AnthonyAgar</name>
							</reel>
						</timecode>
						<media>
							<video>
								<duration>634</duration>
								<samplecharacteristics>
									<width>1280</width>
									<height>720</height>
								</samplecharacteristics>
							</video>
							<audio>
								<samplecharacteristics>
									<samplerate>48000</samplerate>
									<depth>16</depth>
								</samplecharacteristics>
								<channelcount>2</channelcount>
								<layout>stereo</layout>
								<audiochannel>
									<sourcechannel>1</sourcechannel>
									<channellabel>left</channellabel>
								</audiochannel>
								<audiochannel>
									<sourcechannel>2</sourcechannel>
									<channellabel>right</channellabel>
								</audiochannel>
							</audio>
						</media>
					</file>
					<sourcetrack>
						<mediatype>video</mediatype>
					</sourcetrack>
					<link>
						<linkclipref>AntonyAgar009Subclipa</linkclipref>
						<mediatype>video</mediatype>
						<trackindex>15</trackindex>
						<clipindex>4</clipindex>
					</link>
					<link>
						<linkclipref>AntonyAgar009Subclipa2</linkclipref>
						<mediatype>audio</mediatype>
						<trackindex>13</trackindex>
						<clipindex>4</clipindex>
						<groupindex>1</groupindex>
					</link>
					<link>
						<linkclipref>AntonyAgar009Subclipa3</linkclipref>
						<mediatype>audio</mediatype>
						<trackindex>14</trackindex>
						<clipindex>4</clipindex>
						<groupindex>1</groupindex>
					</link>
					<fielddominance>none</fielddominance>
					<itemhistory>
						<uuid>601CD240-2E1F-44E4-9B91-4FE0C9CFFD1C</uuid>
						<uuid>1028FD12-65AB-4999-979F-251CBA379FEB</uuid>
					</itemhistory>
				</clipitem>
				<clipitem id="AntonyAgar009Subclipb">
					<name>AntonyAgar009Subclipb</name>
					<duration>2050</duration>
					<rate>
						<ntsc>FALSE</ntsc>
						<timebase>25</timebase>
					</rate>
					<in>0</in>
					<out>2050</out>
					<start>11909</start>
					<end>13959</end>
					<pixelaspectratio>Square</pixelaspectratio>
					<enabled>TRUE</enabled>
					<anamorphic>FALSE</anamorphic>
					<alphatype>none</alphatype>
					<logginginfo>
						<scene/>
						<shottake/>
						<lognote/>
						<good>FALSE</good>
					</logginginfo>
					<labels>
						<label>Good Take</label>
						<label2/>
					</labels>
					<comments>
						<mastercomment1/>
						<mastercomment2/>
						<mastercomment3/>
						<mastercomment4/>
					</comments>
					<file id="AntonyAgar009Subclipb1">
						<name>AntonyAgar009Subclipb</name>
						<pathurl>file://localhost/Volumes/Michael's%20Passport/woodbdrigenov2011media/AntonyAgar009Subclipb</pathurl>
						<rate>
							<timebase>25</timebase>
						</rate>
						<duration>2050</duration>
						<metadata>
							<storage>QuickTime</storage>
							<key>com.apple.finalcutstudio.media.uuid</key>
							<size>36</size>
							<type>UTF8</type>
							<value>1AD62114-A239-4A9E-A52A-9B5425E453A0</value>
						</metadata>
						<metadata>
							<storage>QuickTime</storage>
							<key>com.apple.finalcutstudio.media.history.uuid</key>
							<size>36</size>
							<type>UTF8</type>
							<value>B6B00DD3-B9FF-404E-A3C4-228FB683072A</value>
						</metadata>
						<timecode>
							<rate>
								<timebase>25</timebase>
							</rate>
							<string>00:00:35:03</string>
							<frame>878</frame>
							<displayformat>NDF</displayformat>
							<source>source</source>
							<reel>
								<name>AnthonyAgar</name>
							</reel>
						</timecode>
						<media>
							<video>
								<duration>2050</duration>
								<samplecharacteristics>
									<width>1280</width>
									<height>720</height>
								</samplecharacteristics>
							</video>
							<audio>
								<samplecharacteristics>
									<samplerate>48000</samplerate>
									<depth>16</depth>
								</samplecharacteristics>
								<channelcount>2</channelcount>
								<layout>stereo</layout>
								<audiochannel>
									<sourcechannel>1</sourcechannel>
									<channellabel>left</channellabel>
								</audiochannel>
								<audiochannel>
									<sourcechannel>2</sourcechannel>
									<channellabel>right</channellabel>
								</audiochannel>
							</audio>
						</media>
					</file>
					<sourcetrack>
						<mediatype>video</mediatype>
					</sourcetrack>
					<link>
						<linkclipref>AntonyAgar009Subclipb</linkclipref>
						<mediatype>video</mediatype>
						<trackindex>15</trackindex>
						<clipindex>5</clipindex>
					</link>
					<link>
						<linkclipref>AntonyAgar009Subclipb2</linkclipref>
						<mediatype>audio</mediatype>
						<trackindex>13</trackindex>
						<clipindex>5</clipindex>
						<groupindex>1</groupindex>
					</link>
					<link>
						<linkclipref>AntonyAgar009Subclipb3</linkclipref>
						<mediatype>audio</mediatype>
						<trackindex>14</trackindex>
						<clipindex>5</clipindex>
						<groupindex>1</groupindex>
					</link>
					<fielddominance>none</fielddominance>
					<itemhistory>
						<uuid>943EF973-205D-4ACF-B30C-F135974682D9</uuid>
						<uuid>F1301126-0FE1-4C8C-BE2F-049CA7D405D2</uuid>
					</itemhistory>
				</clipitem>
				<clipitem id="AntonyAgar012Subclipd">
					<name>AntonyAgar012Subclipd</name>
					<duration>226</duration>
					<rate>
						<ntsc>FALSE</ntsc>
						<timebase>25</timebase>
					</rate>
					<in>0</in>
					<out>225</out>
					<start>46598</start>
					<end>46823</end>
					<pixelaspectratio>Square</pixelaspectratio>
					<enabled>TRUE</enabled>
					<anamorphic>FALSE</anamorphic>
					<alphatype>none</alphatype>
					<logginginfo>
						<scene/>
						<shottake/>
						<lognote/>
						<good>FALSE</good>
					</logginginfo>
					<labels>
						<label2/>
					</labels>
					<comments>
						<mastercomment1/>
						<mastercomment2/>
						<mastercomment3/>
						<mastercomment4/>
					</comments>
					<file id="AntonyAgar012Subclipd1">
						<name>AntonyAgar012Subclipd</name>
						<pathurl>file://localhost/Volumes/Michael's%20Passport/woodbdrigenov2011media/AntonyAgar012Subclipd</pathurl>
						<rate>
							<timebase>25</timebase>
						</rate>
						<duration>226</duration>
						<metadata>
							<storage>QuickTime</storage>
							<key>com.apple.finalcutstudio.media.uuid</key>
							<size>36</size>
							<type>UTF8</type>
							<value>EA2C79CB-8F2E-4109-A647-A8A74337CE9B</value>
						</metadata>
						<metadata>
							<storage>QuickTime</storage>
							<key>com.apple.finalcutstudio.media.history.uuid</key>
							<size>36</size>
							<type>UTF8</type>
							<value>E9C6BB7C-3391-434A-9EE5-7743DC7EF3A5</value>
						</metadata>
						<timecode>
							<rate>
								<timebase>25</timebase>
							</rate>
							<string>00:02:04:09</string>
							<frame>3109</frame>
							<displayformat>NDF</displayformat>
							<source>source</source>
							<reel>
								<name>AnthonyAgar</name>
							</reel>
						</timecode>
						<media>
							<video>
								<duration>226</duration>
								<samplecharacteristics>
									<width>1280</width>
									<height>720</height>
								</samplecharacteristics>
							</video>
							<audio>
								<samplecharacteristics>
									<samplerate>48000</samplerate>
									<depth>16</depth>
								</samplecharacteristics>
								<channelcount>2</channelcount>
								<layout>stereo</layout>
								<audiochannel>
									<sourcechannel>1</sourcechannel>
									<channellabel>left</channellabel>
								</audiochannel>
								<audiochannel>
									<sourcechannel>2</sourcechannel>
									<channellabel>right</channellabel>
								</audiochannel>
							</audio>
						</media>
					</file>
					<sourcetrack>
						<mediatype>video</mediatype>
					</sourcetrack>
					<fielddominance>none</fielddominance>
					<itemhistory>
						<uuid>0BEE231A-3017-4DE0-84D7-2B781278B923</uuid>
						<uuid>3233B785-C76D-4DE0-A55F-2BF3997986C1</uuid>
					</itemhistory>
				</clipitem>
				<clipitem id="AntonyAgar012Subclipb">
					<name>AntonyAgar012Subclipb</name>
					<duration>496</duration>
					<rate>
						<ntsc>FALSE</ntsc>
						<timebase>25</timebase>
					</rate>
					<in>0</in>
					<out>496</out>
					<start>47231</start>
					<end>47727</end>
					<pixelaspectratio>Square</pixelaspectratio>
					<enabled>TRUE</enabled>
					<anamorphic>FALSE</anamorphic>
					<alphatype>none</alphatype>
					<logginginfo>
						<scene/>
						<shottake/>
						<lognote/>
						<good>FALSE</good>
					</logginginfo>
					<labels>
						<label2/>
					</labels>
					<comments>
						<mastercomment1/>
						<mastercomment2/>
						<mastercomment3/>
						<mastercomment4/>
					</comments>
					<file id="AntonyAgar012Subclipb1">
						<name>AntonyAgar012Subclipb</name>
						<pathurl>file://localhost/Volumes/Michael's%20Passport/woodbdrigenov2011media/AntonyAgar012Subclipb</pathurl>
						<rate>
							<timebase>25</timebase>
						</rate>
						<duration>496</duration>
						<metadata>
							<storage>QuickTime</storage>
							<key>com.apple.finalcutstudio.media.uuid</key>
							<size>36</size>
							<type>UTF8</type>
							<value>908FCBB8-2D01-4A29-9620-BC108802CC99</value>
						</metadata>
						<metadata>
							<storage>QuickTime</storage>
							<key>com.apple.finalcutstudio.media.history.uuid</key>
							<size>36</size>
							<type>UTF8</type>
							<value>E9C6BB7C-3391-434A-9EE5-7743DC7EF3A5</value>
						</metadata>
						<timecode>
							<rate>
								<timebase>25</timebase>
							</rate>
							<string>00:01:11:04</string>
							<frame>1779</frame>
							<displayformat>NDF</displayformat>
							<source>source</source>
							<reel>
								<name>AnthonyAgar</name>
							</reel>
						</timecode>
						<media>
							<video>
								<duration>496</duration>
								<samplecharacteristics>
									<width>1280</width>
									<height>720</height>
								</samplecharacteristics>
							</video>
							<audio>
								<samplecharacteristics>
									<samplerate>48000</samplerate>
									<depth>16</depth>
								</samplecharacteristics>
								<channelcount>2</channelcount>
								<layout>stereo</layout>
								<audiochannel>
									<sourcechannel>1</sourcechannel>
									<channellabel>left</channellabel>
								</audiochannel>
								<audiochannel>
									<sourcechannel>2</sourcechannel>
									<channellabel>right</channellabel>
								</audiochannel>
							</audio>
						</media>
					</file>
					<sourcetrack>
						<mediatype>video</mediatype>
					</sourcetrack>
					<fielddominance>none</fielddominance>
					<itemhistory>
						<uuid>A936E9D0-FC5F-4F6E-BD5D-B59CF0392840</uuid>
						<uuid>D1D2F53D-3A14-4E78-9456-0002AC082398</uuid>
					</itemhistory>
				</clipitem>
				<clipitem id="AntonyAgar012Subclipc">
					<name>AntonyAgar012Subclipc</name>
					<duration>375</duration>
					<rate>
						<ntsc>FALSE</ntsc>
						<timebase>25</timebase>
					</rate>
					<in>0</in>
					<out>375</out>
					<start>48050</start>
					<end>48425</end>
					<pixelaspectratio>Square</pixelaspectratio>
					<enabled>TRUE</enabled>
					<anamorphic>FALSE</anamorphic>
					<alphatype>none</alphatype>
					<logginginfo>
						<scene/>
						<shottake/>
						<lognote/>
						<good>FALSE</good>
					</logginginfo>
					<labels>
						<label2/>
					</labels>
					<comments>
						<mastercomment1/>
						<mastercomment2/>
						<mastercomment3/>
						<mastercomment4/>
					</comments>
					<file id="AntonyAgar012Subclipc1">
						<name>AntonyAgar012Subclipc</name>
						<pathurl>file://localhost/Volumes/Michael's%20Passport/woodbdrigenov2011media/AntonyAgar012Subclipc</pathurl>
						<rate>
							<timebase>25</timebase>
						</rate>
						<duration>375</duration>
						<metadata>
							<storage>QuickTime</storage>
							<key>com.apple.finalcutstudio.media.uuid</key>
							<size>36</size>
							<type>UTF8</type>
							<value>D878C9F1-A28C-4503-960F-4984D0591D3D</value>
						</metadata>
						<metadata>
							<storage>QuickTime</storage>
							<key>com.apple.finalcutstudio.media.history.uuid</key>
							<size>36</size>
							<type>UTF8</type>
							<value>E9C6BB7C-3391-434A-9EE5-7743DC7EF3A5</value>
						</metadata>
						<timecode>
							<rate>
								<timebase>25</timebase>
							</rate>
							<string>00:01:44:01</string>
							<frame>2601</frame>
							<displayformat>NDF</displayformat>
							<source>source</source>
							<reel>
								<name>AnthonyAgar</name>
							</reel>
						</timecode>
						<media>
							<video>
								<duration>375</duration>
								<samplecharacteristics>
									<width>1280</width>
									<height>720</height>
								</samplecharacteristics>
							</video>
							<audio>
								<samplecharacteristics>
									<samplerate>48000</samplerate>
									<depth>16</depth>
								</samplecharacteristics>
								<channelcount>2</channelcount>
								<layout>stereo</layout>
								<audiochannel>
									<sourcechannel>1</sourcechannel>
									<channellabel>left</channellabel>
								</audiochannel>
								<audiochannel>
									<sourcechannel>2</sourcechannel>
									<channellabel>right</channellabel>
								</audiochannel>
							</audio>
						</media>
					</file>
					<sourcetrack>
						<mediatype>video</mediatype>
					</sourcetrack>
					<fielddominance>none</fielddominance>
					<itemhistory>
						<uuid>82E6000C-989B-4A49-B13D-B4AD3B4456DC</uuid>
						<uuid>CA0CEDD6-58D7-418B-A9EC-CEFC2BC4C650</uuid>
					</itemhistory>
				</clipitem>
				<clipitem id="AntonyAgar012Subclipe">
					<name>AntonyAgar012Subclipe</name>
					<duration>428</duration>
					<rate>
						<ntsc>FALSE</ntsc>
						<timebase>25</timebase>
					</rate>
					<in>0</in>
					<out>427</out>
					<start>49346</start>
					<end>49773</end>
					<pixelaspectratio>Square</pixelaspectratio>
					<enabled>TRUE</enabled>
					<anamorphic>FALSE</anamorphic>
					<alphatype>none</alphatype>
					<logginginfo>
						<scene/>
						<shottake/>
						<lognote/>
						<good>FALSE</good>
					</logginginfo>
					<labels>
						<label2/>
					</labels>
					<comments>
						<mastercomment1/>
						<mastercomment2/>
						<mastercomment3/>
						<mastercomment4/>
					</comments>
					<file id="AntonyAgar012Subclipe1">
						<name>AntonyAgar012Subclipe</name>
						<pathurl>file://localhost/Volumes/Michael's%20Passport/woodbdrigenov2011media/AntonyAgar012Subclipe</pathurl>
						<rate>
							<timebase>25</timebase>
						</rate>
						<duration>428</duration>
						<metadata>
							<storage>QuickTime</storage>
							<key>com.apple.finalcutstudio.media.uuid</key>
							<size>36</size>
							<type>UTF8</type>
							<value>69E3E16B-B578-4265-9E93-D3F3B84E924B</value>
						</metadata>
						<metadata>
							<storage>QuickTime</storage>
							<key>com.apple.finalcutstudio.media.history.uuid</key>
							<size>36</size>
							<type>UTF8</type>
							<value>E9C6BB7C-3391-434A-9EE5-7743DC7EF3A5</value>
						</metadata>
						<timecode>
							<rate>
								<timebase>25</timebase>
							</rate>
							<string>00:02:36:10</string>
							<frame>3910</frame>
							<displayformat>NDF</displayformat>
							<source>source</source>
							<reel>
								<name>AnthonyAgar</name>
							</reel>
						</timecode>
						<media>
							<video>
								<duration>428</duration>
								<samplecharacteristics>
									<width>1280</width>
									<height>720</height>
								</samplecharacteristics>
							</video>
							<audio>
								<samplecharacteristics>
									<samplerate>48000</samplerate>
									<depth>16</depth>
								</samplecharacteristics>
								<channelcount>2</channelcount>
								<layout>stereo</layout>
								<audiochannel>
									<sourcechannel>1</sourcechannel>
									<channellabel>left</channellabel>
								</audiochannel>
								<audiochannel>
									<sourcechannel>2</sourcechannel>
									<channellabel>right</channellabel>
								</audiochannel>
							</audio>
						</media>
					</file>
					<sourcetrack>
						<mediatype>video</mediatype>
					</sourcetrack>
					<fielddominance>none</fielddominance>
					<itemhistory>
						<uuid>50DC2743-57A9-40C8-A4D3-51496D3771FD</uuid>
						<uuid>0855F34A-3672-4F8F-AFFA-4B1A62985399</uuid>
					</itemhistory>
				</clipitem>
				<enabled>TRUE</enabled>
				<locked>FALSE</locked>
			</track>
			<track>
				<clipitem id="AntonyAgar010Subclipd">
					<name>AntonyAgar010Subclipd</name>
					<duration>5899</duration>
					<rate>
						<ntsc>FALSE</ntsc>
						<timebase>25</timebase>
					</rate>
					<in>0</in>
					<out>5899</out>
					<start>4323</start>
					<end>10222</end>
					<pixelaspectratio>Square</pixelaspectratio>
					<enabled>TRUE</enabled>
					<anamorphic>FALSE</anamorphic>
					<alphatype>none</alphatype>
					<logginginfo>
						<scene/>
						<shottake/>
						<lognote/>
						<good>FALSE</good>
					</logginginfo>
					<labels>
						<label2/>
					</labels>
					<comments>
						<mastercomment1/>
						<mastercomment2/>
						<mastercomment3/>
						<mastercomment4/>
					</comments>
					<file id="AntonyAgar010Subclipd1">
						<name>AntonyAgar010Subclipd</name>
						<pathurl>file://localhost/Volumes/Michael's%20Passport/woodbdrigenov2011media/AntonyAgar010Subclipd</pathurl>
						<rate>
							<timebase>25</timebase>
						</rate>
						<duration>5899</duration>
						<metadata>
							<storage>QuickTime</storage>
							<key>com.apple.finalcutstudio.media.uuid</key>
							<size>36</size>
							<type>UTF8</type>
							<value>C1774BD1-BBAA-4C8F-8E5A-C71648B49220</value>
						</metadata>
						<metadata>
							<storage>QuickTime</storage>
							<key>com.apple.finalcutstudio.media.history.uuid</key>
							<size>36</size>
							<type>UTF8</type>
							<value>5FD1C157-EB49-42C0-B7B0-A75B42AD0793</value>
						</metadata>
						<timecode>
							<rate>
								<timebase>25</timebase>
							</rate>
							<string>00:00:36:05</string>
							<frame>905</frame>
							<displayformat>NDF</displayformat>
							<source>source</source>
							<reel>
								<name>AnthonyAgar</name>
							</reel>
						</timecode>
						<media>
							<video>
								<duration>5899</duration>
								<samplecharacteristics>
									<width>1280</width>
									<height>720</height>
								</samplecharacteristics>
							</video>
							<audio>
								<samplecharacteristics>
									<samplerate>48000</samplerate>
									<depth>16</depth>
								</samplecharacteristics>
								<channelcount>2</channelcount>
								<layout>stereo</layout>
								<audiochannel>
									<sourcechannel>1</sourcechannel>
									<channellabel>left</channellabel>
								</audiochannel>
								<audiochannel>
									<sourcechannel>2</sourcechannel>
									<channellabel>right</channellabel>
								</audiochannel>
							</audio>
						</media>
					</file>
					<sourcetrack>
						<mediatype>video</mediatype>
					</sourcetrack>
					<fielddominance>none</fielddominance>
					<itemhistory>
						<uuid>C7E8AD21-B008-44DF-8B43-454CC10FF384</uuid>
						<uuid>14D3F4CD-18DE-4CEC-B5DE-00B66319BBC3</uuid>
					</itemhistory>
				</clipitem>
				<enabled>TRUE</enabled>
				<locked>FALSE</locked>
			</track>
		</video>
		<audio>
			<format>
				<samplecharacteristics>
					<depth>16</depth>
					<samplerate>48000</samplerate>
				</samplecharacteristics>
			</format>
			<outputs>
				<group>
					<index>1</index>
					<numchannels>2</numchannels>
					<downmix>0</downmix>
					<channel>
						<index>1</index>
					</channel>
					<channel>
						<index>2</index>
					</channel>
				</group>
			</outputs>
			<in>-1</in>
			<out>-1</out>
			<track>
				<clipitem id="MasterSequence.wav">
					<name>MasterSequence.wav</name>
					<duration>120696</duration>
					<rate>
						<ntsc>FALSE</ntsc>
						<timebase>25</timebase>
					</rate>
					<in>0</in>
					<out>120696</out>
					<start>15000</start>
					<end>135696</end>
					<logginginfo>
						<scene/>
						<shottake/>
						<lognote/>
						<good>FALSE</good>
					</logginginfo>
					<labels>
						<label2/>
					</labels>
					<comments>
						<mastercomment1/>
						<mastercomment2/>
						<mastercomment3/>
						<mastercomment4/>
					</comments>
					<file id="MasterSequence2">
						<name>MasterSequence.wav</name>
						<pathurl>file://localhost/Volumes/Michael's%20Passport/woodbdrigenov2011media/MasterSequence.wav</pathurl>
						<rate>
							<timebase>25</timebase>
						</rate>
						<duration>120696</duration>
						<media>
							<audio>
								<samplecharacteristics>
									<samplerate>48000</samplerate>
									<depth>16</depth>
								</samplecharacteristics>
								<channelcount>2</channelcount>
							</audio>
						</media>
					</file>
					<filter>
						<effect>
							<name>Audio Levels</name>
							<effectid>audiolevels</effectid>
							<effectcategory>audiolevels</effectcategory>
							<effecttype>audiolevels</effecttype>
							<mediatype>audio</mediatype>
							<parameter>
								<name>Level</name>
								<parameterid>level</parameterid>
								<valuemin>0</valuemin>
								<valuemax>3.98109</valuemax>
								<value>1</value>
							</parameter>
						</effect>
					</filter>
					<filter>
						<effect>
							<name>Audio Pan</name>
							<effectid>audiopan</effectid>
							<effectcategory>audiopan</effectcategory>
							<effecttype>audiopan</effecttype>
							<mediatype>audio</mediatype>
							<parameter>
								<name>Pan</name>
								<parameterid>pan</parameterid>
								<valuemin>-1</valuemin>
								<valuemax>1</valuemax>
								<value>0</value>
							</parameter>
						</effect>
					</filter>
					<sourcetrack>
						<mediatype>audio</mediatype>
						<trackindex>1</trackindex>
					</sourcetrack>
					<link>
						<linkclipref>MasterSequence.wav</linkclipref>
						<mediatype>audio</mediatype>
						<trackindex>1</trackindex>
						<clipindex>1</clipindex>
						<groupindex>1</groupindex>
					</link>
					<link>
						<linkclipref>MasterSequence.wav1</linkclipref>
						<mediatype>audio</mediatype>
						<trackindex>2</trackindex>
						<clipindex>1</clipindex>
						<groupindex>1</groupindex>
					</link>
					<itemhistory>
						<uuid>523B65EF-5903-4CFE-B1F3-5116193CC313</uuid>
						<uuid>709263FE-7ADA-41C6-8472-76918F00C276</uuid>
					</itemhistory>
				</clipitem>
				<enabled>TRUE</enabled>
				<locked>FALSE</locked>
				<outputchannelindex>1</outputchannelindex>
			</track>
			<track>
				<clipitem id="MasterSequence.wav1">
					<name>MasterSequence.wav</name>
					<duration>120696</duration>
					<rate>
						<ntsc>FALSE</ntsc>
						<timebase>25</timebase>
					</rate>
					<in>0</in>
					<out>120696</out>
					<start>15000</start>
					<end>135696</end>
					<logginginfo>
						<scene/>
						<shottake/>
						<lognote/>
						<good>FALSE</good>
					</logginginfo>
					<labels>
						<label2/>
					</labels>
					<comments>
						<mastercomment1/>
						<mastercomment2/>
						<mastercomment3/>
						<mastercomment4/>
					</comments>
					<file id="MasterSequence2"/>
					<filter>
						<effect>
							<name>Audio Levels</name>
							<effectid>audiolevels</effectid>
							<effectcategory>audiolevels</effectcategory>
							<effecttype>audiolevels</effecttype>
							<mediatype>audio</mediatype>
							<parameter>
								<name>Level</name>
								<parameterid>level</parameterid>
								<valuemin>0</valuemin>
								<valuemax>3.98109</valuemax>
								<value>1</value>
							</parameter>
						</effect>
					</filter>
					<filter>
						<effect>
							<name>Audio Pan</name>
							<effectid>audiopan</effectid>
							<effectcategory>audiopan</effectcategory>
							<effecttype>audiopan</effecttype>
							<mediatype>audio</mediatype>
							<parameter>
								<name>Pan</name>
								<parameterid>pan</parameterid>
								<valuemin>-1</valuemin>
								<valuemax>1</valuemax>
								<value>-0</value>
							</parameter>
						</effect>
					</filter>
					<sourcetrack>
						<mediatype>audio</mediatype>
						<trackindex>2</trackindex>
					</sourcetrack>
					<link>
						<linkclipref>MasterSequence.wav</linkclipref>
						<mediatype>audio</mediatype>
						<trackindex>1</trackindex>
						<clipindex>1</clipindex>
						<groupindex>1</groupindex>
					</link>
					<link>
						<linkclipref>MasterSequence.wav1</linkclipref>
						<mediatype>audio</mediatype>
						<trackindex>2</trackindex>
						<clipindex>1</clipindex>
						<groupindex>1</groupindex>
					</link>
					<itemhistory>
						<uuid>0E7A5913-442A-4050-95E5-CEDDE6EC6AA6</uuid>
						<uuid>10BEDFB6-888F-47AE-9A67-EC4DA3EF9641</uuid>
					</itemhistory>
				</clipitem>
				<enabled>TRUE</enabled>
				<locked>FALSE</locked>
				<outputchannelindex>2</outputchannelindex>
			</track>
			<track>
				<clipitem id="OllieNormanDad000 2">
					<name>OllieNormanDad000</name>
					<duration>1284</duration>
					<rate>
						<ntsc>FALSE</ntsc>
						<timebase>25</timebase>
					</rate>
					<in>0</in>
					<out>1284</out>
					<start>0</start>
					<end>1284</end>
					<subframeoffset>0</subframeoffset>
					<logginginfo>
						<scene/>
						<shottake/>
						<lognote/>
						<good>FALSE</good>
					</logginginfo>
					<labels>
						<label2/>
					</labels>
					<comments>
						<mastercomment1/>
						<mastercomment2/>
						<mastercomment3/>
						<mastercomment4/>
					</comments>
					<file id="OllieNormanDad000 1"/>
					<filter>
						<effect>
							<name>Audio Levels</name>
							<effectid>audiolevels</effectid>
							<effectcategory>audiolevels</effectcategory>
							<effecttype>audiolevels</effecttype>
							<mediatype>audio</mediatype>
							<parameter>
								<name>Level</name>
								<parameterid>level</parameterid>
								<valuemin>0</valuemin>
								<valuemax>3.98109</valuemax>
								<value>1</value>
							</parameter>
						</effect>
					</filter>
					<filter>
						<effect>
							<name>Audio Pan</name>
							<effectid>audiopan</effectid>
							<effectcategory>audiopan</effectcategory>
							<effecttype>audiopan</effecttype>
							<mediatype>audio</mediatype>
							<parameter>
								<name>Pan</name>
								<parameterid>pan</parameterid>
								<valuemin>-1</valuemin>
								<valuemax>1</valuemax>
								<value>-1</value>
							</parameter>
						</effect>
					</filter>
					<sourcetrack>
						<mediatype>audio</mediatype>
						<trackindex>1</trackindex>
					</sourcetrack>
					<link>
						<linkclipref>OllieNormanDad000 </linkclipref>
						<mediatype>video</mediatype>
						<trackindex>3</trackindex>
						<clipindex>1</clipindex>
					</link>
					<link>
						<linkclipref>OllieNormanDad000 2</linkclipref>
						<mediatype>audio</mediatype>
						<trackindex>3</trackindex>
						<clipindex>1</clipindex>
						<groupindex>1</groupindex>
					</link>
					<link>
						<linkclipref>OllieNormanDad000 3</linkclipref>
						<mediatype>audio</mediatype>
						<trackindex>4</trackindex>
						<clipindex>1</clipindex>
						<groupindex>1</groupindex>
					</link>
					<itemhistory>
						<uuid>556FEA9F-D161-44F7-B852-CACEBD4CD846</uuid>
						<uuid>12C9BEBC-20BD-426B-AD42-5AFBE412A1CC</uuid>
					</itemhistory>
				</clipitem>
				<enabled>TRUE</enabled>
				<locked>FALSE</locked>
				<outputchannelindex>1</outputchannelindex>
			</track>
			<track>
				<clipitem id="OllieNormanDad000 3">
					<name>OllieNormanDad000</name>
					<duration>1284</duration>
					<rate>
						<ntsc>FALSE</ntsc>
						<timebase>25</timebase>
					</rate>
					<in>0</in>
					<out>1284</out>
					<start>0</start>
					<end>1284</end>
					<subframeoffset>0</subframeoffset>
					<logginginfo>
						<scene/>
						<shottake/>
						<lognote/>
						<good>FALSE</good>
					</logginginfo>
					<labels>
						<label2/>
					</labels>
					<comments>
						<mastercomment1/>
						<mastercomment2/>
						<mastercomment3/>
						<mastercomment4/>
					</comments>
					<file id="OllieNormanDad000 1"/>
					<filter>
						<effect>
							<name>Audio Levels</name>
							<effectid>audiolevels</effectid>
							<effectcategory>audiolevels</effectcategory>
							<effecttype>audiolevels</effecttype>
							<mediatype>audio</mediatype>
							<parameter>
								<name>Level</name>
								<parameterid>level</parameterid>
								<valuemin>0</valuemin>
								<valuemax>3.98109</valuemax>
								<value>1</value>
							</parameter>
						</effect>
					</filter>
					<filter>
						<effect>
							<name>Audio Pan</name>
							<effectid>audiopan</effectid>
							<effectcategory>audiopan</effectcategory>
							<effecttype>audiopan</effecttype>
							<mediatype>audio</mediatype>
							<parameter>
								<name>Pan</name>
								<parameterid>pan</parameterid>
								<valuemin>-1</valuemin>
								<valuemax>1</valuemax>
								<value>1</value>
							</parameter>
						</effect>
					</filter>
					<sourcetrack>
						<mediatype>audio</mediatype>
						<trackindex>2</trackindex>
					</sourcetrack>
					<link>
						<linkclipref>OllieNormanDad000 </linkclipref>
						<mediatype>video</mediatype>
						<trackindex>3</trackindex>
						<clipindex>1</clipindex>
					</link>
					<link>
						<linkclipref>OllieNormanDad000 2</linkclipref>
						<mediatype>audio</mediatype>
						<trackindex>3</trackindex>
						<clipindex>1</clipindex>
						<groupindex>1</groupindex>
					</link>
					<link>
						<linkclipref>OllieNormanDad000 3</linkclipref>
						<mediatype>audio</mediatype>
						<trackindex>4</trackindex>
						<clipindex>1</clipindex>
						<groupindex>1</groupindex>
					</link>
					<itemhistory>
						<uuid>9931D8A8-1555-4660-A31D-B795A232CF20</uuid>
						<uuid>528A0469-5B23-421A-96D6-E220C8CE1A04</uuid>
					</itemhistory>
				</clipitem>
				<enabled>TRUE</enabled>
				<locked>FALSE</locked>
				<outputchannelindex>2</outputchannelindex>
			</track>
			<track>
				<clipitem id="Michael002 2">
					<name>Michael002</name>
					<duration>540</duration>
					<rate>
						<ntsc>FALSE</ntsc>
						<timebase>25</timebase>
					</rate>
					<in>0</in>
					<out>540</out>
					<start>622</start>
					<end>1162</end>
					<logginginfo>
						<scene/>
						<shottake/>
						<lognote/>
						<good>FALSE</good>
					</logginginfo>
					<labels>
						<label2/>
					</labels>
					<comments>
						<mastercomment1/>
						<mastercomment2/>
						<mastercomment3/>
						<mastercomment4/>
					</comments>
					<file id="Michael002 1"/>
					<filter>
						<effect>
							<name>Audio Levels</name>
							<effectid>audiolevels</effectid>
							<effectcategory>audiolevels</effectcategory>
							<effecttype>audiolevels</effecttype>
							<mediatype>audio</mediatype>
							<parameter>
								<name>Level</name>
								<parameterid>level</parameterid>
								<valuemin>0</valuemin>
								<valuemax>3.98109</valuemax>
								<value>1</value>
							</parameter>
						</effect>
					</filter>
					<filter>
						<effect>
							<name>Audio Pan</name>
							<effectid>audiopan</effectid>
							<effectcategory>audiopan</effectcategory>
							<effecttype>audiopan</effecttype>
							<mediatype>audio</mediatype>
							<parameter>
								<name>Pan</name>
								<parameterid>pan</parameterid>
								<valuemin>-1</valuemin>
								<valuemax>1</valuemax>
								<value>-1</value>
							</parameter>
						</effect>
					</filter>
					<sourcetrack>
						<mediatype>audio</mediatype>
						<trackindex>1</trackindex>
					</sourcetrack>
					<link>
						<linkclipref>Michael002 </linkclipref>
						<mediatype>video</mediatype>
						<trackindex>4</trackindex>
						<clipindex>1</clipindex>
					</link>
					<link>
						<linkclipref>Michael002 2</linkclipref>
						<mediatype>audio</mediatype>
						<trackindex>5</trackindex>
						<clipindex>1</clipindex>
						<groupindex>1</groupindex>
					</link>
					<link>
						<linkclipref>Michael002 3</linkclipref>
						<mediatype>audio</mediatype>
						<trackindex>6</trackindex>
						<clipindex>1</clipindex>
						<groupindex>1</groupindex>
					</link>
					<itemhistory>
						<uuid>BE3EF9B6-C6AB-41AC-9B4E-E294B601B926</uuid>
						<uuid>E28623F8-23AF-4278-B9F7-F3649D7680ED</uuid>
					</itemhistory>
				</clipitem>
				<clipitem id="Michael003 2">
					<name>Michael003</name>
					<duration>228</duration>
					<rate>
						<ntsc>FALSE</ntsc>
						<timebase>25</timebase>
					</rate>
					<in>0</in>
					<out>228</out>
					<start>1162</start>
					<end>1390</end>
					<logginginfo>
						<scene/>
						<shottake/>
						<lognote/>
						<good>FALSE</good>
					</logginginfo>
					<labels>
						<label2/>
					</labels>
					<comments>
						<mastercomment1/>
						<mastercomment2/>
						<mastercomment3/>
						<mastercomment4/>
					</comments>
					<file id="Michael003 1"/>
					<filter>
						<effect>
							<name>Audio Levels</name>
							<effectid>audiolevels</effectid>
							<effectcategory>audiolevels</effectcategory>
							<effecttype>audiolevels</effecttype>
							<mediatype>audio</mediatype>
							<parameter>
								<name>Level</name>
								<parameterid>level</parameterid>
								<valuemin>0</valuemin>
								<valuemax>3.98109</valuemax>
								<value>1</value>
							</parameter>
						</effect>
					</filter>
					<filter>
						<effect>
							<name>Audio Pan</name>
							<effectid>audiopan</effectid>
							<effectcategory>audiopan</effectcategory>
							<effecttype>audiopan</effecttype>
							<mediatype>audio</mediatype>
							<parameter>
								<name>Pan</name>
								<parameterid>pan</parameterid>
								<valuemin>-1</valuemin>
								<valuemax>1</valuemax>
								<value>-1</value>
							</parameter>
						</effect>
					</filter>
					<sourcetrack>
						<mediatype>audio</mediatype>
						<trackindex>1</trackindex>
					</sourcetrack>
					<link>
						<linkclipref>Michael003 </linkclipref>
						<mediatype>video</mediatype>
						<trackindex>4</trackindex>
						<clipindex>2</clipindex>
					</link>
					<link>
						<linkclipref>Michael003 2</linkclipref>
						<mediatype>audio</mediatype>
						<trackindex>5</trackindex>
						<clipindex>2</clipindex>
						<groupindex>1</groupindex>
					</link>
					<link>
						<linkclipref>Michael003 3</linkclipref>
						<mediatype>audio</mediatype>
						<trackindex>6</trackindex>
						<clipindex>2</clipindex>
						<groupindex>1</groupindex>
					</link>
					<itemhistory>
						<uuid>50AB581C-AE6C-4B08-9C31-EBA35985A66B</uuid>
						<uuid>20BD5176-A917-4DA8-A4CF-00059E62FBC3</uuid>
					</itemhistory>
				</clipitem>
				<clipitem id="Michael004 2">
					<name>Michael004</name>
					<duration>192</duration>
					<rate>
						<ntsc>FALSE</ntsc>
						<timebase>25</timebase>
					</rate>
					<in>0</in>
					<out>192</out>
					<start>1390</start>
					<end>1582</end>
					<logginginfo>
						<scene/>
						<shottake/>
						<lognote/>
						<good>FALSE</good>
					</logginginfo>
					<labels>
						<label2/>
					</labels>
					<comments>
						<mastercomment1/>
						<mastercomment2/>
						<mastercomment3/>
						<mastercomment4/>
					</comments>
					<file id="Michael004 1"/>
					<filter>
						<effect>
							<name>Audio Levels</name>
							<effectid>audiolevels</effectid>
							<effectcategory>audiolevels</effectcategory>
							<effecttype>audiolevels</effecttype>
							<mediatype>audio</mediatype>
							<parameter>
								<name>Level</name>
								<parameterid>level</parameterid>
								<valuemin>0</valuemin>
								<valuemax>3.98109</valuemax>
								<value>1</value>
							</parameter>
						</effect>
					</filter>
					<filter>
						<effect>
							<name>Audio Pan</name>
							<effectid>audiopan</effectid>
							<effectcategory>audiopan</effectcategory>
							<effecttype>audiopan</effecttype>
							<mediatype>audio</mediatype>
							<parameter>
								<name>Pan</name>
								<parameterid>pan</parameterid>
								<valuemin>-1</valuemin>
								<valuemax>1</valuemax>
								<value>-1</value>
							</parameter>
						</effect>
					</filter>
					<sourcetrack>
						<mediatype>audio</mediatype>
						<trackindex>1</trackindex>
					</sourcetrack>
					<link>
						<linkclipref>Michael004 </linkclipref>
						<mediatype>video</mediatype>
						<trackindex>4</trackindex>
						<clipindex>3</clipindex>
					</link>
					<link>
						<linkclipref>Michael004 2</linkclipref>
						<mediatype>audio</mediatype>
						<trackindex>5</trackindex>
						<clipindex>3</clipindex>
						<groupindex>1</groupindex>
					</link>
					<link>
						<linkclipref>Michael004 3</linkclipref>
						<mediatype>audio</mediatype>
						<trackindex>6</trackindex>
						<clipindex>3</clipindex>
						<groupindex>1</groupindex>
					</link>
					<itemhistory>
						<uuid>2C1EE3A2-E953-473A-A446-8643DF895969</uuid>
						<uuid>26098CFE-1BB5-414B-83E2-9D174CC1740D</uuid>
					</itemhistory>
				</clipitem>
				<clipitem id="Michael005Subclipa2">
					<name>Michael005Subclipa</name>
					<duration>285</duration>
					<rate>
						<ntsc>FALSE</ntsc>
						<timebase>25</timebase>
					</rate>
					<in>0</in>
					<out>285</out>
					<start>1582</start>
					<end>1867</end>
					<logginginfo>
						<scene/>
						<shottake/>
						<lognote/>
						<good>FALSE</good>
					</logginginfo>
					<labels>
						<label2/>
					</labels>
					<comments>
						<mastercomment1/>
						<mastercomment2/>
						<mastercomment3/>
						<mastercomment4/>
					</comments>
					<file id="Michael005Subclipa1"/>
					<filter>
						<effect>
							<name>Audio Levels</name>
							<effectid>audiolevels</effectid>
							<effectcategory>audiolevels</effectcategory>
							<effecttype>audiolevels</effecttype>
							<mediatype>audio</mediatype>
							<parameter>
								<name>Level</name>
								<parameterid>level</parameterid>
								<valuemin>0</valuemin>
								<valuemax>3.98109</valuemax>
								<value>1</value>
							</parameter>
						</effect>
					</filter>
					<filter>
						<effect>
							<name>Audio Pan</name>
							<effectid>audiopan</effectid>
							<effectcategory>audiopan</effectcategory>
							<effecttype>audiopan</effecttype>
							<mediatype>audio</mediatype>
							<parameter>
								<name>Pan</name>
								<parameterid>pan</parameterid>
								<valuemin>-1</valuemin>
								<valuemax>1</valuemax>
								<value>-1</value>
							</parameter>
						</effect>
					</filter>
					<sourcetrack>
						<mediatype>audio</mediatype>
						<trackindex>1</trackindex>
					</sourcetrack>
					<link>
						<linkclipref>Michael005Subclipa</linkclipref>
						<mediatype>video</mediatype>
						<trackindex>4</trackindex>
						<clipindex>4</clipindex>
					</link>
					<link>
						<linkclipref>Michael005Subclipa2</linkclipref>
						<mediatype>audio</mediatype>
						<trackindex>5</trackindex>
						<clipindex>4</clipindex>
						<groupindex>1</groupindex>
					</link>
					<link>
						<linkclipref>Michael005Subclipa3</linkclipref>
						<mediatype>audio</mediatype>
						<trackindex>6</trackindex>
						<clipindex>4</clipindex>
						<groupindex>1</groupindex>
					</link>
					<itemhistory>
						<uuid>450B1E5A-B269-4D8B-BF45-7603656ABFC8</uuid>
						<uuid>B2784BD5-9300-4998-BEDC-D7200EA0F84C</uuid>
					</itemhistory>
				</clipitem>
				<clipitem id="Michael005Subclipb2">
					<name>Michael005Subclipb</name>
					<duration>196</duration>
					<rate>
						<ntsc>FALSE</ntsc>
						<timebase>25</timebase>
					</rate>
					<in>0</in>
					<out>196</out>
					<start>1867</start>
					<end>2063</end>
					<logginginfo>
						<scene/>
						<shottake/>
						<lognote/>
						<good>FALSE</good>
					</logginginfo>
					<labels>
						<label2/>
					</labels>
					<comments>
						<mastercomment1/>
						<mastercomment2/>
						<mastercomment3/>
						<mastercomment4/>
					</comments>
					<file id="Michael005Subclipb1"/>
					<filter>
						<effect>
							<name>Audio Levels</name>
							<effectid>audiolevels</effectid>
							<effectcategory>audiolevels</effectcategory>
							<effecttype>audiolevels</effecttype>
							<mediatype>audio</mediatype>
							<parameter>
								<name>Level</name>
								<parameterid>level</parameterid>
								<valuemin>0</valuemin>
								<valuemax>3.98109</valuemax>
								<value>1</value>
							</parameter>
						</effect>
					</filter>
					<filter>
						<effect>
							<name>Audio Pan</name>
							<effectid>audiopan</effectid>
							<effectcategory>audiopan</effectcategory>
							<effecttype>audiopan</effecttype>
							<mediatype>audio</mediatype>
							<parameter>
								<name>Pan</name>
								<parameterid>pan</parameterid>
								<valuemin>-1</valuemin>
								<valuemax>1</valuemax>
								<value>-1</value>
							</parameter>
						</effect>
					</filter>
					<sourcetrack>
						<mediatype>audio</mediatype>
						<trackindex>1</trackindex>
					</sourcetrack>
					<link>
						<linkclipref>Michael005Subclipb</linkclipref>
						<mediatype>video</mediatype>
						<trackindex>4</trackindex>
						<clipindex>5</clipindex>
					</link>
					<link>
						<linkclipref>Michael005Subclipb2</linkclipref>
						<mediatype>audio</mediatype>
						<trackindex>5</trackindex>
						<clipindex>5</clipindex>
						<groupindex>1</groupindex>
					</link>
					<link>
						<linkclipref>Michael005Subclipb3</linkclipref>
						<mediatype>audio</mediatype>
						<trackindex>6</trackindex>
						<clipindex>5</clipindex>
						<groupindex>1</groupindex>
					</link>
					<itemhistory>
						<uuid>6D12F60C-5787-4894-AF92-31FA888D99ED</uuid>
						<uuid>D0C4B80A-00AE-4CC2-899C-02BEDC10C83C</uuid>
					</itemhistory>
				</clipitem>
				<clipitem id="Michael006Subclipa2">
					<name>Michael006Subclipa</name>
					<duration>370</duration>
					<rate>
						<ntsc>FALSE</ntsc>
						<timebase>25</timebase>
					</rate>
					<in>0</in>
					<out>370</out>
					<start>3590</start>
					<end>3960</end>
					<logginginfo>
						<scene/>
						<shottake/>
						<lognote/>
						<good>FALSE</good>
					</logginginfo>
					<labels>
						<label2/>
					</labels>
					<comments>
						<mastercomment1/>
						<mastercomment2/>
						<mastercomment3/>
						<mastercomment4/>
					</comments>
					<file id="Michael006Subclipa1"/>
					<filter>
						<effect>
							<name>Audio Levels</name>
							<effectid>audiolevels</effectid>
							<effectcategory>audiolevels</effectcategory>
							<effecttype>audiolevels</effecttype>
							<mediatype>audio</mediatype>
							<parameter>
								<name>Level</name>
								<parameterid>level</parameterid>
								<valuemin>0</valuemin>
								<valuemax>3.98109</valuemax>
								<value>1</value>
							</parameter>
						</effect>
					</filter>
					<filter>
						<effect>
							<name>Audio Pan</name>
							<effectid>audiopan</effectid>
							<effectcategory>audiopan</effectcategory>
							<effecttype>audiopan</effecttype>
							<mediatype>audio</mediatype>
							<parameter>
								<name>Pan</name>
								<parameterid>pan</parameterid>
								<valuemin>-1</valuemin>
								<valuemax>1</valuemax>
								<value>-1</value>
							</parameter>
						</effect>
					</filter>
					<sourcetrack>
						<mediatype>audio</mediatype>
						<trackindex>1</trackindex>
					</sourcetrack>
					<link>
						<linkclipref>Michael006Subclipa</linkclipref>
						<mediatype>video</mediatype>
						<trackindex>4</trackindex>
						<clipindex>6</clipindex>
					</link>
					<link>
						<linkclipref>Michael006Subclipa2</linkclipref>
						<mediatype>audio</mediatype>
						<trackindex>5</trackindex>
						<clipindex>6</clipindex>
						<groupindex>1</groupindex>
					</link>
					<link>
						<linkclipref>Michael006Subclipa3</linkclipref>
						<mediatype>audio</mediatype>
						<trackindex>6</trackindex>
						<clipindex>6</clipindex>
						<groupindex>1</groupindex>
					</link>
					<itemhistory>
						<uuid>2257CE28-92E5-47E3-87C0-72DA41354A93</uuid>
						<uuid>54C83AE3-EB8A-4A2B-A3C9-7B1770212DD4</uuid>
					</itemhistory>
				</clipitem>
				<clipitem id="Michael006Subclipb2">
					<name>Michael006Subclipb</name>
					<duration>231</duration>
					<rate>
						<ntsc>FALSE</ntsc>
						<timebase>25</timebase>
					</rate>
					<in>0</in>
					<out>231</out>
					<start>3960</start>
					<end>4191</end>
					<logginginfo>
						<scene/>
						<shottake/>
						<lognote/>
						<good>FALSE</good>
					</logginginfo>
					<labels>
						<label2/>
					</labels>
					<comments>
						<mastercomment1/>
						<mastercomment2/>
						<mastercomment3/>
						<mastercomment4/>
					</comments>
					<file id="Michael006Subclipb1"/>
					<filter>
						<effect>
							<name>Audio Levels</name>
							<effectid>audiolevels</effectid>
							<effectcategory>audiolevels</effectcategory>
							<effecttype>audiolevels</effecttype>
							<mediatype>audio</mediatype>
							<parameter>
								<name>Level</name>
								<parameterid>level</parameterid>
								<valuemin>0</valuemin>
								<valuemax>3.98109</valuemax>
								<value>1</value>
							</parameter>
						</effect>
					</filter>
					<filter>
						<effect>
							<name>Audio Pan</name>
							<effectid>audiopan</effectid>
							<effectcategory>audiopan</effectcategory>
							<effecttype>audiopan</effecttype>
							<mediatype>audio</mediatype>
							<parameter>
								<name>Pan</name>
								<parameterid>pan</parameterid>
								<valuemin>-1</valuemin>
								<valuemax>1</valuemax>
								<value>-1</value>
							</parameter>
						</effect>
					</filter>
					<sourcetrack>
						<mediatype>audio</mediatype>
						<trackindex>1</trackindex>
					</sourcetrack>
					<link>
						<linkclipref>Michael006Subclipb</linkclipref>
						<mediatype>video</mediatype>
						<trackindex>4</trackindex>
						<clipindex>7</clipindex>
					</link>
					<link>
						<linkclipref>Michael006Subclipb2</linkclipref>
						<mediatype>audio</mediatype>
						<trackindex>5</trackindex>
						<clipindex>7</clipindex>
						<groupindex>1</groupindex>
					</link>
					<link>
						<linkclipref>Michael006Subclipb3</linkclipref>
						<mediatype>audio</mediatype>
						<trackindex>6</trackindex>
						<clipindex>7</clipindex>
						<groupindex>1</groupindex>
					</link>
					<itemhistory>
						<uuid>1268C8D0-0811-42F8-816C-E63BA8AD819A</uuid>
						<uuid>24257A50-79F6-4D66-8F49-D2FD1352AEF0</uuid>
					</itemhistory>
				</clipitem>
				<clipitem id="Michael007 2">
					<name>Michael007</name>
					<duration>132</duration>
					<rate>
						<ntsc>FALSE</ntsc>
						<timebase>25</timebase>
					</rate>
					<in>0</in>
					<out>132</out>
					<start>4191</start>
					<end>4323</end>
					<logginginfo>
						<scene/>
						<shottake/>
						<lognote/>
						<good>FALSE</good>
					</logginginfo>
					<labels>
						<label2/>
					</labels>
					<comments>
						<mastercomment1/>
						<mastercomment2/>
						<mastercomment3/>
						<mastercomment4/>
					</comments>
					<file id="Michael007 1"/>
					<filter>
						<effect>
							<name>Audio Levels</name>
							<effectid>audiolevels</effectid>
							<effectcategory>audiolevels</effectcategory>
							<effecttype>audiolevels</effecttype>
							<mediatype>audio</mediatype>
							<parameter>
								<name>Level</name>
								<parameterid>level</parameterid>
								<valuemin>0</valuemin>
								<valuemax>3.98109</valuemax>
								<value>1</value>
							</parameter>
						</effect>
					</filter>
					<filter>
						<effect>
							<name>Audio Pan</name>
							<effectid>audiopan</effectid>
							<effectcategory>audiopan</effectcategory>
							<effecttype>audiopan</effecttype>
							<mediatype>audio</mediatype>
							<parameter>
								<name>Pan</name>
								<parameterid>pan</parameterid>
								<valuemin>-1</valuemin>
								<valuemax>1</valuemax>
								<value>-1</value>
							</parameter>
						</effect>
					</filter>
					<sourcetrack>
						<mediatype>audio</mediatype>
						<trackindex>1</trackindex>
					</sourcetrack>
					<link>
						<linkclipref>Michael007 </linkclipref>
						<mediatype>video</mediatype>
						<trackindex>4</trackindex>
						<clipindex>8</clipindex>
					</link>
					<link>
						<linkclipref>Michael007 2</linkclipref>
						<mediatype>audio</mediatype>
						<trackindex>5</trackindex>
						<clipindex>8</clipindex>
						<groupindex>1</groupindex>
					</link>
					<link>
						<linkclipref>Michael007 3</linkclipref>
						<mediatype>audio</mediatype>
						<trackindex>6</trackindex>
						<clipindex>8</clipindex>
						<groupindex>1</groupindex>
					</link>
					<itemhistory>
						<uuid>206F9E90-D436-4268-AA5E-6094FD06484B</uuid>
						<uuid>A0E08CF5-DD73-44A7-B3FC-1DE18A304023</uuid>
					</itemhistory>
				</clipitem>
				<clipitem id="Michael008 2">
					<name>Michael008</name>
					<duration>168</duration>
					<rate>
						<ntsc>FALSE</ntsc>
						<timebase>25</timebase>
					</rate>
					<in>0</in>
					<out>168</out>
					<start>4323</start>
					<end>4491</end>
					<logginginfo>
						<scene/>
						<shottake/>
						<lognote/>
						<good>FALSE</good>
					</logginginfo>
					<labels>
						<label2/>
					</labels>
					<comments>
						<mastercomment1/>
						<mastercomment2/>
						<mastercomment3/>
						<mastercomment4/>
					</comments>
					<file id="Michael008 1"/>
					<filter>
						<effect>
							<name>Audio Levels</name>
							<effectid>audiolevels</effectid>
							<effectcategory>audiolevels</effectcategory>
							<effecttype>audiolevels</effecttype>
							<mediatype>audio</mediatype>
							<parameter>
								<name>Level</name>
								<parameterid>level</parameterid>
								<valuemin>0</valuemin>
								<valuemax>3.98109</valuemax>
								<value>1</value>
							</parameter>
						</effect>
					</filter>
					<filter>
						<effect>
							<name>Audio Pan</name>
							<effectid>audiopan</effectid>
							<effectcategory>audiopan</effectcategory>
							<effecttype>audiopan</effecttype>
							<mediatype>audio</mediatype>
							<parameter>
								<name>Pan</name>
								<parameterid>pan</parameterid>
								<valuemin>-1</valuemin>
								<valuemax>1</valuemax>
								<value>-1</value>
							</parameter>
						</effect>
					</filter>
					<sourcetrack>
						<mediatype>audio</mediatype>
						<trackindex>1</trackindex>
					</sourcetrack>
					<link>
						<linkclipref>Michael008 </linkclipref>
						<mediatype>video</mediatype>
						<trackindex>4</trackindex>
						<clipindex>9</clipindex>
					</link>
					<link>
						<linkclipref>Michael008 2</linkclipref>
						<mediatype>audio</mediatype>
						<trackindex>5</trackindex>
						<clipindex>9</clipindex>
						<groupindex>1</groupindex>
					</link>
					<link>
						<linkclipref>Michael008 3</linkclipref>
						<mediatype>audio</mediatype>
						<trackindex>6</trackindex>
						<clipindex>9</clipindex>
						<groupindex>1</groupindex>
					</link>
					<itemhistory>
						<uuid>AD907734-1871-4CC6-AD1F-96963C57F35D</uuid>
						<uuid>538C1D93-94F1-4C34-B256-5FE7B94CB888</uuid>
					</itemhistory>
				</clipitem>
				<clipitem id="Michael009 2">
					<name>Michael009</name>
					<duration>180</duration>
					<rate>
						<ntsc>FALSE</ntsc>
						<timebase>25</timebase>
					</rate>
					<in>0</in>
					<out>180</out>
					<start>4491</start>
					<end>4671</end>
					<logginginfo>
						<scene/>
						<shottake/>
						<lognote/>
						<good>FALSE</good>
					</logginginfo>
					<labels>
						<label2/>
					</labels>
					<comments>
						<mastercomment1/>
						<mastercomment2/>
						<mastercomment3/>
						<mastercomment4/>
					</comments>
					<file id="Michael009 1"/>
					<filter>
						<effect>
							<name>Audio Levels</name>
							<effectid>audiolevels</effectid>
							<effectcategory>audiolevels</effectcategory>
							<effecttype>audiolevels</effecttype>
							<mediatype>audio</mediatype>
							<parameter>
								<name>Level</name>
								<parameterid>level</parameterid>
								<valuemin>0</valuemin>
								<valuemax>3.98109</valuemax>
								<value>1</value>
							</parameter>
						</effect>
					</filter>
					<filter>
						<effect>
							<name>Audio Pan</name>
							<effectid>audiopan</effectid>
							<effectcategory>audiopan</effectcategory>
							<effecttype>audiopan</effecttype>
							<mediatype>audio</mediatype>
							<parameter>
								<name>Pan</name>
								<parameterid>pan</parameterid>
								<valuemin>-1</valuemin>
								<valuemax>1</valuemax>
								<value>-1</value>
							</parameter>
						</effect>
					</filter>
					<sourcetrack>
						<mediatype>audio</mediatype>
						<trackindex>1</trackindex>
					</sourcetrack>
					<link>
						<linkclipref>Michael009 </linkclipref>
						<mediatype>video</mediatype>
						<trackindex>4</trackindex>
						<clipindex>10</clipindex>
					</link>
					<link>
						<linkclipref>Michael009 2</linkclipref>
						<mediatype>audio</mediatype>
						<trackindex>5</trackindex>
						<clipindex>10</clipindex>
						<groupindex>1</groupindex>
					</link>
					<link>
						<linkclipref>Michael009 3</linkclipref>
						<mediatype>audio</mediatype>
						<trackindex>6</trackindex>
						<clipindex>10</clipindex>
						<groupindex>1</groupindex>
					</link>
					<itemhistory>
						<uuid>2CE2D6EC-BCEF-4DE8-BD61-C6BC26D0F2E5</uuid>
						<uuid>20F39908-3C0C-465B-A790-81890745B74E</uuid>
					</itemhistory>
				</clipitem>
				<clipitem id="Michael010 2">
					<name>Michael010</name>
					<duration>168</duration>
					<rate>
						<ntsc>FALSE</ntsc>
						<timebase>25</timebase>
					</rate>
					<in>0</in>
					<out>168</out>
					<start>4671</start>
					<end>4839</end>
					<logginginfo>
						<scene/>
						<shottake/>
						<lognote/>
						<good>FALSE</good>
					</logginginfo>
					<labels>
						<label2/>
					</labels>
					<comments>
						<mastercomment1/>
						<mastercomment2/>
						<mastercomment3/>
						<mastercomment4/>
					</comments>
					<file id="Michael010 1"/>
					<filter>
						<effect>
							<name>Audio Levels</name>
							<effectid>audiolevels</effectid>
							<effectcategory>audiolevels</effectcategory>
							<effecttype>audiolevels</effecttype>
							<mediatype>audio</mediatype>
							<parameter>
								<name>Level</name>
								<parameterid>level</parameterid>
								<valuemin>0</valuemin>
								<valuemax>3.98109</valuemax>
								<value>1</value>
							</parameter>
						</effect>
					</filter>
					<filter>
						<effect>
							<name>Audio Pan</name>
							<effectid>audiopan</effectid>
							<effectcategory>audiopan</effectcategory>
							<effecttype>audiopan</effecttype>
							<mediatype>audio</mediatype>
							<parameter>
								<name>Pan</name>
								<parameterid>pan</parameterid>
								<valuemin>-1</valuemin>
								<valuemax>1</valuemax>
								<value>-1</value>
							</parameter>
						</effect>
					</filter>
					<sourcetrack>
						<mediatype>audio</mediatype>
						<trackindex>1</trackindex>
					</sourcetrack>
					<link>
						<linkclipref>Michael010 </linkclipref>
						<mediatype>video</mediatype>
						<trackindex>4</trackindex>
						<clipindex>11</clipindex>
					</link>
					<link>
						<linkclipref>Michael010 2</linkclipref>
						<mediatype>audio</mediatype>
						<trackindex>5</trackindex>
						<clipindex>11</clipindex>
						<groupindex>1</groupindex>
					</link>
					<link>
						<linkclipref>Michael010 3</linkclipref>
						<mediatype>audio</mediatype>
						<trackindex>6</trackindex>
						<clipindex>11</clipindex>
						<groupindex>1</groupindex>
					</link>
					<itemhistory>
						<uuid>F1B21A5B-C7DD-4830-B1ED-CEB17F309B61</uuid>
						<uuid>FBCE5669-42CD-4FE0-85FD-D10817431D83</uuid>
					</itemhistory>
				</clipitem>
				<clipitem id="Michael011 2">
					<name>Michael011</name>
					<duration>228</duration>
					<rate>
						<ntsc>FALSE</ntsc>
						<timebase>25</timebase>
					</rate>
					<in>0</in>
					<out>228</out>
					<start>5810</start>
					<end>6038</end>
					<logginginfo>
						<scene/>
						<shottake/>
						<lognote/>
						<good>FALSE</good>
					</logginginfo>
					<labels>
						<label2/>
					</labels>
					<comments>
						<mastercomment1/>
						<mastercomment2/>
						<mastercomment3/>
						<mastercomment4/>
					</comments>
					<file id="Michael011 1"/>
					<filter>
						<effect>
							<name>Audio Levels</name>
							<effectid>audiolevels</effectid>
							<effectcategory>audiolevels</effectcategory>
							<effecttype>audiolevels</effecttype>
							<mediatype>audio</mediatype>
							<parameter>
								<name>Level</name>
								<parameterid>level</parameterid>
								<valuemin>0</valuemin>
								<valuemax>3.98109</valuemax>
								<value>1</value>
							</parameter>
						</effect>
					</filter>
					<filter>
						<effect>
							<name>Audio Pan</name>
							<effectid>audiopan</effectid>
							<effectcategory>audiopan</effectcategory>
							<effecttype>audiopan</effecttype>
							<mediatype>audio</mediatype>
							<parameter>
								<name>Pan</name>
								<parameterid>pan</parameterid>
								<valuemin>-1</valuemin>
								<valuemax>1</valuemax>
								<value>-1</value>
							</parameter>
						</effect>
					</filter>
					<sourcetrack>
						<mediatype>audio</mediatype>
						<trackindex>1</trackindex>
					</sourcetrack>
					<link>
						<linkclipref>Michael011 </linkclipref>
						<mediatype>video</mediatype>
						<trackindex>4</trackindex>
						<clipindex>12</clipindex>
					</link>
					<link>
						<linkclipref>Michael011 2</linkclipref>
						<mediatype>audio</mediatype>
						<trackindex>5</trackindex>
						<clipindex>12</clipindex>
						<groupindex>1</groupindex>
					</link>
					<link>
						<linkclipref>Michael011 3</linkclipref>
						<mediatype>audio</mediatype>
						<trackindex>6</trackindex>
						<clipindex>12</clipindex>
						<groupindex>1</groupindex>
					</link>
					<itemhistory>
						<uuid>56E4AE4D-F457-4501-9B83-FFFA52E121AC</uuid>
						<uuid>82BF09FD-B897-4174-8BE9-738B37F19A8D</uuid>
					</itemhistory>
				</clipitem>
				<clipitem id="Michael012 2">
					<name>Michael012</name>
					<duration>180</duration>
					<rate>
						<ntsc>FALSE</ntsc>
						<timebase>25</timebase>
					</rate>
					<in>0</in>
					<out>180</out>
					<start>6038</start>
					<end>6218</end>
					<logginginfo>
						<scene/>
						<shottake/>
						<lognote/>
						<good>FALSE</good>
					</logginginfo>
					<labels>
						<label2/>
					</labels>
					<comments>
						<mastercomment1/>
						<mastercomment2/>
						<mastercomment3/>
						<mastercomment4/>
					</comments>
					<file id="Michael012 1"/>
					<filter>
						<effect>
							<name>Audio Levels</name>
							<effectid>audiolevels</effectid>
							<effectcategory>audiolevels</effectcategory>
							<effecttype>audiolevels</effecttype>
							<mediatype>audio</mediatype>
							<parameter>
								<name>Level</name>
								<parameterid>level</parameterid>
								<valuemin>0</valuemin>
								<valuemax>3.98109</valuemax>
								<value>1</value>
							</parameter>
						</effect>
					</filter>
					<filter>
						<effect>
							<name>Audio Pan</name>
							<effectid>audiopan</effectid>
							<effectcategory>audiopan</effectcategory>
							<effecttype>audiopan</effecttype>
							<mediatype>audio</mediatype>
							<parameter>
								<name>Pan</name>
								<parameterid>pan</parameterid>
								<valuemin>-1</valuemin>
								<valuemax>1</valuemax>
								<value>-1</value>
							</parameter>
						</effect>
					</filter>
					<sourcetrack>
						<mediatype>audio</mediatype>
						<trackindex>1</trackindex>
					</sourcetrack>
					<link>
						<linkclipref>Michael012 </linkclipref>
						<mediatype>video</mediatype>
						<trackindex>4</trackindex>
						<clipindex>13</clipindex>
					</link>
					<link>
						<linkclipref>Michael012 2</linkclipref>
						<mediatype>audio</mediatype>
						<trackindex>5</trackindex>
						<clipindex>13</clipindex>
						<groupindex>1</groupindex>
					</link>
					<link>
						<linkclipref>Michael012 3</linkclipref>
						<mediatype>audio</mediatype>
						<trackindex>6</trackindex>
						<clipindex>13</clipindex>
						<groupindex>1</groupindex>
					</link>
					<itemhistory>
						<uuid>455869A6-746B-483C-9899-2D3A90753D1F</uuid>
						<uuid>0FCE1138-6A83-45FD-ACAA-B42C1083FEAA</uuid>
					</itemhistory>
				</clipitem>
				<clipitem id="Michael013 2">
					<name>Michael013</name>
					<duration>324</duration>
					<rate>
						<ntsc>FALSE</ntsc>
						<timebase>25</timebase>
					</rate>
					<in>0</in>
					<out>324</out>
					<start>6218</start>
					<end>6542</end>
					<logginginfo>
						<scene/>
						<shottake/>
						<lognote/>
						<good>FALSE</good>
					</logginginfo>
					<labels>
						<label2/>
					</labels>
					<comments>
						<mastercomment1/>
						<mastercomment2/>
						<mastercomment3/>
						<mastercomment4/>
					</comments>
					<file id="Michael013 1"/>
					<filter>
						<effect>
							<name>Audio Levels</name>
							<effectid>audiolevels</effectid>
							<effectcategory>audiolevels</effectcategory>
							<effecttype>audiolevels</effecttype>
							<mediatype>audio</mediatype>
							<parameter>
								<name>Level</name>
								<parameterid>level</parameterid>
								<valuemin>0</valuemin>
								<valuemax>3.98109</valuemax>
								<value>1</value>
							</parameter>
						</effect>
					</filter>
					<filter>
						<effect>
							<name>Audio Pan</name>
							<effectid>audiopan</effectid>
							<effectcategory>audiopan</effectcategory>
							<effecttype>audiopan</effecttype>
							<mediatype>audio</mediatype>
							<parameter>
								<name>Pan</name>
								<parameterid>pan</parameterid>
								<valuemin>-1</valuemin>
								<valuemax>1</valuemax>
								<value>-1</value>
							</parameter>
						</effect>
					</filter>
					<sourcetrack>
						<mediatype>audio</mediatype>
						<trackindex>1</trackindex>
					</sourcetrack>
					<link>
						<linkclipref>Michael013 </linkclipref>
						<mediatype>video</mediatype>
						<trackindex>4</trackindex>
						<clipindex>14</clipindex>
					</link>
					<link>
						<linkclipref>Michael013 2</linkclipref>
						<mediatype>audio</mediatype>
						<trackindex>5</trackindex>
						<clipindex>14</clipindex>
						<groupindex>1</groupindex>
					</link>
					<link>
						<linkclipref>Michael013 3</linkclipref>
						<mediatype>audio</mediatype>
						<trackindex>6</trackindex>
						<clipindex>14</clipindex>
						<groupindex>1</groupindex>
					</link>
					<itemhistory>
						<uuid>AFAC05DB-EBD5-4E57-96A7-C4FB21DB4188</uuid>
						<uuid>9D607D6F-13A4-4341-B153-6F52399F0780</uuid>
					</itemhistory>
				</clipitem>
				<clipitem id="Michael014 2">
					<name>Michael014</name>
					<duration>228</duration>
					<rate>
						<ntsc>FALSE</ntsc>
						<timebase>25</timebase>
					</rate>
					<in>0</in>
					<out>228</out>
					<start>6542</start>
					<end>6770</end>
					<logginginfo>
						<scene/>
						<shottake/>
						<lognote/>
						<good>FALSE</good>
					</logginginfo>
					<labels>
						<label2/>
					</labels>
					<comments>
						<mastercomment1/>
						<mastercomment2/>
						<mastercomment3/>
						<mastercomment4/>
					</comments>
					<file id="Michael014 1"/>
					<filter>
						<effect>
							<name>Audio Levels</name>
							<effectid>audiolevels</effectid>
							<effectcategory>audiolevels</effectcategory>
							<effecttype>audiolevels</effecttype>
							<mediatype>audio</mediatype>
							<parameter>
								<name>Level</name>
								<parameterid>level</parameterid>
								<valuemin>0</valuemin>
								<valuemax>3.98109</valuemax>
								<value>1</value>
							</parameter>
						</effect>
					</filter>
					<filter>
						<effect>
							<name>Audio Pan</name>
							<effectid>audiopan</effectid>
							<effectcategory>audiopan</effectcategory>
							<effecttype>audiopan</effecttype>
							<mediatype>audio</mediatype>
							<parameter>
								<name>Pan</name>
								<parameterid>pan</parameterid>
								<valuemin>-1</valuemin>
								<valuemax>1</valuemax>
								<value>-1</value>
							</parameter>
						</effect>
					</filter>
					<sourcetrack>
						<mediatype>audio</mediatype>
						<trackindex>1</trackindex>
					</sourcetrack>
					<link>
						<linkclipref>Michael014 </linkclipref>
						<mediatype>video</mediatype>
						<trackindex>4</trackindex>
						<clipindex>15</clipindex>
					</link>
					<link>
						<linkclipref>Michael014 2</linkclipref>
						<mediatype>audio</mediatype>
						<trackindex>5</trackindex>
						<clipindex>15</clipindex>
						<groupindex>1</groupindex>
					</link>
					<link>
						<linkclipref>Michael014 3</linkclipref>
						<mediatype>audio</mediatype>
						<trackindex>6</trackindex>
						<clipindex>15</clipindex>
						<groupindex>1</groupindex>
					</link>
					<itemhistory>
						<uuid>5E590DB9-3EE8-492C-9472-03DD2CE9E96D</uuid>
						<uuid>34C9AE63-4C51-4CBF-B983-0954F41CB775</uuid>
					</itemhistory>
				</clipitem>
				<clipitem id="Michael015 2">
					<name>Michael015</name>
					<duration>216</duration>
					<rate>
						<ntsc>FALSE</ntsc>
						<timebase>25</timebase>
					</rate>
					<in>0</in>
					<out>216</out>
					<start>7786</start>
					<end>8002</end>
					<logginginfo>
						<scene/>
						<shottake/>
						<lognote/>
						<good>FALSE</good>
					</logginginfo>
					<labels>
						<label2/>
					</labels>
					<comments>
						<mastercomment1/>
						<mastercomment2/>
						<mastercomment3/>
						<mastercomment4/>
					</comments>
					<file id="Michael015 1"/>
					<filter>
						<effect>
							<name>Audio Levels</name>
							<effectid>audiolevels</effectid>
							<effectcategory>audiolevels</effectcategory>
							<effecttype>audiolevels</effecttype>
							<mediatype>audio</mediatype>
							<parameter>
								<name>Level</name>
								<parameterid>level</parameterid>
								<valuemin>0</valuemin>
								<valuemax>3.98109</valuemax>
								<value>1</value>
							</parameter>
						</effect>
					</filter>
					<filter>
						<effect>
							<name>Audio Pan</name>
							<effectid>audiopan</effectid>
							<effectcategory>audiopan</effectcategory>
							<effecttype>audiopan</effecttype>
							<mediatype>audio</mediatype>
							<parameter>
								<name>Pan</name>
								<parameterid>pan</parameterid>
								<valuemin>-1</valuemin>
								<valuemax>1</valuemax>
								<value>-1</value>
							</parameter>
						</effect>
					</filter>
					<sourcetrack>
						<mediatype>audio</mediatype>
						<trackindex>1</trackindex>
					</sourcetrack>
					<link>
						<linkclipref>Michael015 </linkclipref>
						<mediatype>video</mediatype>
						<trackindex>4</trackindex>
						<clipindex>16</clipindex>
					</link>
					<link>
						<linkclipref>Michael015 2</linkclipref>
						<mediatype>audio</mediatype>
						<trackindex>5</trackindex>
						<clipindex>16</clipindex>
						<groupindex>1</groupindex>
					</link>
					<link>
						<linkclipref>Michael015 3</linkclipref>
						<mediatype>audio</mediatype>
						<trackindex>6</trackindex>
						<clipindex>16</clipindex>
						<groupindex>1</groupindex>
					</link>
					<itemhistory>
						<uuid>4BACC632-9173-4ED7-80AA-DD7CECD21BA4</uuid>
						<uuid>4193B822-DBEF-445B-8D89-76EB1A3C2954</uuid>
					</itemhistory>
				</clipitem>
				<clipitem id="Michael016 2">
					<name>Michael016</name>
					<duration>276</duration>
					<rate>
						<ntsc>FALSE</ntsc>
						<timebase>25</timebase>
					</rate>
					<in>0</in>
					<out>276</out>
					<start>8002</start>
					<end>8278</end>
					<logginginfo>
						<scene/>
						<shottake/>
						<lognote/>
						<good>FALSE</good>
					</logginginfo>
					<labels>
						<label2/>
					</labels>
					<comments>
						<mastercomment1/>
						<mastercomment2/>
						<mastercomment3/>
						<mastercomment4/>
					</comments>
					<file id="Michael016 1"/>
					<filter>
						<effect>
							<name>Audio Levels</name>
							<effectid>audiolevels</effectid>
							<effectcategory>audiolevels</effectcategory>
							<effecttype>audiolevels</effecttype>
							<mediatype>audio</mediatype>
							<parameter>
								<name>Level</name>
								<parameterid>level</parameterid>
								<valuemin>0</valuemin>
								<valuemax>3.98109</valuemax>
								<value>1</value>
							</parameter>
						</effect>
					</filter>
					<filter>
						<effect>
							<name>Audio Pan</name>
							<effectid>audiopan</effectid>
							<effectcategory>audiopan</effectcategory>
							<effecttype>audiopan</effecttype>
							<mediatype>audio</mediatype>
							<parameter>
								<name>Pan</name>
								<parameterid>pan</parameterid>
								<valuemin>-1</valuemin>
								<valuemax>1</valuemax>
								<value>-1</value>
							</parameter>
						</effect>
					</filter>
					<sourcetrack>
						<mediatype>audio</mediatype>
						<trackindex>1</trackindex>
					</sourcetrack>
					<link>
						<linkclipref>Michael016 </linkclipref>
						<mediatype>video</mediatype>
						<trackindex>4</trackindex>
						<clipindex>17</clipindex>
					</link>
					<link>
						<linkclipref>Michael016 2</linkclipref>
						<mediatype>audio</mediatype>
						<trackindex>5</trackindex>
						<clipindex>17</clipindex>
						<groupindex>1</groupindex>
					</link>
					<link>
						<linkclipref>Michael016 3</linkclipref>
						<mediatype>audio</mediatype>
						<trackindex>6</trackindex>
						<clipindex>17</clipindex>
						<groupindex>1</groupindex>
					</link>
					<itemhistory>
						<uuid>5E0E21B4-3663-45C3-966A-BFB143AEDCE6</uuid>
						<uuid>D935517A-6BE1-40F6-8EA8-E6B92396425D</uuid>
					</itemhistory>
				</clipitem>
				<clipitem id="Michael017 2">
					<name>Michael017</name>
					<duration>204</duration>
					<rate>
						<ntsc>FALSE</ntsc>
						<timebase>25</timebase>
					</rate>
					<in>0</in>
					<out>204</out>
					<start>8278</start>
					<end>8482</end>
					<logginginfo>
						<scene/>
						<shottake/>
						<lognote/>
						<good>FALSE</good>
					</logginginfo>
					<labels>
						<label2/>
					</labels>
					<comments>
						<mastercomment1/>
						<mastercomment2/>
						<mastercomment3/>
						<mastercomment4/>
					</comments>
					<file id="Michael017 1"/>
					<filter>
						<effect>
							<name>Audio Levels</name>
							<effectid>audiolevels</effectid>
							<effectcategory>audiolevels</effectcategory>
							<effecttype>audiolevels</effecttype>
							<mediatype>audio</mediatype>
							<parameter>
								<name>Level</name>
								<parameterid>level</parameterid>
								<valuemin>0</valuemin>
								<valuemax>3.98109</valuemax>
								<value>1</value>
							</parameter>
						</effect>
					</filter>
					<filter>
						<effect>
							<name>Audio Pan</name>
							<effectid>audiopan</effectid>
							<effectcategory>audiopan</effectcategory>
							<effecttype>audiopan</effecttype>
							<mediatype>audio</mediatype>
							<parameter>
								<name>Pan</name>
								<parameterid>pan</parameterid>
								<valuemin>-1</valuemin>
								<valuemax>1</valuemax>
								<value>-1</value>
							</parameter>
						</effect>
					</filter>
					<sourcetrack>
						<mediatype>audio</mediatype>
						<trackindex>1</trackindex>
					</sourcetrack>
					<link>
						<linkclipref>Michael017 </linkclipref>
						<mediatype>video</mediatype>
						<trackindex>4</trackindex>
						<clipindex>18</clipindex>
					</link>
					<link>
						<linkclipref>Michael017 2</linkclipref>
						<mediatype>audio</mediatype>
						<trackindex>5</trackindex>
						<clipindex>18</clipindex>
						<groupindex>1</groupindex>
					</link>
					<link>
						<linkclipref>Michael017 3</linkclipref>
						<mediatype>audio</mediatype>
						<trackindex>6</trackindex>
						<clipindex>18</clipindex>
						<groupindex>1</groupindex>
					</link>
					<itemhistory>
						<uuid>AE092FEF-ADFE-4C5A-ADB7-94F2C2530809</uuid>
						<uuid>0856FDA9-2E19-4864-8B6F-E0A5A9184226</uuid>
					</itemhistory>
				</clipitem>
				<clipitem id="Michael018 2">
					<name>Michael018</name>
					<duration>240</duration>
					<rate>
						<ntsc>FALSE</ntsc>
						<timebase>25</timebase>
					</rate>
					<in>0</in>
					<out>240</out>
					<start>8482</start>
					<end>8722</end>
					<logginginfo>
						<scene/>
						<shottake/>
						<lognote/>
						<good>FALSE</good>
					</logginginfo>
					<labels>
						<label2/>
					</labels>
					<comments>
						<mastercomment1/>
						<mastercomment2/>
						<mastercomment3/>
						<mastercomment4/>
					</comments>
					<file id="Michael018 1"/>
					<filter>
						<effect>
							<name>Audio Levels</name>
							<effectid>audiolevels</effectid>
							<effectcategory>audiolevels</effectcategory>
							<effecttype>audiolevels</effecttype>
							<mediatype>audio</mediatype>
							<parameter>
								<name>Level</name>
								<parameterid>level</parameterid>
								<valuemin>0</valuemin>
								<valuemax>3.98109</valuemax>
								<value>1</value>
							</parameter>
						</effect>
					</filter>
					<filter>
						<effect>
							<name>Audio Pan</name>
							<effectid>audiopan</effectid>
							<effectcategory>audiopan</effectcategory>
							<effecttype>audiopan</effecttype>
							<mediatype>audio</mediatype>
							<parameter>
								<name>Pan</name>
								<parameterid>pan</parameterid>
								<valuemin>-1</valuemin>
								<valuemax>1</valuemax>
								<value>-1</value>
							</parameter>
						</effect>
					</filter>
					<sourcetrack>
						<mediatype>audio</mediatype>
						<trackindex>1</trackindex>
					</sourcetrack>
					<link>
						<linkclipref>Michael018 </linkclipref>
						<mediatype>video</mediatype>
						<trackindex>4</trackindex>
						<clipindex>19</clipindex>
					</link>
					<link>
						<linkclipref>Michael018 2</linkclipref>
						<mediatype>audio</mediatype>
						<trackindex>5</trackindex>
						<clipindex>19</clipindex>
						<groupindex>1</groupindex>
					</link>
					<link>
						<linkclipref>Michael018 3</linkclipref>
						<mediatype>audio</mediatype>
						<trackindex>6</trackindex>
						<clipindex>19</clipindex>
						<groupindex>1</groupindex>
					</link>
					<itemhistory>
						<uuid>92CF1B7D-26A2-47FC-89CA-45F8BA129725</uuid>
						<uuid>49282B45-6C89-4EAB-9E49-79E7B858F517</uuid>
					</itemhistory>
				</clipitem>
				<clipitem id="Michael019 2">
					<name>Michael019</name>
					<duration>312</duration>
					<rate>
						<ntsc>FALSE</ntsc>
						<timebase>25</timebase>
					</rate>
					<in>0</in>
					<out>312</out>
					<start>8722</start>
					<end>9034</end>
					<logginginfo>
						<scene/>
						<shottake/>
						<lognote/>
						<good>FALSE</good>
					</logginginfo>
					<labels>
						<label2/>
					</labels>
					<comments>
						<mastercomment1/>
						<mastercomment2/>
						<mastercomment3/>
						<mastercomment4/>
					</comments>
					<file id="Michael019 1"/>
					<filter>
						<effect>
							<name>Audio Levels</name>
							<effectid>audiolevels</effectid>
							<effectcategory>audiolevels</effectcategory>
							<effecttype>audiolevels</effecttype>
							<mediatype>audio</mediatype>
							<parameter>
								<name>Level</name>
								<parameterid>level</parameterid>
								<valuemin>0</valuemin>
								<valuemax>3.98109</valuemax>
								<value>1</value>
							</parameter>
						</effect>
					</filter>
					<filter>
						<effect>
							<name>Audio Pan</name>
							<effectid>audiopan</effectid>
							<effectcategory>audiopan</effectcategory>
							<effecttype>audiopan</effecttype>
							<mediatype>audio</mediatype>
							<parameter>
								<name>Pan</name>
								<parameterid>pan</parameterid>
								<valuemin>-1</valuemin>
								<valuemax>1</valuemax>
								<value>-1</value>
							</parameter>
						</effect>
					</filter>
					<sourcetrack>
						<mediatype>audio</mediatype>
						<trackindex>1</trackindex>
					</sourcetrack>
					<link>
						<linkclipref>Michael019 </linkclipref>
						<mediatype>video</mediatype>
						<trackindex>4</trackindex>
						<clipindex>20</clipindex>
					</link>
					<link>
						<linkclipref>Michael019 2</linkclipref>
						<mediatype>audio</mediatype>
						<trackindex>5</trackindex>
						<clipindex>20</clipindex>
						<groupindex>1</groupindex>
					</link>
					<link>
						<linkclipref>Michael019 3</linkclipref>
						<mediatype>audio</mediatype>
						<trackindex>6</trackindex>
						<clipindex>20</clipindex>
						<groupindex>1</groupindex>
					</link>
					<itemhistory>
						<uuid>41CCB628-901D-41DB-8275-CD901A600770</uuid>
						<uuid>BDAFFBFB-87F4-48FC-9642-641DE36812CD</uuid>
					</itemhistory>
				</clipitem>
				<clipitem id="Michael020 2">
					<name>Michael020</name>
					<duration>300</duration>
					<rate>
						<ntsc>FALSE</ntsc>
						<timebase>25</timebase>
					</rate>
					<in>0</in>
					<out>300</out>
					<start>9034</start>
					<end>9334</end>
					<logginginfo>
						<scene/>
						<shottake/>
						<lognote/>
						<good>FALSE</good>
					</logginginfo>
					<labels>
						<label2/>
					</labels>
					<comments>
						<mastercomment1/>
						<mastercomment2/>
						<mastercomment3/>
						<mastercomment4/>
					</comments>
					<file id="Michael020 1"/>
					<filter>
						<effect>
							<name>Audio Levels</name>
							<effectid>audiolevels</effectid>
							<effectcategory>audiolevels</effectcategory>
							<effecttype>audiolevels</effecttype>
							<mediatype>audio</mediatype>
							<parameter>
								<name>Level</name>
								<parameterid>level</parameterid>
								<valuemin>0</valuemin>
								<valuemax>3.98109</valuemax>
								<value>1</value>
							</parameter>
						</effect>
					</filter>
					<filter>
						<effect>
							<name>Audio Pan</name>
							<effectid>audiopan</effectid>
							<effectcategory>audiopan</effectcategory>
							<effecttype>audiopan</effecttype>
							<mediatype>audio</mediatype>
							<parameter>
								<name>Pan</name>
								<parameterid>pan</parameterid>
								<valuemin>-1</valuemin>
								<valuemax>1</valuemax>
								<value>-1</value>
							</parameter>
						</effect>
					</filter>
					<sourcetrack>
						<mediatype>audio</mediatype>
						<trackindex>1</trackindex>
					</sourcetrack>
					<link>
						<linkclipref>Michael020 </linkclipref>
						<mediatype>video</mediatype>
						<trackindex>4</trackindex>
						<clipindex>21</clipindex>
					</link>
					<link>
						<linkclipref>Michael020 2</linkclipref>
						<mediatype>audio</mediatype>
						<trackindex>5</trackindex>
						<clipindex>21</clipindex>
						<groupindex>1</groupindex>
					</link>
					<link>
						<linkclipref>Michael020 3</linkclipref>
						<mediatype>audio</mediatype>
						<trackindex>6</trackindex>
						<clipindex>21</clipindex>
						<groupindex>1</groupindex>
					</link>
					<itemhistory>
						<uuid>9F323E57-DD7A-43CD-B172-6A7F42E57543</uuid>
						<uuid>647E47ED-532F-423A-A222-EB7B61D40524</uuid>
					</itemhistory>
				</clipitem>
				<clipitem id="Michael021 2">
					<name>Michael021</name>
					<duration>192</duration>
					<rate>
						<ntsc>FALSE</ntsc>
						<timebase>25</timebase>
					</rate>
					<in>0</in>
					<out>192</out>
					<start>9334</start>
					<end>9526</end>
					<logginginfo>
						<scene/>
						<shottake/>
						<lognote/>
						<good>FALSE</good>
					</logginginfo>
					<labels>
						<label2/>
					</labels>
					<comments>
						<mastercomment1/>
						<mastercomment2/>
						<mastercomment3/>
						<mastercomment4/>
					</comments>
					<file id="Michael021 1"/>
					<filter>
						<effect>
							<name>Audio Levels</name>
							<effectid>audiolevels</effectid>
							<effectcategory>audiolevels</effectcategory>
							<effecttype>audiolevels</effecttype>
							<mediatype>audio</mediatype>
							<parameter>
								<name>Level</name>
								<parameterid>level</parameterid>
								<valuemin>0</valuemin>
								<valuemax>3.98109</valuemax>
								<value>1</value>
							</parameter>
						</effect>
					</filter>
					<filter>
						<effect>
							<name>Audio Pan</name>
							<effectid>audiopan</effectid>
							<effectcategory>audiopan</effectcategory>
							<effecttype>audiopan</effecttype>
							<mediatype>audio</mediatype>
							<parameter>
								<name>Pan</name>
								<parameterid>pan</parameterid>
								<valuemin>-1</valuemin>
								<valuemax>1</valuemax>
								<value>-1</value>
							</parameter>
						</effect>
					</filter>
					<sourcetrack>
						<mediatype>audio</mediatype>
						<trackindex>1</trackindex>
					</sourcetrack>
					<link>
						<linkclipref>Michael021 </linkclipref>
						<mediatype>video</mediatype>
						<trackindex>4</trackindex>
						<clipindex>22</clipindex>
					</link>
					<link>
						<linkclipref>Michael021 2</linkclipref>
						<mediatype>audio</mediatype>
						<trackindex>5</trackindex>
						<clipindex>22</clipindex>
						<groupindex>1</groupindex>
					</link>
					<link>
						<linkclipref>Michael021 3</linkclipref>
						<mediatype>audio</mediatype>
						<trackindex>6</trackindex>
						<clipindex>22</clipindex>
						<groupindex>1</groupindex>
					</link>
					<itemhistory>
						<uuid>A6242431-611F-482E-8D01-A8CCC385E436</uuid>
						<uuid>B56CFE69-E7D1-4762-B674-0C14527D9BCD</uuid>
					</itemhistory>
				</clipitem>
				<clipitem id="Michael022 2">
					<name>Michael022</name>
					<duration>828</duration>
					<rate>
						<ntsc>FALSE</ntsc>
						<timebase>25</timebase>
					</rate>
					<in>0</in>
					<out>828</out>
					<start>9526</start>
					<end>10354</end>
					<logginginfo>
						<scene/>
						<shottake/>
						<lognote/>
						<good>FALSE</good>
					</logginginfo>
					<labels>
						<label2/>
					</labels>
					<comments>
						<mastercomment1/>
						<mastercomment2/>
						<mastercomment3/>
						<mastercomment4/>
					</comments>
					<file id="Michael022 1"/>
					<filter>
						<effect>
							<name>Audio Levels</name>
							<effectid>audiolevels</effectid>
							<effectcategory>audiolevels</effectcategory>
							<effecttype>audiolevels</effecttype>
							<mediatype>audio</mediatype>
							<parameter>
								<name>Level</name>
								<parameterid>level</parameterid>
								<valuemin>0</valuemin>
								<valuemax>3.98109</valuemax>
								<value>1</value>
							</parameter>
						</effect>
					</filter>
					<filter>
						<effect>
							<name>Audio Pan</name>
							<effectid>audiopan</effectid>
							<effectcategory>audiopan</effectcategory>
							<effecttype>audiopan</effecttype>
							<mediatype>audio</mediatype>
							<parameter>
								<name>Pan</name>
								<parameterid>pan</parameterid>
								<valuemin>-1</valuemin>
								<valuemax>1</valuemax>
								<value>-1</value>
							</parameter>
						</effect>
					</filter>
					<sourcetrack>
						<mediatype>audio</mediatype>
						<trackindex>1</trackindex>
					</sourcetrack>
					<link>
						<linkclipref>Michael022 </linkclipref>
						<mediatype>video</mediatype>
						<trackindex>4</trackindex>
						<clipindex>23</clipindex>
					</link>
					<link>
						<linkclipref>Michael022 2</linkclipref>
						<mediatype>audio</mediatype>
						<trackindex>5</trackindex>
						<clipindex>23</clipindex>
						<groupindex>1</groupindex>
					</link>
					<link>
						<linkclipref>Michael022 3</linkclipref>
						<mediatype>audio</mediatype>
						<trackindex>6</trackindex>
						<clipindex>23</clipindex>
						<groupindex>1</groupindex>
					</link>
					<itemhistory>
						<uuid>31A00C0F-3EDD-4992-8E94-087A373C3A8B</uuid>
						<uuid>CCA5B372-04EA-4920-8EEF-B0FA197D1925</uuid>
					</itemhistory>
				</clipitem>
				<clipitem id="Michael023 2">
					<name>Michael023</name>
					<duration>324</duration>
					<rate>
						<ntsc>FALSE</ntsc>
						<timebase>25</timebase>
					</rate>
					<in>0</in>
					<out>324</out>
					<start>10354</start>
					<end>10678</end>
					<logginginfo>
						<scene/>
						<shottake/>
						<lognote/>
						<good>FALSE</good>
					</logginginfo>
					<labels>
						<label2/>
					</labels>
					<comments>
						<mastercomment1/>
						<mastercomment2/>
						<mastercomment3/>
						<mastercomment4/>
					</comments>
					<file id="Michael023 1"/>
					<filter>
						<effect>
							<name>Audio Levels</name>
							<effectid>audiolevels</effectid>
							<effectcategory>audiolevels</effectcategory>
							<effecttype>audiolevels</effecttype>
							<mediatype>audio</mediatype>
							<parameter>
								<name>Level</name>
								<parameterid>level</parameterid>
								<valuemin>0</valuemin>
								<valuemax>3.98109</valuemax>
								<value>1</value>
							</parameter>
						</effect>
					</filter>
					<filter>
						<effect>
							<name>Audio Pan</name>
							<effectid>audiopan</effectid>
							<effectcategory>audiopan</effectcategory>
							<effecttype>audiopan</effecttype>
							<mediatype>audio</mediatype>
							<parameter>
								<name>Pan</name>
								<parameterid>pan</parameterid>
								<valuemin>-1</valuemin>
								<valuemax>1</valuemax>
								<value>-1</value>
							</parameter>
						</effect>
					</filter>
					<sourcetrack>
						<mediatype>audio</mediatype>
						<trackindex>1</trackindex>
					</sourcetrack>
					<link>
						<linkclipref>Michael023 </linkclipref>
						<mediatype>video</mediatype>
						<trackindex>4</trackindex>
						<clipindex>24</clipindex>
					</link>
					<link>
						<linkclipref>Michael023 2</linkclipref>
						<mediatype>audio</mediatype>
						<trackindex>5</trackindex>
						<clipindex>24</clipindex>
						<groupindex>1</groupindex>
					</link>
					<link>
						<linkclipref>Michael023 3</linkclipref>
						<mediatype>audio</mediatype>
						<trackindex>6</trackindex>
						<clipindex>24</clipindex>
						<groupindex>1</groupindex>
					</link>
					<itemhistory>
						<uuid>AF6A1E18-2C88-4F03-902D-5C0AD5344A6D</uuid>
						<uuid>1C087325-614D-4304-8F36-30524D94EA0D</uuid>
					</itemhistory>
				</clipitem>
				<clipitem id="Michael099 2">
					<name>Michael099</name>
					<duration>720</duration>
					<rate>
						<ntsc>FALSE</ntsc>
						<timebase>25</timebase>
					</rate>
					<in>0</in>
					<out>720</out>
					<start>132108</start>
					<end>132828</end>
					<logginginfo>
						<scene/>
						<shottake/>
						<lognote/>
						<good>FALSE</good>
					</logginginfo>
					<labels>
						<label2/>
					</labels>
					<comments>
						<mastercomment1/>
						<mastercomment2/>
						<mastercomment3/>
						<mastercomment4/>
					</comments>
					<file id="Michael099 1"/>
					<filter>
						<effect>
							<name>Audio Levels</name>
							<effectid>audiolevels</effectid>
							<effectcategory>audiolevels</effectcategory>
							<effecttype>audiolevels</effecttype>
							<mediatype>audio</mediatype>
							<parameter>
								<name>Level</name>
								<parameterid>level</parameterid>
								<valuemin>0</valuemin>
								<valuemax>3.98109</valuemax>
								<value>1</value>
							</parameter>
						</effect>
					</filter>
					<filter>
						<effect>
							<name>Audio Pan</name>
							<effectid>audiopan</effectid>
							<effectcategory>audiopan</effectcategory>
							<effecttype>audiopan</effecttype>
							<mediatype>audio</mediatype>
							<parameter>
								<name>Pan</name>
								<parameterid>pan</parameterid>
								<valuemin>-1</valuemin>
								<valuemax>1</valuemax>
								<value>-1</value>
							</parameter>
						</effect>
					</filter>
					<sourcetrack>
						<mediatype>audio</mediatype>
						<trackindex>1</trackindex>
					</sourcetrack>
					<link>
						<linkclipref>Michael099 </linkclipref>
						<mediatype>video</mediatype>
						<trackindex>4</trackindex>
						<clipindex>115</clipindex>
					</link>
					<link>
						<linkclipref>Michael099 2</linkclipref>
						<mediatype>audio</mediatype>
						<trackindex>5</trackindex>
						<clipindex>25</clipindex>
						<groupindex>1</groupindex>
					</link>
					<link>
						<linkclipref>Michael099 3</linkclipref>
						<mediatype>audio</mediatype>
						<trackindex>6</trackindex>
						<clipindex>25</clipindex>
						<groupindex>1</groupindex>
					</link>
					<itemhistory>
						<uuid>1D8414EF-FFE2-40FC-B7B5-03B8668E523A</uuid>
						<uuid>D0A19C29-A1F8-4DC4-932A-357D9592B358</uuid>
					</itemhistory>
				</clipitem>
				<clipitem id="Michael100 2">
					<name>Michael100</name>
					<duration>276</duration>
					<rate>
						<ntsc>FALSE</ntsc>
						<timebase>25</timebase>
					</rate>
					<in>0</in>
					<out>276</out>
					<start>132828</start>
					<end>133104</end>
					<logginginfo>
						<scene/>
						<shottake/>
						<lognote/>
						<good>FALSE</good>
					</logginginfo>
					<labels>
						<label2/>
					</labels>
					<comments>
						<mastercomment1/>
						<mastercomment2/>
						<mastercomment3/>
						<mastercomment4/>
					</comments>
					<file id="Michael100 1"/>
					<filter>
						<effect>
							<name>Audio Levels</name>
							<effectid>audiolevels</effectid>
							<effectcategory>audiolevels</effectcategory>
							<effecttype>audiolevels</effecttype>
							<mediatype>audio</mediatype>
							<parameter>
								<name>Level</name>
								<parameterid>level</parameterid>
								<valuemin>0</valuemin>
								<valuemax>3.98109</valuemax>
								<value>1</value>
							</parameter>
						</effect>
					</filter>
					<filter>
						<effect>
							<name>Audio Pan</name>
							<effectid>audiopan</effectid>
							<effectcategory>audiopan</effectcategory>
							<effecttype>audiopan</effecttype>
							<mediatype>audio</mediatype>
							<parameter>
								<name>Pan</name>
								<parameterid>pan</parameterid>
								<valuemin>-1</valuemin>
								<valuemax>1</valuemax>
								<value>-1</value>
							</parameter>
						</effect>
					</filter>
					<sourcetrack>
						<mediatype>audio</mediatype>
						<trackindex>1</trackindex>
					</sourcetrack>
					<link>
						<linkclipref>Michael100 </linkclipref>
						<mediatype>video</mediatype>
						<trackindex>4</trackindex>
						<clipindex>116</clipindex>
					</link>
					<link>
						<linkclipref>Michael100 2</linkclipref>
						<mediatype>audio</mediatype>
						<trackindex>5</trackindex>
						<clipindex>26</clipindex>
						<groupindex>1</groupindex>
					</link>
					<link>
						<linkclipref>Michael100 3</linkclipref>
						<mediatype>audio</mediatype>
						<trackindex>6</trackindex>
						<clipindex>26</clipindex>
						<groupindex>1</groupindex>
					</link>
					<itemhistory>
						<uuid>8168883C-2F9A-4974-AAA6-2BC73FA6EDFF</uuid>
						<uuid>640AC09F-DC8E-4CE1-9914-72325877D9A2</uuid>
					</itemhistory>
				</clipitem>
				<clipitem id="Michael101 2">
					<name>Michael101</name>
					<duration>444</duration>
					<rate>
						<ntsc>FALSE</ntsc>
						<timebase>25</timebase>
					</rate>
					<in>0</in>
					<out>444</out>
					<start>133104</start>
					<end>133548</end>
					<logginginfo>
						<scene/>
						<shottake/>
						<lognote/>
						<good>FALSE</good>
					</logginginfo>
					<labels>
						<label2/>
					</labels>
					<comments>
						<mastercomment1/>
						<mastercomment2/>
						<mastercomment3/>
						<mastercomment4/>
					</comments>
					<file id="Michael101 1"/>
					<filter>
						<effect>
							<name>Audio Levels</name>
							<effectid>audiolevels</effectid>
							<effectcategory>audiolevels</effectcategory>
							<effecttype>audiolevels</effecttype>
							<mediatype>audio</mediatype>
							<parameter>
								<name>Level</name>
								<parameterid>level</parameterid>
								<valuemin>0</valuemin>
								<valuemax>3.98109</valuemax>
								<value>1</value>
							</parameter>
						</effect>
					</filter>
					<filter>
						<effect>
							<name>Audio Pan</name>
							<effectid>audiopan</effectid>
							<effectcategory>audiopan</effectcategory>
							<effecttype>audiopan</effecttype>
							<mediatype>audio</mediatype>
							<parameter>
								<name>Pan</name>
								<parameterid>pan</parameterid>
								<valuemin>-1</valuemin>
								<valuemax>1</valuemax>
								<value>-1</value>
							</parameter>
						</effect>
					</filter>
					<sourcetrack>
						<mediatype>audio</mediatype>
						<trackindex>1</trackindex>
					</sourcetrack>
					<link>
						<linkclipref>Michael101 </linkclipref>
						<mediatype>video</mediatype>
						<trackindex>4</trackindex>
						<clipindex>117</clipindex>
					</link>
					<link>
						<linkclipref>Michael101 2</linkclipref>
						<mediatype>audio</mediatype>
						<trackindex>5</trackindex>
						<clipindex>27</clipindex>
						<groupindex>1</groupindex>
					</link>
					<link>
						<linkclipref>Michael101 3</linkclipref>
						<mediatype>audio</mediatype>
						<trackindex>6</trackindex>
						<clipindex>27</clipindex>
						<groupindex>1</groupindex>
					</link>
					<itemhistory>
						<uuid>03276FD7-5B2A-49EC-A11E-24EE244B7AA4</uuid>
						<uuid>381C2D7F-EBF6-457B-9D94-65AB08D2B294</uuid>
					</itemhistory>
				</clipitem>
				<clipitem id="Michael102 2">
					<name>Michael102</name>
					<duration>312</duration>
					<rate>
						<ntsc>FALSE</ntsc>
						<timebase>25</timebase>
					</rate>
					<in>0</in>
					<out>312</out>
					<start>133548</start>
					<end>133860</end>
					<logginginfo>
						<scene/>
						<shottake/>
						<lognote/>
						<good>FALSE</good>
					</logginginfo>
					<labels>
						<label2/>
					</labels>
					<comments>
						<mastercomment1/>
						<mastercomment2/>
						<mastercomment3/>
						<mastercomment4/>
					</comments>
					<file id="Michael102 1"/>
					<filter>
						<effect>
							<name>Audio Levels</name>
							<effectid>audiolevels</effectid>
							<effectcategory>audiolevels</effectcategory>
							<effecttype>audiolevels</effecttype>
							<mediatype>audio</mediatype>
							<parameter>
								<name>Level</name>
								<parameterid>level</parameterid>
								<valuemin>0</valuemin>
								<valuemax>3.98109</valuemax>
								<value>1</value>
							</parameter>
						</effect>
					</filter>
					<filter>
						<effect>
							<name>Audio Pan</name>
							<effectid>audiopan</effectid>
							<effectcategory>audiopan</effectcategory>
							<effecttype>audiopan</effecttype>
							<mediatype>audio</mediatype>
							<parameter>
								<name>Pan</name>
								<parameterid>pan</parameterid>
								<valuemin>-1</valuemin>
								<valuemax>1</valuemax>
								<value>-1</value>
							</parameter>
						</effect>
					</filter>
					<sourcetrack>
						<mediatype>audio</mediatype>
						<trackindex>1</trackindex>
					</sourcetrack>
					<link>
						<linkclipref>Michael102 </linkclipref>
						<mediatype>video</mediatype>
						<trackindex>4</trackindex>
						<clipindex>118</clipindex>
					</link>
					<link>
						<linkclipref>Michael102 2</linkclipref>
						<mediatype>audio</mediatype>
						<trackindex>5</trackindex>
						<clipindex>28</clipindex>
						<groupindex>1</groupindex>
					</link>
					<link>
						<linkclipref>Michael102 3</linkclipref>
						<mediatype>audio</mediatype>
						<trackindex>6</trackindex>
						<clipindex>28</clipindex>
						<groupindex>1</groupindex>
					</link>
					<itemhistory>
						<uuid>AF98B85D-6D09-44D8-8121-7995A71E88FF</uuid>
						<uuid>694D14DC-18D8-430D-AFE5-60F00C068E1D</uuid>
					</itemhistory>
				</clipitem>
				<clipitem id="Michael103 2">
					<name>Michael103</name>
					<duration>264</duration>
					<rate>
						<ntsc>FALSE</ntsc>
						<timebase>25</timebase>
					</rate>
					<in>0</in>
					<out>264</out>
					<start>133860</start>
					<end>134124</end>
					<logginginfo>
						<scene/>
						<shottake/>
						<lognote/>
						<good>FALSE</good>
					</logginginfo>
					<labels>
						<label2/>
					</labels>
					<comments>
						<mastercomment1/>
						<mastercomment2/>
						<mastercomment3/>
						<mastercomment4/>
					</comments>
					<file id="Michael103 1"/>
					<filter>
						<effect>
							<name>Audio Levels</name>
							<effectid>audiolevels</effectid>
							<effectcategory>audiolevels</effectcategory>
							<effecttype>audiolevels</effecttype>
							<mediatype>audio</mediatype>
							<parameter>
								<name>Level</name>
								<parameterid>level</parameterid>
								<valuemin>0</valuemin>
								<valuemax>3.98109</valuemax>
								<value>1</value>
							</parameter>
						</effect>
					</filter>
					<filter>
						<effect>
							<name>Audio Pan</name>
							<effectid>audiopan</effectid>
							<effectcategory>audiopan</effectcategory>
							<effecttype>audiopan</effecttype>
							<mediatype>audio</mediatype>
							<parameter>
								<name>Pan</name>
								<parameterid>pan</parameterid>
								<valuemin>-1</valuemin>
								<valuemax>1</valuemax>
								<value>-1</value>
							</parameter>
						</effect>
					</filter>
					<sourcetrack>
						<mediatype>audio</mediatype>
						<trackindex>1</trackindex>
					</sourcetrack>
					<link>
						<linkclipref>Michael103 </linkclipref>
						<mediatype>video</mediatype>
						<trackindex>4</trackindex>
						<clipindex>119</clipindex>
					</link>
					<link>
						<linkclipref>Michael103 2</linkclipref>
						<mediatype>audio</mediatype>
						<trackindex>5</trackindex>
						<clipindex>29</clipindex>
						<groupindex>1</groupindex>
					</link>
					<link>
						<linkclipref>Michael103 3</linkclipref>
						<mediatype>audio</mediatype>
						<trackindex>6</trackindex>
						<clipindex>29</clipindex>
						<groupindex>1</groupindex>
					</link>
					<itemhistory>
						<uuid>FCBC5A06-CA4D-4268-B3D2-973EBB66F512</uuid>
						<uuid>5B4F3A71-7AFF-4A90-A6E5-C179B283D525</uuid>
					</itemhistory>
				</clipitem>
				<clipitem id="Michael104Subclipa2">
					<name>Michael104Subclipa</name>
					<duration>249</duration>
					<rate>
						<ntsc>FALSE</ntsc>
						<timebase>25</timebase>
					</rate>
					<in>0</in>
					<out>249</out>
					<start>134124</start>
					<end>134373</end>
					<logginginfo>
						<scene/>
						<shottake/>
						<lognote/>
						<good>FALSE</good>
					</logginginfo>
					<labels>
						<label2/>
					</labels>
					<comments>
						<mastercomment1/>
						<mastercomment2/>
						<mastercomment3/>
						<mastercomment4/>
					</comments>
					<file id="Michael104Subclipa1"/>
					<filter>
						<effect>
							<name>Audio Levels</name>
							<effectid>audiolevels</effectid>
							<effectcategory>audiolevels</effectcategory>
							<effecttype>audiolevels</effecttype>
							<mediatype>audio</mediatype>
							<parameter>
								<name>Level</name>
								<parameterid>level</parameterid>
								<valuemin>0</valuemin>
								<valuemax>3.98109</valuemax>
								<value>1</value>
							</parameter>
						</effect>
					</filter>
					<filter>
						<effect>
							<name>Audio Pan</name>
							<effectid>audiopan</effectid>
							<effectcategory>audiopan</effectcategory>
							<effecttype>audiopan</effecttype>
							<mediatype>audio</mediatype>
							<parameter>
								<name>Pan</name>
								<parameterid>pan</parameterid>
								<valuemin>-1</valuemin>
								<valuemax>1</valuemax>
								<value>-1</value>
							</parameter>
						</effect>
					</filter>
					<sourcetrack>
						<mediatype>audio</mediatype>
						<trackindex>1</trackindex>
					</sourcetrack>
					<link>
						<linkclipref>Michael104Subclipa</linkclipref>
						<mediatype>video</mediatype>
						<trackindex>4</trackindex>
						<clipindex>120</clipindex>
					</link>
					<link>
						<linkclipref>Michael104Subclipa2</linkclipref>
						<mediatype>audio</mediatype>
						<trackindex>5</trackindex>
						<clipindex>30</clipindex>
						<groupindex>1</groupindex>
					</link>
					<link>
						<linkclipref>Michael104Subclipa3</linkclipref>
						<mediatype>audio</mediatype>
						<trackindex>6</trackindex>
						<clipindex>30</clipindex>
						<groupindex>1</groupindex>
					</link>
					<itemhistory>
						<uuid>0A764962-C64A-430F-BE39-6F479D6F333A</uuid>
						<uuid>A6B9B2C0-FD36-4B9C-A5C9-D7D4327CE761</uuid>
					</itemhistory>
				</clipitem>
				<clipitem id="Michael104Subclipb2">
					<name>Michael104Subclipb</name>
					<duration>503</duration>
					<rate>
						<ntsc>FALSE</ntsc>
						<timebase>25</timebase>
					</rate>
					<in>0</in>
					<out>503</out>
					<start>134373</start>
					<end>134876</end>
					<logginginfo>
						<scene/>
						<shottake/>
						<lognote/>
						<good>FALSE</good>
					</logginginfo>
					<labels>
						<label2/>
					</labels>
					<comments>
						<mastercomment1/>
						<mastercomment2/>
						<mastercomment3/>
						<mastercomment4/>
					</comments>
					<file id="Michael104Subclipb1"/>
					<filter>
						<effect>
							<name>Audio Levels</name>
							<effectid>audiolevels</effectid>
							<effectcategory>audiolevels</effectcategory>
							<effecttype>audiolevels</effecttype>
							<mediatype>audio</mediatype>
							<parameter>
								<name>Level</name>
								<parameterid>level</parameterid>
								<valuemin>0</valuemin>
								<valuemax>3.98109</valuemax>
								<value>1</value>
							</parameter>
						</effect>
					</filter>
					<filter>
						<effect>
							<name>Audio Pan</name>
							<effectid>audiopan</effectid>
							<effectcategory>audiopan</effectcategory>
							<effecttype>audiopan</effecttype>
							<mediatype>audio</mediatype>
							<parameter>
								<name>Pan</name>
								<parameterid>pan</parameterid>
								<valuemin>-1</valuemin>
								<valuemax>1</valuemax>
								<value>-1</value>
							</parameter>
						</effect>
					</filter>
					<sourcetrack>
						<mediatype>audio</mediatype>
						<trackindex>1</trackindex>
					</sourcetrack>
					<link>
						<linkclipref>Michael104Subclipb</linkclipref>
						<mediatype>video</mediatype>
						<trackindex>4</trackindex>
						<clipindex>121</clipindex>
					</link>
					<link>
						<linkclipref>Michael104Subclipb2</linkclipref>
						<mediatype>audio</mediatype>
						<trackindex>5</trackindex>
						<clipindex>31</clipindex>
						<groupindex>1</groupindex>
					</link>
					<link>
						<linkclipref>Michael104Subclipb3</linkclipref>
						<mediatype>audio</mediatype>
						<trackindex>6</trackindex>
						<clipindex>31</clipindex>
						<groupindex>1</groupindex>
					</link>
					<itemhistory>
						<uuid>0DD7B735-A625-4033-9E40-8752D8DCAF7F</uuid>
						<uuid>4D134F1E-DC03-48CB-9460-1D40D357161C</uuid>
					</itemhistory>
				</clipitem>
				<clipitem id="Michael104Subclipc2">
					<name>Michael104Subclipc</name>
					<duration>174</duration>
					<rate>
						<ntsc>FALSE</ntsc>
						<timebase>25</timebase>
					</rate>
					<in>0</in>
					<out>174</out>
					<start>134876</start>
					<end>135050</end>
					<logginginfo>
						<scene/>
						<shottake/>
						<lognote/>
						<good>FALSE</good>
					</logginginfo>
					<labels>
						<label2/>
					</labels>
					<comments>
						<mastercomment1/>
						<mastercomment2/>
						<mastercomment3/>
						<mastercomment4/>
					</comments>
					<file id="Michael104Subclipc1"/>
					<filter>
						<effect>
							<name>Audio Levels</name>
							<effectid>audiolevels</effectid>
							<effectcategory>audiolevels</effectcategory>
							<effecttype>audiolevels</effecttype>
							<mediatype>audio</mediatype>
							<parameter>
								<name>Level</name>
								<parameterid>level</parameterid>
								<valuemin>0</valuemin>
								<valuemax>3.98109</valuemax>
								<value>1</value>
							</parameter>
						</effect>
					</filter>
					<filter>
						<effect>
							<name>Audio Pan</name>
							<effectid>audiopan</effectid>
							<effectcategory>audiopan</effectcategory>
							<effecttype>audiopan</effecttype>
							<mediatype>audio</mediatype>
							<parameter>
								<name>Pan</name>
								<parameterid>pan</parameterid>
								<valuemin>-1</valuemin>
								<valuemax>1</valuemax>
								<value>-1</value>
							</parameter>
						</effect>
					</filter>
					<sourcetrack>
						<mediatype>audio</mediatype>
						<trackindex>1</trackindex>
					</sourcetrack>
					<link>
						<linkclipref>Michael104Subclipc</linkclipref>
						<mediatype>video</mediatype>
						<trackindex>4</trackindex>
						<clipindex>122</clipindex>
					</link>
					<link>
						<linkclipref>Michael104Subclipc2</linkclipref>
						<mediatype>audio</mediatype>
						<trackindex>5</trackindex>
						<clipindex>32</clipindex>
						<groupindex>1</groupindex>
					</link>
					<link>
						<linkclipref>Michael104Subclipc3</linkclipref>
						<mediatype>audio</mediatype>
						<trackindex>6</trackindex>
						<clipindex>32</clipindex>
						<groupindex>1</groupindex>
					</link>
					<itemhistory>
						<uuid>AEFA98E9-9E2B-4F38-A869-27F607952D2C</uuid>
						<uuid>85B40E19-C927-4F26-97F0-FDD713BC4714</uuid>
					</itemhistory>
				</clipitem>
				<clipitem id="Michael105 2">
					<name>Michael105</name>
					<duration>216</duration>
					<rate>
						<ntsc>FALSE</ntsc>
						<timebase>25</timebase>
					</rate>
					<in>0</in>
					<out>216</out>
					<start>135050</start>
					<end>135266</end>
					<logginginfo>
						<scene/>
						<shottake/>
						<lognote/>
						<good>FALSE</good>
					</logginginfo>
					<labels>
						<label2/>
					</labels>
					<comments>
						<mastercomment1/>
						<mastercomment2/>
						<mastercomment3/>
						<mastercomment4/>
					</comments>
					<file id="Michael105 1"/>
					<filter>
						<effect>
							<name>Audio Levels</name>
							<effectid>audiolevels</effectid>
							<effectcategory>audiolevels</effectcategory>
							<effecttype>audiolevels</effecttype>
							<mediatype>audio</mediatype>
							<parameter>
								<name>Level</name>
								<parameterid>level</parameterid>
								<valuemin>0</valuemin>
								<valuemax>3.98109</valuemax>
								<value>1</value>
							</parameter>
						</effect>
					</filter>
					<filter>
						<effect>
							<name>Audio Pan</name>
							<effectid>audiopan</effectid>
							<effectcategory>audiopan</effectcategory>
							<effecttype>audiopan</effecttype>
							<mediatype>audio</mediatype>
							<parameter>
								<name>Pan</name>
								<parameterid>pan</parameterid>
								<valuemin>-1</valuemin>
								<valuemax>1</valuemax>
								<value>-1</value>
							</parameter>
						</effect>
					</filter>
					<sourcetrack>
						<mediatype>audio</mediatype>
						<trackindex>1</trackindex>
					</sourcetrack>
					<link>
						<linkclipref>Michael105 </linkclipref>
						<mediatype>video</mediatype>
						<trackindex>4</trackindex>
						<clipindex>123</clipindex>
					</link>
					<link>
						<linkclipref>Michael105 2</linkclipref>
						<mediatype>audio</mediatype>
						<trackindex>5</trackindex>
						<clipindex>33</clipindex>
						<groupindex>1</groupindex>
					</link>
					<link>
						<linkclipref>Michael105 3</linkclipref>
						<mediatype>audio</mediatype>
						<trackindex>6</trackindex>
						<clipindex>33</clipindex>
						<groupindex>1</groupindex>
					</link>
					<itemhistory>
						<uuid>36BA79C0-E2E5-4514-93B3-939A685004C1</uuid>
						<uuid>0D9D68BB-CC10-40E0-97CA-AEB8B7EBC3F8</uuid>
					</itemhistory>
				</clipitem>
				<clipitem id="Michael106 2">
					<name>Michael106</name>
					<duration>432</duration>
					<rate>
						<ntsc>FALSE</ntsc>
						<timebase>25</timebase>
					</rate>
					<in>0</in>
					<out>432</out>
					<start>135266</start>
					<end>135698</end>
					<logginginfo>
						<scene/>
						<shottake/>
						<lognote/>
						<good>FALSE</good>
					</logginginfo>
					<labels>
						<label2/>
					</labels>
					<comments>
						<mastercomment1/>
						<mastercomment2/>
						<mastercomment3/>
						<mastercomment4/>
					</comments>
					<file id="Michael106 1"/>
					<filter>
						<effect>
							<name>Audio Levels</name>
							<effectid>audiolevels</effectid>
							<effectcategory>audiolevels</effectcategory>
							<effecttype>audiolevels</effecttype>
							<mediatype>audio</mediatype>
							<parameter>
								<name>Level</name>
								<parameterid>level</parameterid>
								<valuemin>0</valuemin>
								<valuemax>3.98109</valuemax>
								<value>1</value>
							</parameter>
						</effect>
					</filter>
					<filter>
						<effect>
							<name>Audio Pan</name>
							<effectid>audiopan</effectid>
							<effectcategory>audiopan</effectcategory>
							<effecttype>audiopan</effecttype>
							<mediatype>audio</mediatype>
							<parameter>
								<name>Pan</name>
								<parameterid>pan</parameterid>
								<valuemin>-1</valuemin>
								<valuemax>1</valuemax>
								<value>-1</value>
							</parameter>
						</effect>
					</filter>
					<sourcetrack>
						<mediatype>audio</mediatype>
						<trackindex>1</trackindex>
					</sourcetrack>
					<link>
						<linkclipref>Michael106 </linkclipref>
						<mediatype>video</mediatype>
						<trackindex>4</trackindex>
						<clipindex>124</clipindex>
					</link>
					<link>
						<linkclipref>Michael106 2</linkclipref>
						<mediatype>audio</mediatype>
						<trackindex>5</trackindex>
						<clipindex>34</clipindex>
						<groupindex>1</groupindex>
					</link>
					<link>
						<linkclipref>Michael106 3</linkclipref>
						<mediatype>audio</mediatype>
						<trackindex>6</trackindex>
						<clipindex>34</clipindex>
						<groupindex>1</groupindex>
					</link>
					<itemhistory>
						<uuid>BBE669F1-358F-4A64-BD9A-384511B1B918</uuid>
						<uuid>8FFCEF8F-2662-4C64-9AB7-9FED9D1E8090</uuid>
					</itemhistory>
				</clipitem>
				<clipitem id="Michael107Subclipa2">
					<name>Michael107Subclipa</name>
					<duration>1179</duration>
					<rate>
						<ntsc>FALSE</ntsc>
						<timebase>25</timebase>
					</rate>
					<in>0</in>
					<out>1179</out>
					<start>135698</start>
					<end>136877</end>
					<logginginfo>
						<scene/>
						<shottake/>
						<lognote/>
						<good>FALSE</good>
					</logginginfo>
					<labels>
						<label2/>
					</labels>
					<comments>
						<mastercomment1/>
						<mastercomment2/>
						<mastercomment3/>
						<mastercomment4/>
					</comments>
					<file id="Michael107Subclipa1"/>
					<filter>
						<effect>
							<name>Audio Levels</name>
							<effectid>audiolevels</effectid>
							<effectcategory>audiolevels</effectcategory>
							<effecttype>audiolevels</effecttype>
							<mediatype>audio</mediatype>
							<parameter>
								<name>Level</name>
								<parameterid>level</parameterid>
								<valuemin>0</valuemin>
								<valuemax>3.98109</valuemax>
								<value>1</value>
							</parameter>
						</effect>
					</filter>
					<filter>
						<effect>
							<name>Audio Pan</name>
							<effectid>audiopan</effectid>
							<effectcategory>audiopan</effectcategory>
							<effecttype>audiopan</effecttype>
							<mediatype>audio</mediatype>
							<parameter>
								<name>Pan</name>
								<parameterid>pan</parameterid>
								<valuemin>-1</valuemin>
								<valuemax>1</valuemax>
								<value>-1</value>
							</parameter>
						</effect>
					</filter>
					<sourcetrack>
						<mediatype>audio</mediatype>
						<trackindex>1</trackindex>
					</sourcetrack>
					<link>
						<linkclipref>Michael107Subclipa</linkclipref>
						<mediatype>video</mediatype>
						<trackindex>4</trackindex>
						<clipindex>125</clipindex>
					</link>
					<link>
						<linkclipref>Michael107Subclipa2</linkclipref>
						<mediatype>audio</mediatype>
						<trackindex>5</trackindex>
						<clipindex>35</clipindex>
						<groupindex>1</groupindex>
					</link>
					<link>
						<linkclipref>Michael107Subclipa3</linkclipref>
						<mediatype>audio</mediatype>
						<trackindex>6</trackindex>
						<clipindex>35</clipindex>
						<groupindex>1</groupindex>
					</link>
					<itemhistory>
						<uuid>A7E4B8B3-3649-45D1-A5EB-AFD1B5F65DA6</uuid>
						<uuid>6EE0F2A0-7C6D-48CF-AC96-C21526B3A241</uuid>
					</itemhistory>
				</clipitem>
				<clipitem id="Michael107Subclipb2">
					<name>Michael107Subclipb</name>
					<duration>274</duration>
					<rate>
						<ntsc>FALSE</ntsc>
						<timebase>25</timebase>
					</rate>
					<in>0</in>
					<out>274</out>
					<start>136877</start>
					<end>137151</end>
					<logginginfo>
						<scene/>
						<shottake/>
						<lognote/>
						<good>FALSE</good>
					</logginginfo>
					<labels>
						<label2/>
					</labels>
					<comments>
						<mastercomment1/>
						<mastercomment2/>
						<mastercomment3/>
						<mastercomment4/>
					</comments>
					<file id="Michael107Subclipb1"/>
					<filter>
						<effect>
							<name>Audio Levels</name>
							<effectid>audiolevels</effectid>
							<effectcategory>audiolevels</effectcategory>
							<effecttype>audiolevels</effecttype>
							<mediatype>audio</mediatype>
							<parameter>
								<name>Level</name>
								<parameterid>level</parameterid>
								<valuemin>0</valuemin>
								<valuemax>3.98109</valuemax>
								<value>1</value>
							</parameter>
						</effect>
					</filter>
					<filter>
						<effect>
							<name>Audio Pan</name>
							<effectid>audiopan</effectid>
							<effectcategory>audiopan</effectcategory>
							<effecttype>audiopan</effecttype>
							<mediatype>audio</mediatype>
							<parameter>
								<name>Pan</name>
								<parameterid>pan</parameterid>
								<valuemin>-1</valuemin>
								<valuemax>1</valuemax>
								<value>-1</value>
							</parameter>
						</effect>
					</filter>
					<sourcetrack>
						<mediatype>audio</mediatype>
						<trackindex>1</trackindex>
					</sourcetrack>
					<link>
						<linkclipref>Michael107Subclipb</linkclipref>
						<mediatype>video</mediatype>
						<trackindex>4</trackindex>
						<clipindex>126</clipindex>
					</link>
					<link>
						<linkclipref>Michael107Subclipb2</linkclipref>
						<mediatype>audio</mediatype>
						<trackindex>5</trackindex>
						<clipindex>36</clipindex>
						<groupindex>1</groupindex>
					</link>
					<link>
						<linkclipref>Michael107Subclipb3</linkclipref>
						<mediatype>audio</mediatype>
						<trackindex>6</trackindex>
						<clipindex>36</clipindex>
						<groupindex>1</groupindex>
					</link>
					<itemhistory>
						<uuid>B40D1607-A2D0-4162-8951-23F3F1443A94</uuid>
						<uuid>B05127E2-AE1D-4D7D-B2FF-C02440533EC9</uuid>
					</itemhistory>
				</clipitem>
				<enabled>TRUE</enabled>
				<locked>FALSE</locked>
				<outputchannelindex>1</outputchannelindex>
			</track>
			<track>
				<clipitem id="Michael002 3">
					<name>Michael002</name>
					<duration>540</duration>
					<rate>
						<ntsc>FALSE</ntsc>
						<timebase>25</timebase>
					</rate>
					<in>0</in>
					<out>540</out>
					<start>622</start>
					<end>1162</end>
					<logginginfo>
						<scene/>
						<shottake/>
						<lognote/>
						<good>FALSE</good>
					</logginginfo>
					<labels>
						<label2/>
					</labels>
					<comments>
						<mastercomment1/>
						<mastercomment2/>
						<mastercomment3/>
						<mastercomment4/>
					</comments>
					<file id="Michael002 1"/>
					<filter>
						<effect>
							<name>Audio Levels</name>
							<effectid>audiolevels</effectid>
							<effectcategory>audiolevels</effectcategory>
							<effecttype>audiolevels</effecttype>
							<mediatype>audio</mediatype>
							<parameter>
								<name>Level</name>
								<parameterid>level</parameterid>
								<valuemin>0</valuemin>
								<valuemax>3.98109</valuemax>
								<value>1</value>
							</parameter>
						</effect>
					</filter>
					<filter>
						<effect>
							<name>Audio Pan</name>
							<effectid>audiopan</effectid>
							<effectcategory>audiopan</effectcategory>
							<effecttype>audiopan</effecttype>
							<mediatype>audio</mediatype>
							<parameter>
								<name>Pan</name>
								<parameterid>pan</parameterid>
								<valuemin>-1</valuemin>
								<valuemax>1</valuemax>
								<value>1</value>
							</parameter>
						</effect>
					</filter>
					<sourcetrack>
						<mediatype>audio</mediatype>
						<trackindex>2</trackindex>
					</sourcetrack>
					<link>
						<linkclipref>Michael002 </linkclipref>
						<mediatype>video</mediatype>
						<trackindex>4</trackindex>
						<clipindex>1</clipindex>
					</link>
					<link>
						<linkclipref>Michael002 2</linkclipref>
						<mediatype>audio</mediatype>
						<trackindex>5</trackindex>
						<clipindex>1</clipindex>
						<groupindex>1</groupindex>
					</link>
					<link>
						<linkclipref>Michael002 3</linkclipref>
						<mediatype>audio</mediatype>
						<trackindex>6</trackindex>
						<clipindex>1</clipindex>
						<groupindex>1</groupindex>
					</link>
					<itemhistory>
						<uuid>20348161-FC6A-47F9-AC9C-F9E5D74E1071</uuid>
						<uuid>2AF3E376-90C3-4818-81C0-F7065FD1360C</uuid>
					</itemhistory>
				</clipitem>
				<clipitem id="Michael003 3">
					<name>Michael003</name>
					<duration>228</duration>
					<rate>
						<ntsc>FALSE</ntsc>
						<timebase>25</timebase>
					</rate>
					<in>0</in>
					<out>228</out>
					<start>1162</start>
					<end>1390</end>
					<logginginfo>
						<scene/>
						<shottake/>
						<lognote/>
						<good>FALSE</good>
					</logginginfo>
					<labels>
						<label2/>
					</labels>
					<comments>
						<mastercomment1/>
						<mastercomment2/>
						<mastercomment3/>
						<mastercomment4/>
					</comments>
					<file id="Michael003 1"/>
					<filter>
						<effect>
							<name>Audio Levels</name>
							<effectid>audiolevels</effectid>
							<effectcategory>audiolevels</effectcategory>
							<effecttype>audiolevels</effecttype>
							<mediatype>audio</mediatype>
							<parameter>
								<name>Level</name>
								<parameterid>level</parameterid>
								<valuemin>0</valuemin>
								<valuemax>3.98109</valuemax>
								<value>1</value>
							</parameter>
						</effect>
					</filter>
					<filter>
						<effect>
							<name>Audio Pan</name>
							<effectid>audiopan</effectid>
							<effectcategory>audiopan</effectcategory>
							<effecttype>audiopan</effecttype>
							<mediatype>audio</mediatype>
							<parameter>
								<name>Pan</name>
								<parameterid>pan</parameterid>
								<valuemin>-1</valuemin>
								<valuemax>1</valuemax>
								<value>1</value>
							</parameter>
						</effect>
					</filter>
					<sourcetrack>
						<mediatype>audio</mediatype>
						<trackindex>2</trackindex>
					</sourcetrack>
					<link>
						<linkclipref>Michael003 </linkclipref>
						<mediatype>video</mediatype>
						<trackindex>4</trackindex>
						<clipindex>2</clipindex>
					</link>
					<link>
						<linkclipref>Michael003 2</linkclipref>
						<mediatype>audio</mediatype>
						<trackindex>5</trackindex>
						<clipindex>2</clipindex>
						<groupindex>1</groupindex>
					</link>
					<link>
						<linkclipref>Michael003 3</linkclipref>
						<mediatype>audio</mediatype>
						<trackindex>6</trackindex>
						<clipindex>2</clipindex>
						<groupindex>1</groupindex>
					</link>
					<itemhistory>
						<uuid>501BBAD1-710E-4C6E-96C2-C40618455D45</uuid>
						<uuid>59839BC8-6CE3-49E1-8201-DACB5E74B8D8</uuid>
					</itemhistory>
				</clipitem>
				<clipitem id="Michael004 3">
					<name>Michael004</name>
					<duration>192</duration>
					<rate>
						<ntsc>FALSE</ntsc>
						<timebase>25</timebase>
					</rate>
					<in>0</in>
					<out>192</out>
					<start>1390</start>
					<end>1582</end>
					<logginginfo>
						<scene/>
						<shottake/>
						<lognote/>
						<good>FALSE</good>
					</logginginfo>
					<labels>
						<label2/>
					</labels>
					<comments>
						<mastercomment1/>
						<mastercomment2/>
						<mastercomment3/>
						<mastercomment4/>
					</comments>
					<file id="Michael004 1"/>
					<filter>
						<effect>
							<name>Audio Levels</name>
							<effectid>audiolevels</effectid>
							<effectcategory>audiolevels</effectcategory>
							<effecttype>audiolevels</effecttype>
							<mediatype>audio</mediatype>
							<parameter>
								<name>Level</name>
								<parameterid>level</parameterid>
								<valuemin>0</valuemin>
								<valuemax>3.98109</valuemax>
								<value>1</value>
							</parameter>
						</effect>
					</filter>
					<filter>
						<effect>
							<name>Audio Pan</name>
							<effectid>audiopan</effectid>
							<effectcategory>audiopan</effectcategory>
							<effecttype>audiopan</effecttype>
							<mediatype>audio</mediatype>
							<parameter>
								<name>Pan</name>
								<parameterid>pan</parameterid>
								<valuemin>-1</valuemin>
								<valuemax>1</valuemax>
								<value>1</value>
							</parameter>
						</effect>
					</filter>
					<sourcetrack>
						<mediatype>audio</mediatype>
						<trackindex>2</trackindex>
					</sourcetrack>
					<link>
						<linkclipref>Michael004 </linkclipref>
						<mediatype>video</mediatype>
						<trackindex>4</trackindex>
						<clipindex>3</clipindex>
					</link>
					<link>
						<linkclipref>Michael004 2</linkclipref>
						<mediatype>audio</mediatype>
						<trackindex>5</trackindex>
						<clipindex>3</clipindex>
						<groupindex>1</groupindex>
					</link>
					<link>
						<linkclipref>Michael004 3</linkclipref>
						<mediatype>audio</mediatype>
						<trackindex>6</trackindex>
						<clipindex>3</clipindex>
						<groupindex>1</groupindex>
					</link>
					<itemhistory>
						<uuid>3C26CB6B-AA33-4151-939B-BC9BF4C45F0F</uuid>
						<uuid>FA9E7AE4-8583-4844-A073-81CE29DC38D1</uuid>
					</itemhistory>
				</clipitem>
				<clipitem id="Michael005Subclipa3">
					<name>Michael005Subclipa</name>
					<duration>285</duration>
					<rate>
						<ntsc>FALSE</ntsc>
						<timebase>25</timebase>
					</rate>
					<in>0</in>
					<out>285</out>
					<start>1582</start>
					<end>1867</end>
					<logginginfo>
						<scene/>
						<shottake/>
						<lognote/>
						<good>FALSE</good>
					</logginginfo>
					<labels>
						<label2/>
					</labels>
					<comments>
						<mastercomment1/>
						<mastercomment2/>
						<mastercomment3/>
						<mastercomment4/>
					</comments>
					<file id="Michael005Subclipa1"/>
					<filter>
						<effect>
							<name>Audio Levels</name>
							<effectid>audiolevels</effectid>
							<effectcategory>audiolevels</effectcategory>
							<effecttype>audiolevels</effecttype>
							<mediatype>audio</mediatype>
							<parameter>
								<name>Level</name>
								<parameterid>level</parameterid>
								<valuemin>0</valuemin>
								<valuemax>3.98109</valuemax>
								<value>1</value>
							</parameter>
						</effect>
					</filter>
					<filter>
						<effect>
							<name>Audio Pan</name>
							<effectid>audiopan</effectid>
							<effectcategory>audiopan</effectcategory>
							<effecttype>audiopan</effecttype>
							<mediatype>audio</mediatype>
							<parameter>
								<name>Pan</name>
								<parameterid>pan</parameterid>
								<valuemin>-1</valuemin>
								<valuemax>1</valuemax>
								<value>1</value>
							</parameter>
						</effect>
					</filter>
					<sourcetrack>
						<mediatype>audio</mediatype>
						<trackindex>2</trackindex>
					</sourcetrack>
					<link>
						<linkclipref>Michael005Subclipa</linkclipref>
						<mediatype>video</mediatype>
						<trackindex>4</trackindex>
						<clipindex>4</clipindex>
					</link>
					<link>
						<linkclipref>Michael005Subclipa2</linkclipref>
						<mediatype>audio</mediatype>
						<trackindex>5</trackindex>
						<clipindex>4</clipindex>
						<groupindex>1</groupindex>
					</link>
					<link>
						<linkclipref>Michael005Subclipa3</linkclipref>
						<mediatype>audio</mediatype>
						<trackindex>6</trackindex>
						<clipindex>4</clipindex>
						<groupindex>1</groupindex>
					</link>
					<itemhistory>
						<uuid>99CFB436-0BF2-4843-9145-8530E07CEB3C</uuid>
						<uuid>0D059397-F68E-4672-8631-F93629A8DB5E</uuid>
					</itemhistory>
				</clipitem>
				<clipitem id="Michael005Subclipb3">
					<name>Michael005Subclipb</name>
					<duration>196</duration>
					<rate>
						<ntsc>FALSE</ntsc>
						<timebase>25</timebase>
					</rate>
					<in>0</in>
					<out>196</out>
					<start>1867</start>
					<end>2063</end>
					<logginginfo>
						<scene/>
						<shottake/>
						<lognote/>
						<good>FALSE</good>
					</logginginfo>
					<labels>
						<label2/>
					</labels>
					<comments>
						<mastercomment1/>
						<mastercomment2/>
						<mastercomment3/>
						<mastercomment4/>
					</comments>
					<file id="Michael005Subclipb1"/>
					<filter>
						<effect>
							<name>Audio Levels</name>
							<effectid>audiolevels</effectid>
							<effectcategory>audiolevels</effectcategory>
							<effecttype>audiolevels</effecttype>
							<mediatype>audio</mediatype>
							<parameter>
								<name>Level</name>
								<parameterid>level</parameterid>
								<valuemin>0</valuemin>
								<valuemax>3.98109</valuemax>
								<value>1</value>
							</parameter>
						</effect>
					</filter>
					<filter>
						<effect>
							<name>Audio Pan</name>
							<effectid>audiopan</effectid>
							<effectcategory>audiopan</effectcategory>
							<effecttype>audiopan</effecttype>
							<mediatype>audio</mediatype>
							<parameter>
								<name>Pan</name>
								<parameterid>pan</parameterid>
								<valuemin>-1</valuemin>
								<valuemax>1</valuemax>
								<value>1</value>
							</parameter>
						</effect>
					</filter>
					<sourcetrack>
						<mediatype>audio</mediatype>
						<trackindex>2</trackindex>
					</sourcetrack>
					<link>
						<linkclipref>Michael005Subclipb</linkclipref>
						<mediatype>video</mediatype>
						<trackindex>4</trackindex>
						<clipindex>5</clipindex>
					</link>
					<link>
						<linkclipref>Michael005Subclipb2</linkclipref>
						<mediatype>audio</mediatype>
						<trackindex>5</trackindex>
						<clipindex>5</clipindex>
						<groupindex>1</groupindex>
					</link>
					<link>
						<linkclipref>Michael005Subclipb3</linkclipref>
						<mediatype>audio</mediatype>
						<trackindex>6</trackindex>
						<clipindex>5</clipindex>
						<groupindex>1</groupindex>
					</link>
					<itemhistory>
						<uuid>669C4752-69D3-47C4-85CE-D8C84B6030FB</uuid>
						<uuid>2B3634BC-0921-46E1-9364-6DAAA4FDEB37</uuid>
					</itemhistory>
				</clipitem>
				<clipitem id="Michael006Subclipa3">
					<name>Michael006Subclipa</name>
					<duration>370</duration>
					<rate>
						<ntsc>FALSE</ntsc>
						<timebase>25</timebase>
					</rate>
					<in>0</in>
					<out>370</out>
					<start>3590</start>
					<end>3960</end>
					<logginginfo>
						<scene/>
						<shottake/>
						<lognote/>
						<good>FALSE</good>
					</logginginfo>
					<labels>
						<label2/>
					</labels>
					<comments>
						<mastercomment1/>
						<mastercomment2/>
						<mastercomment3/>
						<mastercomment4/>
					</comments>
					<file id="Michael006Subclipa1"/>
					<filter>
						<effect>
							<name>Audio Levels</name>
							<effectid>audiolevels</effectid>
							<effectcategory>audiolevels</effectcategory>
							<effecttype>audiolevels</effecttype>
							<mediatype>audio</mediatype>
							<parameter>
								<name>Level</name>
								<parameterid>level</parameterid>
								<valuemin>0</valuemin>
								<valuemax>3.98109</valuemax>
								<value>1</value>
							</parameter>
						</effect>
					</filter>
					<filter>
						<effect>
							<name>Audio Pan</name>
							<effectid>audiopan</effectid>
							<effectcategory>audiopan</effectcategory>
							<effecttype>audiopan</effecttype>
							<mediatype>audio</mediatype>
							<parameter>
								<name>Pan</name>
								<parameterid>pan</parameterid>
								<valuemin>-1</valuemin>
								<valuemax>1</valuemax>
								<value>1</value>
							</parameter>
						</effect>
					</filter>
					<sourcetrack>
						<mediatype>audio</mediatype>
						<trackindex>2</trackindex>
					</sourcetrack>
					<link>
						<linkclipref>Michael006Subclipa</linkclipref>
						<mediatype>video</mediatype>
						<trackindex>4</trackindex>
						<clipindex>6</clipindex>
					</link>
					<link>
						<linkclipref>Michael006Subclipa2</linkclipref>
						<mediatype>audio</mediatype>
						<trackindex>5</trackindex>
						<clipindex>6</clipindex>
						<groupindex>1</groupindex>
					</link>
					<link>
						<linkclipref>Michael006Subclipa3</linkclipref>
						<mediatype>audio</mediatype>
						<trackindex>6</trackindex>
						<clipindex>6</clipindex>
						<groupindex>1</groupindex>
					</link>
					<itemhistory>
						<uuid>FDB43BF8-5B14-47EE-9750-2F4C8983C069</uuid>
						<uuid>2B2116AE-A9CF-466D-B199-1AD37E90010F</uuid>
					</itemhistory>
				</clipitem>
				<clipitem id="Michael006Subclipb3">
					<name>Michael006Subclipb</name>
					<duration>231</duration>
					<rate>
						<ntsc>FALSE</ntsc>
						<timebase>25</timebase>
					</rate>
					<in>0</in>
					<out>231</out>
					<start>3960</start>
					<end>4191</end>
					<logginginfo>
						<scene/>
						<shottake/>
						<lognote/>
						<good>FALSE</good>
					</logginginfo>
					<labels>
						<label2/>
					</labels>
					<comments>
						<mastercomment1/>
						<mastercomment2/>
						<mastercomment3/>
						<mastercomment4/>
					</comments>
					<file id="Michael006Subclipb1"/>
					<filter>
						<effect>
							<name>Audio Levels</name>
							<effectid>audiolevels</effectid>
							<effectcategory>audiolevels</effectcategory>
							<effecttype>audiolevels</effecttype>
							<mediatype>audio</mediatype>
							<parameter>
								<name>Level</name>
								<parameterid>level</parameterid>
								<valuemin>0</valuemin>
								<valuemax>3.98109</valuemax>
								<value>1</value>
							</parameter>
						</effect>
					</filter>
					<filter>
						<effect>
							<name>Audio Pan</name>
							<effectid>audiopan</effectid>
							<effectcategory>audiopan</effectcategory>
							<effecttype>audiopan</effecttype>
							<mediatype>audio</mediatype>
							<parameter>
								<name>Pan</name>
								<parameterid>pan</parameterid>
								<valuemin>-1</valuemin>
								<valuemax>1</valuemax>
								<value>1</value>
							</parameter>
						</effect>
					</filter>
					<sourcetrack>
						<mediatype>audio</mediatype>
						<trackindex>2</trackindex>
					</sourcetrack>
					<link>
						<linkclipref>Michael006Subclipb</linkclipref>
						<mediatype>video</mediatype>
						<trackindex>4</trackindex>
						<clipindex>7</clipindex>
					</link>
					<link>
						<linkclipref>Michael006Subclipb2</linkclipref>
						<mediatype>audio</mediatype>
						<trackindex>5</trackindex>
						<clipindex>7</clipindex>
						<groupindex>1</groupindex>
					</link>
					<link>
						<linkclipref>Michael006Subclipb3</linkclipref>
						<mediatype>audio</mediatype>
						<trackindex>6</trackindex>
						<clipindex>7</clipindex>
						<groupindex>1</groupindex>
					</link>
					<itemhistory>
						<uuid>6DAABA55-1CE3-42C3-86C1-41B038001720</uuid>
						<uuid>5A17109E-2E67-42CB-A275-6A26316DB34C</uuid>
					</itemhistory>
				</clipitem>
				<clipitem id="Michael007 3">
					<name>Michael007</name>
					<duration>132</duration>
					<rate>
						<ntsc>FALSE</ntsc>
						<timebase>25</timebase>
					</rate>
					<in>0</in>
					<out>132</out>
					<start>4191</start>
					<end>4323</end>
					<logginginfo>
						<scene/>
						<shottake/>
						<lognote/>
						<good>FALSE</good>
					</logginginfo>
					<labels>
						<label2/>
					</labels>
					<comments>
						<mastercomment1/>
						<mastercomment2/>
						<mastercomment3/>
						<mastercomment4/>
					</comments>
					<file id="Michael007 1"/>
					<filter>
						<effect>
							<name>Audio Levels</name>
							<effectid>audiolevels</effectid>
							<effectcategory>audiolevels</effectcategory>
							<effecttype>audiolevels</effecttype>
							<mediatype>audio</mediatype>
							<parameter>
								<name>Level</name>
								<parameterid>level</parameterid>
								<valuemin>0</valuemin>
								<valuemax>3.98109</valuemax>
								<value>1</value>
							</parameter>
						</effect>
					</filter>
					<filter>
						<effect>
							<name>Audio Pan</name>
							<effectid>audiopan</effectid>
							<effectcategory>audiopan</effectcategory>
							<effecttype>audiopan</effecttype>
							<mediatype>audio</mediatype>
							<parameter>
								<name>Pan</name>
								<parameterid>pan</parameterid>
								<valuemin>-1</valuemin>
								<valuemax>1</valuemax>
								<value>1</value>
							</parameter>
						</effect>
					</filter>
					<sourcetrack>
						<mediatype>audio</mediatype>
						<trackindex>2</trackindex>
					</sourcetrack>
					<link>
						<linkclipref>Michael007 </linkclipref>
						<mediatype>video</mediatype>
						<trackindex>4</trackindex>
						<clipindex>8</clipindex>
					</link>
					<link>
						<linkclipref>Michael007 2</linkclipref>
						<mediatype>audio</mediatype>
						<trackindex>5</trackindex>
						<clipindex>8</clipindex>
						<groupindex>1</groupindex>
					</link>
					<link>
						<linkclipref>Michael007 3</linkclipref>
						<mediatype>audio</mediatype>
						<trackindex>6</trackindex>
						<clipindex>8</clipindex>
						<groupindex>1</groupindex>
					</link>
					<itemhistory>
						<uuid>34430AA3-E8BC-41DB-A586-F361DA2921DE</uuid>
						<uuid>4670C4B5-238F-4DE3-9D45-64C8FEBD1553</uuid>
					</itemhistory>
				</clipitem>
				<clipitem id="Michael008 3">
					<name>Michael008</name>
					<duration>168</duration>
					<rate>
						<ntsc>FALSE</ntsc>
						<timebase>25</timebase>
					</rate>
					<in>0</in>
					<out>168</out>
					<start>4323</start>
					<end>4491</end>
					<logginginfo>
						<scene/>
						<shottake/>
						<lognote/>
						<good>FALSE</good>
					</logginginfo>
					<labels>
						<label2/>
					</labels>
					<comments>
						<mastercomment1/>
						<mastercomment2/>
						<mastercomment3/>
						<mastercomment4/>
					</comments>
					<file id="Michael008 1"/>
					<filter>
						<effect>
							<name>Audio Levels</name>
							<effectid>audiolevels</effectid>
							<effectcategory>audiolevels</effectcategory>
							<effecttype>audiolevels</effecttype>
							<mediatype>audio</mediatype>
							<parameter>
								<name>Level</name>
								<parameterid>level</parameterid>
								<valuemin>0</valuemin>
								<valuemax>3.98109</valuemax>
								<value>1</value>
							</parameter>
						</effect>
					</filter>
					<filter>
						<effect>
							<name>Audio Pan</name>
							<effectid>audiopan</effectid>
							<effectcategory>audiopan</effectcategory>
							<effecttype>audiopan</effecttype>
							<mediatype>audio</mediatype>
							<parameter>
								<name>Pan</name>
								<parameterid>pan</parameterid>
								<valuemin>-1</valuemin>
								<valuemax>1</valuemax>
								<value>1</value>
							</parameter>
						</effect>
					</filter>
					<sourcetrack>
						<mediatype>audio</mediatype>
						<trackindex>2</trackindex>
					</sourcetrack>
					<link>
						<linkclipref>Michael008 </linkclipref>
						<mediatype>video</mediatype>
						<trackindex>4</trackindex>
						<clipindex>9</clipindex>
					</link>
					<link>
						<linkclipref>Michael008 2</linkclipref>
						<mediatype>audio</mediatype>
						<trackindex>5</trackindex>
						<clipindex>9</clipindex>
						<groupindex>1</groupindex>
					</link>
					<link>
						<linkclipref>Michael008 3</linkclipref>
						<mediatype>audio</mediatype>
						<trackindex>6</trackindex>
						<clipindex>9</clipindex>
						<groupindex>1</groupindex>
					</link>
					<itemhistory>
						<uuid>3EF9CAAA-B1F3-49AA-AF0C-FF23228FAB2D</uuid>
						<uuid>1ADE684F-E2F3-4EA5-AD54-E493B8F2B0CB</uuid>
					</itemhistory>
				</clipitem>
				<clipitem id="Michael009 3">
					<name>Michael009</name>
					<duration>180</duration>
					<rate>
						<ntsc>FALSE</ntsc>
						<timebase>25</timebase>
					</rate>
					<in>0</in>
					<out>180</out>
					<start>4491</start>
					<end>4671</end>
					<logginginfo>
						<scene/>
						<shottake/>
						<lognote/>
						<good>FALSE</good>
					</logginginfo>
					<labels>
						<label2/>
					</labels>
					<comments>
						<mastercomment1/>
						<mastercomment2/>
						<mastercomment3/>
						<mastercomment4/>
					</comments>
					<file id="Michael009 1"/>
					<filter>
						<effect>
							<name>Audio Levels</name>
							<effectid>audiolevels</effectid>
							<effectcategory>audiolevels</effectcategory>
							<effecttype>audiolevels</effecttype>
							<mediatype>audio</mediatype>
							<parameter>
								<name>Level</name>
								<parameterid>level</parameterid>
								<valuemin>0</valuemin>
								<valuemax>3.98109</valuemax>
								<value>1</value>
							</parameter>
						</effect>
					</filter>
					<filter>
						<effect>
							<name>Audio Pan</name>
							<effectid>audiopan</effectid>
							<effectcategory>audiopan</effectcategory>
							<effecttype>audiopan</effecttype>
							<mediatype>audio</mediatype>
							<parameter>
								<name>Pan</name>
								<parameterid>pan</parameterid>
								<valuemin>-1</valuemin>
								<valuemax>1</valuemax>
								<value>1</value>
							</parameter>
						</effect>
					</filter>
					<sourcetrack>
						<mediatype>audio</mediatype>
						<trackindex>2</trackindex>
					</sourcetrack>
					<link>
						<linkclipref>Michael009 </linkclipref>
						<mediatype>video</mediatype>
						<trackindex>4</trackindex>
						<clipindex>10</clipindex>
					</link>
					<link>
						<linkclipref>Michael009 2</linkclipref>
						<mediatype>audio</mediatype>
						<trackindex>5</trackindex>
						<clipindex>10</clipindex>
						<groupindex>1</groupindex>
					</link>
					<link>
						<linkclipref>Michael009 3</linkclipref>
						<mediatype>audio</mediatype>
						<trackindex>6</trackindex>
						<clipindex>10</clipindex>
						<groupindex>1</groupindex>
					</link>
					<itemhistory>
						<uuid>E9F27B44-C9DE-4B21-A7B6-FB5F52ED3FE0</uuid>
						<uuid>B70AE8BB-A491-4639-B5D5-80030019EAB4</uuid>
					</itemhistory>
				</clipitem>
				<clipitem id="Michael010 3">
					<name>Michael010</name>
					<duration>168</duration>
					<rate>
						<ntsc>FALSE</ntsc>
						<timebase>25</timebase>
					</rate>
					<in>0</in>
					<out>168</out>
					<start>4671</start>
					<end>4839</end>
					<logginginfo>
						<scene/>
						<shottake/>
						<lognote/>
						<good>FALSE</good>
					</logginginfo>
					<labels>
						<label2/>
					</labels>
					<comments>
						<mastercomment1/>
						<mastercomment2/>
						<mastercomment3/>
						<mastercomment4/>
					</comments>
					<file id="Michael010 1"/>
					<filter>
						<effect>
							<name>Audio Levels</name>
							<effectid>audiolevels</effectid>
							<effectcategory>audiolevels</effectcategory>
							<effecttype>audiolevels</effecttype>
							<mediatype>audio</mediatype>
							<parameter>
								<name>Level</name>
								<parameterid>level</parameterid>
								<valuemin>0</valuemin>
								<valuemax>3.98109</valuemax>
								<value>1</value>
							</parameter>
						</effect>
					</filter>
					<filter>
						<effect>
							<name>Audio Pan</name>
							<effectid>audiopan</effectid>
							<effectcategory>audiopan</effectcategory>
							<effecttype>audiopan</effecttype>
							<mediatype>audio</mediatype>
							<parameter>
								<name>Pan</name>
								<parameterid>pan</parameterid>
								<valuemin>-1</valuemin>
								<valuemax>1</valuemax>
								<value>1</value>
							</parameter>
						</effect>
					</filter>
					<sourcetrack>
						<mediatype>audio</mediatype>
						<trackindex>2</trackindex>
					</sourcetrack>
					<link>
						<linkclipref>Michael010 </linkclipref>
						<mediatype>video</mediatype>
						<trackindex>4</trackindex>
						<clipindex>11</clipindex>
					</link>
					<link>
						<linkclipref>Michael010 2</linkclipref>
						<mediatype>audio</mediatype>
						<trackindex>5</trackindex>
						<clipindex>11</clipindex>
						<groupindex>1</groupindex>
					</link>
					<link>
						<linkclipref>Michael010 3</linkclipref>
						<mediatype>audio</mediatype>
						<trackindex>6</trackindex>
						<clipindex>11</clipindex>
						<groupindex>1</groupindex>
					</link>
					<itemhistory>
						<uuid>9DB8649C-887C-4984-8CFB-51D77FA44A79</uuid>
						<uuid>980BF635-1EAA-4F7E-B8FF-3FD5CC4ED042</uuid>
					</itemhistory>
				</clipitem>
				<clipitem id="Michael011 3">
					<name>Michael011</name>
					<duration>228</duration>
					<rate>
						<ntsc>FALSE</ntsc>
						<timebase>25</timebase>
					</rate>
					<in>0</in>
					<out>228</out>
					<start>5810</start>
					<end>6038</end>
					<logginginfo>
						<scene/>
						<shottake/>
						<lognote/>
						<good>FALSE</good>
					</logginginfo>
					<labels>
						<label2/>
					</labels>
					<comments>
						<mastercomment1/>
						<mastercomment2/>
						<mastercomment3/>
						<mastercomment4/>
					</comments>
					<file id="Michael011 1"/>
					<filter>
						<effect>
							<name>Audio Levels</name>
							<effectid>audiolevels</effectid>
							<effectcategory>audiolevels</effectcategory>
							<effecttype>audiolevels</effecttype>
							<mediatype>audio</mediatype>
							<parameter>
								<name>Level</name>
								<parameterid>level</parameterid>
								<valuemin>0</valuemin>
								<valuemax>3.98109</valuemax>
								<value>1</value>
							</parameter>
						</effect>
					</filter>
					<filter>
						<effect>
							<name>Audio Pan</name>
							<effectid>audiopan</effectid>
							<effectcategory>audiopan</effectcategory>
							<effecttype>audiopan</effecttype>
							<mediatype>audio</mediatype>
							<parameter>
								<name>Pan</name>
								<parameterid>pan</parameterid>
								<valuemin>-1</valuemin>
								<valuemax>1</valuemax>
								<value>1</value>
							</parameter>
						</effect>
					</filter>
					<sourcetrack>
						<mediatype>audio</mediatype>
						<trackindex>2</trackindex>
					</sourcetrack>
					<link>
						<linkclipref>Michael011 </linkclipref>
						<mediatype>video</mediatype>
						<trackindex>4</trackindex>
						<clipindex>12</clipindex>
					</link>
					<link>
						<linkclipref>Michael011 2</linkclipref>
						<mediatype>audio</mediatype>
						<trackindex>5</trackindex>
						<clipindex>12</clipindex>
						<groupindex>1</groupindex>
					</link>
					<link>
						<linkclipref>Michael011 3</linkclipref>
						<mediatype>audio</mediatype>
						<trackindex>6</trackindex>
						<clipindex>12</clipindex>
						<groupindex>1</groupindex>
					</link>
					<itemhistory>
						<uuid>D911F31C-24FB-4B7E-82BE-7BD92860CE83</uuid>
						<uuid>9B2DFCFC-2DD0-4392-8F81-107F50AB4CC7</uuid>
					</itemhistory>
				</clipitem>
				<clipitem id="Michael012 3">
					<name>Michael012</name>
					<duration>180</duration>
					<rate>
						<ntsc>FALSE</ntsc>
						<timebase>25</timebase>
					</rate>
					<in>0</in>
					<out>180</out>
					<start>6038</start>
					<end>6218</end>
					<logginginfo>
						<scene/>
						<shottake/>
						<lognote/>
						<good>FALSE</good>
					</logginginfo>
					<labels>
						<label2/>
					</labels>
					<comments>
						<mastercomment1/>
						<mastercomment2/>
						<mastercomment3/>
						<mastercomment4/>
					</comments>
					<file id="Michael012 1"/>
					<filter>
						<effect>
							<name>Audio Levels</name>
							<effectid>audiolevels</effectid>
							<effectcategory>audiolevels</effectcategory>
							<effecttype>audiolevels</effecttype>
							<mediatype>audio</mediatype>
							<parameter>
								<name>Level</name>
								<parameterid>level</parameterid>
								<valuemin>0</valuemin>
								<valuemax>3.98109</valuemax>
								<value>1</value>
							</parameter>
						</effect>
					</filter>
					<filter>
						<effect>
							<name>Audio Pan</name>
							<effectid>audiopan</effectid>
							<effectcategory>audiopan</effectcategory>
							<effecttype>audiopan</effecttype>
							<mediatype>audio</mediatype>
							<parameter>
								<name>Pan</name>
								<parameterid>pan</parameterid>
								<valuemin>-1</valuemin>
								<valuemax>1</valuemax>
								<value>1</value>
							</parameter>
						</effect>
					</filter>
					<sourcetrack>
						<mediatype>audio</mediatype>
						<trackindex>2</trackindex>
					</sourcetrack>
					<link>
						<linkclipref>Michael012 </linkclipref>
						<mediatype>video</mediatype>
						<trackindex>4</trackindex>
						<clipindex>13</clipindex>
					</link>
					<link>
						<linkclipref>Michael012 2</linkclipref>
						<mediatype>audio</mediatype>
						<trackindex>5</trackindex>
						<clipindex>13</clipindex>
						<groupindex>1</groupindex>
					</link>
					<link>
						<linkclipref>Michael012 3</linkclipref>
						<mediatype>audio</mediatype>
						<trackindex>6</trackindex>
						<clipindex>13</clipindex>
						<groupindex>1</groupindex>
					</link>
					<itemhistory>
						<uuid>A7A94B6B-9010-4DA9-84FB-2D2B5BED368D</uuid>
						<uuid>2F395EF1-5961-4328-A897-0B3F46E6FE8A</uuid>
					</itemhistory>
				</clipitem>
				<clipitem id="Michael013 3">
					<name>Michael013</name>
					<duration>324</duration>
					<rate>
						<ntsc>FALSE</ntsc>
						<timebase>25</timebase>
					</rate>
					<in>0</in>
					<out>324</out>
					<start>6218</start>
					<end>6542</end>
					<logginginfo>
						<scene/>
						<shottake/>
						<lognote/>
						<good>FALSE</good>
					</logginginfo>
					<labels>
						<label2/>
					</labels>
					<comments>
						<mastercomment1/>
						<mastercomment2/>
						<mastercomment3/>
						<mastercomment4/>
					</comments>
					<file id="Michael013 1"/>
					<filter>
						<effect>
							<name>Audio Levels</name>
							<effectid>audiolevels</effectid>
							<effectcategory>audiolevels</effectcategory>
							<effecttype>audiolevels</effecttype>
							<mediatype>audio</mediatype>
							<parameter>
								<name>Level</name>
								<parameterid>level</parameterid>
								<valuemin>0</valuemin>
								<valuemax>3.98109</valuemax>
								<value>1</value>
							</parameter>
						</effect>
					</filter>
					<filter>
						<effect>
							<name>Audio Pan</name>
							<effectid>audiopan</effectid>
							<effectcategory>audiopan</effectcategory>
							<effecttype>audiopan</effecttype>
							<mediatype>audio</mediatype>
							<parameter>
								<name>Pan</name>
								<parameterid>pan</parameterid>
								<valuemin>-1</valuemin>
								<valuemax>1</valuemax>
								<value>1</value>
							</parameter>
						</effect>
					</filter>
					<sourcetrack>
						<mediatype>audio</mediatype>
						<trackindex>2</trackindex>
					</sourcetrack>
					<link>
						<linkclipref>Michael013 </linkclipref>
						<mediatype>video</mediatype>
						<trackindex>4</trackindex>
						<clipindex>14</clipindex>
					</link>
					<link>
						<linkclipref>Michael013 2</linkclipref>
						<mediatype>audio</mediatype>
						<trackindex>5</trackindex>
						<clipindex>14</clipindex>
						<groupindex>1</groupindex>
					</link>
					<link>
						<linkclipref>Michael013 3</linkclipref>
						<mediatype>audio</mediatype>
						<trackindex>6</trackindex>
						<clipindex>14</clipindex>
						<groupindex>1</groupindex>
					</link>
					<itemhistory>
						<uuid>0109A2DB-A82D-45C0-9288-BA10E04F1333</uuid>
						<uuid>40438985-3F18-4D3C-9CE2-4ED041779FBB</uuid>
					</itemhistory>
				</clipitem>
				<clipitem id="Michael014 3">
					<name>Michael014</name>
					<duration>228</duration>
					<rate>
						<ntsc>FALSE</ntsc>
						<timebase>25</timebase>
					</rate>
					<in>0</in>
					<out>228</out>
					<start>6542</start>
					<end>6770</end>
					<logginginfo>
						<scene/>
						<shottake/>
						<lognote/>
						<good>FALSE</good>
					</logginginfo>
					<labels>
						<label2/>
					</labels>
					<comments>
						<mastercomment1/>
						<mastercomment2/>
						<mastercomment3/>
						<mastercomment4/>
					</comments>
					<file id="Michael014 1"/>
					<filter>
						<effect>
							<name>Audio Levels</name>
							<effectid>audiolevels</effectid>
							<effectcategory>audiolevels</effectcategory>
							<effecttype>audiolevels</effecttype>
							<mediatype>audio</mediatype>
							<parameter>
								<name>Level</name>
								<parameterid>level</parameterid>
								<valuemin>0</valuemin>
								<valuemax>3.98109</valuemax>
								<value>1</value>
							</parameter>
						</effect>
					</filter>
					<filter>
						<effect>
							<name>Audio Pan</name>
							<effectid>audiopan</effectid>
							<effectcategory>audiopan</effectcategory>
							<effecttype>audiopan</effecttype>
							<mediatype>audio</mediatype>
							<parameter>
								<name>Pan</name>
								<parameterid>pan</parameterid>
								<valuemin>-1</valuemin>
								<valuemax>1</valuemax>
								<value>1</value>
							</parameter>
						</effect>
					</filter>
					<sourcetrack>
						<mediatype>audio</mediatype>
						<trackindex>2</trackindex>
					</sourcetrack>
					<link>
						<linkclipref>Michael014 </linkclipref>
						<mediatype>video</mediatype>
						<trackindex>4</trackindex>
						<clipindex>15</clipindex>
					</link>
					<link>
						<linkclipref>Michael014 2</linkclipref>
						<mediatype>audio</mediatype>
						<trackindex>5</trackindex>
						<clipindex>15</clipindex>
						<groupindex>1</groupindex>
					</link>
					<link>
						<linkclipref>Michael014 3</linkclipref>
						<mediatype>audio</mediatype>
						<trackindex>6</trackindex>
						<clipindex>15</clipindex>
						<groupindex>1</groupindex>
					</link>
					<itemhistory>
						<uuid>118DA961-360E-42FB-89A9-9565CF257F7B</uuid>
						<uuid>08426A6D-4CA3-4F9A-8527-CF4052322C27</uuid>
					</itemhistory>
				</clipitem>
				<clipitem id="Michael015 3">
					<name>Michael015</name>
					<duration>216</duration>
					<rate>
						<ntsc>FALSE</ntsc>
						<timebase>25</timebase>
					</rate>
					<in>0</in>
					<out>216</out>
					<start>7786</start>
					<end>8002</end>
					<logginginfo>
						<scene/>
						<shottake/>
						<lognote/>
						<good>FALSE</good>
					</logginginfo>
					<labels>
						<label2/>
					</labels>
					<comments>
						<mastercomment1/>
						<mastercomment2/>
						<mastercomment3/>
						<mastercomment4/>
					</comments>
					<file id="Michael015 1"/>
					<filter>
						<effect>
							<name>Audio Levels</name>
							<effectid>audiolevels</effectid>
							<effectcategory>audiolevels</effectcategory>
							<effecttype>audiolevels</effecttype>
							<mediatype>audio</mediatype>
							<parameter>
								<name>Level</name>
								<parameterid>level</parameterid>
								<valuemin>0</valuemin>
								<valuemax>3.98109</valuemax>
								<value>1</value>
							</parameter>
						</effect>
					</filter>
					<filter>
						<effect>
							<name>Audio Pan</name>
							<effectid>audiopan</effectid>
							<effectcategory>audiopan</effectcategory>
							<effecttype>audiopan</effecttype>
							<mediatype>audio</mediatype>
							<parameter>
								<name>Pan</name>
								<parameterid>pan</parameterid>
								<valuemin>-1</valuemin>
								<valuemax>1</valuemax>
								<value>1</value>
							</parameter>
						</effect>
					</filter>
					<sourcetrack>
						<mediatype>audio</mediatype>
						<trackindex>2</trackindex>
					</sourcetrack>
					<link>
						<linkclipref>Michael015 </linkclipref>
						<mediatype>video</mediatype>
						<trackindex>4</trackindex>
						<clipindex>16</clipindex>
					</link>
					<link>
						<linkclipref>Michael015 2</linkclipref>
						<mediatype>audio</mediatype>
						<trackindex>5</trackindex>
						<clipindex>16</clipindex>
						<groupindex>1</groupindex>
					</link>
					<link>
						<linkclipref>Michael015 3</linkclipref>
						<mediatype>audio</mediatype>
						<trackindex>6</trackindex>
						<clipindex>16</clipindex>
						<groupindex>1</groupindex>
					</link>
					<itemhistory>
						<uuid>AF041A5D-9F41-4024-8F83-4D1C8FCE3643</uuid>
						<uuid>3D3E9F1D-65D4-44F9-940B-289F9AAF6896</uuid>
					</itemhistory>
				</clipitem>
				<clipitem id="Michael016 3">
					<name>Michael016</name>
					<duration>276</duration>
					<rate>
						<ntsc>FALSE</ntsc>
						<timebase>25</timebase>
					</rate>
					<in>0</in>
					<out>276</out>
					<start>8002</start>
					<end>8278</end>
					<logginginfo>
						<scene/>
						<shottake/>
						<lognote/>
						<good>FALSE</good>
					</logginginfo>
					<labels>
						<label2/>
					</labels>
					<comments>
						<mastercomment1/>
						<mastercomment2/>
						<mastercomment3/>
						<mastercomment4/>
					</comments>
					<file id="Michael016 1"/>
					<filter>
						<effect>
							<name>Audio Levels</name>
							<effectid>audiolevels</effectid>
							<effectcategory>audiolevels</effectcategory>
							<effecttype>audiolevels</effecttype>
							<mediatype>audio</mediatype>
							<parameter>
								<name>Level</name>
								<parameterid>level</parameterid>
								<valuemin>0</valuemin>
								<valuemax>3.98109</valuemax>
								<value>1</value>
							</parameter>
						</effect>
					</filter>
					<filter>
						<effect>
							<name>Audio Pan</name>
							<effectid>audiopan</effectid>
							<effectcategory>audiopan</effectcategory>
							<effecttype>audiopan</effecttype>
							<mediatype>audio</mediatype>
							<parameter>
								<name>Pan</name>
								<parameterid>pan</parameterid>
								<valuemin>-1</valuemin>
								<valuemax>1</valuemax>
								<value>1</value>
							</parameter>
						</effect>
					</filter>
					<sourcetrack>
						<mediatype>audio</mediatype>
						<trackindex>2</trackindex>
					</sourcetrack>
					<link>
						<linkclipref>Michael016 </linkclipref>
						<mediatype>video</mediatype>
						<trackindex>4</trackindex>
						<clipindex>17</clipindex>
					</link>
					<link>
						<linkclipref>Michael016 2</linkclipref>
						<mediatype>audio</mediatype>
						<trackindex>5</trackindex>
						<clipindex>17</clipindex>
						<groupindex>1</groupindex>
					</link>
					<link>
						<linkclipref>Michael016 3</linkclipref>
						<mediatype>audio</mediatype>
						<trackindex>6</trackindex>
						<clipindex>17</clipindex>
						<groupindex>1</groupindex>
					</link>
					<itemhistory>
						<uuid>884579CC-585D-4D1D-8697-28FA51A4CD3A</uuid>
						<uuid>4E7DEED3-32B6-45AF-9E08-24F6896DFFB0</uuid>
					</itemhistory>
				</clipitem>
				<clipitem id="Michael017 3">
					<name>Michael017</name>
					<duration>204</duration>
					<rate>
						<ntsc>FALSE</ntsc>
						<timebase>25</timebase>
					</rate>
					<in>0</in>
					<out>204</out>
					<start>8278</start>
					<end>8482</end>
					<logginginfo>
						<scene/>
						<shottake/>
						<lognote/>
						<good>FALSE</good>
					</logginginfo>
					<labels>
						<label2/>
					</labels>
					<comments>
						<mastercomment1/>
						<mastercomment2/>
						<mastercomment3/>
						<mastercomment4/>
					</comments>
					<file id="Michael017 1"/>
					<filter>
						<effect>
							<name>Audio Levels</name>
							<effectid>audiolevels</effectid>
							<effectcategory>audiolevels</effectcategory>
							<effecttype>audiolevels</effecttype>
							<mediatype>audio</mediatype>
							<parameter>
								<name>Level</name>
								<parameterid>level</parameterid>
								<valuemin>0</valuemin>
								<valuemax>3.98109</valuemax>
								<value>1</value>
							</parameter>
						</effect>
					</filter>
					<filter>
						<effect>
							<name>Audio Pan</name>
							<effectid>audiopan</effectid>
							<effectcategory>audiopan</effectcategory>
							<effecttype>audiopan</effecttype>
							<mediatype>audio</mediatype>
							<parameter>
								<name>Pan</name>
								<parameterid>pan</parameterid>
								<valuemin>-1</valuemin>
								<valuemax>1</valuemax>
								<value>1</value>
							</parameter>
						</effect>
					</filter>
					<sourcetrack>
						<mediatype>audio</mediatype>
						<trackindex>2</trackindex>
					</sourcetrack>
					<link>
						<linkclipref>Michael017 </linkclipref>
						<mediatype>video</mediatype>
						<trackindex>4</trackindex>
						<clipindex>18</clipindex>
					</link>
					<link>
						<linkclipref>Michael017 2</linkclipref>
						<mediatype>audio</mediatype>
						<trackindex>5</trackindex>
						<clipindex>18</clipindex>
						<groupindex>1</groupindex>
					</link>
					<link>
						<linkclipref>Michael017 3</linkclipref>
						<mediatype>audio</mediatype>
						<trackindex>6</trackindex>
						<clipindex>18</clipindex>
						<groupindex>1</groupindex>
					</link>
					<itemhistory>
						<uuid>785A4F8C-BB4A-4AA1-B07E-FC461DB9D87F</uuid>
						<uuid>EE491AD1-7269-45C4-8659-EB425FFF1EE8</uuid>
					</itemhistory>
				</clipitem>
				<clipitem id="Michael018 3">
					<name>Michael018</name>
					<duration>240</duration>
					<rate>
						<ntsc>FALSE</ntsc>
						<timebase>25</timebase>
					</rate>
					<in>0</in>
					<out>240</out>
					<start>8482</start>
					<end>8722</end>
					<logginginfo>
						<scene/>
						<shottake/>
						<lognote/>
						<good>FALSE</good>
					</logginginfo>
					<labels>
						<label2/>
					</labels>
					<comments>
						<mastercomment1/>
						<mastercomment2/>
						<mastercomment3/>
						<mastercomment4/>
					</comments>
					<file id="Michael018 1"/>
					<filter>
						<effect>
							<name>Audio Levels</name>
							<effectid>audiolevels</effectid>
							<effectcategory>audiolevels</effectcategory>
							<effecttype>audiolevels</effecttype>
							<mediatype>audio</mediatype>
							<parameter>
								<name>Level</name>
								<parameterid>level</parameterid>
								<valuemin>0</valuemin>
								<valuemax>3.98109</valuemax>
								<value>1</value>
							</parameter>
						</effect>
					</filter>
					<filter>
						<effect>
							<name>Audio Pan</name>
							<effectid>audiopan</effectid>
							<effectcategory>audiopan</effectcategory>
							<effecttype>audiopan</effecttype>
							<mediatype>audio</mediatype>
							<parameter>
								<name>Pan</name>
								<parameterid>pan</parameterid>
								<valuemin>-1</valuemin>
								<valuemax>1</valuemax>
								<value>1</value>
							</parameter>
						</effect>
					</filter>
					<sourcetrack>
						<mediatype>audio</mediatype>
						<trackindex>2</trackindex>
					</sourcetrack>
					<link>
						<linkclipref>Michael018 </linkclipref>
						<mediatype>video</mediatype>
						<trackindex>4</trackindex>
						<clipindex>19</clipindex>
					</link>
					<link>
						<linkclipref>Michael018 2</linkclipref>
						<mediatype>audio</mediatype>
						<trackindex>5</trackindex>
						<clipindex>19</clipindex>
						<groupindex>1</groupindex>
					</link>
					<link>
						<linkclipref>Michael018 3</linkclipref>
						<mediatype>audio</mediatype>
						<trackindex>6</trackindex>
						<clipindex>19</clipindex>
						<groupindex>1</groupindex>
					</link>
					<itemhistory>
						<uuid>11C87FC9-7CEE-4373-8AB5-D92F1AAAEE39</uuid>
						<uuid>21AC9F9B-1E1E-4232-880A-7DEBF2960D1B</uuid>
					</itemhistory>
				</clipitem>
				<clipitem id="Michael019 3">
					<name>Michael019</name>
					<duration>312</duration>
					<rate>
						<ntsc>FALSE</ntsc>
						<timebase>25</timebase>
					</rate>
					<in>0</in>
					<out>312</out>
					<start>8722</start>
					<end>9034</end>
					<logginginfo>
						<scene/>
						<shottake/>
						<lognote/>
						<good>FALSE</good>
					</logginginfo>
					<labels>
						<label2/>
					</labels>
					<comments>
						<mastercomment1/>
						<mastercomment2/>
						<mastercomment3/>
						<mastercomment4/>
					</comments>
					<file id="Michael019 1"/>
					<filter>
						<effect>
							<name>Audio Levels</name>
							<effectid>audiolevels</effectid>
							<effectcategory>audiolevels</effectcategory>
							<effecttype>audiolevels</effecttype>
							<mediatype>audio</mediatype>
							<parameter>
								<name>Level</name>
								<parameterid>level</parameterid>
								<valuemin>0</valuemin>
								<valuemax>3.98109</valuemax>
								<value>1</value>
							</parameter>
						</effect>
					</filter>
					<filter>
						<effect>
							<name>Audio Pan</name>
							<effectid>audiopan</effectid>
							<effectcategory>audiopan</effectcategory>
							<effecttype>audiopan</effecttype>
							<mediatype>audio</mediatype>
							<parameter>
								<name>Pan</name>
								<parameterid>pan</parameterid>
								<valuemin>-1</valuemin>
								<valuemax>1</valuemax>
								<value>1</value>
							</parameter>
						</effect>
					</filter>
					<sourcetrack>
						<mediatype>audio</mediatype>
						<trackindex>2</trackindex>
					</sourcetrack>
					<link>
						<linkclipref>Michael019 </linkclipref>
						<mediatype>video</mediatype>
						<trackindex>4</trackindex>
						<clipindex>20</clipindex>
					</link>
					<link>
						<linkclipref>Michael019 2</linkclipref>
						<mediatype>audio</mediatype>
						<trackindex>5</trackindex>
						<clipindex>20</clipindex>
						<groupindex>1</groupindex>
					</link>
					<link>
						<linkclipref>Michael019 3</linkclipref>
						<mediatype>audio</mediatype>
						<trackindex>6</trackindex>
						<clipindex>20</clipindex>
						<groupindex>1</groupindex>
					</link>
					<itemhistory>
						<uuid>BEC0ACFA-FC01-42B6-8D33-0AA6E9B65DBE</uuid>
						<uuid>02B117BF-F42C-460D-AAF3-865C708EF5D8</uuid>
					</itemhistory>
				</clipitem>
				<clipitem id="Michael020 3">
					<name>Michael020</name>
					<duration>300</duration>
					<rate>
						<ntsc>FALSE</ntsc>
						<timebase>25</timebase>
					</rate>
					<in>0</in>
					<out>300</out>
					<start>9034</start>
					<end>9334</end>
					<logginginfo>
						<scene/>
						<shottake/>
						<lognote/>
						<good>FALSE</good>
					</logginginfo>
					<labels>
						<label2/>
					</labels>
					<comments>
						<mastercomment1/>
						<mastercomment2/>
						<mastercomment3/>
						<mastercomment4/>
					</comments>
					<file id="Michael020 1"/>
					<filter>
						<effect>
							<name>Audio Levels</name>
							<effectid>audiolevels</effectid>
							<effectcategory>audiolevels</effectcategory>
							<effecttype>audiolevels</effecttype>
							<mediatype>audio</mediatype>
							<parameter>
								<name>Level</name>
								<parameterid>level</parameterid>
								<valuemin>0</valuemin>
								<valuemax>3.98109</valuemax>
								<value>1</value>
							</parameter>
						</effect>
					</filter>
					<filter>
						<effect>
							<name>Audio Pan</name>
							<effectid>audiopan</effectid>
							<effectcategory>audiopan</effectcategory>
							<effecttype>audiopan</effecttype>
							<mediatype>audio</mediatype>
							<parameter>
								<name>Pan</name>
								<parameterid>pan</parameterid>
								<valuemin>-1</valuemin>
								<valuemax>1</valuemax>
								<value>1</value>
							</parameter>
						</effect>
					</filter>
					<sourcetrack>
						<mediatype>audio</mediatype>
						<trackindex>2</trackindex>
					</sourcetrack>
					<link>
						<linkclipref>Michael020 </linkclipref>
						<mediatype>video</mediatype>
						<trackindex>4</trackindex>
						<clipindex>21</clipindex>
					</link>
					<link>
						<linkclipref>Michael020 2</linkclipref>
						<mediatype>audio</mediatype>
						<trackindex>5</trackindex>
						<clipindex>21</clipindex>
						<groupindex>1</groupindex>
					</link>
					<link>
						<linkclipref>Michael020 3</linkclipref>
						<mediatype>audio</mediatype>
						<trackindex>6</trackindex>
						<clipindex>21</clipindex>
						<groupindex>1</groupindex>
					</link>
					<itemhistory>
						<uuid>8A1BD570-21B2-4C88-B749-B515C8EFD1D6</uuid>
						<uuid>685B145E-5BEF-4283-A6CA-F7CC3D002A0C</uuid>
					</itemhistory>
				</clipitem>
				<clipitem id="Michael021 3">
					<name>Michael021</name>
					<duration>192</duration>
					<rate>
						<ntsc>FALSE</ntsc>
						<timebase>25</timebase>
					</rate>
					<in>0</in>
					<out>192</out>
					<start>9334</start>
					<end>9526</end>
					<logginginfo>
						<scene/>
						<shottake/>
						<lognote/>
						<good>FALSE</good>
					</logginginfo>
					<labels>
						<label2/>
					</labels>
					<comments>
						<mastercomment1/>
						<mastercomment2/>
						<mastercomment3/>
						<mastercomment4/>
					</comments>
					<file id="Michael021 1"/>
					<filter>
						<effect>
							<name>Audio Levels</name>
							<effectid>audiolevels</effectid>
							<effectcategory>audiolevels</effectcategory>
							<effecttype>audiolevels</effecttype>
							<mediatype>audio</mediatype>
							<parameter>
								<name>Level</name>
								<parameterid>level</parameterid>
								<valuemin>0</valuemin>
								<valuemax>3.98109</valuemax>
								<value>1</value>
							</parameter>
						</effect>
					</filter>
					<filter>
						<effect>
							<name>Audio Pan</name>
							<effectid>audiopan</effectid>
							<effectcategory>audiopan</effectcategory>
							<effecttype>audiopan</effecttype>
							<mediatype>audio</mediatype>
							<parameter>
								<name>Pan</name>
								<parameterid>pan</parameterid>
								<valuemin>-1</valuemin>
								<valuemax>1</valuemax>
								<value>1</value>
							</parameter>
						</effect>
					</filter>
					<sourcetrack>
						<mediatype>audio</mediatype>
						<trackindex>2</trackindex>
					</sourcetrack>
					<link>
						<linkclipref>Michael021 </linkclipref>
						<mediatype>video</mediatype>
						<trackindex>4</trackindex>
						<clipindex>22</clipindex>
					</link>
					<link>
						<linkclipref>Michael021 2</linkclipref>
						<mediatype>audio</mediatype>
						<trackindex>5</trackindex>
						<clipindex>22</clipindex>
						<groupindex>1</groupindex>
					</link>
					<link>
						<linkclipref>Michael021 3</linkclipref>
						<mediatype>audio</mediatype>
						<trackindex>6</trackindex>
						<clipindex>22</clipindex>
						<groupindex>1</groupindex>
					</link>
					<itemhistory>
						<uuid>B9CB3527-649C-43E0-B158-1EBFCEE6D4E7</uuid>
						<uuid>4CDF925C-5A47-4B37-AAED-9720B297C160</uuid>
					</itemhistory>
				</clipitem>
				<clipitem id="Michael022 3">
					<name>Michael022</name>
					<duration>828</duration>
					<rate>
						<ntsc>FALSE</ntsc>
						<timebase>25</timebase>
					</rate>
					<in>0</in>
					<out>828</out>
					<start>9526</start>
					<end>10354</end>
					<logginginfo>
						<scene/>
						<shottake/>
						<lognote/>
						<good>FALSE</good>
					</logginginfo>
					<labels>
						<label2/>
					</labels>
					<comments>
						<mastercomment1/>
						<mastercomment2/>
						<mastercomment3/>
						<mastercomment4/>
					</comments>
					<file id="Michael022 1"/>
					<filter>
						<effect>
							<name>Audio Levels</name>
							<effectid>audiolevels</effectid>
							<effectcategory>audiolevels</effectcategory>
							<effecttype>audiolevels</effecttype>
							<mediatype>audio</mediatype>
							<parameter>
								<name>Level</name>
								<parameterid>level</parameterid>
								<valuemin>0</valuemin>
								<valuemax>3.98109</valuemax>
								<value>1</value>
							</parameter>
						</effect>
					</filter>
					<filter>
						<effect>
							<name>Audio Pan</name>
							<effectid>audiopan</effectid>
							<effectcategory>audiopan</effectcategory>
							<effecttype>audiopan</effecttype>
							<mediatype>audio</mediatype>
							<parameter>
								<name>Pan</name>
								<parameterid>pan</parameterid>
								<valuemin>-1</valuemin>
								<valuemax>1</valuemax>
								<value>1</value>
							</parameter>
						</effect>
					</filter>
					<sourcetrack>
						<mediatype>audio</mediatype>
						<trackindex>2</trackindex>
					</sourcetrack>
					<link>
						<linkclipref>Michael022 </linkclipref>
						<mediatype>video</mediatype>
						<trackindex>4</trackindex>
						<clipindex>23</clipindex>
					</link>
					<link>
						<linkclipref>Michael022 2</linkclipref>
						<mediatype>audio</mediatype>
						<trackindex>5</trackindex>
						<clipindex>23</clipindex>
						<groupindex>1</groupindex>
					</link>
					<link>
						<linkclipref>Michael022 3</linkclipref>
						<mediatype>audio</mediatype>
						<trackindex>6</trackindex>
						<clipindex>23</clipindex>
						<groupindex>1</groupindex>
					</link>
					<itemhistory>
						<uuid>0A9DB1C2-0F2D-4BB3-B852-6C9EB6F70544</uuid>
						<uuid>58056F12-A01A-4D83-9E95-FFA85A2F0649</uuid>
					</itemhistory>
				</clipitem>
				<clipitem id="Michael023 3">
					<name>Michael023</name>
					<duration>324</duration>
					<rate>
						<ntsc>FALSE</ntsc>
						<timebase>25</timebase>
					</rate>
					<in>0</in>
					<out>324</out>
					<start>10354</start>
					<end>10678</end>
					<logginginfo>
						<scene/>
						<shottake/>
						<lognote/>
						<good>FALSE</good>
					</logginginfo>
					<labels>
						<label2/>
					</labels>
					<comments>
						<mastercomment1/>
						<mastercomment2/>
						<mastercomment3/>
						<mastercomment4/>
					</comments>
					<file id="Michael023 1"/>
					<filter>
						<effect>
							<name>Audio Levels</name>
							<effectid>audiolevels</effectid>
							<effectcategory>audiolevels</effectcategory>
							<effecttype>audiolevels</effecttype>
							<mediatype>audio</mediatype>
							<parameter>
								<name>Level</name>
								<parameterid>level</parameterid>
								<valuemin>0</valuemin>
								<valuemax>3.98109</valuemax>
								<value>1</value>
							</parameter>
						</effect>
					</filter>
					<filter>
						<effect>
							<name>Audio Pan</name>
							<effectid>audiopan</effectid>
							<effectcategory>audiopan</effectcategory>
							<effecttype>audiopan</effecttype>
							<mediatype>audio</mediatype>
							<parameter>
								<name>Pan</name>
								<parameterid>pan</parameterid>
								<valuemin>-1</valuemin>
								<valuemax>1</valuemax>
								<value>1</value>
							</parameter>
						</effect>
					</filter>
					<sourcetrack>
						<mediatype>audio</mediatype>
						<trackindex>2</trackindex>
					</sourcetrack>
					<link>
						<linkclipref>Michael023 </linkclipref>
						<mediatype>video</mediatype>
						<trackindex>4</trackindex>
						<clipindex>24</clipindex>
					</link>
					<link>
						<linkclipref>Michael023 2</linkclipref>
						<mediatype>audio</mediatype>
						<trackindex>5</trackindex>
						<clipindex>24</clipindex>
						<groupindex>1</groupindex>
					</link>
					<link>
						<linkclipref>Michael023 3</linkclipref>
						<mediatype>audio</mediatype>
						<trackindex>6</trackindex>
						<clipindex>24</clipindex>
						<groupindex>1</groupindex>
					</link>
					<itemhistory>
						<uuid>1A5CE870-38BC-4B8B-B5D8-73488398D566</uuid>
						<uuid>03505B45-3891-4AE4-84EF-0A1FAEE51791</uuid>
					</itemhistory>
				</clipitem>
				<clipitem id="Michael099 3">
					<name>Michael099</name>
					<duration>720</duration>
					<rate>
						<ntsc>FALSE</ntsc>
						<timebase>25</timebase>
					</rate>
					<in>0</in>
					<out>720</out>
					<start>132108</start>
					<end>132828</end>
					<logginginfo>
						<scene/>
						<shottake/>
						<lognote/>
						<good>FALSE</good>
					</logginginfo>
					<labels>
						<label2/>
					</labels>
					<comments>
						<mastercomment1/>
						<mastercomment2/>
						<mastercomment3/>
						<mastercomment4/>
					</comments>
					<file id="Michael099 1"/>
					<filter>
						<effect>
							<name>Audio Levels</name>
							<effectid>audiolevels</effectid>
							<effectcategory>audiolevels</effectcategory>
							<effecttype>audiolevels</effecttype>
							<mediatype>audio</mediatype>
							<parameter>
								<name>Level</name>
								<parameterid>level</parameterid>
								<valuemin>0</valuemin>
								<valuemax>3.98109</valuemax>
								<value>1</value>
							</parameter>
						</effect>
					</filter>
					<filter>
						<effect>
							<name>Audio Pan</name>
							<effectid>audiopan</effectid>
							<effectcategory>audiopan</effectcategory>
							<effecttype>audiopan</effecttype>
							<mediatype>audio</mediatype>
							<parameter>
								<name>Pan</name>
								<parameterid>pan</parameterid>
								<valuemin>-1</valuemin>
								<valuemax>1</valuemax>
								<value>1</value>
							</parameter>
						</effect>
					</filter>
					<sourcetrack>
						<mediatype>audio</mediatype>
						<trackindex>2</trackindex>
					</sourcetrack>
					<link>
						<linkclipref>Michael099 </linkclipref>
						<mediatype>video</mediatype>
						<trackindex>4</trackindex>
						<clipindex>115</clipindex>
					</link>
					<link>
						<linkclipref>Michael099 2</linkclipref>
						<mediatype>audio</mediatype>
						<trackindex>5</trackindex>
						<clipindex>25</clipindex>
						<groupindex>1</groupindex>
					</link>
					<link>
						<linkclipref>Michael099 3</linkclipref>
						<mediatype>audio</mediatype>
						<trackindex>6</trackindex>
						<clipindex>25</clipindex>
						<groupindex>1</groupindex>
					</link>
					<itemhistory>
						<uuid>A8E9A09E-0638-4837-AD28-531A4EF08EF0</uuid>
						<uuid>EE497866-A689-4BC8-9B1C-9C5CE1809ADF</uuid>
					</itemhistory>
				</clipitem>
				<clipitem id="Michael100 3">
					<name>Michael100</name>
					<duration>276</duration>
					<rate>
						<ntsc>FALSE</ntsc>
						<timebase>25</timebase>
					</rate>
					<in>0</in>
					<out>276</out>
					<start>132828</start>
					<end>133104</end>
					<logginginfo>
						<scene/>
						<shottake/>
						<lognote/>
						<good>FALSE</good>
					</logginginfo>
					<labels>
						<label2/>
					</labels>
					<comments>
						<mastercomment1/>
						<mastercomment2/>
						<mastercomment3/>
						<mastercomment4/>
					</comments>
					<file id="Michael100 1"/>
					<filter>
						<effect>
							<name>Audio Levels</name>
							<effectid>audiolevels</effectid>
							<effectcategory>audiolevels</effectcategory>
							<effecttype>audiolevels</effecttype>
							<mediatype>audio</mediatype>
							<parameter>
								<name>Level</name>
								<parameterid>level</parameterid>
								<valuemin>0</valuemin>
								<valuemax>3.98109</valuemax>
								<value>1</value>
							</parameter>
						</effect>
					</filter>
					<filter>
						<effect>
							<name>Audio Pan</name>
							<effectid>audiopan</effectid>
							<effectcategory>audiopan</effectcategory>
							<effecttype>audiopan</effecttype>
							<mediatype>audio</mediatype>
							<parameter>
								<name>Pan</name>
								<parameterid>pan</parameterid>
								<valuemin>-1</valuemin>
								<valuemax>1</valuemax>
								<value>1</value>
							</parameter>
						</effect>
					</filter>
					<sourcetrack>
						<mediatype>audio</mediatype>
						<trackindex>2</trackindex>
					</sourcetrack>
					<link>
						<linkclipref>Michael100 </linkclipref>
						<mediatype>video</mediatype>
						<trackindex>4</trackindex>
						<clipindex>116</clipindex>
					</link>
					<link>
						<linkclipref>Michael100 2</linkclipref>
						<mediatype>audio</mediatype>
						<trackindex>5</trackindex>
						<clipindex>26</clipindex>
						<groupindex>1</groupindex>
					</link>
					<link>
						<linkclipref>Michael100 3</linkclipref>
						<mediatype>audio</mediatype>
						<trackindex>6</trackindex>
						<clipindex>26</clipindex>
						<groupindex>1</groupindex>
					</link>
					<itemhistory>
						<uuid>53D02BEC-C134-473C-808F-DB722F28CF07</uuid>
						<uuid>87B171D2-91C4-480C-9728-7245B75396F4</uuid>
					</itemhistory>
				</clipitem>
				<clipitem id="Michael101 3">
					<name>Michael101</name>
					<duration>444</duration>
					<rate>
						<ntsc>FALSE</ntsc>
						<timebase>25</timebase>
					</rate>
					<in>0</in>
					<out>444</out>
					<start>133104</start>
					<end>133548</end>
					<logginginfo>
						<scene/>
						<shottake/>
						<lognote/>
						<good>FALSE</good>
					</logginginfo>
					<labels>
						<label2/>
					</labels>
					<comments>
						<mastercomment1/>
						<mastercomment2/>
						<mastercomment3/>
						<mastercomment4/>
					</comments>
					<file id="Michael101 1"/>
					<filter>
						<effect>
							<name>Audio Levels</name>
							<effectid>audiolevels</effectid>
							<effectcategory>audiolevels</effectcategory>
							<effecttype>audiolevels</effecttype>
							<mediatype>audio</mediatype>
							<parameter>
								<name>Level</name>
								<parameterid>level</parameterid>
								<valuemin>0</valuemin>
								<valuemax>3.98109</valuemax>
								<value>1</value>
							</parameter>
						</effect>
					</filter>
					<filter>
						<effect>
							<name>Audio Pan</name>
							<effectid>audiopan</effectid>
							<effectcategory>audiopan</effectcategory>
							<effecttype>audiopan</effecttype>
							<mediatype>audio</mediatype>
							<parameter>
								<name>Pan</name>
								<parameterid>pan</parameterid>
								<valuemin>-1</valuemin>
								<valuemax>1</valuemax>
								<value>1</value>
							</parameter>
						</effect>
					</filter>
					<sourcetrack>
						<mediatype>audio</mediatype>
						<trackindex>2</trackindex>
					</sourcetrack>
					<link>
						<linkclipref>Michael101 </linkclipref>
						<mediatype>video</mediatype>
						<trackindex>4</trackindex>
						<clipindex>117</clipindex>
					</link>
					<link>
						<linkclipref>Michael101 2</linkclipref>
						<mediatype>audio</mediatype>
						<trackindex>5</trackindex>
						<clipindex>27</clipindex>
						<groupindex>1</groupindex>
					</link>
					<link>
						<linkclipref>Michael101 3</linkclipref>
						<mediatype>audio</mediatype>
						<trackindex>6</trackindex>
						<clipindex>27</clipindex>
						<groupindex>1</groupindex>
					</link>
					<itemhistory>
						<uuid>7230E037-6DD9-4DF2-BADF-98CF9FC51FE0</uuid>
						<uuid>177686A4-1198-4945-9E2B-AD03B37B28AA</uuid>
					</itemhistory>
				</clipitem>
				<clipitem id="Michael102 3">
					<name>Michael102</name>
					<duration>312</duration>
					<rate>
						<ntsc>FALSE</ntsc>
						<timebase>25</timebase>
					</rate>
					<in>0</in>
					<out>312</out>
					<start>133548</start>
					<end>133860</end>
					<logginginfo>
						<scene/>
						<shottake/>
						<lognote/>
						<good>FALSE</good>
					</logginginfo>
					<labels>
						<label2/>
					</labels>
					<comments>
						<mastercomment1/>
						<mastercomment2/>
						<mastercomment3/>
						<mastercomment4/>
					</comments>
					<file id="Michael102 1"/>
					<filter>
						<effect>
							<name>Audio Levels</name>
							<effectid>audiolevels</effectid>
							<effectcategory>audiolevels</effectcategory>
							<effecttype>audiolevels</effecttype>
							<mediatype>audio</mediatype>
							<parameter>
								<name>Level</name>
								<parameterid>level</parameterid>
								<valuemin>0</valuemin>
								<valuemax>3.98109</valuemax>
								<value>1</value>
							</parameter>
						</effect>
					</filter>
					<filter>
						<effect>
							<name>Audio Pan</name>
							<effectid>audiopan</effectid>
							<effectcategory>audiopan</effectcategory>
							<effecttype>audiopan</effecttype>
							<mediatype>audio</mediatype>
							<parameter>
								<name>Pan</name>
								<parameterid>pan</parameterid>
								<valuemin>-1</valuemin>
								<valuemax>1</valuemax>
								<value>1</value>
							</parameter>
						</effect>
					</filter>
					<sourcetrack>
						<mediatype>audio</mediatype>
						<trackindex>2</trackindex>
					</sourcetrack>
					<link>
						<linkclipref>Michael102 </linkclipref>
						<mediatype>video</mediatype>
						<trackindex>4</trackindex>
						<clipindex>118</clipindex>
					</link>
					<link>
						<linkclipref>Michael102 2</linkclipref>
						<mediatype>audio</mediatype>
						<trackindex>5</trackindex>
						<clipindex>28</clipindex>
						<groupindex>1</groupindex>
					</link>
					<link>
						<linkclipref>Michael102 3</linkclipref>
						<mediatype>audio</mediatype>
						<trackindex>6</trackindex>
						<clipindex>28</clipindex>
						<groupindex>1</groupindex>
					</link>
					<itemhistory>
						<uuid>11898896-6747-432D-A845-277E46C8ED99</uuid>
						<uuid>E66B16A8-BC2D-4714-ACC4-205FBC73C6F7</uuid>
					</itemhistory>
				</clipitem>
				<clipitem id="Michael103 3">
					<name>Michael103</name>
					<duration>264</duration>
					<rate>
						<ntsc>FALSE</ntsc>
						<timebase>25</timebase>
					</rate>
					<in>0</in>
					<out>264</out>
					<start>133860</start>
					<end>134124</end>
					<logginginfo>
						<scene/>
						<shottake/>
						<lognote/>
						<good>FALSE</good>
					</logginginfo>
					<labels>
						<label2/>
					</labels>
					<comments>
						<mastercomment1/>
						<mastercomment2/>
						<mastercomment3/>
						<mastercomment4/>
					</comments>
					<file id="Michael103 1"/>
					<filter>
						<effect>
							<name>Audio Levels</name>
							<effectid>audiolevels</effectid>
							<effectcategory>audiolevels</effectcategory>
							<effecttype>audiolevels</effecttype>
							<mediatype>audio</mediatype>
							<parameter>
								<name>Level</name>
								<parameterid>level</parameterid>
								<valuemin>0</valuemin>
								<valuemax>3.98109</valuemax>
								<value>1</value>
							</parameter>
						</effect>
					</filter>
					<filter>
						<effect>
							<name>Audio Pan</name>
							<effectid>audiopan</effectid>
							<effectcategory>audiopan</effectcategory>
							<effecttype>audiopan</effecttype>
							<mediatype>audio</mediatype>
							<parameter>
								<name>Pan</name>
								<parameterid>pan</parameterid>
								<valuemin>-1</valuemin>
								<valuemax>1</valuemax>
								<value>1</value>
							</parameter>
						</effect>
					</filter>
					<sourcetrack>
						<mediatype>audio</mediatype>
						<trackindex>2</trackindex>
					</sourcetrack>
					<link>
						<linkclipref>Michael103 </linkclipref>
						<mediatype>video</mediatype>
						<trackindex>4</trackindex>
						<clipindex>119</clipindex>
					</link>
					<link>
						<linkclipref>Michael103 2</linkclipref>
						<mediatype>audio</mediatype>
						<trackindex>5</trackindex>
						<clipindex>29</clipindex>
						<groupindex>1</groupindex>
					</link>
					<link>
						<linkclipref>Michael103 3</linkclipref>
						<mediatype>audio</mediatype>
						<trackindex>6</trackindex>
						<clipindex>29</clipindex>
						<groupindex>1</groupindex>
					</link>
					<itemhistory>
						<uuid>1E49C925-4D8A-48DB-87C7-E94085D04F38</uuid>
						<uuid>DC38A245-DDFF-4973-92D2-565560C2DAAD</uuid>
					</itemhistory>
				</clipitem>
				<clipitem id="Michael104Subclipa3">
					<name>Michael104Subclipa</name>
					<duration>249</duration>
					<rate>
						<ntsc>FALSE</ntsc>
						<timebase>25</timebase>
					</rate>
					<in>0</in>
					<out>249</out>
					<start>134124</start>
					<end>134373</end>
					<logginginfo>
						<scene/>
						<shottake/>
						<lognote/>
						<good>FALSE</good>
					</logginginfo>
					<labels>
						<label2/>
					</labels>
					<comments>
						<mastercomment1/>
						<mastercomment2/>
						<mastercomment3/>
						<mastercomment4/>
					</comments>
					<file id="Michael104Subclipa1"/>
					<filter>
						<effect>
							<name>Audio Levels</name>
							<effectid>audiolevels</effectid>
							<effectcategory>audiolevels</effectcategory>
							<effecttype>audiolevels</effecttype>
							<mediatype>audio</mediatype>
							<parameter>
								<name>Level</name>
								<parameterid>level</parameterid>
								<valuemin>0</valuemin>
								<valuemax>3.98109</valuemax>
								<value>1</value>
							</parameter>
						</effect>
					</filter>
					<filter>
						<effect>
							<name>Audio Pan</name>
							<effectid>audiopan</effectid>
							<effectcategory>audiopan</effectcategory>
							<effecttype>audiopan</effecttype>
							<mediatype>audio</mediatype>
							<parameter>
								<name>Pan</name>
								<parameterid>pan</parameterid>
								<valuemin>-1</valuemin>
								<valuemax>1</valuemax>
								<value>1</value>
							</parameter>
						</effect>
					</filter>
					<sourcetrack>
						<mediatype>audio</mediatype>
						<trackindex>2</trackindex>
					</sourcetrack>
					<link>
						<linkclipref>Michael104Subclipa</linkclipref>
						<mediatype>video</mediatype>
						<trackindex>4</trackindex>
						<clipindex>120</clipindex>
					</link>
					<link>
						<linkclipref>Michael104Subclipa2</linkclipref>
						<mediatype>audio</mediatype>
						<trackindex>5</trackindex>
						<clipindex>30</clipindex>
						<groupindex>1</groupindex>
					</link>
					<link>
						<linkclipref>Michael104Subclipa3</linkclipref>
						<mediatype>audio</mediatype>
						<trackindex>6</trackindex>
						<clipindex>30</clipindex>
						<groupindex>1</groupindex>
					</link>
					<itemhistory>
						<uuid>298026EF-9498-4165-B4F3-EBC17449BFF6</uuid>
						<uuid>6EAE9897-F215-42E3-B656-BC540322D0B2</uuid>
					</itemhistory>
				</clipitem>
				<clipitem id="Michael104Subclipb3">
					<name>Michael104Subclipb</name>
					<duration>503</duration>
					<rate>
						<ntsc>FALSE</ntsc>
						<timebase>25</timebase>
					</rate>
					<in>0</in>
					<out>503</out>
					<start>134373</start>
					<end>134876</end>
					<logginginfo>
						<scene/>
						<shottake/>
						<lognote/>
						<good>FALSE</good>
					</logginginfo>
					<labels>
						<label2/>
					</labels>
					<comments>
						<mastercomment1/>
						<mastercomment2/>
						<mastercomment3/>
						<mastercomment4/>
					</comments>
					<file id="Michael104Subclipb1"/>
					<filter>
						<effect>
							<name>Audio Levels</name>
							<effectid>audiolevels</effectid>
							<effectcategory>audiolevels</effectcategory>
							<effecttype>audiolevels</effecttype>
							<mediatype>audio</mediatype>
							<parameter>
								<name>Level</name>
								<parameterid>level</parameterid>
								<valuemin>0</valuemin>
								<valuemax>3.98109</valuemax>
								<value>1</value>
							</parameter>
						</effect>
					</filter>
					<filter>
						<effect>
							<name>Audio Pan</name>
							<effectid>audiopan</effectid>
							<effectcategory>audiopan</effectcategory>
							<effecttype>audiopan</effecttype>
							<mediatype>audio</mediatype>
							<parameter>
								<name>Pan</name>
								<parameterid>pan</parameterid>
								<valuemin>-1</valuemin>
								<valuemax>1</valuemax>
								<value>1</value>
							</parameter>
						</effect>
					</filter>
					<sourcetrack>
						<mediatype>audio</mediatype>
						<trackindex>2</trackindex>
					</sourcetrack>
					<link>
						<linkclipref>Michael104Subclipb</linkclipref>
						<mediatype>video</mediatype>
						<trackindex>4</trackindex>
						<clipindex>121</clipindex>
					</link>
					<link>
						<linkclipref>Michael104Subclipb2</linkclipref>
						<mediatype>audio</mediatype>
						<trackindex>5</trackindex>
						<clipindex>31</clipindex>
						<groupindex>1</groupindex>
					</link>
					<link>
						<linkclipref>Michael104Subclipb3</linkclipref>
						<mediatype>audio</mediatype>
						<trackindex>6</trackindex>
						<clipindex>31</clipindex>
						<groupindex>1</groupindex>
					</link>
					<itemhistory>
						<uuid>9DD17390-7592-4CEE-B6D1-612DBF27847D</uuid>
						<uuid>3B506010-B1A1-49D7-AEFF-C08FCA16797E</uuid>
					</itemhistory>
				</clipitem>
				<clipitem id="Michael104Subclipc3">
					<name>Michael104Subclipc</name>
					<duration>174</duration>
					<rate>
						<ntsc>FALSE</ntsc>
						<timebase>25</timebase>
					</rate>
					<in>0</in>
					<out>174</out>
					<start>134876</start>
					<end>135050</end>
					<logginginfo>
						<scene/>
						<shottake/>
						<lognote/>
						<good>FALSE</good>
					</logginginfo>
					<labels>
						<label2/>
					</labels>
					<comments>
						<mastercomment1/>
						<mastercomment2/>
						<mastercomment3/>
						<mastercomment4/>
					</comments>
					<file id="Michael104Subclipc1"/>
					<filter>
						<effect>
							<name>Audio Levels</name>
							<effectid>audiolevels</effectid>
							<effectcategory>audiolevels</effectcategory>
							<effecttype>audiolevels</effecttype>
							<mediatype>audio</mediatype>
							<parameter>
								<name>Level</name>
								<parameterid>level</parameterid>
								<valuemin>0</valuemin>
								<valuemax>3.98109</valuemax>
								<value>1</value>
							</parameter>
						</effect>
					</filter>
					<filter>
						<effect>
							<name>Audio Pan</name>
							<effectid>audiopan</effectid>
							<effectcategory>audiopan</effectcategory>
							<effecttype>audiopan</effecttype>
							<mediatype>audio</mediatype>
							<parameter>
								<name>Pan</name>
								<parameterid>pan</parameterid>
								<valuemin>-1</valuemin>
								<valuemax>1</valuemax>
								<value>1</value>
							</parameter>
						</effect>
					</filter>
					<sourcetrack>
						<mediatype>audio</mediatype>
						<trackindex>2</trackindex>
					</sourcetrack>
					<link>
						<linkclipref>Michael104Subclipc</linkclipref>
						<mediatype>video</mediatype>
						<trackindex>4</trackindex>
						<clipindex>122</clipindex>
					</link>
					<link>
						<linkclipref>Michael104Subclipc2</linkclipref>
						<mediatype>audio</mediatype>
						<trackindex>5</trackindex>
						<clipindex>32</clipindex>
						<groupindex>1</groupindex>
					</link>
					<link>
						<linkclipref>Michael104Subclipc3</linkclipref>
						<mediatype>audio</mediatype>
						<trackindex>6</trackindex>
						<clipindex>32</clipindex>
						<groupindex>1</groupindex>
					</link>
					<itemhistory>
						<uuid>D79B68F3-7F20-473B-830E-E5E21DD107BE</uuid>
						<uuid>021B518C-8199-47B4-9311-17DE8FC6B878</uuid>
					</itemhistory>
				</clipitem>
				<clipitem id="Michael105 3">
					<name>Michael105</name>
					<duration>216</duration>
					<rate>
						<ntsc>FALSE</ntsc>
						<timebase>25</timebase>
					</rate>
					<in>0</in>
					<out>216</out>
					<start>135050</start>
					<end>135266</end>
					<logginginfo>
						<scene/>
						<shottake/>
						<lognote/>
						<good>FALSE</good>
					</logginginfo>
					<labels>
						<label2/>
					</labels>
					<comments>
						<mastercomment1/>
						<mastercomment2/>
						<mastercomment3/>
						<mastercomment4/>
					</comments>
					<file id="Michael105 1"/>
					<filter>
						<effect>
							<name>Audio Levels</name>
							<effectid>audiolevels</effectid>
							<effectcategory>audiolevels</effectcategory>
							<effecttype>audiolevels</effecttype>
							<mediatype>audio</mediatype>
							<parameter>
								<name>Level</name>
								<parameterid>level</parameterid>
								<valuemin>0</valuemin>
								<valuemax>3.98109</valuemax>
								<value>1</value>
							</parameter>
						</effect>
					</filter>
					<filter>
						<effect>
							<name>Audio Pan</name>
							<effectid>audiopan</effectid>
							<effectcategory>audiopan</effectcategory>
							<effecttype>audiopan</effecttype>
							<mediatype>audio</mediatype>
							<parameter>
								<name>Pan</name>
								<parameterid>pan</parameterid>
								<valuemin>-1</valuemin>
								<valuemax>1</valuemax>
								<value>1</value>
							</parameter>
						</effect>
					</filter>
					<sourcetrack>
						<mediatype>audio</mediatype>
						<trackindex>2</trackindex>
					</sourcetrack>
					<link>
						<linkclipref>Michael105 </linkclipref>
						<mediatype>video</mediatype>
						<trackindex>4</trackindex>
						<clipindex>123</clipindex>
					</link>
					<link>
						<linkclipref>Michael105 2</linkclipref>
						<mediatype>audio</mediatype>
						<trackindex>5</trackindex>
						<clipindex>33</clipindex>
						<groupindex>1</groupindex>
					</link>
					<link>
						<linkclipref>Michael105 3</linkclipref>
						<mediatype>audio</mediatype>
						<trackindex>6</trackindex>
						<clipindex>33</clipindex>
						<groupindex>1</groupindex>
					</link>
					<itemhistory>
						<uuid>78CDDB00-6686-45EA-9736-A45559D0D906</uuid>
						<uuid>599E8E7B-E38E-40E6-918A-84DE9DE4AAB5</uuid>
					</itemhistory>
				</clipitem>
				<clipitem id="Michael106 3">
					<name>Michael106</name>
					<duration>432</duration>
					<rate>
						<ntsc>FALSE</ntsc>
						<timebase>25</timebase>
					</rate>
					<in>0</in>
					<out>432</out>
					<start>135266</start>
					<end>135698</end>
					<logginginfo>
						<scene/>
						<shottake/>
						<lognote/>
						<good>FALSE</good>
					</logginginfo>
					<labels>
						<label2/>
					</labels>
					<comments>
						<mastercomment1/>
						<mastercomment2/>
						<mastercomment3/>
						<mastercomment4/>
					</comments>
					<file id="Michael106 1"/>
					<filter>
						<effect>
							<name>Audio Levels</name>
							<effectid>audiolevels</effectid>
							<effectcategory>audiolevels</effectcategory>
							<effecttype>audiolevels</effecttype>
							<mediatype>audio</mediatype>
							<parameter>
								<name>Level</name>
								<parameterid>level</parameterid>
								<valuemin>0</valuemin>
								<valuemax>3.98109</valuemax>
								<value>1</value>
							</parameter>
						</effect>
					</filter>
					<filter>
						<effect>
							<name>Audio Pan</name>
							<effectid>audiopan</effectid>
							<effectcategory>audiopan</effectcategory>
							<effecttype>audiopan</effecttype>
							<mediatype>audio</mediatype>
							<parameter>
								<name>Pan</name>
								<parameterid>pan</parameterid>
								<valuemin>-1</valuemin>
								<valuemax>1</valuemax>
								<value>1</value>
							</parameter>
						</effect>
					</filter>
					<sourcetrack>
						<mediatype>audio</mediatype>
						<trackindex>2</trackindex>
					</sourcetrack>
					<link>
						<linkclipref>Michael106 </linkclipref>
						<mediatype>video</mediatype>
						<trackindex>4</trackindex>
						<clipindex>124</clipindex>
					</link>
					<link>
						<linkclipref>Michael106 2</linkclipref>
						<mediatype>audio</mediatype>
						<trackindex>5</trackindex>
						<clipindex>34</clipindex>
						<groupindex>1</groupindex>
					</link>
					<link>
						<linkclipref>Michael106 3</linkclipref>
						<mediatype>audio</mediatype>
						<trackindex>6</trackindex>
						<clipindex>34</clipindex>
						<groupindex>1</groupindex>
					</link>
					<itemhistory>
						<uuid>BA134CA6-E180-4F4B-8D09-1658CD8EDBF8</uuid>
						<uuid>58113ADD-F237-470C-B1B1-F657D3EADD39</uuid>
					</itemhistory>
				</clipitem>
				<clipitem id="Michael107Subclipa3">
					<name>Michael107Subclipa</name>
					<duration>1179</duration>
					<rate>
						<ntsc>FALSE</ntsc>
						<timebase>25</timebase>
					</rate>
					<in>0</in>
					<out>1179</out>
					<start>135698</start>
					<end>136877</end>
					<logginginfo>
						<scene/>
						<shottake/>
						<lognote/>
						<good>FALSE</good>
					</logginginfo>
					<labels>
						<label2/>
					</labels>
					<comments>
						<mastercomment1/>
						<mastercomment2/>
						<mastercomment3/>
						<mastercomment4/>
					</comments>
					<file id="Michael107Subclipa1"/>
					<filter>
						<effect>
							<name>Audio Levels</name>
							<effectid>audiolevels</effectid>
							<effectcategory>audiolevels</effectcategory>
							<effecttype>audiolevels</effecttype>
							<mediatype>audio</mediatype>
							<parameter>
								<name>Level</name>
								<parameterid>level</parameterid>
								<valuemin>0</valuemin>
								<valuemax>3.98109</valuemax>
								<value>1</value>
							</parameter>
						</effect>
					</filter>
					<filter>
						<effect>
							<name>Audio Pan</name>
							<effectid>audiopan</effectid>
							<effectcategory>audiopan</effectcategory>
							<effecttype>audiopan</effecttype>
							<mediatype>audio</mediatype>
							<parameter>
								<name>Pan</name>
								<parameterid>pan</parameterid>
								<valuemin>-1</valuemin>
								<valuemax>1</valuemax>
								<value>1</value>
							</parameter>
						</effect>
					</filter>
					<sourcetrack>
						<mediatype>audio</mediatype>
						<trackindex>2</trackindex>
					</sourcetrack>
					<link>
						<linkclipref>Michael107Subclipa</linkclipref>
						<mediatype>video</mediatype>
						<trackindex>4</trackindex>
						<clipindex>125</clipindex>
					</link>
					<link>
						<linkclipref>Michael107Subclipa2</linkclipref>
						<mediatype>audio</mediatype>
						<trackindex>5</trackindex>
						<clipindex>35</clipindex>
						<groupindex>1</groupindex>
					</link>
					<link>
						<linkclipref>Michael107Subclipa3</linkclipref>
						<mediatype>audio</mediatype>
						<trackindex>6</trackindex>
						<clipindex>35</clipindex>
						<groupindex>1</groupindex>
					</link>
					<itemhistory>
						<uuid>5645D080-C155-49B2-AD38-F86E823A5CF2</uuid>
						<uuid>5EF34101-3CEA-4981-A2A8-A8F066F7BC6C</uuid>
					</itemhistory>
				</clipitem>
				<clipitem id="Michael107Subclipb3">
					<name>Michael107Subclipb</name>
					<duration>274</duration>
					<rate>
						<ntsc>FALSE</ntsc>
						<timebase>25</timebase>
					</rate>
					<in>0</in>
					<out>274</out>
					<start>136877</start>
					<end>137151</end>
					<logginginfo>
						<scene/>
						<shottake/>
						<lognote/>
						<good>FALSE</good>
					</logginginfo>
					<labels>
						<label2/>
					</labels>
					<comments>
						<mastercomment1/>
						<mastercomment2/>
						<mastercomment3/>
						<mastercomment4/>
					</comments>
					<file id="Michael107Subclipb1"/>
					<filter>
						<effect>
							<name>Audio Levels</name>
							<effectid>audiolevels</effectid>
							<effectcategory>audiolevels</effectcategory>
							<effecttype>audiolevels</effecttype>
							<mediatype>audio</mediatype>
							<parameter>
								<name>Level</name>
								<parameterid>level</parameterid>
								<valuemin>0</valuemin>
								<valuemax>3.98109</valuemax>
								<value>1</value>
							</parameter>
						</effect>
					</filter>
					<filter>
						<effect>
							<name>Audio Pan</name>
							<effectid>audiopan</effectid>
							<effectcategory>audiopan</effectcategory>
							<effecttype>audiopan</effecttype>
							<mediatype>audio</mediatype>
							<parameter>
								<name>Pan</name>
								<parameterid>pan</parameterid>
								<valuemin>-1</valuemin>
								<valuemax>1</valuemax>
								<value>1</value>
							</parameter>
						</effect>
					</filter>
					<sourcetrack>
						<mediatype>audio</mediatype>
						<trackindex>2</trackindex>
					</sourcetrack>
					<link>
						<linkclipref>Michael107Subclipb</linkclipref>
						<mediatype>video</mediatype>
						<trackindex>4</trackindex>
						<clipindex>126</clipindex>
					</link>
					<link>
						<linkclipref>Michael107Subclipb2</linkclipref>
						<mediatype>audio</mediatype>
						<trackindex>5</trackindex>
						<clipindex>36</clipindex>
						<groupindex>1</groupindex>
					</link>
					<link>
						<linkclipref>Michael107Subclipb3</linkclipref>
						<mediatype>audio</mediatype>
						<trackindex>6</trackindex>
						<clipindex>36</clipindex>
						<groupindex>1</groupindex>
					</link>
					<itemhistory>
						<uuid>84F09A5C-7234-484F-BED7-D2F8CD8EE2A3</uuid>
						<uuid>5BE6E5E6-592F-427D-B371-F65D237FF3DD</uuid>
					</itemhistory>
				</clipitem>
				<enabled>TRUE</enabled>
				<locked>FALSE</locked>
				<outputchannelindex>2</outputchannelindex>
			</track>
			<track>
				<clipitem id="Rodrigo001 2">
					<name>Rodrigo001</name>
					<duration>888</duration>
					<rate>
						<ntsc>FALSE</ntsc>
						<timebase>25</timebase>
					</rate>
					<in>0</in>
					<out>888</out>
					<start>10678</start>
					<end>11566</end>
					<logginginfo>
						<scene/>
						<shottake/>
						<lognote/>
						<good>FALSE</good>
					</logginginfo>
					<labels>
						<label2/>
					</labels>
					<comments>
						<mastercomment1/>
						<mastercomment2/>
						<mastercomment3/>
						<mastercomment4/>
					</comments>
					<file id="Rodrigo001 1"/>
					<filter>
						<effect>
							<name>Audio Levels</name>
							<effectid>audiolevels</effectid>
							<effectcategory>audiolevels</effectcategory>
							<effecttype>audiolevels</effecttype>
							<mediatype>audio</mediatype>
							<parameter>
								<name>Level</name>
								<parameterid>level</parameterid>
								<valuemin>0</valuemin>
								<valuemax>3.98109</valuemax>
								<value>1</value>
							</parameter>
						</effect>
					</filter>
					<filter>
						<effect>
							<name>Audio Pan</name>
							<effectid>audiopan</effectid>
							<effectcategory>audiopan</effectcategory>
							<effecttype>audiopan</effecttype>
							<mediatype>audio</mediatype>
							<parameter>
								<name>Pan</name>
								<parameterid>pan</parameterid>
								<valuemin>-1</valuemin>
								<valuemax>1</valuemax>
								<value>0</value>
							</parameter>
						</effect>
					</filter>
					<sourcetrack>
						<mediatype>audio</mediatype>
						<trackindex>1</trackindex>
					</sourcetrack>
					<link>
						<linkclipref>Rodrigo001 </linkclipref>
						<mediatype>video</mediatype>
						<trackindex>5</trackindex>
						<clipindex>1</clipindex>
					</link>
					<link>
						<linkclipref>Rodrigo001 2</linkclipref>
						<mediatype>audio</mediatype>
						<trackindex>7</trackindex>
						<clipindex>1</clipindex>
					</link>
					<link>
						<linkclipref>Rodrigo001 3</linkclipref>
						<mediatype>audio</mediatype>
						<trackindex>8</trackindex>
						<clipindex>1</clipindex>
					</link>
					<itemhistory>
						<uuid>1C1399FF-BF16-4ECD-B892-1791A9ABFE4B</uuid>
						<uuid>57111613-0A72-41F2-97EB-C56A29AD6546</uuid>
					</itemhistory>
				</clipitem>
				<clipitem id="Rodrigo002 2">
					<name>Rodrigo002</name>
					<duration>750</duration>
					<rate>
						<ntsc>FALSE</ntsc>
						<timebase>25</timebase>
					</rate>
					<in>0</in>
					<out>750</out>
					<start>11566</start>
					<end>12316</end>
					<logginginfo>
						<scene/>
						<shottake/>
						<lognote/>
						<good>FALSE</good>
					</logginginfo>
					<labels>
						<label2/>
					</labels>
					<comments>
						<mastercomment1/>
						<mastercomment2/>
						<mastercomment3/>
						<mastercomment4/>
					</comments>
					<file id="Rodrigo002 1"/>
					<filter>
						<effect>
							<name>Audio Levels</name>
							<effectid>audiolevels</effectid>
							<effectcategory>audiolevels</effectcategory>
							<effecttype>audiolevels</effecttype>
							<mediatype>audio</mediatype>
							<parameter>
								<name>Level</name>
								<parameterid>level</parameterid>
								<valuemin>0</valuemin>
								<valuemax>3.98109</valuemax>
								<value>1</value>
							</parameter>
						</effect>
					</filter>
					<filter>
						<effect>
							<name>Audio Pan</name>
							<effectid>audiopan</effectid>
							<effectcategory>audiopan</effectcategory>
							<effecttype>audiopan</effecttype>
							<mediatype>audio</mediatype>
							<parameter>
								<name>Pan</name>
								<parameterid>pan</parameterid>
								<valuemin>-1</valuemin>
								<valuemax>1</valuemax>
								<value>0</value>
							</parameter>
						</effect>
					</filter>
					<sourcetrack>
						<mediatype>audio</mediatype>
						<trackindex>1</trackindex>
					</sourcetrack>
					<link>
						<linkclipref>Rodrigo002 </linkclipref>
						<mediatype>video</mediatype>
						<trackindex>5</trackindex>
						<clipindex>2</clipindex>
					</link>
					<link>
						<linkclipref>Rodrigo002 2</linkclipref>
						<mediatype>audio</mediatype>
						<trackindex>7</trackindex>
						<clipindex>2</clipindex>
					</link>
					<link>
						<linkclipref>Rodrigo002 3</linkclipref>
						<mediatype>audio</mediatype>
						<trackindex>8</trackindex>
						<clipindex>2</clipindex>
					</link>
					<itemhistory>
						<uuid>8130525A-54BB-44AE-ABC9-D1F54B28F22E</uuid>
						<uuid>EEB6B5C5-1128-4F65-BD33-0ACEE1F95338</uuid>
					</itemhistory>
				</clipitem>
				<clipitem id="Rodrigo003 2">
					<name>Rodrigo003</name>
					<duration>375</duration>
					<rate>
						<ntsc>FALSE</ntsc>
						<timebase>25</timebase>
					</rate>
					<in>0</in>
					<out>375</out>
					<start>12316</start>
					<end>12691</end>
					<logginginfo>
						<scene/>
						<shottake/>
						<lognote/>
						<good>FALSE</good>
					</logginginfo>
					<labels>
						<label2/>
					</labels>
					<comments>
						<mastercomment1/>
						<mastercomment2/>
						<mastercomment3/>
						<mastercomment4/>
					</comments>
					<file id="Rodrigo003 1"/>
					<filter>
						<effect>
							<name>Audio Levels</name>
							<effectid>audiolevels</effectid>
							<effectcategory>audiolevels</effectcategory>
							<effecttype>audiolevels</effecttype>
							<mediatype>audio</mediatype>
							<parameter>
								<name>Level</name>
								<parameterid>level</parameterid>
								<valuemin>0</valuemin>
								<valuemax>3.98109</valuemax>
								<value>1</value>
							</parameter>
						</effect>
					</filter>
					<filter>
						<effect>
							<name>Audio Pan</name>
							<effectid>audiopan</effectid>
							<effectcategory>audiopan</effectcategory>
							<effecttype>audiopan</effecttype>
							<mediatype>audio</mediatype>
							<parameter>
								<name>Pan</name>
								<parameterid>pan</parameterid>
								<valuemin>-1</valuemin>
								<valuemax>1</valuemax>
								<value>0</value>
							</parameter>
						</effect>
					</filter>
					<sourcetrack>
						<mediatype>audio</mediatype>
						<trackindex>1</trackindex>
					</sourcetrack>
					<link>
						<linkclipref>Rodrigo003 </linkclipref>
						<mediatype>video</mediatype>
						<trackindex>5</trackindex>
						<clipindex>3</clipindex>
					</link>
					<link>
						<linkclipref>Rodrigo003 2</linkclipref>
						<mediatype>audio</mediatype>
						<trackindex>7</trackindex>
						<clipindex>3</clipindex>
					</link>
					<link>
						<linkclipref>Rodrigo003 3</linkclipref>
						<mediatype>audio</mediatype>
						<trackindex>8</trackindex>
						<clipindex>3</clipindex>
					</link>
					<itemhistory>
						<uuid>0695D299-4E70-4FDE-81BA-1A22D96DA69B</uuid>
						<uuid>7BF35D4A-7ECD-4D3E-AD89-DCEDA4BC3AC1</uuid>
					</itemhistory>
				</clipitem>
				<enabled>FALSE</enabled>
				<locked>FALSE</locked>
				<outputchannelindex>1</outputchannelindex>
			</track>
			<track>
				<clipitem id="Rodrigo001 3">
					<name>Rodrigo001</name>
					<duration>888</duration>
					<rate>
						<ntsc>FALSE</ntsc>
						<timebase>25</timebase>
					</rate>
					<in>0</in>
					<out>888</out>
					<start>10678</start>
					<end>11566</end>
					<logginginfo>
						<scene/>
						<shottake/>
						<lognote/>
						<good>FALSE</good>
					</logginginfo>
					<labels>
						<label2/>
					</labels>
					<comments>
						<mastercomment1/>
						<mastercomment2/>
						<mastercomment3/>
						<mastercomment4/>
					</comments>
					<file id="Rodrigo001 1"/>
					<filter>
						<effect>
							<name>Audio Levels</name>
							<effectid>audiolevels</effectid>
							<effectcategory>audiolevels</effectcategory>
							<effecttype>audiolevels</effecttype>
							<mediatype>audio</mediatype>
							<parameter>
								<name>Level</name>
								<parameterid>level</parameterid>
								<valuemin>0</valuemin>
								<valuemax>3.98109</valuemax>
								<value>1</value>
							</parameter>
						</effect>
					</filter>
					<filter>
						<effect>
							<name>Audio Pan</name>
							<effectid>audiopan</effectid>
							<effectcategory>audiopan</effectcategory>
							<effecttype>audiopan</effecttype>
							<mediatype>audio</mediatype>
							<parameter>
								<name>Pan</name>
								<parameterid>pan</parameterid>
								<valuemin>-1</valuemin>
								<valuemax>1</valuemax>
								<value>0</value>
							</parameter>
						</effect>
					</filter>
					<sourcetrack>
						<mediatype>audio</mediatype>
						<trackindex>2</trackindex>
					</sourcetrack>
					<link>
						<linkclipref>Rodrigo001 </linkclipref>
						<mediatype>video</mediatype>
						<trackindex>5</trackindex>
						<clipindex>1</clipindex>
					</link>
					<link>
						<linkclipref>Rodrigo001 2</linkclipref>
						<mediatype>audio</mediatype>
						<trackindex>7</trackindex>
						<clipindex>1</clipindex>
					</link>
					<link>
						<linkclipref>Rodrigo001 3</linkclipref>
						<mediatype>audio</mediatype>
						<trackindex>8</trackindex>
						<clipindex>1</clipindex>
					</link>
					<itemhistory>
						<uuid>59030988-A960-4AAE-BE62-84A8A182C019</uuid>
						<uuid>EDDA04B3-7ADF-4AC5-948B-1147767D872F</uuid>
					</itemhistory>
				</clipitem>
				<clipitem id="Rodrigo002 3">
					<name>Rodrigo002</name>
					<duration>750</duration>
					<rate>
						<ntsc>FALSE</ntsc>
						<timebase>25</timebase>
					</rate>
					<in>0</in>
					<out>750</out>
					<start>11566</start>
					<end>12316</end>
					<logginginfo>
						<scene/>
						<shottake/>
						<lognote/>
						<good>FALSE</good>
					</logginginfo>
					<labels>
						<label2/>
					</labels>
					<comments>
						<mastercomment1/>
						<mastercomment2/>
						<mastercomment3/>
						<mastercomment4/>
					</comments>
					<file id="Rodrigo002 1"/>
					<filter>
						<effect>
							<name>Audio Levels</name>
							<effectid>audiolevels</effectid>
							<effectcategory>audiolevels</effectcategory>
							<effecttype>audiolevels</effecttype>
							<mediatype>audio</mediatype>
							<parameter>
								<name>Level</name>
								<parameterid>level</parameterid>
								<valuemin>0</valuemin>
								<valuemax>3.98109</valuemax>
								<value>1</value>
							</parameter>
						</effect>
					</filter>
					<filter>
						<effect>
							<name>Audio Pan</name>
							<effectid>audiopan</effectid>
							<effectcategory>audiopan</effectcategory>
							<effecttype>audiopan</effecttype>
							<mediatype>audio</mediatype>
							<parameter>
								<name>Pan</name>
								<parameterid>pan</parameterid>
								<valuemin>-1</valuemin>
								<valuemax>1</valuemax>
								<value>0</value>
							</parameter>
						</effect>
					</filter>
					<sourcetrack>
						<mediatype>audio</mediatype>
						<trackindex>2</trackindex>
					</sourcetrack>
					<link>
						<linkclipref>Rodrigo002 </linkclipref>
						<mediatype>video</mediatype>
						<trackindex>5</trackindex>
						<clipindex>2</clipindex>
					</link>
					<link>
						<linkclipref>Rodrigo002 2</linkclipref>
						<mediatype>audio</mediatype>
						<trackindex>7</trackindex>
						<clipindex>2</clipindex>
					</link>
					<link>
						<linkclipref>Rodrigo002 3</linkclipref>
						<mediatype>audio</mediatype>
						<trackindex>8</trackindex>
						<clipindex>2</clipindex>
					</link>
					<itemhistory>
						<uuid>070C376F-035C-4A72-B64F-520A758499E7</uuid>
						<uuid>0BA19776-A6D6-418E-B6BE-ED5323A9C237</uuid>
					</itemhistory>
				</clipitem>
				<clipitem id="Rodrigo003 3">
					<name>Rodrigo003</name>
					<duration>375</duration>
					<rate>
						<ntsc>FALSE</ntsc>
						<timebase>25</timebase>
					</rate>
					<in>0</in>
					<out>375</out>
					<start>12316</start>
					<end>12691</end>
					<logginginfo>
						<scene/>
						<shottake/>
						<lognote/>
						<good>FALSE</good>
					</logginginfo>
					<labels>
						<label2/>
					</labels>
					<comments>
						<mastercomment1/>
						<mastercomment2/>
						<mastercomment3/>
						<mastercomment4/>
					</comments>
					<file id="Rodrigo003 1"/>
					<filter>
						<effect>
							<name>Audio Levels</name>
							<effectid>audiolevels</effectid>
							<effectcategory>audiolevels</effectcategory>
							<effecttype>audiolevels</effecttype>
							<mediatype>audio</mediatype>
							<parameter>
								<name>Level</name>
								<parameterid>level</parameterid>
								<valuemin>0</valuemin>
								<valuemax>3.98109</valuemax>
								<value>1</value>
							</parameter>
						</effect>
					</filter>
					<filter>
						<effect>
							<name>Audio Pan</name>
							<effectid>audiopan</effectid>
							<effectcategory>audiopan</effectcategory>
							<effecttype>audiopan</effecttype>
							<mediatype>audio</mediatype>
							<parameter>
								<name>Pan</name>
								<parameterid>pan</parameterid>
								<valuemin>-1</valuemin>
								<valuemax>1</valuemax>
								<value>0</value>
							</parameter>
						</effect>
					</filter>
					<sourcetrack>
						<mediatype>audio</mediatype>
						<trackindex>2</trackindex>
					</sourcetrack>
					<link>
						<linkclipref>Rodrigo003 </linkclipref>
						<mediatype>video</mediatype>
						<trackindex>5</trackindex>
						<clipindex>3</clipindex>
					</link>
					<link>
						<linkclipref>Rodrigo003 2</linkclipref>
						<mediatype>audio</mediatype>
						<trackindex>7</trackindex>
						<clipindex>3</clipindex>
					</link>
					<link>
						<linkclipref>Rodrigo003 3</linkclipref>
						<mediatype>audio</mediatype>
						<trackindex>8</trackindex>
						<clipindex>3</clipindex>
					</link>
					<itemhistory>
						<uuid>AE814FCE-412A-4761-AA47-9291EAD994B3</uuid>
						<uuid>11A6E4CE-AAA7-4B8A-BBE5-AB359D75C70D</uuid>
					</itemhistory>
				</clipitem>
				<enabled>FALSE</enabled>
				<locked>FALSE</locked>
				<outputchannelindex>2</outputchannelindex>
			</track>
			<track>
				<clipitem id="AndrewLord006Subclipa2">
					<name>AndrewLord006Subclipa</name>
					<duration>181</duration>
					<rate>
						<ntsc>FALSE</ntsc>
						<timebase>25</timebase>
					</rate>
					<in>0</in>
					<out>181</out>
					<start>622</start>
					<end>803</end>
					<logginginfo>
						<scene/>
						<shottake/>
						<lognote/>
						<good>FALSE</good>
					</logginginfo>
					<labels>
						<label2/>
					</labels>
					<comments>
						<mastercomment1/>
						<mastercomment2/>
						<mastercomment3/>
						<mastercomment4/>
					</comments>
					<file id="AndrewLord006Subclipa1"/>
					<filter>
						<effect>
							<name>Audio Levels</name>
							<effectid>audiolevels</effectid>
							<effectcategory>audiolevels</effectcategory>
							<effecttype>audiolevels</effecttype>
							<mediatype>audio</mediatype>
							<parameter>
								<name>Level</name>
								<parameterid>level</parameterid>
								<valuemin>0</valuemin>
								<valuemax>3.98109</valuemax>
								<value>1</value>
							</parameter>
						</effect>
					</filter>
					<filter>
						<effect>
							<name>Audio Pan</name>
							<effectid>audiopan</effectid>
							<effectcategory>audiopan</effectcategory>
							<effecttype>audiopan</effecttype>
							<mediatype>audio</mediatype>
							<parameter>
								<name>Pan</name>
								<parameterid>pan</parameterid>
								<valuemin>-1</valuemin>
								<valuemax>1</valuemax>
								<value>-1</value>
							</parameter>
						</effect>
					</filter>
					<sourcetrack>
						<mediatype>audio</mediatype>
						<trackindex>1</trackindex>
					</sourcetrack>
					<link>
						<linkclipref>AndrewLord006Subclipa</linkclipref>
						<mediatype>video</mediatype>
						<trackindex>7</trackindex>
						<clipindex>1</clipindex>
					</link>
					<link>
						<linkclipref>AndrewLord006Subclipa2</linkclipref>
						<mediatype>audio</mediatype>
						<trackindex>9</trackindex>
						<clipindex>1</clipindex>
						<groupindex>1</groupindex>
					</link>
					<link>
						<linkclipref>AndrewLord006Subclipa3</linkclipref>
						<mediatype>audio</mediatype>
						<trackindex>10</trackindex>
						<clipindex>1</clipindex>
						<groupindex>1</groupindex>
					</link>
					<itemhistory>
						<uuid>69D12A0C-CF11-4A3D-8BDC-A28837951F41</uuid>
						<uuid>DFC9CF87-47A5-462A-AF48-3E7B9A56A7E7</uuid>
					</itemhistory>
				</clipitem>
				<clipitem id="AndrewLord007Subclipa2">
					<name>AndrewLord007Subclipa</name>
					<duration>112</duration>
					<rate>
						<ntsc>FALSE</ntsc>
						<timebase>25</timebase>
					</rate>
					<in>0</in>
					<out>112</out>
					<start>803</start>
					<end>915</end>
					<logginginfo>
						<scene/>
						<shottake/>
						<lognote/>
						<good>FALSE</good>
					</logginginfo>
					<labels>
						<label2/>
					</labels>
					<comments>
						<mastercomment1/>
						<mastercomment2/>
						<mastercomment3/>
						<mastercomment4/>
					</comments>
					<file id="AndrewLord007Subclipa1"/>
					<filter>
						<effect>
							<name>Audio Levels</name>
							<effectid>audiolevels</effectid>
							<effectcategory>audiolevels</effectcategory>
							<effecttype>audiolevels</effecttype>
							<mediatype>audio</mediatype>
							<parameter>
								<name>Level</name>
								<parameterid>level</parameterid>
								<valuemin>0</valuemin>
								<valuemax>3.98109</valuemax>
								<value>1</value>
							</parameter>
						</effect>
					</filter>
					<filter>
						<effect>
							<name>Audio Pan</name>
							<effectid>audiopan</effectid>
							<effectcategory>audiopan</effectcategory>
							<effecttype>audiopan</effecttype>
							<mediatype>audio</mediatype>
							<parameter>
								<name>Pan</name>
								<parameterid>pan</parameterid>
								<valuemin>-1</valuemin>
								<valuemax>1</valuemax>
								<value>-1</value>
							</parameter>
						</effect>
					</filter>
					<sourcetrack>
						<mediatype>audio</mediatype>
						<trackindex>1</trackindex>
					</sourcetrack>
					<link>
						<linkclipref>AndrewLord007Subclipa</linkclipref>
						<mediatype>video</mediatype>
						<trackindex>7</trackindex>
						<clipindex>2</clipindex>
					</link>
					<link>
						<linkclipref>AndrewLord007Subclipa2</linkclipref>
						<mediatype>audio</mediatype>
						<trackindex>9</trackindex>
						<clipindex>2</clipindex>
						<groupindex>1</groupindex>
					</link>
					<link>
						<linkclipref>AndrewLord007Subclipa3</linkclipref>
						<mediatype>audio</mediatype>
						<trackindex>10</trackindex>
						<clipindex>2</clipindex>
						<groupindex>1</groupindex>
					</link>
					<itemhistory>
						<uuid>44EA78EA-763F-4FD0-903C-F856AD1428DC</uuid>
						<uuid>B146F5AC-9075-4327-89BA-FD25E799F002</uuid>
					</itemhistory>
				</clipitem>
				<clipitem id="AndrewLord008Subclipa2">
					<name>AndrewLord008Subclipa</name>
					<duration>340</duration>
					<rate>
						<ntsc>FALSE</ntsc>
						<timebase>25</timebase>
					</rate>
					<in>0</in>
					<out>340</out>
					<start>915</start>
					<end>1255</end>
					<logginginfo>
						<scene/>
						<shottake/>
						<lognote/>
						<good>FALSE</good>
					</logginginfo>
					<labels>
						<label2/>
					</labels>
					<comments>
						<mastercomment1/>
						<mastercomment2/>
						<mastercomment3/>
						<mastercomment4/>
					</comments>
					<file id="AndrewLord008Subclipa1"/>
					<filter>
						<effect>
							<name>Audio Levels</name>
							<effectid>audiolevels</effectid>
							<effectcategory>audiolevels</effectcategory>
							<effecttype>audiolevels</effecttype>
							<mediatype>audio</mediatype>
							<parameter>
								<name>Level</name>
								<parameterid>level</parameterid>
								<valuemin>0</valuemin>
								<valuemax>3.98109</valuemax>
								<value>1</value>
							</parameter>
						</effect>
					</filter>
					<filter>
						<effect>
							<name>Audio Pan</name>
							<effectid>audiopan</effectid>
							<effectcategory>audiopan</effectcategory>
							<effecttype>audiopan</effecttype>
							<mediatype>audio</mediatype>
							<parameter>
								<name>Pan</name>
								<parameterid>pan</parameterid>
								<valuemin>-1</valuemin>
								<valuemax>1</valuemax>
								<value>-1</value>
							</parameter>
						</effect>
					</filter>
					<sourcetrack>
						<mediatype>audio</mediatype>
						<trackindex>1</trackindex>
					</sourcetrack>
					<link>
						<linkclipref>AndrewLord008Subclipa</linkclipref>
						<mediatype>video</mediatype>
						<trackindex>7</trackindex>
						<clipindex>3</clipindex>
					</link>
					<link>
						<linkclipref>AndrewLord008Subclipa2</linkclipref>
						<mediatype>audio</mediatype>
						<trackindex>9</trackindex>
						<clipindex>3</clipindex>
						<groupindex>1</groupindex>
					</link>
					<link>
						<linkclipref>AndrewLord008Subclipa3</linkclipref>
						<mediatype>audio</mediatype>
						<trackindex>10</trackindex>
						<clipindex>3</clipindex>
						<groupindex>1</groupindex>
					</link>
					<itemhistory>
						<uuid>962EB346-FB8A-46EE-83C6-AE5045858A73</uuid>
						<uuid>A20B1B12-3E17-4CB8-935E-90C0E89184FA</uuid>
					</itemhistory>
				</clipitem>
				<clipitem id="AndrewLord008Subclipb2">
					<name>AndrewLord008Subclipb</name>
					<duration>1984</duration>
					<rate>
						<ntsc>FALSE</ntsc>
						<timebase>25</timebase>
					</rate>
					<in>0</in>
					<out>1984</out>
					<start>1255</start>
					<end>3239</end>
					<logginginfo>
						<scene/>
						<shottake/>
						<lognote/>
						<good>FALSE</good>
					</logginginfo>
					<labels>
						<label2/>
					</labels>
					<comments>
						<mastercomment1/>
						<mastercomment2/>
						<mastercomment3/>
						<mastercomment4/>
					</comments>
					<file id="AndrewLord008Subclipb1"/>
					<filter>
						<effect>
							<name>Audio Levels</name>
							<effectid>audiolevels</effectid>
							<effectcategory>audiolevels</effectcategory>
							<effecttype>audiolevels</effecttype>
							<mediatype>audio</mediatype>
							<parameter>
								<name>Level</name>
								<parameterid>level</parameterid>
								<valuemin>0</valuemin>
								<valuemax>3.98109</valuemax>
								<value>1</value>
							</parameter>
						</effect>
					</filter>
					<filter>
						<effect>
							<name>Audio Pan</name>
							<effectid>audiopan</effectid>
							<effectcategory>audiopan</effectcategory>
							<effecttype>audiopan</effecttype>
							<mediatype>audio</mediatype>
							<parameter>
								<name>Pan</name>
								<parameterid>pan</parameterid>
								<valuemin>-1</valuemin>
								<valuemax>1</valuemax>
								<value>-1</value>
							</parameter>
						</effect>
					</filter>
					<sourcetrack>
						<mediatype>audio</mediatype>
						<trackindex>1</trackindex>
					</sourcetrack>
					<link>
						<linkclipref>AndrewLord008Subclipb</linkclipref>
						<mediatype>video</mediatype>
						<trackindex>7</trackindex>
						<clipindex>4</clipindex>
					</link>
					<link>
						<linkclipref>AndrewLord008Subclipb2</linkclipref>
						<mediatype>audio</mediatype>
						<trackindex>9</trackindex>
						<clipindex>4</clipindex>
						<groupindex>1</groupindex>
					</link>
					<link>
						<linkclipref>AndrewLord008Subclipb3</linkclipref>
						<mediatype>audio</mediatype>
						<trackindex>10</trackindex>
						<clipindex>4</clipindex>
						<groupindex>1</groupindex>
					</link>
					<itemhistory>
						<uuid>6994812C-B770-4BEF-9D17-5227FF9FEC2E</uuid>
						<uuid>FA67C355-CCB4-403A-AAF2-78489A440ADA</uuid>
					</itemhistory>
				</clipitem>
				<clipitem id="AndrewLord008Subclipc2">
					<name>AndrewLord008Subclipc</name>
					<duration>122</duration>
					<rate>
						<ntsc>FALSE</ntsc>
						<timebase>25</timebase>
					</rate>
					<in>0</in>
					<out>122</out>
					<start>3239</start>
					<end>3361</end>
					<logginginfo>
						<scene/>
						<shottake/>
						<lognote/>
						<good>FALSE</good>
					</logginginfo>
					<labels>
						<label2/>
					</labels>
					<comments>
						<mastercomment1/>
						<mastercomment2/>
						<mastercomment3/>
						<mastercomment4/>
					</comments>
					<file id="AndrewLord008Subclipc1"/>
					<filter>
						<effect>
							<name>Audio Levels</name>
							<effectid>audiolevels</effectid>
							<effectcategory>audiolevels</effectcategory>
							<effecttype>audiolevels</effecttype>
							<mediatype>audio</mediatype>
							<parameter>
								<name>Level</name>
								<parameterid>level</parameterid>
								<valuemin>0</valuemin>
								<valuemax>3.98109</valuemax>
								<value>1</value>
							</parameter>
						</effect>
					</filter>
					<filter>
						<effect>
							<name>Audio Pan</name>
							<effectid>audiopan</effectid>
							<effectcategory>audiopan</effectcategory>
							<effecttype>audiopan</effecttype>
							<mediatype>audio</mediatype>
							<parameter>
								<name>Pan</name>
								<parameterid>pan</parameterid>
								<valuemin>-1</valuemin>
								<valuemax>1</valuemax>
								<value>-1</value>
							</parameter>
						</effect>
					</filter>
					<sourcetrack>
						<mediatype>audio</mediatype>
						<trackindex>1</trackindex>
					</sourcetrack>
					<link>
						<linkclipref>AndrewLord008Subclipc</linkclipref>
						<mediatype>video</mediatype>
						<trackindex>7</trackindex>
						<clipindex>5</clipindex>
					</link>
					<link>
						<linkclipref>AndrewLord008Subclipc2</linkclipref>
						<mediatype>audio</mediatype>
						<trackindex>9</trackindex>
						<clipindex>5</clipindex>
						<groupindex>1</groupindex>
					</link>
					<link>
						<linkclipref>AndrewLord008Subclipc3</linkclipref>
						<mediatype>audio</mediatype>
						<trackindex>10</trackindex>
						<clipindex>5</clipindex>
						<groupindex>1</groupindex>
					</link>
					<itemhistory>
						<uuid>40FE7531-4F17-4E19-A5C3-3772FD43AEF9</uuid>
						<uuid>64711F45-B1C7-45D9-B8E5-AAAEEBDDE884</uuid>
					</itemhistory>
				</clipitem>
				<clipitem id="AndrewLord008Subclipd2">
					<name>AndrewLord008Subclipd</name>
					<duration>801</duration>
					<rate>
						<ntsc>FALSE</ntsc>
						<timebase>25</timebase>
					</rate>
					<in>0</in>
					<out>801</out>
					<start>3361</start>
					<end>4162</end>
					<logginginfo>
						<scene/>
						<shottake/>
						<lognote/>
						<good>FALSE</good>
					</logginginfo>
					<labels>
						<label2/>
					</labels>
					<comments>
						<mastercomment1/>
						<mastercomment2/>
						<mastercomment3/>
						<mastercomment4/>
					</comments>
					<file id="AndrewLord008Subclipd1"/>
					<filter>
						<effect>
							<name>Audio Levels</name>
							<effectid>audiolevels</effectid>
							<effectcategory>audiolevels</effectcategory>
							<effecttype>audiolevels</effecttype>
							<mediatype>audio</mediatype>
							<parameter>
								<name>Level</name>
								<parameterid>level</parameterid>
								<valuemin>0</valuemin>
								<valuemax>3.98109</valuemax>
								<value>1</value>
							</parameter>
						</effect>
					</filter>
					<filter>
						<effect>
							<name>Audio Pan</name>
							<effectid>audiopan</effectid>
							<effectcategory>audiopan</effectcategory>
							<effecttype>audiopan</effecttype>
							<mediatype>audio</mediatype>
							<parameter>
								<name>Pan</name>
								<parameterid>pan</parameterid>
								<valuemin>-1</valuemin>
								<valuemax>1</valuemax>
								<value>-1</value>
							</parameter>
						</effect>
					</filter>
					<sourcetrack>
						<mediatype>audio</mediatype>
						<trackindex>1</trackindex>
					</sourcetrack>
					<link>
						<linkclipref>AndrewLord008Subclipd</linkclipref>
						<mediatype>video</mediatype>
						<trackindex>7</trackindex>
						<clipindex>6</clipindex>
					</link>
					<link>
						<linkclipref>AndrewLord008Subclipd2</linkclipref>
						<mediatype>audio</mediatype>
						<trackindex>9</trackindex>
						<clipindex>6</clipindex>
						<groupindex>1</groupindex>
					</link>
					<link>
						<linkclipref>AndrewLord008Subclipd3</linkclipref>
						<mediatype>audio</mediatype>
						<trackindex>10</trackindex>
						<clipindex>6</clipindex>
						<groupindex>1</groupindex>
					</link>
					<itemhistory>
						<uuid>0A6C79A7-F5A2-44EA-A599-5FDB6150384E</uuid>
						<uuid>42780F85-0890-4742-9B47-20323EFDD384</uuid>
					</itemhistory>
				</clipitem>
				<clipitem id="AndrewLord009Subclipa2">
					<name>AndrewLord009Subclipa</name>
					<duration>578</duration>
					<rate>
						<ntsc>FALSE</ntsc>
						<timebase>25</timebase>
					</rate>
					<in>0</in>
					<out>578</out>
					<start>4162</start>
					<end>4740</end>
					<logginginfo>
						<scene/>
						<shottake/>
						<lognote/>
						<good>FALSE</good>
					</logginginfo>
					<labels>
						<label2/>
					</labels>
					<comments>
						<mastercomment1/>
						<mastercomment2/>
						<mastercomment3/>
						<mastercomment4/>
					</comments>
					<file id="AndrewLord009Subclipa1"/>
					<filter>
						<effect>
							<name>Audio Levels</name>
							<effectid>audiolevels</effectid>
							<effectcategory>audiolevels</effectcategory>
							<effecttype>audiolevels</effecttype>
							<mediatype>audio</mediatype>
							<parameter>
								<name>Level</name>
								<parameterid>level</parameterid>
								<valuemin>0</valuemin>
								<valuemax>3.98109</valuemax>
								<value>1</value>
							</parameter>
						</effect>
					</filter>
					<filter>
						<effect>
							<name>Audio Pan</name>
							<effectid>audiopan</effectid>
							<effectcategory>audiopan</effectcategory>
							<effecttype>audiopan</effecttype>
							<mediatype>audio</mediatype>
							<parameter>
								<name>Pan</name>
								<parameterid>pan</parameterid>
								<valuemin>-1</valuemin>
								<valuemax>1</valuemax>
								<value>-1</value>
							</parameter>
						</effect>
					</filter>
					<sourcetrack>
						<mediatype>audio</mediatype>
						<trackindex>1</trackindex>
					</sourcetrack>
					<link>
						<linkclipref>AndrewLord009Subclipa</linkclipref>
						<mediatype>video</mediatype>
						<trackindex>7</trackindex>
						<clipindex>7</clipindex>
					</link>
					<link>
						<linkclipref>AndrewLord009Subclipa2</linkclipref>
						<mediatype>audio</mediatype>
						<trackindex>9</trackindex>
						<clipindex>7</clipindex>
						<groupindex>1</groupindex>
					</link>
					<link>
						<linkclipref>AndrewLord009Subclipa3</linkclipref>
						<mediatype>audio</mediatype>
						<trackindex>10</trackindex>
						<clipindex>7</clipindex>
						<groupindex>1</groupindex>
					</link>
					<itemhistory>
						<uuid>E038DABF-24EC-42B8-91B3-3559D1D5C2BC</uuid>
						<uuid>E2566970-5347-4FA6-867D-655DF9838DAD</uuid>
					</itemhistory>
				</clipitem>
				<clipitem id="AndrewLord009Subclipb2">
					<name>AndrewLord009Subclipb</name>
					<duration>1352</duration>
					<rate>
						<ntsc>FALSE</ntsc>
						<timebase>25</timebase>
					</rate>
					<in>0</in>
					<out>1352</out>
					<start>4740</start>
					<end>6092</end>
					<logginginfo>
						<scene/>
						<shottake/>
						<lognote/>
						<good>FALSE</good>
					</logginginfo>
					<labels>
						<label2/>
					</labels>
					<comments>
						<mastercomment1/>
						<mastercomment2/>
						<mastercomment3/>
						<mastercomment4/>
					</comments>
					<file id="AndrewLord009Subclipb1"/>
					<filter>
						<effect>
							<name>Audio Levels</name>
							<effectid>audiolevels</effectid>
							<effectcategory>audiolevels</effectcategory>
							<effecttype>audiolevels</effecttype>
							<mediatype>audio</mediatype>
							<parameter>
								<name>Level</name>
								<parameterid>level</parameterid>
								<valuemin>0</valuemin>
								<valuemax>3.98109</valuemax>
								<value>1</value>
							</parameter>
						</effect>
					</filter>
					<filter>
						<effect>
							<name>Audio Pan</name>
							<effectid>audiopan</effectid>
							<effectcategory>audiopan</effectcategory>
							<effecttype>audiopan</effecttype>
							<mediatype>audio</mediatype>
							<parameter>
								<name>Pan</name>
								<parameterid>pan</parameterid>
								<valuemin>-1</valuemin>
								<valuemax>1</valuemax>
								<value>-1</value>
							</parameter>
						</effect>
					</filter>
					<sourcetrack>
						<mediatype>audio</mediatype>
						<trackindex>1</trackindex>
					</sourcetrack>
					<link>
						<linkclipref>AndrewLord009Subclipb</linkclipref>
						<mediatype>video</mediatype>
						<trackindex>7</trackindex>
						<clipindex>8</clipindex>
					</link>
					<link>
						<linkclipref>AndrewLord009Subclipb2</linkclipref>
						<mediatype>audio</mediatype>
						<trackindex>9</trackindex>
						<clipindex>8</clipindex>
						<groupindex>1</groupindex>
					</link>
					<link>
						<linkclipref>AndrewLord009Subclipb3</linkclipref>
						<mediatype>audio</mediatype>
						<trackindex>10</trackindex>
						<clipindex>8</clipindex>
						<groupindex>1</groupindex>
					</link>
					<itemhistory>
						<uuid>B2027EB7-ACB7-4BDE-BD9C-57E3A4ED6BBF</uuid>
						<uuid>270D77A2-C9B1-4A2F-BA2F-ED75ED93A32E</uuid>
					</itemhistory>
				</clipitem>
				<enabled>TRUE</enabled>
				<locked>FALSE</locked>
				<outputchannelindex>1</outputchannelindex>
			</track>
			<track>
				<clipitem id="AndrewLord006Subclipa3">
					<name>AndrewLord006Subclipa</name>
					<duration>181</duration>
					<rate>
						<ntsc>FALSE</ntsc>
						<timebase>25</timebase>
					</rate>
					<in>0</in>
					<out>181</out>
					<start>622</start>
					<end>803</end>
					<logginginfo>
						<scene/>
						<shottake/>
						<lognote/>
						<good>FALSE</good>
					</logginginfo>
					<labels>
						<label2/>
					</labels>
					<comments>
						<mastercomment1/>
						<mastercomment2/>
						<mastercomment3/>
						<mastercomment4/>
					</comments>
					<file id="AndrewLord006Subclipa1"/>
					<filter>
						<effect>
							<name>Audio Levels</name>
							<effectid>audiolevels</effectid>
							<effectcategory>audiolevels</effectcategory>
							<effecttype>audiolevels</effecttype>
							<mediatype>audio</mediatype>
							<parameter>
								<name>Level</name>
								<parameterid>level</parameterid>
								<valuemin>0</valuemin>
								<valuemax>3.98109</valuemax>
								<value>1</value>
							</parameter>
						</effect>
					</filter>
					<filter>
						<effect>
							<name>Audio Pan</name>
							<effectid>audiopan</effectid>
							<effectcategory>audiopan</effectcategory>
							<effecttype>audiopan</effecttype>
							<mediatype>audio</mediatype>
							<parameter>
								<name>Pan</name>
								<parameterid>pan</parameterid>
								<valuemin>-1</valuemin>
								<valuemax>1</valuemax>
								<value>1</value>
							</parameter>
						</effect>
					</filter>
					<sourcetrack>
						<mediatype>audio</mediatype>
						<trackindex>2</trackindex>
					</sourcetrack>
					<link>
						<linkclipref>AndrewLord006Subclipa</linkclipref>
						<mediatype>video</mediatype>
						<trackindex>7</trackindex>
						<clipindex>1</clipindex>
					</link>
					<link>
						<linkclipref>AndrewLord006Subclipa2</linkclipref>
						<mediatype>audio</mediatype>
						<trackindex>9</trackindex>
						<clipindex>1</clipindex>
						<groupindex>1</groupindex>
					</link>
					<link>
						<linkclipref>AndrewLord006Subclipa3</linkclipref>
						<mediatype>audio</mediatype>
						<trackindex>10</trackindex>
						<clipindex>1</clipindex>
						<groupindex>1</groupindex>
					</link>
					<itemhistory>
						<uuid>702F5140-F154-4D58-ABE3-CA51BFD74A44</uuid>
						<uuid>4A06C777-D796-4831-BD34-CDB03FBCC910</uuid>
					</itemhistory>
				</clipitem>
				<clipitem id="AndrewLord007Subclipa3">
					<name>AndrewLord007Subclipa</name>
					<duration>112</duration>
					<rate>
						<ntsc>FALSE</ntsc>
						<timebase>25</timebase>
					</rate>
					<in>0</in>
					<out>112</out>
					<start>803</start>
					<end>915</end>
					<logginginfo>
						<scene/>
						<shottake/>
						<lognote/>
						<good>FALSE</good>
					</logginginfo>
					<labels>
						<label2/>
					</labels>
					<comments>
						<mastercomment1/>
						<mastercomment2/>
						<mastercomment3/>
						<mastercomment4/>
					</comments>
					<file id="AndrewLord007Subclipa1"/>
					<filter>
						<effect>
							<name>Audio Levels</name>
							<effectid>audiolevels</effectid>
							<effectcategory>audiolevels</effectcategory>
							<effecttype>audiolevels</effecttype>
							<mediatype>audio</mediatype>
							<parameter>
								<name>Level</name>
								<parameterid>level</parameterid>
								<valuemin>0</valuemin>
								<valuemax>3.98109</valuemax>
								<value>1</value>
							</parameter>
						</effect>
					</filter>
					<filter>
						<effect>
							<name>Audio Pan</name>
							<effectid>audiopan</effectid>
							<effectcategory>audiopan</effectcategory>
							<effecttype>audiopan</effecttype>
							<mediatype>audio</mediatype>
							<parameter>
								<name>Pan</name>
								<parameterid>pan</parameterid>
								<valuemin>-1</valuemin>
								<valuemax>1</valuemax>
								<value>1</value>
							</parameter>
						</effect>
					</filter>
					<sourcetrack>
						<mediatype>audio</mediatype>
						<trackindex>2</trackindex>
					</sourcetrack>
					<link>
						<linkclipref>AndrewLord007Subclipa</linkclipref>
						<mediatype>video</mediatype>
						<trackindex>7</trackindex>
						<clipindex>2</clipindex>
					</link>
					<link>
						<linkclipref>AndrewLord007Subclipa2</linkclipref>
						<mediatype>audio</mediatype>
						<trackindex>9</trackindex>
						<clipindex>2</clipindex>
						<groupindex>1</groupindex>
					</link>
					<link>
						<linkclipref>AndrewLord007Subclipa3</linkclipref>
						<mediatype>audio</mediatype>
						<trackindex>10</trackindex>
						<clipindex>2</clipindex>
						<groupindex>1</groupindex>
					</link>
					<itemhistory>
						<uuid>A93432D7-1378-4C64-9BB5-837B7D362055</uuid>
						<uuid>2D30563A-5ACA-4C74-96D7-2D7D4B7331B8</uuid>
					</itemhistory>
				</clipitem>
				<clipitem id="AndrewLord008Subclipa3">
					<name>AndrewLord008Subclipa</name>
					<duration>340</duration>
					<rate>
						<ntsc>FALSE</ntsc>
						<timebase>25</timebase>
					</rate>
					<in>0</in>
					<out>340</out>
					<start>915</start>
					<end>1255</end>
					<logginginfo>
						<scene/>
						<shottake/>
						<lognote/>
						<good>FALSE</good>
					</logginginfo>
					<labels>
						<label2/>
					</labels>
					<comments>
						<mastercomment1/>
						<mastercomment2/>
						<mastercomment3/>
						<mastercomment4/>
					</comments>
					<file id="AndrewLord008Subclipa1"/>
					<filter>
						<effect>
							<name>Audio Levels</name>
							<effectid>audiolevels</effectid>
							<effectcategory>audiolevels</effectcategory>
							<effecttype>audiolevels</effecttype>
							<mediatype>audio</mediatype>
							<parameter>
								<name>Level</name>
								<parameterid>level</parameterid>
								<valuemin>0</valuemin>
								<valuemax>3.98109</valuemax>
								<value>1</value>
							</parameter>
						</effect>
					</filter>
					<filter>
						<effect>
							<name>Audio Pan</name>
							<effectid>audiopan</effectid>
							<effectcategory>audiopan</effectcategory>
							<effecttype>audiopan</effecttype>
							<mediatype>audio</mediatype>
							<parameter>
								<name>Pan</name>
								<parameterid>pan</parameterid>
								<valuemin>-1</valuemin>
								<valuemax>1</valuemax>
								<value>1</value>
							</parameter>
						</effect>
					</filter>
					<sourcetrack>
						<mediatype>audio</mediatype>
						<trackindex>2</trackindex>
					</sourcetrack>
					<link>
						<linkclipref>AndrewLord008Subclipa</linkclipref>
						<mediatype>video</mediatype>
						<trackindex>7</trackindex>
						<clipindex>3</clipindex>
					</link>
					<link>
						<linkclipref>AndrewLord008Subclipa2</linkclipref>
						<mediatype>audio</mediatype>
						<trackindex>9</trackindex>
						<clipindex>3</clipindex>
						<groupindex>1</groupindex>
					</link>
					<link>
						<linkclipref>AndrewLord008Subclipa3</linkclipref>
						<mediatype>audio</mediatype>
						<trackindex>10</trackindex>
						<clipindex>3</clipindex>
						<groupindex>1</groupindex>
					</link>
					<itemhistory>
						<uuid>C40E3BF9-5775-4FDB-9388-838773111669</uuid>
						<uuid>D9A9ED0C-6806-4390-8820-435059B6EF55</uuid>
					</itemhistory>
				</clipitem>
				<clipitem id="AndrewLord008Subclipb3">
					<name>AndrewLord008Subclipb</name>
					<duration>1984</duration>
					<rate>
						<ntsc>FALSE</ntsc>
						<timebase>25</timebase>
					</rate>
					<in>0</in>
					<out>1984</out>
					<start>1255</start>
					<end>3239</end>
					<logginginfo>
						<scene/>
						<shottake/>
						<lognote/>
						<good>FALSE</good>
					</logginginfo>
					<labels>
						<label2/>
					</labels>
					<comments>
						<mastercomment1/>
						<mastercomment2/>
						<mastercomment3/>
						<mastercomment4/>
					</comments>
					<file id="AndrewLord008Subclipb1"/>
					<filter>
						<effect>
							<name>Audio Levels</name>
							<effectid>audiolevels</effectid>
							<effectcategory>audiolevels</effectcategory>
							<effecttype>audiolevels</effecttype>
							<mediatype>audio</mediatype>
							<parameter>
								<name>Level</name>
								<parameterid>level</parameterid>
								<valuemin>0</valuemin>
								<valuemax>3.98109</valuemax>
								<value>1</value>
							</parameter>
						</effect>
					</filter>
					<filter>
						<effect>
							<name>Audio Pan</name>
							<effectid>audiopan</effectid>
							<effectcategory>audiopan</effectcategory>
							<effecttype>audiopan</effecttype>
							<mediatype>audio</mediatype>
							<parameter>
								<name>Pan</name>
								<parameterid>pan</parameterid>
								<valuemin>-1</valuemin>
								<valuemax>1</valuemax>
								<value>1</value>
							</parameter>
						</effect>
					</filter>
					<sourcetrack>
						<mediatype>audio</mediatype>
						<trackindex>2</trackindex>
					</sourcetrack>
					<link>
						<linkclipref>AndrewLord008Subclipb</linkclipref>
						<mediatype>video</mediatype>
						<trackindex>7</trackindex>
						<clipindex>4</clipindex>
					</link>
					<link>
						<linkclipref>AndrewLord008Subclipb2</linkclipref>
						<mediatype>audio</mediatype>
						<trackindex>9</trackindex>
						<clipindex>4</clipindex>
						<groupindex>1</groupindex>
					</link>
					<link>
						<linkclipref>AndrewLord008Subclipb3</linkclipref>
						<mediatype>audio</mediatype>
						<trackindex>10</trackindex>
						<clipindex>4</clipindex>
						<groupindex>1</groupindex>
					</link>
					<itemhistory>
						<uuid>EA91BF3E-DAD9-4F9B-930E-428BD867C646</uuid>
						<uuid>634F8140-8BB9-45FB-A29B-5F67AB885450</uuid>
					</itemhistory>
				</clipitem>
				<clipitem id="AndrewLord008Subclipc3">
					<name>AndrewLord008Subclipc</name>
					<duration>122</duration>
					<rate>
						<ntsc>FALSE</ntsc>
						<timebase>25</timebase>
					</rate>
					<in>0</in>
					<out>122</out>
					<start>3239</start>
					<end>3361</end>
					<logginginfo>
						<scene/>
						<shottake/>
						<lognote/>
						<good>FALSE</good>
					</logginginfo>
					<labels>
						<label2/>
					</labels>
					<comments>
						<mastercomment1/>
						<mastercomment2/>
						<mastercomment3/>
						<mastercomment4/>
					</comments>
					<file id="AndrewLord008Subclipc1"/>
					<filter>
						<effect>
							<name>Audio Levels</name>
							<effectid>audiolevels</effectid>
							<effectcategory>audiolevels</effectcategory>
							<effecttype>audiolevels</effecttype>
							<mediatype>audio</mediatype>
							<parameter>
								<name>Level</name>
								<parameterid>level</parameterid>
								<valuemin>0</valuemin>
								<valuemax>3.98109</valuemax>
								<value>1</value>
							</parameter>
						</effect>
					</filter>
					<filter>
						<effect>
							<name>Audio Pan</name>
							<effectid>audiopan</effectid>
							<effectcategory>audiopan</effectcategory>
							<effecttype>audiopan</effecttype>
							<mediatype>audio</mediatype>
							<parameter>
								<name>Pan</name>
								<parameterid>pan</parameterid>
								<valuemin>-1</valuemin>
								<valuemax>1</valuemax>
								<value>1</value>
							</parameter>
						</effect>
					</filter>
					<sourcetrack>
						<mediatype>audio</mediatype>
						<trackindex>2</trackindex>
					</sourcetrack>
					<link>
						<linkclipref>AndrewLord008Subclipc</linkclipref>
						<mediatype>video</mediatype>
						<trackindex>7</trackindex>
						<clipindex>5</clipindex>
					</link>
					<link>
						<linkclipref>AndrewLord008Subclipc2</linkclipref>
						<mediatype>audio</mediatype>
						<trackindex>9</trackindex>
						<clipindex>5</clipindex>
						<groupindex>1</groupindex>
					</link>
					<link>
						<linkclipref>AndrewLord008Subclipc3</linkclipref>
						<mediatype>audio</mediatype>
						<trackindex>10</trackindex>
						<clipindex>5</clipindex>
						<groupindex>1</groupindex>
					</link>
					<itemhistory>
						<uuid>274BCCC0-FEBC-4D6D-A2A0-F1BF0A6F5970</uuid>
						<uuid>075FCD83-48A0-4B8B-A5E4-342B417F8F2C</uuid>
					</itemhistory>
				</clipitem>
				<clipitem id="AndrewLord008Subclipd3">
					<name>AndrewLord008Subclipd</name>
					<duration>801</duration>
					<rate>
						<ntsc>FALSE</ntsc>
						<timebase>25</timebase>
					</rate>
					<in>0</in>
					<out>801</out>
					<start>3361</start>
					<end>4162</end>
					<logginginfo>
						<scene/>
						<shottake/>
						<lognote/>
						<good>FALSE</good>
					</logginginfo>
					<labels>
						<label2/>
					</labels>
					<comments>
						<mastercomment1/>
						<mastercomment2/>
						<mastercomment3/>
						<mastercomment4/>
					</comments>
					<file id="AndrewLord008Subclipd1"/>
					<filter>
						<effect>
							<name>Audio Levels</name>
							<effectid>audiolevels</effectid>
							<effectcategory>audiolevels</effectcategory>
							<effecttype>audiolevels</effecttype>
							<mediatype>audio</mediatype>
							<parameter>
								<name>Level</name>
								<parameterid>level</parameterid>
								<valuemin>0</valuemin>
								<valuemax>3.98109</valuemax>
								<value>1</value>
							</parameter>
						</effect>
					</filter>
					<filter>
						<effect>
							<name>Audio Pan</name>
							<effectid>audiopan</effectid>
							<effectcategory>audiopan</effectcategory>
							<effecttype>audiopan</effecttype>
							<mediatype>audio</mediatype>
							<parameter>
								<name>Pan</name>
								<parameterid>pan</parameterid>
								<valuemin>-1</valuemin>
								<valuemax>1</valuemax>
								<value>1</value>
							</parameter>
						</effect>
					</filter>
					<sourcetrack>
						<mediatype>audio</mediatype>
						<trackindex>2</trackindex>
					</sourcetrack>
					<link>
						<linkclipref>AndrewLord008Subclipd</linkclipref>
						<mediatype>video</mediatype>
						<trackindex>7</trackindex>
						<clipindex>6</clipindex>
					</link>
					<link>
						<linkclipref>AndrewLord008Subclipd2</linkclipref>
						<mediatype>audio</mediatype>
						<trackindex>9</trackindex>
						<clipindex>6</clipindex>
						<groupindex>1</groupindex>
					</link>
					<link>
						<linkclipref>AndrewLord008Subclipd3</linkclipref>
						<mediatype>audio</mediatype>
						<trackindex>10</trackindex>
						<clipindex>6</clipindex>
						<groupindex>1</groupindex>
					</link>
					<itemhistory>
						<uuid>82F505F1-0B91-4F46-AAEB-CA370A814B87</uuid>
						<uuid>182886F1-43C0-4B46-ACB3-76A93CBEA19C</uuid>
					</itemhistory>
				</clipitem>
				<clipitem id="AndrewLord009Subclipa3">
					<name>AndrewLord009Subclipa</name>
					<duration>578</duration>
					<rate>
						<ntsc>FALSE</ntsc>
						<timebase>25</timebase>
					</rate>
					<in>0</in>
					<out>578</out>
					<start>4162</start>
					<end>4740</end>
					<logginginfo>
						<scene/>
						<shottake/>
						<lognote/>
						<good>FALSE</good>
					</logginginfo>
					<labels>
						<label2/>
					</labels>
					<comments>
						<mastercomment1/>
						<mastercomment2/>
						<mastercomment3/>
						<mastercomment4/>
					</comments>
					<file id="AndrewLord009Subclipa1"/>
					<filter>
						<effect>
							<name>Audio Levels</name>
							<effectid>audiolevels</effectid>
							<effectcategory>audiolevels</effectcategory>
							<effecttype>audiolevels</effecttype>
							<mediatype>audio</mediatype>
							<parameter>
								<name>Level</name>
								<parameterid>level</parameterid>
								<valuemin>0</valuemin>
								<valuemax>3.98109</valuemax>
								<value>1</value>
							</parameter>
						</effect>
					</filter>
					<filter>
						<effect>
							<name>Audio Pan</name>
							<effectid>audiopan</effectid>
							<effectcategory>audiopan</effectcategory>
							<effecttype>audiopan</effecttype>
							<mediatype>audio</mediatype>
							<parameter>
								<name>Pan</name>
								<parameterid>pan</parameterid>
								<valuemin>-1</valuemin>
								<valuemax>1</valuemax>
								<value>1</value>
							</parameter>
						</effect>
					</filter>
					<sourcetrack>
						<mediatype>audio</mediatype>
						<trackindex>2</trackindex>
					</sourcetrack>
					<link>
						<linkclipref>AndrewLord009Subclipa</linkclipref>
						<mediatype>video</mediatype>
						<trackindex>7</trackindex>
						<clipindex>7</clipindex>
					</link>
					<link>
						<linkclipref>AndrewLord009Subclipa2</linkclipref>
						<mediatype>audio</mediatype>
						<trackindex>9</trackindex>
						<clipindex>7</clipindex>
						<groupindex>1</groupindex>
					</link>
					<link>
						<linkclipref>AndrewLord009Subclipa3</linkclipref>
						<mediatype>audio</mediatype>
						<trackindex>10</trackindex>
						<clipindex>7</clipindex>
						<groupindex>1</groupindex>
					</link>
					<itemhistory>
						<uuid>8BD79210-4D1B-4B3A-9524-F8128109ABE4</uuid>
						<uuid>7BFCA8A4-5991-4F86-93DD-9A23E7BFFC89</uuid>
					</itemhistory>
				</clipitem>
				<clipitem id="AndrewLord009Subclipb3">
					<name>AndrewLord009Subclipb</name>
					<duration>1352</duration>
					<rate>
						<ntsc>FALSE</ntsc>
						<timebase>25</timebase>
					</rate>
					<in>0</in>
					<out>1352</out>
					<start>4740</start>
					<end>6092</end>
					<logginginfo>
						<scene/>
						<shottake/>
						<lognote/>
						<good>FALSE</good>
					</logginginfo>
					<labels>
						<label2/>
					</labels>
					<comments>
						<mastercomment1/>
						<mastercomment2/>
						<mastercomment3/>
						<mastercomment4/>
					</comments>
					<file id="AndrewLord009Subclipb1"/>
					<filter>
						<effect>
							<name>Audio Levels</name>
							<effectid>audiolevels</effectid>
							<effectcategory>audiolevels</effectcategory>
							<effecttype>audiolevels</effecttype>
							<mediatype>audio</mediatype>
							<parameter>
								<name>Level</name>
								<parameterid>level</parameterid>
								<valuemin>0</valuemin>
								<valuemax>3.98109</valuemax>
								<value>1</value>
							</parameter>
						</effect>
					</filter>
					<filter>
						<effect>
							<name>Audio Pan</name>
							<effectid>audiopan</effectid>
							<effectcategory>audiopan</effectcategory>
							<effecttype>audiopan</effecttype>
							<mediatype>audio</mediatype>
							<parameter>
								<name>Pan</name>
								<parameterid>pan</parameterid>
								<valuemin>-1</valuemin>
								<valuemax>1</valuemax>
								<value>1</value>
							</parameter>
						</effect>
					</filter>
					<sourcetrack>
						<mediatype>audio</mediatype>
						<trackindex>2</trackindex>
					</sourcetrack>
					<link>
						<linkclipref>AndrewLord009Subclipb</linkclipref>
						<mediatype>video</mediatype>
						<trackindex>7</trackindex>
						<clipindex>8</clipindex>
					</link>
					<link>
						<linkclipref>AndrewLord009Subclipb2</linkclipref>
						<mediatype>audio</mediatype>
						<trackindex>9</trackindex>
						<clipindex>8</clipindex>
						<groupindex>1</groupindex>
					</link>
					<link>
						<linkclipref>AndrewLord009Subclipb3</linkclipref>
						<mediatype>audio</mediatype>
						<trackindex>10</trackindex>
						<clipindex>8</clipindex>
						<groupindex>1</groupindex>
					</link>
					<itemhistory>
						<uuid>673581B4-449D-4407-9DF3-7EBF9507F9A3</uuid>
						<uuid>31610BD1-5740-4575-88B3-6B00E304FD93</uuid>
					</itemhistory>
				</clipitem>
				<enabled>TRUE</enabled>
				<locked>FALSE</locked>
				<outputchannelindex>2</outputchannelindex>
			</track>
			<track>
				<clipitem id="AntonyAgar001Subclipa2">
					<name>AntonyAgar001Subclipa</name>
					<duration>569</duration>
					<rate>
						<ntsc>FALSE</ntsc>
						<timebase>25</timebase>
					</rate>
					<in>0</in>
					<out>569</out>
					<start>633</start>
					<end>1202</end>
					<logginginfo>
						<scene/>
						<shottake/>
						<lognote/>
						<good>FALSE</good>
					</logginginfo>
					<labels>
						<label>Good Take</label>
						<label2/>
					</labels>
					<comments>
						<mastercomment1/>
						<mastercomment2/>
						<mastercomment3/>
						<mastercomment4/>
					</comments>
					<file id="AntonyAgar001Subclipa1"/>
					<filter>
						<effect>
							<name>Audio Levels</name>
							<effectid>audiolevels</effectid>
							<effectcategory>audiolevels</effectcategory>
							<effecttype>audiolevels</effecttype>
							<mediatype>audio</mediatype>
							<parameter>
								<name>Level</name>
								<parameterid>level</parameterid>
								<valuemin>0</valuemin>
								<valuemax>3.98109</valuemax>
								<value>1</value>
							</parameter>
						</effect>
					</filter>
					<filter>
						<effect>
							<name>Audio Pan</name>
							<effectid>audiopan</effectid>
							<effectcategory>audiopan</effectcategory>
							<effecttype>audiopan</effecttype>
							<mediatype>audio</mediatype>
							<parameter>
								<name>Pan</name>
								<parameterid>pan</parameterid>
								<valuemin>-1</valuemin>
								<valuemax>1</valuemax>
								<value>-1</value>
							</parameter>
						</effect>
					</filter>
					<sourcetrack>
						<mediatype>audio</mediatype>
						<trackindex>1</trackindex>
					</sourcetrack>
					<link>
						<linkclipref>AntonyAgar001Subclipa</linkclipref>
						<mediatype>video</mediatype>
						<trackindex>8</trackindex>
						<clipindex>1</clipindex>
					</link>
					<link>
						<linkclipref>AntonyAgar001Subclipa2</linkclipref>
						<mediatype>audio</mediatype>
						<trackindex>11</trackindex>
						<clipindex>1</clipindex>
						<groupindex>1</groupindex>
					</link>
					<link>
						<linkclipref>AntonyAgar001Subclipa3</linkclipref>
						<mediatype>audio</mediatype>
						<trackindex>12</trackindex>
						<clipindex>1</clipindex>
						<groupindex>1</groupindex>
					</link>
					<itemhistory>
						<uuid>D9543957-928F-48AB-A1CD-21B8BD3BC765</uuid>
						<uuid>5E3B2C68-3959-4A2B-AED1-AC796089A76E</uuid>
					</itemhistory>
				</clipitem>
				<clipitem id="AntonyAgar002Subclipa2">
					<name>AntonyAgar002Subclipa</name>
					<duration>2989</duration>
					<rate>
						<ntsc>FALSE</ntsc>
						<timebase>25</timebase>
					</rate>
					<in>0</in>
					<out>2989</out>
					<start>1202</start>
					<end>4191</end>
					<logginginfo>
						<scene/>
						<shottake/>
						<lognote/>
						<good>FALSE</good>
					</logginginfo>
					<labels>
						<label>Good Take</label>
						<label2/>
					</labels>
					<comments>
						<mastercomment1/>
						<mastercomment2/>
						<mastercomment3/>
						<mastercomment4/>
					</comments>
					<file id="AntonyAgar002Subclipa1"/>
					<filter>
						<effect>
							<name>Audio Levels</name>
							<effectid>audiolevels</effectid>
							<effectcategory>audiolevels</effectcategory>
							<effecttype>audiolevels</effecttype>
							<mediatype>audio</mediatype>
							<parameter>
								<name>Level</name>
								<parameterid>level</parameterid>
								<valuemin>0</valuemin>
								<valuemax>3.98109</valuemax>
								<value>1</value>
							</parameter>
						</effect>
					</filter>
					<filter>
						<effect>
							<name>Audio Pan</name>
							<effectid>audiopan</effectid>
							<effectcategory>audiopan</effectcategory>
							<effecttype>audiopan</effecttype>
							<mediatype>audio</mediatype>
							<parameter>
								<name>Pan</name>
								<parameterid>pan</parameterid>
								<valuemin>-1</valuemin>
								<valuemax>1</valuemax>
								<value>-1</value>
							</parameter>
						</effect>
					</filter>
					<sourcetrack>
						<mediatype>audio</mediatype>
						<trackindex>1</trackindex>
					</sourcetrack>
					<link>
						<linkclipref>AntonyAgar002Subclipa</linkclipref>
						<mediatype>video</mediatype>
						<trackindex>8</trackindex>
						<clipindex>2</clipindex>
					</link>
					<link>
						<linkclipref>AntonyAgar002Subclipa2</linkclipref>
						<mediatype>audio</mediatype>
						<trackindex>11</trackindex>
						<clipindex>2</clipindex>
						<groupindex>1</groupindex>
					</link>
					<link>
						<linkclipref>AntonyAgar002Subclipa3</linkclipref>
						<mediatype>audio</mediatype>
						<trackindex>12</trackindex>
						<clipindex>2</clipindex>
						<groupindex>1</groupindex>
					</link>
					<itemhistory>
						<uuid>001DAD57-8B8F-430E-8ECE-E92743DD1D5B</uuid>
						<uuid>3F2F372E-1629-4CB7-B3F7-B9371DDDB567</uuid>
					</itemhistory>
				</clipitem>
				<clipitem id="AntonyAgar002Subclipb2">
					<name>AntonyAgar002Subclipb</name>
					<duration>1619</duration>
					<rate>
						<ntsc>FALSE</ntsc>
						<timebase>25</timebase>
					</rate>
					<in>0</in>
					<out>1619</out>
					<start>4191</start>
					<end>5810</end>
					<logginginfo>
						<scene/>
						<shottake/>
						<lognote/>
						<good>FALSE</good>
					</logginginfo>
					<labels>
						<label>Good Take</label>
						<label2/>
					</labels>
					<comments>
						<mastercomment1/>
						<mastercomment2/>
						<mastercomment3/>
						<mastercomment4/>
					</comments>
					<file id="AntonyAgar002Subclipb1"/>
					<filter>
						<effect>
							<name>Audio Levels</name>
							<effectid>audiolevels</effectid>
							<effectcategory>audiolevels</effectcategory>
							<effecttype>audiolevels</effecttype>
							<mediatype>audio</mediatype>
							<parameter>
								<name>Level</name>
								<parameterid>level</parameterid>
								<valuemin>0</valuemin>
								<valuemax>3.98109</valuemax>
								<value>1</value>
							</parameter>
						</effect>
					</filter>
					<filter>
						<effect>
							<name>Audio Pan</name>
							<effectid>audiopan</effectid>
							<effectcategory>audiopan</effectcategory>
							<effecttype>audiopan</effecttype>
							<mediatype>audio</mediatype>
							<parameter>
								<name>Pan</name>
								<parameterid>pan</parameterid>
								<valuemin>-1</valuemin>
								<valuemax>1</valuemax>
								<value>-1</value>
							</parameter>
						</effect>
					</filter>
					<sourcetrack>
						<mediatype>audio</mediatype>
						<trackindex>1</trackindex>
					</sourcetrack>
					<link>
						<linkclipref>AntonyAgar002Subclipb</linkclipref>
						<mediatype>video</mediatype>
						<trackindex>8</trackindex>
						<clipindex>3</clipindex>
					</link>
					<link>
						<linkclipref>AntonyAgar002Subclipb2</linkclipref>
						<mediatype>audio</mediatype>
						<trackindex>11</trackindex>
						<clipindex>3</clipindex>
						<groupindex>1</groupindex>
					</link>
					<link>
						<linkclipref>AntonyAgar002Subclipb3</linkclipref>
						<mediatype>audio</mediatype>
						<trackindex>12</trackindex>
						<clipindex>3</clipindex>
						<groupindex>1</groupindex>
					</link>
					<itemhistory>
						<uuid>1C7E34FA-4A87-490B-AD7F-399148BFBC2B</uuid>
						<uuid>972A5D5E-7F62-4C53-87CC-856B35AB82C2</uuid>
					</itemhistory>
				</clipitem>
				<clipitem id="AntonyAgar003 2">
					<name>AntonyAgar003</name>
					<duration>456</duration>
					<rate>
						<ntsc>FALSE</ntsc>
						<timebase>25</timebase>
					</rate>
					<in>0</in>
					<out>456</out>
					<start>5810</start>
					<end>6266</end>
					<logginginfo>
						<scene/>
						<shottake/>
						<lognote/>
						<good>FALSE</good>
					</logginginfo>
					<labels>
						<label>Good Take</label>
						<label2/>
					</labels>
					<comments>
						<mastercomment1/>
						<mastercomment2/>
						<mastercomment3/>
						<mastercomment4/>
					</comments>
					<file id="AntonyAgar003 1"/>
					<filter>
						<effect>
							<name>Audio Levels</name>
							<effectid>audiolevels</effectid>
							<effectcategory>audiolevels</effectcategory>
							<effecttype>audiolevels</effecttype>
							<mediatype>audio</mediatype>
							<parameter>
								<name>Level</name>
								<parameterid>level</parameterid>
								<valuemin>0</valuemin>
								<valuemax>3.98109</valuemax>
								<value>1</value>
							</parameter>
						</effect>
					</filter>
					<filter>
						<effect>
							<name>Audio Pan</name>
							<effectid>audiopan</effectid>
							<effectcategory>audiopan</effectcategory>
							<effecttype>audiopan</effecttype>
							<mediatype>audio</mediatype>
							<parameter>
								<name>Pan</name>
								<parameterid>pan</parameterid>
								<valuemin>-1</valuemin>
								<valuemax>1</valuemax>
								<value>-1</value>
							</parameter>
						</effect>
					</filter>
					<sourcetrack>
						<mediatype>audio</mediatype>
						<trackindex>1</trackindex>
					</sourcetrack>
					<link>
						<linkclipref>AntonyAgar003 </linkclipref>
						<mediatype>video</mediatype>
						<trackindex>8</trackindex>
						<clipindex>4</clipindex>
					</link>
					<link>
						<linkclipref>AntonyAgar003 2</linkclipref>
						<mediatype>audio</mediatype>
						<trackindex>11</trackindex>
						<clipindex>4</clipindex>
						<groupindex>1</groupindex>
					</link>
					<link>
						<linkclipref>AntonyAgar003 3</linkclipref>
						<mediatype>audio</mediatype>
						<trackindex>12</trackindex>
						<clipindex>4</clipindex>
						<groupindex>1</groupindex>
					</link>
					<itemhistory>
						<uuid>A16A4956-804F-4712-8EB8-E13F0F4DE51F</uuid>
						<uuid>89215CC3-7850-4808-BD96-0D91710455CB</uuid>
					</itemhistory>
				</clipitem>
				<clipitem id="AntonyAgar004Subclipa2">
					<name>AntonyAgar004Subclipa</name>
					<duration>2872</duration>
					<rate>
						<ntsc>FALSE</ntsc>
						<timebase>25</timebase>
					</rate>
					<in>0</in>
					<out>2872</out>
					<start>6266</start>
					<end>9138</end>
					<logginginfo>
						<scene/>
						<shottake/>
						<lognote/>
						<good>FALSE</good>
					</logginginfo>
					<labels>
						<label>Good Take</label>
						<label2/>
					</labels>
					<comments>
						<mastercomment1/>
						<mastercomment2/>
						<mastercomment3/>
						<mastercomment4/>
					</comments>
					<file id="AntonyAgar004Subclipa1"/>
					<filter>
						<effect>
							<name>Audio Levels</name>
							<effectid>audiolevels</effectid>
							<effectcategory>audiolevels</effectcategory>
							<effecttype>audiolevels</effecttype>
							<mediatype>audio</mediatype>
							<parameter>
								<name>Level</name>
								<parameterid>level</parameterid>
								<valuemin>0</valuemin>
								<valuemax>3.98109</valuemax>
								<value>1</value>
							</parameter>
						</effect>
					</filter>
					<filter>
						<effect>
							<name>Audio Pan</name>
							<effectid>audiopan</effectid>
							<effectcategory>audiopan</effectcategory>
							<effecttype>audiopan</effecttype>
							<mediatype>audio</mediatype>
							<parameter>
								<name>Pan</name>
								<parameterid>pan</parameterid>
								<valuemin>-1</valuemin>
								<valuemax>1</valuemax>
								<value>-1</value>
							</parameter>
						</effect>
					</filter>
					<sourcetrack>
						<mediatype>audio</mediatype>
						<trackindex>1</trackindex>
					</sourcetrack>
					<link>
						<linkclipref>AntonyAgar004Subclipa</linkclipref>
						<mediatype>video</mediatype>
						<trackindex>8</trackindex>
						<clipindex>5</clipindex>
					</link>
					<link>
						<linkclipref>AntonyAgar004Subclipa2</linkclipref>
						<mediatype>audio</mediatype>
						<trackindex>11</trackindex>
						<clipindex>5</clipindex>
						<groupindex>1</groupindex>
					</link>
					<link>
						<linkclipref>AntonyAgar004Subclipa3</linkclipref>
						<mediatype>audio</mediatype>
						<trackindex>12</trackindex>
						<clipindex>5</clipindex>
						<groupindex>1</groupindex>
					</link>
					<itemhistory>
						<uuid>6FF3385A-B194-4073-8EC5-FF86BF2014B9</uuid>
						<uuid>381BB540-7354-4034-88B3-935A2E3D372D</uuid>
					</itemhistory>
				</clipitem>
				<clipitem id="AntonyAgar005Subclipa2">
					<name>AntonyAgar005Subclipa</name>
					<duration>221</duration>
					<rate>
						<ntsc>FALSE</ntsc>
						<timebase>25</timebase>
					</rate>
					<in>0</in>
					<out>221</out>
					<start>9138</start>
					<end>9359</end>
					<logginginfo>
						<scene/>
						<shottake/>
						<lognote/>
						<good>FALSE</good>
					</logginginfo>
					<labels>
						<label>Good Take</label>
						<label2/>
					</labels>
					<comments>
						<mastercomment1/>
						<mastercomment2/>
						<mastercomment3/>
						<mastercomment4/>
					</comments>
					<file id="AntonyAgar005Subclipa1"/>
					<filter>
						<effect>
							<name>Audio Levels</name>
							<effectid>audiolevels</effectid>
							<effectcategory>audiolevels</effectcategory>
							<effecttype>audiolevels</effecttype>
							<mediatype>audio</mediatype>
							<parameter>
								<name>Level</name>
								<parameterid>level</parameterid>
								<valuemin>0</valuemin>
								<valuemax>3.98109</valuemax>
								<value>1</value>
							</parameter>
						</effect>
					</filter>
					<filter>
						<effect>
							<name>Audio Pan</name>
							<effectid>audiopan</effectid>
							<effectcategory>audiopan</effectcategory>
							<effecttype>audiopan</effecttype>
							<mediatype>audio</mediatype>
							<parameter>
								<name>Pan</name>
								<parameterid>pan</parameterid>
								<valuemin>-1</valuemin>
								<valuemax>1</valuemax>
								<value>-1</value>
							</parameter>
						</effect>
					</filter>
					<sourcetrack>
						<mediatype>audio</mediatype>
						<trackindex>1</trackindex>
					</sourcetrack>
					<link>
						<linkclipref>AntonyAgar005Subclipa</linkclipref>
						<mediatype>video</mediatype>
						<trackindex>8</trackindex>
						<clipindex>6</clipindex>
					</link>
					<link>
						<linkclipref>AntonyAgar005Subclipa2</linkclipref>
						<mediatype>audio</mediatype>
						<trackindex>11</trackindex>
						<clipindex>6</clipindex>
						<groupindex>1</groupindex>
					</link>
					<link>
						<linkclipref>AntonyAgar005Subclipa3</linkclipref>
						<mediatype>audio</mediatype>
						<trackindex>12</trackindex>
						<clipindex>6</clipindex>
						<groupindex>1</groupindex>
					</link>
					<itemhistory>
						<uuid>450FCCD2-E5A7-470D-B96F-33D897AE70EE</uuid>
						<uuid>C53DE4A3-BD0C-49C5-B2DA-78E2EEAC396E</uuid>
					</itemhistory>
				</clipitem>
				<clipitem id="AntonyAgar006Subclipa2">
					<name>AntonyAgar006Subclipa</name>
					<duration>1838</duration>
					<rate>
						<ntsc>FALSE</ntsc>
						<timebase>25</timebase>
					</rate>
					<in>0</in>
					<out>1838</out>
					<start>9359</start>
					<end>11197</end>
					<logginginfo>
						<scene/>
						<shottake/>
						<lognote/>
						<good>FALSE</good>
					</logginginfo>
					<labels>
						<label>Good Take</label>
						<label2/>
					</labels>
					<comments>
						<mastercomment1/>
						<mastercomment2/>
						<mastercomment3/>
						<mastercomment4/>
					</comments>
					<file id="AntonyAgar006Subclipa1"/>
					<filter>
						<effect>
							<name>Audio Levels</name>
							<effectid>audiolevels</effectid>
							<effectcategory>audiolevels</effectcategory>
							<effecttype>audiolevels</effecttype>
							<mediatype>audio</mediatype>
							<parameter>
								<name>Level</name>
								<parameterid>level</parameterid>
								<valuemin>0</valuemin>
								<valuemax>3.98109</valuemax>
								<value>1</value>
							</parameter>
						</effect>
					</filter>
					<filter>
						<effect>
							<name>Audio Pan</name>
							<effectid>audiopan</effectid>
							<effectcategory>audiopan</effectcategory>
							<effecttype>audiopan</effecttype>
							<mediatype>audio</mediatype>
							<parameter>
								<name>Pan</name>
								<parameterid>pan</parameterid>
								<valuemin>-1</valuemin>
								<valuemax>1</valuemax>
								<value>-1</value>
							</parameter>
						</effect>
					</filter>
					<sourcetrack>
						<mediatype>audio</mediatype>
						<trackindex>1</trackindex>
					</sourcetrack>
					<link>
						<linkclipref>AntonyAgar006Subclipa</linkclipref>
						<mediatype>video</mediatype>
						<trackindex>8</trackindex>
						<clipindex>7</clipindex>
					</link>
					<link>
						<linkclipref>AntonyAgar006Subclipa2</linkclipref>
						<mediatype>audio</mediatype>
						<trackindex>11</trackindex>
						<clipindex>7</clipindex>
						<groupindex>1</groupindex>
					</link>
					<link>
						<linkclipref>AntonyAgar006Subclipa3</linkclipref>
						<mediatype>audio</mediatype>
						<trackindex>12</trackindex>
						<clipindex>7</clipindex>
						<groupindex>1</groupindex>
					</link>
					<itemhistory>
						<uuid>45BC50A0-3EAA-4ABA-BC72-4AA2A3955ED0</uuid>
						<uuid>021344F1-1B0A-433C-ACEF-6A1CEB15DAE5</uuid>
					</itemhistory>
				</clipitem>
				<clipitem id="AntonyAgar007Subclipa2">
					<name>AntonyAgar007Subclipa</name>
					<duration>723</duration>
					<rate>
						<ntsc>FALSE</ntsc>
						<timebase>25</timebase>
					</rate>
					<in>32</in>
					<out>723</out>
					<start>11197</start>
					<end>11888</end>
					<logginginfo>
						<scene/>
						<shottake/>
						<lognote/>
						<good>FALSE</good>
					</logginginfo>
					<labels>
						<label>Good Take</label>
						<label2/>
					</labels>
					<comments>
						<mastercomment1/>
						<mastercomment2/>
						<mastercomment3/>
						<mastercomment4/>
					</comments>
					<file id="AntonyAgar007Subclipa1"/>
					<filter>
						<effect>
							<name>Audio Levels</name>
							<effectid>audiolevels</effectid>
							<effectcategory>audiolevels</effectcategory>
							<effecttype>audiolevels</effecttype>
							<mediatype>audio</mediatype>
							<parameter>
								<name>Level</name>
								<parameterid>level</parameterid>
								<valuemin>0</valuemin>
								<valuemax>3.98109</valuemax>
								<value>1</value>
							</parameter>
						</effect>
					</filter>
					<filter>
						<effect>
							<name>Audio Pan</name>
							<effectid>audiopan</effectid>
							<effectcategory>audiopan</effectcategory>
							<effecttype>audiopan</effecttype>
							<mediatype>audio</mediatype>
							<parameter>
								<name>Pan</name>
								<parameterid>pan</parameterid>
								<valuemin>-1</valuemin>
								<valuemax>1</valuemax>
								<value>-1</value>
							</parameter>
						</effect>
					</filter>
					<sourcetrack>
						<mediatype>audio</mediatype>
						<trackindex>1</trackindex>
					</sourcetrack>
					<link>
						<linkclipref>AntonyAgar007Subclipa</linkclipref>
						<mediatype>video</mediatype>
						<trackindex>8</trackindex>
						<clipindex>8</clipindex>
					</link>
					<link>
						<linkclipref>AntonyAgar007Subclipa2</linkclipref>
						<mediatype>audio</mediatype>
						<trackindex>11</trackindex>
						<clipindex>8</clipindex>
						<groupindex>1</groupindex>
					</link>
					<link>
						<linkclipref>AntonyAgar007Subclipa3</linkclipref>
						<mediatype>audio</mediatype>
						<trackindex>12</trackindex>
						<clipindex>8</clipindex>
						<groupindex>1</groupindex>
					</link>
					<itemhistory>
						<uuid>23236D95-2465-49B6-9C72-D0DF303E93E8</uuid>
						<uuid>91AFD3B1-5597-4A9D-9594-0ABF052BAEB7</uuid>
					</itemhistory>
				</clipitem>
				<clipitem id="AntonyAgar007Subclipb2">
					<name>AntonyAgar007Subclipb</name>
					<duration>136</duration>
					<rate>
						<ntsc>FALSE</ntsc>
						<timebase>25</timebase>
					</rate>
					<in>0</in>
					<out>136</out>
					<start>11888</start>
					<end>12024</end>
					<logginginfo>
						<scene/>
						<shottake/>
						<lognote/>
						<good>FALSE</good>
					</logginginfo>
					<labels>
						<label>Good Take</label>
						<label2/>
					</labels>
					<comments>
						<mastercomment1/>
						<mastercomment2/>
						<mastercomment3/>
						<mastercomment4/>
					</comments>
					<file id="AntonyAgar007Subclipb1"/>
					<filter>
						<effect>
							<name>Audio Levels</name>
							<effectid>audiolevels</effectid>
							<effectcategory>audiolevels</effectcategory>
							<effecttype>audiolevels</effecttype>
							<mediatype>audio</mediatype>
							<parameter>
								<name>Level</name>
								<parameterid>level</parameterid>
								<valuemin>0</valuemin>
								<valuemax>3.98109</valuemax>
								<value>1</value>
							</parameter>
						</effect>
					</filter>
					<filter>
						<effect>
							<name>Audio Pan</name>
							<effectid>audiopan</effectid>
							<effectcategory>audiopan</effectcategory>
							<effecttype>audiopan</effecttype>
							<mediatype>audio</mediatype>
							<parameter>
								<name>Pan</name>
								<parameterid>pan</parameterid>
								<valuemin>-1</valuemin>
								<valuemax>1</valuemax>
								<value>-1</value>
							</parameter>
						</effect>
					</filter>
					<sourcetrack>
						<mediatype>audio</mediatype>
						<trackindex>1</trackindex>
					</sourcetrack>
					<link>
						<linkclipref>AntonyAgar007Subclipb</linkclipref>
						<mediatype>video</mediatype>
						<trackindex>8</trackindex>
						<clipindex>9</clipindex>
					</link>
					<link>
						<linkclipref>AntonyAgar007Subclipb2</linkclipref>
						<mediatype>audio</mediatype>
						<trackindex>11</trackindex>
						<clipindex>9</clipindex>
						<groupindex>1</groupindex>
					</link>
					<link>
						<linkclipref>AntonyAgar007Subclipb3</linkclipref>
						<mediatype>audio</mediatype>
						<trackindex>12</trackindex>
						<clipindex>9</clipindex>
						<groupindex>1</groupindex>
					</link>
					<itemhistory>
						<uuid>4DA46941-6D0C-440F-8CFE-DE95CA57602B</uuid>
						<uuid>1B745961-4AE5-4803-B770-02DC782E29CB</uuid>
					</itemhistory>
				</clipitem>
				<clipitem id="AntonyAgar007Subclipc2">
					<name>AntonyAgar007Subclipc</name>
					<duration>451</duration>
					<rate>
						<ntsc>FALSE</ntsc>
						<timebase>25</timebase>
					</rate>
					<in>0</in>
					<out>451</out>
					<start>12024</start>
					<end>12475</end>
					<logginginfo>
						<scene/>
						<shottake/>
						<lognote/>
						<good>FALSE</good>
					</logginginfo>
					<labels>
						<label>Good Take</label>
						<label2/>
					</labels>
					<comments>
						<mastercomment1/>
						<mastercomment2/>
						<mastercomment3/>
						<mastercomment4/>
					</comments>
					<file id="AntonyAgar007Subclipc1"/>
					<filter>
						<effect>
							<name>Audio Levels</name>
							<effectid>audiolevels</effectid>
							<effectcategory>audiolevels</effectcategory>
							<effecttype>audiolevels</effecttype>
							<mediatype>audio</mediatype>
							<parameter>
								<name>Level</name>
								<parameterid>level</parameterid>
								<valuemin>0</valuemin>
								<valuemax>3.98109</valuemax>
								<value>1</value>
							</parameter>
						</effect>
					</filter>
					<filter>
						<effect>
							<name>Audio Pan</name>
							<effectid>audiopan</effectid>
							<effectcategory>audiopan</effectcategory>
							<effecttype>audiopan</effecttype>
							<mediatype>audio</mediatype>
							<parameter>
								<name>Pan</name>
								<parameterid>pan</parameterid>
								<valuemin>-1</valuemin>
								<valuemax>1</valuemax>
								<value>-1</value>
							</parameter>
						</effect>
					</filter>
					<sourcetrack>
						<mediatype>audio</mediatype>
						<trackindex>1</trackindex>
					</sourcetrack>
					<link>
						<linkclipref>AntonyAgar007Subclipc</linkclipref>
						<mediatype>video</mediatype>
						<trackindex>8</trackindex>
						<clipindex>10</clipindex>
					</link>
					<link>
						<linkclipref>AntonyAgar007Subclipc2</linkclipref>
						<mediatype>audio</mediatype>
						<trackindex>11</trackindex>
						<clipindex>10</clipindex>
						<groupindex>1</groupindex>
					</link>
					<link>
						<linkclipref>AntonyAgar007Subclipc3</linkclipref>
						<mediatype>audio</mediatype>
						<trackindex>12</trackindex>
						<clipindex>10</clipindex>
						<groupindex>1</groupindex>
					</link>
					<itemhistory>
						<uuid>D693D882-4DF8-42FD-968E-63CE1CE9027D</uuid>
						<uuid>0699B27E-4211-4EFF-A7E3-FAB69955449B</uuid>
					</itemhistory>
				</clipitem>
				<clipitem id="AntonyAgar007Subclipd2">
					<name>AntonyAgar007Subclipd</name>
					<duration>111</duration>
					<rate>
						<ntsc>FALSE</ntsc>
						<timebase>25</timebase>
					</rate>
					<in>0</in>
					<out>111</out>
					<start>12475</start>
					<end>12586</end>
					<logginginfo>
						<scene/>
						<shottake/>
						<lognote/>
						<good>FALSE</good>
					</logginginfo>
					<labels>
						<label>Good Take</label>
						<label2/>
					</labels>
					<comments>
						<mastercomment1/>
						<mastercomment2/>
						<mastercomment3/>
						<mastercomment4/>
					</comments>
					<file id="AntonyAgar007Subclipd1"/>
					<filter>
						<effect>
							<name>Audio Levels</name>
							<effectid>audiolevels</effectid>
							<effectcategory>audiolevels</effectcategory>
							<effecttype>audiolevels</effecttype>
							<mediatype>audio</mediatype>
							<parameter>
								<name>Level</name>
								<parameterid>level</parameterid>
								<valuemin>0</valuemin>
								<valuemax>3.98109</valuemax>
								<value>1</value>
							</parameter>
						</effect>
					</filter>
					<filter>
						<effect>
							<name>Audio Pan</name>
							<effectid>audiopan</effectid>
							<effectcategory>audiopan</effectcategory>
							<effecttype>audiopan</effecttype>
							<mediatype>audio</mediatype>
							<parameter>
								<name>Pan</name>
								<parameterid>pan</parameterid>
								<valuemin>-1</valuemin>
								<valuemax>1</valuemax>
								<value>-1</value>
							</parameter>
						</effect>
					</filter>
					<sourcetrack>
						<mediatype>audio</mediatype>
						<trackindex>1</trackindex>
					</sourcetrack>
					<link>
						<linkclipref>AntonyAgar007Subclipd</linkclipref>
						<mediatype>video</mediatype>
						<trackindex>8</trackindex>
						<clipindex>11</clipindex>
					</link>
					<link>
						<linkclipref>AntonyAgar007Subclipd2</linkclipref>
						<mediatype>audio</mediatype>
						<trackindex>11</trackindex>
						<clipindex>11</clipindex>
						<groupindex>1</groupindex>
					</link>
					<link>
						<linkclipref>AntonyAgar007Subclipd3</linkclipref>
						<mediatype>audio</mediatype>
						<trackindex>12</trackindex>
						<clipindex>11</clipindex>
						<groupindex>1</groupindex>
					</link>
					<itemhistory>
						<uuid>70CB169C-35FB-42BE-B2D5-0A2113485DD8</uuid>
						<uuid>5D6A9AC1-A8C6-41EF-A8D0-5F9C45053C75</uuid>
					</itemhistory>
				</clipitem>
				<clipitem id="AntonyAgar007Subclipe2">
					<name>AntonyAgar007Subclipe</name>
					<duration>550</duration>
					<rate>
						<ntsc>FALSE</ntsc>
						<timebase>25</timebase>
					</rate>
					<in>0</in>
					<out>550</out>
					<start>12586</start>
					<end>13136</end>
					<logginginfo>
						<scene/>
						<shottake/>
						<lognote/>
						<good>FALSE</good>
					</logginginfo>
					<labels>
						<label>Good Take</label>
						<label2/>
					</labels>
					<comments>
						<mastercomment1/>
						<mastercomment2/>
						<mastercomment3/>
						<mastercomment4/>
					</comments>
					<file id="AntonyAgar007Subclipe1"/>
					<filter>
						<effect>
							<name>Audio Levels</name>
							<effectid>audiolevels</effectid>
							<effectcategory>audiolevels</effectcategory>
							<effecttype>audiolevels</effecttype>
							<mediatype>audio</mediatype>
							<parameter>
								<name>Level</name>
								<parameterid>level</parameterid>
								<valuemin>0</valuemin>
								<valuemax>3.98109</valuemax>
								<value>1</value>
							</parameter>
						</effect>
					</filter>
					<filter>
						<effect>
							<name>Audio Pan</name>
							<effectid>audiopan</effectid>
							<effectcategory>audiopan</effectcategory>
							<effecttype>audiopan</effecttype>
							<mediatype>audio</mediatype>
							<parameter>
								<name>Pan</name>
								<parameterid>pan</parameterid>
								<valuemin>-1</valuemin>
								<valuemax>1</valuemax>
								<value>-1</value>
							</parameter>
						</effect>
					</filter>
					<sourcetrack>
						<mediatype>audio</mediatype>
						<trackindex>1</trackindex>
					</sourcetrack>
					<link>
						<linkclipref>AntonyAgar007Subclipe</linkclipref>
						<mediatype>video</mediatype>
						<trackindex>8</trackindex>
						<clipindex>12</clipindex>
					</link>
					<link>
						<linkclipref>AntonyAgar007Subclipe2</linkclipref>
						<mediatype>audio</mediatype>
						<trackindex>11</trackindex>
						<clipindex>12</clipindex>
						<groupindex>1</groupindex>
					</link>
					<link>
						<linkclipref>AntonyAgar007Subclipe3</linkclipref>
						<mediatype>audio</mediatype>
						<trackindex>12</trackindex>
						<clipindex>12</clipindex>
						<groupindex>1</groupindex>
					</link>
					<itemhistory>
						<uuid>2440950D-591D-415D-806E-E36E069D4CFA</uuid>
						<uuid>0BAB3D9B-0049-486D-A22C-0096E5BF5361</uuid>
					</itemhistory>
				</clipitem>
				<clipitem id="AntonyAgar008Subclip2">
					<name>AntonyAgar008Subclip</name>
					<duration>123</duration>
					<rate>
						<ntsc>FALSE</ntsc>
						<timebase>25</timebase>
					</rate>
					<in>0</in>
					<out>123</out>
					<start>13136</start>
					<end>13259</end>
					<logginginfo>
						<scene/>
						<shottake/>
						<lognote/>
						<good>FALSE</good>
					</logginginfo>
					<labels>
						<label>Good Take</label>
						<label2/>
					</labels>
					<comments>
						<mastercomment1/>
						<mastercomment2/>
						<mastercomment3/>
						<mastercomment4/>
					</comments>
					<file id="AntonyAgar008Subclip1"/>
					<filter>
						<effect>
							<name>Audio Levels</name>
							<effectid>audiolevels</effectid>
							<effectcategory>audiolevels</effectcategory>
							<effecttype>audiolevels</effecttype>
							<mediatype>audio</mediatype>
							<parameter>
								<name>Level</name>
								<parameterid>level</parameterid>
								<valuemin>0</valuemin>
								<valuemax>3.98109</valuemax>
								<value>1</value>
							</parameter>
						</effect>
					</filter>
					<filter>
						<effect>
							<name>Audio Pan</name>
							<effectid>audiopan</effectid>
							<effectcategory>audiopan</effectcategory>
							<effecttype>audiopan</effecttype>
							<mediatype>audio</mediatype>
							<parameter>
								<name>Pan</name>
								<parameterid>pan</parameterid>
								<valuemin>-1</valuemin>
								<valuemax>1</valuemax>
								<value>-1</value>
							</parameter>
						</effect>
					</filter>
					<sourcetrack>
						<mediatype>audio</mediatype>
						<trackindex>1</trackindex>
					</sourcetrack>
					<link>
						<linkclipref>AntonyAgar008Subclip</linkclipref>
						<mediatype>video</mediatype>
						<trackindex>8</trackindex>
						<clipindex>13</clipindex>
					</link>
					<link>
						<linkclipref>AntonyAgar008Subclip2</linkclipref>
						<mediatype>audio</mediatype>
						<trackindex>11</trackindex>
						<clipindex>13</clipindex>
						<groupindex>1</groupindex>
					</link>
					<link>
						<linkclipref>AntonyAgar008Subclip3</linkclipref>
						<mediatype>audio</mediatype>
						<trackindex>12</trackindex>
						<clipindex>13</clipindex>
						<groupindex>1</groupindex>
					</link>
					<itemhistory>
						<uuid>521CA67C-3BD5-4A1E-B5CB-408E4B50141D</uuid>
						<uuid>B79FEEF5-9177-4263-93BC-3D987BB871B0</uuid>
					</itemhistory>
				</clipitem>
				<clipitem id="AntonyAgar008Subclip2 2">
					<name>AntonyAgar008Subclip2</name>
					<duration>416</duration>
					<rate>
						<ntsc>FALSE</ntsc>
						<timebase>25</timebase>
					</rate>
					<in>0</in>
					<out>416</out>
					<start>13259</start>
					<end>13675</end>
					<logginginfo>
						<scene/>
						<shottake/>
						<lognote/>
						<good>FALSE</good>
					</logginginfo>
					<labels>
						<label>Good Take</label>
						<label2/>
					</labels>
					<comments>
						<mastercomment1/>
						<mastercomment2/>
						<mastercomment3/>
						<mastercomment4/>
					</comments>
					<file id="AntonyAgar008Subclip2 1"/>
					<filter>
						<effect>
							<name>Audio Levels</name>
							<effectid>audiolevels</effectid>
							<effectcategory>audiolevels</effectcategory>
							<effecttype>audiolevels</effecttype>
							<mediatype>audio</mediatype>
							<parameter>
								<name>Level</name>
								<parameterid>level</parameterid>
								<valuemin>0</valuemin>
								<valuemax>3.98109</valuemax>
								<value>1</value>
							</parameter>
						</effect>
					</filter>
					<filter>
						<effect>
							<name>Audio Pan</name>
							<effectid>audiopan</effectid>
							<effectcategory>audiopan</effectcategory>
							<effecttype>audiopan</effecttype>
							<mediatype>audio</mediatype>
							<parameter>
								<name>Pan</name>
								<parameterid>pan</parameterid>
								<valuemin>-1</valuemin>
								<valuemax>1</valuemax>
								<value>-1</value>
							</parameter>
						</effect>
					</filter>
					<sourcetrack>
						<mediatype>audio</mediatype>
						<trackindex>1</trackindex>
					</sourcetrack>
					<link>
						<linkclipref>AntonyAgar008Subclip2 </linkclipref>
						<mediatype>video</mediatype>
						<trackindex>8</trackindex>
						<clipindex>14</clipindex>
					</link>
					<link>
						<linkclipref>AntonyAgar008Subclip2 2</linkclipref>
						<mediatype>audio</mediatype>
						<trackindex>11</trackindex>
						<clipindex>14</clipindex>
						<groupindex>1</groupindex>
					</link>
					<link>
						<linkclipref>AntonyAgar008Subclip2 3</linkclipref>
						<mediatype>audio</mediatype>
						<trackindex>12</trackindex>
						<clipindex>14</clipindex>
						<groupindex>1</groupindex>
					</link>
					<itemhistory>
						<uuid>09F46F59-9B40-4065-952F-3E193C3042FE</uuid>
						<uuid>F548702C-5BB9-4857-AE7D-A1F5ECDACBE6</uuid>
					</itemhistory>
				</clipitem>
				<clipitem id="AntonyAgar008Subclip3 2">
					<name>AntonyAgar008Subclip3</name>
					<duration>392</duration>
					<rate>
						<ntsc>FALSE</ntsc>
						<timebase>25</timebase>
					</rate>
					<in>0</in>
					<out>392</out>
					<start>13675</start>
					<end>14067</end>
					<logginginfo>
						<scene/>
						<shottake/>
						<lognote/>
						<good>FALSE</good>
					</logginginfo>
					<labels>
						<label>Good Take</label>
						<label2/>
					</labels>
					<comments>
						<mastercomment1/>
						<mastercomment2/>
						<mastercomment3/>
						<mastercomment4/>
					</comments>
					<file id="AntonyAgar008Subclip3 1"/>
					<filter>
						<effect>
							<name>Audio Levels</name>
							<effectid>audiolevels</effectid>
							<effectcategory>audiolevels</effectcategory>
							<effecttype>audiolevels</effecttype>
							<mediatype>audio</mediatype>
							<parameter>
								<name>Level</name>
								<parameterid>level</parameterid>
								<valuemin>0</valuemin>
								<valuemax>3.98109</valuemax>
								<value>1</value>
							</parameter>
						</effect>
					</filter>
					<filter>
						<effect>
							<name>Audio Pan</name>
							<effectid>audiopan</effectid>
							<effectcategory>audiopan</effectcategory>
							<effecttype>audiopan</effecttype>
							<mediatype>audio</mediatype>
							<parameter>
								<name>Pan</name>
								<parameterid>pan</parameterid>
								<valuemin>-1</valuemin>
								<valuemax>1</valuemax>
								<value>-1</value>
							</parameter>
						</effect>
					</filter>
					<sourcetrack>
						<mediatype>audio</mediatype>
						<trackindex>1</trackindex>
					</sourcetrack>
					<link>
						<linkclipref>AntonyAgar008Subclip3 </linkclipref>
						<mediatype>video</mediatype>
						<trackindex>8</trackindex>
						<clipindex>15</clipindex>
					</link>
					<link>
						<linkclipref>AntonyAgar008Subclip3 2</linkclipref>
						<mediatype>audio</mediatype>
						<trackindex>11</trackindex>
						<clipindex>15</clipindex>
						<groupindex>1</groupindex>
					</link>
					<link>
						<linkclipref>AntonyAgar008Subclip3 3</linkclipref>
						<mediatype>audio</mediatype>
						<trackindex>12</trackindex>
						<clipindex>15</clipindex>
						<groupindex>1</groupindex>
					</link>
					<itemhistory>
						<uuid>0642E119-DF0A-4507-BD29-EEBDC29F3458</uuid>
						<uuid>9F76CF91-C93E-400B-8446-2D29C7849226</uuid>
					</itemhistory>
				</clipitem>
				<clipitem id="AntonyAgar008Subclipa2">
					<name>AntonyAgar008Subclipa</name>
					<duration>105</duration>
					<rate>
						<ntsc>FALSE</ntsc>
						<timebase>25</timebase>
					</rate>
					<in>0</in>
					<out>105</out>
					<start>14067</start>
					<end>14172</end>
					<logginginfo>
						<scene/>
						<shottake/>
						<lognote/>
						<good>FALSE</good>
					</logginginfo>
					<labels>
						<label>Good Take</label>
						<label2/>
					</labels>
					<comments>
						<mastercomment1/>
						<mastercomment2/>
						<mastercomment3/>
						<mastercomment4/>
					</comments>
					<file id="AntonyAgar008Subclipa1"/>
					<filter>
						<effect>
							<name>Audio Levels</name>
							<effectid>audiolevels</effectid>
							<effectcategory>audiolevels</effectcategory>
							<effecttype>audiolevels</effecttype>
							<mediatype>audio</mediatype>
							<parameter>
								<name>Level</name>
								<parameterid>level</parameterid>
								<valuemin>0</valuemin>
								<valuemax>3.98109</valuemax>
								<value>1</value>
							</parameter>
						</effect>
					</filter>
					<filter>
						<effect>
							<name>Audio Pan</name>
							<effectid>audiopan</effectid>
							<effectcategory>audiopan</effectcategory>
							<effecttype>audiopan</effecttype>
							<mediatype>audio</mediatype>
							<parameter>
								<name>Pan</name>
								<parameterid>pan</parameterid>
								<valuemin>-1</valuemin>
								<valuemax>1</valuemax>
								<value>-1</value>
							</parameter>
						</effect>
					</filter>
					<sourcetrack>
						<mediatype>audio</mediatype>
						<trackindex>1</trackindex>
					</sourcetrack>
					<link>
						<linkclipref>AntonyAgar008Subclipa</linkclipref>
						<mediatype>video</mediatype>
						<trackindex>8</trackindex>
						<clipindex>16</clipindex>
					</link>
					<link>
						<linkclipref>AntonyAgar008Subclipa2</linkclipref>
						<mediatype>audio</mediatype>
						<trackindex>11</trackindex>
						<clipindex>16</clipindex>
						<groupindex>1</groupindex>
					</link>
					<link>
						<linkclipref>AntonyAgar008Subclipa3</linkclipref>
						<mediatype>audio</mediatype>
						<trackindex>12</trackindex>
						<clipindex>16</clipindex>
						<groupindex>1</groupindex>
					</link>
					<itemhistory>
						<uuid>021F5ACF-4A8A-4618-8318-71998E06A4AB</uuid>
						<uuid>082F8F6D-C7F9-4E6E-85D6-8AC27311073A</uuid>
					</itemhistory>
				</clipitem>
				<clipitem id="AntonyAgar008Subclipb2">
					<name>AntonyAgar008Subclipb</name>
					<duration>213</duration>
					<rate>
						<ntsc>FALSE</ntsc>
						<timebase>25</timebase>
					</rate>
					<in>0</in>
					<out>213</out>
					<start>14172</start>
					<end>14385</end>
					<logginginfo>
						<scene/>
						<shottake/>
						<lognote/>
						<good>FALSE</good>
					</logginginfo>
					<labels>
						<label>Good Take</label>
						<label2/>
					</labels>
					<comments>
						<mastercomment1/>
						<mastercomment2/>
						<mastercomment3/>
						<mastercomment4/>
					</comments>
					<file id="AntonyAgar008Subclipb1"/>
					<filter>
						<effect>
							<name>Audio Levels</name>
							<effectid>audiolevels</effectid>
							<effectcategory>audiolevels</effectcategory>
							<effecttype>audiolevels</effecttype>
							<mediatype>audio</mediatype>
							<parameter>
								<name>Level</name>
								<parameterid>level</parameterid>
								<valuemin>0</valuemin>
								<valuemax>3.98109</valuemax>
								<value>1</value>
							</parameter>
						</effect>
					</filter>
					<filter>
						<effect>
							<name>Audio Pan</name>
							<effectid>audiopan</effectid>
							<effectcategory>audiopan</effectcategory>
							<effecttype>audiopan</effecttype>
							<mediatype>audio</mediatype>
							<parameter>
								<name>Pan</name>
								<parameterid>pan</parameterid>
								<valuemin>-1</valuemin>
								<valuemax>1</valuemax>
								<value>-1</value>
							</parameter>
						</effect>
					</filter>
					<sourcetrack>
						<mediatype>audio</mediatype>
						<trackindex>1</trackindex>
					</sourcetrack>
					<link>
						<linkclipref>AntonyAgar008Subclipb</linkclipref>
						<mediatype>video</mediatype>
						<trackindex>8</trackindex>
						<clipindex>17</clipindex>
					</link>
					<link>
						<linkclipref>AntonyAgar008Subclipb2</linkclipref>
						<mediatype>audio</mediatype>
						<trackindex>11</trackindex>
						<clipindex>17</clipindex>
						<groupindex>1</groupindex>
					</link>
					<link>
						<linkclipref>AntonyAgar008Subclipb3</linkclipref>
						<mediatype>audio</mediatype>
						<trackindex>12</trackindex>
						<clipindex>17</clipindex>
						<groupindex>1</groupindex>
					</link>
					<itemhistory>
						<uuid>843E72C8-0B34-4BC5-B6D5-EDE2C3960858</uuid>
						<uuid>93248ECD-7B63-4608-BC1A-962B32DDFE7E</uuid>
					</itemhistory>
				</clipitem>
				<enabled>FALSE</enabled>
				<locked>FALSE</locked>
				<outputchannelindex>1</outputchannelindex>
			</track>
			<track>
				<clipitem id="AntonyAgar001Subclipa3">
					<name>AntonyAgar001Subclipa</name>
					<duration>569</duration>
					<rate>
						<ntsc>FALSE</ntsc>
						<timebase>25</timebase>
					</rate>
					<in>0</in>
					<out>569</out>
					<start>633</start>
					<end>1202</end>
					<logginginfo>
						<scene/>
						<shottake/>
						<lognote/>
						<good>FALSE</good>
					</logginginfo>
					<labels>
						<label>Good Take</label>
						<label2/>
					</labels>
					<comments>
						<mastercomment1/>
						<mastercomment2/>
						<mastercomment3/>
						<mastercomment4/>
					</comments>
					<file id="AntonyAgar001Subclipa1"/>
					<filter>
						<effect>
							<name>Audio Levels</name>
							<effectid>audiolevels</effectid>
							<effectcategory>audiolevels</effectcategory>
							<effecttype>audiolevels</effecttype>
							<mediatype>audio</mediatype>
							<parameter>
								<name>Level</name>
								<parameterid>level</parameterid>
								<valuemin>0</valuemin>
								<valuemax>3.98109</valuemax>
								<value>1</value>
							</parameter>
						</effect>
					</filter>
					<filter>
						<effect>
							<name>Audio Pan</name>
							<effectid>audiopan</effectid>
							<effectcategory>audiopan</effectcategory>
							<effecttype>audiopan</effecttype>
							<mediatype>audio</mediatype>
							<parameter>
								<name>Pan</name>
								<parameterid>pan</parameterid>
								<valuemin>-1</valuemin>
								<valuemax>1</valuemax>
								<value>1</value>
							</parameter>
						</effect>
					</filter>
					<sourcetrack>
						<mediatype>audio</mediatype>
						<trackindex>2</trackindex>
					</sourcetrack>
					<link>
						<linkclipref>AntonyAgar001Subclipa</linkclipref>
						<mediatype>video</mediatype>
						<trackindex>8</trackindex>
						<clipindex>1</clipindex>
					</link>
					<link>
						<linkclipref>AntonyAgar001Subclipa2</linkclipref>
						<mediatype>audio</mediatype>
						<trackindex>11</trackindex>
						<clipindex>1</clipindex>
						<groupindex>1</groupindex>
					</link>
					<link>
						<linkclipref>AntonyAgar001Subclipa3</linkclipref>
						<mediatype>audio</mediatype>
						<trackindex>12</trackindex>
						<clipindex>1</clipindex>
						<groupindex>1</groupindex>
					</link>
					<itemhistory>
						<uuid>040D8E78-DD3E-40A5-A0FE-05F781BBCFBC</uuid>
						<uuid>2106DF2B-305A-4F91-95D2-E6EAB2B877F5</uuid>
					</itemhistory>
				</clipitem>
				<clipitem id="AntonyAgar002Subclipa3">
					<name>AntonyAgar002Subclipa</name>
					<duration>2989</duration>
					<rate>
						<ntsc>FALSE</ntsc>
						<timebase>25</timebase>
					</rate>
					<in>0</in>
					<out>2989</out>
					<start>1202</start>
					<end>4191</end>
					<logginginfo>
						<scene/>
						<shottake/>
						<lognote/>
						<good>FALSE</good>
					</logginginfo>
					<labels>
						<label>Good Take</label>
						<label2/>
					</labels>
					<comments>
						<mastercomment1/>
						<mastercomment2/>
						<mastercomment3/>
						<mastercomment4/>
					</comments>
					<file id="AntonyAgar002Subclipa1"/>
					<filter>
						<effect>
							<name>Audio Levels</name>
							<effectid>audiolevels</effectid>
							<effectcategory>audiolevels</effectcategory>
							<effecttype>audiolevels</effecttype>
							<mediatype>audio</mediatype>
							<parameter>
								<name>Level</name>
								<parameterid>level</parameterid>
								<valuemin>0</valuemin>
								<valuemax>3.98109</valuemax>
								<value>1</value>
							</parameter>
						</effect>
					</filter>
					<filter>
						<effect>
							<name>Audio Pan</name>
							<effectid>audiopan</effectid>
							<effectcategory>audiopan</effectcategory>
							<effecttype>audiopan</effecttype>
							<mediatype>audio</mediatype>
							<parameter>
								<name>Pan</name>
								<parameterid>pan</parameterid>
								<valuemin>-1</valuemin>
								<valuemax>1</valuemax>
								<value>1</value>
							</parameter>
						</effect>
					</filter>
					<sourcetrack>
						<mediatype>audio</mediatype>
						<trackindex>2</trackindex>
					</sourcetrack>
					<link>
						<linkclipref>AntonyAgar002Subclipa</linkclipref>
						<mediatype>video</mediatype>
						<trackindex>8</trackindex>
						<clipindex>2</clipindex>
					</link>
					<link>
						<linkclipref>AntonyAgar002Subclipa2</linkclipref>
						<mediatype>audio</mediatype>
						<trackindex>11</trackindex>
						<clipindex>2</clipindex>
						<groupindex>1</groupindex>
					</link>
					<link>
						<linkclipref>AntonyAgar002Subclipa3</linkclipref>
						<mediatype>audio</mediatype>
						<trackindex>12</trackindex>
						<clipindex>2</clipindex>
						<groupindex>1</groupindex>
					</link>
					<itemhistory>
						<uuid>CFDD29B3-9F0C-4032-9CE1-F1841749A997</uuid>
						<uuid>89D8990A-D1D8-4F1A-93BA-C8E63B18E36C</uuid>
					</itemhistory>
				</clipitem>
				<clipitem id="AntonyAgar002Subclipb3">
					<name>AntonyAgar002Subclipb</name>
					<duration>1619</duration>
					<rate>
						<ntsc>FALSE</ntsc>
						<timebase>25</timebase>
					</rate>
					<in>0</in>
					<out>1619</out>
					<start>4191</start>
					<end>5810</end>
					<logginginfo>
						<scene/>
						<shottake/>
						<lognote/>
						<good>FALSE</good>
					</logginginfo>
					<labels>
						<label>Good Take</label>
						<label2/>
					</labels>
					<comments>
						<mastercomment1/>
						<mastercomment2/>
						<mastercomment3/>
						<mastercomment4/>
					</comments>
					<file id="AntonyAgar002Subclipb1"/>
					<filter>
						<effect>
							<name>Audio Levels</name>
							<effectid>audiolevels</effectid>
							<effectcategory>audiolevels</effectcategory>
							<effecttype>audiolevels</effecttype>
							<mediatype>audio</mediatype>
							<parameter>
								<name>Level</name>
								<parameterid>level</parameterid>
								<valuemin>0</valuemin>
								<valuemax>3.98109</valuemax>
								<value>1</value>
							</parameter>
						</effect>
					</filter>
					<filter>
						<effect>
							<name>Audio Pan</name>
							<effectid>audiopan</effectid>
							<effectcategory>audiopan</effectcategory>
							<effecttype>audiopan</effecttype>
							<mediatype>audio</mediatype>
							<parameter>
								<name>Pan</name>
								<parameterid>pan</parameterid>
								<valuemin>-1</valuemin>
								<valuemax>1</valuemax>
								<value>1</value>
							</parameter>
						</effect>
					</filter>
					<sourcetrack>
						<mediatype>audio</mediatype>
						<trackindex>2</trackindex>
					</sourcetrack>
					<link>
						<linkclipref>AntonyAgar002Subclipb</linkclipref>
						<mediatype>video</mediatype>
						<trackindex>8</trackindex>
						<clipindex>3</clipindex>
					</link>
					<link>
						<linkclipref>AntonyAgar002Subclipb2</linkclipref>
						<mediatype>audio</mediatype>
						<trackindex>11</trackindex>
						<clipindex>3</clipindex>
						<groupindex>1</groupindex>
					</link>
					<link>
						<linkclipref>AntonyAgar002Subclipb3</linkclipref>
						<mediatype>audio</mediatype>
						<trackindex>12</trackindex>
						<clipindex>3</clipindex>
						<groupindex>1</groupindex>
					</link>
					<itemhistory>
						<uuid>19D7CEE1-8B6F-4D59-BAF5-544BBB823153</uuid>
						<uuid>1C941145-62AE-4C7E-94BE-B4C2C0A961DD</uuid>
					</itemhistory>
				</clipitem>
				<clipitem id="AntonyAgar003 3">
					<name>AntonyAgar003</name>
					<duration>456</duration>
					<rate>
						<ntsc>FALSE</ntsc>
						<timebase>25</timebase>
					</rate>
					<in>0</in>
					<out>456</out>
					<start>5810</start>
					<end>6266</end>
					<logginginfo>
						<scene/>
						<shottake/>
						<lognote/>
						<good>FALSE</good>
					</logginginfo>
					<labels>
						<label>Good Take</label>
						<label2/>
					</labels>
					<comments>
						<mastercomment1/>
						<mastercomment2/>
						<mastercomment3/>
						<mastercomment4/>
					</comments>
					<file id="AntonyAgar003 1"/>
					<filter>
						<effect>
							<name>Audio Levels</name>
							<effectid>audiolevels</effectid>
							<effectcategory>audiolevels</effectcategory>
							<effecttype>audiolevels</effecttype>
							<mediatype>audio</mediatype>
							<parameter>
								<name>Level</name>
								<parameterid>level</parameterid>
								<valuemin>0</valuemin>
								<valuemax>3.98109</valuemax>
								<value>1</value>
							</parameter>
						</effect>
					</filter>
					<filter>
						<effect>
							<name>Audio Pan</name>
							<effectid>audiopan</effectid>
							<effectcategory>audiopan</effectcategory>
							<effecttype>audiopan</effecttype>
							<mediatype>audio</mediatype>
							<parameter>
								<name>Pan</name>
								<parameterid>pan</parameterid>
								<valuemin>-1</valuemin>
								<valuemax>1</valuemax>
								<value>1</value>
							</parameter>
						</effect>
					</filter>
					<sourcetrack>
						<mediatype>audio</mediatype>
						<trackindex>2</trackindex>
					</sourcetrack>
					<link>
						<linkclipref>AntonyAgar003 </linkclipref>
						<mediatype>video</mediatype>
						<trackindex>8</trackindex>
						<clipindex>4</clipindex>
					</link>
					<link>
						<linkclipref>AntonyAgar003 2</linkclipref>
						<mediatype>audio</mediatype>
						<trackindex>11</trackindex>
						<clipindex>4</clipindex>
						<groupindex>1</groupindex>
					</link>
					<link>
						<linkclipref>AntonyAgar003 3</linkclipref>
						<mediatype>audio</mediatype>
						<trackindex>12</trackindex>
						<clipindex>4</clipindex>
						<groupindex>1</groupindex>
					</link>
					<itemhistory>
						<uuid>9C08C038-FD5C-4A1F-AF71-048A5B333069</uuid>
						<uuid>61F6F11E-71AD-4A41-A065-F6D0A1F0940B</uuid>
					</itemhistory>
				</clipitem>
				<clipitem id="AntonyAgar004Subclipa3">
					<name>AntonyAgar004Subclipa</name>
					<duration>2872</duration>
					<rate>
						<ntsc>FALSE</ntsc>
						<timebase>25</timebase>
					</rate>
					<in>0</in>
					<out>2872</out>
					<start>6266</start>
					<end>9138</end>
					<logginginfo>
						<scene/>
						<shottake/>
						<lognote/>
						<good>FALSE</good>
					</logginginfo>
					<labels>
						<label>Good Take</label>
						<label2/>
					</labels>
					<comments>
						<mastercomment1/>
						<mastercomment2/>
						<mastercomment3/>
						<mastercomment4/>
					</comments>
					<file id="AntonyAgar004Subclipa1"/>
					<filter>
						<effect>
							<name>Audio Levels</name>
							<effectid>audiolevels</effectid>
							<effectcategory>audiolevels</effectcategory>
							<effecttype>audiolevels</effecttype>
							<mediatype>audio</mediatype>
							<parameter>
								<name>Level</name>
								<parameterid>level</parameterid>
								<valuemin>0</valuemin>
								<valuemax>3.98109</valuemax>
								<value>1</value>
							</parameter>
						</effect>
					</filter>
					<filter>
						<effect>
							<name>Audio Pan</name>
							<effectid>audiopan</effectid>
							<effectcategory>audiopan</effectcategory>
							<effecttype>audiopan</effecttype>
							<mediatype>audio</mediatype>
							<parameter>
								<name>Pan</name>
								<parameterid>pan</parameterid>
								<valuemin>-1</valuemin>
								<valuemax>1</valuemax>
								<value>1</value>
							</parameter>
						</effect>
					</filter>
					<sourcetrack>
						<mediatype>audio</mediatype>
						<trackindex>2</trackindex>
					</sourcetrack>
					<link>
						<linkclipref>AntonyAgar004Subclipa</linkclipref>
						<mediatype>video</mediatype>
						<trackindex>8</trackindex>
						<clipindex>5</clipindex>
					</link>
					<link>
						<linkclipref>AntonyAgar004Subclipa2</linkclipref>
						<mediatype>audio</mediatype>
						<trackindex>11</trackindex>
						<clipindex>5</clipindex>
						<groupindex>1</groupindex>
					</link>
					<link>
						<linkclipref>AntonyAgar004Subclipa3</linkclipref>
						<mediatype>audio</mediatype>
						<trackindex>12</trackindex>
						<clipindex>5</clipindex>
						<groupindex>1</groupindex>
					</link>
					<itemhistory>
						<uuid>534062DF-D462-43F7-B37F-D0A46C6BBA18</uuid>
						<uuid>5EB847D1-D9E1-4534-A97B-DE812618D48D</uuid>
					</itemhistory>
				</clipitem>
				<clipitem id="AntonyAgar005Subclipa3">
					<name>AntonyAgar005Subclipa</name>
					<duration>221</duration>
					<rate>
						<ntsc>FALSE</ntsc>
						<timebase>25</timebase>
					</rate>
					<in>0</in>
					<out>221</out>
					<start>9138</start>
					<end>9359</end>
					<logginginfo>
						<scene/>
						<shottake/>
						<lognote/>
						<good>FALSE</good>
					</logginginfo>
					<labels>
						<label>Good Take</label>
						<label2/>
					</labels>
					<comments>
						<mastercomment1/>
						<mastercomment2/>
						<mastercomment3/>
						<mastercomment4/>
					</comments>
					<file id="AntonyAgar005Subclipa1"/>
					<filter>
						<effect>
							<name>Audio Levels</name>
							<effectid>audiolevels</effectid>
							<effectcategory>audiolevels</effectcategory>
							<effecttype>audiolevels</effecttype>
							<mediatype>audio</mediatype>
							<parameter>
								<name>Level</name>
								<parameterid>level</parameterid>
								<valuemin>0</valuemin>
								<valuemax>3.98109</valuemax>
								<value>1</value>
							</parameter>
						</effect>
					</filter>
					<filter>
						<effect>
							<name>Audio Pan</name>
							<effectid>audiopan</effectid>
							<effectcategory>audiopan</effectcategory>
							<effecttype>audiopan</effecttype>
							<mediatype>audio</mediatype>
							<parameter>
								<name>Pan</name>
								<parameterid>pan</parameterid>
								<valuemin>-1</valuemin>
								<valuemax>1</valuemax>
								<value>1</value>
							</parameter>
						</effect>
					</filter>
					<sourcetrack>
						<mediatype>audio</mediatype>
						<trackindex>2</trackindex>
					</sourcetrack>
					<link>
						<linkclipref>AntonyAgar005Subclipa</linkclipref>
						<mediatype>video</mediatype>
						<trackindex>8</trackindex>
						<clipindex>6</clipindex>
					</link>
					<link>
						<linkclipref>AntonyAgar005Subclipa2</linkclipref>
						<mediatype>audio</mediatype>
						<trackindex>11</trackindex>
						<clipindex>6</clipindex>
						<groupindex>1</groupindex>
					</link>
					<link>
						<linkclipref>AntonyAgar005Subclipa3</linkclipref>
						<mediatype>audio</mediatype>
						<trackindex>12</trackindex>
						<clipindex>6</clipindex>
						<groupindex>1</groupindex>
					</link>
					<itemhistory>
						<uuid>5174DFB6-4461-46D0-9EDE-5F917641CAC5</uuid>
						<uuid>61764DAC-7B73-45DF-B496-125FEEE16148</uuid>
					</itemhistory>
				</clipitem>
				<clipitem id="AntonyAgar006Subclipa3">
					<name>AntonyAgar006Subclipa</name>
					<duration>1838</duration>
					<rate>
						<ntsc>FALSE</ntsc>
						<timebase>25</timebase>
					</rate>
					<in>0</in>
					<out>1838</out>
					<start>9359</start>
					<end>11197</end>
					<logginginfo>
						<scene/>
						<shottake/>
						<lognote/>
						<good>FALSE</good>
					</logginginfo>
					<labels>
						<label>Good Take</label>
						<label2/>
					</labels>
					<comments>
						<mastercomment1/>
						<mastercomment2/>
						<mastercomment3/>
						<mastercomment4/>
					</comments>
					<file id="AntonyAgar006Subclipa1"/>
					<filter>
						<effect>
							<name>Audio Levels</name>
							<effectid>audiolevels</effectid>
							<effectcategory>audiolevels</effectcategory>
							<effecttype>audiolevels</effecttype>
							<mediatype>audio</mediatype>
							<parameter>
								<name>Level</name>
								<parameterid>level</parameterid>
								<valuemin>0</valuemin>
								<valuemax>3.98109</valuemax>
								<value>1</value>
							</parameter>
						</effect>
					</filter>
					<filter>
						<effect>
							<name>Audio Pan</name>
							<effectid>audiopan</effectid>
							<effectcategory>audiopan</effectcategory>
							<effecttype>audiopan</effecttype>
							<mediatype>audio</mediatype>
							<parameter>
								<name>Pan</name>
								<parameterid>pan</parameterid>
								<valuemin>-1</valuemin>
								<valuemax>1</valuemax>
								<value>1</value>
							</parameter>
						</effect>
					</filter>
					<sourcetrack>
						<mediatype>audio</mediatype>
						<trackindex>2</trackindex>
					</sourcetrack>
					<link>
						<linkclipref>AntonyAgar006Subclipa</linkclipref>
						<mediatype>video</mediatype>
						<trackindex>8</trackindex>
						<clipindex>7</clipindex>
					</link>
					<link>
						<linkclipref>AntonyAgar006Subclipa2</linkclipref>
						<mediatype>audio</mediatype>
						<trackindex>11</trackindex>
						<clipindex>7</clipindex>
						<groupindex>1</groupindex>
					</link>
					<link>
						<linkclipref>AntonyAgar006Subclipa3</linkclipref>
						<mediatype>audio</mediatype>
						<trackindex>12</trackindex>
						<clipindex>7</clipindex>
						<groupindex>1</groupindex>
					</link>
					<itemhistory>
						<uuid>CC59A219-CCFB-4E6D-873F-E744538667EF</uuid>
						<uuid>FE4368EF-EC1D-4AB0-BB44-502C0C65CE92</uuid>
					</itemhistory>
				</clipitem>
				<clipitem id="AntonyAgar007Subclipa3">
					<name>AntonyAgar007Subclipa</name>
					<duration>723</duration>
					<rate>
						<ntsc>FALSE</ntsc>
						<timebase>25</timebase>
					</rate>
					<in>32</in>
					<out>723</out>
					<start>11197</start>
					<end>11888</end>
					<logginginfo>
						<scene/>
						<shottake/>
						<lognote/>
						<good>FALSE</good>
					</logginginfo>
					<labels>
						<label>Good Take</label>
						<label2/>
					</labels>
					<comments>
						<mastercomment1/>
						<mastercomment2/>
						<mastercomment3/>
						<mastercomment4/>
					</comments>
					<file id="AntonyAgar007Subclipa1"/>
					<filter>
						<effect>
							<name>Audio Levels</name>
							<effectid>audiolevels</effectid>
							<effectcategory>audiolevels</effectcategory>
							<effecttype>audiolevels</effecttype>
							<mediatype>audio</mediatype>
							<parameter>
								<name>Level</name>
								<parameterid>level</parameterid>
								<valuemin>0</valuemin>
								<valuemax>3.98109</valuemax>
								<value>1</value>
							</parameter>
						</effect>
					</filter>
					<filter>
						<effect>
							<name>Audio Pan</name>
							<effectid>audiopan</effectid>
							<effectcategory>audiopan</effectcategory>
							<effecttype>audiopan</effecttype>
							<mediatype>audio</mediatype>
							<parameter>
								<name>Pan</name>
								<parameterid>pan</parameterid>
								<valuemin>-1</valuemin>
								<valuemax>1</valuemax>
								<value>1</value>
							</parameter>
						</effect>
					</filter>
					<sourcetrack>
						<mediatype>audio</mediatype>
						<trackindex>2</trackindex>
					</sourcetrack>
					<link>
						<linkclipref>AntonyAgar007Subclipa</linkclipref>
						<mediatype>video</mediatype>
						<trackindex>8</trackindex>
						<clipindex>8</clipindex>
					</link>
					<link>
						<linkclipref>AntonyAgar007Subclipa2</linkclipref>
						<mediatype>audio</mediatype>
						<trackindex>11</trackindex>
						<clipindex>8</clipindex>
						<groupindex>1</groupindex>
					</link>
					<link>
						<linkclipref>AntonyAgar007Subclipa3</linkclipref>
						<mediatype>audio</mediatype>
						<trackindex>12</trackindex>
						<clipindex>8</clipindex>
						<groupindex>1</groupindex>
					</link>
					<itemhistory>
						<uuid>A0395F65-FFBC-402F-A4DE-08E30AF45005</uuid>
						<uuid>CB0C9184-D6FC-41DC-810F-AC82EEF4BF32</uuid>
					</itemhistory>
				</clipitem>
				<clipitem id="AntonyAgar007Subclipb3">
					<name>AntonyAgar007Subclipb</name>
					<duration>136</duration>
					<rate>
						<ntsc>FALSE</ntsc>
						<timebase>25</timebase>
					</rate>
					<in>0</in>
					<out>136</out>
					<start>11888</start>
					<end>12024</end>
					<logginginfo>
						<scene/>
						<shottake/>
						<lognote/>
						<good>FALSE</good>
					</logginginfo>
					<labels>
						<label>Good Take</label>
						<label2/>
					</labels>
					<comments>
						<mastercomment1/>
						<mastercomment2/>
						<mastercomment3/>
						<mastercomment4/>
					</comments>
					<file id="AntonyAgar007Subclipb1"/>
					<filter>
						<effect>
							<name>Audio Levels</name>
							<effectid>audiolevels</effectid>
							<effectcategory>audiolevels</effectcategory>
							<effecttype>audiolevels</effecttype>
							<mediatype>audio</mediatype>
							<parameter>
								<name>Level</name>
								<parameterid>level</parameterid>
								<valuemin>0</valuemin>
								<valuemax>3.98109</valuemax>
								<value>1</value>
							</parameter>
						</effect>
					</filter>
					<filter>
						<effect>
							<name>Audio Pan</name>
							<effectid>audiopan</effectid>
							<effectcategory>audiopan</effectcategory>
							<effecttype>audiopan</effecttype>
							<mediatype>audio</mediatype>
							<parameter>
								<name>Pan</name>
								<parameterid>pan</parameterid>
								<valuemin>-1</valuemin>
								<valuemax>1</valuemax>
								<value>1</value>
							</parameter>
						</effect>
					</filter>
					<sourcetrack>
						<mediatype>audio</mediatype>
						<trackindex>2</trackindex>
					</sourcetrack>
					<link>
						<linkclipref>AntonyAgar007Subclipb</linkclipref>
						<mediatype>video</mediatype>
						<trackindex>8</trackindex>
						<clipindex>9</clipindex>
					</link>
					<link>
						<linkclipref>AntonyAgar007Subclipb2</linkclipref>
						<mediatype>audio</mediatype>
						<trackindex>11</trackindex>
						<clipindex>9</clipindex>
						<groupindex>1</groupindex>
					</link>
					<link>
						<linkclipref>AntonyAgar007Subclipb3</linkclipref>
						<mediatype>audio</mediatype>
						<trackindex>12</trackindex>
						<clipindex>9</clipindex>
						<groupindex>1</groupindex>
					</link>
					<itemhistory>
						<uuid>7D66780D-9121-4F67-A094-C0C24B7F94E3</uuid>
						<uuid>D552D1B4-2E4B-407A-B4D6-6B50A9A1DB43</uuid>
					</itemhistory>
				</clipitem>
				<clipitem id="AntonyAgar007Subclipc3">
					<name>AntonyAgar007Subclipc</name>
					<duration>451</duration>
					<rate>
						<ntsc>FALSE</ntsc>
						<timebase>25</timebase>
					</rate>
					<in>0</in>
					<out>451</out>
					<start>12024</start>
					<end>12475</end>
					<logginginfo>
						<scene/>
						<shottake/>
						<lognote/>
						<good>FALSE</good>
					</logginginfo>
					<labels>
						<label>Good Take</label>
						<label2/>
					</labels>
					<comments>
						<mastercomment1/>
						<mastercomment2/>
						<mastercomment3/>
						<mastercomment4/>
					</comments>
					<file id="AntonyAgar007Subclipc1"/>
					<filter>
						<effect>
							<name>Audio Levels</name>
							<effectid>audiolevels</effectid>
							<effectcategory>audiolevels</effectcategory>
							<effecttype>audiolevels</effecttype>
							<mediatype>audio</mediatype>
							<parameter>
								<name>Level</name>
								<parameterid>level</parameterid>
								<valuemin>0</valuemin>
								<valuemax>3.98109</valuemax>
								<value>1</value>
							</parameter>
						</effect>
					</filter>
					<filter>
						<effect>
							<name>Audio Pan</name>
							<effectid>audiopan</effectid>
							<effectcategory>audiopan</effectcategory>
							<effecttype>audiopan</effecttype>
							<mediatype>audio</mediatype>
							<parameter>
								<name>Pan</name>
								<parameterid>pan</parameterid>
								<valuemin>-1</valuemin>
								<valuemax>1</valuemax>
								<value>1</value>
							</parameter>
						</effect>
					</filter>
					<sourcetrack>
						<mediatype>audio</mediatype>
						<trackindex>2</trackindex>
					</sourcetrack>
					<link>
						<linkclipref>AntonyAgar007Subclipc</linkclipref>
						<mediatype>video</mediatype>
						<trackindex>8</trackindex>
						<clipindex>10</clipindex>
					</link>
					<link>
						<linkclipref>AntonyAgar007Subclipc2</linkclipref>
						<mediatype>audio</mediatype>
						<trackindex>11</trackindex>
						<clipindex>10</clipindex>
						<groupindex>1</groupindex>
					</link>
					<link>
						<linkclipref>AntonyAgar007Subclipc3</linkclipref>
						<mediatype>audio</mediatype>
						<trackindex>12</trackindex>
						<clipindex>10</clipindex>
						<groupindex>1</groupindex>
					</link>
					<itemhistory>
						<uuid>D2ED2A5F-A74A-44E6-8974-B958CB73DCF7</uuid>
						<uuid>6CA9D9D4-9280-466A-B628-D0A7CD5DAA7F</uuid>
					</itemhistory>
				</clipitem>
				<clipitem id="AntonyAgar007Subclipd3">
					<name>AntonyAgar007Subclipd</name>
					<duration>111</duration>
					<rate>
						<ntsc>FALSE</ntsc>
						<timebase>25</timebase>
					</rate>
					<in>0</in>
					<out>111</out>
					<start>12475</start>
					<end>12586</end>
					<logginginfo>
						<scene/>
						<shottake/>
						<lognote/>
						<good>FALSE</good>
					</logginginfo>
					<labels>
						<label>Good Take</label>
						<label2/>
					</labels>
					<comments>
						<mastercomment1/>
						<mastercomment2/>
						<mastercomment3/>
						<mastercomment4/>
					</comments>
					<file id="AntonyAgar007Subclipd1"/>
					<filter>
						<effect>
							<name>Audio Levels</name>
							<effectid>audiolevels</effectid>
							<effectcategory>audiolevels</effectcategory>
							<effecttype>audiolevels</effecttype>
							<mediatype>audio</mediatype>
							<parameter>
								<name>Level</name>
								<parameterid>level</parameterid>
								<valuemin>0</valuemin>
								<valuemax>3.98109</valuemax>
								<value>1</value>
							</parameter>
						</effect>
					</filter>
					<filter>
						<effect>
							<name>Audio Pan</name>
							<effectid>audiopan</effectid>
							<effectcategory>audiopan</effectcategory>
							<effecttype>audiopan</effecttype>
							<mediatype>audio</mediatype>
							<parameter>
								<name>Pan</name>
								<parameterid>pan</parameterid>
								<valuemin>-1</valuemin>
								<valuemax>1</valuemax>
								<value>1</value>
							</parameter>
						</effect>
					</filter>
					<sourcetrack>
						<mediatype>audio</mediatype>
						<trackindex>2</trackindex>
					</sourcetrack>
					<link>
						<linkclipref>AntonyAgar007Subclipd</linkclipref>
						<mediatype>video</mediatype>
						<trackindex>8</trackindex>
						<clipindex>11</clipindex>
					</link>
					<link>
						<linkclipref>AntonyAgar007Subclipd2</linkclipref>
						<mediatype>audio</mediatype>
						<trackindex>11</trackindex>
						<clipindex>11</clipindex>
						<groupindex>1</groupindex>
					</link>
					<link>
						<linkclipref>AntonyAgar007Subclipd3</linkclipref>
						<mediatype>audio</mediatype>
						<trackindex>12</trackindex>
						<clipindex>11</clipindex>
						<groupindex>1</groupindex>
					</link>
					<itemhistory>
						<uuid>6F3D5670-FCE1-47D5-8FBF-633867671FCB</uuid>
						<uuid>26330C91-D43A-4459-98DD-6C5FFBF4651A</uuid>
					</itemhistory>
				</clipitem>
				<clipitem id="AntonyAgar007Subclipe3">
					<name>AntonyAgar007Subclipe</name>
					<duration>550</duration>
					<rate>
						<ntsc>FALSE</ntsc>
						<timebase>25</timebase>
					</rate>
					<in>0</in>
					<out>550</out>
					<start>12586</start>
					<end>13136</end>
					<logginginfo>
						<scene/>
						<shottake/>
						<lognote/>
						<good>FALSE</good>
					</logginginfo>
					<labels>
						<label>Good Take</label>
						<label2/>
					</labels>
					<comments>
						<mastercomment1/>
						<mastercomment2/>
						<mastercomment3/>
						<mastercomment4/>
					</comments>
					<file id="AntonyAgar007Subclipe1"/>
					<filter>
						<effect>
							<name>Audio Levels</name>
							<effectid>audiolevels</effectid>
							<effectcategory>audiolevels</effectcategory>
							<effecttype>audiolevels</effecttype>
							<mediatype>audio</mediatype>
							<parameter>
								<name>Level</name>
								<parameterid>level</parameterid>
								<valuemin>0</valuemin>
								<valuemax>3.98109</valuemax>
								<value>1</value>
							</parameter>
						</effect>
					</filter>
					<filter>
						<effect>
							<name>Audio Pan</name>
							<effectid>audiopan</effectid>
							<effectcategory>audiopan</effectcategory>
							<effecttype>audiopan</effecttype>
							<mediatype>audio</mediatype>
							<parameter>
								<name>Pan</name>
								<parameterid>pan</parameterid>
								<valuemin>-1</valuemin>
								<valuemax>1</valuemax>
								<value>1</value>
							</parameter>
						</effect>
					</filter>
					<sourcetrack>
						<mediatype>audio</mediatype>
						<trackindex>2</trackindex>
					</sourcetrack>
					<link>
						<linkclipref>AntonyAgar007Subclipe</linkclipref>
						<mediatype>video</mediatype>
						<trackindex>8</trackindex>
						<clipindex>12</clipindex>
					</link>
					<link>
						<linkclipref>AntonyAgar007Subclipe2</linkclipref>
						<mediatype>audio</mediatype>
						<trackindex>11</trackindex>
						<clipindex>12</clipindex>
						<groupindex>1</groupindex>
					</link>
					<link>
						<linkclipref>AntonyAgar007Subclipe3</linkclipref>
						<mediatype>audio</mediatype>
						<trackindex>12</trackindex>
						<clipindex>12</clipindex>
						<groupindex>1</groupindex>
					</link>
					<itemhistory>
						<uuid>19B45197-6AA6-412F-93B1-692F981E45E2</uuid>
						<uuid>DD41712B-20B8-4699-9C4C-45E9A2B8EF40</uuid>
					</itemhistory>
				</clipitem>
				<clipitem id="AntonyAgar008Subclip3">
					<name>AntonyAgar008Subclip</name>
					<duration>123</duration>
					<rate>
						<ntsc>FALSE</ntsc>
						<timebase>25</timebase>
					</rate>
					<in>0</in>
					<out>123</out>
					<start>13136</start>
					<end>13259</end>
					<logginginfo>
						<scene/>
						<shottake/>
						<lognote/>
						<good>FALSE</good>
					</logginginfo>
					<labels>
						<label>Good Take</label>
						<label2/>
					</labels>
					<comments>
						<mastercomment1/>
						<mastercomment2/>
						<mastercomment3/>
						<mastercomment4/>
					</comments>
					<file id="AntonyAgar008Subclip1"/>
					<filter>
						<effect>
							<name>Audio Levels</name>
							<effectid>audiolevels</effectid>
							<effectcategory>audiolevels</effectcategory>
							<effecttype>audiolevels</effecttype>
							<mediatype>audio</mediatype>
							<parameter>
								<name>Level</name>
								<parameterid>level</parameterid>
								<valuemin>0</valuemin>
								<valuemax>3.98109</valuemax>
								<value>1</value>
							</parameter>
						</effect>
					</filter>
					<filter>
						<effect>
							<name>Audio Pan</name>
							<effectid>audiopan</effectid>
							<effectcategory>audiopan</effectcategory>
							<effecttype>audiopan</effecttype>
							<mediatype>audio</mediatype>
							<parameter>
								<name>Pan</name>
								<parameterid>pan</parameterid>
								<valuemin>-1</valuemin>
								<valuemax>1</valuemax>
								<value>1</value>
							</parameter>
						</effect>
					</filter>
					<sourcetrack>
						<mediatype>audio</mediatype>
						<trackindex>2</trackindex>
					</sourcetrack>
					<link>
						<linkclipref>AntonyAgar008Subclip</linkclipref>
						<mediatype>video</mediatype>
						<trackindex>8</trackindex>
						<clipindex>13</clipindex>
					</link>
					<link>
						<linkclipref>AntonyAgar008Subclip2</linkclipref>
						<mediatype>audio</mediatype>
						<trackindex>11</trackindex>
						<clipindex>13</clipindex>
						<groupindex>1</groupindex>
					</link>
					<link>
						<linkclipref>AntonyAgar008Subclip3</linkclipref>
						<mediatype>audio</mediatype>
						<trackindex>12</trackindex>
						<clipindex>13</clipindex>
						<groupindex>1</groupindex>
					</link>
					<itemhistory>
						<uuid>27867F29-363B-4B54-B84D-A00A6D7C0BAB</uuid>
						<uuid>D3060612-57D4-4965-AC8D-9D9A456190B5</uuid>
					</itemhistory>
				</clipitem>
				<clipitem id="AntonyAgar008Subclip2 3">
					<name>AntonyAgar008Subclip2</name>
					<duration>416</duration>
					<rate>
						<ntsc>FALSE</ntsc>
						<timebase>25</timebase>
					</rate>
					<in>0</in>
					<out>416</out>
					<start>13259</start>
					<end>13675</end>
					<logginginfo>
						<scene/>
						<shottake/>
						<lognote/>
						<good>FALSE</good>
					</logginginfo>
					<labels>
						<label>Good Take</label>
						<label2/>
					</labels>
					<comments>
						<mastercomment1/>
						<mastercomment2/>
						<mastercomment3/>
						<mastercomment4/>
					</comments>
					<file id="AntonyAgar008Subclip2 1"/>
					<filter>
						<effect>
							<name>Audio Levels</name>
							<effectid>audiolevels</effectid>
							<effectcategory>audiolevels</effectcategory>
							<effecttype>audiolevels</effecttype>
							<mediatype>audio</mediatype>
							<parameter>
								<name>Level</name>
								<parameterid>level</parameterid>
								<valuemin>0</valuemin>
								<valuemax>3.98109</valuemax>
								<value>1</value>
							</parameter>
						</effect>
					</filter>
					<filter>
						<effect>
							<name>Audio Pan</name>
							<effectid>audiopan</effectid>
							<effectcategory>audiopan</effectcategory>
							<effecttype>audiopan</effecttype>
							<mediatype>audio</mediatype>
							<parameter>
								<name>Pan</name>
								<parameterid>pan</parameterid>
								<valuemin>-1</valuemin>
								<valuemax>1</valuemax>
								<value>1</value>
							</parameter>
						</effect>
					</filter>
					<sourcetrack>
						<mediatype>audio</mediatype>
						<trackindex>2</trackindex>
					</sourcetrack>
					<link>
						<linkclipref>AntonyAgar008Subclip2 </linkclipref>
						<mediatype>video</mediatype>
						<trackindex>8</trackindex>
						<clipindex>14</clipindex>
					</link>
					<link>
						<linkclipref>AntonyAgar008Subclip2 2</linkclipref>
						<mediatype>audio</mediatype>
						<trackindex>11</trackindex>
						<clipindex>14</clipindex>
						<groupindex>1</groupindex>
					</link>
					<link>
						<linkclipref>AntonyAgar008Subclip2 3</linkclipref>
						<mediatype>audio</mediatype>
						<trackindex>12</trackindex>
						<clipindex>14</clipindex>
						<groupindex>1</groupindex>
					</link>
					<itemhistory>
						<uuid>FAD1DC1D-E2DB-4ED6-8BAD-E9212218B35D</uuid>
						<uuid>9DB11B61-8CA7-463A-A382-1A7C2FAB758A</uuid>
					</itemhistory>
				</clipitem>
				<clipitem id="AntonyAgar008Subclip3 3">
					<name>AntonyAgar008Subclip3</name>
					<duration>392</duration>
					<rate>
						<ntsc>FALSE</ntsc>
						<timebase>25</timebase>
					</rate>
					<in>0</in>
					<out>392</out>
					<start>13675</start>
					<end>14067</end>
					<logginginfo>
						<scene/>
						<shottake/>
						<lognote/>
						<good>FALSE</good>
					</logginginfo>
					<labels>
						<label>Good Take</label>
						<label2/>
					</labels>
					<comments>
						<mastercomment1/>
						<mastercomment2/>
						<mastercomment3/>
						<mastercomment4/>
					</comments>
					<file id="AntonyAgar008Subclip3 1"/>
					<filter>
						<effect>
							<name>Audio Levels</name>
							<effectid>audiolevels</effectid>
							<effectcategory>audiolevels</effectcategory>
							<effecttype>audiolevels</effecttype>
							<mediatype>audio</mediatype>
							<parameter>
								<name>Level</name>
								<parameterid>level</parameterid>
								<valuemin>0</valuemin>
								<valuemax>3.98109</valuemax>
								<value>1</value>
							</parameter>
						</effect>
					</filter>
					<filter>
						<effect>
							<name>Audio Pan</name>
							<effectid>audiopan</effectid>
							<effectcategory>audiopan</effectcategory>
							<effecttype>audiopan</effecttype>
							<mediatype>audio</mediatype>
							<parameter>
								<name>Pan</name>
								<parameterid>pan</parameterid>
								<valuemin>-1</valuemin>
								<valuemax>1</valuemax>
								<value>1</value>
							</parameter>
						</effect>
					</filter>
					<sourcetrack>
						<mediatype>audio</mediatype>
						<trackindex>2</trackindex>
					</sourcetrack>
					<link>
						<linkclipref>AntonyAgar008Subclip3 </linkclipref>
						<mediatype>video</mediatype>
						<trackindex>8</trackindex>
						<clipindex>15</clipindex>
					</link>
					<link>
						<linkclipref>AntonyAgar008Subclip3 2</linkclipref>
						<mediatype>audio</mediatype>
						<trackindex>11</trackindex>
						<clipindex>15</clipindex>
						<groupindex>1</groupindex>
					</link>
					<link>
						<linkclipref>AntonyAgar008Subclip3 3</linkclipref>
						<mediatype>audio</mediatype>
						<trackindex>12</trackindex>
						<clipindex>15</clipindex>
						<groupindex>1</groupindex>
					</link>
					<itemhistory>
						<uuid>4B215A7B-851A-4C1B-9C5D-0A548DD56A91</uuid>
						<uuid>1FEFAF05-42D9-4A2A-86B4-0989F889B041</uuid>
					</itemhistory>
				</clipitem>
				<clipitem id="AntonyAgar008Subclipa3">
					<name>AntonyAgar008Subclipa</name>
					<duration>105</duration>
					<rate>
						<ntsc>FALSE</ntsc>
						<timebase>25</timebase>
					</rate>
					<in>0</in>
					<out>105</out>
					<start>14067</start>
					<end>14172</end>
					<logginginfo>
						<scene/>
						<shottake/>
						<lognote/>
						<good>FALSE</good>
					</logginginfo>
					<labels>
						<label>Good Take</label>
						<label2/>
					</labels>
					<comments>
						<mastercomment1/>
						<mastercomment2/>
						<mastercomment3/>
						<mastercomment4/>
					</comments>
					<file id="AntonyAgar008Subclipa1"/>
					<filter>
						<effect>
							<name>Audio Levels</name>
							<effectid>audiolevels</effectid>
							<effectcategory>audiolevels</effectcategory>
							<effecttype>audiolevels</effecttype>
							<mediatype>audio</mediatype>
							<parameter>
								<name>Level</name>
								<parameterid>level</parameterid>
								<valuemin>0</valuemin>
								<valuemax>3.98109</valuemax>
								<value>1</value>
							</parameter>
						</effect>
					</filter>
					<filter>
						<effect>
							<name>Audio Pan</name>
							<effectid>audiopan</effectid>
							<effectcategory>audiopan</effectcategory>
							<effecttype>audiopan</effecttype>
							<mediatype>audio</mediatype>
							<parameter>
								<name>Pan</name>
								<parameterid>pan</parameterid>
								<valuemin>-1</valuemin>
								<valuemax>1</valuemax>
								<value>1</value>
							</parameter>
						</effect>
					</filter>
					<sourcetrack>
						<mediatype>audio</mediatype>
						<trackindex>2</trackindex>
					</sourcetrack>
					<link>
						<linkclipref>AntonyAgar008Subclipa</linkclipref>
						<mediatype>video</mediatype>
						<trackindex>8</trackindex>
						<clipindex>16</clipindex>
					</link>
					<link>
						<linkclipref>AntonyAgar008Subclipa2</linkclipref>
						<mediatype>audio</mediatype>
						<trackindex>11</trackindex>
						<clipindex>16</clipindex>
						<groupindex>1</groupindex>
					</link>
					<link>
						<linkclipref>AntonyAgar008Subclipa3</linkclipref>
						<mediatype>audio</mediatype>
						<trackindex>12</trackindex>
						<clipindex>16</clipindex>
						<groupindex>1</groupindex>
					</link>
					<itemhistory>
						<uuid>B40928A6-3C0D-49DD-A73F-9F69D4E622AD</uuid>
						<uuid>A1A55DDE-027E-4EDD-AAC6-9BDC5C6139B1</uuid>
					</itemhistory>
				</clipitem>
				<clipitem id="AntonyAgar008Subclipb3">
					<name>AntonyAgar008Subclipb</name>
					<duration>213</duration>
					<rate>
						<ntsc>FALSE</ntsc>
						<timebase>25</timebase>
					</rate>
					<in>0</in>
					<out>213</out>
					<start>14172</start>
					<end>14385</end>
					<logginginfo>
						<scene/>
						<shottake/>
						<lognote/>
						<good>FALSE</good>
					</logginginfo>
					<labels>
						<label>Good Take</label>
						<label2/>
					</labels>
					<comments>
						<mastercomment1/>
						<mastercomment2/>
						<mastercomment3/>
						<mastercomment4/>
					</comments>
					<file id="AntonyAgar008Subclipb1"/>
					<filter>
						<effect>
							<name>Audio Levels</name>
							<effectid>audiolevels</effectid>
							<effectcategory>audiolevels</effectcategory>
							<effecttype>audiolevels</effecttype>
							<mediatype>audio</mediatype>
							<parameter>
								<name>Level</name>
								<parameterid>level</parameterid>
								<valuemin>0</valuemin>
								<valuemax>3.98109</valuemax>
								<value>1</value>
							</parameter>
						</effect>
					</filter>
					<filter>
						<effect>
							<name>Audio Pan</name>
							<effectid>audiopan</effectid>
							<effectcategory>audiopan</effectcategory>
							<effecttype>audiopan</effecttype>
							<mediatype>audio</mediatype>
							<parameter>
								<name>Pan</name>
								<parameterid>pan</parameterid>
								<valuemin>-1</valuemin>
								<valuemax>1</valuemax>
								<value>1</value>
							</parameter>
						</effect>
					</filter>
					<sourcetrack>
						<mediatype>audio</mediatype>
						<trackindex>2</trackindex>
					</sourcetrack>
					<link>
						<linkclipref>AntonyAgar008Subclipb</linkclipref>
						<mediatype>video</mediatype>
						<trackindex>8</trackindex>
						<clipindex>17</clipindex>
					</link>
					<link>
						<linkclipref>AntonyAgar008Subclipb2</linkclipref>
						<mediatype>audio</mediatype>
						<trackindex>11</trackindex>
						<clipindex>17</clipindex>
						<groupindex>1</groupindex>
					</link>
					<link>
						<linkclipref>AntonyAgar008Subclipb3</linkclipref>
						<mediatype>audio</mediatype>
						<trackindex>12</trackindex>
						<clipindex>17</clipindex>
						<groupindex>1</groupindex>
					</link>
					<itemhistory>
						<uuid>C120BF54-A190-4CDE-A282-724E108410AE</uuid>
						<uuid>F38447F4-2BC6-4993-B161-DFD640025A3F</uuid>
					</itemhistory>
				</clipitem>
				<enabled>FALSE</enabled>
				<locked>FALSE</locked>
				<outputchannelindex>2</outputchannelindex>
			</track>
			<track>
				<clipitem id="AntonyAgar008Subclipc2">
					<name>AntonyAgar008Subclipc</name>
					<duration>871</duration>
					<rate>
						<ntsc>FALSE</ntsc>
						<timebase>25</timebase>
					</rate>
					<in>0</in>
					<out>871</out>
					<start>10107</start>
					<end>10978</end>
					<logginginfo>
						<scene/>
						<shottake/>
						<lognote/>
						<good>FALSE</good>
					</logginginfo>
					<labels>
						<label>Good Take</label>
						<label2/>
					</labels>
					<comments>
						<mastercomment1/>
						<mastercomment2/>
						<mastercomment3/>
						<mastercomment4/>
					</comments>
					<file id="AntonyAgar008Subclipc1"/>
					<filter>
						<effect>
							<name>Audio Levels</name>
							<effectid>audiolevels</effectid>
							<effectcategory>audiolevels</effectcategory>
							<effecttype>audiolevels</effecttype>
							<mediatype>audio</mediatype>
							<parameter>
								<name>Level</name>
								<parameterid>level</parameterid>
								<valuemin>0</valuemin>
								<valuemax>3.98109</valuemax>
								<value>1</value>
							</parameter>
						</effect>
					</filter>
					<filter>
						<effect>
							<name>Audio Pan</name>
							<effectid>audiopan</effectid>
							<effectcategory>audiopan</effectcategory>
							<effecttype>audiopan</effecttype>
							<mediatype>audio</mediatype>
							<parameter>
								<name>Pan</name>
								<parameterid>pan</parameterid>
								<valuemin>-1</valuemin>
								<valuemax>1</valuemax>
								<value>-1</value>
							</parameter>
						</effect>
					</filter>
					<sourcetrack>
						<mediatype>audio</mediatype>
						<trackindex>1</trackindex>
					</sourcetrack>
					<link>
						<linkclipref>AntonyAgar008Subclipc</linkclipref>
						<mediatype>video</mediatype>
						<trackindex>15</trackindex>
						<clipindex>1</clipindex>
					</link>
					<link>
						<linkclipref>AntonyAgar008Subclipc2</linkclipref>
						<mediatype>audio</mediatype>
						<trackindex>13</trackindex>
						<clipindex>1</clipindex>
						<groupindex>1</groupindex>
					</link>
					<link>
						<linkclipref>AntonyAgar008Subclipc3</linkclipref>
						<mediatype>audio</mediatype>
						<trackindex>14</trackindex>
						<clipindex>1</clipindex>
						<groupindex>1</groupindex>
					</link>
					<itemhistory>
						<uuid>F825EC0D-3740-426F-A781-58A5248FA836</uuid>
						<uuid>299EBCB7-BC89-4C39-B5BB-CC9B91D04EBC</uuid>
					</itemhistory>
				</clipitem>
				<clipitem id="AntonyAgar008Subclipe2">
					<name>AntonyAgar008Subclipe</name>
					<duration>142</duration>
					<rate>
						<ntsc>FALSE</ntsc>
						<timebase>25</timebase>
					</rate>
					<in>0</in>
					<out>142</out>
					<start>10978</start>
					<end>11120</end>
					<logginginfo>
						<scene/>
						<shottake/>
						<lognote/>
						<good>FALSE</good>
					</logginginfo>
					<labels>
						<label>Good Take</label>
						<label2/>
					</labels>
					<comments>
						<mastercomment1/>
						<mastercomment2/>
						<mastercomment3/>
						<mastercomment4/>
					</comments>
					<file id="AntonyAgar008Subclipe1"/>
					<filter>
						<effect>
							<name>Audio Levels</name>
							<effectid>audiolevels</effectid>
							<effectcategory>audiolevels</effectcategory>
							<effecttype>audiolevels</effecttype>
							<mediatype>audio</mediatype>
							<parameter>
								<name>Level</name>
								<parameterid>level</parameterid>
								<valuemin>0</valuemin>
								<valuemax>3.98109</valuemax>
								<value>1</value>
							</parameter>
						</effect>
					</filter>
					<filter>
						<effect>
							<name>Audio Pan</name>
							<effectid>audiopan</effectid>
							<effectcategory>audiopan</effectcategory>
							<effecttype>audiopan</effecttype>
							<mediatype>audio</mediatype>
							<parameter>
								<name>Pan</name>
								<parameterid>pan</parameterid>
								<valuemin>-1</valuemin>
								<valuemax>1</valuemax>
								<value>-1</value>
							</parameter>
						</effect>
					</filter>
					<sourcetrack>
						<mediatype>audio</mediatype>
						<trackindex>1</trackindex>
					</sourcetrack>
					<link>
						<linkclipref>AntonyAgar008Subclipe</linkclipref>
						<mediatype>video</mediatype>
						<trackindex>15</trackindex>
						<clipindex>2</clipindex>
					</link>
					<link>
						<linkclipref>AntonyAgar008Subclipe2</linkclipref>
						<mediatype>audio</mediatype>
						<trackindex>13</trackindex>
						<clipindex>2</clipindex>
						<groupindex>1</groupindex>
					</link>
					<link>
						<linkclipref>AntonyAgar008Subclipe3</linkclipref>
						<mediatype>audio</mediatype>
						<trackindex>14</trackindex>
						<clipindex>2</clipindex>
						<groupindex>1</groupindex>
					</link>
					<itemhistory>
						<uuid>31C5E054-132A-46A6-A91B-7F5DCDA7A4F6</uuid>
						<uuid>59CC88BF-84E8-4916-8396-2446B06E6A7B</uuid>
					</itemhistory>
				</clipitem>
				<clipitem id="AntonyAgar008Subclipf2">
					<name>AntonyAgar008Subclipf</name>
					<duration>155</duration>
					<rate>
						<ntsc>FALSE</ntsc>
						<timebase>25</timebase>
					</rate>
					<in>0</in>
					<out>155</out>
					<start>11120</start>
					<end>11275</end>
					<logginginfo>
						<scene/>
						<shottake/>
						<lognote/>
						<good>FALSE</good>
					</logginginfo>
					<labels>
						<label>Good Take</label>
						<label2/>
					</labels>
					<comments>
						<mastercomment1/>
						<mastercomment2/>
						<mastercomment3/>
						<mastercomment4/>
					</comments>
					<file id="AntonyAgar008Subclipf1"/>
					<filter>
						<effect>
							<name>Audio Levels</name>
							<effectid>audiolevels</effectid>
							<effectcategory>audiolevels</effectcategory>
							<effecttype>audiolevels</effecttype>
							<mediatype>audio</mediatype>
							<parameter>
								<name>Level</name>
								<parameterid>level</parameterid>
								<valuemin>0</valuemin>
								<valuemax>3.98109</valuemax>
								<value>1</value>
							</parameter>
						</effect>
					</filter>
					<filter>
						<effect>
							<name>Audio Pan</name>
							<effectid>audiopan</effectid>
							<effectcategory>audiopan</effectcategory>
							<effecttype>audiopan</effecttype>
							<mediatype>audio</mediatype>
							<parameter>
								<name>Pan</name>
								<parameterid>pan</parameterid>
								<valuemin>-1</valuemin>
								<valuemax>1</valuemax>
								<value>-1</value>
							</parameter>
						</effect>
					</filter>
					<sourcetrack>
						<mediatype>audio</mediatype>
						<trackindex>1</trackindex>
					</sourcetrack>
					<link>
						<linkclipref>AntonyAgar008Subclipf</linkclipref>
						<mediatype>video</mediatype>
						<trackindex>15</trackindex>
						<clipindex>3</clipindex>
					</link>
					<link>
						<linkclipref>AntonyAgar008Subclipf2</linkclipref>
						<mediatype>audio</mediatype>
						<trackindex>13</trackindex>
						<clipindex>3</clipindex>
						<groupindex>1</groupindex>
					</link>
					<link>
						<linkclipref>AntonyAgar008Subclipf3</linkclipref>
						<mediatype>audio</mediatype>
						<trackindex>14</trackindex>
						<clipindex>3</clipindex>
						<groupindex>1</groupindex>
					</link>
					<itemhistory>
						<uuid>81D7EE08-72CE-4296-BBAB-9E8BDA3F280E</uuid>
						<uuid>CD3F1048-6D3B-4C66-9A73-6379B477EA3E</uuid>
					</itemhistory>
				</clipitem>
				<clipitem id="AntonyAgar009Subclipa2">
					<name>AntonyAgar009Subclipa</name>
					<duration>634</duration>
					<rate>
						<ntsc>FALSE</ntsc>
						<timebase>25</timebase>
					</rate>
					<in>0</in>
					<out>634</out>
					<start>11275</start>
					<end>11909</end>
					<logginginfo>
						<scene/>
						<shottake/>
						<lognote/>
						<good>FALSE</good>
					</logginginfo>
					<labels>
						<label>Good Take</label>
						<label2/>
					</labels>
					<comments>
						<mastercomment1/>
						<mastercomment2/>
						<mastercomment3/>
						<mastercomment4/>
					</comments>
					<file id="AntonyAgar009Subclipa1"/>
					<filter>
						<effect>
							<name>Audio Levels</name>
							<effectid>audiolevels</effectid>
							<effectcategory>audiolevels</effectcategory>
							<effecttype>audiolevels</effecttype>
							<mediatype>audio</mediatype>
							<parameter>
								<name>Level</name>
								<parameterid>level</parameterid>
								<valuemin>0</valuemin>
								<valuemax>3.98109</valuemax>
								<value>1</value>
							</parameter>
						</effect>
					</filter>
					<filter>
						<effect>
							<name>Audio Pan</name>
							<effectid>audiopan</effectid>
							<effectcategory>audiopan</effectcategory>
							<effecttype>audiopan</effecttype>
							<mediatype>audio</mediatype>
							<parameter>
								<name>Pan</name>
								<parameterid>pan</parameterid>
								<valuemin>-1</valuemin>
								<valuemax>1</valuemax>
								<value>-1</value>
							</parameter>
						</effect>
					</filter>
					<sourcetrack>
						<mediatype>audio</mediatype>
						<trackindex>1</trackindex>
					</sourcetrack>
					<link>
						<linkclipref>AntonyAgar009Subclipa</linkclipref>
						<mediatype>video</mediatype>
						<trackindex>15</trackindex>
						<clipindex>4</clipindex>
					</link>
					<link>
						<linkclipref>AntonyAgar009Subclipa2</linkclipref>
						<mediatype>audio</mediatype>
						<trackindex>13</trackindex>
						<clipindex>4</clipindex>
						<groupindex>1</groupindex>
					</link>
					<link>
						<linkclipref>AntonyAgar009Subclipa3</linkclipref>
						<mediatype>audio</mediatype>
						<trackindex>14</trackindex>
						<clipindex>4</clipindex>
						<groupindex>1</groupindex>
					</link>
					<itemhistory>
						<uuid>E33C08D1-47CA-4C62-873C-CC3E25817180</uuid>
						<uuid>8BE5C583-091D-4B25-8DD4-FD8EE18D957A</uuid>
					</itemhistory>
				</clipitem>
				<clipitem id="AntonyAgar009Subclipb2">
					<name>AntonyAgar009Subclipb</name>
					<duration>2050</duration>
					<rate>
						<ntsc>FALSE</ntsc>
						<timebase>25</timebase>
					</rate>
					<in>0</in>
					<out>2050</out>
					<start>11909</start>
					<end>13959</end>
					<subframeoffset>0</subframeoffset>
					<logginginfo>
						<scene/>
						<shottake/>
						<lognote/>
						<good>FALSE</good>
					</logginginfo>
					<labels>
						<label>Good Take</label>
						<label2/>
					</labels>
					<comments>
						<mastercomment1/>
						<mastercomment2/>
						<mastercomment3/>
						<mastercomment4/>
					</comments>
					<file id="AntonyAgar009Subclipb1"/>
					<filter>
						<effect>
							<name>Audio Levels</name>
							<effectid>audiolevels</effectid>
							<effectcategory>audiolevels</effectcategory>
							<effecttype>audiolevels</effecttype>
							<mediatype>audio</mediatype>
							<parameter>
								<name>Level</name>
								<parameterid>level</parameterid>
								<valuemin>0</valuemin>
								<valuemax>3.98109</valuemax>
								<value>1</value>
							</parameter>
						</effect>
					</filter>
					<filter>
						<effect>
							<name>Audio Pan</name>
							<effectid>audiopan</effectid>
							<effectcategory>audiopan</effectcategory>
							<effecttype>audiopan</effecttype>
							<mediatype>audio</mediatype>
							<parameter>
								<name>Pan</name>
								<parameterid>pan</parameterid>
								<valuemin>-1</valuemin>
								<valuemax>1</valuemax>
								<value>-1</value>
							</parameter>
						</effect>
					</filter>
					<sourcetrack>
						<mediatype>audio</mediatype>
						<trackindex>1</trackindex>
					</sourcetrack>
					<link>
						<linkclipref>AntonyAgar009Subclipb</linkclipref>
						<mediatype>video</mediatype>
						<trackindex>15</trackindex>
						<clipindex>5</clipindex>
					</link>
					<link>
						<linkclipref>AntonyAgar009Subclipb2</linkclipref>
						<mediatype>audio</mediatype>
						<trackindex>13</trackindex>
						<clipindex>5</clipindex>
						<groupindex>1</groupindex>
					</link>
					<link>
						<linkclipref>AntonyAgar009Subclipb3</linkclipref>
						<mediatype>audio</mediatype>
						<trackindex>14</trackindex>
						<clipindex>5</clipindex>
						<groupindex>1</groupindex>
					</link>
					<itemhistory>
						<uuid>F0AB72A2-458E-4A33-BBCD-AFC9FC5EF8A8</uuid>
						<uuid>AD8C0D7B-7F94-411C-A1BE-762271B6B1F9</uuid>
					</itemhistory>
				</clipitem>
				<enabled>TRUE</enabled>
				<locked>FALSE</locked>
				<outputchannelindex>1</outputchannelindex>
			</track>
			<track>
				<clipitem id="AntonyAgar008Subclipc3">
					<name>AntonyAgar008Subclipc</name>
					<duration>871</duration>
					<rate>
						<ntsc>FALSE</ntsc>
						<timebase>25</timebase>
					</rate>
					<in>0</in>
					<out>871</out>
					<start>10107</start>
					<end>10978</end>
					<logginginfo>
						<scene/>
						<shottake/>
						<lognote/>
						<good>FALSE</good>
					</logginginfo>
					<labels>
						<label>Good Take</label>
						<label2/>
					</labels>
					<comments>
						<mastercomment1/>
						<mastercomment2/>
						<mastercomment3/>
						<mastercomment4/>
					</comments>
					<file id="AntonyAgar008Subclipc1"/>
					<filter>
						<effect>
							<name>Audio Levels</name>
							<effectid>audiolevels</effectid>
							<effectcategory>audiolevels</effectcategory>
							<effecttype>audiolevels</effecttype>
							<mediatype>audio</mediatype>
							<parameter>
								<name>Level</name>
								<parameterid>level</parameterid>
								<valuemin>0</valuemin>
								<valuemax>3.98109</valuemax>
								<value>1</value>
							</parameter>
						</effect>
					</filter>
					<filter>
						<effect>
							<name>Audio Pan</name>
							<effectid>audiopan</effectid>
							<effectcategory>audiopan</effectcategory>
							<effecttype>audiopan</effecttype>
							<mediatype>audio</mediatype>
							<parameter>
								<name>Pan</name>
								<parameterid>pan</parameterid>
								<valuemin>-1</valuemin>
								<valuemax>1</valuemax>
								<value>1</value>
							</parameter>
						</effect>
					</filter>
					<sourcetrack>
						<mediatype>audio</mediatype>
						<trackindex>2</trackindex>
					</sourcetrack>
					<link>
						<linkclipref>AntonyAgar008Subclipc</linkclipref>
						<mediatype>video</mediatype>
						<trackindex>15</trackindex>
						<clipindex>1</clipindex>
					</link>
					<link>
						<linkclipref>AntonyAgar008Subclipc2</linkclipref>
						<mediatype>audio</mediatype>
						<trackindex>13</trackindex>
						<clipindex>1</clipindex>
						<groupindex>1</groupindex>
					</link>
					<link>
						<linkclipref>AntonyAgar008Subclipc3</linkclipref>
						<mediatype>audio</mediatype>
						<trackindex>14</trackindex>
						<clipindex>1</clipindex>
						<groupindex>1</groupindex>
					</link>
					<itemhistory>
						<uuid>699E0CC7-0002-4785-8793-02F6AEE0C7BB</uuid>
						<uuid>C5C1B050-13EC-48E3-847C-56D23B4D2F47</uuid>
					</itemhistory>
				</clipitem>
				<clipitem id="AntonyAgar008Subclipe3">
					<name>AntonyAgar008Subclipe</name>
					<duration>142</duration>
					<rate>
						<ntsc>FALSE</ntsc>
						<timebase>25</timebase>
					</rate>
					<in>0</in>
					<out>142</out>
					<start>10978</start>
					<end>11120</end>
					<logginginfo>
						<scene/>
						<shottake/>
						<lognote/>
						<good>FALSE</good>
					</logginginfo>
					<labels>
						<label>Good Take</label>
						<label2/>
					</labels>
					<comments>
						<mastercomment1/>
						<mastercomment2/>
						<mastercomment3/>
						<mastercomment4/>
					</comments>
					<file id="AntonyAgar008Subclipe1"/>
					<filter>
						<effect>
							<name>Audio Levels</name>
							<effectid>audiolevels</effectid>
							<effectcategory>audiolevels</effectcategory>
							<effecttype>audiolevels</effecttype>
							<mediatype>audio</mediatype>
							<parameter>
								<name>Level</name>
								<parameterid>level</parameterid>
								<valuemin>0</valuemin>
								<valuemax>3.98109</valuemax>
								<value>1</value>
							</parameter>
						</effect>
					</filter>
					<filter>
						<effect>
							<name>Audio Pan</name>
							<effectid>audiopan</effectid>
							<effectcategory>audiopan</effectcategory>
							<effecttype>audiopan</effecttype>
							<mediatype>audio</mediatype>
							<parameter>
								<name>Pan</name>
								<parameterid>pan</parameterid>
								<valuemin>-1</valuemin>
								<valuemax>1</valuemax>
								<value>1</value>
							</parameter>
						</effect>
					</filter>
					<sourcetrack>
						<mediatype>audio</mediatype>
						<trackindex>2</trackindex>
					</sourcetrack>
					<link>
						<linkclipref>AntonyAgar008Subclipe</linkclipref>
						<mediatype>video</mediatype>
						<trackindex>15</trackindex>
						<clipindex>2</clipindex>
					</link>
					<link>
						<linkclipref>AntonyAgar008Subclipe2</linkclipref>
						<mediatype>audio</mediatype>
						<trackindex>13</trackindex>
						<clipindex>2</clipindex>
						<groupindex>1</groupindex>
					</link>
					<link>
						<linkclipref>AntonyAgar008Subclipe3</linkclipref>
						<mediatype>audio</mediatype>
						<trackindex>14</trackindex>
						<clipindex>2</clipindex>
						<groupindex>1</groupindex>
					</link>
					<itemhistory>
						<uuid>80C6EAAD-868C-4E58-A2FB-0AA8FB2D24AB</uuid>
						<uuid>4779F8C1-2C65-4A86-8EDC-936D64AF816F</uuid>
					</itemhistory>
				</clipitem>
				<clipitem id="AntonyAgar008Subclipf3">
					<name>AntonyAgar008Subclipf</name>
					<duration>155</duration>
					<rate>
						<ntsc>FALSE</ntsc>
						<timebase>25</timebase>
					</rate>
					<in>0</in>
					<out>155</out>
					<start>11120</start>
					<end>11275</end>
					<logginginfo>
						<scene/>
						<shottake/>
						<lognote/>
						<good>FALSE</good>
					</logginginfo>
					<labels>
						<label>Good Take</label>
						<label2/>
					</labels>
					<comments>
						<mastercomment1/>
						<mastercomment2/>
						<mastercomment3/>
						<mastercomment4/>
					</comments>
					<file id="AntonyAgar008Subclipf1"/>
					<filter>
						<effect>
							<name>Audio Levels</name>
							<effectid>audiolevels</effectid>
							<effectcategory>audiolevels</effectcategory>
							<effecttype>audiolevels</effecttype>
							<mediatype>audio</mediatype>
							<parameter>
								<name>Level</name>
								<parameterid>level</parameterid>
								<valuemin>0</valuemin>
								<valuemax>3.98109</valuemax>
								<value>1</value>
							</parameter>
						</effect>
					</filter>
					<filter>
						<effect>
							<name>Audio Pan</name>
							<effectid>audiopan</effectid>
							<effectcategory>audiopan</effectcategory>
							<effecttype>audiopan</effecttype>
							<mediatype>audio</mediatype>
							<parameter>
								<name>Pan</name>
								<parameterid>pan</parameterid>
								<valuemin>-1</valuemin>
								<valuemax>1</valuemax>
								<value>1</value>
							</parameter>
						</effect>
					</filter>
					<sourcetrack>
						<mediatype>audio</mediatype>
						<trackindex>2</trackindex>
					</sourcetrack>
					<link>
						<linkclipref>AntonyAgar008Subclipf</linkclipref>
						<mediatype>video</mediatype>
						<trackindex>15</trackindex>
						<clipindex>3</clipindex>
					</link>
					<link>
						<linkclipref>AntonyAgar008Subclipf2</linkclipref>
						<mediatype>audio</mediatype>
						<trackindex>13</trackindex>
						<clipindex>3</clipindex>
						<groupindex>1</groupindex>
					</link>
					<link>
						<linkclipref>AntonyAgar008Subclipf3</linkclipref>
						<mediatype>audio</mediatype>
						<trackindex>14</trackindex>
						<clipindex>3</clipindex>
						<groupindex>1</groupindex>
					</link>
					<itemhistory>
						<uuid>7321F9FE-8ECF-49AA-B04A-6F1F588EBAD1</uuid>
						<uuid>43A4F511-2EC9-453A-91E6-07DF46D4549D</uuid>
					</itemhistory>
				</clipitem>
				<clipitem id="AntonyAgar009Subclipa3">
					<name>AntonyAgar009Subclipa</name>
					<duration>634</duration>
					<rate>
						<ntsc>FALSE</ntsc>
						<timebase>25</timebase>
					</rate>
					<in>0</in>
					<out>634</out>
					<start>11275</start>
					<end>11909</end>
					<logginginfo>
						<scene/>
						<shottake/>
						<lognote/>
						<good>FALSE</good>
					</logginginfo>
					<labels>
						<label>Good Take</label>
						<label2/>
					</labels>
					<comments>
						<mastercomment1/>
						<mastercomment2/>
						<mastercomment3/>
						<mastercomment4/>
					</comments>
					<file id="AntonyAgar009Subclipa1"/>
					<filter>
						<effect>
							<name>Audio Levels</name>
							<effectid>audiolevels</effectid>
							<effectcategory>audiolevels</effectcategory>
							<effecttype>audiolevels</effecttype>
							<mediatype>audio</mediatype>
							<parameter>
								<name>Level</name>
								<parameterid>level</parameterid>
								<valuemin>0</valuemin>
								<valuemax>3.98109</valuemax>
								<value>1</value>
							</parameter>
						</effect>
					</filter>
					<filter>
						<effect>
							<name>Audio Pan</name>
							<effectid>audiopan</effectid>
							<effectcategory>audiopan</effectcategory>
							<effecttype>audiopan</effecttype>
							<mediatype>audio</mediatype>
							<parameter>
								<name>Pan</name>
								<parameterid>pan</parameterid>
								<valuemin>-1</valuemin>
								<valuemax>1</valuemax>
								<value>1</value>
							</parameter>
						</effect>
					</filter>
					<sourcetrack>
						<mediatype>audio</mediatype>
						<trackindex>2</trackindex>
					</sourcetrack>
					<link>
						<linkclipref>AntonyAgar009Subclipa</linkclipref>
						<mediatype>video</mediatype>
						<trackindex>15</trackindex>
						<clipindex>4</clipindex>
					</link>
					<link>
						<linkclipref>AntonyAgar009Subclipa2</linkclipref>
						<mediatype>audio</mediatype>
						<trackindex>13</trackindex>
						<clipindex>4</clipindex>
						<groupindex>1</groupindex>
					</link>
					<link>
						<linkclipref>AntonyAgar009Subclipa3</linkclipref>
						<mediatype>audio</mediatype>
						<trackindex>14</trackindex>
						<clipindex>4</clipindex>
						<groupindex>1</groupindex>
					</link>
					<itemhistory>
						<uuid>C3EAE886-DEAD-43CB-8E40-BC3DAD2CDA91</uuid>
						<uuid>B2F56A83-3A9A-4231-AF21-7F7FC43EB1FB</uuid>
					</itemhistory>
				</clipitem>
				<clipitem id="AntonyAgar009Subclipb3">
					<name>AntonyAgar009Subclipb</name>
					<duration>2050</duration>
					<rate>
						<ntsc>FALSE</ntsc>
						<timebase>25</timebase>
					</rate>
					<in>0</in>
					<out>2050</out>
					<start>11909</start>
					<end>13959</end>
					<subframeoffset>0</subframeoffset>
					<logginginfo>
						<scene/>
						<shottake/>
						<lognote/>
						<good>FALSE</good>
					</logginginfo>
					<labels>
						<label>Good Take</label>
						<label2/>
					</labels>
					<comments>
						<mastercomment1/>
						<mastercomment2/>
						<mastercomment3/>
						<mastercomment4/>
					</comments>
					<file id="AntonyAgar009Subclipb1"/>
					<filter>
						<effect>
							<name>Audio Levels</name>
							<effectid>audiolevels</effectid>
							<effectcategory>audiolevels</effectcategory>
							<effecttype>audiolevels</effecttype>
							<mediatype>audio</mediatype>
							<parameter>
								<name>Level</name>
								<parameterid>level</parameterid>
								<valuemin>0</valuemin>
								<valuemax>3.98109</valuemax>
								<value>1</value>
							</parameter>
						</effect>
					</filter>
					<filter>
						<effect>
							<name>Audio Pan</name>
							<effectid>audiopan</effectid>
							<effectcategory>audiopan</effectcategory>
							<effecttype>audiopan</effecttype>
							<mediatype>audio</mediatype>
							<parameter>
								<name>Pan</name>
								<parameterid>pan</parameterid>
								<valuemin>-1</valuemin>
								<valuemax>1</valuemax>
								<value>1</value>
							</parameter>
						</effect>
					</filter>
					<sourcetrack>
						<mediatype>audio</mediatype>
						<trackindex>2</trackindex>
					</sourcetrack>
					<link>
						<linkclipref>AntonyAgar009Subclipb</linkclipref>
						<mediatype>video</mediatype>
						<trackindex>15</trackindex>
						<clipindex>5</clipindex>
					</link>
					<link>
						<linkclipref>AntonyAgar009Subclipb2</linkclipref>
						<mediatype>audio</mediatype>
						<trackindex>13</trackindex>
						<clipindex>5</clipindex>
						<groupindex>1</groupindex>
					</link>
					<link>
						<linkclipref>AntonyAgar009Subclipb3</linkclipref>
						<mediatype>audio</mediatype>
						<trackindex>14</trackindex>
						<clipindex>5</clipindex>
						<groupindex>1</groupindex>
					</link>
					<itemhistory>
						<uuid>4BD2E949-C3A1-4B77-B856-E8E4096C7508</uuid>
						<uuid>85575E4D-E675-47FF-8D59-68FA668E1394</uuid>
					</itemhistory>
				</clipitem>
				<enabled>TRUE</enabled>
				<locked>FALSE</locked>
				<outputchannelindex>2</outputchannelindex>
			</track>
			<track>
				<clipitem id="GoldsboroughOllieGrandad001Subclipa2">
					<name>GoldsboroughOllieGrandad001Subclipa</name>
					<duration>116</duration>
					<rate>
						<ntsc>FALSE</ntsc>
						<timebase>25</timebase>
					</rate>
					<in>0</in>
					<out>116</out>
					<start>10107</start>
					<end>10223</end>
					<logginginfo>
						<scene/>
						<shottake/>
						<lognote/>
						<good>FALSE</good>
					</logginginfo>
					<labels>
						<label2/>
					</labels>
					<comments>
						<mastercomment1/>
						<mastercomment2/>
						<mastercomment3/>
						<mastercomment4/>
					</comments>
					<file id="GoldsboroughOllieGrandad001Subclipa1"/>
					<filter>
						<effect>
							<name>Audio Levels</name>
							<effectid>audiolevels</effectid>
							<effectcategory>audiolevels</effectcategory>
							<effecttype>audiolevels</effecttype>
							<mediatype>audio</mediatype>
							<parameter>
								<name>Level</name>
								<parameterid>level</parameterid>
								<valuemin>0</valuemin>
								<valuemax>3.98109</valuemax>
								<value>1</value>
							</parameter>
						</effect>
					</filter>
					<filter>
						<effect>
							<name>Audio Pan</name>
							<effectid>audiopan</effectid>
							<effectcategory>audiopan</effectcategory>
							<effecttype>audiopan</effecttype>
							<mediatype>audio</mediatype>
							<parameter>
								<name>Pan</name>
								<parameterid>pan</parameterid>
								<valuemin>-1</valuemin>
								<valuemax>1</valuemax>
								<value>-1</value>
							</parameter>
						</effect>
					</filter>
					<sourcetrack>
						<mediatype>audio</mediatype>
						<trackindex>1</trackindex>
					</sourcetrack>
					<link>
						<linkclipref>GoldsboroughOllieGrandad001Subclipa</linkclipref>
						<mediatype>video</mediatype>
						<trackindex>9</trackindex>
						<clipindex>1</clipindex>
					</link>
					<link>
						<linkclipref>GoldsboroughOllieGrandad001Subclipa2</linkclipref>
						<mediatype>audio</mediatype>
						<trackindex>15</trackindex>
						<clipindex>1</clipindex>
						<groupindex>1</groupindex>
					</link>
					<link>
						<linkclipref>GoldsboroughOllieGrandad001Subclipa3</linkclipref>
						<mediatype>audio</mediatype>
						<trackindex>16</trackindex>
						<clipindex>1</clipindex>
						<groupindex>1</groupindex>
					</link>
					<itemhistory>
						<uuid>8C5A318B-EE99-453E-BB27-0AA714CB76F1</uuid>
						<uuid>7C20C3E5-AF94-45BD-BD40-B5F61969CE55</uuid>
					</itemhistory>
				</clipitem>
				<clipitem id="GoldsboroughOllieGrandad001Subclipb2">
					<name>GoldsboroughOllieGrandad001Subclipb</name>
					<duration>208</duration>
					<rate>
						<ntsc>FALSE</ntsc>
						<timebase>25</timebase>
					</rate>
					<in>0</in>
					<out>208</out>
					<start>10223</start>
					<end>10431</end>
					<logginginfo>
						<scene/>
						<shottake/>
						<lognote/>
						<good>FALSE</good>
					</logginginfo>
					<labels>
						<label2/>
					</labels>
					<comments>
						<mastercomment1/>
						<mastercomment2/>
						<mastercomment3/>
						<mastercomment4/>
					</comments>
					<file id="GoldsboroughOllieGrandad001Subclipb1"/>
					<filter>
						<effect>
							<name>Audio Levels</name>
							<effectid>audiolevels</effectid>
							<effectcategory>audiolevels</effectcategory>
							<effecttype>audiolevels</effecttype>
							<mediatype>audio</mediatype>
							<parameter>
								<name>Level</name>
								<parameterid>level</parameterid>
								<valuemin>0</valuemin>
								<valuemax>3.98109</valuemax>
								<value>1</value>
							</parameter>
						</effect>
					</filter>
					<filter>
						<effect>
							<name>Audio Pan</name>
							<effectid>audiopan</effectid>
							<effectcategory>audiopan</effectcategory>
							<effecttype>audiopan</effecttype>
							<mediatype>audio</mediatype>
							<parameter>
								<name>Pan</name>
								<parameterid>pan</parameterid>
								<valuemin>-1</valuemin>
								<valuemax>1</valuemax>
								<value>-1</value>
							</parameter>
						</effect>
					</filter>
					<sourcetrack>
						<mediatype>audio</mediatype>
						<trackindex>1</trackindex>
					</sourcetrack>
					<link>
						<linkclipref>GoldsboroughOllieGrandad001Subclipb</linkclipref>
						<mediatype>video</mediatype>
						<trackindex>9</trackindex>
						<clipindex>2</clipindex>
					</link>
					<link>
						<linkclipref>GoldsboroughOllieGrandad001Subclipb2</linkclipref>
						<mediatype>audio</mediatype>
						<trackindex>15</trackindex>
						<clipindex>2</clipindex>
						<groupindex>1</groupindex>
					</link>
					<link>
						<linkclipref>GoldsboroughOllieGrandad001Subclipb3</linkclipref>
						<mediatype>audio</mediatype>
						<trackindex>16</trackindex>
						<clipindex>2</clipindex>
						<groupindex>1</groupindex>
					</link>
					<itemhistory>
						<uuid>BB7C5C13-F801-4D33-8978-84F5D46E1517</uuid>
						<uuid>DD45408D-6D9E-4280-ACA3-AAF2B2F73148</uuid>
					</itemhistory>
				</clipitem>
				<clipitem id="GoldsboroughOllieGrandad001Subclipc2">
					<name>GoldsboroughOllieGrandad001Subclipc</name>
					<duration>247</duration>
					<rate>
						<ntsc>FALSE</ntsc>
						<timebase>25</timebase>
					</rate>
					<in>0</in>
					<out>247</out>
					<start>10431</start>
					<end>10678</end>
					<logginginfo>
						<scene/>
						<shottake/>
						<lognote/>
						<good>FALSE</good>
					</logginginfo>
					<labels>
						<label2/>
					</labels>
					<comments>
						<mastercomment1/>
						<mastercomment2/>
						<mastercomment3/>
						<mastercomment4/>
					</comments>
					<file id="GoldsboroughOllieGrandad001Subclipc1"/>
					<filter>
						<effect>
							<name>Audio Levels</name>
							<effectid>audiolevels</effectid>
							<effectcategory>audiolevels</effectcategory>
							<effecttype>audiolevels</effecttype>
							<mediatype>audio</mediatype>
							<parameter>
								<name>Level</name>
								<parameterid>level</parameterid>
								<valuemin>0</valuemin>
								<valuemax>3.98109</valuemax>
								<value>1</value>
							</parameter>
						</effect>
					</filter>
					<filter>
						<effect>
							<name>Audio Pan</name>
							<effectid>audiopan</effectid>
							<effectcategory>audiopan</effectcategory>
							<effecttype>audiopan</effecttype>
							<mediatype>audio</mediatype>
							<parameter>
								<name>Pan</name>
								<parameterid>pan</parameterid>
								<valuemin>-1</valuemin>
								<valuemax>1</valuemax>
								<value>-1</value>
							</parameter>
						</effect>
					</filter>
					<sourcetrack>
						<mediatype>audio</mediatype>
						<trackindex>1</trackindex>
					</sourcetrack>
					<link>
						<linkclipref>GoldsboroughOllieGrandad001Subclipc</linkclipref>
						<mediatype>video</mediatype>
						<trackindex>9</trackindex>
						<clipindex>3</clipindex>
					</link>
					<link>
						<linkclipref>GoldsboroughOllieGrandad001Subclipc2</linkclipref>
						<mediatype>audio</mediatype>
						<trackindex>15</trackindex>
						<clipindex>3</clipindex>
						<groupindex>1</groupindex>
					</link>
					<link>
						<linkclipref>GoldsboroughOllieGrandad001Subclipc3</linkclipref>
						<mediatype>audio</mediatype>
						<trackindex>16</trackindex>
						<clipindex>3</clipindex>
						<groupindex>1</groupindex>
					</link>
					<itemhistory>
						<uuid>3A122212-3FE7-44C0-9081-947C46147394</uuid>
						<uuid>FC676E36-7FF0-4D97-9CA2-D594B8E10031</uuid>
					</itemhistory>
				</clipitem>
				<clipitem id="GoldsboroughOllieGrandad002Subclipa2">
					<name>GoldsboroughOllieGrandad002Subclipa</name>
					<duration>190</duration>
					<rate>
						<ntsc>FALSE</ntsc>
						<timebase>25</timebase>
					</rate>
					<in>0</in>
					<out>190</out>
					<start>10678</start>
					<end>10868</end>
					<logginginfo>
						<scene/>
						<shottake/>
						<lognote/>
						<good>FALSE</good>
					</logginginfo>
					<labels>
						<label2/>
					</labels>
					<comments>
						<mastercomment1/>
						<mastercomment2/>
						<mastercomment3/>
						<mastercomment4/>
					</comments>
					<file id="GoldsboroughOllieGrandad002Subclipa1"/>
					<filter>
						<effect>
							<name>Audio Levels</name>
							<effectid>audiolevels</effectid>
							<effectcategory>audiolevels</effectcategory>
							<effecttype>audiolevels</effecttype>
							<mediatype>audio</mediatype>
							<parameter>
								<name>Level</name>
								<parameterid>level</parameterid>
								<valuemin>0</valuemin>
								<valuemax>3.98109</valuemax>
								<value>1</value>
							</parameter>
						</effect>
					</filter>
					<filter>
						<effect>
							<name>Audio Pan</name>
							<effectid>audiopan</effectid>
							<effectcategory>audiopan</effectcategory>
							<effecttype>audiopan</effecttype>
							<mediatype>audio</mediatype>
							<parameter>
								<name>Pan</name>
								<parameterid>pan</parameterid>
								<valuemin>-1</valuemin>
								<valuemax>1</valuemax>
								<value>-1</value>
							</parameter>
						</effect>
					</filter>
					<sourcetrack>
						<mediatype>audio</mediatype>
						<trackindex>1</trackindex>
					</sourcetrack>
					<link>
						<linkclipref>GoldsboroughOllieGrandad002Subclipa</linkclipref>
						<mediatype>video</mediatype>
						<trackindex>9</trackindex>
						<clipindex>4</clipindex>
					</link>
					<link>
						<linkclipref>GoldsboroughOllieGrandad002Subclipa2</linkclipref>
						<mediatype>audio</mediatype>
						<trackindex>15</trackindex>
						<clipindex>4</clipindex>
						<groupindex>1</groupindex>
					</link>
					<link>
						<linkclipref>GoldsboroughOllieGrandad002Subclipa3</linkclipref>
						<mediatype>audio</mediatype>
						<trackindex>16</trackindex>
						<clipindex>4</clipindex>
						<groupindex>1</groupindex>
					</link>
					<itemhistory>
						<uuid>DA7C7789-1241-4D19-B790-0638B6B19FE3</uuid>
						<uuid>9ECD09C0-88E7-4C32-936D-9A56671D409F</uuid>
					</itemhistory>
				</clipitem>
				<clipitem id="GoldsboroughOllieGrandad003 2">
					<name>GoldsboroughOllieGrandad003</name>
					<duration>416</duration>
					<rate>
						<ntsc>FALSE</ntsc>
						<timebase>25</timebase>
					</rate>
					<in>0</in>
					<out>416</out>
					<start>10868</start>
					<end>11284</end>
					<logginginfo>
						<scene/>
						<shottake/>
						<lognote/>
						<good>FALSE</good>
					</logginginfo>
					<labels>
						<label2/>
					</labels>
					<comments>
						<mastercomment1/>
						<mastercomment2/>
						<mastercomment3/>
						<mastercomment4/>
					</comments>
					<file id="GoldsboroughOllieGrandad003 1"/>
					<filter>
						<effect>
							<name>Audio Levels</name>
							<effectid>audiolevels</effectid>
							<effectcategory>audiolevels</effectcategory>
							<effecttype>audiolevels</effecttype>
							<mediatype>audio</mediatype>
							<parameter>
								<name>Level</name>
								<parameterid>level</parameterid>
								<valuemin>0</valuemin>
								<valuemax>3.98109</valuemax>
								<value>1</value>
							</parameter>
						</effect>
					</filter>
					<filter>
						<effect>
							<name>Audio Pan</name>
							<effectid>audiopan</effectid>
							<effectcategory>audiopan</effectcategory>
							<effecttype>audiopan</effecttype>
							<mediatype>audio</mediatype>
							<parameter>
								<name>Pan</name>
								<parameterid>pan</parameterid>
								<valuemin>-1</valuemin>
								<valuemax>1</valuemax>
								<value>-1</value>
							</parameter>
						</effect>
					</filter>
					<sourcetrack>
						<mediatype>audio</mediatype>
						<trackindex>1</trackindex>
					</sourcetrack>
					<link>
						<linkclipref>GoldsboroughOllieGrandad003 </linkclipref>
						<mediatype>video</mediatype>
						<trackindex>9</trackindex>
						<clipindex>5</clipindex>
					</link>
					<link>
						<linkclipref>GoldsboroughOllieGrandad003 2</linkclipref>
						<mediatype>audio</mediatype>
						<trackindex>15</trackindex>
						<clipindex>5</clipindex>
						<groupindex>1</groupindex>
					</link>
					<link>
						<linkclipref>GoldsboroughOllieGrandad003 3</linkclipref>
						<mediatype>audio</mediatype>
						<trackindex>16</trackindex>
						<clipindex>5</clipindex>
						<groupindex>1</groupindex>
					</link>
					<itemhistory>
						<uuid>1607917C-64A5-478D-AE5F-644C966D480C</uuid>
						<uuid>54C371C0-621C-4E75-87EB-2EBE549788B4</uuid>
					</itemhistory>
				</clipitem>
				<clipitem id="GoldsboroughOllieGrandad004Subclipa2">
					<name>GoldsboroughOllieGrandad004Subclipa</name>
					<duration>112</duration>
					<rate>
						<ntsc>FALSE</ntsc>
						<timebase>25</timebase>
					</rate>
					<in>0</in>
					<out>112</out>
					<start>11284</start>
					<end>11396</end>
					<logginginfo>
						<scene/>
						<shottake/>
						<lognote/>
						<good>FALSE</good>
					</logginginfo>
					<labels>
						<label2/>
					</labels>
					<comments>
						<mastercomment1/>
						<mastercomment2/>
						<mastercomment3/>
						<mastercomment4/>
					</comments>
					<file id="GoldsboroughOllieGrandad004Subclipa1"/>
					<filter>
						<effect>
							<name>Audio Levels</name>
							<effectid>audiolevels</effectid>
							<effectcategory>audiolevels</effectcategory>
							<effecttype>audiolevels</effecttype>
							<mediatype>audio</mediatype>
							<parameter>
								<name>Level</name>
								<parameterid>level</parameterid>
								<valuemin>0</valuemin>
								<valuemax>3.98109</valuemax>
								<value>1</value>
							</parameter>
						</effect>
					</filter>
					<filter>
						<effect>
							<name>Audio Pan</name>
							<effectid>audiopan</effectid>
							<effectcategory>audiopan</effectcategory>
							<effecttype>audiopan</effecttype>
							<mediatype>audio</mediatype>
							<parameter>
								<name>Pan</name>
								<parameterid>pan</parameterid>
								<valuemin>-1</valuemin>
								<valuemax>1</valuemax>
								<value>-1</value>
							</parameter>
						</effect>
					</filter>
					<sourcetrack>
						<mediatype>audio</mediatype>
						<trackindex>1</trackindex>
					</sourcetrack>
					<link>
						<linkclipref>GoldsboroughOllieGrandad004Subclipa</linkclipref>
						<mediatype>video</mediatype>
						<trackindex>9</trackindex>
						<clipindex>6</clipindex>
					</link>
					<link>
						<linkclipref>GoldsboroughOllieGrandad004Subclipa2</linkclipref>
						<mediatype>audio</mediatype>
						<trackindex>15</trackindex>
						<clipindex>6</clipindex>
						<groupindex>1</groupindex>
					</link>
					<link>
						<linkclipref>GoldsboroughOllieGrandad004Subclipa3</linkclipref>
						<mediatype>audio</mediatype>
						<trackindex>16</trackindex>
						<clipindex>6</clipindex>
						<groupindex>1</groupindex>
					</link>
					<itemhistory>
						<uuid>422A8606-E152-47CF-84F0-E8478C420BAD</uuid>
						<uuid>A7A7FD7A-C8F2-45D5-95DA-784FC33C05A3</uuid>
					</itemhistory>
				</clipitem>
				<enabled>FALSE</enabled>
				<locked>FALSE</locked>
				<outputchannelindex>1</outputchannelindex>
			</track>
			<track>
				<clipitem id="GoldsboroughOllieGrandad001Subclipa3">
					<name>GoldsboroughOllieGrandad001Subclipa</name>
					<duration>116</duration>
					<rate>
						<ntsc>FALSE</ntsc>
						<timebase>25</timebase>
					</rate>
					<in>0</in>
					<out>116</out>
					<start>10107</start>
					<end>10223</end>
					<logginginfo>
						<scene/>
						<shottake/>
						<lognote/>
						<good>FALSE</good>
					</logginginfo>
					<labels>
						<label2/>
					</labels>
					<comments>
						<mastercomment1/>
						<mastercomment2/>
						<mastercomment3/>
						<mastercomment4/>
					</comments>
					<file id="GoldsboroughOllieGrandad001Subclipa1"/>
					<filter>
						<effect>
							<name>Audio Levels</name>
							<effectid>audiolevels</effectid>
							<effectcategory>audiolevels</effectcategory>
							<effecttype>audiolevels</effecttype>
							<mediatype>audio</mediatype>
							<parameter>
								<name>Level</name>
								<parameterid>level</parameterid>
								<valuemin>0</valuemin>
								<valuemax>3.98109</valuemax>
								<value>1</value>
							</parameter>
						</effect>
					</filter>
					<filter>
						<effect>
							<name>Audio Pan</name>
							<effectid>audiopan</effectid>
							<effectcategory>audiopan</effectcategory>
							<effecttype>audiopan</effecttype>
							<mediatype>audio</mediatype>
							<parameter>
								<name>Pan</name>
								<parameterid>pan</parameterid>
								<valuemin>-1</valuemin>
								<valuemax>1</valuemax>
								<value>1</value>
							</parameter>
						</effect>
					</filter>
					<sourcetrack>
						<mediatype>audio</mediatype>
						<trackindex>2</trackindex>
					</sourcetrack>
					<link>
						<linkclipref>GoldsboroughOllieGrandad001Subclipa</linkclipref>
						<mediatype>video</mediatype>
						<trackindex>9</trackindex>
						<clipindex>1</clipindex>
					</link>
					<link>
						<linkclipref>GoldsboroughOllieGrandad001Subclipa2</linkclipref>
						<mediatype>audio</mediatype>
						<trackindex>15</trackindex>
						<clipindex>1</clipindex>
						<groupindex>1</groupindex>
					</link>
					<link>
						<linkclipref>GoldsboroughOllieGrandad001Subclipa3</linkclipref>
						<mediatype>audio</mediatype>
						<trackindex>16</trackindex>
						<clipindex>1</clipindex>
						<groupindex>1</groupindex>
					</link>
					<itemhistory>
						<uuid>978A8536-9996-489C-86DD-A19DC0B378F4</uuid>
						<uuid>8E07B87B-25B0-451E-BB8D-A8024C92BED2</uuid>
					</itemhistory>
				</clipitem>
				<clipitem id="GoldsboroughOllieGrandad001Subclipb3">
					<name>GoldsboroughOllieGrandad001Subclipb</name>
					<duration>208</duration>
					<rate>
						<ntsc>FALSE</ntsc>
						<timebase>25</timebase>
					</rate>
					<in>0</in>
					<out>208</out>
					<start>10223</start>
					<end>10431</end>
					<logginginfo>
						<scene/>
						<shottake/>
						<lognote/>
						<good>FALSE</good>
					</logginginfo>
					<labels>
						<label2/>
					</labels>
					<comments>
						<mastercomment1/>
						<mastercomment2/>
						<mastercomment3/>
						<mastercomment4/>
					</comments>
					<file id="GoldsboroughOllieGrandad001Subclipb1"/>
					<filter>
						<effect>
							<name>Audio Levels</name>
							<effectid>audiolevels</effectid>
							<effectcategory>audiolevels</effectcategory>
							<effecttype>audiolevels</effecttype>
							<mediatype>audio</mediatype>
							<parameter>
								<name>Level</name>
								<parameterid>level</parameterid>
								<valuemin>0</valuemin>
								<valuemax>3.98109</valuemax>
								<value>1</value>
							</parameter>
						</effect>
					</filter>
					<filter>
						<effect>
							<name>Audio Pan</name>
							<effectid>audiopan</effectid>
							<effectcategory>audiopan</effectcategory>
							<effecttype>audiopan</effecttype>
							<mediatype>audio</mediatype>
							<parameter>
								<name>Pan</name>
								<parameterid>pan</parameterid>
								<valuemin>-1</valuemin>
								<valuemax>1</valuemax>
								<value>1</value>
							</parameter>
						</effect>
					</filter>
					<sourcetrack>
						<mediatype>audio</mediatype>
						<trackindex>2</trackindex>
					</sourcetrack>
					<link>
						<linkclipref>GoldsboroughOllieGrandad001Subclipb</linkclipref>
						<mediatype>video</mediatype>
						<trackindex>9</trackindex>
						<clipindex>2</clipindex>
					</link>
					<link>
						<linkclipref>GoldsboroughOllieGrandad001Subclipb2</linkclipref>
						<mediatype>audio</mediatype>
						<trackindex>15</trackindex>
						<clipindex>2</clipindex>
						<groupindex>1</groupindex>
					</link>
					<link>
						<linkclipref>GoldsboroughOllieGrandad001Subclipb3</linkclipref>
						<mediatype>audio</mediatype>
						<trackindex>16</trackindex>
						<clipindex>2</clipindex>
						<groupindex>1</groupindex>
					</link>
					<itemhistory>
						<uuid>73421212-9711-437E-9BC9-55872985F5C1</uuid>
						<uuid>5E916476-5E55-4A13-A43B-6C31D9A35BBB</uuid>
					</itemhistory>
				</clipitem>
				<clipitem id="GoldsboroughOllieGrandad001Subclipc3">
					<name>GoldsboroughOllieGrandad001Subclipc</name>
					<duration>247</duration>
					<rate>
						<ntsc>FALSE</ntsc>
						<timebase>25</timebase>
					</rate>
					<in>0</in>
					<out>247</out>
					<start>10431</start>
					<end>10678</end>
					<logginginfo>
						<scene/>
						<shottake/>
						<lognote/>
						<good>FALSE</good>
					</logginginfo>
					<labels>
						<label2/>
					</labels>
					<comments>
						<mastercomment1/>
						<mastercomment2/>
						<mastercomment3/>
						<mastercomment4/>
					</comments>
					<file id="GoldsboroughOllieGrandad001Subclipc1"/>
					<filter>
						<effect>
							<name>Audio Levels</name>
							<effectid>audiolevels</effectid>
							<effectcategory>audiolevels</effectcategory>
							<effecttype>audiolevels</effecttype>
							<mediatype>audio</mediatype>
							<parameter>
								<name>Level</name>
								<parameterid>level</parameterid>
								<valuemin>0</valuemin>
								<valuemax>3.98109</valuemax>
								<value>1</value>
							</parameter>
						</effect>
					</filter>
					<filter>
						<effect>
							<name>Audio Pan</name>
							<effectid>audiopan</effectid>
							<effectcategory>audiopan</effectcategory>
							<effecttype>audiopan</effecttype>
							<mediatype>audio</mediatype>
							<parameter>
								<name>Pan</name>
								<parameterid>pan</parameterid>
								<valuemin>-1</valuemin>
								<valuemax>1</valuemax>
								<value>1</value>
							</parameter>
						</effect>
					</filter>
					<sourcetrack>
						<mediatype>audio</mediatype>
						<trackindex>2</trackindex>
					</sourcetrack>
					<link>
						<linkclipref>GoldsboroughOllieGrandad001Subclipc</linkclipref>
						<mediatype>video</mediatype>
						<trackindex>9</trackindex>
						<clipindex>3</clipindex>
					</link>
					<link>
						<linkclipref>GoldsboroughOllieGrandad001Subclipc2</linkclipref>
						<mediatype>audio</mediatype>
						<trackindex>15</trackindex>
						<clipindex>3</clipindex>
						<groupindex>1</groupindex>
					</link>
					<link>
						<linkclipref>GoldsboroughOllieGrandad001Subclipc3</linkclipref>
						<mediatype>audio</mediatype>
						<trackindex>16</trackindex>
						<clipindex>3</clipindex>
						<groupindex>1</groupindex>
					</link>
					<itemhistory>
						<uuid>9ADCCA0B-1F76-4EB5-9CEB-12DB918523CC</uuid>
						<uuid>40E15327-5410-4265-B8C2-74C231D517F3</uuid>
					</itemhistory>
				</clipitem>
				<clipitem id="GoldsboroughOllieGrandad002Subclipa3">
					<name>GoldsboroughOllieGrandad002Subclipa</name>
					<duration>190</duration>
					<rate>
						<ntsc>FALSE</ntsc>
						<timebase>25</timebase>
					</rate>
					<in>0</in>
					<out>190</out>
					<start>10678</start>
					<end>10868</end>
					<logginginfo>
						<scene/>
						<shottake/>
						<lognote/>
						<good>FALSE</good>
					</logginginfo>
					<labels>
						<label2/>
					</labels>
					<comments>
						<mastercomment1/>
						<mastercomment2/>
						<mastercomment3/>
						<mastercomment4/>
					</comments>
					<file id="GoldsboroughOllieGrandad002Subclipa1"/>
					<filter>
						<effect>
							<name>Audio Levels</name>
							<effectid>audiolevels</effectid>
							<effectcategory>audiolevels</effectcategory>
							<effecttype>audiolevels</effecttype>
							<mediatype>audio</mediatype>
							<parameter>
								<name>Level</name>
								<parameterid>level</parameterid>
								<valuemin>0</valuemin>
								<valuemax>3.98109</valuemax>
								<value>1</value>
							</parameter>
						</effect>
					</filter>
					<filter>
						<effect>
							<name>Audio Pan</name>
							<effectid>audiopan</effectid>
							<effectcategory>audiopan</effectcategory>
							<effecttype>audiopan</effecttype>
							<mediatype>audio</mediatype>
							<parameter>
								<name>Pan</name>
								<parameterid>pan</parameterid>
								<valuemin>-1</valuemin>
								<valuemax>1</valuemax>
								<value>1</value>
							</parameter>
						</effect>
					</filter>
					<sourcetrack>
						<mediatype>audio</mediatype>
						<trackindex>2</trackindex>
					</sourcetrack>
					<link>
						<linkclipref>GoldsboroughOllieGrandad002Subclipa</linkclipref>
						<mediatype>video</mediatype>
						<trackindex>9</trackindex>
						<clipindex>4</clipindex>
					</link>
					<link>
						<linkclipref>GoldsboroughOllieGrandad002Subclipa2</linkclipref>
						<mediatype>audio</mediatype>
						<trackindex>15</trackindex>
						<clipindex>4</clipindex>
						<groupindex>1</groupindex>
					</link>
					<link>
						<linkclipref>GoldsboroughOllieGrandad002Subclipa3</linkclipref>
						<mediatype>audio</mediatype>
						<trackindex>16</trackindex>
						<clipindex>4</clipindex>
						<groupindex>1</groupindex>
					</link>
					<itemhistory>
						<uuid>A0BB49B3-AC30-42FD-9DB0-E087A4D94BE0</uuid>
						<uuid>FC825326-AB83-48DD-8B79-E70CB464B102</uuid>
					</itemhistory>
				</clipitem>
				<clipitem id="GoldsboroughOllieGrandad003 3">
					<name>GoldsboroughOllieGrandad003</name>
					<duration>416</duration>
					<rate>
						<ntsc>FALSE</ntsc>
						<timebase>25</timebase>
					</rate>
					<in>0</in>
					<out>416</out>
					<start>10868</start>
					<end>11284</end>
					<logginginfo>
						<scene/>
						<shottake/>
						<lognote/>
						<good>FALSE</good>
					</logginginfo>
					<labels>
						<label2/>
					</labels>
					<comments>
						<mastercomment1/>
						<mastercomment2/>
						<mastercomment3/>
						<mastercomment4/>
					</comments>
					<file id="GoldsboroughOllieGrandad003 1"/>
					<filter>
						<effect>
							<name>Audio Levels</name>
							<effectid>audiolevels</effectid>
							<effectcategory>audiolevels</effectcategory>
							<effecttype>audiolevels</effecttype>
							<mediatype>audio</mediatype>
							<parameter>
								<name>Level</name>
								<parameterid>level</parameterid>
								<valuemin>0</valuemin>
								<valuemax>3.98109</valuemax>
								<value>1</value>
							</parameter>
						</effect>
					</filter>
					<filter>
						<effect>
							<name>Audio Pan</name>
							<effectid>audiopan</effectid>
							<effectcategory>audiopan</effectcategory>
							<effecttype>audiopan</effecttype>
							<mediatype>audio</mediatype>
							<parameter>
								<name>Pan</name>
								<parameterid>pan</parameterid>
								<valuemin>-1</valuemin>
								<valuemax>1</valuemax>
								<value>1</value>
							</parameter>
						</effect>
					</filter>
					<sourcetrack>
						<mediatype>audio</mediatype>
						<trackindex>2</trackindex>
					</sourcetrack>
					<link>
						<linkclipref>GoldsboroughOllieGrandad003 </linkclipref>
						<mediatype>video</mediatype>
						<trackindex>9</trackindex>
						<clipindex>5</clipindex>
					</link>
					<link>
						<linkclipref>GoldsboroughOllieGrandad003 2</linkclipref>
						<mediatype>audio</mediatype>
						<trackindex>15</trackindex>
						<clipindex>5</clipindex>
						<groupindex>1</groupindex>
					</link>
					<link>
						<linkclipref>GoldsboroughOllieGrandad003 3</linkclipref>
						<mediatype>audio</mediatype>
						<trackindex>16</trackindex>
						<clipindex>5</clipindex>
						<groupindex>1</groupindex>
					</link>
					<itemhistory>
						<uuid>8DA70487-9818-4E85-BA18-DCBF2EFCF4FD</uuid>
						<uuid>487C00C8-B6D6-4F5C-883D-9E6A6E859CDF</uuid>
					</itemhistory>
				</clipitem>
				<clipitem id="GoldsboroughOllieGrandad004Subclipa3">
					<name>GoldsboroughOllieGrandad004Subclipa</name>
					<duration>112</duration>
					<rate>
						<ntsc>FALSE</ntsc>
						<timebase>25</timebase>
					</rate>
					<in>0</in>
					<out>112</out>
					<start>11284</start>
					<end>11396</end>
					<logginginfo>
						<scene/>
						<shottake/>
						<lognote/>
						<good>FALSE</good>
					</logginginfo>
					<labels>
						<label2/>
					</labels>
					<comments>
						<mastercomment1/>
						<mastercomment2/>
						<mastercomment3/>
						<mastercomment4/>
					</comments>
					<file id="GoldsboroughOllieGrandad004Subclipa1"/>
					<filter>
						<effect>
							<name>Audio Levels</name>
							<effectid>audiolevels</effectid>
							<effectcategory>audiolevels</effectcategory>
							<effecttype>audiolevels</effecttype>
							<mediatype>audio</mediatype>
							<parameter>
								<name>Level</name>
								<parameterid>level</parameterid>
								<valuemin>0</valuemin>
								<valuemax>3.98109</valuemax>
								<value>1</value>
							</parameter>
						</effect>
					</filter>
					<filter>
						<effect>
							<name>Audio Pan</name>
							<effectid>audiopan</effectid>
							<effectcategory>audiopan</effectcategory>
							<effecttype>audiopan</effecttype>
							<mediatype>audio</mediatype>
							<parameter>
								<name>Pan</name>
								<parameterid>pan</parameterid>
								<valuemin>-1</valuemin>
								<valuemax>1</valuemax>
								<value>1</value>
							</parameter>
						</effect>
					</filter>
					<sourcetrack>
						<mediatype>audio</mediatype>
						<trackindex>2</trackindex>
					</sourcetrack>
					<link>
						<linkclipref>GoldsboroughOllieGrandad004Subclipa</linkclipref>
						<mediatype>video</mediatype>
						<trackindex>9</trackindex>
						<clipindex>6</clipindex>
					</link>
					<link>
						<linkclipref>GoldsboroughOllieGrandad004Subclipa2</linkclipref>
						<mediatype>audio</mediatype>
						<trackindex>15</trackindex>
						<clipindex>6</clipindex>
						<groupindex>1</groupindex>
					</link>
					<link>
						<linkclipref>GoldsboroughOllieGrandad004Subclipa3</linkclipref>
						<mediatype>audio</mediatype>
						<trackindex>16</trackindex>
						<clipindex>6</clipindex>
						<groupindex>1</groupindex>
					</link>
					<itemhistory>
						<uuid>1AEF6B3C-E4CA-4ADE-88C6-C1F518DE863B</uuid>
						<uuid>F54A84BD-8EF5-4487-BFF5-1B8D7ACCE533</uuid>
					</itemhistory>
				</clipitem>
				<enabled>FALSE</enabled>
				<locked>FALSE</locked>
				<outputchannelindex>2</outputchannelindex>
			</track>
			<track>
				<clipitem id="StephenConquer001 2">
					<name>StephenConquer001</name>
					<duration>1041</duration>
					<rate>
						<ntsc>FALSE</ntsc>
						<timebase>25</timebase>
					</rate>
					<in>0</in>
					<out>1041</out>
					<start>12691</start>
					<end>13732</end>
					<subframeoffset>0</subframeoffset>
					<logginginfo>
						<scene/>
						<shottake/>
						<lognote/>
						<good>FALSE</good>
					</logginginfo>
					<labels>
						<label2/>
					</labels>
					<comments>
						<mastercomment1/>
						<mastercomment2/>
						<mastercomment3/>
						<mastercomment4/>
					</comments>
					<file id="StephenConquer001 1"/>
					<filter>
						<effect>
							<name>Audio Levels</name>
							<effectid>audiolevels</effectid>
							<effectcategory>audiolevels</effectcategory>
							<effecttype>audiolevels</effecttype>
							<mediatype>audio</mediatype>
							<parameter>
								<name>Level</name>
								<parameterid>level</parameterid>
								<valuemin>0</valuemin>
								<valuemax>3.98109</valuemax>
								<value>1</value>
							</parameter>
						</effect>
					</filter>
					<filter>
						<effect>
							<name>Audio Pan</name>
							<effectid>audiopan</effectid>
							<effectcategory>audiopan</effectcategory>
							<effecttype>audiopan</effecttype>
							<mediatype>audio</mediatype>
							<parameter>
								<name>Pan</name>
								<parameterid>pan</parameterid>
								<valuemin>-1</valuemin>
								<valuemax>1</valuemax>
								<value>-1</value>
							</parameter>
						</effect>
					</filter>
					<sourcetrack>
						<mediatype>audio</mediatype>
						<trackindex>1</trackindex>
					</sourcetrack>
					<link>
						<linkclipref>StephenConquer001 </linkclipref>
						<mediatype>video</mediatype>
						<trackindex>6</trackindex>
						<clipindex>1</clipindex>
					</link>
					<link>
						<linkclipref>StephenConquer001 2</linkclipref>
						<mediatype>audio</mediatype>
						<trackindex>17</trackindex>
						<clipindex>1</clipindex>
						<groupindex>1</groupindex>
					</link>
					<link>
						<linkclipref>StephenConquer001 3</linkclipref>
						<mediatype>audio</mediatype>
						<trackindex>18</trackindex>
						<clipindex>1</clipindex>
						<groupindex>1</groupindex>
					</link>
					<itemhistory>
						<uuid>6D1A86ED-72F0-4E90-94A8-FE48D4E88C5B</uuid>
						<uuid>0039C15C-B6B0-4DEB-9993-B87DC6B10F80</uuid>
					</itemhistory>
				</clipitem>
				<enabled>FALSE</enabled>
				<locked>FALSE</locked>
				<outputchannelindex>1</outputchannelindex>
			</track>
			<track>
				<clipitem id="StephenConquer001 3">
					<name>StephenConquer001</name>
					<duration>1041</duration>
					<rate>
						<ntsc>FALSE</ntsc>
						<timebase>25</timebase>
					</rate>
					<in>0</in>
					<out>1041</out>
					<start>12691</start>
					<end>13732</end>
					<subframeoffset>0</subframeoffset>
					<logginginfo>
						<scene/>
						<shottake/>
						<lognote/>
						<good>FALSE</good>
					</logginginfo>
					<labels>
						<label2/>
					</labels>
					<comments>
						<mastercomment1/>
						<mastercomment2/>
						<mastercomment3/>
						<mastercomment4/>
					</comments>
					<file id="StephenConquer001 1"/>
					<filter>
						<effect>
							<name>Audio Levels</name>
							<effectid>audiolevels</effectid>
							<effectcategory>audiolevels</effectcategory>
							<effecttype>audiolevels</effecttype>
							<mediatype>audio</mediatype>
							<parameter>
								<name>Level</name>
								<parameterid>level</parameterid>
								<valuemin>0</valuemin>
								<valuemax>3.98109</valuemax>
								<value>1</value>
							</parameter>
						</effect>
					</filter>
					<filter>
						<effect>
							<name>Audio Pan</name>
							<effectid>audiopan</effectid>
							<effectcategory>audiopan</effectcategory>
							<effecttype>audiopan</effecttype>
							<mediatype>audio</mediatype>
							<parameter>
								<name>Pan</name>
								<parameterid>pan</parameterid>
								<valuemin>-1</valuemin>
								<valuemax>1</valuemax>
								<value>1</value>
							</parameter>
						</effect>
					</filter>
					<sourcetrack>
						<mediatype>audio</mediatype>
						<trackindex>2</trackindex>
					</sourcetrack>
					<link>
						<linkclipref>StephenConquer001 </linkclipref>
						<mediatype>video</mediatype>
						<trackindex>6</trackindex>
						<clipindex>1</clipindex>
					</link>
					<link>
						<linkclipref>StephenConquer001 2</linkclipref>
						<mediatype>audio</mediatype>
						<trackindex>17</trackindex>
						<clipindex>1</clipindex>
						<groupindex>1</groupindex>
					</link>
					<link>
						<linkclipref>StephenConquer001 3</linkclipref>
						<mediatype>audio</mediatype>
						<trackindex>18</trackindex>
						<clipindex>1</clipindex>
						<groupindex>1</groupindex>
					</link>
					<itemhistory>
						<uuid>A3EAF751-D8E2-4F90-99FB-CC9D9606D680</uuid>
						<uuid>460FBF54-F902-4799-AC4A-54211C8469E4</uuid>
					</itemhistory>
				</clipitem>
				<enabled>FALSE</enabled>
				<locked>FALSE</locked>
				<outputchannelindex>2</outputchannelindex>
			</track>
			<track>
				<clipitem id="IanKegel002 2">
					<name>IanKegel002</name>
					<duration>122</duration>
					<rate>
						<ntsc>FALSE</ntsc>
						<timebase>25</timebase>
					</rate>
					<in>0</in>
					<out>122</out>
					<start>11396</start>
					<end>11518</end>
					<logginginfo>
						<scene/>
						<shottake/>
						<lognote/>
						<good>FALSE</good>
					</logginginfo>
					<labels>
						<label2/>
					</labels>
					<comments>
						<mastercomment1/>
						<mastercomment2/>
						<mastercomment3/>
						<mastercomment4/>
					</comments>
					<file id="IanKegel002 1"/>
					<filter>
						<effect>
							<name>Audio Levels</name>
							<effectid>audiolevels</effectid>
							<effectcategory>audiolevels</effectcategory>
							<effecttype>audiolevels</effecttype>
							<mediatype>audio</mediatype>
							<parameter>
								<name>Level</name>
								<parameterid>level</parameterid>
								<valuemin>0</valuemin>
								<valuemax>3.98109</valuemax>
								<value>1</value>
							</parameter>
						</effect>
					</filter>
					<filter>
						<effect>
							<name>Audio Pan</name>
							<effectid>audiopan</effectid>
							<effectcategory>audiopan</effectcategory>
							<effecttype>audiopan</effecttype>
							<mediatype>audio</mediatype>
							<parameter>
								<name>Pan</name>
								<parameterid>pan</parameterid>
								<valuemin>-1</valuemin>
								<valuemax>1</valuemax>
								<value>0</value>
							</parameter>
						</effect>
					</filter>
					<sourcetrack>
						<mediatype>audio</mediatype>
						<trackindex>1</trackindex>
					</sourcetrack>
					<link>
						<linkclipref>IanKegel002 </linkclipref>
						<mediatype>video</mediatype>
						<trackindex>10</trackindex>
						<clipindex>1</clipindex>
					</link>
					<link>
						<linkclipref>IanKegel002 2</linkclipref>
						<mediatype>audio</mediatype>
						<trackindex>19</trackindex>
						<clipindex>1</clipindex>
					</link>
					<link>
						<linkclipref>IanKegel002 3</linkclipref>
						<mediatype>audio</mediatype>
						<trackindex>20</trackindex>
						<clipindex>1</clipindex>
					</link>
					<itemhistory>
						<uuid>13372E12-A2A8-4882-BCA0-DF6212C2B12F</uuid>
						<uuid>4D0A7AAB-A972-48E8-925B-4BDF3F43F3C2</uuid>
					</itemhistory>
				</clipitem>
				<enabled>FALSE</enabled>
				<locked>FALSE</locked>
				<outputchannelindex>1</outputchannelindex>
			</track>
			<track>
				<clipitem id="IanKegel002 3">
					<name>IanKegel002</name>
					<duration>122</duration>
					<rate>
						<ntsc>FALSE</ntsc>
						<timebase>25</timebase>
					</rate>
					<in>0</in>
					<out>122</out>
					<start>11396</start>
					<end>11518</end>
					<logginginfo>
						<scene/>
						<shottake/>
						<lognote/>
						<good>FALSE</good>
					</logginginfo>
					<labels>
						<label2/>
					</labels>
					<comments>
						<mastercomment1/>
						<mastercomment2/>
						<mastercomment3/>
						<mastercomment4/>
					</comments>
					<file id="IanKegel002 1"/>
					<filter>
						<effect>
							<name>Audio Levels</name>
							<effectid>audiolevels</effectid>
							<effectcategory>audiolevels</effectcategory>
							<effecttype>audiolevels</effecttype>
							<mediatype>audio</mediatype>
							<parameter>
								<name>Level</name>
								<parameterid>level</parameterid>
								<valuemin>0</valuemin>
								<valuemax>3.98109</valuemax>
								<value>1</value>
							</parameter>
						</effect>
					</filter>
					<filter>
						<effect>
							<name>Audio Pan</name>
							<effectid>audiopan</effectid>
							<effectcategory>audiopan</effectcategory>
							<effecttype>audiopan</effecttype>
							<mediatype>audio</mediatype>
							<parameter>
								<name>Pan</name>
								<parameterid>pan</parameterid>
								<valuemin>-1</valuemin>
								<valuemax>1</valuemax>
								<value>0</value>
							</parameter>
						</effect>
					</filter>
					<sourcetrack>
						<mediatype>audio</mediatype>
						<trackindex>2</trackindex>
					</sourcetrack>
					<link>
						<linkclipref>IanKegel002 </linkclipref>
						<mediatype>video</mediatype>
						<trackindex>10</trackindex>
						<clipindex>1</clipindex>
					</link>
					<link>
						<linkclipref>IanKegel002 2</linkclipref>
						<mediatype>audio</mediatype>
						<trackindex>19</trackindex>
						<clipindex>1</clipindex>
					</link>
					<link>
						<linkclipref>IanKegel002 3</linkclipref>
						<mediatype>audio</mediatype>
						<trackindex>20</trackindex>
						<clipindex>1</clipindex>
					</link>
					<itemhistory>
						<uuid>13B1F484-AA16-4B90-9726-CEDE0E023BAE</uuid>
						<uuid>3C7EA681-CDF7-484C-960E-271E3FCBE9C3</uuid>
					</itemhistory>
				</clipitem>
				<enabled>FALSE</enabled>
				<locked>FALSE</locked>
				<outputchannelindex>2</outputchannelindex>
			</track>
			<track>
				<clipitem id="iphone005 2">
					<name>iphone005</name>
					<duration>500</duration>
					<rate>
						<ntsc>FALSE</ntsc>
						<timebase>25</timebase>
					</rate>
					<in>0</in>
					<out>500</out>
					<start>622</start>
					<end>1122</end>
					<logginginfo>
						<scene/>
						<shottake/>
						<lognote/>
						<good>FALSE</good>
					</logginginfo>
					<labels>
						<label2/>
					</labels>
					<comments>
						<mastercomment1/>
						<mastercomment2/>
						<mastercomment3/>
						<mastercomment4/>
					</comments>
					<file id="iphone005 1"/>
					<filter>
						<effect>
							<name>Audio Levels</name>
							<effectid>audiolevels</effectid>
							<effectcategory>audiolevels</effectcategory>
							<effecttype>audiolevels</effecttype>
							<mediatype>audio</mediatype>
							<parameter>
								<name>Level</name>
								<parameterid>level</parameterid>
								<valuemin>0</valuemin>
								<valuemax>3.98109</valuemax>
								<value>1</value>
							</parameter>
						</effect>
					</filter>
					<filter>
						<effect>
							<name>Audio Pan</name>
							<effectid>audiopan</effectid>
							<effectcategory>audiopan</effectcategory>
							<effecttype>audiopan</effecttype>
							<mediatype>audio</mediatype>
							<parameter>
								<name>Pan</name>
								<parameterid>pan</parameterid>
								<valuemin>-1</valuemin>
								<valuemax>1</valuemax>
								<value>0</value>
							</parameter>
						</effect>
					</filter>
					<sourcetrack>
						<mediatype>audio</mediatype>
						<trackindex>1</trackindex>
					</sourcetrack>
					<link>
						<linkclipref>iphone005 </linkclipref>
						<mediatype>video</mediatype>
						<trackindex>11</trackindex>
						<clipindex>1</clipindex>
					</link>
					<link>
						<linkclipref>iphone005 2</linkclipref>
						<mediatype>audio</mediatype>
						<trackindex>21</trackindex>
						<clipindex>1</clipindex>
					</link>
					<link>
						<linkclipref>iphone005 3</linkclipref>
						<mediatype>audio</mediatype>
						<trackindex>22</trackindex>
						<clipindex>1</clipindex>
					</link>
					<itemhistory>
						<uuid>14956085-B96A-4415-A5EC-16C557F34BC6</uuid>
						<uuid>13A45D1D-6F5D-4D1B-9458-DE5ACC40192B</uuid>
					</itemhistory>
				</clipitem>
				<clipitem id="iphone007 2">
					<name>iphone007</name>
					<duration>1325</duration>
					<rate>
						<ntsc>FALSE</ntsc>
						<timebase>25</timebase>
					</rate>
					<in>0</in>
					<out>1325</out>
					<start>1122</start>
					<end>2447</end>
					<logginginfo>
						<scene/>
						<shottake/>
						<lognote/>
						<good>FALSE</good>
					</logginginfo>
					<labels>
						<label2/>
					</labels>
					<comments>
						<mastercomment1/>
						<mastercomment2/>
						<mastercomment3/>
						<mastercomment4/>
					</comments>
					<file id="iphone007 1"/>
					<filter>
						<effect>
							<name>Audio Levels</name>
							<effectid>audiolevels</effectid>
							<effectcategory>audiolevels</effectcategory>
							<effecttype>audiolevels</effecttype>
							<mediatype>audio</mediatype>
							<parameter>
								<name>Level</name>
								<parameterid>level</parameterid>
								<valuemin>0</valuemin>
								<valuemax>3.98109</valuemax>
								<value>1</value>
							</parameter>
						</effect>
					</filter>
					<filter>
						<effect>
							<name>Audio Pan</name>
							<effectid>audiopan</effectid>
							<effectcategory>audiopan</effectcategory>
							<effecttype>audiopan</effecttype>
							<mediatype>audio</mediatype>
							<parameter>
								<name>Pan</name>
								<parameterid>pan</parameterid>
								<valuemin>-1</valuemin>
								<valuemax>1</valuemax>
								<value>0</value>
							</parameter>
						</effect>
					</filter>
					<sourcetrack>
						<mediatype>audio</mediatype>
						<trackindex>1</trackindex>
					</sourcetrack>
					<link>
						<linkclipref>iphone007 </linkclipref>
						<mediatype>video</mediatype>
						<trackindex>11</trackindex>
						<clipindex>2</clipindex>
					</link>
					<link>
						<linkclipref>iphone007 2</linkclipref>
						<mediatype>audio</mediatype>
						<trackindex>21</trackindex>
						<clipindex>2</clipindex>
					</link>
					<link>
						<linkclipref>iphone007 3</linkclipref>
						<mediatype>audio</mediatype>
						<trackindex>22</trackindex>
						<clipindex>2</clipindex>
					</link>
					<itemhistory>
						<uuid>0507D851-1BE5-4620-ACA8-678A4375775E</uuid>
						<uuid>760CE57D-2E35-4707-AD45-A8558D71FB7B</uuid>
					</itemhistory>
				</clipitem>
				<clipitem id="iphone008 2">
					<name>iphone008</name>
					<duration>163</duration>
					<rate>
						<ntsc>FALSE</ntsc>
						<timebase>25</timebase>
					</rate>
					<in>0</in>
					<out>163</out>
					<start>2447</start>
					<end>2610</end>
					<logginginfo>
						<scene/>
						<shottake/>
						<lognote/>
						<good>FALSE</good>
					</logginginfo>
					<labels>
						<label2/>
					</labels>
					<comments>
						<mastercomment1/>
						<mastercomment2/>
						<mastercomment3/>
						<mastercomment4/>
					</comments>
					<file id="iphone008 1"/>
					<filter>
						<effect>
							<name>Audio Levels</name>
							<effectid>audiolevels</effectid>
							<effectcategory>audiolevels</effectcategory>
							<effecttype>audiolevels</effecttype>
							<mediatype>audio</mediatype>
							<parameter>
								<name>Level</name>
								<parameterid>level</parameterid>
								<valuemin>0</valuemin>
								<valuemax>3.98109</valuemax>
								<value>1</value>
							</parameter>
						</effect>
					</filter>
					<filter>
						<effect>
							<name>Audio Pan</name>
							<effectid>audiopan</effectid>
							<effectcategory>audiopan</effectcategory>
							<effecttype>audiopan</effecttype>
							<mediatype>audio</mediatype>
							<parameter>
								<name>Pan</name>
								<parameterid>pan</parameterid>
								<valuemin>-1</valuemin>
								<valuemax>1</valuemax>
								<value>0</value>
							</parameter>
						</effect>
					</filter>
					<sourcetrack>
						<mediatype>audio</mediatype>
						<trackindex>1</trackindex>
					</sourcetrack>
					<link>
						<linkclipref>iphone008 </linkclipref>
						<mediatype>video</mediatype>
						<trackindex>11</trackindex>
						<clipindex>3</clipindex>
					</link>
					<link>
						<linkclipref>iphone008 2</linkclipref>
						<mediatype>audio</mediatype>
						<trackindex>21</trackindex>
						<clipindex>3</clipindex>
					</link>
					<link>
						<linkclipref>iphone008 3</linkclipref>
						<mediatype>audio</mediatype>
						<trackindex>22</trackindex>
						<clipindex>3</clipindex>
					</link>
					<itemhistory>
						<uuid>6FB814BD-CDED-4ACD-B047-07E427446D9D</uuid>
						<uuid>7F3286E4-64A3-4171-9C7E-F2B8EA44F28E</uuid>
					</itemhistory>
				</clipitem>
				<clipitem id="iphone008 4">
					<name>iphone008</name>
					<duration>163</duration>
					<rate>
						<ntsc>FALSE</ntsc>
						<timebase>25</timebase>
					</rate>
					<in>0</in>
					<out>163</out>
					<start>2610</start>
					<end>2773</end>
					<logginginfo>
						<scene/>
						<shottake/>
						<lognote/>
						<good>FALSE</good>
					</logginginfo>
					<labels>
						<label2/>
					</labels>
					<comments>
						<mastercomment1/>
						<mastercomment2/>
						<mastercomment3/>
						<mastercomment4/>
					</comments>
					<file id="iphone008 1"/>
					<filter>
						<effect>
							<name>Audio Levels</name>
							<effectid>audiolevels</effectid>
							<effectcategory>audiolevels</effectcategory>
							<effecttype>audiolevels</effecttype>
							<mediatype>audio</mediatype>
							<parameter>
								<name>Level</name>
								<parameterid>level</parameterid>
								<valuemin>0</valuemin>
								<valuemax>3.98109</valuemax>
								<value>1</value>
							</parameter>
						</effect>
					</filter>
					<filter>
						<effect>
							<name>Audio Pan</name>
							<effectid>audiopan</effectid>
							<effectcategory>audiopan</effectcategory>
							<effecttype>audiopan</effecttype>
							<mediatype>audio</mediatype>
							<parameter>
								<name>Pan</name>
								<parameterid>pan</parameterid>
								<valuemin>-1</valuemin>
								<valuemax>1</valuemax>
								<value>0</value>
							</parameter>
						</effect>
					</filter>
					<sourcetrack>
						<mediatype>audio</mediatype>
						<trackindex>1</trackindex>
					</sourcetrack>
					<link>
						<linkclipref>iphone008 4</linkclipref>
						<mediatype>audio</mediatype>
						<trackindex>21</trackindex>
						<clipindex>4</clipindex>
					</link>
					<link>
						<linkclipref>iphone008 5</linkclipref>
						<mediatype>audio</mediatype>
						<trackindex>22</trackindex>
						<clipindex>4</clipindex>
					</link>
					<itemhistory>
						<uuid>B07F68B8-6709-4B32-B8E7-345D80BE6C6A</uuid>
						<uuid>EE3F01B9-23FB-46F7-ADB9-7D1251E8398B</uuid>
					</itemhistory>
				</clipitem>
				<clipitem id="iphone011 2">
					<name>iphone011</name>
					<duration>767</duration>
					<rate>
						<ntsc>FALSE</ntsc>
						<timebase>25</timebase>
					</rate>
					<in>0</in>
					<out>767</out>
					<start>11909</start>
					<end>12676</end>
					<logginginfo>
						<scene/>
						<shottake/>
						<lognote/>
						<good>FALSE</good>
					</logginginfo>
					<labels>
						<label2/>
					</labels>
					<comments>
						<mastercomment1/>
						<mastercomment2/>
						<mastercomment3/>
						<mastercomment4/>
					</comments>
					<file id="iphone011 1"/>
					<filter>
						<effect>
							<name>Audio Levels</name>
							<effectid>audiolevels</effectid>
							<effectcategory>audiolevels</effectcategory>
							<effecttype>audiolevels</effecttype>
							<mediatype>audio</mediatype>
							<parameter>
								<name>Level</name>
								<parameterid>level</parameterid>
								<valuemin>0</valuemin>
								<valuemax>3.98109</valuemax>
								<value>1</value>
							</parameter>
						</effect>
					</filter>
					<filter>
						<effect>
							<name>Audio Pan</name>
							<effectid>audiopan</effectid>
							<effectcategory>audiopan</effectcategory>
							<effecttype>audiopan</effecttype>
							<mediatype>audio</mediatype>
							<parameter>
								<name>Pan</name>
								<parameterid>pan</parameterid>
								<valuemin>-1</valuemin>
								<valuemax>1</valuemax>
								<value>0</value>
							</parameter>
						</effect>
					</filter>
					<sourcetrack>
						<mediatype>audio</mediatype>
						<trackindex>1</trackindex>
					</sourcetrack>
					<link>
						<linkclipref>iphone011 </linkclipref>
						<mediatype>video</mediatype>
						<trackindex>11</trackindex>
						<clipindex>4</clipindex>
					</link>
					<link>
						<linkclipref>iphone011 2</linkclipref>
						<mediatype>audio</mediatype>
						<trackindex>21</trackindex>
						<clipindex>5</clipindex>
					</link>
					<link>
						<linkclipref>iphone011 3</linkclipref>
						<mediatype>audio</mediatype>
						<trackindex>22</trackindex>
						<clipindex>5</clipindex>
					</link>
					<itemhistory>
						<uuid>9D5E3CFB-0D53-41E4-A92A-BA66D7F41A23</uuid>
						<uuid>969F9861-22EC-4050-98DB-5A0523334B53</uuid>
					</itemhistory>
				</clipitem>
				<enabled>TRUE</enabled>
				<locked>FALSE</locked>
				<outputchannelindex>1</outputchannelindex>
			</track>
			<track>
				<clipitem id="iphone005 3">
					<name>iphone005</name>
					<duration>500</duration>
					<rate>
						<ntsc>FALSE</ntsc>
						<timebase>25</timebase>
					</rate>
					<in>0</in>
					<out>500</out>
					<start>622</start>
					<end>1122</end>
					<logginginfo>
						<scene/>
						<shottake/>
						<lognote/>
						<good>FALSE</good>
					</logginginfo>
					<labels>
						<label2/>
					</labels>
					<comments>
						<mastercomment1/>
						<mastercomment2/>
						<mastercomment3/>
						<mastercomment4/>
					</comments>
					<file id="iphone005 1"/>
					<filter>
						<effect>
							<name>Audio Levels</name>
							<effectid>audiolevels</effectid>
							<effectcategory>audiolevels</effectcategory>
							<effecttype>audiolevels</effecttype>
							<mediatype>audio</mediatype>
							<parameter>
								<name>Level</name>
								<parameterid>level</parameterid>
								<valuemin>0</valuemin>
								<valuemax>3.98109</valuemax>
								<value>1</value>
							</parameter>
						</effect>
					</filter>
					<filter>
						<effect>
							<name>Audio Pan</name>
							<effectid>audiopan</effectid>
							<effectcategory>audiopan</effectcategory>
							<effecttype>audiopan</effecttype>
							<mediatype>audio</mediatype>
							<parameter>
								<name>Pan</name>
								<parameterid>pan</parameterid>
								<valuemin>-1</valuemin>
								<valuemax>1</valuemax>
								<value>0</value>
							</parameter>
						</effect>
					</filter>
					<sourcetrack>
						<mediatype>audio</mediatype>
						<trackindex>2</trackindex>
					</sourcetrack>
					<link>
						<linkclipref>iphone005 </linkclipref>
						<mediatype>video</mediatype>
						<trackindex>11</trackindex>
						<clipindex>1</clipindex>
					</link>
					<link>
						<linkclipref>iphone005 2</linkclipref>
						<mediatype>audio</mediatype>
						<trackindex>21</trackindex>
						<clipindex>1</clipindex>
					</link>
					<link>
						<linkclipref>iphone005 3</linkclipref>
						<mediatype>audio</mediatype>
						<trackindex>22</trackindex>
						<clipindex>1</clipindex>
					</link>
					<itemhistory>
						<uuid>3C1E4281-CA92-4EA8-A829-CD5C38FEA691</uuid>
						<uuid>C18E580E-985A-4A22-93F1-E232BF2DEA36</uuid>
					</itemhistory>
				</clipitem>
				<clipitem id="iphone007 3">
					<name>iphone007</name>
					<duration>1325</duration>
					<rate>
						<ntsc>FALSE</ntsc>
						<timebase>25</timebase>
					</rate>
					<in>0</in>
					<out>1325</out>
					<start>1122</start>
					<end>2447</end>
					<logginginfo>
						<scene/>
						<shottake/>
						<lognote/>
						<good>FALSE</good>
					</logginginfo>
					<labels>
						<label2/>
					</labels>
					<comments>
						<mastercomment1/>
						<mastercomment2/>
						<mastercomment3/>
						<mastercomment4/>
					</comments>
					<file id="iphone007 1"/>
					<filter>
						<effect>
							<name>Audio Levels</name>
							<effectid>audiolevels</effectid>
							<effectcategory>audiolevels</effectcategory>
							<effecttype>audiolevels</effecttype>
							<mediatype>audio</mediatype>
							<parameter>
								<name>Level</name>
								<parameterid>level</parameterid>
								<valuemin>0</valuemin>
								<valuemax>3.98109</valuemax>
								<value>1</value>
							</parameter>
						</effect>
					</filter>
					<filter>
						<effect>
							<name>Audio Pan</name>
							<effectid>audiopan</effectid>
							<effectcategory>audiopan</effectcategory>
							<effecttype>audiopan</effecttype>
							<mediatype>audio</mediatype>
							<parameter>
								<name>Pan</name>
								<parameterid>pan</parameterid>
								<valuemin>-1</valuemin>
								<valuemax>1</valuemax>
								<value>0</value>
							</parameter>
						</effect>
					</filter>
					<sourcetrack>
						<mediatype>audio</mediatype>
						<trackindex>2</trackindex>
					</sourcetrack>
					<link>
						<linkclipref>iphone007 </linkclipref>
						<mediatype>video</mediatype>
						<trackindex>11</trackindex>
						<clipindex>2</clipindex>
					</link>
					<link>
						<linkclipref>iphone007 2</linkclipref>
						<mediatype>audio</mediatype>
						<trackindex>21</trackindex>
						<clipindex>2</clipindex>
					</link>
					<link>
						<linkclipref>iphone007 3</linkclipref>
						<mediatype>audio</mediatype>
						<trackindex>22</trackindex>
						<clipindex>2</clipindex>
					</link>
					<itemhistory>
						<uuid>57868279-16E2-41B0-B421-D5675B540486</uuid>
						<uuid>45A27EAC-BC4C-4609-8DBC-940F0468FF4F</uuid>
					</itemhistory>
				</clipitem>
				<clipitem id="iphone008 3">
					<name>iphone008</name>
					<duration>163</duration>
					<rate>
						<ntsc>FALSE</ntsc>
						<timebase>25</timebase>
					</rate>
					<in>0</in>
					<out>163</out>
					<start>2447</start>
					<end>2610</end>
					<logginginfo>
						<scene/>
						<shottake/>
						<lognote/>
						<good>FALSE</good>
					</logginginfo>
					<labels>
						<label2/>
					</labels>
					<comments>
						<mastercomment1/>
						<mastercomment2/>
						<mastercomment3/>
						<mastercomment4/>
					</comments>
					<file id="iphone008 1"/>
					<filter>
						<effect>
							<name>Audio Levels</name>
							<effectid>audiolevels</effectid>
							<effectcategory>audiolevels</effectcategory>
							<effecttype>audiolevels</effecttype>
							<mediatype>audio</mediatype>
							<parameter>
								<name>Level</name>
								<parameterid>level</parameterid>
								<valuemin>0</valuemin>
								<valuemax>3.98109</valuemax>
								<value>1</value>
							</parameter>
						</effect>
					</filter>
					<filter>
						<effect>
							<name>Audio Pan</name>
							<effectid>audiopan</effectid>
							<effectcategory>audiopan</effectcategory>
							<effecttype>audiopan</effecttype>
							<mediatype>audio</mediatype>
							<parameter>
								<name>Pan</name>
								<parameterid>pan</parameterid>
								<valuemin>-1</valuemin>
								<valuemax>1</valuemax>
								<value>0</value>
							</parameter>
						</effect>
					</filter>
					<sourcetrack>
						<mediatype>audio</mediatype>
						<trackindex>2</trackindex>
					</sourcetrack>
					<link>
						<linkclipref>iphone008 </linkclipref>
						<mediatype>video</mediatype>
						<trackindex>11</trackindex>
						<clipindex>3</clipindex>
					</link>
					<link>
						<linkclipref>iphone008 2</linkclipref>
						<mediatype>audio</mediatype>
						<trackindex>21</trackindex>
						<clipindex>3</clipindex>
					</link>
					<link>
						<linkclipref>iphone008 3</linkclipref>
						<mediatype>audio</mediatype>
						<trackindex>22</trackindex>
						<clipindex>3</clipindex>
					</link>
					<itemhistory>
						<uuid>06ADBAB7-D5DB-4ABB-8DD6-D912B18D5E2D</uuid>
						<uuid>6E5F7A44-F4BE-40EA-AA39-94D3B06B3A56</uuid>
					</itemhistory>
				</clipitem>
				<clipitem id="iphone008 5">
					<name>iphone008</name>
					<duration>163</duration>
					<rate>
						<ntsc>FALSE</ntsc>
						<timebase>25</timebase>
					</rate>
					<in>0</in>
					<out>163</out>
					<start>2610</start>
					<end>2773</end>
					<logginginfo>
						<scene/>
						<shottake/>
						<lognote/>
						<good>FALSE</good>
					</logginginfo>
					<labels>
						<label2/>
					</labels>
					<comments>
						<mastercomment1/>
						<mastercomment2/>
						<mastercomment3/>
						<mastercomment4/>
					</comments>
					<file id="iphone008 1"/>
					<filter>
						<effect>
							<name>Audio Levels</name>
							<effectid>audiolevels</effectid>
							<effectcategory>audiolevels</effectcategory>
							<effecttype>audiolevels</effecttype>
							<mediatype>audio</mediatype>
							<parameter>
								<name>Level</name>
								<parameterid>level</parameterid>
								<valuemin>0</valuemin>
								<valuemax>3.98109</valuemax>
								<value>1</value>
							</parameter>
						</effect>
					</filter>
					<filter>
						<effect>
							<name>Audio Pan</name>
							<effectid>audiopan</effectid>
							<effectcategory>audiopan</effectcategory>
							<effecttype>audiopan</effecttype>
							<mediatype>audio</mediatype>
							<parameter>
								<name>Pan</name>
								<parameterid>pan</parameterid>
								<valuemin>-1</valuemin>
								<valuemax>1</valuemax>
								<value>0</value>
							</parameter>
						</effect>
					</filter>
					<sourcetrack>
						<mediatype>audio</mediatype>
						<trackindex>2</trackindex>
					</sourcetrack>
					<link>
						<linkclipref>iphone008 4</linkclipref>
						<mediatype>audio</mediatype>
						<trackindex>21</trackindex>
						<clipindex>4</clipindex>
					</link>
					<link>
						<linkclipref>iphone008 5</linkclipref>
						<mediatype>audio</mediatype>
						<trackindex>22</trackindex>
						<clipindex>4</clipindex>
					</link>
					<itemhistory>
						<uuid>32EB0D95-50C7-4C25-A845-7968CDC2C710</uuid>
						<uuid>26AA85E9-E88D-42C4-B929-E9ED91F23A53</uuid>
					</itemhistory>
				</clipitem>
				<clipitem id="iphone011 3">
					<name>iphone011</name>
					<duration>767</duration>
					<rate>
						<ntsc>FALSE</ntsc>
						<timebase>25</timebase>
					</rate>
					<in>0</in>
					<out>767</out>
					<start>11909</start>
					<end>12676</end>
					<logginginfo>
						<scene/>
						<shottake/>
						<lognote/>
						<good>FALSE</good>
					</logginginfo>
					<labels>
						<label2/>
					</labels>
					<comments>
						<mastercomment1/>
						<mastercomment2/>
						<mastercomment3/>
						<mastercomment4/>
					</comments>
					<file id="iphone011 1"/>
					<filter>
						<effect>
							<name>Audio Levels</name>
							<effectid>audiolevels</effectid>
							<effectcategory>audiolevels</effectcategory>
							<effecttype>audiolevels</effecttype>
							<mediatype>audio</mediatype>
							<parameter>
								<name>Level</name>
								<parameterid>level</parameterid>
								<valuemin>0</valuemin>
								<valuemax>3.98109</valuemax>
								<value>1</value>
							</parameter>
						</effect>
					</filter>
					<filter>
						<effect>
							<name>Audio Pan</name>
							<effectid>audiopan</effectid>
							<effectcategory>audiopan</effectcategory>
							<effecttype>audiopan</effecttype>
							<mediatype>audio</mediatype>
							<parameter>
								<name>Pan</name>
								<parameterid>pan</parameterid>
								<valuemin>-1</valuemin>
								<valuemax>1</valuemax>
								<value>0</value>
							</parameter>
						</effect>
					</filter>
					<sourcetrack>
						<mediatype>audio</mediatype>
						<trackindex>2</trackindex>
					</sourcetrack>
					<link>
						<linkclipref>iphone011 </linkclipref>
						<mediatype>video</mediatype>
						<trackindex>11</trackindex>
						<clipindex>4</clipindex>
					</link>
					<link>
						<linkclipref>iphone011 2</linkclipref>
						<mediatype>audio</mediatype>
						<trackindex>21</trackindex>
						<clipindex>5</clipindex>
					</link>
					<link>
						<linkclipref>iphone011 3</linkclipref>
						<mediatype>audio</mediatype>
						<trackindex>22</trackindex>
						<clipindex>5</clipindex>
					</link>
					<itemhistory>
						<uuid>41D6DFBA-7C15-4798-9BCD-BD29F46FDF19</uuid>
						<uuid>595EB8BC-BE61-4F17-8D75-39E2CCE6B4D2</uuid>
					</itemhistory>
				</clipitem>
				<enabled>TRUE</enabled>
				<locked>FALSE</locked>
				<outputchannelindex>2</outputchannelindex>
			</track>
			<track>
				<clipitem id="JonWills026 2">
					<name>JonWills026</name>
					<duration>372</duration>
					<rate>
						<ntsc>FALSE</ntsc>
						<timebase>25</timebase>
					</rate>
					<in>0</in>
					<out>372</out>
					<start>11537</start>
					<end>11909</end>
					<logginginfo>
						<scene/>
						<shottake/>
						<lognote/>
						<good>FALSE</good>
					</logginginfo>
					<labels>
						<label2/>
					</labels>
					<comments>
						<mastercomment1/>
						<mastercomment2/>
						<mastercomment3/>
						<mastercomment4/>
					</comments>
					<file id="JonWills026 1"/>
					<filter>
						<effect>
							<name>Audio Levels</name>
							<effectid>audiolevels</effectid>
							<effectcategory>audiolevels</effectcategory>
							<effecttype>audiolevels</effecttype>
							<mediatype>audio</mediatype>
							<parameter>
								<name>Level</name>
								<parameterid>level</parameterid>
								<valuemin>0</valuemin>
								<valuemax>3.98109</valuemax>
								<value>1</value>
							</parameter>
						</effect>
					</filter>
					<filter>
						<effect>
							<name>Audio Pan</name>
							<effectid>audiopan</effectid>
							<effectcategory>audiopan</effectcategory>
							<effecttype>audiopan</effecttype>
							<mediatype>audio</mediatype>
							<parameter>
								<name>Pan</name>
								<parameterid>pan</parameterid>
								<valuemin>-1</valuemin>
								<valuemax>1</valuemax>
								<value>-1</value>
							</parameter>
						</effect>
					</filter>
					<sourcetrack>
						<mediatype>audio</mediatype>
						<trackindex>1</trackindex>
					</sourcetrack>
					<link>
						<linkclipref>JonWills026 </linkclipref>
						<mediatype>video</mediatype>
						<trackindex>12</trackindex>
						<clipindex>1</clipindex>
					</link>
					<link>
						<linkclipref>JonWills026 2</linkclipref>
						<mediatype>audio</mediatype>
						<trackindex>23</trackindex>
						<clipindex>1</clipindex>
						<groupindex>1</groupindex>
					</link>
					<link>
						<linkclipref>JonWills026 3</linkclipref>
						<mediatype>audio</mediatype>
						<trackindex>24</trackindex>
						<clipindex>1</clipindex>
						<groupindex>1</groupindex>
					</link>
					<itemhistory>
						<uuid>B6148E91-C695-4BEB-AAD6-E59058CDC3E9</uuid>
						<uuid>E5ADC025-3F4A-495A-8DEF-1F6353D9F57F</uuid>
					</itemhistory>
				</clipitem>
				<enabled>FALSE</enabled>
				<locked>FALSE</locked>
				<outputchannelindex>1</outputchannelindex>
			</track>
			<track>
				<clipitem id="JonWills026 3">
					<name>JonWills026</name>
					<duration>372</duration>
					<rate>
						<ntsc>FALSE</ntsc>
						<timebase>25</timebase>
					</rate>
					<in>0</in>
					<out>372</out>
					<start>11537</start>
					<end>11909</end>
					<logginginfo>
						<scene/>
						<shottake/>
						<lognote/>
						<good>FALSE</good>
					</logginginfo>
					<labels>
						<label2/>
					</labels>
					<comments>
						<mastercomment1/>
						<mastercomment2/>
						<mastercomment3/>
						<mastercomment4/>
					</comments>
					<file id="JonWills026 1"/>
					<filter>
						<effect>
							<name>Audio Levels</name>
							<effectid>audiolevels</effectid>
							<effectcategory>audiolevels</effectcategory>
							<effecttype>audiolevels</effecttype>
							<mediatype>audio</mediatype>
							<parameter>
								<name>Level</name>
								<parameterid>level</parameterid>
								<valuemin>0</valuemin>
								<valuemax>3.98109</valuemax>
								<value>1</value>
							</parameter>
						</effect>
					</filter>
					<filter>
						<effect>
							<name>Audio Pan</name>
							<effectid>audiopan</effectid>
							<effectcategory>audiopan</effectcategory>
							<effecttype>audiopan</effecttype>
							<mediatype>audio</mediatype>
							<parameter>
								<name>Pan</name>
								<parameterid>pan</parameterid>
								<valuemin>-1</valuemin>
								<valuemax>1</valuemax>
								<value>1</value>
							</parameter>
						</effect>
					</filter>
					<sourcetrack>
						<mediatype>audio</mediatype>
						<trackindex>2</trackindex>
					</sourcetrack>
					<link>
						<linkclipref>JonWills026 </linkclipref>
						<mediatype>video</mediatype>
						<trackindex>12</trackindex>
						<clipindex>1</clipindex>
					</link>
					<link>
						<linkclipref>JonWills026 2</linkclipref>
						<mediatype>audio</mediatype>
						<trackindex>23</trackindex>
						<clipindex>1</clipindex>
						<groupindex>1</groupindex>
					</link>
					<link>
						<linkclipref>JonWills026 3</linkclipref>
						<mediatype>audio</mediatype>
						<trackindex>24</trackindex>
						<clipindex>1</clipindex>
						<groupindex>1</groupindex>
					</link>
					<itemhistory>
						<uuid>15264672-191F-45FF-8553-B76908C3C57A</uuid>
						<uuid>5204987C-2305-4808-92A2-BFA84597E168</uuid>
					</itemhistory>
				</clipitem>
				<enabled>FALSE</enabled>
				<locked>FALSE</locked>
				<outputchannelindex>2</outputchannelindex>
			</track>
			<filter>
				<effect>
					<name>Audio Levels</name>
					<effectid>audiolevels</effectid>
					<effectcategory>audiolevels</effectcategory>
					<effecttype>audiolevels</effecttype>
					<mediatype>audio</mediatype>
					<parameter>
						<name>Level</name>
						<parameterid>level</parameterid>
						<valuemin>0</valuemin>
						<valuemax>3.98109</valuemax>
						<value>1</value>
					</parameter>
				</effect>
			</filter>
		</audio>
	</media>
	<marker>
		<name>event=concert;stage=intro</name>
		<comment/>
		<color>
			<alpha>0</alpha>
			<red>255</red>
			<green>0</green>
			<blue>0</blue>
		</color>
		<in>15000</in>
		<out>-1</out>
	</marker>
	<marker>
		<name>stage=speech1</name>
		<comment/>
		<color>
			<alpha>0</alpha>
			<red>255</red>
			<green>0</green>
			<blue>0</blue>
		</color>
		<in>18399</in>
		<out>-1</out>
	</marker>
	<marker>
		<name>stage=speech2</name>
		<comment/>
		<color>
			<alpha>0</alpha>
			<red>255</red>
			<green>0</green>
			<blue>0</blue>
		</color>
		<in>20632</in>
		<out>-1</out>
	</marker>
	<marker>
		<name>event=Hall;song='Vieni, Vieni O Mio Diletto (Vivaldi)';stage=intro</name>
		<comment/>
		<color>
			<alpha>0</alpha>
			<red>255</red>
			<green>127</green>
			<blue>0</blue>
		</color>
		<in>23718</in>
		<out>-1</out>
	</marker>
	<marker>
		<name>stage=body</name>
		<comment/>
		<color>
			<alpha>0</alpha>
			<red>255</red>
			<green>255</green>
			<blue>0</blue>
		</color>
		<in>24404</in>
		<out>-1</out>
	</marker>
	<marker>
		<name>stage=highlight</name>
		<comment/>
		<color>
			<alpha>0</alpha>
			<red>48</red>
			<green>191</green>
			<blue>72</blue>
		</color>
		<in>25958</in>
		<out>-1</out>
	</marker>
	<marker>
		<name>stage=body</name>
		<comment/>
		<color>
			<alpha>0</alpha>
			<red>255</red>
			<green>255</green>
			<blue>0</blue>
		</color>
		<in>26432</in>
		<out>-1</out>
	</marker>
	<marker>
		<name>stage=highlight</name>
		<comment/>
		<color>
			<alpha>0</alpha>
			<red>48</red>
			<green>191</green>
			<blue>72</blue>
		</color>
		<in>27535</in>
		<out>-1</out>
	</marker>
	<marker>
		<name>stage=conclusion</name>
		<comment/>
		<color>
			<alpha>0</alpha>
			<red>127</red>
			<green>0</green>
			<blue>255</blue>
		</color>
		<in>27771</in>
		<out>-1</out>
	</marker>
	<marker>
		<name>stage=applause</name>
		<comment/>
		<color>
			<alpha>0</alpha>
			<red>0</red>
			<green>128</green>
			<blue>255</blue>
		</color>
		<in>28349</in>
		<out>-1</out>
	</marker>
	<marker>
		<name>song='Fantasy (Lark)';stage=intro</name>
		<comment/>
		<color>
			<alpha>0</alpha>
			<red>255</red>
			<green>127</green>
			<blue>0</blue>
		</color>
		<in>28817</in>
		<out>-1</out>
	</marker>
	<marker>
		<name>stage=body</name>
		<comment/>
		<color>
			<alpha>0</alpha>
			<red>255</red>
			<green>255</green>
			<blue>0</blue>
		</color>
		<in>29673</in>
		<out>-1</out>
	</marker>
	<marker>
		<name>stage=highlight</name>
		<comment/>
		<color>
			<alpha>0</alpha>
			<red>48</red>
			<green>191</green>
			<blue>72</blue>
		</color>
		<in>30583</in>
		<out>-1</out>
	</marker>
	<marker>
		<name>stage=body</name>
		<comment/>
		<color>
			<alpha>0</alpha>
			<red>255</red>
			<green>255</green>
			<blue>0</blue>
		</color>
		<in>31065</in>
		<out>-1</out>
	</marker>
	<marker>
		<name>stage=highlight</name>
		<comment/>
		<color>
			<alpha>0</alpha>
			<red>48</red>
			<green>191</green>
			<blue>72</blue>
		</color>
		<in>33723</in>
		<out>-1</out>
	</marker>
	<marker>
		<name>stage=body</name>
		<comment/>
		<color>
			<alpha>0</alpha>
			<red>255</red>
			<green>255</green>
			<blue>0</blue>
		</color>
		<in>34154</in>
		<out>-1</out>
	</marker>
	<marker>
		<name>stage=conclusion</name>
		<comment/>
		<color>
			<alpha>0</alpha>
			<red>127</red>
			<green>0</green>
			<blue>255</blue>
		</color>
		<in>42450</in>
		<out>-1</out>
	</marker>
	<marker>
		<name>stage=applause</name>
		<comment/>
		<color>
			<alpha>0</alpha>
			<red>0</red>
			<green>128</green>
			<blue>255</blue>
		</color>
		<in>44367</in>
		<out>-1</out>
	</marker>
	<marker>
		<name>song='The A Team (Sheeran)';stage=intro</name>
		<comment/>
		<color>
			<alpha>0</alpha>
			<red>255</red>
			<green>127</green>
			<blue>0</blue>
		</color>
		<in>44750</in>
		<out>-1</out>
	</marker>
	<marker>
		<name>stage=body</name>
		<comment/>
		<color>
			<alpha>0</alpha>
			<red>255</red>
			<green>255</green>
			<blue>0</blue>
		</color>
		<in>45391</in>
		<out>-1</out>
	</marker>
	<marker>
		<name>stage=highlight</name>
		<comment/>
		<color>
			<alpha>0</alpha>
			<red>48</red>
			<green>191</green>
			<blue>72</blue>
		</color>
		<in>48228</in>
		<out>-1</out>
	</marker>
	<marker>
		<name>stage=body</name>
		<comment/>
		<color>
			<alpha>0</alpha>
			<red>255</red>
			<green>255</green>
			<blue>0</blue>
		</color>
		<in>48779</in>
		<out>-1</out>
	</marker>
	<marker>
		<name>stage=highlight</name>
		<comment/>
		<color>
			<alpha>0</alpha>
			<red>48</red>
			<green>191</green>
			<blue>72</blue>
		</color>
		<in>49795</in>
		<out>-1</out>
	</marker>
	<marker>
		<name>stage=body</name>
		<comment/>
		<color>
			<alpha>0</alpha>
			<red>255</red>
			<green>255</green>
			<blue>0</blue>
		</color>
		<in>50088</in>
		<out>-1</out>
	</marker>
	<marker>
		<name>stage=conclusion</name>
		<comment/>
		<color>
			<alpha>0</alpha>
			<red>127</red>
			<green>0</green>
			<blue>255</blue>
		</color>
		<in>51024</in>
		<out>-1</out>
	</marker>
	<marker>
		<name>stage=applause</name>
		<comment/>
		<color>
			<alpha>0</alpha>
			<red>0</red>
			<green>128</green>
			<blue>255</blue>
		</color>
		<in>51697</in>
		<out>-1</out>
	</marker>
	<marker>
		<name>song='Hungarian Rhapsody (Popper)';stage=intro</name>
		<comment/>
		<color>
			<alpha>0</alpha>
			<red>255</red>
			<green>127</green>
			<blue>0</blue>
		</color>
		<in>52423</in>
		<out>-1</out>
	</marker>
	<marker>
		<name>stage=body</name>
		<comment/>
		<color>
			<alpha>0</alpha>
			<red>255</red>
			<green>255</green>
			<blue>0</blue>
		</color>
		<in>54996</in>
		<out>-1</out>
	</marker>
	<marker>
		<name>stage=highlight</name>
		<comment/>
		<color>
			<alpha>0</alpha>
			<red>48</red>
			<green>191</green>
			<blue>72</blue>
		</color>
		<in>56312</in>
		<out>-1</out>
	</marker>
	<marker>
		<name>stage=body</name>
		<comment/>
		<color>
			<alpha>0</alpha>
			<red>255</red>
			<green>255</green>
			<blue>0</blue>
		</color>
		<in>57351</in>
		<out>-1</out>
	</marker>
	<marker>
		<name>stage=highlight</name>
		<comment/>
		<color>
			<alpha>0</alpha>
			<red>48</red>
			<green>191</green>
			<blue>72</blue>
		</color>
		<in>62372</in>
		<out>-1</out>
	</marker>
	<marker>
		<name>stage=body</name>
		<comment/>
		<color>
			<alpha>0</alpha>
			<red>255</red>
			<green>255</green>
			<blue>0</blue>
		</color>
		<in>64032</in>
		<out>-1</out>
	</marker>
	<marker>
		<name>stage=conclusion</name>
		<comment/>
		<color>
			<alpha>0</alpha>
			<red>127</red>
			<green>0</green>
			<blue>255</blue>
		</color>
		<in>67150</in>
		<out>-1</out>
	</marker>
	<marker>
		<name>stage=applause</name>
		<comment/>
		<color>
			<alpha>0</alpha>
			<red>0</red>
			<green>128</green>
			<blue>255</blue>
		</color>
		<in>68083</in>
		<out>-1</out>
	</marker>
	<marker>
		<name>song='Music for a While (Purcell)';stage=intro</name>
		<comment/>
		<color>
			<alpha>0</alpha>
			<red>255</red>
			<green>127</green>
			<blue>0</blue>
		</color>
		<in>68832</in>
		<out>-1</out>
	</marker>
	<marker>
		<name>stage=body</name>
		<comment/>
		<color>
			<alpha>0</alpha>
			<red>255</red>
			<green>255</green>
			<blue>0</blue>
		</color>
		<in>69371</in>
		<out>-1</out>
	</marker>
	<marker>
		<name>stage=highlight</name>
		<comment/>
		<color>
			<alpha>0</alpha>
			<red>48</red>
			<green>191</green>
			<blue>72</blue>
		</color>
		<in>69841</in>
		<out>-1</out>
	</marker>
	<marker>
		<name>stage=body</name>
		<comment/>
		<color>
			<alpha>0</alpha>
			<red>255</red>
			<green>255</green>
			<blue>0</blue>
		</color>
		<in>70330</in>
		<out>-1</out>
	</marker>
	<marker>
		<name>stage=highlight</name>
		<comment/>
		<color>
			<alpha>0</alpha>
			<red>48</red>
			<green>191</green>
			<blue>72</blue>
		</color>
		<in>71934</in>
		<out>-1</out>
	</marker>
	<marker>
		<name>stage=body</name>
		<comment/>
		<color>
			<alpha>0</alpha>
			<red>255</red>
			<green>255</green>
			<blue>0</blue>
		</color>
		<in>72393</in>
		<out>-1</out>
	</marker>
	<marker>
		<name>stage=conclusion</name>
		<comment/>
		<color>
			<alpha>0</alpha>
			<red>127</red>
			<green>0</green>
			<blue>255</blue>
		</color>
		<in>74197</in>
		<out>-1</out>
	</marker>
	<marker>
		<name>stage=applause</name>
		<comment/>
		<color>
			<alpha>0</alpha>
			<red>0</red>
			<green>128</green>
			<blue>255</blue>
		</color>
		<in>74536</in>
		<out>-1</out>
	</marker>
	<marker>
		<name>song='Dance Espagnole (de Falla)';stage=intro</name>
		<comment/>
		<color>
			<alpha>0</alpha>
			<red>255</red>
			<green>127</green>
			<blue>0</blue>
		</color>
		<in>75125</in>
		<out>-1</out>
	</marker>
	<marker>
		<name>stage=body</name>
		<comment/>
		<color>
			<alpha>0</alpha>
			<red>255</red>
			<green>255</green>
			<blue>0</blue>
		</color>
		<in>76289</in>
		<out>-1</out>
	</marker>
	<marker>
		<name>stage=highlight</name>
		<comment/>
		<color>
			<alpha>0</alpha>
			<red>48</red>
			<green>191</green>
			<blue>72</blue>
		</color>
		<in>77178</in>
		<out>-1</out>
	</marker>
	<marker>
		<name>stage=body</name>
		<comment/>
		<color>
			<alpha>0</alpha>
			<red>255</red>
			<green>255</green>
			<blue>0</blue>
		</color>
		<in>77613</in>
		<out>-1</out>
	</marker>
	<marker>
		<name>stage=highlight</name>
		<comment/>
		<color>
			<alpha>0</alpha>
			<red>48</red>
			<green>191</green>
			<blue>72</blue>
		</color>
		<in>79182</in>
		<out>-1</out>
	</marker>
	<marker>
		<name>stage=body</name>
		<comment/>
		<color>
			<alpha>0</alpha>
			<red>255</red>
			<green>255</green>
			<blue>0</blue>
		</color>
		<in>79665</in>
		<out>-1</out>
	</marker>
	<marker>
		<name>stage=conclusion</name>
		<comment/>
		<color>
			<alpha>0</alpha>
			<red>127</red>
			<green>0</green>
			<blue>255</blue>
		</color>
		<in>80382</in>
		<out>-1</out>
	</marker>
	<marker>
		<name>stage=applause</name>
		<comment/>
		<color>
			<alpha>0</alpha>
			<red>0</red>
			<green>128</green>
			<blue>255</blue>
		</color>
		<in>81491</in>
		<out>-1</out>
	</marker>
	<marker>
		<name>song='The Man I Love (Gershwin)';stage=intro</name>
		<comment/>
		<color>
			<alpha>0</alpha>
			<red>255</red>
			<green>127</green>
			<blue>0</blue>
		</color>
		<in>81910</in>
		<out>-1</out>
	</marker>
	<marker>
		<name>stage=body</name>
		<comment/>
		<color>
			<alpha>0</alpha>
			<red>255</red>
			<green>255</green>
			<blue>0</blue>
		</color>
		<in>82395</in>
		<out>-1</out>
	</marker>
	<marker>
		<name>stage=highlight</name>
		<comment/>
		<color>
			<alpha>0</alpha>
			<red>48</red>
			<green>191</green>
			<blue>72</blue>
		</color>
		<in>83717</in>
		<out>-1</out>
	</marker>
	<marker>
		<name>stage=body</name>
		<comment/>
		<color>
			<alpha>0</alpha>
			<red>255</red>
			<green>255</green>
			<blue>0</blue>
		</color>
		<in>84205</in>
		<out>-1</out>
	</marker>
	<marker>
		<name>stage=highlight</name>
		<comment/>
		<color>
			<alpha>0</alpha>
			<red>48</red>
			<green>191</green>
			<blue>72</blue>
		</color>
		<in>85743</in>
		<out>-1</out>
	</marker>
	<marker>
		<name>stage=body</name>
		<comment/>
		<color>
			<alpha>0</alpha>
			<red>255</red>
			<green>255</green>
			<blue>0</blue>
		</color>
		<in>86592</in>
		<out>-1</out>
	</marker>
	<marker>
		<name>stage=conclusion</name>
		<comment/>
		<color>
			<alpha>0</alpha>
			<red>127</red>
			<green>0</green>
			<blue>255</blue>
		</color>
		<in>89122</in>
		<out>-1</out>
	</marker>
	<marker>
		<name>stage=applause</name>
		<comment/>
		<color>
			<alpha>0</alpha>
			<red>0</red>
			<green>128</green>
			<blue>255</blue>
		</color>
		<in>90041</in>
		<out>-1</out>
	</marker>
	<marker>
		<name>song='Spring Wind (Thiman)';stage=intro</name>
		<comment/>
		<color>
			<alpha>0</alpha>
			<red>255</red>
			<green>127</green>
			<blue>0</blue>
		</color>
		<in>90704</in>
		<out>-1</out>
	</marker>
	<marker>
		<name>stage=body</name>
		<comment/>
		<color>
			<alpha>0</alpha>
			<red>255</red>
			<green>255</green>
			<blue>0</blue>
		</color>
		<in>90981</in>
		<out>-1</out>
	</marker>
	<marker>
		<name>stage=highlight</name>
		<comment/>
		<color>
			<alpha>0</alpha>
			<red>48</red>
			<green>191</green>
			<blue>72</blue>
		</color>
		<in>91239</in>
		<out>-1</out>
	</marker>
	<marker>
		<name>stage=body</name>
		<comment/>
		<color>
			<alpha>0</alpha>
			<red>255</red>
			<green>255</green>
			<blue>0</blue>
		</color>
		<in>91973</in>
		<out>-1</out>
	</marker>
	<marker>
		<name>stage=highlight</name>
		<comment/>
		<color>
			<alpha>0</alpha>
			<red>48</red>
			<green>191</green>
			<blue>72</blue>
		</color>
		<in>92453</in>
		<out>-1</out>
	</marker>
	<marker>
		<name>stage=conclusion</name>
		<comment/>
		<color>
			<alpha>0</alpha>
			<red>127</red>
			<green>0</green>
			<blue>255</blue>
		</color>
		<in>92906</in>
		<out>-1</out>
	</marker>
	<marker>
		<name>stage=applause</name>
		<comment/>
		<color>
			<alpha>0</alpha>
			<red>0</red>
			<green>128</green>
			<blue>255</blue>
		</color>
		<in>93928</in>
		<out>-1</out>
	</marker>
	<marker>
		<name>song='Allemanda from Partita II (Bach)';stage=intro</name>
		<comment/>
		<color>
			<alpha>0</alpha>
			<red>255</red>
			<green>127</green>
			<blue>0</blue>
		</color>
		<in>94484</in>
		<out>-1</out>
	</marker>
	<marker>
		<name>stage=body</name>
		<comment/>
		<color>
			<alpha>0</alpha>
			<red>255</red>
			<green>255</green>
			<blue>0</blue>
		</color>
		<in>95118</in>
		<out>-1</out>
	</marker>
	<marker>
		<name>stage=highlight</name>
		<comment/>
		<color>
			<alpha>0</alpha>
			<red>48</red>
			<green>191</green>
			<blue>72</blue>
		</color>
		<in>95980</in>
		<out>-1</out>
	</marker>
	<marker>
		<name>stage=body</name>
		<comment/>
		<color>
			<alpha>0</alpha>
			<red>255</red>
			<green>255</green>
			<blue>0</blue>
		</color>
		<in>96551</in>
		<out>-1</out>
	</marker>
	<marker>
		<name>stage=highlight</name>
		<comment/>
		<color>
			<alpha>0</alpha>
			<red>48</red>
			<green>191</green>
			<blue>72</blue>
		</color>
		<in>97691</in>
		<out>-1</out>
	</marker>
	<marker>
		<name>stage=conclusion</name>
		<comment/>
		<color>
			<alpha>0</alpha>
			<red>127</red>
			<green>0</green>
			<blue>255</blue>
		</color>
		<in>98125</in>
		<out>-1</out>
	</marker>
	<marker>
		<name>stage=applause</name>
		<comment/>
		<color>
			<alpha>0</alpha>
			<red>0</red>
			<green>128</green>
			<blue>255</blue>
		</color>
		<in>99231</in>
		<out>-1</out>
	</marker>
	<marker>
		<name>song='Adagio &amp; Allegro from Sonata No 6 in E (Bach)';stage=intro</name>
		<comment/>
		<color>
			<alpha>0</alpha>
			<red>255</red>
			<green>127</green>
			<blue>0</blue>
		</color>
		<in>99607</in>
		<out>-1</out>
	</marker>
	<marker>
		<name>stage=body</name>
		<comment/>
		<color>
			<alpha>0</alpha>
			<red>255</red>
			<green>255</green>
			<blue>0</blue>
		</color>
		<in>100072</in>
		<out>-1</out>
	</marker>
	<marker>
		<name>stage=highlight</name>
		<comment/>
		<color>
			<alpha>0</alpha>
			<red>48</red>
			<green>191</green>
			<blue>72</blue>
		</color>
		<in>101320</in>
		<out>-1</out>
	</marker>
	<marker>
		<name>stage=body</name>
		<comment/>
		<color>
			<alpha>0</alpha>
			<red>255</red>
			<green>255</green>
			<blue>0</blue>
		</color>
		<in>101840</in>
		<out>-1</out>
	</marker>
	<marker>
		<name>stage=highlight</name>
		<comment/>
		<color>
			<alpha>0</alpha>
			<red>48</red>
			<green>191</green>
			<blue>72</blue>
		</color>
		<in>105170</in>
		<out>-1</out>
	</marker>
	<marker>
		<name>stage=body</name>
		<comment/>
		<color>
			<alpha>0</alpha>
			<red>255</red>
			<green>255</green>
			<blue>0</blue>
		</color>
		<in>105693</in>
		<out>-1</out>
	</marker>
	<marker>
		<name>stage=conclusion</name>
		<comment/>
		<color>
			<alpha>0</alpha>
			<red>127</red>
			<green>0</green>
			<blue>255</blue>
		</color>
		<in>106200</in>
		<out>-1</out>
	</marker>
	<marker>
		<name>stage=applause</name>
		<comment/>
		<color>
			<alpha>0</alpha>
			<red>0</red>
			<green>128</green>
			<blue>255</blue>
		</color>
		<in>106761</in>
		<out>-1</out>
	</marker>
	<marker>
		<name>song='The Impossible Dream (Leigh)';stage=intro</name>
		<comment/>
		<color>
			<alpha>0</alpha>
			<red>255</red>
			<green>127</green>
			<blue>0</blue>
		</color>
		<in>107191</in>
		<out>-1</out>
	</marker>
	<marker>
		<name>stage=body</name>
		<comment/>
		<color>
			<alpha>0</alpha>
			<red>255</red>
			<green>255</green>
			<blue>0</blue>
		</color>
		<in>108720</in>
		<out>-1</out>
	</marker>
	<marker>
		<name>stage=highlight</name>
		<comment/>
		<color>
			<alpha>0</alpha>
			<red>48</red>
			<green>191</green>
			<blue>72</blue>
		</color>
		<in>109822</in>
		<out>-1</out>
	</marker>
	<marker>
		<name>stage=body</name>
		<comment/>
		<color>
			<alpha>0</alpha>
			<red>255</red>
			<green>255</green>
			<blue>0</blue>
		</color>
		<in>110221</in>
		<out>-1</out>
	</marker>
	<marker>
		<name>stage=highlight</name>
		<comment/>
		<color>
			<alpha>0</alpha>
			<red>48</red>
			<green>191</green>
			<blue>72</blue>
		</color>
		<in>110968</in>
		<out>-1</out>
	</marker>
	<marker>
		<name>stage=conclusion</name>
		<comment/>
		<color>
			<alpha>0</alpha>
			<red>127</red>
			<green>0</green>
			<blue>255</blue>
		</color>
		<in>111406</in>
		<out>-1</out>
	</marker>
	<marker>
		<name>stage=applause</name>
		<comment/>
		<color>
			<alpha>0</alpha>
			<red>0</red>
			<green>128</green>
			<blue>255</blue>
		</color>
		<in>111783</in>
		<out>-1</out>
	</marker>
	<marker>
		<name>song='Abscheid (Schumann)';stage=intro</name>
		<comment/>
		<color>
			<alpha>0</alpha>
			<red>255</red>
			<green>127</green>
			<blue>0</blue>
		</color>
		<in>112164</in>
		<out>-1</out>
	</marker>
	<marker>
		<name>stage=body</name>
		<comment/>
		<color>
			<alpha>0</alpha>
			<red>255</red>
			<green>255</green>
			<blue>0</blue>
		</color>
		<in>112400</in>
		<out>-1</out>
	</marker>
	<marker>
		<name>stage=highlight</name>
		<comment/>
		<color>
			<alpha>0</alpha>
			<red>48</red>
			<green>191</green>
			<blue>72</blue>
		</color>
		<in>113901</in>
		<out>-1</out>
	</marker>
	<marker>
		<name>stage=body</name>
		<comment/>
		<color>
			<alpha>0</alpha>
			<red>255</red>
			<green>255</green>
			<blue>0</blue>
		</color>
		<in>114299</in>
		<out>-1</out>
	</marker>
	<marker>
		<name>stage=highlight</name>
		<comment/>
		<color>
			<alpha>0</alpha>
			<red>48</red>
			<green>191</green>
			<blue>72</blue>
		</color>
		<in>116155</in>
		<out>-1</out>
	</marker>
	<marker>
		<name>stage=body</name>
		<comment/>
		<color>
			<alpha>0</alpha>
			<red>255</red>
			<green>255</green>
			<blue>0</blue>
		</color>
		<in>116752</in>
		<out>-1</out>
	</marker>
	<marker>
		<name>stage=conclusion</name>
		<comment/>
		<color>
			<alpha>0</alpha>
			<red>127</red>
			<green>0</green>
			<blue>255</blue>
		</color>
		<in>117053</in>
		<out>-1</out>
	</marker>
	<marker>
		<name>stage=applause</name>
		<comment/>
		<color>
			<alpha>0</alpha>
			<red>0</red>
			<green>128</green>
			<blue>255</blue>
		</color>
		<in>117697</in>
		<out>-1</out>
	</marker>
	<marker>
		<name>song='First Movement of Winter Concerto (Vivaldi)';stage=intro</name>
		<comment/>
		<color>
			<alpha>0</alpha>
			<red>255</red>
			<green>127</green>
			<blue>0</blue>
		</color>
		<in>118202</in>
		<out>-1</out>
	</marker>
	<marker>
		<name>stage=body</name>
		<comment/>
		<color>
			<alpha>0</alpha>
			<red>255</red>
			<green>255</green>
			<blue>0</blue>
		</color>
		<in>119360</in>
		<out>-1</out>
	</marker>
	<marker>
		<name>stage=highlight</name>
		<comment/>
		<color>
			<alpha>0</alpha>
			<red>48</red>
			<green>191</green>
			<blue>72</blue>
		</color>
		<in>121066</in>
		<out>-1</out>
	</marker>
	<marker>
		<name>stage=body</name>
		<comment/>
		<color>
			<alpha>0</alpha>
			<red>255</red>
			<green>255</green>
			<blue>0</blue>
		</color>
		<in>121600</in>
		<out>-1</out>
	</marker>
	<marker>
		<name>stage=highlight</name>
		<comment/>
		<color>
			<alpha>0</alpha>
			<red>48</red>
			<green>191</green>
			<blue>72</blue>
		</color>
		<in>122593</in>
		<out>-1</out>
	</marker>
	<marker>
		<name>stage=body</name>
		<comment/>
		<color>
			<alpha>0</alpha>
			<red>255</red>
			<green>255</green>
			<blue>0</blue>
		</color>
		<in>123017</in>
		<out>-1</out>
	</marker>
	<marker>
		<name>stage=conclusion</name>
		<comment/>
		<color>
			<alpha>0</alpha>
			<red>127</red>
			<green>0</green>
			<blue>255</blue>
		</color>
		<in>124133</in>
		<out>-1</out>
	</marker>
	<marker>
		<name>stage=applause</name>
		<comment/>
		<color>
			<alpha>0</alpha>
			<red>0</red>
			<green>128</green>
			<blue>255</blue>
		</color>
		<in>125187</in>
		<out>-1</out>
	</marker>
	<marker>
		<name>song='Scarborough Fair (Trad arr Reichenbach)';stage=intro</name>
		<comment/>
		<color>
			<alpha>0</alpha>
			<red>255</red>
			<green>127</green>
			<blue>0</blue>
		</color>
		<in>125990</in>
		<out>-1</out>
	</marker>
	<marker>
		<name>stage=body</name>
		<comment/>
		<color>
			<alpha>0</alpha>
			<red>255</red>
			<green>255</green>
			<blue>0</blue>
		</color>
		<in>126878</in>
		<out>-1</out>
	</marker>
	<marker>
		<name>stage=highlight</name>
		<comment/>
		<color>
			<alpha>0</alpha>
			<red>48</red>
			<green>191</green>
			<blue>72</blue>
		</color>
		<in>127783</in>
		<out>-1</out>
	</marker>
	<marker>
		<name>stage=body</name>
		<comment/>
		<color>
			<alpha>0</alpha>
			<red>255</red>
			<green>255</green>
			<blue>0</blue>
		</color>
		<in>128170</in>
		<out>-1</out>
	</marker>
	<marker>
		<name>stage=highlight</name>
		<comment/>
		<color>
			<alpha>0</alpha>
			<red>48</red>
			<green>191</green>
			<blue>72</blue>
		</color>
		<in>128793</in>
		<out>-1</out>
	</marker>
	<marker>
		<name>stage=conclusion</name>
		<comment/>
		<color>
			<alpha>0</alpha>
			<red>127</red>
			<green>0</green>
			<blue>255</blue>
		</color>
		<in>129161</in>
		<out>-1</out>
	</marker>
	<marker>
		<name>stage=applause</name>
		<comment/>
		<color>
			<alpha>0</alpha>
			<red>0</red>
			<green>128</green>
			<blue>255</blue>
		</color>
		<in>129655</in>
		<out>-1</out>
	</marker>
	<marker>
		<name>event=concert</name>
		<comment/>
		<color>
			<alpha>0</alpha>
			<red>255</red>
			<green>0</green>
			<blue>0</blue>
		</color>
		<in>130233</in>
		<out>-1</out>
	</marker>
	<marker>
		<name>event=concert;stage=conclusion</name>
		<comment/>
		<color>
			<alpha>0</alpha>
			<red>255</red>
			<green>0</green>
			<blue>127</blue>
		</color>
		<in>134412</in>
		<out>-1</out>
	</marker>
</sequence>
</xmeml>


